<?xml version="1.0" encoding="UTF-8"?>
<svg width="317.54" height="317.54" 
viewBox="0 0 317.54 317.54" 
preserveAspectRatio="xMinYMin"
xmlns:xlink="http://www.w3.org/1999/xlink"
xmlns="http://www.w3.org/2000/svg">
<!-- Generated by PQINA - https://pqina.nl/ -->
<title></title>
<g transform="rotate(0 158.77 158.77) translate(158.77 158.77) scale(1) translate(-158.77 -158.77) translate(0 -17.85499999999999)">
<g transform="scale(1 1) translate(0 0)">
<svg xmlns="http://www.w3.org/2000/svg" xmlns:xlink="http://www.w3.org/1999/xlink" viewBox="0 0 317.54 353.25" width="317.54" height="353.25" style="overflow: visible;"><defs><style>.cls-1{fill:none;}.cls-2{clip-path:url(#clip-path);}.cls-3{fill:#545454;}.cls-4{clip-path:url(#clip-path-2);}</style><clipPath id="clip-path" transform="translate(-0.05 0)"><rect class="cls-1" y="0.05" width="317.62" height="353.2"></rect></clipPath><clipPath id="clip-path-2" transform="translate(-0.05 0)"><rect class="cls-1" x="300.62" width="3" height="1.05"></rect></clipPath></defs><g id="Calque_2" data-name="Calque 2"><g id="Calque_1-2" data-name="Calque 1"><g id="surface1"><g class="cls-2"><path class="cls-3" d="M105.18,125.36c-.8.76-.33,1.41.58,1.1C105.57,126.08,105.39,125.75,105.18,125.36ZM285,11.79c0,.13,0,.26,0,.39h.84C285.78,11.66,286,11.73,285,11.79ZM71.91,220.27c.37-.47.38-.21.14-.92C71.59,219.73,71.61,219.48,71.91,220.27ZM294.25,8.43l-1.51.23C293.65,9.34,293.65,9.34,294.25,8.43Zm-203,215.3.36.11c.1-.46.21-.93.3-1.4C91.49,222.78,91,223.09,91.27,223.73ZM72.75,237.92c0,1,0,1,.81,1.13ZM59.06,284.17c0-.06-.1-.13-.15-.22-.29.28-.59.54-.88.8a2.27,2.27,0,0,0,.18.25C58.5,284.73,58.79,284.45,59.06,284.17Zm62.1-71.81c.68-1.33-.23-1.06-.32-.65C120.8,211.84,121,212,121.16,212.36ZM58.87,254c.17,0,.32.1.47.15C59.57,253,59.31,252.55,58.87,254Zm200.79,80c.06-.11.11-.22.18-.34-.44-.24-.64-.89-1.63-.84C258.86,333.29,259.26,333.61,259.66,334ZM107,205.73c-1.07-1-1.1-1-1.56-.16ZM39.34,283.66c-.64.09-1,.33-1,1.16C38.93,284.63,39.37,284.55,39.34,283.66Zm36.81-273c0-1.16,0-1.16-1-1.25C75.55,9.88,75.77,10.17,76.15,10.68Zm8.14,241.58c-.36-.28-1.34-1.11-1.15-.32C83.27,252.5,83.64,252.49,84.29,252.26Zm-10,9.62,1.76-.49C75.49,261.13,74.86,260.5,74.32,261.88ZM153.23,207c-.64-.78-.3-.83-1.26,0C152.65,207.73,152.32,207.73,153.23,207ZM55.55,289l-.21-.29c-.43.29-.86.56-1.54,1C54.94,290.11,55.21,289.48,55.55,289ZM43.1,252.91c.76.39,1.21.44,1.7-.1C44.25,252,43.79,252.39,43.1,252.91Zm42.19-5.59c-1.18.49-.45,1.45,0,1.21S85.64,247.79,85.29,247.32Zm-22,30.23-1.4-.41C62.61,278.25,62.61,278.25,63.25,277.55Zm171.66,35c.23.7.36,1.28,1.21,1.09C236,312.9,235.84,312.45,234.91,312.53ZM64.55,7.27l-.37.1c.15,1.47,0,1.18.78,1.18C64.8,8.05,64.67,7.66,64.55,7.27Zm108,231.06c.43,1,.63,1.77,1.6,2C174,239.38,173.81,238.61,172.58,238.33Zm95.7,100.5-1.13-1.17C267.3,338.79,267.3,338.79,268.28,338.83Zm-88-89.71c-.11.1-.2.21-.31.32l1.45,1.94a2.55,2.55,0,0,1,.24-.23A3.32,3.32,0,0,0,180.24,249.12ZM77.48,81h1.76c-1.56-1.14-1.56-1.14-1.94-.85C77.35,80.36,77.42,80.67,77.48,81Zm211.71-53c-.54-.69-1-.85-1.71-.23A1.26,1.26,0,0,0,289.19,27.94ZM112.09,220.09c.33-.59.53-1,.84-1.52C111.85,218.77,111.85,218.77,112.09,220.09ZM27.93,295.24l-1.23,1.13C27.82,296.61,27.82,296.61,27.93,295.24Zm35-6.95c.93.1,1.36-.2,1.28-1.26C63.36,286.88,63,287.24,62.91,288.29Zm103.45-60.35c-.37,1.51-.23,1.7,1.18,1.86ZM25.16,279.21c-1-.44-1.37.13-1.75.83C24.34,280.54,24.34,280.54,25.16,279.21ZM215.28,55.33c.79-.59,1.74-.95,2.25-2.12C216,53,215.75,54.33,215.28,55.33ZM85,249.34c-1.49-.81-1.76-.77-2.54.34C83.29,250.41,84.05,249.84,85,249.34ZM61.49,290.69c-2,1.58-2,1.6-1.15,2.52C60.74,292.34,61.12,291.52,61.49,290.69Zm-2.1-32.31c-1.25-2.33-1.25-2.33-2.12-2.22C58.62,258.43,58.62,258.43,59.39,258.38Zm-22,4.63c1.77-2.5.37-2.31,0-2.05C36.66,261.42,36.66,261.77,37.34,263Zm68.25-127.82a2.52,2.52,0,0,0,2-1.84c-.46-.27-.58-1-1.19-1.07C106.16,133.23,105.91,134.08,105.59,135.19ZM36.28,263.5c-.94.17-.71.39-2.67,3.84A6.65,6.65,0,0,0,36.28,263.5ZM73,262l1.49-2.65-1-.65C72.6,261,72.6,261,73,262ZM214.14,58a5.78,5.78,0,0,0-3.39,3.12A4.52,4.52,0,0,0,214.14,58ZM103.2,209.2c.08-.6.13-1,.19-1.47l1.47-.5c-.18-.36-.3-.62-.41-.87l-3.29,1.93ZM82.74,265.05c-2.8-.37-2.76,1.57-1.76,2.4ZM66.45,283.51c1,.1,4.35-2.62,2.52-3.53C68.14,281.14,67.37,282.21,66.45,283.51Zm46.28-137.2c2.88-1,2.4-1.82,2.46-2.75C113.36,143.71,112.93,144.72,112.73,146.31ZM61,252.06a35.13,35.13,0,0,0,5-2.38c-1-1.36-.94.41-3.06.7A1.8,1.8,0,0,0,61,252.06ZM286,32.29c2.06.48,2.31-1.45,3.29-2.55C287.53,29.78,287.38,29.9,286,32.29ZM80.29,252c-.72.95-1.12,2.24-2.29,2.67,0,0,0,.36,0,.63.68,0,1.25,0,2,0C81,252.26,81.07,252.45,80.29,252Zm5-231.45c1.83,1.41,1.71.39.59-1.78-.83.65-1.27,1.85-2.41,1.74,0,.92.48,1.1,1.07,1.25C84.77,21.35,85,21,85.28,20.52ZM43.61,254.73c0-.11-.08-.22-.11-.32-2.76.41-1.38-.46-3.57,3.92C41.71,258.37,40.34,258.25,43.61,254.73ZM199,79a4,4,0,0,0,4.14-3.76C201.94,76.82,200,76.88,199,79ZM34.4,286.77c-.23,1.61.24,1.42-1.78,3.72-.44.51-1.39,3.22,3.68-2.81ZM280.85,30.3c2.92-.76,2.77-4,5-3.46.15-.9.29-1.73.46-2.68C280.3,30.07,281.59,28.62,280.85,30.3ZM16.33,312.49c1.11-1.48,2.21-2.76,1.27-4.86-1.07.55-1-.14-.77,2.43A14.85,14.85,0,0,0,15,311.34Zm64.54-298c.12,1,.22,1.8.34,2.76.31-.06.62-.15.83-.21-.28-2.89-.14-5.46-2.47-3.72v1.74C80,14.9,80.26,14.78,80.87,14.5ZM29,274.62c1.52-3,1.46-2.95,1.68-3.14,1.61-1.44,3.53-2.36,2.62-3.48-1.47-1.77-2.41,2.57-4,3.7C28.48,272.21,28.39,273.26,29,274.62Zm-2.05,24.75c-2.37,0-2.09-1-3.18.31-1.78,2.25-1.84,3.47-4.14,5a2.65,2.65,0,0,0-1.29,1.64L19,309l.91-3.07.26.06c0,.85,0,1.69,0,2.58,1.5-.94,0-1.17,1.09-3.82.72.54,1.39.68,2-.16-.12-.43-.23-.87-.39-1.39,1.25-.4,1.41-1.71,1.93-2.78l1.13.79ZM54.28,263.3c2.36.34,1.65-2.85,1.61-3.78-.45.23-.88.42-1.28.63l-.77-1.08c.27,2.61-1.16,2.21-2.58,2.86.07.47.12.88.18,1.21-3.45,2.36-.73,1.31-3.68,3.4-.73.51-.72,1.14-.28,2,.22-.45.46-.89.69-1.36h1.88c-.13.53-.21.91-.29,1.3,2.33.47.88-1.64,4.12-3.26C54.65,264.88,54.76,264.36,54.28,263.3ZM220.17,52.17c-4.71,4.09-4,3.34-4,4.54,1.78,0,6.2-4.51,8.56-6.65.37-.33,3.14-.73,4-4.07l-3.08,1c-.26-.37-.41-.62-.58-.87C220.05,50,218.7,51,220.17,52.17ZM110,136.39a11.61,11.61,0,0,1,4.15,4.32c.72,2.09,2.67-1.26,1.39-2.85-2.47-3-3.13-4.15-4.38-4.93-1.35,1-.93,1.47-1.12,3.5-2.56-3.49-2.34-.84-3.39.51-.77,1,3.61,8.51,4.77,7.7.95-.68,2.31-.79,2.75-2.39C112.77,140.1,114,141.81,110,136.39ZM68.75,245.54a1.34,1.34,0,0,0,1.5-1c-.92.11-.92.11-1.46,1l-3,.13c-.29,1.47-1,3.22,1,2.85,0-.77-.07-1.53-.11-2.39C67.2,246.36,68.79,248.82,68.75,245.54ZM40.14,281.66l.33-2.23L42,280.88c3.68-5.92,5.06-4.13,4-6.72s2.17-1.66,2.56-1.66v-1.35c-3.07,0-5.81,2.41-6.72,3.87.83,1.7.55.72-1.38,4.46-2.07,1.66-2.25,2.36-3.59,2.64-.09,0-.16.23-.34.52,1.13.32.19.66,3.61-1,.11.25.22.5.48,1.13.2-.72.28-1.05.46-1.73Zm30-17.3c-.33.59-.64,1.19-1.1,2,1.56-.62,1.6-.7,1.06-2,.72.26,1.23-.14,1.72-.69,0-.51,0-1-.06-1.61C70.47,262.88,70.47,262.88,70.14,264.36Zm217-254.88c-.14.4-.3.8-.5,1.32,1.77,2.32,0,1-1.07,3.33-.34.85,1.08.79.32,1.6-.71,1-.7,1,.49,1.37-.21-.55-.36-1-.53-1.4,1.93,2.51,1.17,2.39,4.34,1.71-.21-.93-.42-1.93-.65-2.89.9-.53,1.08.36,1.64.87.49-1,1-2,1.46-3l-1.08-1,1.15-.9-1.53-1.11c1.59-1.84,2.06-2.67,3.05-2.27.47.2.75-.09.76-.76-.24-.09-.48-.2-.77-.33.49-.81,1.62-.23,2-2,.2-1.13,1.28-.77,2.06-1.17.06-.33.14-.75.24-1.23,2.67,0,1.64-.18,3.87,1C299.44,4.35,300.61,4,298.05,9c-1.16-.25-1.42,1.14-2.28,1.49.35,2.43-1,1.4-3.14,6.54.62,1,.07,1.12-2,4.9l-.92-.56c.76-1.31.8.09,1.25-1.89-1.26,0-3.18,2.24-3.68,3.55.94.54,1.45-1.1,2.42-.33-1.12,1.45-2.11,1.17-2.43,3.42.69.71,1.42.35,2.09,0a1.33,1.33,0,0,1,.57,2.11c1.79.69,2.07.54,2.85-1.55l-.69-1.15c-.25.19-.51.39-.78.62-.76-1.51,2.7-4.85,3.71-6.14l0,0c.18.45.34.89.52,1.38a5.64,5.64,0,0,1-3.22,3c.73.68,1.28,1.22,2,1.89V24.69c3.51-3.11,3.11-4.49,5.2-4,.5-.89.89-2,2.06-2.05,0-.07,13.12-15.9,15.15-17.83,1.18,1.13,1.15,1.12.41,2.54-.55,1-7.36,8.44-8.81,9.77-1.78,1.63-1.57,4.06-1.69,4.47-.19.69-1.18.56-1.23,1.6,0,.38-.95.79-1.52,1-.12.06-9.74,13.47-10.79,15.68l1.12.46-1.54.39c-.15.44-.27.87-.39,1.3l-.65-.25c-.53.65-1.09,1.33-1.71,2.07l.85.89c-.19.35-.44.78-.73,1.28.1.14.27.36.5.69-.59,0-1.07.08-1.5.13-.66.83.16,1.18.37,1.73-.92,1.67-.58-.47-3.58.65.26.18.52.36.84.6-.16.38-.34.78-.62,1.4.48-.14.76-.21,1.15-.31l-1.75,2.8c-.12-.31-.24-.61-.42-1-.57.67-.76,1.12-.07,1.58-1.71-.79-2.23-1.32-2.69.19,1.08-.51,1.45.47,2.21.81-.37.58-.68,1-1,1.49,1.81,1.76,1.17-.33,2.85-1.32-.32-.54-.63-1-.93-1.51,2.89-1.4,7.15-9.05,13.77-12.8.36-.21,4.43-.59,3.93-3.2-.29-1.52,4.45-4.75,5.09-4.89-1.07,3.43-22.7,28.82-23.41,32.27-.36,1.71-3.07,4.18-4.84,4.34-1.87,5.8-.41,1.62-3.68,4.65-.63.58-.16.42-.16,2.56l1.83-1.48c0,3.68-4.56,4.75-4.66,6.72-.06,1.13-1.75,1.6-2.12,1.75A4.65,4.65,0,0,1,268.87,83c-4.25,3.18-.23,2.36-3.89,3.75.15,1.06-.14.84-3,4.44-1.21-.26-1.63.13-2,1.88-3.62.26-2.31,3.79-4.44,6-.38.39-3,3.09-3.81,3.39-2.33.88-.78,1.26-2.08,2.47-34,31.85-30.19,27.51-30.36,29.78,11-8.1,26.84-22.34,26.84-22.34-.8,1.18-10.11,10-10,11.26,0,.17-.45.62-.57.58-2.17-.91-1.46,3.85-4.1,5-1.46.66-2.43,3.71-4.73,4.3-.35.5-18.55,18.7-18.91,19.07-6.64,6.74-7.28,5.54-2.46,13.66,2-1,5,8.31,6.8,9.84l4.45-2.44.17.28c-3.94,4.81-4.21,2.69-.18,8.32.29.41,36.32,54.53,35.41,57.68.52.66,4.92,5.89,4.26,8-.2.64-.65,1.28-.13,2.14l1.78-.44,1.21,2.39-2.41.78c.17,1.09,11.05,16.6,10.9,17.35-1.79-.94.33,1.72-4.39-3.71-1.3,2.08-1.33,1,2.73,8.51l-1.51-1.74a6.35,6.35,0,0,1-.22,1.86c.58,0,1,.06,1.44.07l-1,.55c.66,1.14,1.25,2.14,1.77,3-4.77-2.76-1.56-1.08-5.46-4.22l-.29.19c.28,2.44,3.7,5.13,5.61,8.26-3.44-1.25-5.8-8-7.95-6.33a5.39,5.39,0,0,0-2.86-1.78c0,.11,8.32,15.88,8.33,16l0-.05c-4.3-5.85-2.85-3.94-10.83-16.86-.8,4.27,12.69,18.34,11.52,21.27l-2.28-2.79c-2.14,2.62,25.81,32,26.16,36-3.91-3.63-6.8-8.4-10.95-12.26.29,3,1.19,2.52,8.38,13.09l-1.42-1.06c1.3,2.94,3.85,1.49,4.8,6.35C277,321.5,277,318.56,275,320.05c1,2.65,7.46,9,11.58,15.7-.55,2.93,2,4.21,3.21,6.31l-.27.26a27.55,27.55,0,0,0-4.88-4.08c-.76-3.7-3.06-1.37-1.9.19,2.49,3.37,11.26,11.69,12.22,13.48-4.7-1.12-8.09-9.41-9.94-8.59-22.59-22.76-21.07-20.75-21.57-21.24-.52,1.21.86,4.14,1.84,5.09,1.32,1.27.88-.94,4.65,6.24-.78,1.29-2.28.23,7.19,11.21l-.93.85c.08.49.83.78.29,1.5l-3.21-1.92.69-.63c-7.68-7.52-7-3.84-9.55-7.91l1.75,1.3c0-1.42-1.61-3.31-3.09-3.92a4.69,4.69,0,0,0,1.24,2.54c-2.48-2.14-2.76-2.55-3.75-2.47,4.51,9.09,15.08,15.81,16.22,19.29-5.48-3.3-30-30.47-36.74-36.46-.8,1.53,0,2,2.06,4.32l.05,0c-1,.29-.8.31-1.63,3.45.28.69.63,1.52,1,2.42,1.22-1.54-.11-2.79,8.86,8.56,1.59,2,2.19-.19,2,2.5-1.12-1.45-3.12-1.27-3.73-3.28-.75-.31-1.5-.62-2.3-1-.41-.71-.91-1.59-1.51-2.68l-.69,1.34c-1.2-.87-22.86-24-23.27-24.5-6.7-7.88-18.41-32-23.55-34.91,0-.43,0-.79-.06-1.16,1.08-.51,1,1.2,2,1.47a15.76,15.76,0,0,0-2.43-5l-2.87.15c0,.24,0,.49.12,1.15-1.1-1.27-2-2.3-2.93-3.39.21-.27.42-.52.73-.89-.91-.74-1.78-1.41-2.61-2.13-3.91-3.39-2.88-5.45-5.64-6.12-.47-.13-1.86-1.23-2.08-3.94-2,.16-2.3-5-4.82-6.77.13.51.23.88.33,1.26l-.26.16c-1.27-2.55.19-1.2-1.16-4.47l1.28,1.47a4.36,4.36,0,0,0-1.56-3.07l-.67.72c-1.27-.86-2.08-2.8-6-7.29,0,0-15.15-22.61-16-26.09l-1.34.62c1-1.39.26-2.15-.5-3-1.43,1-19.41,20.21-19.78,20.6-.92-.88,2.31-3.17,12.06-14,6.9-7.67,8.12-8,5-10.57-.37.37-29.22,29.67-34.39,36.64l.38.45c-.29.42-61.7,70.51-67.69,72.61.27-.47.55-.95.81-1.43l-.2-.25c-6.64,5.72-4.76,1.72-9.05,6.72-.59.69-.41.89-1.5,1.34.37-1.18,1.5-1.74,1.61-3-2.27,2-4.46,4-7.53,5,.86-3.16,4.47-2.5,3.11-6.85-2.23,1.06-1.86,2.14-3.48.32,1.11-.28,2.4.95,1.44-1.71a17.73,17.73,0,0,1,4.71-4.71,1.42,1.42,0,0,0,.6-1c-.12-1.29,1.28-4.11,4.79-5.71,2.72-5.91,4.42-4.14,4-7.62,5.37-1.74,4-3.6,5-4.48,3.2-2.79,4.92-3.79,4.85-6,0-.83,10.24-10.33,10-11.93a1.45,1.45,0,0,0,.92-1.35c.15-1.78,1.64-1,2.27-2.54-2.78.61-3.34,1.34-3.14,3.95-.6-.1-1.47-.53-1.77-.22-.76.74-1.82,1.5-1.57,3.06l-.6-.74c-.31.41-13.17,16.14-15.92,20.29-2.19,1.7-9.42,12.46-12.76,13.4-.11,2,.48,2.24-1.77,2.5-1.52,1.47-4.88,4.43-4.88,6.32-5.53,2.83-8.58,9.12-11.79,7.93.36-.67.67-1.31,1-2-.86-.68-1.66-1.26-2.74-.73-.51-1.51,1.93-2.39-.31-4.07-.39.56-.79,1.14-1.18,1.72a1.15,1.15,0,0,1-.19-.14c1.42-4.07,1.4-3.65-3.28-2.55-.07-.1-.19-.22-.18-.25.85-1.38.15-2.76,0-4.23-.91-.18-1.92-.24-2.12-.28C5,311,5.78,310,5,309.89c.54-2.34.38-1.09,2.48-4.64,2.31-3.9-.7-3.43,1.95-5.4,1-.74,1-1.56.37-2-6.19,8.93-4.64,9.37-6.08,8.76,1.59-2.94,2-2.87,1.21-3.59.86-1.18-.14-1.14-.14-3.68-.61-.13-1.26-.25-2-.39-.06,2-1.65,2-2.74,2.75,2.29-5.22,1.43-10.86,3.41-12.95,7.34-15.77,73-109.64,77.48-107.41-.25-1.9,5.76-8.58,7.73-9.59-.46.29-5.56,6.7-5.6,6.81,1,1.05,18.46-18.74,18.68-19.15-1.13-1.72-.8-1.58-6.64,4.86-.07-.06-.14-.15-.23-.22,5.74-7.3,3.71-4.82,10.73-12.29l0,0c.08.52.17,1.05.26,1.71l-2.66,1.82c1.17,1,1.81,1.09,2.58-.05,1.17-1.77,4.33-3.41,5.72-6.9-.51-1.07-1.23-.28-1.86-.32.22-.76.44-1.52.58-1.94-7.17-9.5-5.75-8.22-9.87-2.84-.72-1-1-2.7-2.51-2.63v-1.88c3.45-1.19.86,3.83,3.46,1.84a8,8,0,0,0,2.48-2.9c-3.6-1.19.88.69-6.2-8.1-.88-1.09-1.79-.71-2.39-3-.73-2.78-2-1.78-3-4.43-.68-1.79-1.75-.49-2.62-3-1.8-5.23-3.26-2.54-5.66-7.69-1.27-2.74-2.4-3-3.7-4.9,4.23,1.14,20.35,24.22,20.58,24.64.83.16,1,1.5,2,1.43.29,0,.6.47,1,.76.23-.25.48-.5.81-.83.08.36.15.65.23.94,3.89-1.72-2.82-6-26.78-39.31.28-.4.5-.75.73-1.09,0,0,22.64,29,24.88,31,1.6-2.47-28-37-33.51-45.72.32-.34.54-.56.76-.78,1.83,1.09,36.54,48.13,38.17,46.21-2-3.11-23.42-33.91-27.9-36.38,0,0-11.56-14.2-11.92-14.84-1.49-1.2-.13.51-5.1-6.11.19-.46.38-.88.59-1.32,2.72,1.25,9.66,14.61,12.86,13.92C74.42,74.58,42.82,31,41.83,31.31c1.52,3.89,1,2.18,1.82,6.37-3.29-.55-3.42-5-2.92-8.7.61-.76,1.53-.24,2.47,0,.07-.37.11-.68.19-1.12.45.6.88,1.15,1.35,1.76A1.25,1.25,0,0,0,44.91,28c-.83-1.14-.22-2.23-.21-3.44.92.15,1,1.69,2.09,1.18.31-.63-.12-1.11-.41-1.59a3.07,3.07,0,0,1,.08-3.22c-.33-.41-1-.9-.55-1.86a2.18,2.18,0,0,0,1.81,1.34c.6-1.36-.06-2.46-.31-3.72C51,14.6,44.74,13.62,54,14.16a4.94,4.94,0,0,1,1.3.48c-.08-1-.15-1.68-.22-2.61.61.13,1.11.22,1.63.32-.1.58-.17,1.15-.28,1.86.94-.59.76-1.18.25-1.82,0-1-.06-2-.06-3s.77-1.2,0-2c-.53-.57-.24-.94.17-1.25-2-1.89-1.51-1.21-1.45-2.62.44.4.72.63,1,.94.35-.44.65-.84,1.17-1.52V5.13l2-1,.18.27c-.1.2-.21.41-.34.63.73.67,1.28,1.89,2.66,1-1.76-2.23-1.42-2.4,4.41-.31,1.06-1,1-1.45-.29-2.87l1.42-1.22c.69.22,1,1,1.49,1.7A9.48,9.48,0,0,0,70.71,5s.19-.13.49-.33c.42.77.83,1.56,1.44,2.7L73,6.21c.52,1,1.66.5,1.9,1.64.08.42,2,1.44,4-1.68,4.84-1.3,63.53,69.67,65.2,72.55,3.92,6.75,5.5-1.22,19.59-10.88-.06,1.9-.06,1.9-1.86,2.15v2.77c-.78-.3.06-1.24-.8-1.1-1.58.25,1.09,1.71-.88,3a2.21,2.21,0,0,0-1.09,1.92c-.11-.66-.22-1.33-.34-2.15-.91-.26-1.56.39-2.41,1.46.77.06,1.25.09,1.72.1-.15,1.89-.45,3.58,1.2,3.09-.54-.55-1-1-1.36-1.42.7.24,1.66-.18,2,1.08-1,2.08-3,3.08-4.55,4.62,1.69,2.35,7.23-5.72,12.79-8.9l0,0C166.8,77.16,156,85,155.88,88.71l.71.87c-.45.86-.88,1.64-1.25,2.33,1.93,8.17,33.95-32.53,55-43.68-1.44,2.32-30.36,25.62-30.87,28.2,1.54.1.11.69,6.31-4.59,1.63-1.4,3.52-1,4-2.78a8.18,8.18,0,0,0,1.94-1.72c.42-.79.87-1,1.67-.59,0-.39.07-.7.1-1,11.74-7.63,3.39-4.12,11.34-9,.24.84.91.55,1.21.11,1-1.4,1.92-.36,3.7-1.86,1.43-1.19,5.65-4.31,5.65-4.31.84-1.12,1.65-2.26,2.49-3.41,1,.47,1.34.32,2.21-1.07.19,0,.29.19.43.39l.85-.86c.79,1.47-1.12.73-4.31,5.09,1.8-.29,9.23-8.06,11.38-8.3-.34,2.28-2.22.2-2.71,3.75,2.52-.14,4.83-4.89,9.78-7.54-2.7,2.67-3.33,2.88-2.93,4.39,7.08-4.73.23-1.15,13.19-9.4.82,1,1.35-.48,2.15-.66.23,1.08.91.9,1.75.7.7-3.24.39-2.18,1.41-3.72v1.32c1.54-.18,17.28-14.29,19.41-17.27.07.51.1.66.13.84,1.54-.06,2.19-.83,2-2.8l1,.72c.11-.23.21-.45.31-.68,2.44,1.51,1.83-2.21,7.15-2.44.35,0,.69-.36,1-.56l0,.05c1.16-.73,2.3-1.47,3.64-2.31.11.69.18,1.16.25,1.61l0-.05c-1.08-.44-1.52.43-2.19,1.3l3.39-.28-.05,0" transform="translate(-0.05 0)"></path></g><path class="cls-3" d="M67,296.12c.71,1.27,5.63-3.09,5.32-4.4A6.65,6.65,0,0,0,67,296.12Zm36.71-38c-6.41,9.2-40.28,47.61-46.7,48.56.69-.7,12-9.85,2.88-5.12.07-.15,17.92-17.49,18-17.6.39.41-.26,1.12.46,1.45,1.9.83,3.25-6.2,5.26-8.76l.56,1.59c1.43-.48,2-2.07,3-2.94.21.13.42.24.64.36,4.09-7.06,14.77-17.58,15.84-17.49l0-.05" transform="translate(-0.05 0)"></path><path class="cls-3" d="M103.71,258.14c.5-3.14,23.59-29.33,25.84-29.88-.73,2.14-25.17,29.53-25.87,29.83l0,.05" transform="translate(-0.05 0)"></path><path class="cls-3" d="M286,8.55l1.4-1.26c-.11-.56-.21-1.07-.35-1.8.57.11,1,.18,1.52.26.68-1.34.59-3.29,2.29-3.83.31.94.62,1.93.89,2.74-2.8,3.39-2,2.57-3.11,2.83-.52,1.06.48,1.08.9,1.56a3.89,3.89,0,0,1-2.3.47l-1.2-1,0,.05" transform="translate(-0.05 0)"></path><path class="cls-3" d="M295,20c1.93-2.24,2.3-3,3.36-2.78-.64,2.21-1.72,3.09-3.38,2.76l0,0" transform="translate(-0.05 0)"></path><path class="cls-3" d="M105.61,151.76c1.34-1.77.52-1,3-2.92.1,2.41-1.79,3.43-3,2.88l0,0" transform="translate(-0.05 0)"></path><path class="cls-3" d="M280.14,69.14c-.23.7.61,1.45-.41,1.63-.87-1.57.1-2.15,1.67-3.86,0,.9-.24.64.87,1l-2.13,1.21" transform="translate(-0.05 0)"></path><path class="cls-3" d="M92.73,166.37c-.19,1.52.54.47-2.52,3.91.1-1.22.1-1.22,2.52-3.91" transform="translate(-0.05 0)"></path><path class="cls-3" d="M242.07,321.11c.47.27.18-.45,1.4,3.45l-1.35-.84c0-2-.05-2.91-.05-2.61" transform="translate(-0.05 0)"></path><g class="cls-4"><path class="cls-3" d="M300.8.7c.91-.8.91-.8,2-.56-.25.82-.25.82-2,.56" transform="translate(-0.05 0)"></path></g><path class="cls-3" d="M168.13,74.5c.57-.62,1.13-1.25,1.82-2,.09,1.52-.44,2-1.85,2l0,0" transform="translate(-0.05 0)"></path><path class="cls-3" d="M263.85,290.87c1.33.38,1.66,1.74,2.13,2.95-.71-1-1.4-2-2.09-3l0,.05" transform="translate(-0.05 0)"></path><path class="cls-3" d="M282.1,9.2c-.42,0-.85-.12-1.31-.19.44-.76.44-.76,1.62-.83l-.35,1.07,0-.05" transform="translate(-0.05 0)"></path><path class="cls-3" d="M57.38,303.34c.62-.52,1.16-1,1.92-1.63-.47,1.63-.84,1.92-1.92,1.63" transform="translate(-0.05 0)"></path><path class="cls-3" d="M195.12,269.93c1,0,1,0,1.1,1.33-1.12.18-.36-1.26-1.1-1.33" transform="translate(-0.05 0)"></path></g></g></g></svg>
</g>
</g>
</svg>