<?xml version="1.0" encoding="UTF-8"?>
<svg width="368.36" height="368.36" 
viewBox="0 0 368.36 368.36" 
preserveAspectRatio="xMinYMin"
xmlns:xlink="http://www.w3.org/1999/xlink"
xmlns="http://www.w3.org/2000/svg">
<!-- Generated by PQINA - https://pqina.nl/ -->
<title></title>
<g transform="rotate(0 184.18 184.18) translate(184.18 184.18) scale(1.0007878936071943) translate(-184.18 -184.18) translate(0 0.14500000000001023)">
<g transform="scale(1 1) translate(0 0)">
<svg xmlns="http://www.w3.org/2000/svg" xmlns:xlink="http://www.w3.org/1999/xlink" viewBox="0 0 368.36 368.07" width="368.36" height="368.07" style="overflow: visible;"><defs><style>.cls-1{fill:none;}.cls-2{clip-path:url(#clip-path);}.cls-3{clip-path:url(#clip-path-2);}.cls-4{fill:#b25416;}.cls-5{clip-path:url(#clip-path-4);}.cls-6{clip-path:url(#clip-path-5);}.cls-7{clip-path:url(#clip-path-6);}.cls-8{fill:#314a37;}.cls-9{clip-path:url(#clip-path-8);}.cls-10{clip-path:url(#clip-path-11);}.cls-11{clip-path:url(#clip-path-14);}.cls-12{clip-path:url(#clip-path-17);}.cls-13{clip-path:url(#clip-path-20);}.cls-14{clip-path:url(#clip-path-23);}.cls-15{clip-path:url(#clip-path-26);}.cls-16{clip-path:url(#clip-path-29);}.cls-17{clip-path:url(#clip-path-32);}.cls-18{clip-path:url(#clip-path-35);}.cls-19{clip-path:url(#clip-path-38);}.cls-20{clip-path:url(#clip-path-41);}.cls-21{clip-path:url(#clip-path-44);}.cls-22{clip-path:url(#clip-path-47);}.cls-23{clip-path:url(#clip-path-50);}.cls-24{clip-path:url(#clip-path-53);}.cls-25{clip-path:url(#clip-path-56);}.cls-26{clip-path:url(#clip-path-59);}.cls-27{clip-path:url(#clip-path-62);}.cls-28{clip-path:url(#clip-path-65);}.cls-29{clip-path:url(#clip-path-68);}.cls-30{clip-path:url(#clip-path-71);}.cls-31{clip-path:url(#clip-path-74);}.cls-32{clip-path:url(#clip-path-77);}.cls-33{clip-path:url(#clip-path-80);}.cls-34{clip-path:url(#clip-path-83);}.cls-35{clip-path:url(#clip-path-86);}.cls-36{clip-path:url(#clip-path-89);}.cls-37{clip-path:url(#clip-path-92);}.cls-38{clip-path:url(#clip-path-93);}.cls-39{clip-path:url(#clip-path-95);}.cls-40{clip-path:url(#clip-path-98);}.cls-41{clip-path:url(#clip-path-101);}.cls-42{clip-path:url(#clip-path-104);}.cls-43{clip-path:url(#clip-path-107);}.cls-44{clip-path:url(#clip-path-110);}.cls-45{clip-path:url(#clip-path-113);}.cls-46{clip-path:url(#clip-path-116);}.cls-47{clip-path:url(#clip-path-119);}.cls-48{clip-path:url(#clip-path-122);}.cls-49{fill:#f4977b;}.cls-50{clip-path:url(#clip-path-123);}</style><clipPath id="clip-path" transform="translate(-0.51)"><rect class="cls-1" y="196.09" width="122" height="145"></rect></clipPath><clipPath id="clip-path-2" transform="translate(-0.51)"><rect class="cls-1" x="-5.97" y="205.23" width="136.5" height="136.5" transform="translate(-51.38 17.06) rotate(-11.08)"></rect></clipPath><clipPath id="clip-path-4" transform="translate(-0.51)"><rect class="cls-1" x="293.19" width="66.75" height="68.25"></rect></clipPath><clipPath id="clip-path-5" transform="translate(-0.51)"><rect class="cls-1" x="232" y="180.09" width="56" height="81"></rect></clipPath><clipPath id="clip-path-6" transform="translate(-0.51)"><rect class="cls-1" x="156.3" y="115.77" width="141.75" height="129.75" transform="translate(10.91 374.22) rotate(-80.32)"></rect></clipPath><clipPath id="clip-path-8" transform="translate(-0.51)"><rect class="cls-1" x="207" y="129.09" width="6" height="6"></rect></clipPath><clipPath id="clip-path-11" transform="translate(-0.51)"><rect class="cls-1" x="221" y="131.09" width="6" height="7"></rect></clipPath><clipPath id="clip-path-14" transform="translate(-0.51)"><rect class="cls-1" x="235" y="134.09" width="6" height="6"></rect></clipPath><clipPath id="clip-path-17" transform="translate(-0.51)"><rect class="cls-1" x="244" y="135.09" width="6" height="7"></rect></clipPath><clipPath id="clip-path-20" transform="translate(-0.51)"><rect class="cls-1" x="258" y="138.09" width="6" height="6"></rect></clipPath><clipPath id="clip-path-23" transform="translate(-0.51)"><rect class="cls-1" x="267" y="139.09" width="7" height="7"></rect></clipPath><clipPath id="clip-path-26" transform="translate(-0.51)"><rect class="cls-1" x="266" y="149.09" width="6" height="6"></rect></clipPath><clipPath id="clip-path-29" transform="translate(-0.51)"><rect class="cls-1" x="219" y="141.09" width="7" height="6"></rect></clipPath><clipPath id="clip-path-32" transform="translate(-0.51)"><rect class="cls-1" x="231" y="157.09" width="6" height="6"></rect></clipPath><clipPath id="clip-path-35" transform="translate(-0.51)"><rect class="cls-1" x="212" y="154.09" width="6" height="6"></rect></clipPath><clipPath id="clip-path-38" transform="translate(-0.51)"><rect class="cls-1" x="220" y="165.09" width="6" height="6"></rect></clipPath><clipPath id="clip-path-41" transform="translate(-0.51)"><rect class="cls-1" x="240" y="158.09" width="6" height="7"></rect></clipPath><clipPath id="clip-path-44" transform="translate(-0.51)"><rect class="cls-1" x="229" y="166.09" width="7" height="7"></rect></clipPath><clipPath id="clip-path-47" transform="translate(-0.51)"><rect class="cls-1" x="201" y="173.09" width="7" height="7"></rect></clipPath><clipPath id="clip-path-50" transform="translate(-0.51)"><rect class="cls-1" x="200" y="183.09" width="6" height="6"></rect></clipPath><clipPath id="clip-path-53" transform="translate(-0.51)"><rect class="cls-1" x="209" y="184.09" width="7" height="7"></rect></clipPath><clipPath id="clip-path-56" transform="translate(-0.51)"><rect class="cls-1" x="207" y="198.09" width="6" height="7"></rect></clipPath><clipPath id="clip-path-59" transform="translate(-0.51)"><rect class="cls-1" x="196" y="206.09" width="6" height="7"></rect></clipPath><clipPath id="clip-path-62" transform="translate(-0.51)"><rect class="cls-1" x="205" y="208.09" width="7" height="6"></rect></clipPath><clipPath id="clip-path-65" transform="translate(-0.51)"><rect class="cls-1" x="223" y="187.09" width="7" height="6"></rect></clipPath><clipPath id="clip-path-68" transform="translate(-0.51)"><rect class="cls-1" x="234" y="179.09" width="7" height="7"></rect></clipPath><clipPath id="clip-path-71" transform="translate(-0.51)"><rect class="cls-1" x="254" y="161.09" width="6" height="6"></rect></clipPath><clipPath id="clip-path-74" transform="translate(-0.51)"><rect class="cls-1" x="263" y="162.09" width="7" height="7"></rect></clipPath><clipPath id="clip-path-77" transform="translate(-0.51)"><rect class="cls-1" x="262" y="172.09" width="6" height="6"></rect></clipPath><clipPath id="clip-path-80" transform="translate(-0.51)"><rect class="cls-1" x="252" y="170.09" width="7" height="7"></rect></clipPath><clipPath id="clip-path-83" transform="translate(-0.51)"><rect class="cls-1" x="162" y="113.09" width="128" height="135"></rect></clipPath><clipPath id="clip-path-86" transform="translate(-0.51)"><rect class="cls-1" x="269" y="115.09" width="31" height="60"></rect></clipPath><clipPath id="clip-path-89" transform="translate(-0.51)"><rect class="cls-1" x="285" y="178.09" width="6" height="7"></rect></clipPath><clipPath id="clip-path-92" transform="translate(-0.51)"><rect class="cls-1" x="49" y="36.09" width="80" height="89"></rect></clipPath><clipPath id="clip-path-93" transform="translate(-0.51)"><rect class="cls-1" x="37.62" y="12.31" width="79.5" height="104.25" transform="matrix(0.93, -0.36, 0.36, 0.93, -17.99, 32.11)"></rect></clipPath><clipPath id="clip-path-95" transform="translate(-0.51)"><rect class="cls-1" x="87" y="93.09" width="4" height="4"></rect></clipPath><clipPath id="clip-path-98" transform="translate(-0.51)"><rect class="cls-1" x="89" y="99.09" width="5" height="4"></rect></clipPath><clipPath id="clip-path-101" transform="translate(-0.51)"><rect class="cls-1" x="77" y="6.09" width="11" height="17"></rect></clipPath><clipPath id="clip-path-104" transform="translate(-0.51)"><rect class="cls-1" x="86" y="12.09" width="15" height="15"></rect></clipPath><clipPath id="clip-path-107" transform="translate(-0.51)"><rect class="cls-1" x="89" y="27.09" width="18" height="9"></rect></clipPath><clipPath id="clip-path-110" transform="translate(-0.51)"><rect class="cls-1" x="33" y="25.09" width="14" height="12"></rect></clipPath><clipPath id="clip-path-113" transform="translate(-0.51)"><rect class="cls-1" x="26" y="37.09" width="19" height="9"></rect></clipPath><clipPath id="clip-path-116" transform="translate(-0.51)"><rect class="cls-1" x="32" y="47.09" width="15" height="13"></rect></clipPath><clipPath id="clip-path-119" transform="translate(-0.51)"><rect class="cls-1" x="51" y="22.09" width="31" height="25"></rect></clipPath><clipPath id="clip-path-122" transform="translate(-0.51)"><rect class="cls-1" x="262.38" y="335.09" width="3.63" height="4"></rect></clipPath><clipPath id="clip-path-123" transform="translate(-0.51)"><rect class="cls-1" x="365" y="335.09" width="3.88" height="4"></rect></clipPath></defs><g id="Calque_2" data-name="Calque 2"><g id="Calque_1-2" data-name="Calque 1"><g id="surface1"><g class="cls-2"><g class="cls-3"><g class="cls-3"><path class="cls-4" d="M98.73,197a17.77,17.77,0,1,0,20.85,14A17.81,17.81,0,0,0,98.73,197Zm1.14,5.81a11.84,11.84,0,1,1-9.35,13.9A11.78,11.78,0,0,1,99.87,202.76ZM52.33,215.18a15.74,15.74,0,0,0-9,6.09l-20.09,29.3a10.57,10.57,0,0,0,17.27,12.18l16.81-23,10,5.3-7.85,13.89a41.35,41.35,0,0,0-31.06,27.2L11.25,289.5l-.27.05a3,3,0,0,0,1.41,5.76l32-6.26a3,3,0,1,0-1.14-5.81l-7.9,1.55a35.54,35.54,0,1,1,14.37,45.46l-8.17,1.6A41.38,41.38,0,0,0,99,326.53a9.85,9.85,0,0,0,4.17,2,10.11,10.11,0,0,0,11.9-7.61l6-27.58a13.45,13.45,0,0,0-10-16l-10.17-2.34a41.57,41.57,0,0,0-7.15-7.65l6.61-14.4A16.81,16.81,0,0,0,92.66,231L63.12,216.36A15.79,15.79,0,0,0,52.33,215.18Zm1.5,5.73a10,10,0,0,1,6.75.76L90,236.27a10.74,10.74,0,0,1,5,14.19l-6.3,13.59a41.4,41.4,0,0,0-22-5.88l7.29-12.84a2.94,2.94,0,0,0-1.28-4.08l-15-7.82a3,3,0,0,0-3.7.82l-18.3,25a4.63,4.63,0,0,1-6.29,1.14A4.5,4.5,0,0,1,28.15,254l20-29.28.09,0A9.79,9.79,0,0,1,53.83,220.91Zm51.31,61.24,4.55,1.09a7.45,7.45,0,0,1,5.61,8.9l-6,27.48a4,4,0,0,1-4.77,3.11,4.43,4.43,0,0,1-1.88-1,41.59,41.59,0,0,0,2.52-39.62Zm-79,16.5a41.35,41.35,0,0,0,.32,6L3,309.21l-.27.06A3,3,0,0,0,4.18,315L62.3,303.64a3,3,0,1,0-1.14-5.81l-28.87,5.66a36.74,36.74,0,0,1-.15-6Zm3.42,17.44a39.42,39.42,0,0,0,2.86,5.47L21,323.8l-.28.06a3,3,0,1,0,1.41,5.75l29.06-5.68A3,3,0,1,0,50,318.11l-11.25,2.21a34.53,34.53,0,0,1-3.23-5.41Z" transform="translate(-0.51)"></path></g></g></g><g class="cls-5"><path class="cls-4" d="M293.21,63V57.83l4.5-4.55c2.48-2.5,6-6.06,7.82-7.92A35.25,35.25,0,0,1,309.1,42c.28,0,3.38,1.86,11.69,7,.22.13.22.22,0,.57s-6.73,7-15.69,16.15l-2.5,2.54h-9.37ZM319,64.35a8.89,8.89,0,0,1-4.76-2.17,1.57,1.57,0,0,1,.16-2.34c.69-.59,1-.55,2.43.34a6.17,6.17,0,0,0,4.36.85c2.49-.52,3.36-1.38,5.35-5.31a52.38,52.38,0,0,1,4.65-7.63c.37-.46,2-2.16,3.56-3.79,3.18-3.25,3.77-4,4.81-6.26A15.27,15.27,0,0,0,341,31.2a16.11,16.11,0,0,0-5.1-12.43,17.35,17.35,0,0,0-8.55-4.52,20.7,20.7,0,0,0-8.52.54,17.18,17.18,0,0,0-10.11,9.07,25.89,25.89,0,0,0-1.26,4.24,1.29,1.29,0,0,1-.25.65c-.24.33-.31.31-1.6-.38a6.41,6.41,0,0,1-1.55-1.05c-.55-.86,1.66-6.35,3.56-8.85a20.85,20.85,0,0,1,8.83-6.73,17.19,17.19,0,0,1,7.41-1.4,19.43,19.43,0,0,1,9.7,2.35,20.72,20.72,0,0,1,10.55,13.39,14.66,14.66,0,0,1,.47,4.9,15.43,15.43,0,0,1-.4,4.67c-1.33,5-2.84,7.39-7.11,11.49-3.75,3.6-6.16,6.87-7.53,10.2a11.62,11.62,0,0,1-2.32,3.88A9.43,9.43,0,0,1,319,64.35Zm15-24.95c-.48-.3-.87-.69-.87-.85a2.26,2.26,0,0,1,.46-.89,12.87,12.87,0,0,0,2.13-6.37,13.19,13.19,0,0,0-1.19-4.93,11.73,11.73,0,0,0-6.63-5.9,8.25,8.25,0,0,0-3.26-.5,9.85,9.85,0,0,0-4.94,1,11,11,0,0,0-5,4.86c-.75,1.32-.81,1.33-2.33.37-1.06-.66-1.09-.91-.32-2.36a14.3,14.3,0,0,1,10.83-7.19,14.94,14.94,0,0,1,9.29,2.24,14.5,14.5,0,0,1,6,8.1,10.82,10.82,0,0,1,.43,4,10.82,10.82,0,0,1-.43,4c-.81,2.58-2.28,5-3,5A4.08,4.08,0,0,1,333.91,39.4Zm12.28-16.7A24.26,24.26,0,0,0,339,12.8l-.64-.56,1.47-1.54c.81-.85,3.47-3.61,5.92-6.12L350.18,0h9.72V10.08l-6.62,6.61c-3.64,3.64-6.67,6.61-6.74,6.61S346.32,23,346.19,22.7Z" transform="translate(-0.51)"></path></g><g class="cls-6"><g class="cls-7"><g class="cls-7"><path class="cls-8" d="M281.61,204.31a7,7,0,0,0-3.58.31,8,8,0,0,0-.76-1.33,7.08,7.08,0,0,0-7.25-2.85,7.17,7.17,0,0,0-5.88-6.3,7.16,7.16,0,0,0-2.4,0l.87-5.06a7.13,7.13,0,0,0-5.81-8.18,7.1,7.1,0,0,0-8.19,5.8l-4.13,24.18-2.65.8a12.6,12.6,0,0,0-5,21.23l5.64,5.32a4.73,4.73,0,0,1,1.42,4.25L241.75,255l4.67.79,2.14-12.55a9.45,9.45,0,0,0-2.84-8.47l-3.44-3.25-2.2-2.07a7.88,7.88,0,0,1-2.37-7.06,8,8,0,0,1,1.87-3.9,7.85,7.85,0,0,1,3.63-2.32l.38-.12-.94,5.55,4.66.8,6-34.94a2.37,2.37,0,0,1,2.73-1.93,2.27,2.27,0,0,1,1.5.94l0,.06a2.28,2.28,0,0,1,.4,1.73l-3.58,21L259,210l1.59-9.31a2.36,2.36,0,0,1,2.73-1.93,2.26,2.26,0,0,1,1.5.94l0,0a2.3,2.3,0,0,1,.4,1.73l-2,11.65L268,214l1.2-7a2.35,2.35,0,0,1,2.73-1.93,2.26,2.26,0,0,1,1.5.94l0,0a2.25,2.25,0,0,1,.39,1.73l-1.59,9.32,4.67.79,1.19-7a2.29,2.29,0,0,1,1-1.5l0,0a2.29,2.29,0,0,1,1.73-.4,2.37,2.37,0,0,1,1.94,2.73l-2.2,12.88a42.5,42.5,0,0,1-4.95,13.84,40.72,40.72,0,0,1-2.65,4.08,2.33,2.33,0,0,0-.43,1l-2.78,16.3,4.66.8,2.69-15.76a47.14,47.14,0,0,0,8.13-19.47l2.19-12.88a7.1,7.1,0,0,0-5.81-8.18" transform="translate(-0.51)"></path></g></g></g><g class="cls-9"><g class="cls-7"><g class="cls-7"><path class="cls-8" d="M211.82,134.89l.8-4.66-4.67-.8-.79,4.66,4.66.8" transform="translate(-0.51)"></path></g></g></g><g class="cls-10"><g class="cls-7"><g class="cls-7"><path class="cls-8" d="M226.62,132.62l-4.67-.8-.79,4.66,4.66.79.8-4.65" transform="translate(-0.51)"></path></g></g></g><g class="cls-11"><g class="cls-7"><g class="cls-7"><path class="cls-8" d="M240.61,135l-4.66-.79-.79,4.66,4.66.79.79-4.66" transform="translate(-0.51)"></path></g></g></g><g class="cls-12"><g class="cls-7"><g class="cls-7"><path class="cls-8" d="M250,136.59l-4.67-.79-.79,4.66,4.66.79.8-4.66" transform="translate(-0.51)"></path></g></g></g><g class="cls-13"><g class="cls-7"><g class="cls-7"><path class="cls-8" d="M264,139l-4.67-.79-.8,4.65,4.67.8L264,139" transform="translate(-0.51)"></path></g></g></g><g class="cls-14"><g class="cls-7"><g class="cls-7"><path class="cls-8" d="M273.28,140.57l-4.67-.79-.79,4.66,4.66.79.8-4.66" transform="translate(-0.51)"></path></g></g></g><g class="cls-15"><g class="cls-7"><g class="cls-7"><path class="cls-8" d="M271.69,149.89l-4.67-.8-.79,4.66,4.66.8.8-4.66" transform="translate(-0.51)"></path></g></g></g><g class="cls-16"><g class="cls-7"><g class="cls-7"><path class="cls-8" d="M225,141.93l-4.67-.79-.79,4.65,4.66.8.8-4.66" transform="translate(-0.51)"></path></g></g></g><g class="cls-17"><g class="cls-7"><g class="cls-7"><path class="cls-8" d="M236.64,158.29,232,157.5l-.8,4.66,4.67.79.79-4.66" transform="translate(-0.51)"></path></g></g></g><g class="cls-18"><g class="cls-7"><g class="cls-7"><path class="cls-8" d="M218,155.11l-4.67-.8-.79,4.66,4.67.8.79-4.66" transform="translate(-0.51)"></path></g></g></g><g class="cls-19"><g class="cls-7"><g class="cls-7"><path class="cls-8" d="M225.72,166l-4.66-.8-.8,4.66,4.67.8.79-4.66" transform="translate(-0.51)"></path></g></g></g><g class="cls-20"><g class="cls-7"><g class="cls-7"><path class="cls-8" d="M246,159.88l-4.67-.79-.79,4.66,4.66.79.8-4.66" transform="translate(-0.51)"></path></g></g></g><g class="cls-21"><g class="cls-7"><g class="cls-7"><path class="cls-8" d="M235.05,167.61l-4.66-.8-.8,4.66,4.67.8.79-4.66" transform="translate(-0.51)"></path></g></g></g><g class="cls-22"><g class="cls-7"><g class="cls-7"><path class="cls-8" d="M207.41,174.88l-4.67-.8-.79,4.66,4.66.8.8-4.66" transform="translate(-0.51)"></path></g></g></g><g class="cls-23"><g class="cls-7"><g class="cls-7"><path class="cls-8" d="M205.82,184.19l-4.67-.8-.79,4.66,4.66.8.8-4.66" transform="translate(-0.51)"></path></g></g></g><g class="cls-24"><g class="cls-7"><g class="cls-7"><path class="cls-8" d="M215.15,185.78l-4.67-.79-.79,4.65,4.67.8.79-4.66" transform="translate(-0.51)"></path></g></g></g><g class="cls-25"><g class="cls-7"><g class="cls-7"><path class="cls-8" d="M212.77,199.76l-4.67-.8-.8,4.66,4.67.79.8-4.65" transform="translate(-0.51)"></path></g></g></g><g class="cls-26"><g class="cls-7"><g class="cls-7"><path class="cls-8" d="M196.39,211.34l4.66.8.8-4.66-4.67-.8-.79,4.66" transform="translate(-0.51)"></path></g></g></g><g class="cls-27"><g class="cls-7"><g class="cls-7"><path class="cls-8" d="M211.18,209.07l-4.67-.79-.79,4.65,4.66.8.8-4.66" transform="translate(-0.51)"></path></g></g></g><g class="cls-28"><g class="cls-7"><g class="cls-7"><path class="cls-8" d="M223.69,192l4.66.8.8-4.66-4.67-.79-.79,4.65" transform="translate(-0.51)"></path></g></g></g><g class="cls-29"><g class="cls-7"><g class="cls-7"><path class="cls-8" d="M234.61,184.31l4.66.8.8-4.66-4.67-.8-.79,4.66" transform="translate(-0.51)"></path></g></g></g><g class="cls-30"><g class="cls-7"><g class="cls-7"><path class="cls-8" d="M260,162.27l-4.66-.79-.8,4.65,4.67.8.79-4.66" transform="translate(-0.51)"></path></g></g></g><g class="cls-31"><g class="cls-7"><g class="cls-7"><path class="cls-8" d="M269.3,163.86l-4.66-.79-.8,4.66,4.67.79.79-4.66" transform="translate(-0.51)"></path></g></g></g><g class="cls-32"><g class="cls-7"><g class="cls-7"><path class="cls-8" d="M262.26,177l4.66.8.79-4.66-4.66-.8-.79,4.66" transform="translate(-0.51)"></path></g></g></g><g class="cls-33"><g class="cls-7"><g class="cls-7"><path class="cls-8" d="M252.93,175.45l4.66.8.79-4.66-4.66-.8-.79,4.66" transform="translate(-0.51)"></path></g></g></g><g class="cls-34"><g class="cls-7"><g class="cls-7"><path class="cls-8" d="M167.55,225.6l.79-4.66,58.32,9.95.8-4.66-44.33-7.56,5.4-31.64,1.93-1.37a15.69,15.69,0,0,0,5-19.89l10.5-7.43a7.38,7.38,0,1,0-8.54-12l-2.17,1.53,5-29.31,84,14.32-10.73,62.88,4.67.79,11.12-65.2a2.37,2.37,0,0,0-1.94-2.73l-88.65-15.12a2.37,2.37,0,0,0-2.73,1.93L191.57,141l-7-1.19a9.47,9.47,0,0,0-10.92,7.72l-3.41,20-7.39,5.22,2.74,3.86,8.19-5.79a2.43,2.43,0,0,0,1-1.54l3.57-21a4.75,4.75,0,0,1,5.46-3.87l7,1.2-1,6-4.66,3.3,2.74,3.85,12.28-8.69a2.65,2.65,0,1,1,3.07,4.33l-12.28,8.69a2.35,2.35,0,0,0-.56,3.29,11,11,0,0,1-2.62,15.34l-13.65,9.65,2.74,3.86,6.26-4.43-4.61,27-11.66-2a2.37,2.37,0,0,0-2.73,1.94l-1.19,7a9.47,9.47,0,0,0,7.74,10.91l67.66,11.54.79-4.66-67.65-11.54a4.73,4.73,0,0,1-3.87-5.45" transform="translate(-0.51)"></path></g></g></g><g class="cls-35"><g class="cls-7"><g class="cls-7"><path class="cls-8" d="M294.32,129.79,286.78,174l4.67.8L299,130.58a9.47,9.47,0,0,0-7.74-10.91l-21-3.58-.79,4.66,21,3.58a4.73,4.73,0,0,1,3.87,5.46" transform="translate(-0.51)"></path></g></g></g><g class="cls-36"><g class="cls-7"><g class="cls-7"><path class="cls-8" d="M285.19,183.35l4.67.79.79-4.66-4.67-.79-.79,4.66" transform="translate(-0.51)"></path></g></g></g><g class="cls-37"><g class="cls-38"><g class="cls-38"><path class="cls-8" d="M95.7,60.88,92,62.29A8,8,0,0,1,88,55.39a16.78,16.78,0,0,0-.54-10.53l-3.08-8a16.08,16.08,0,0,1-1.56,5L84.37,46c2.63,6.84-.44,14.13-7,16.66l-1.07.41c-6.65,2.56-13.81-.79-16.45-7.63l-3-7.83a4.54,4.54,0,0,1-1.59.88,5.06,5.06,0,0,1-1.47.3l3,7.83a16.66,16.66,0,0,0,6.66,8.17,8,8,0,0,1,1.61,7.84l-3.67,1.42C51.46,77.91,47.5,87.2,51.33,97.16l9.37,24.32a4.91,4.91,0,0,0,6.34,2.8l58.06-22.36a4.92,4.92,0,0,0,2.83-6.33l-9.37-24.32C114.7,61.24,105.55,57.08,95.7,60.88Zm-27.53,6a15.39,15.39,0,0,0,9.14-.64l1.07-.41a15.28,15.28,0,0,0,7.21-5.66,9.77,9.77,0,0,0,4,4.59L83.34,80,68.52,72.3A10.32,10.32,0,0,0,68.17,66.85Zm56.7,29.92a1.64,1.64,0,0,1-.94,2.11L65.87,121.24a1.65,1.65,0,0,1-2.12-.94L54.39,96c-3.22-8.36,0-15.71,8.1-18.83l4.66-1.79s15.56,8.06,15.77,8.15l2.26,5.85a1.63,1.63,0,0,0,3-1.17L86,82.26c0-.11,6.94-16.81,6.94-16.81l4-1.54c8.09-3.11,15.45.25,18.63,8.54Z" transform="translate(-0.51)"></path></g></g></g><g class="cls-39"><g class="cls-38"><g class="cls-38"><path class="cls-8" d="M90.57,94.27a1.66,1.66,0,0,1,.11.62,1.92,1.92,0,0,1-.14.63,1.71,1.71,0,0,1-.37.52,1.9,1.9,0,0,1-.54.34,1.7,1.7,0,0,1-.63.1,1.6,1.6,0,0,1-.62-.13,1.5,1.5,0,0,1-.52-.37,1.6,1.6,0,0,1-.34-.53,1.53,1.53,0,0,1-.11-.63,1.44,1.44,0,0,1,.14-.62,1.59,1.59,0,0,1,.37-.52,1.38,1.38,0,0,1,.54-.34,1.5,1.5,0,0,1,.63-.11,1.51,1.51,0,0,1,.62.14,1.43,1.43,0,0,1,.52.36A1.7,1.7,0,0,1,90.57,94.27Z" transform="translate(-0.51)"></path></g></g></g><g class="cls-40"><g class="cls-38"><g class="cls-38"><path class="cls-8" d="M92.91,100.35A1.5,1.5,0,0,1,93,101a1.43,1.43,0,0,1-.14.61,1.75,1.75,0,0,1-.37.53,1.7,1.7,0,0,1-.54.34,1.67,1.67,0,0,1-.63.11,1.65,1.65,0,0,1-.62-.14,1.59,1.59,0,0,1-.52-.37,1.38,1.38,0,0,1-.34-.54,1.6,1.6,0,0,1,0-1.24,1.59,1.59,0,0,1,.37-.52,1.7,1.7,0,0,1,.54-.34,1.5,1.5,0,0,1,.63-.11,1.51,1.51,0,0,1,.62.14,1.57,1.57,0,0,1,.52.36A1.54,1.54,0,0,1,92.91,100.35Z" transform="translate(-0.51)"></path></g></g></g><g class="cls-41"><g class="cls-38"><g class="cls-38"><path class="cls-8" d="M82.09,22.13A1.65,1.65,0,0,0,83,20L81.72,16.6l4.58-1.77a1.62,1.62,0,0,0,.94-2.1l-2.08-5.4a1.63,1.63,0,0,0-3,1.17l1.52,4-4.58,1.76a1.64,1.64,0,0,0-.94,2.11L80,21.27A1.62,1.62,0,0,0,82.09,22.13Z" transform="translate(-0.51)"></path></g></g></g><g class="cls-42"><g class="cls-38"><g class="cls-38"><path class="cls-8" d="M86.85,24.22a1.64,1.64,0,0,0,1,2.07,1.71,1.71,0,0,0,1.14,0,1.47,1.47,0,0,0,.94-1l1.62-4.46L95.71,22a1.66,1.66,0,0,0,2-1l2.24-6.28a1.66,1.66,0,0,0-1-2.07,1.69,1.69,0,0,0-2.09,1l-1.72,4.85-4.09-1a1.67,1.67,0,0,0-2,1Z" transform="translate(-0.51)"></path></g></g></g><g class="cls-43"><g class="cls-38"><g class="cls-38"><path class="cls-8" d="M104.12,29.44l-5.26,2.29-1-2.84a1.74,1.74,0,0,0-.89-1,1.6,1.6,0,0,0-1.25-.05l-5.35,2.06a1.63,1.63,0,1,0,1.18,3l3.82-1.47,1,2.92a1.67,1.67,0,0,0,.9,1,1.62,1.62,0,0,0,1.24,0l.08,0,6.86-2.9a1.67,1.67,0,0,0-1.35-3.06Z" transform="translate(-0.51)"></path></g></g></g><g class="cls-44"><g class="cls-38"><g class="cls-38"><path class="cls-8" d="M37.44,33.74,42,32l1.32,3.42a1.64,1.64,0,0,0,3-1.18l-1.9-4.93a1.64,1.64,0,0,0-2.11-.94l-4.59,1.77-1.52-3.95a1.64,1.64,0,0,0-3.06,1.17l2.11,5.47A1.64,1.64,0,0,0,37.44,33.74Z" transform="translate(-0.51)"></path></g></g></g><g class="cls-45"><g class="cls-38"><g class="cls-38"><path class="cls-8" d="M33.05,45.81a1.65,1.65,0,0,0,2.15-.56l2.38-3.63,4.19,2.23a1.47,1.47,0,0,0,1.35.09,1.74,1.74,0,0,0,.85-.76A1.65,1.65,0,0,0,43.3,41l-5.49-2.86a1.65,1.65,0,0,0-2.15.57l-2.33,3.51-4.54-2.44a1.66,1.66,0,0,0-2.19.67,1.64,1.64,0,0,0,.66,2.19Z" transform="translate(-0.51)"></path></g></g></g><g class="cls-46"><g class="cls-38"><g class="cls-38"><path class="cls-8" d="M42.12,57.07a1.66,1.66,0,0,0,.9-.87,1.72,1.72,0,0,0,0-1.32L41.88,52.1l3.82-1.47a1.63,1.63,0,1,0-1.18-3l-5.34,2.06a1.49,1.49,0,0,0-.9.87,1.64,1.64,0,0,0,0,1.32l1.15,2.78L34,56.45a1.64,1.64,0,0,0-1.05,2.06,1.7,1.7,0,0,0,2.06,1Z" transform="translate(-0.51)"></path></g></g></g><g class="cls-47"><g class="cls-38"><g class="cls-38"><path class="cls-8" d="M54.17,45.54a1.71,1.71,0,0,0,1-2.07c-2.2-6.4,1.89-14,8.77-16.64a10.28,10.28,0,0,1,13.33,5.69,7.91,7.91,0,0,1-4.6,10.15A6,6,0,0,1,65,39.37a4.46,4.46,0,0,1,2.62-5.72,3.26,3.26,0,0,1,4.2,1.79,1.64,1.64,0,0,0,3-1.18,6.48,6.48,0,0,0-8.42-3.65,7.74,7.74,0,0,0-4.51,9.94,9.23,9.23,0,0,0,12,5.16,11.2,11.2,0,0,0,6.49-14.37,13.56,13.56,0,0,0-17.56-7.55C54.18,27.11,49.34,36.4,52.11,44.5A1.7,1.7,0,0,0,54.17,45.54Z" transform="translate(-0.51)"></path></g></g></g><g class="cls-48"><path class="cls-49" d="M262.38,338.71h3.55v-3.56h-3.55v3.56" transform="translate(-0.51)"></path></g><path class="cls-49" d="M338.24,330.36a5.32,5.32,0,0,0-9.19.58l-2,4a1.74,1.74,0,0,1-1.37,1,1.79,1.79,0,0,1-1.57-.61l-4.37-5.13a5.33,5.33,0,0,0-8.21.14l-1.56,2a1.79,1.79,0,0,1-1.41.66,1.75,1.75,0,0,1-1.4-.7l-4.45-6a5.25,5.25,0,0,0-4.73-2.11,5.34,5.34,0,0,0-4.3,2.94l-4,8.1H269.47v3.56h22.4l5-10.07a1.71,1.71,0,0,1,1.42-1,1.73,1.73,0,0,1,1.58.7l4.46,6a5.3,5.3,0,0,0,4.17,2.14h.08a5.28,5.28,0,0,0,4.16-2l1.57-1.95a1.75,1.75,0,0,1,1.35-.67,1.67,1.67,0,0,1,1.38.62l4.38,5.13a5.3,5.3,0,0,0,4,1.86l.66,0a5.32,5.32,0,0,0,4.11-2.92l2-3.95a1.78,1.78,0,0,1,3.08-.2l4.22,6.37h22.25v-3.56H341.43l-3.19-4.79" transform="translate(-0.51)"></path><g class="cls-50"><path class="cls-49" d="M365.32,335.15v3.56h3.56v-3.56h-3.56" transform="translate(-0.51)"></path></g><path class="cls-49" d="M287.34,330.82a13.64,13.64,0,0,1,22-15.54l6.33,6.36,6.34-6.36a13.64,13.64,0,0,1,22,15.54l3.21,1.53a17.2,17.2,0,0,0-27.67-19.59l-3.83,3.84-3.82-3.84a17.2,17.2,0,0,0-27.67,19.59l3.21-1.53" transform="translate(-0.51)"></path><path class="cls-49" d="M315.62,362.78l-20-22-2.62,2.4,22.6,24.85,22.61-24.85-2.62-2.4-20,22" transform="translate(-0.51)"></path></g></g></g></svg>
</g>
</g>
</svg>