<svg xmlns="http://www.w3.org/2000/svg" viewBox="0 0 338.67 185.71"><defs><style>.cls-1,.cls-8{font-size:157px;font-family:ArialMT, Arial;}.cls-1{fill:#ffe962;}.cls-2{fill:#926faf;}.cls-3{fill:#f29060;}.cls-4{fill:#e50b54;}.cls-5{fill:#dc3c8e;}.cls-6{fill:#ffeb57;}.cls-7,.cls-8{fill:#aeb4dc;}</style></defs><g id="Calque_2" data-name="Calque 2"><g id="Calque_1-2" data-name="Calque 1"><text class="cls-1" transform="translate(245.99 134.73)">4</text><g id="a92eb014-1de4-43db-9ea0-5e1f1beed41f"><path class="cls-2" d="M101.43,38.55C78.32,58.4,75.32,93.66,94.73,117.3a55.61,55.61,0,0,0,6.7,6.85Z"/><path class="cls-3" d="M212.11,96.94c-3.52-8.6-6.63-11.09-13.81-11.11h-7.17A58.63,58.63,0,0,1,171.25,126v7.38a53.68,53.68,0,0,0,52.86-7.29Z"/><path class="cls-3" d="M191.3,25.42a53.53,53.53,0,0,0-20.05,3.9v7.41A58.43,58.43,0,0,1,190.7,72.82h0a.44.44,0,0,0,0,.19h7.58c7.18,0,10.28-2.52,13.82-11.15l10.75-26.2A53.55,53.55,0,0,0,191.3,25.42Z"/><path class="cls-2" d="M158.3,125.73c-24.08-18.62-28.83-53.66-10.63-78.28A55.25,55.25,0,0,1,158.3,36.59V29.21c-3.82-1.91-10.25-3.79-21.69-3.79a53.53,53.53,0,0,0-22.42,4.93v102a53.59,53.59,0,0,0,44.12.34Z"/><path class="cls-4" d="M158.3,36.59c-24.08,18.62-28.83,53.67-10.62,78.29a54.93,54.93,0,0,0,10.62,10.86Z"/><path class="cls-4" d="M186.46,85.83a6.36,6.36,0,0,1-6.41-6.29v-.22a6.45,6.45,0,0,1,6.41-6.5h4.24a58.48,58.48,0,0,0-19.45-36.11V126a58.63,58.63,0,0,0,19.88-40.2Z"/><path class="cls-5" d="M158.3,36.59c-24.08,18.62-28.83,53.67-10.62,78.29a54.93,54.93,0,0,0,10.62,10.86Z"/><path class="cls-5" d="M186.46,85.83a6.36,6.36,0,0,1-6.41-6.29v-.22a6.45,6.45,0,0,1,6.41-6.5h4.24a58.48,58.48,0,0,0-19.45-36.11V126a58.63,58.63,0,0,0,19.88-40.2Z"/><path class="cls-6" d="M232.69,44.85,223.3,67.29c-2.34,5.52-4.69,9.39-7.5,12.16,2.81,2.78,5.18,6.67,7.51,12.21l10.41,25A56.76,56.76,0,0,0,232.69,44.85Z"/><path class="cls-7" d="M101.43,38.55C78.32,58.4,75.32,93.66,94.73,117.3a55.61,55.61,0,0,0,6.7,6.85Z"/></g><text class="cls-8" transform="translate(0 134.73)">4</text></g></g></svg>