<svg xmlns="http://www.w3.org/2000/svg" viewBox="0 0 1451.8 746.79"><defs><style>.cls-1{fill:#3a3a3a;}.cls-2{fill:#fc6e35;}.cls-17,.cls-3{fill:#fff;}.cls-3{stroke:#1d1d1b;stroke-miterlimit:10;}.cls-4{fill:#e5e5e5;}.cls-5{fill:#cecece;}.cls-6{fill:#c98b6b;}.cls-7{fill:#af795d;}.cls-8{fill:#fc9770;}.cls-9{fill:#a371d0;}.cls-10{fill:#698bf4;}.cls-11{fill:#92a9f4;}.cls-12{fill:#edeff4;}.cls-13{fill:#ed6435;}.cls-14{fill:#8c4dce;}.cls-15{fill:#7a48bc;}.cls-16{fill:#f4aee4;}.cls-18{fill:#f7d64d;}</style></defs><g id="Calque_2" data-name="Calque 2"><g id="Illustration_11" data-name="Illustration 11"><g id="Calque_1-2" data-name="Calque 1"><path class="cls-1" d="M812.84,436.76c-60.34-51.64-3.56-99.71-3.26-137.49.55-69.36,40.28-132.07,111-123.4,50.37,6.18,61.36,25.6,61.36,25.6s28.87-6.51,48.62,64c11.48,41,17.4,122.42,74.79,176.68,43,40.67,63.26,119.5,44.85,136.43-7.22,6.64-41.24,35.94-53.71,39.5-17-7.69-19.49-17.7-24-24.13-1.65-2.33-5.77,2.24,15.72,25.27-72.19,33-162.51-37.62-162.51-37.62s-12.43-109.68-39-114.37c-31-5.48-46.73-77.71-45.52-70.16.64,4.06,1.57,28,11.24,48-17.71,1.71-43.76-13.14-47.39-37.48C803.26,396,804.3,419.14,812.84,436.76Z"/><ellipse class="cls-2" cx="861.41" cy="324.86" rx="41.73" ry="36.07" transform="matrix(0.15, -0.99, 0.99, 0.15, 413.68, 1129.28)"/><path class="cls-3" d="M736.72,625.67c-16-.24-148.33,46.32-148.33,46.32l15.25,28.26L728.49,683s17,.25,29.19-5.16c13.92-6.2,21.07-18.53,19.88-25C772.79,637,752.24,625.9,736.72,625.67Z"/><path class="cls-4" d="M818.4,451.16c-12.21,4.6-96,183.53-96,200.81,0,15.79,10.68,25.4,21.33,28.09,13.7,3.46,27.57-10.35,35.79-18.54s75-112.61,75-112.61,29.07-48.2,15.64-75.68S852.66,438.27,818.4,451.16Z"/><path class="cls-5" d="M743.73,680.06c13.7,3.46,27.57-10.35,35.79-18.54s75-112.61,75-112.61-6.08-59.77-19.51-87.24C812.68,581.6,770.26,653.42,743.73,680.06Z"/><path class="cls-4" d="M865.2,727.15c.55,9.53.39,14,.39,14l150.58,1.75s-1.49-3.39.43-19.76c1-8.27,34.43-79.12,47.65-147.72,13-67.25,15.65-134.09,10.71-136.82-11.1-6.15-84.6-19.17-121.56-18.18s-113.09,19.92-119,26.4,5.68,25-13.45,94.22c-12.79,46.31,16.1,66.53,21,81.26C852.87,654.72,864.46,714.54,865.2,727.15Z"/><path class="cls-5" d="M865.2,727.15c.55,9.53.39,14,.39,14l150.58,1.75s-1.49-3.39.43-19.76c1-8.27,34.43-79.12,47.65-147.72,13-67.25,15.65-134.09,10.71-136.82C1063.86,432.42,1067.75,668.87,865.2,727.15Z"/><path class="cls-6" d="M1011.33,278.57c2.3,53.68-40.9,84.33-40,100.6s2,32.57,7.23,38.77c3.53,4.17,28.59,6.49,28.59,6.49s-38.26,39.77-69.44,40.74c-6.76.21-20.11,45.31-23.69,46.09-4.38.94,6.94-45.25,0-46.44-27.1-4.61-26.3-34.55-26.3-34.55s22.56-3.75,24.1-8.37c2.17-6.5-1.29-22.24-5.4-25.71-3.67-3.09-23.89,1-39.53-10.13-23.89-17-34.71-128.44-22.54-153.77,23.7-49.37,119.87-45.61,142.38-25.57C1002.74,220.94,1011.57,256.65,1011.33,278.57Z"/><path class="cls-7" d="M904.66,395c19.73-1.22,34.54-3.44,50.81-12.35C949.11,402.54,917.9,404.38,904.66,395Z"/><path class="cls-6" d="M963.88,675.05s34.58-6.57,38-3.82,4.15,24.48,1.49,27.13-33.3,6.63-33.3,6.63-6.6,8.47-26.16,8.57c-11.6.07-26.38-5.9-34.58-6.95-10.7-1.37-21.66.4-22.16-4.43-.52-5.06,24.83-5.37,32.43-3.1.92.27.55-1.54.55-1.54s-13.1-4.74-22.3-4.57c-8,.15-25,5.72-26.33-.52-.65-3.18,3.09-7.79,22.29-9,17.81-1.12,21.28-.28,21.28-.28s1.56-.93-.37-1.76c-4.18-1.8-12.12-3.25-22.21-2.5-10.84.8-21.85,10-29.35,3.39-5-4.41,13.26-12.81,27.22-13.88,8.75-.68,19.82,0,24.76,1.1,2.45.55,0-2.18,0-2.18a88.83,88.83,0,0,0-15.76-2.14c-10.9-.59-26.15,6.12-31,2.34-6.42-5,18.22-16.18,34.75-13.77C931,657.8,963.88,675.05,963.88,675.05Z"/><path class="cls-4" d="M1167.53,690.08C1144,705.45,980.9,700.51,980.9,700.51L976,672.25s131.67-33,150.12-35,55-.92,56.43,15.24S1178.17,683.12,1167.53,690.08Z"/><path class="cls-4" d="M1077.28,438.7c35.9,14.49,104.52,200.24,104.84,209.42.31,9,.6,22.38-17.77,26.13-23.55,4.81-44.5-32.4-44.5-32.4s-58-90.08-69.71-105.48-26.23-45.53-17.28-73.11S1072,436.57,1077.28,438.7Z"/><path class="cls-1" d="M1011.42,234.22s-39.34-77.07-137.72-37.54C798.05,227.09,814.13,315.83,832,304.31c19.2-12.35,37-63,43.2-63.8,0,0,26.85,12.33,65.42-1,.24,13.54,23.9,37.35,32.65,37.48,16.32,23.62-82.47,211.61,73.27,151.15C1074.58,417.3,1011.42,234.22,1011.42,234.22Z"/><g id="Calque_4" data-name="Calque 4"><path class="cls-8" d="M979.71,359.76c-11.39,27.54-60.44,15.91-60.44,15.91,1-9.35-20.49-14.77-22-2.15-1.57,13.06,19,11.63,21.35,6,0,0,42.17,14.88,70.95-15.53Z"/><ellipse class="cls-2" cx="997.14" cy="322.93" rx="41.73" ry="36.07" transform="translate(531.41 1261.9) rotate(-81.56)"/><ellipse class="cls-8" cx="1002.83" cy="321.6" rx="33.49" ry="27.41" transform="translate(537.58 1266.4) rotate(-81.56)"/><path class="cls-2" d="M996.52,281.52s1.72-89.63-83.88-91.25c-78.38-1.49-89.74,46.78-90.86,46.8,0,0,5.75-53.46,92.81-51.67,86.07,1.77,89.26,96.34,89.26,96.34Z"/></g></g><g id="Calque_2-2" data-name="Calque 2"><rect class="cls-9" y="700.18" width="1398.04" height="46.62" rx="14.61"/></g><g id="Calque_3" data-name="Calque 3"><path class="cls-10" d="M940.7,700.25h-430L457.76,534.31c-1.6-5,1.48-10.32,7.16-12.26l1.33-.45a13.88,13.88,0,0,1,4.35-.73l247.87-1.39c5.73,0,10.68,3.41,11.83,8.22L769.18,687l157.93,2a14.17,14.17,0,0,1,13.42,10.55Z"/><path class="cls-11" d="M764.68,700.25H497.79L457.21,536.58c-1.17-4.7,3.07-9.12,8.74-9.12H714.59c4.22,0,7.87,2.51,8.74,6Z"/><path class="cls-12" d="M619.38,601.3c2.45,12.51-5.19,22.25-17,22.27s-24-9.71-27.47-22.23c-3.61-13.11,3.73-24.2,16.54-24.2S616.82,588.21,619.38,601.3Z"/></g><g id="Calque_5" data-name="Calque 5"><polygon class="cls-2" points="131.51 557.73 308.13 558.23 275.68 699.06 160.81 700.47 131.51 557.73"/><path class="cls-13" d="M142.25,610.06l151.31,11.41-.83,3.58L143,613.76Zm16.55,80.6,120.37-6.76.85-3.69-122,6.85ZM152.09,658l132.6,2,.83-3.62-134.18-2Zm-11.28-54.93L298,602.28l.84-3.63-158.75.77Zm-5.49-26.76L301.4,587.45l.83-3.59L134.56,572.6Z"/><path class="cls-14" d="M255.3,500.46c-.37-10.47-2.46-37.66,26.74-44s37.77,7.87,49.81,14.58,14.7,25.58,19.65,27.31c-15.14-4.18-55.77-5.89-54.54,4.48s27-7.54,51.44-1.95,18.47,45.61,17.25,48.33c-11.76-14.28-72.23-31.65-72.57-21-.45,14.3,37.75-6.45,72,24.32,3.38,4.14,5.05,23.38-2.15,38.31-15.48-18.73-69-51.63-69.15-34.85-.34,11.14,39.29,11,53.59,25.41s13.51,14.74,14.87,18.29-4.62,19.37-9.32,22.74c-1.4-10.53-35.63-38.17-41.92-30.36s25.62,8.55,32.41,24c4.09,8.38,4.16,10,4.16,10-2.67,4.85-24,18.79-27.75,35.28-3.25-5.88-19.36-11.27-44.26-13.49-4.32-1.57-9.24-18.51-2.73-37.92s6.38-26-.66-26.68-15.54,42.27-7.3,60.82c-13.63-4.64-27-14.69-28.31-18.6s-2.26-25.11,10-49.77c6.57-13,15.79-15.28,10.59-20.71-6.46-6.73-31.53,36.46-25.77,67.64-10.14-7.49-22.22-18.32-23.37-28.47s30.93-47.41,27.84-52.85-27.45,23.43-29.86,42.47c-9.31-16.45-13-30.06-13.79-48.73-.93-22.32,25.67-81,59.83-34.5C253.67,502.76,255.41,502.81,255.3,500.46Z"/><path class="cls-15" d="M262.45,528.43c-.8,1-1.8,2.09-3,3.39s-2.52,2.74-4,4.32l-10.14,10.74c-1.85,2-3.76,4-5.65,6.14-1,1.05-1.9,2.14-2.83,3.24-.46.57-.93,1.11-1.38,1.7s-.88,1.13-1.3,1.73a63.46,63.46,0,0,0-4.58,7.38,83.51,83.51,0,0,0-3.61,7.55c-1.07,2.49-1.95,5-2.75,7.31-.37,1.19-.73,2.34-1.07,3.46l-.9,3.26-.72,3c-.21,1-.39,1.88-.57,2.74-.36,1.72-.56,3.24-.79,4.48l-.52,3.93.63-3.91c.26-1.23.5-2.75.91-4.45.2-.85.4-1.77.64-2.72l.81-3c.31-1,.64-2.11,1-3.22s.77-2.24,1.16-3.4c.87-2.32,1.8-4.75,2.94-7.19a81.47,81.47,0,0,1,3.77-7.37,65,65,0,0,1,4.68-7.11c.42-.56.9-1.12,1.34-1.68s.93-1.07,1.39-1.61c1-1.06,1.91-2.11,2.88-3.13,1.94-2.06,3.9-4,5.8-6L257,537.62c1.52-1.54,2.91-3,4.13-4.24,1-1.06,2.71-2.91,3.31-3.58a.22.22,0,0,1,.36.05c3.17,6.65,6.69,14,10.23,21.38a.62.62,0,0,1-.05.63l-1,1.4c-.64.87-1.42,1.94-2.29,3.18s-1.83,2.66-2.88,4.21c-.52.77-1,1.6-1.57,2.45s-1.1,1.73-1.63,2.66-1.11,1.86-1.67,2.84l-1.64,3c-.58,1-1.07,2.1-1.61,3.17s-1.09,2.15-1.56,3.28-1,2.26-1.49,3.39-.9,2.32-1.35,3.47l-.67,1.74c-.21.59-.39,1.18-.58,1.77-.39,1.18-.77,2.35-1.15,3.51s-.63,2.35-.95,3.51c-.15.58-.3,1.15-.46,1.72l-.22.86-.18.86c-.23,1.14-.45,2.26-.68,3.36-.11.54-.22,1.09-.33,1.62s-.15,1.08-.23,1.6c-.15,1.06-.29,2.09-.43,3.08s-.28,2-.33,2.88c-.13,1.85-.26,3.55-.37,5s0,2.83-.05,3.91c0,2.16,0,3.4,0,3.4s.05-1.24.13-3.4c0-1.08.06-2.39.18-3.89s.33-3.19.53-5c.07-.92.25-1.87.42-2.85l.52-3c.09-.52.17-1.05.28-1.58s.25-1.06.38-1.6c.26-1.09.52-2.19.78-3.32l.2-.84.25-.84.51-1.7c.35-1.13.67-2.29,1.06-3.44l1.24-3.44c.21-.57.4-1.15.63-1.72l.72-1.7c.48-1.13.94-2.27,1.44-3.39s1-2.2,1.58-3.29,1.09-2.15,1.64-3.2,1.08-2.09,1.69-3.07l1.71-2.92c.58-.95,1.17-1.85,1.73-2.75s1.13-1.75,1.69-2.56,1.09-1.62,1.63-2.37c1.08-1.49,2.05-2.87,3-4.05.71-1,2-2.62,2.59-3.37a.29.29,0,0,1,.49.06c5.48,11.39,10.85,22.54,14.81,30.83a.94.94,0,0,1,.06.66c-.08.3-.17.65-.3,1-.41,1.36-1.07,3.33-1.87,5.69s-1.73,5.11-2.64,8.09c-.47,1.48-.9,3-1.35,4.61s-.86,3.19-1.23,4.81c-.18.81-.37,1.62-.55,2.43s-.32,1.62-.47,2.42c-.34,1.61-.55,3.2-.78,4.75-.13.76-.2,1.53-.27,2.27s-.15,1.48-.22,2.19c-.11,1.42-.15,2.77-.21,4s0,2.39,0,3.4.11,1.89.15,2.61c.12,1.45.19,2.27.19,2.27s-.05-.83-.13-2.27c0-.73-.13-1.61-.09-2.62s0-2.15.05-3.39.17-2.58.31-4c.09-.71.18-1.43.27-2.17s.18-1.5.33-2.27c.26-1.53.51-3.11.88-4.7.18-.79.33-1.6.53-2.4s.4-1.6.61-2.4c.4-1.6.88-3.19,1.33-4.75s.95-3.09,1.46-4.56c1-2.94,2-5.66,2.82-8s1.51-4.15,2-5.54a.09.09,0,0,1,.17,0c.54,1.15,3.23,6.81,4.06,8.63,6.95,15.15,19.29,47.59,22.39,62.13-.24-8.08-10.16-38.43-16.75-53.92a.18.18,0,0,1,.2-.24c.56.09,1.67.29,2.3.42.81.16,1.71.39,2.7.64l1.53.44c.52.16,1.06.35,1.61.54s1.12.39,1.69.62,1.16.44,1.73.72l1.77.82,1.75.93c.6.31,1.18.66,1.76,1s1.17.7,1.73,1.09c1.1.8,2.26,1.54,3.28,2.41l1.56,1.25,1.45,1.31c.47.44.95.85,1.39,1.28l1.26,1.3,1.2,1.24,1,1.21c.67.79,1.3,1.49,1.82,2.14l1.31,1.73,1.15,1.5-1.1-1.53L334,623.41c-.5-.67-1.11-1.39-1.76-2.2l-1-1.25-1.16-1.27-1.23-1.34c-.43-.45-.9-.88-1.36-1.33l-1.42-1.36-1.54-1.31c-1-.91-2.16-1.69-3.25-2.53-.56-.41-1.15-.77-1.73-1.16s-1.14-.76-1.74-1.08l-1.77-1-1.77-.88c-.57-.31-1.17-.54-1.74-.79s-1.14-.49-1.7-.69-1.11-.42-1.64-.59l-1.55-.49c-1-.29-1.92-.55-2.74-.74s-1.55-.35-2.15-.47l-1-.2a.55.55,0,0,1-.41-.33c-.09-.18-.17-.36-.25-.54-2-4.41-6.47-14.71-11.92-27.15a.3.3,0,0,1,.3-.41l1,.12c1.91.21,4.64.56,7.89,1.13,1.63.28,3.38.61,5.23,1s3.78.87,5.78,1.39,4,1.14,6.09,1.84,4.12,1.44,6.15,2.27c1,.43,2,.84,3,1.31l1.49.69,1.45.73c1,.47,1.91,1,2.85,1.51s1.82,1.07,2.71,1.59,1.72,1.1,2.54,1.66,1.62,1.13,2.36,1.71,1.49,1.13,2.16,1.72,1.33,1.13,1.94,1.69,1.17,1.13,1.71,1.65,1,1.07,1.47,1.55.87,1,1.24,1.42l1,1.22c.58.77,1,1.39,1.34,1.8s.47.64.47.64l-.46-.65c-.31-.42-.73-1-1.31-1.82l-1-1.24c-.36-.46-.75-1-1.21-1.44s-.93-1-1.45-1.59l-1.69-1.68c-.59-.57-1.25-1.13-1.91-1.74s-1.41-1.15-2.14-1.76-1.54-1.16-2.34-1.76-1.67-1.14-2.53-1.72-1.77-1.11-2.69-1.65-1.86-1.08-2.84-1.57l-1.45-.76-1.49-.72c-1-.49-2-.92-3-1.37-2-.88-4.1-1.69-6.16-2.41s-4.11-1.36-6.1-2-3.94-1.08-5.8-1.51-3.61-.8-5.25-1.12c-3.26-.62-6-1-7.93-1.28l-1.94-.24a.64.64,0,0,1-.48-.36c-4.26-9.74-9-20.62-13.63-31a.21.21,0,0,1,.18-.3l1.47,0c1.23,0,2.74,0,4.46,0s3.67.11,5.8.22,4.42.27,6.85.5,5,.49,7.63.84,5.35.77,8.1,1.25,5.54,1.05,8.3,1.72,5.5,1.39,8.18,2.2c1.33.42,2.66.82,4,1.29l1.93.68,1.87.72c1.25.46,2.44,1,3.63,1.5s2.3,1.06,3.4,1.59c2.18,1.1,4.2,2.21,6,3.35s3.4,2.27,4.78,3.32l1.89,1.53,1.53,1.38.65.6c.2.19.37.38.54.56l.86.88.71.74-.69-.76c-.23-.24-.51-.55-.83-.91l-.53-.57-.64-.62L353.16,562l-1.86-1.58a57.92,57.92,0,0,0-4.71-3.47c-1.78-1.2-3.79-2.37-5.95-3.55-1.09-.56-2.22-1.13-3.38-1.69s-2.37-1.12-3.61-1.61l-1.88-.79-1.92-.73c-1.29-.51-2.61-.95-4-1.41-2.67-.89-5.41-1.73-8.18-2.45s-5.56-1.38-8.32-2-5.49-1.07-8.15-1.49-5.22-.77-7.67-1.06-4.76-.51-6.91-.69-4.11-.31-5.86-.39-3.27-.13-4.53-.16c-1,0-1.86,0-2.51,0a.58.58,0,0,1-.54-.35c-2.86-6.41-5.61-12.53-8.09-17.94a.3.3,0,0,1,.29-.43c.43,0,1,0,1.43,0,1.3,0,2.84-.1,4.59-.26s3.7-.42,5.83-.72c8.48-1.21,19.64-3.35,30.89-4.89,2.81-.38,5.62-.72,8.4-1,1.39-.13,2.77-.28,4.13-.37l2-.15,2-.1c2.66-.14,5.22-.15,7.66-.11,1.21.06,2.4.09,3.54.18l1.68.15.82.08.24,0c1.25.19,2.45.32,3.56.58l1.39.29c.44.09.87.24,1.28.35l1.21.34c.38.12.74.27,1.09.4a16.53,16.53,0,0,1,1.9.79l1.48.75,1,.67.85.56-.83-.58-1-.71-1.47-.79a15.23,15.23,0,0,0-1.88-.84c-.35-.14-.7-.31-1.09-.44L345,514c-.42-.12-.84-.28-1.29-.39l-1.38-.32c-1.12-.3-2.32-.46-3.58-.69l-.23,0-.83-.1-1.69-.2c-1.14-.12-2.34-.19-3.56-.28-2.45-.11-5-.17-7.71-.1l-2,.05-2,.09c-1.38.05-2.77.16-4.17.25-2.8.2-5.63.47-8.47.78-11.33,1.22-22.57,3.06-31,4-2.1.24-4,.43-5.74.54s-3.18.17-4.37.13c-.43,0-1.81-.15-2.61-.25a1,1,0,0,1-.83-.6c-1.44-3.12-2.76-5.93-3.93-8.34a.47.47,0,0,1,.28-.65l1-.33c.95-.32,2.08-.72,3.35-1.23s2.7-1.09,4.25-1.76C274.57,502,282.53,498,290.5,494a243.68,243.68,0,0,1,22.26-10l2.25-.79c.73-.22,1.41-.45,2.06-.64,1.3-.39,2.44-.67,3.39-.88s1.71-.33,2.22-.38l.8-.1-.8.07c-.52,0-1.28.15-2.24.3s-2.12.42-3.43.76l-2.09.57-2.29.72A242.63,242.63,0,0,0,290,492.88c-8.11,3.65-16.2,7.36-22.37,9.77-1.54.6-3,1.14-4.23,1.57s-2.37.81-3.28,1.08l-1.56.44a.46.46,0,0,1-.51-.23c-.08-.18-.17-.35-.26-.52a.67.67,0,0,1,.16-.8c.38-.32.91-.78,1-.88.6-.55,1.25-1.24,2-2.06s1.5-1.74,2.33-2.78c3.31-4.12,7.36-9.8,11.59-15.34,2.11-2.78,4.27-5.51,6.38-8,1.05-1.25,2.1-2.43,3.1-3.54s2-2.12,2.92-3,1.8-1.73,2.59-2.45,1.5-1.3,2.09-1.78,1.08-.83,1.4-1.08l.51-.38-.52.35c-.34.24-.85.56-1.45,1s-1.36,1-2.19,1.69-1.73,1.45-2.7,2.34-2,1.87-3.07,2.92-2.17,2.21-3.28,3.42c-2.23,2.41-4.53,5-6.77,7.73-4.49,5.37-8.8,10.88-12.24,14.77-.85,1-1.65,1.84-2.38,2.59s-1.37,1.37-1.92,1.83l-.62.51a.33.33,0,0,1-.5-.1c-.33-.6-.62-1.09-.86-1.47-1.23,2.19-1.07,1.32-3.19.21a25.49,25.49,0,0,0,1,3.57c.05.17.13.42.25.73a.43.43,0,0,1-.26.56,4.44,4.44,0,0,1-.57.18,7.4,7.4,0,0,1-2.06.14,18.23,18.23,0,0,1-2.88-.41c-2.16-.46-4.69-1.23-7.45-2a67,67,0,0,0-8.79-1.79c-.76-.1-1.52-.18-2.28-.23l-.57,0c-.24,0-.39,0-.59,0l-1.12,0a17.36,17.36,0,0,0-2.26.14,16.8,16.8,0,0,0-2.18.36,8.81,8.81,0,0,0-1,.27l-1,.31c-.65.23-1.27.52-1.88.77s-1.16.59-1.68.92-1,.63-1.48,1a15.58,15.58,0,0,0-1.28,1l-.56.5-.51.51a19.8,19.8,0,0,0-1.57,1.81,12.73,12.73,0,0,0-1.16,1.73,13.47,13.47,0,0,1,1.24-1.66,18.09,18.09,0,0,1,1.65-1.71l.53-.48.58-.47a13.78,13.78,0,0,1,1.31-.94c.44-.34,1-.59,1.49-.91s1.11-.53,1.68-.8,1.21-.46,1.86-.65l1-.24a5.66,5.66,0,0,1,1-.21,16.11,16.11,0,0,1,2.09-.24,15.37,15.37,0,0,1,2.15,0l1.12.08c.17,0,.4,0,.53,0l.55.07c.74.09,1.48.21,2.21.34a65.24,65.24,0,0,1,8.5,2.21c2.68.86,5.17,1.76,7.43,2.37a21.72,21.72,0,0,0,3.2.63,9.94,9.94,0,0,0,2.7-.06,9.13,9.13,0,0,0,1.12-.3.45.45,0,0,1,.54.25l1.3,2.89a.46.46,0,0,1-.08.49c-.34.38-1,1.13-1.28,1.38s-.79.69-1.24,1.09-1,.79-1.58,1.21c-1.16.84-2.5,1.76-4,2.7-6,3.82-14.52,8.29-23.08,12.59a33.41,33.41,0,0,0-6.12,3.93,32.3,32.3,0,0,0-4.92,5,35.62,35.62,0,0,0-5.73,10.93,41.91,41.91,0,0,0-1.84,8.51,27.22,27.22,0,0,0-.2,3.29,27.15,27.15,0,0,1,.31-3.28,41.08,41.08,0,0,1,2.1-8.39,34.84,34.84,0,0,1,6-10.55,30.24,30.24,0,0,1,4.93-4.71,32.27,32.27,0,0,1,6-3.6c8.72-4,17.37-8.22,23.64-11.9,1.57-.91,3-1.82,4.23-2.65.62-.42,1.18-.85,1.71-1.23s1-.78,1.41-1.15c.25-.24.48-.44.7-.64a.27.27,0,0,1,.45.08c1.66,3.58,3.7,7.93,6,12.74a.6.6,0,0,1-.08.64Z"/><path class="cls-9" d="M224.91,516.76c-8.65-12.25-42.5-44.85-39.36-49s28.62,18.12,36.62,34,13.13,27.13,11.24,34c7.73-8.62,27.48-28.46,21.09-50.47-7.45-13.12-7.45-13.12-27.55-23.07s-31.48-13.1-25.74-18.37,44.8,18.77,50.25,32.36c5.9-9.45,10.41-31.13,3.46-43.75S244,409.16,235.63,400.76s-42.34-16.27-59.53,16.83c-.71,1.67-5.6,1.27-4.95-1.56,3.1-14.16,7.29-21.74,2-33.24S150.3,357.91,143.33,353s-22.61-9-30.58-.87c10,1.45,18.4,5,25,15.48s9.08,16.73,2.67,13.65-22.47-24.18-30.11-24.4-26.66-3.59-44.34,16c13.79.91,46.33,9.06,63.69,23.33s2.11,11.35-7.51,4.35-44.58-26.41-52.87-23.46-29,14.45-30.23,47.6c15-9.7,25.84-11,43.23-11.69s46,5.05,41.5,13.67c-1.91,3.68-56.59-4.62-67-2.8s-25.29,10.64-31.6,26.63-1.34,23.41,0,31.28c4.38-8.26,10.54-17.89,34.28-24.1s42.69-12.68,44.95-7.05c3.49,8.69-24.62,6-38.22,11.92s-38.5,17.28-43.1,32.4,8.15,38.26,8.27,42.84c5.33-17,53.71-62.93,77.27-51.94s-64.12,30-76.46,57.61c1,8.95,8.4,25.38,12,29.68,2.59-13.29,21.09-39.15,55.22-49.95,9.22-2.09,11.44,9.89-3.13,14.33S59.27,554.65,54.84,559c-6.54,6.46-9.45,13.86-8,16.86s14,20,21.17,27.89,8.37,17.85,6.23,21.24A47.31,47.31,0,0,1,110,622.59c1.36-11.3-4.64-56.83,5-54.44s4.24,43.86-2.92,54c17.76-1.91,35.44-2.73,37.57-18.38s-22.62-76.5-11.87-83.48S155.16,530.63,154,550.5s7.14,29.79,4.51,41.18-5.54,13.59-8.83,16.87c15.55-3.68,41.37-23.29,43-27.44s.4-26.31-10.69-47.33-20.81-32-11.49-37.37,23.67,32.94,31.68,54.36c6.73,18-1.84,22.93-5.3,28,7.25-3.36,25.4-10.82,34.41-35.41C234,532,233.56,529,224.91,516.76Zm-71.21-85c-.82,5.25-18.41,3.74-17.39-1.6S154.91,424,153.7,431.78Zm-14.32,20.44c3.4,5.74-9.37,10.49-13.95,3.77S135.06,444.94,139.38,452.22ZM114.85,480.1c-2.7-5.21,16.39-10.65,16.78-4.44C132.4,488.22,117.55,485.33,114.85,480.1ZM80.49,560.86c-1.26-3,2.44-4.85,5.49-6.41s4.58-3.47,8.11-3.93,11.21-5.54,10.51-2.06C102.56,558.58,81.76,563.89,80.49,560.86Zm96.18-129.35c3.74-4.54,18.72,7.29,14.45,11.81C187.76,446.88,172.94,436.05,176.67,431.51Zm-4.33,57.54c-3.05,2.32-6.21-1.32-8.89-4.3s-8-2.85-9.53-6.7-1.62-10.69,2.54-10.93C168.5,466.43,175.39,486.73,172.34,489.05Z"/><path class="cls-14" d="M244.53,507.79c.06-.41.15-.91.22-1.51,0-.3,0-.62.05-1a5.77,5.77,0,0,0,0-1.1,19.65,19.65,0,0,0-1-5.48c-.19-.51-.38-1-.57-1.57s-.49-1.06-.74-1.62a36.25,36.25,0,0,0-1.83-3.35,48.68,48.68,0,0,0-5.27-6.78l-1.57-1.7-1.71-1.64c-.59-.55-1.15-1.14-1.78-1.66l-1.87-1.61c-1.24-1.11-2.6-2.12-4-3.17s-2.76-2.06-4.18-3.05l-2.15-1.51L216,469.6l-4.4-2.94c-11.75-7.85-23.58-15.57-32.15-21.74-2.13-1.55-4.07-3-5.76-4.3s-3.12-2.49-4.28-3.47l-1.52-1.33-.27-.24a1.1,1.1,0,0,1-.23-1.31c2-3.87,3.73-7.31,5.11-10a.3.3,0,0,1,.4-.14l2.24.94c.53.22,1.12.43,1.76.64l1,.34,1.09.32c1.49.46,3.21.85,5.09,1.23s3.93.63,6.11.83,4.47.29,6.83.31c4.74,0,9.75-.28,14.74-.48,2.49-.1,5-.14,7.42,0a30.35,30.35,0,0,1,7,1c.56.14,1.08.36,1.62.54l1.58.64c1,.41,2,.88,3,1.31,1.94.9,3.76,1.8,5.4,2.7a79.79,79.79,0,0,1,7.72,4.73c1.8,1.25,2.76,2.06,2.76,2.06s-.94-.84-2.69-2.15a80.85,80.85,0,0,0-7.58-5c-1.62-1-3.42-1.91-5.35-2.89-1-.46-2-1-3-1.42l-1.57-.7c-.55-.2-1.1-.45-1.67-.61a31.13,31.13,0,0,0-7.21-1.31c-2.49-.2-5-.23-7.52-.22-5,0-10,.18-14.66,0-2.33-.09-4.57-.25-6.67-.52s-4.07-.6-5.87-1a48.42,48.42,0,0,1-4.82-1.34l-1-.34-.94-.35c-.6-.23-1.19-.35-1.66-.57s-1.87-.65-1.75-.92c0-.09.72,0,.94,0l.66,0a11.07,11.07,0,0,0,1.45-.14c.52-.07,1.06-.15,1.62-.28l.87-.19.88-.25a36.8,36.8,0,0,0,3.78-1.34c1.29-.56,2.64-1.17,4-1.88,2.71-1.38,5.49-3,8.24-4.67s5.48-3.32,8.09-4.78c1.31-.72,2.58-1.41,3.82-2s2.43-1.09,3.55-1.51a24.77,24.77,0,0,1,3.13-.9,15.29,15.29,0,0,1,2.49-.32h.93c.27,0,.5,0,.69.06l.57.06-.57-.09-.68-.1-.94,0a14.3,14.3,0,0,0-2.53.19,23.64,23.64,0,0,0-3.22.75,38,38,0,0,0-3.67,1.34c-1.28.52-2.6,1.15-4,1.8-2.71,1.33-5.54,2.86-8.36,4.37s-5.65,3-8.37,4.19c-1.35.62-2.67,1.14-3.94,1.61a32.39,32.39,0,0,1-3.6,1.07l-.82.19-.79.13a13.64,13.64,0,0,1-1.45.18c-.46.06-1.39.25-1.75,0s0-.79.11-1c-2.33-.21-3.54-.71-4.29-2.22-.2.26-.45.74-.74.8-.58.11-3.11-4-3.83-5.16-.38-.55-.74-1.16-1.12-1.78s-.78-1.27-1.16-1.94c-.78-1.34-1.55-2.79-2.33-4.29-.38-.76-.77-1.53-1.15-2.32s-.74-1.59-1.11-2.4c-.71-1.63-1.41-3.3-2-5-.34-.85-.6-1.71-.89-2.56s-.54-1.72-.78-2.58-.49-1.87-.69-2.8c-.11-.51-.27-1.35-.35-1.87l-.06-.42c-.29-1.67-.42-3.33-.67-4.89s-.49-3-.77-4.37a33.69,33.69,0,0,0-1-3.63,12,12,0,0,0-1.2-2.63,9.6,9.6,0,0,0-1.14-1.47l-.44-.48.42.5a9.64,9.64,0,0,1,1.07,1.51,12,12,0,0,1,1.06,2.65,30.8,30.8,0,0,1,.78,3.63c.22,1.34.41,2.81.56,4.37s.24,3.2.45,4.91c0,.43.09.86.14,1.3l0,.21c.22,1.23.4,2.5.72,3.75.21.88.4,1.78.67,2.65s.48,1.78.79,2.65c.55,1.76,1.18,3.49,1.83,5.18l1,2.49c.35.82.71,1.62,1.06,2.41.72,1.57,1.44,3.07,2.18,4.48.35.71.72,1.39,1.09,2s.7,1.29,1.06,1.88c.69,1.21,1.39,2.28,2,3.24.31.47.71.89,1,1.29s.88.84.69,1-1.84-1.3-2.45-1.79-1.2-1.16-1.89-1.75c-1.4-1.16-3-2.49-4.64-4-3.35-3-7.18-6.56-11.29-10.42s-8.5-8-13-11.95c-2.26-2-4.56-3.93-6.86-5.8s-4.62-3.65-6.93-5.28c-1.14-.84-2.31-1.59-3.43-2.36s-2.25-1.47-3.37-2.12l-1.65-1c-.54-.31-1.09-.6-1.63-.89-1.06-.6-2.12-1.11-3.13-1.61s-2-.91-3-1.34-1.86-.73-2.72-1.07c-1.73-.6-3.25-1.09-4.53-1.4s-2.29-.53-3-.67l-1.06-.21,1.06.24c.68.16,1.7.36,2.95.75s2.77.88,4.48,1.52c.84.37,1.75.71,2.67,1.14s1.92.87,2.9,1.41,2,1.06,3.07,1.68c.52.31,1.06.61,1.59.94l1.61,1c1.1.68,2.17,1.45,3.29,2.2s2.23,1.58,3.34,2.44c2.25,1.68,4.48,3.53,6.73,5.43s4.47,3.92,6.67,6c4.39,4.08,8.65,8.3,12.65,12.27s7.73,7.67,11,10.77c1.65,1.55,3.19,2.94,4.58,4.16.68.61,1.35,1.17,2,1.69s1.17,1,1.7,1.4,1,.78,1.36,1.09a.64.64,0,0,1,.17.81c-.43.75-.87,1.55-1.34,2.41a1.45,1.45,0,0,1-1.66.7l-13.51-3.9c-4.87-1.45-10.54-3.12-16.38-5.5-2.92-1.19-5.88-2.57-8.88-4s-6-3-9.08-4.48a168.73,168.73,0,0,0-18.41-7.76,82.44,82.44,0,0,0-16.93-4.08,54.36,54.36,0,0,0-7-.35c-1,0-2,.07-2.9.16s-1.7.2-2.44.3-1.38.27-2,.37-1,.24-1.42.35l-1.18.32,1.19-.29a14.15,14.15,0,0,1,1.43-.31c.57-.09,1.21-.25,2-.32s1.55-.2,2.44-.24,1.85-.09,2.88-.09a52.08,52.08,0,0,1,6.9.51,82.16,82.16,0,0,1,16.7,4.46,168.89,168.89,0,0,1,18.1,8.16l9,4.7c3,1.54,5.94,3,8.88,4.28a171,171,0,0,0,16.43,6l12.83,4a1.06,1.06,0,0,1,.62,1.5c-2,3.79-4.19,8.16-6.5,12.82a1.24,1.24,0,0,1-1.3.69l-3-.47c-3.58-.53-8.69-1.28-14.84-2.09-3.07-.41-6.4-.82-9.93-1.25s-7.24-.84-11.1-1.23c-1.92-.21-3.89-.4-5.87-.58s-4-.38-6-.53c-4-.34-8.17-.62-12.31-.83-2.06-.09-4.13-.21-6.19-.24l-3.08-.07c-1,0-2,0-3.07,0a80.92,80.92,0,0,0-12,.79c-1,.2-1.93.33-2.86.57s-1.83.48-2.72.74l-2.66.84-2.55.91a77.53,77.53,0,0,0-9.11,4.16,73.81,73.81,0,0,0-7.23,4.41c-2.06,1.45-3.77,2.82-5.14,4s-2.37,2.19-3,2.89l-1,1.09,1-1.07c.68-.68,1.71-1.66,3.09-2.82s3.13-2.48,5.21-3.89A73,73,0,0,1,49,443.2a76.49,76.49,0,0,1,9.14-3.95l2.54-.85,2.63-.77c.9-.24,1.82-.46,2.74-.69s1.85-.33,2.79-.5a80.51,80.51,0,0,1,11.83-.54c1,0,2,0,3,.06l3.07.13c2,.07,4.1.23,6.16.36,4.1.29,8.21.66,12.24,1.07,2,.2,4,.43,6,.66s3.93.44,5.84.69c3.84.46,7.54,1,11.05,1.45s6.82,1,9.88,1.45c6.11.92,11.19,1.78,14.74,2.38l2,.34a.87.87,0,0,1,.63,1.24c-3.44,7-7,14.51-10.27,21.47a.92.92,0,0,1-.85.53c-.78,0-1.75,0-2.91,0-1.69,0-3.74,0-6.07.08s-5,.15-7.86.26l-4.48.22-4.8.3c-3.29.24-6.76.5-10.34.87-1.79.16-3.61.37-5.45.6l-2.77.32-2.8.39-2.81.4-2.83.47-2.83.47-2.83.56c-.94.2-1.89.37-2.82.58l-2.8.67c-1.88.4-3.7,1-5.53,1.49-.45.14-.91.25-1.35.4l-1.34.48-2.64.94c-.86.36-1.7.75-2.54,1.12l-1.26.56-1.2.62c-3.2,1.63-6.25,3.34-9.07,5s-5.44,3.41-7.75,5.12a77.44,77.44,0,0,0-6.08,5c-1.74,1.56-3.17,3-4.34,4.21S34.61,501,34,501.67l-.93,1,1-1c.63-.65,1.54-1.6,2.73-2.77s2.65-2.59,4.42-4.11a77.48,77.48,0,0,1,6.16-4.8c2.34-1.65,5-3.31,7.82-4.93s5.9-3.24,9.14-4.8c.4-.2.8-.41,1.21-.59l1.24-.53c.83-.34,1.66-.71,2.51-1l2.63-.87,1.32-.44c.44-.14.9-.25,1.35-.37,1.81-.48,3.62-1,5.49-1.36l2.78-.6c.94-.19,1.88-.34,2.82-.51l2.81-.49,2.83-.41,2.81-.41,2.81-.33,2.78-.33,2.76-.26c1.84-.18,3.65-.35,5.43-.47,3.57-.29,7-.48,10.3-.65l4.77-.2,4.46-.12c2.87,0,5.49-.1,7.81-.08s4.35,0,6,0l1.29,0a.69.69,0,0,1,.6,1l-3.77,8.16c-2.31,5-5.89,13.05-10.07,22.57a1.54,1.54,0,0,1-.91.84l-13.7,4.67c-8.9,3.09-20.76,7.33-32.19,12.62-2.86,1.32-5.68,2.71-8.42,4.16s-5.39,3-7.91,4.49-4.88,3.14-7,4.76C58,534.34,57,535.17,56,536s-1.93,1.59-2.78,2.42-1.7,1.57-2.43,2.36l-1.09,1.12-1,1.13c-.31.36-.63.7-.91,1l-.78,1-.73.94c-.22.31-.41.62-.61.9-.37.58-.73,1.08-1,1.53L44,549.62l-.56,1,.58-1c.18-.31.41-.7.69-1.16s.65-.94,1-1.51c.2-.28.4-.58.63-.88s.48-.61.74-.93l.8-1c.29-.34.61-.68.93-1l1-1.1,1.11-1.1c.74-.77,1.58-1.52,2.46-2.3s1.84-1.53,2.81-2.35,2-1.57,3.14-2.34c2.19-1.56,4.59-3.09,7.11-4.59s5.19-2.94,8-4.31,5.59-2.71,8.46-4c11.47-5,23.38-9,32.32-11.93l11.92-3.8a.38.38,0,0,1,.47.52c-4.21,9.63-8.92,20.52-13.53,31.35a1.37,1.37,0,0,1-.73.73l-.56.24c-1.64.69-4,1.63-6.84,2.73-5.68,2.22-13.32,5.14-20.63,8.77-1.82.92-3.64,1.86-5.38,2.86s-3.44,2-5,3.07-3.1,2.14-4.49,3.21c-.69.54-1.34,1.09-2,1.61s-1.22,1.07-1.78,1.59c-1.12,1-2.09,2.06-2.92,3l-1.14,1.31-.91,1.16c-.57.7-.93,1.29-1.22,1.68l-.41.6.43-.59c.29-.38.67-1,1.24-1.65l.94-1.14,1.16-1.29c.85-.9,1.84-1.88,3-2.9.57-.51,1.18-1,1.8-1.55s1.31-1,2-1.56c1.4-1,2.91-2.1,4.53-3.1s3.3-2,5.06-3,3.58-1.85,5.41-2.73c7.35-3.47,15-6.21,20.74-8.32,2.5-.91,4.64-1.71,6.25-2.34a.25.25,0,0,1,.31.33c-9.82,23.16-18.93,45.52-21.45,54.12-5.16,17.62-12.32,25.88-15.9,29.64,7.45-6.63,10-11.46,14.07-20.71s6.16-15.82,9.57-24.31c1.76-4.38,11.64-26.33,21.81-48.64a.25.25,0,0,1,.46,0c.62,1.6,2.45,6.33,3.65,9.7A224.62,224.62,0,0,1,133.68,570c.58,2.8,1,5.63,1.46,8.41s.69,5.55.86,8.23.24,5.28.21,7.74c0,1.23-.11,2.42-.15,3.58s-.21,2.26-.33,3.33-.3,2.08-.47,3.05l-.57,2.72-.65,2.35c-.21.73-.48,1.37-.68,2a26.33,26.33,0,0,1-1.1,2.69l-.43.94.44-.93a28.86,28.86,0,0,0,1.15-2.68c.2-.59.49-1.23.7-2s.44-1.51.69-2.35.4-1.76.61-2.72.34-2,.52-3,.25-2.19.37-3.34.17-2.36.2-3.6c.07-2.46.08-5.07-.09-7.76s-.42-5.47-.75-8.28-.79-5.65-1.34-8.47a223.5,223.5,0,0,0-8.17-30.52c-1.38-4.09-2.63-7.45-3.53-9.81l-.45-1.18a1.29,1.29,0,0,1,0-1c6.78-14.86,13.54-29.55,18-39a.32.32,0,0,1,.54-.06c1.21,1.55,5.43,7,8,10.69,2.95,4.23,6.26,9.28,9.51,14.86a137.92,137.92,0,0,1,9,18.09,65.69,65.69,0,0,1,3.11,9.75,36.81,36.81,0,0,1,.8,4.94c.11,1.63.16,3.3.23,4.91.37,6.5,1.19,12.5,1.82,17.64.31,2.57.55,4.93.69,7a34.51,34.51,0,0,1,0,5.44c-.11.74-.19,1.42-.33,2a13.48,13.48,0,0,1-.43,1.43c-.33.74-.5,1.14-.5,1.14l.52-1.13c.17-.37.28-.86.46-1.42s.24-1.24.37-2a37.28,37.28,0,0,0,.14-5.46c-.1-2.1-.3-4.48-.57-7-.54-5.16-1.25-11.18-1.49-17.63-.05-1.63-.07-3.25-.15-5a37.9,37.9,0,0,0-.72-5,66.31,66.31,0,0,0-3-9.94,138.93,138.93,0,0,0-8.73-18.41c-3.17-5.68-6.41-10.81-9.31-15.14s-5.48-7.81-7.34-10.22l-1.13-1.45a.89.89,0,0,1-.1-.93c.91-1.92,1.68-3.54,2.28-4.77,2.56-5.27,6.84-13.73,11.44-22.75a.79.79,0,0,1,1.25-.24l1.24,1.1c2.47,2.22,6.08,5.26,10.32,8.95,2.11,1.85,4.39,3.88,6.69,6.11s4.69,4.65,7.05,7.24c1.17,1.31,2.37,2.64,3.52,4s2.32,2.79,3.47,4.24c2.3,2.88,4.53,5.9,6.71,8.95,1.08,1.51,2.12,3.1,3.18,4.64s2,3.15,3,4.7,1.86,3.18,2.76,4.74,1.72,3.17,2.51,4.74c1.57,3.14,3,6.23,4.22,9.22l.89,2.21.8,2.17c.55,1.42,1,2.82,1.42,4.16s.77,2.65,1.14,3.88.61,2.42.86,3.54c.47,2.24.81,4.21,1,5.85.09.81.18,1.55.19,2.18s.09,1.18.06,1.63c0,.88,0,1.35,0,1.35s0-.47,0-1.35c0-.45,0-1,0-1.63s-.08-1.37-.15-2.19c-.14-1.65-.44-3.63-.86-5.89-.22-1.12-.51-2.31-.79-3.57s-.64-2.57-1.06-3.92-.81-2.77-1.32-4.21l-.76-2.2-.85-2.24c-1.14-3-2.53-6.16-4-9.37-.76-1.6-1.6-3.19-2.41-4.81s-1.76-3.22-2.68-4.84-1.9-3.22-2.9-4.81-2-3.16-3.09-4.74c-2.13-3.11-4.31-6.2-6.56-9.16-1.13-1.48-2.25-2.95-3.41-4.36s-2.31-2.8-3.47-4.14c-2.33-2.68-4.66-5.2-7-7.5s-4.54-4.41-6.63-6.33c-4.19-3.81-7.72-6.91-10.1-9.15-.64-.58-1.19-1.11-1.67-1.56a1.55,1.55,0,0,1-.31-1.81L165.46,438a.48.48,0,0,1,.74-.15l1.54,1.28c1.22,1,2.71,2.16,4.45,3.44s3.74,2.71,5.93,4.22c8.78,6,20.79,13.45,32.71,21l4.47,2.83,2.22,1.41,2.17,1.45c1.44,1,2.89,1.91,4.23,2.94s2.73,2,4,3l1.9,1.55c.64.5,1.2,1.07,1.79,1.6l1.73,1.59c.54.55,1.08,1.1,1.6,1.65a48.06,48.06,0,0,1,5.37,6.58,33.77,33.77,0,0,1,1.89,3.27c.26.54.55,1.05.76,1.58s.41,1,.6,1.54a19.35,19.35,0,0,1,1.15,5.41,8.11,8.11,0,0,1,0,1.09q0,.51,0,1c-.06.6-.14,1.1-.19,1.51-.2.81-.3,1.24-.3,1.24S244.31,508.59,244.53,507.79Z"/></g><rect class="cls-8" x="1101.27" y="38.64" width="350.53" height="227.53" rx="40.73"/><polygon class="cls-8" points="1169.37 266.19 1250.68 266.16 1169.37 335.24 1169.37 266.19"/><rect class="cls-2" x="1152.06" y="110.75" width="91.44" height="9.99" rx="3.91"/><rect class="cls-2" x="1253.82" y="110.75" width="147.18" height="9.99" rx="3.91"/><rect class="cls-2" x="1322.75" y="184.06" width="78.25" height="9.99" rx="3.91"/><rect class="cls-2" x="1152.06" y="147.41" width="248.94" height="9.99" rx="3.91"/><rect class="cls-2" x="1152.06" y="184.06" width="159.81" height="9.99" rx="3.91"/><rect class="cls-16" x="130.26" width="342.41" height="222.26" rx="24.82"/><polygon class="cls-16" points="255.23 222.29 347.71 222.25 301.47 286 255.23 222.29"/><path class="cls-17" d="M390.82,75.21v71.84a17.63,17.63,0,0,1-2.29,8.72l-62.68-46.42,61.07-45.22A17.64,17.64,0,0,1,390.82,75.21Z"/><path class="cls-17" d="M382.3,162.19a17.52,17.52,0,0,1-9.21,2.59H229.86a17.52,17.52,0,0,1-9.22-2.59l63.91-47.32,7.16,5.31a17.23,17.23,0,0,0,19.52,0l7.16-5.31Z"/><path class="cls-17" d="M277.09,109.35l-62.68,46.42a17.63,17.63,0,0,1-2.29-8.72V75.21A17.64,17.64,0,0,1,216,64.13Z"/><path class="cls-17" d="M379.42,58.65l-61,45.19-7.45,5.51L306,113a8.38,8.38,0,0,1-9,0l-5-3.69-7.45-5.51-61-45.19a17.39,17.39,0,0,1,6.35-1.17H373.09A17.36,17.36,0,0,1,379.42,58.65Z"/><rect class="cls-18" x="394.4" y="170.17" width="286.74" height="153.93" rx="76.97" transform="translate(1075.54 494.28) rotate(-180)"/><polygon class="cls-18" points="650.66 303.36 595.74 324.1 658.81 353.3 650.66 303.36"/><circle class="cls-17" cx="471.93" cy="249.02" r="12.72"/><circle class="cls-17" cx="536.13" cy="249.02" r="12.72"/><circle class="cls-17" cx="600.34" cy="249.02" r="12.72"/></g></g></svg>