<svg xmlns="http://www.w3.org/2000/svg" xmlns:xlink="http://www.w3.org/1999/xlink" viewBox="0 0 1255.69 993.9"><defs><style>.cls-1,.cls-10,.cls-17,.cls-18,.cls-63{fill:none;}.cls-2{isolation:isolate;}.cls-3{fill:#ee1b54;opacity:0.3;}.cls-4,.cls-9{fill:#698bf4;}.cls-4,.cls-5,.cls-6{opacity:0.4;}.cls-5,.cls-8{fill:#8c4dce;}.cls-6{fill:#f39200;}.cls-7{fill:#a371d0;}.cls-10{stroke:#855fa4;stroke-dasharray:10 3;}.cls-10,.cls-17,.cls-18,.cls-63{stroke-miterlimit:10;}.cls-11{fill:#721c01;}.cls-12{fill:#c6896d;}.cls-13{fill:#b77e67;}.cls-14{fill:#ef6fdd;}.cls-15{fill:#f4d953;}.cls-16{fill:#a59ab4;}.cls-17{stroke:#d359bc;stroke-width:4px;}.cls-18{stroke:#755f41;stroke-linecap:round;stroke-width:0.5px;}.cls-19{fill:url(#Dégradé_sans_nom_2);}.cls-20{fill:#ea886a;}.cls-21{fill:url(#Dégradé_sans_nom_4);}.cls-22{fill:#92a9f4;}.cls-23{fill:#367a91;}.cls-24{fill:#f1f1f2;}.cls-25{fill:#fc6e35;}.cls-26{fill:#d65f3a;}.cls-27{fill:#f8fcff;}.cls-28{fill:#b1b5ba;}.cls-29{fill:#fc9770;}.cls-30{fill:#ea6a3d;}.cls-31{mix-blend-mode:multiply;}.cls-32{clip-path:url(#clip-path);}.cls-33{fill:#ddd;}.cls-34{fill:#fff;}.cls-35{fill:#7f7f7f;}.cls-36{fill:#e5e5e5;}.cls-37{fill:#f4aee4;}.cls-38{fill:#ffd297;}.cls-39{fill:#58595b;}.cls-40{fill:#d1d3d4;}.cls-41{fill:#ff88d5;}.cls-42{fill:#939598;}.cls-43{fill:#e876c0;}.cls-44{fill:#e87f67;}.cls-45{fill:#fddb25;}.cls-46{fill:#606689;}.cls-47{fill:#f0cd21;}.cls-48{fill:#fad940;}.cls-49{fill:#f5d4b5;}.cls-50{fill:#ccc;}.cls-51{fill:#e3b795;}.cls-52{fill:#b5b4b4;}.cls-53{fill:#fbd72f;}.cls-54{fill:#e1bf19;}.cls-55{fill:#edccb2;}.cls-56{fill:#faf8f6;}.cls-57{opacity:0.09;}.cls-58{clip-path:url(#clip-path-2);}.cls-59{fill:#e2c3af;}.cls-60{fill:#edcc2d;}.cls-61{fill:#a172ae;}.cls-62{fill:#8c5831;}.cls-63{stroke:#b2b2b2;}.cls-64{fill:#d8d8d8;}.cls-65{fill:#7e512f;}.cls-66{fill:#503421;}.cls-67{fill:#82512f;}.cls-68{fill:#b6c9ff;}.cls-69{fill:#c3c6dd;}.cls-70{fill:#9d8db2;}.cls-71{fill:#d3a48c;}.cls-72{fill:#bc917e;}.cls-73{fill:#f7d64d;}.cls-74{fill:#e5c74a;}.cls-75{fill:#edcfbe;}.cls-76{fill:#f26636;}.cls-77{fill:#ffdfcf;}.cls-78{fill:#6d5d43;}.cls-79{fill:#d3b9ab;}.cls-80{fill:#d2d8f9;}.cls-81{fill:#5c82cc;}.cls-82{fill:#edeff4;}.cls-83{fill:#f9cd15;}</style><linearGradient id="Dégradé_sans_nom_2" x1="208.93" y1="340.54" x2="337.5" y2="340.54" gradientUnits="userSpaceOnUse"><stop offset="0" stop-color="#ce9865"/><stop offset="0.57" stop-color="#ac733c"/><stop offset="0.91" stop-color="#976333"/><stop offset="1" stop-color="#976333"/></linearGradient><linearGradient id="Dégradé_sans_nom_4" x1="330.2" y1="344.72" x2="524.09" y2="344.72" gradientUnits="userSpaceOnUse"><stop offset="0" stop-color="#ce9865"/><stop offset="0.1" stop-color="#ce9865"/><stop offset="0.46" stop-color="#bd8550"/><stop offset="0.75" stop-color="#ac733c"/><stop offset="1" stop-color="#ac733c"/></linearGradient><clipPath id="clip-path"><rect class="cls-1" x="226.29" y="279.62" width="224.66" height="160.78"/></clipPath><clipPath id="clip-path-2"><rect class="cls-1" x="680.7" y="229.16" width="185.4" height="239.55"/></clipPath></defs><g class="cls-2"><g id="Calque_2" data-name="Calque 2"><g id="Illustration_6" data-name="Illustration 6"><circle class="cls-3" cx="417.97" cy="699.63" r="286.33"/><circle class="cls-4" cx="376.37" cy="260.14" r="260.14"/><circle class="cls-5" cx="857.87" cy="286.98" r="248.01"/><circle class="cls-6" cx="938.26" cy="732.39" r="260.14"/><g id="Calque_2-2" data-name="Calque 2"><path class="cls-7" d="M966.88,497.07c23.25-46.05,61.21-81.78,97.92-116.34q7.77-7.31,15.51-14.66c17.84-17.34,32.38-39,44.44-66.18l1.44.63c-12.14,27.39-26.79,49.2-44.78,66.68-5.16,4.93-10.35,9.8-15.52,14.68-36.62,34.46-74.48,70.1-97.61,115.9Z"/><path class="cls-7" d="M1027.45,418.77l-.8-1.36c16.69-9.83,32.71-15.19,53.56-17.93l.21,1.57C1059.78,403.75,1043.94,409.05,1027.45,418.77Z"/><path class="cls-7" d="M1066.13,379.63a219.82,219.82,0,0,0,9-58l1.58,0a221.74,221.74,0,0,1-9.09,58.42Z"/><path class="cls-7" d="M1123.57,305.09s59.49-67.63,24.43-142C1148,163.1,1094.49,184,1123.57,305.09Z"/><path class="cls-8" d="M1076.5,400.42s67.24-31.09,102.41,10.2C1178.91,410.62,1119.85,445,1076.5,400.42Z"/><path class="cls-7" d="M1057.88,405.07s36.91-62.7,88.11-67C1146,338.05,1127.14,379.93,1057.88,405.07Z"/><path class="cls-8" d="M1107.23,334.46s44.74-57.15,81.3-49.46C1188.53,285,1160.47,333.44,1107.23,334.46Z"/><path class="cls-8" d="M1076.17,325.77s23.22-54-14-99C1062.15,226.73,1033.32,258,1076.17,325.77Z"/><path class="cls-8" d="M1073.91,347.05s44.5-23.1,41.4-55.85C1115.31,291.2,1087.73,284,1073.91,347.05Z"/><path class="cls-8" d="M1042.2,403.2s46.51-58.87,5.28-100.56C1047.48,302.64,1020.72,342.33,1042.2,403.2Z"/><path class="cls-7" d="M1042,410.8s43.25-4,56.64,37.23C1098.61,448,1053.69,459.68,1042,410.8Z"/><path class="cls-7" d="M993.16,458s47.68-73.82,9.37-105.92C1002.53,352.06,970.93,399.3,993.16,458Z"/><path class="cls-8" d="M978.37,477.07s45.57-53.09,76.09-28.93C1054.46,448.14,1051.67,476,978.37,477.07Z"/></g><g id="Calque_7" data-name="Calque 7"><path class="cls-7" d="M477.83,414.1c31.55,22.17,69.15,32.36,105.51,42.22q7.7,2.07,15.39,4.2c17.86,5.15,35.06,14.3,52.58,28l.73-.93c-17.64-13.77-35-23-53-28.18-5.14-1.43-10.27-2.82-15.4-4.21-36.27-9.83-73.77-20-105.14-42Z"/><path class="cls-7" d="M545.33,444.39l-.05,1.18c14.46.61,26.91-1.5,41.62-7l-.42-1.1C571.93,442.91,559.62,445,545.33,444.39Z"/><path class="cls-7" d="M584.6,456.57A164.19,164.19,0,0,1,611,491.63l1-.57a165.9,165.9,0,0,0-26.56-35.31Z"/><path class="cls-7" d="M648.71,485.49s63,23.63,66.09,85C714.8,570.48,672.18,575.58,648.71,485.49Z"/><path class="cls-8" d="M584.12,439.22S639.38,436,648,396.44C648,396.44,597,394.58,584.12,439.22Z"/><path class="cls-7" d="M570.21,442.71s46.4,28.33,81.67,13.16C651.88,455.87,624.71,434.9,570.21,442.71Z"/><path class="cls-8" d="M627.6,471.88s49.61,21.92,71,4C698.6,475.86,663.05,453.81,627.6,471.88Z"/><path class="cls-8" d="M610.18,488.54S644.51,516,635.8,558.76C635.8,558.76,605.81,548.32,610.18,488.54Z"/><path class="cls-8" d="M601.2,475.31s37.47-.44,46.95,22.24C648.15,497.55,632.52,512,601.2,475.31Z"/><path class="cls-8" d="M560.53,449.46s51.38,22.43,38.88,64.43C599.41,513.89,567.81,497.15,560.53,449.46Z"/><path class="cls-7" d="M557.7,444.54s29.92-12.6,24.23-44.49C581.93,400.05,548.22,408.19,557.7,444.54Z"/><path class="cls-7" d="M508.92,430.62s57.42,31.87,43.46,66.52C552.38,497.14,514.93,477.12,508.92,430.62Z"/><path class="cls-8" d="M492.45,423.24s48.73,18.95,60.34-7.72C552.79,415.52,541.14,398.14,492.45,423.24Z"/></g><g id="Calque_8" data-name="Calque 8"><path class="cls-7" d="M391,329.83c20.09-33.24,50.62-57.9,80.15-81.74q6.25-5,12.48-10.12c14.38-12,26.53-27.42,37.13-47.15l1,.56c-10.68,19.87-22.92,35.4-37.42,47.5Q478.14,244,471.89,249C442.44,272.79,412,297.38,392,330.44Z"/><path class="cls-7" d="M440.93,274.51l-.52-1.07c13.09-6.43,25.42-9.54,41.23-10.4l.06,1.19C466.06,265.08,453.87,268.16,440.93,274.51Z"/><path class="cls-7" d="M472.2,247.34a165.63,165.63,0,0,0,10.09-43l1.18.11a166.22,166.22,0,0,1-10.16,43.33Z"/><path class="cls-7" d="M519.57,194.66S568.09,147.29,546,89.48C546,89.48,504.65,102.07,519.57,194.66Z"/><path class="cls-8" d="M478.8,263.54S531,244,555.09,277C555.09,277,508.8,299.46,478.8,263.54Z"/><path class="cls-7" d="M464.56,266s31.28-44.95,70-45.28C534.52,220.68,518,251,464.56,266Z"/><path class="cls-8" d="M505.63,215.78s36.85-40.35,63.85-32.49C569.48,183.29,545.65,218.05,505.63,215.78Z"/><path class="cls-8" d="M482.81,207.48s20.52-39.23-4.87-75.14C477.94,132.34,454.52,154.13,482.81,207.48Z"/><path class="cls-8" d="M479.9,223.33s34.72-14.81,34.27-39.57C514.17,183.76,493.88,176.76,479.9,223.33Z"/><path class="cls-8" d="M452.89,263.66s38.28-41.53,9.7-75.18C462.59,188.48,440.25,216.74,452.89,263.66Z"/><path class="cls-7" d="M452.28,269.35s32.7-.53,40.4,31.19C492.68,300.54,458.29,306.72,452.28,269.35Z"/><path class="cls-7" d="M413,302s40-52.69,13.07-79C426,223,399.62,256.67,413,302Z"/><path class="cls-8" d="M400.76,315.47S438,278.22,459.53,298.1C459.53,298.1,455.84,318.85,400.76,315.47Z"/></g><g id="Calque_5" data-name="Calque 5"><path class="cls-7" d="M960.79,476c40.54,16.38,73.41,45.91,105.2,74.47q6.72,6,13.48,12.06c15.91,13.84,35.22,24.58,59,32.84l-.43,1.26c-24-8.32-43.45-19.14-59.49-33.1q-6.78-6-13.49-12.07c-31.71-28.48-64.48-57.93-104.81-74.22Z"/><path class="cls-7" d="M1031.21,521.64l1.09-.77c9.49,13.4,15.16,26.55,18.94,44l-1.3.28C1046.19,547.89,1040.59,534.88,1031.21,521.64Z"/><path class="cls-7" d="M1067,551.54a186.89,186.89,0,0,0,49.64,3.52l.09,1.33a187.43,187.43,0,0,1-50-3.54Z"/><path class="cls-7" d="M1134,594.77s61.33,45.46,121.65,10.58C1255.69,605.35,1234.29,561.63,1134,594.77Z"/><path class="cls-7" d="M1050.19,561.77s31,54.59-1.37,87.22C1048.82,649,1015.62,601.54,1050.19,561.77Z"/><path class="cls-7" d="M1044.94,546.37s55.57,26.74,62.85,69.67C1107.79,616,1071.08,603.09,1044.94,546.37Z"/><path class="cls-8" d="M1108.07,583.05s51.44,33.74,47.54,65.16C1155.61,648.21,1112.71,627.94,1108.07,583.05Z"/><path class="cls-8" d="M1113.21,556.2s47.28,15.79,82.65-18.86C1195.86,537.34,1167.45,515.21,1113.21,556.2Z"/><path class="cls-7" d="M1095.08,555.8s22.66,36,50.1,31C1145.18,586.81,1149.34,563,1095.08,555.8Z"/><path class="cls-8" d="M1045.41,533s53,35.11,85.3-2.67C1130.71,530.33,1095.3,510.55,1045.41,533Z"/><path class="cls-8" d="M1039,533.34s6.44,36.25-27.44,50.48C1011.54,583.82,998.52,546.7,1039,533.34Z"/><path class="cls-7" d="M995.67,495.46s65.73,35,90.12.41C1085.79,495.87,1043.66,472.53,995.67,495.46Z"/><path class="cls-8" d="M978.5,484.32s48.06,34.73,29.82,62.21C1008.32,546.53,984.59,546.15,978.5,484.32Z"/></g><path class="cls-9" d="M226.29,426.7c.22,3-6.69,6.05-15.46,34.12,12.61,10.67,32.1,22.63,32.1,22.63l150.6,1.46C375.62,435,338.44,416,338.44,416s-29.22-9.72-49.59-5.71c-15.81,3.1-62.56,16.41-62.56,16.41"/><path class="cls-10" d="M295.63,424.27a255.6,255.6,0,0,0,2.44,59.21"/><path class="cls-11" d="M251.57,67.13s-1.41-23.82-36.92-12.76-47.19,27.72-52.36,47.57-6.28,49.51-4.9,67.68c4.21,55.4-30.74,72.13-27.45,101.61s20.89,57.13,53.49,66.54,133-53.33,135.73-69.5c4.83-28.09-10.76-59.13-11.92-106.44-.6-24.54-7.83-87.18-35.22-95.25a36,36,0,0,0-20.45.55"/><path class="cls-12" d="M525.62,321.52c-7.28,5-11.67,13.72-11.67,13.72s-31.11,5.74-32.48,7.91,1.57,16.15,3.62,17.14,28.54-5.88,28.54-5.88,14.82,1,26.5.38,24.26-5.83,27.64-7.37,10.08-3.15,9.37-5.94c-.6-2.37-15.14,1.95-19.31,3.16-.73.22-.44-1.17-.44-1.17s23.46-7.24,27.49-9.75,4.85-4.43,2.63-5.2c-3.49-1.2-31.27,7.59-31.27,7.59s-1.1-.68-.4-1c5.43-2.23,30.56-12.38,32-15.26,1.34-2.63-2.35-3.43-7.47-2.16-3.62.9-23,8.59-27.45,10.39-.59.24-.73-1-.73-1s20.78-7.74,24.64-13.06c2.51-3.45-1.64-3.32-6.5-2.26a140.16,140.16,0,0,0-15.27,6c-7.32,3.31-18.15,7.15-17.06,5.68.59-.79.83-1.11,5.31-3.09,4.13-1.83,11.92-6.75,9.08-8.89-2.3-1.74-20.24,5.52-26.78,10"/><path class="cls-12" d="M320.09,227.71c4.65,2.4,77.29,114.47,78.77,127.49,1.35,11.89,3.41,20.21-3.22,24.5-7.64,4.95-16.19,14-36-11-5.17-6.54-52.18-67.55-52.18-67.55S286.17,272,293.26,249.81s22.17-24.5,26.83-22.1"/><path class="cls-13" d="M315.05,264.32c3.82,2,44.1,95.17,62.83,95.92,7,.28,11.61,21,4.67,22.23-9.16,1.6-7.52,6.71-22.95-13.8-5-6.66-52.18-67.55-52.18-67.55s3-39.2,7.63-36.8"/><path class="cls-14" d="M323.63,400.76c.51,6.19,2.22,17.61,2.22,17.61l-98,11.19a57.53,57.53,0,0,0-2.11-17.62c-2.73-10.37-72.71-158.6-68.14-164.44s55.33-23.62,79.22-26.35,79.48,3.09,83.89,6.72c6.06,30,26.47,48.32,22.91,74-2.1,15.19-16.29,23.22-16.44,29.47-.91,37.53-4.2,61.88-3.58,69.44"/><path class="cls-15" d="M343.87,292.6s7.7,36.64-87.26,47.23c-23.45,2.61,52.31-.92,61.38-6.12,14.93-8.56,18.85-14.87,22.94-23.1s2.94-18,2.94-18"/><path class="cls-16" d="M227.36,419.83c-.38,4.57-8.41,15-8.41,15s46.35,7.22,72.75,1.12c28.55-6.59,46.74-19.92,46.74-19.92l-14.06-11.69a261.6,261.6,0,0,1-33.73,8.4c-17.25,2.91-63.29,7.12-63.29,7.12"/><path class="cls-12" d="M173.75,146.39c9.79,33.54,42.8,43.4,45.61,53.62l.09.3a23.51,23.51,0,0,1-16,28.52c-2.4.72-4.88,1.5-7.36,2.32,6.42,3.68,22.7,14.41,59.36,10.23,22.61-2.59,38.28-12.73,35.51-18.8-8.51-1-18.18-1.56-24.09-1.8a7.06,7.06,0,0,1-6.65-5.74c-1.15-6.13-2.65-15.41-1.6-17.46,1.59-3.11,21.92-3.23,28.38-16s3.05-67.85-5.27-84.13C270.3,75.15,242.05,66.86,219.22,71S183.54,80,173.86,97c-6.86,12.09-4.84,35.93-.11,49.38"/><path class="cls-17" d="M194.92,231.52c6.41,14.13,96.86,14.65,98.19-8.71"/><path class="cls-12" d="M150.07,255.93c-8.14,21.07,19,130.74,22.25,135.77s8,5.69,19.77,2.61c14.92-3.89,12.48-30.23,12.48-30.23s-2.82-71-2.26-83.61-4.82-21.6-19.82-33-28.93-.56-32.42,8.48"/><path class="cls-12" d="M383.74,349.15c10.56-4.73,131.6-14.89,131.6-14.89l-1.71,20.15S394.46,389.23,384.79,389.1c-11.08-.16-19.05-5.55-20.17-10.2-1.51-11.89,8.87-25.17,19.12-29.75"/><path class="cls-13" d="M237.12,196.36s2.18,1.26,11.55,1.26,11.25-1.37,11.25-1.37-4,3.92-11.49,3.82-11.31-3.71-11.31-3.71"/><path class="cls-11" d="M268.94,74.25s14.77,13.67-10.07,34.63c-13,10.92-28.76,9-35.87,19.74-6.66,10.06-11.87,42.72-.46,66.46,13.22,27.54,22.85,67.14,6.2,89.74-21.94-35.17-49.45-25.59-49.45-75.18,0-28.29-22.38-84.4-12.62-109.76,19.4-50.37,102.27-25.63,102.27-25.63"/><path class="cls-13" d="M513.63,354.41s-119.18,35.2-128.84,34.69c-34.46-1.82-19.88-35.59-12.73-30.82,15.84,10.57,141.57-3.87,141.57-3.87"/><path class="cls-13" d="M192.74,387.42c15.07,11.75,12.4-22.72,12.4-22.72s-2.82-71-2.27-83.61-2.32,67.73-10.13,106.33"/><path class="cls-18" d="M551.28,325.87a51.21,51.21,0,0,1,4.28,9.28,47.06,47.06,0,0,1,2.13,11.57"/><path class="cls-18" d="M537.78,323.94s-.46,4.78-2.16,7.69a32.56,32.56,0,0,1-4.26,5.51"/><g id="Calque_4" data-name="Calque 4"><polygon class="cls-19" points="208.93 364.64 337.5 384.86 330.2 296.23 208.93 364.64"/><polygon class="cls-20" points="288.67 309.63 161.77 377.56 208.93 364.64 330.2 296.23 288.67 309.63"/><polygon class="cls-21" points="337.5 384.86 397.08 393.22 524.09 320.48 330.2 296.23 337.5 384.86"/><polygon class="cls-20" points="330.2 296.23 524.09 320.48 574.54 304.35 377.32 282.75 330.2 296.23"/><path class="cls-22" d="M392.71,375.08l-48.5-151.43a3.25,3.25,0,0,0-4.14-2L315.8,229a2.79,2.79,0,0,0-1.84,3.52l48.78,152.3a2.79,2.79,0,0,0,3.46,1.82l24.35-7.39a3.35,3.35,0,0,0,2.16-4.19M366.2,373.9a4,4,0,0,1,2.74-5.07,4.16,4.16,0,0,1,5.2,2.66,4,4,0,0,1-2.73,5.06,4.18,4.18,0,0,1-5.21-2.65"/><polygon class="cls-23" points="381.74 373.47 381.25 371.92 390.77 369.03 391.27 370.57 381.74 373.47"/><polygon class="cls-23" points="383.43 367.87 383.19 367.1 389.54 365.17 389.79 365.94 383.43 367.87"/><polygon class="cls-23" points="382.2 364 381.95 363.23 388.3 361.31 388.55 362.08 382.2 364"/><polygon class="cls-23" points="380.96 360.14 380.71 359.37 387.06 357.44 387.31 358.21 380.96 360.14"/><polygon class="cls-23" points="379.72 356.28 379.48 355.51 385.83 353.58 386.07 354.35 379.72 356.28"/><polygon class="cls-23" points="377 347.78 376.75 347.01 383.1 345.08 383.35 345.85 377 347.78"/><polygon class="cls-23" points="375.76 343.92 375.52 343.14 381.87 341.22 382.11 341.99 375.76 343.92"/><polygon class="cls-23" points="374.52 340.05 374.28 339.28 380.63 337.36 380.88 338.13 374.52 340.05"/><polygon class="cls-23" points="373.29 336.19 373.04 335.42 379.39 333.49 379.64 334.26 373.29 336.19"/><polygon class="cls-23" points="370.57 327.69 370.32 326.92 376.67 324.99 376.92 325.76 370.57 327.69"/><polygon class="cls-23" points="369.33 323.83 369.08 323.06 375.43 321.13 375.68 321.9 369.33 323.83"/><polygon class="cls-23" points="368.09 319.97 367.84 319.19 374.19 317.27 374.44 318.04 368.09 319.97"/><polygon class="cls-23" points="366.85 316.1 366.61 315.33 372.96 313.4 373.2 314.18 366.85 316.1"/><polygon class="cls-23" points="364.13 307.61 363.88 306.83 370.24 304.9 370.48 305.68 364.13 307.61"/><polygon class="cls-23" points="362.89 303.74 362.65 302.97 369 301.04 369.25 301.81 362.89 303.74"/><polygon class="cls-23" points="361.66 299.88 361.41 299.11 367.76 297.18 368.01 297.95 361.66 299.88"/><polygon class="cls-23" points="360.42 296.01 360.17 295.24 366.52 293.32 366.77 294.09 360.42 296.01"/><polygon class="cls-9" points="357.7 287.52 357.45 286.75 363.8 284.82 364.05 285.59 357.7 287.52"/><polygon class="cls-9" points="356.46 283.65 356.21 282.88 362.56 280.95 362.81 281.73 356.46 283.65"/><polygon class="cls-9" points="355.22 279.79 354.98 279.02 361.33 277.09 361.57 277.87 355.22 279.79"/><polygon class="cls-9" points="353.99 275.93 353.74 275.16 360.09 273.23 360.34 274 353.99 275.93"/><polygon class="cls-9" points="351.26 267.43 351.02 266.66 357.37 264.73 357.62 265.5 351.26 267.43"/><polygon class="cls-9" points="350.03 263.57 349.78 262.8 356.13 260.87 356.38 261.64 350.03 263.57"/><polygon class="cls-9" points="348.79 259.7 348.54 258.93 354.89 257 355.14 257.78 348.79 259.7"/><polygon class="cls-9" points="347.55 255.84 347.3 255.07 353.66 253.14 353.9 253.91 347.55 255.84"/><polygon class="cls-9" points="344.83 247.34 344.58 246.57 350.93 244.64 351.18 245.41 344.83 247.34"/><polygon class="cls-9" points="343.59 243.48 343.34 242.71 349.7 240.78 349.94 241.55 343.59 243.48"/><polygon class="cls-9" points="342.36 239.62 342.11 238.84 348.46 236.92 348.71 237.69 342.36 239.62"/><polygon class="cls-9" points="341.12 235.75 340.87 234.98 347.22 233.05 347.47 233.83 341.12 235.75"/><polygon class="cls-23" points="375.31 353.38 374.81 351.83 384.34 348.94 384.84 350.49 375.31 353.38"/><polygon class="cls-23" points="368.88 333.29 368.38 331.75 377.91 328.86 378.4 330.4 368.88 333.29"/><polygon class="cls-23" points="362.44 313.2 361.95 311.66 371.47 308.77 371.97 310.31 362.44 313.2"/><polygon class="cls-23" points="356.01 293.12 355.51 291.57 365.04 288.68 365.53 290.23 356.01 293.12"/><polygon class="cls-9" points="349.57 273.03 349.08 271.48 358.6 268.59 359.1 270.14 349.57 273.03"/><polygon class="cls-9" points="343.14 252.94 342.64 251.4 352.17 248.51 352.67 250.05 343.14 252.94"/><polygon class="cls-9" points="336.7 232.85 336.21 231.31 345.74 228.42 346.23 229.96 336.7 232.85"/><path class="cls-24" d="M378,231.15l-19.47,112a12.42,12.42,0,0,0,10.42,14.28l125.49,20.67a12.69,12.69,0,0,0,14.67-10.14l19.47-112a12.43,12.43,0,0,0-10.42-14.28L392.64,221A12.69,12.69,0,0,0,378,231.15"/><path class="cls-25" d="M378,231.15l-4.25,24.42L524.3,280.38,528.55,256a12.43,12.43,0,0,0-10.42-14.28L392.64,221A12.69,12.69,0,0,0,378,231.15"/><path class="cls-26" d="M422.05,234.3a6.35,6.35,0,0,0-7.34,5.07,6.21,6.21,0,0,0,5.21,7.14,6.35,6.35,0,0,0,7.34-5.07,6.22,6.22,0,0,0-5.21-7.14"/><path class="cls-27" d="M421.56,218.51l-3.18,18.32a3.09,3.09,0,0,0,2.6,3.57,3.17,3.17,0,0,0,3.67-2.53l3.19-18.32a3.11,3.11,0,0,0-2.61-3.57,3.18,3.18,0,0,0-3.67,2.53"/><path class="cls-26" d="M453,239.4a6.35,6.35,0,0,0-7.34,5.07,6.22,6.22,0,0,0,5.21,7.14,6.35,6.35,0,0,0,7.34-5.07A6.21,6.21,0,0,0,453,239.4"/><path class="cls-27" d="M452.52,223.61l-3.19,18.32a3.1,3.1,0,0,0,2.61,3.57A3.16,3.16,0,0,0,455.6,243l3.19-18.32a3.1,3.1,0,0,0-2.61-3.57,3.16,3.16,0,0,0-3.66,2.53"/><path class="cls-26" d="M484,244.5a6.34,6.34,0,0,0-7.33,5.07,6.21,6.21,0,0,0,5.21,7.14,6.34,6.34,0,0,0,7.33-5.07A6.2,6.2,0,0,0,484,244.5"/><path class="cls-27" d="M483.47,228.71,480.28,247a3.11,3.11,0,0,0,2.61,3.57,3.18,3.18,0,0,0,3.67-2.53l3.18-18.32a3.09,3.09,0,0,0-2.6-3.57,3.17,3.17,0,0,0-3.67,2.53"/><path class="cls-28" d="M390.55,272.61l-2,11.4a3.72,3.72,0,0,0,3.12,4.29l11.72,1.93a3.81,3.81,0,0,0,4.4-3.05l2-11.4a3.73,3.73,0,0,0-3.13-4.28L395,269.57a3.81,3.81,0,0,0-4.4,3"/><path class="cls-28" d="M421.5,277.71l-2,11.4a3.74,3.74,0,0,0,3.13,4.29l11.71,1.93a3.81,3.81,0,0,0,4.4-3.05l2-11.4a3.71,3.71,0,0,0-3.12-4.28l-11.72-1.93a3.81,3.81,0,0,0-4.4,3"/><path class="cls-28" d="M452.46,282.81l-2,11.4a3.74,3.74,0,0,0,3.13,4.29l11.71,1.93a3.81,3.81,0,0,0,4.4-3.05l2-11.4a3.73,3.73,0,0,0-3.13-4.28l-11.71-1.93a3.81,3.81,0,0,0-4.4,3"/><path class="cls-29" d="M483.41,289.17l-2,11.4a3.71,3.71,0,0,0,3.12,4.28l11.71,1.93a3.82,3.82,0,0,0,4.41-3l2-11.4a3.73,3.73,0,0,0-3.13-4.28l-11.71-1.93a3.8,3.8,0,0,0-4.4,3"/><path class="cls-28" d="M386.16,297.85l-2,11.4a3.72,3.72,0,0,0,3.12,4.29L399,315.47a3.81,3.81,0,0,0,4.4-3.05l2-11.4a3.73,3.73,0,0,0-3.13-4.28l-11.71-1.93a3.81,3.81,0,0,0-4.4,3"/><path class="cls-28" d="M417.11,303l-2,11.4a3.74,3.74,0,0,0,3.13,4.29L430,320.57a3.81,3.81,0,0,0,4.4-3.05l2-11.4a3.73,3.73,0,0,0-3.12-4.28l-11.72-1.93a3.81,3.81,0,0,0-4.4,3"/><path class="cls-28" d="M448.07,308.05l-2,11.4a3.74,3.74,0,0,0,3.13,4.29l11.71,1.93a3.81,3.81,0,0,0,4.4-3.05l2-11.4a3.73,3.73,0,0,0-3.13-4.28L452.47,305a3.81,3.81,0,0,0-4.4,3"/><path class="cls-29" d="M479,314.41l-2,11.4a3.71,3.71,0,0,0,3.12,4.28L491.87,332a3.82,3.82,0,0,0,4.41-3l2-11.4a3.73,3.73,0,0,0-3.13-4.28l-11.71-1.93a3.8,3.8,0,0,0-4.4,3"/><path class="cls-28" d="M381.77,323.09l-2,11.4a3.72,3.72,0,0,0,3.12,4.29l11.72,1.93a3.81,3.81,0,0,0,4.4-3l2-11.4a3.73,3.73,0,0,0-3.13-4.28l-11.71-1.93a3.81,3.81,0,0,0-4.4,3"/><path class="cls-28" d="M412.72,328.19l-2,11.4a3.74,3.74,0,0,0,3.13,4.29l11.71,1.93a3.81,3.81,0,0,0,4.4-3.05l2-11.4a3.73,3.73,0,0,0-3.12-4.28l-11.72-1.93a3.81,3.81,0,0,0-4.4,3"/><path class="cls-28" d="M443.67,333.29l-2,11.4a3.74,3.74,0,0,0,3.13,4.29l11.71,1.93a3.81,3.81,0,0,0,4.4-3.05l2-11.4a3.73,3.73,0,0,0-3.13-4.28l-11.71-1.93a3.82,3.82,0,0,0-4.41,3"/><path class="cls-29" d="M474.63,338.39l-2,11.4a3.72,3.72,0,0,0,3.12,4.29L487.48,356a3.82,3.82,0,0,0,4.41-3.05l2-11.4a3.73,3.73,0,0,0-3.13-4.28L479,335.35a3.81,3.81,0,0,0-4.4,3"/><path class="cls-30" d="M375.22,246.76a2.74,2.74,0,0,1,3.18-2.19L523.29,269a2.68,2.68,0,0,1,2.26,3.09,2.75,2.75,0,0,1-3.18,2.2l-144.89-24.4a2.69,2.69,0,0,1-2.27-3.08Z"/><g class="cls-31"><g class="cls-32"><path class="cls-33" d="M238.29,312.58l-9.12,1.59.72,3.9-2.54.45a1.26,1.26,0,0,0-1,1.45l.06.3a1.28,1.28,0,0,0,1.49,1l2.54-.44.8,4.4-2.53.44a1.25,1.25,0,0,0-1,1.45l.06.31a1.28,1.28,0,0,0,1.49,1l2.53-.44.81,4.39-2.54.44a1.26,1.26,0,0,0-1,1.45l.06.31a1.28,1.28,0,0,0,1.49,1l2.54-.44.8,4.4-2.53.44a1.26,1.26,0,0,0-1,1.45l.06.3a1.27,1.27,0,0,0,1.49,1l2.53-.44.81,4.4-2.53.44a1.25,1.25,0,0,0-1,1.45l0,.31a1.28,1.28,0,0,0,1.49,1l2.54-.44.81,4.39-2.54.44a1.27,1.27,0,0,0-1,1.45l.06.31a1.28,1.28,0,0,0,1.49,1l2.53-.44.81,4.4-2.53.44a1.25,1.25,0,0,0-1,1.45l.06.31a1.29,1.29,0,0,0,1.49,1l2.53-.45.81,4.4-2.54.44a1.26,1.26,0,0,0-1,1.45l.06.31a1.28,1.28,0,0,0,1.49,1l2.54-.44.8,4.39-2.53.44a1.26,1.26,0,0,0-1,1.45l.06.31a1.28,1.28,0,0,0,1.49,1l2.53-.44.81,4.4-2.54.44a1.25,1.25,0,0,0-1,1.45l.05.31a1.28,1.28,0,0,0,1.49,1l2.54-.44.81,4.39-2.54.44a1.26,1.26,0,0,0-1,1.45l.06.31a1.28,1.28,0,0,0,1.49,1l2.53-.44.81,4.4-2.53.44a1.25,1.25,0,0,0-1,1.45l.05.31a1.28,1.28,0,0,0,1.49,1l2.54-.44.81,4.4-2.54.44a1.26,1.26,0,0,0-1,1.45l.06.31a1.28,1.28,0,0,0,1.49,1l2.54-.44.8,4.4-2.53.44a1.26,1.26,0,0,0-1,1.45l.06.3a1.28,1.28,0,0,0,1.49,1l2.53-.44.81,4.4-2.54.44a1.24,1.24,0,0,0-1,1.45l0,.31a1.28,1.28,0,0,0,1.49,1l2.54-.45.81,4.4-2.54.44a1.26,1.26,0,0,0-1,1.45l.06.31a1.28,1.28,0,0,0,1.49,1l2.53-.44.81,4.4-2.53.44a1.25,1.25,0,0,0-1,1.45l0,.31a1.28,1.28,0,0,0,1.49,1l2.54-.44.91,4.93,9.11-1.58,189.48-33L427.76,279.62Z"/></g></g><polygon class="cls-34" points="447.85 403.5 249.25 438.05 226.07 311.82 424.67 277.27 447.85 403.5"/><polygon class="cls-33" points="258.38 436.46 249.26 438.05 226.07 311.82 235.19 310.24 258.38 436.46"/><path class="cls-35" d="M231.63,316.47a1.26,1.26,0,0,1-1,1.45l-5.83,1a1.29,1.29,0,0,1-1.49-1l-.06-.31a1.26,1.26,0,0,1,1-1.45l5.83-1a1.29,1.29,0,0,1,1.49,1Z"/><path class="cls-35" d="M232.94,323.64a1.24,1.24,0,0,1-1,1.44l-5.83,1a1.28,1.28,0,0,1-1.49-1l-.06-.31a1.25,1.25,0,0,1,1-1.45l5.83-1a1.28,1.28,0,0,1,1.49,1Z"/><path class="cls-35" d="M234.26,330.8a1.26,1.26,0,0,1-1,1.45l-5.83,1a1.28,1.28,0,0,1-1.49-1l-.06-.3a1.26,1.26,0,0,1,1-1.45l5.83-1a1.28,1.28,0,0,1,1.49,1Z"/><path class="cls-35" d="M235.58,338a1.26,1.26,0,0,1-1,1.45l-5.83,1a1.28,1.28,0,0,1-1.49-1l-.06-.31a1.25,1.25,0,0,1,1-1.45l5.83-1a1.28,1.28,0,0,1,1.49,1Z"/><path class="cls-35" d="M236.89,345.13a1.25,1.25,0,0,1-1,1.45l-5.83,1a1.28,1.28,0,0,1-1.49-1l-.05-.31a1.25,1.25,0,0,1,1-1.45l5.84-1a1.27,1.27,0,0,1,1.48,1Z"/><path class="cls-35" d="M238.21,352.29a1.26,1.26,0,0,1-1,1.45l-5.83,1a1.27,1.27,0,0,1-1.49-1l-.06-.31a1.26,1.26,0,0,1,1-1.45l5.83-1a1.28,1.28,0,0,1,1.49,1Z"/><path class="cls-35" d="M239.52,359.45a1.25,1.25,0,0,1-1,1.45l-5.84,1a1.28,1.28,0,0,1-1.49-1l0-.31a1.25,1.25,0,0,1,1-1.45l5.83-1a1.28,1.28,0,0,1,1.49,1Z"/><path class="cls-35" d="M240.84,366.62a1.26,1.26,0,0,1-1,1.45l-5.83,1a1.28,1.28,0,0,1-1.49-1l-.06-.31a1.25,1.25,0,0,1,1-1.44l5.83-1a1.28,1.28,0,0,1,1.49,1Z"/><path class="cls-35" d="M242.16,373.78a1.26,1.26,0,0,1-1,1.45l-5.83,1a1.27,1.27,0,0,1-1.49-1l-.06-.31a1.25,1.25,0,0,1,1-1.45l5.83-1a1.29,1.29,0,0,1,1.49,1Z"/><path class="cls-35" d="M243.47,381a1.25,1.25,0,0,1-1,1.45l-5.84,1a1.28,1.28,0,0,1-1.49-1l-.05-.31a1.25,1.25,0,0,1,1-1.45l5.83-1a1.29,1.29,0,0,1,1.49,1Z"/><path class="cls-35" d="M244.79,388.12a1.25,1.25,0,0,1-1,1.44l-5.83,1a1.28,1.28,0,0,1-1.49-1l-.06-.31a1.26,1.26,0,0,1,1-1.45l5.83-1a1.28,1.28,0,0,1,1.49,1Z"/><path class="cls-35" d="M246.1,395.28a1.25,1.25,0,0,1-1,1.45l-5.83,1a1.28,1.28,0,0,1-1.49-1l-.06-.3a1.25,1.25,0,0,1,1-1.45l5.83-1a1.28,1.28,0,0,1,1.49,1Z"/><path class="cls-35" d="M247.42,402.44a1.25,1.25,0,0,1-1,1.45l-5.83,1a1.28,1.28,0,0,1-1.49-1l-.06-.31a1.26,1.26,0,0,1,1-1.45l5.83-1a1.27,1.27,0,0,1,1.49,1Z"/><path class="cls-35" d="M248.74,409.61a1.26,1.26,0,0,1-1,1.45l-5.83,1a1.28,1.28,0,0,1-1.49-1l-.06-.31a1.25,1.25,0,0,1,1-1.45l5.83-1a1.28,1.28,0,0,1,1.49,1Z"/><path class="cls-35" d="M250.05,416.77a1.25,1.25,0,0,1-1,1.45l-5.83,1a1.28,1.28,0,0,1-1.49-1l-.05-.31a1.24,1.24,0,0,1,1-1.45l5.84-1a1.27,1.27,0,0,1,1.48,1Z"/><path class="cls-35" d="M251.37,423.93a1.26,1.26,0,0,1-1,1.45l-5.83,1a1.28,1.28,0,0,1-1.49-1l-.06-.31a1.26,1.26,0,0,1,1-1.45l5.83-1a1.28,1.28,0,0,1,1.49,1Z"/><path class="cls-35" d="M252.68,431.1a1.25,1.25,0,0,1-1,1.45l-5.84,1a1.28,1.28,0,0,1-1.49-1l0-.31a1.26,1.26,0,0,1,1-1.45l5.83-1a1.28,1.28,0,0,1,1.49,1Z"/><path class="cls-36" d="M421.34,297.66l0-.25-8.36,1.46-2.76-15.05-.26.05,2.77,15-14.27,2.48-2.77-15-.25,0,2.76,15-14.27,2.48-2.76-15-.25,0,2.76,15-14.27,2.49-2.77-15-.25,0,2.76,15L354.83,309l-2.76-15-.25.05,2.76,15-14.27,2.48-2.76-15-.26,0,2.77,15L325.79,314,323,299l-.25,0,2.76,15-14.27,2.48-2.76-15-.25.05,2.76,15-14.27,2.48L294,304l-.26,0,2.77,15.05-14.27,2.48-2.77-15-.25,0,2.76,15-14.27,2.48-2.76-15-.25.05,2.76,15-14.27,2.48-2.76-15-.26,0,2.77,15L245.39,328l0,.24L253,327l2.69,14.64-7.53,1.31,0,.25,7.53-1.31,2.69,14.64-7.53,1.31,0,.25,7.53-1.31,2.69,14.64-7.53,1.31,0,.24,7.52-1.31,2.69,14.64-7.52,1.31,0,.25,7.53-1.31,2.69,14.64-7.53,1.31.05.24,7.52-1.3L269.32,416l-7.52,1.31,0,.24,7.53-1.31,2.35,12.78.25,0-2.35-12.78,14.27-2.49,2.35,12.79.25,0-2.35-12.78,14.27-2.48L300.76,424,301,424l-2.35-12.78,14.27-2.48,2.35,12.78.25,0-2.35-12.78,14.27-2.49,2.35,12.78.25,0-2.34-12.78L342,403.64l2.34,12.78.26-.05-2.35-12.78,14.27-2.48,2.35,12.78.25,0-2.35-12.78L371,398.58l2.35,12.78.25,0-2.34-12.78,14.27-2.48,2.34,12.78.26,0L385.81,396l14.27-2.48,2.35,12.78.25,0-2.35-12.78L414.6,391,417,403.78l.25,0L414.86,391l14.27-2.48,2.35,12.78.25-.05-2.35-12.78,8.36-1.45,0-.25-8.36,1.45-2.69-14.64,8.36-1.45-.05-.25-8.36,1.46-2.69-14.64,8.37-1.46,0-.24-8.36,1.45-2.69-14.64,8.36-1.45,0-.25-8.37,1.46-2.69-14.64,8.37-1.46-.05-.25-8.36,1.46L415.71,314l8.36-1.46,0-.24-8.37,1.45L413,299.11Zm-23.14,4,2.69,14.64-14.27,2.49-2.69-14.64Zm-35.42,52-14.27,2.48-2.69-14.64L360.09,339ZM360.35,339l14.27-2.48,2.69,14.64L363,353.63Zm-12.09,17.22L334,358.69l-2.69-14.64,14.27-2.48Zm-14.52,2.52-14.27,2.48-2.69-14.64,14.27-2.48Zm-14.53,2.53-14.27,2.48-2.69-14.64,14.27-2.48Zm-14.52,2.53-14.27,2.48-2.69-14.64L302,349.15Zm.05.24,2.68,14.64-14.27,2.48-2.68-14.64Zm.25,0,14.27-2.49L322,376.14l-14.27,2.49Zm14.52-2.53L333.78,359l2.69,14.64L322.2,376.1ZM334,358.93l14.26-2.48L351,371.09l-14.27,2.48Zm14.52-2.52,14.27-2.49,2.69,14.64-14.27,2.49Zm14.52-2.53,14.27-2.48L380,366l-14.27,2.48Zm14.53-2.53,14.27-2.48,2.69,14.64L380.29,366Zm-.05-.24-2.69-14.64L389.14,334l2.69,14.64Zm-2.73-14.89-2.69-14.64,14.27-2.48,2.69,14.64Zm-.26,0-14.27,2.49-2.69-14.64,14.27-2.49Zm-14.52,2.53-14.27,2.49-2.69-14.65,14.27-2.48Zm-14.53,2.53-14.26,2.48-2.69-14.64,14.27-2.48ZM331,343.85l-14.27,2.48L314,331.69l14.27-2.48Zm-14.52,2.52-14.27,2.49-2.69-14.65,14.27-2.48ZM302,348.9l-14.27,2.48L285,336.74l14.27-2.48Zm-14.53,2.53-14.27,2.48-2.69-14.64,14.27-2.48Zm.05.24,2.69,14.64L275.9,368.8l-2.69-14.64Zm2.73,14.89,2.69,14.64-14.27,2.48L275.94,369ZM293,381.44l2.69,14.65-14.27,2.48-2.69-14.64Zm.25,0,14.27-2.48,2.69,14.64L295.89,396Zm14.52-2.53L322,376.39,324.68,391l-14.27,2.48Zm14.53-2.52,14.27-2.49,2.69,14.64L324.94,391Zm14.52-2.53L351,371.34,353.73,386l-14.27,2.48Zm14.52-2.53,14.27-2.48,2.69,14.64L354,385.93Zm14.53-2.52,14.27-2.49,2.69,14.64-14.27,2.49Zm14.52-2.53,14.27-2.48,2.69,14.64L383,380.88Zm14.52-2.53,14.28-2.48,2.68,14.64-14.27,2.48Zm0-.24-2.69-14.64,14.27-2.49L409.09,361Zm-2.74-14.89-2.68-14.64,14.27-2.48,2.69,14.64Zm-2.73-14.89-2.69-14.64,14.27-2.48,2.69,14.64Zm-5.68-29.48,2.69,14.64-14.27,2.48-2.69-14.64Zm-14.52,2.53,2.69,14.64-14.27,2.48-2.69-14.64Zm-14.52,2.52,2.68,14.64L343,326.39l-2.69-14.64Zm-14.53,2.53,2.69,14.64-14.27,2.48-2.69-14.64Zm-14.52,2.53L328.27,329,314,331.44l-2.69-14.64Zm-14.52,2.52,2.68,14.65L299.47,334l-2.68-14.64Zm-14.53,2.53L299.22,334,285,336.5l-2.69-14.65ZM282,321.9l2.69,14.64L270.43,339l-2.69-14.64Zm-28.8,5,14.27-2.48,2.69,14.64-14.27,2.48ZM256,341.8l14.27-2.49L272.91,354l-14.27,2.49Zm2.73,14.88L273,354.2l2.69,14.64-14.27,2.48Zm2.74,14.89,14.27-2.48,2.69,14.64-14.27,2.48Zm2.73,14.88L278.42,384l2.69,14.64-14.27,2.48ZM269.58,416l-2.69-14.64,14.27-2.48,2.69,14.64Zm14.52-2.53-2.69-14.64,14.27-2.48L298.37,411Zm14.52-2.52-2.69-14.64,14.27-2.49,2.69,14.64Zm14.53-2.53-2.69-14.64,14.27-2.48,2.69,14.64Zm14.52-2.53L325,391.23l14.27-2.48,2.69,14.64Zm14.52-2.52-2.69-14.64,14.27-2.49,2.69,14.64Zm14.53-2.53L354,386.18l14.27-2.48L371,398.34Zm14.52-2.53-2.69-14.64,14.27-2.48,2.69,14.64Zm14.52-2.52-2.69-14.64,14.28-2.49L400,393.28Zm14.53-2.53L397.6,378.6l14.27-2.48,2.69,14.64Zm28.79-5-14.27,2.48-2.69-14.64,14.27-2.48Zm-2.73-14.89-14.27,2.49-2.69-14.64,14.27-2.49Zm-2.74-14.88-14.27,2.48-2.69-14.64,14.27-2.48Zm-2.73-14.89-14.27,2.48-2.69-14.64,14.27-2.48Zm-2.74-14.89-14.27,2.49-2.69-14.64L415.46,314Zm-2.73-14.88-14.27,2.48-2.69-14.64,14.27-2.48Z"/><polygon class="cls-37" points="398.69 416.74 392.12 423.73 247.02 294.61 253.58 287.62 398.69 416.74"/><polygon class="cls-37" points="405.26 409.75 398.69 416.74 253.58 287.62 260.15 280.63 405.26 409.75"/><polygon class="cls-37" points="411.82 402.76 405.26 409.75 260.15 280.63 266.72 273.64 411.82 402.76"/><path class="cls-38" d="M241.42,271.28l5.6,23.33s7.66-3.4,12.33-8.43,7.37-12.54,7.37-12.54l-24.34-3.42A.86.86,0,0,0,241.42,271.28Z"/><path class="cls-39" d="M241.42,271.28l2.1,8.74c3.76-.15,8.53-5.75,8.35-8.47l-9.48-1.34A.87.87,0,0,0,241.42,271.28Z"/><polygon class="cls-40" points="425.07 414.54 405.37 435.51 392.12 423.73 411.82 402.76 425.07 414.54"/><path class="cls-41" d="M425.67,434.33h0c-5.44,5.79-12.94,7.73-16.76,4.33l-3.54-3.15,19.7-21,3.54,3.15c3.82,3.4,2.5,10.85-2.94,16.64"/><polygon class="cls-42" points="425.07 414.54 405.37 435.51 402.3 432.78 422 411.81 425.07 414.54"/><polygon class="cls-42" points="419.3 409.41 399.6 430.38 396.53 427.65 416.23 406.68 419.3 409.41"/><polygon class="cls-42" points="413.54 404.28 393.84 425.25 390.77 422.52 410.46 401.55 413.54 404.28"/><path class="cls-43" d="M425.67,434.33h0L415.22,425l9.85-10.49,3.54,3.15c3.82,3.4,2.5,10.85-2.94,16.64"/><polygon class="cls-44" points="397.08 393.22 398.11 405.73 406.9 512.59 532.76 425.89 524.09 320.48 397.08 393.22"/><polygon class="cls-29" points="397.08 393.22 464.36 439.73 589.21 353.11 524.09 320.48 397.08 393.22"/><polygon class="cls-20" points="218.31 478.5 406.9 512.59 398.11 405.73 397.08 393.22 208.93 364.64 218.31 478.5"/><path class="cls-12" d="M310.88,446.68c-8.72-1.3-17.88,2.14-17.88,2.14s-26.74-16.91-29.21-16.25-9.82,12.92-9,15,24.93,15.07,24.93,15.07,10.2,10.79,19.19,18.27,21.77,12.21,25.3,13.37,9.53,4.53,10.91,2c1.17-2.15-12.44-8.85-16.32-10.8-.69-.34.47-1.16.47-1.16s22.13,10.63,26.8,11.52,6.57,0,5.46-2c-1.74-3.26-28.11-15.67-28.11-15.67s-.34-1.25.37-1c5.5,2.05,30.83,11.67,33.86,10.54,2.77-1,.61-4.12-4-6.66-3.28-1.8-22.75-9.35-27.21-11-.6-.22.13-1.22.13-1.22s20.51,8.44,27,7.15c4.18-.83,1-3.55-3.23-6.07A141.1,141.1,0,0,0,335,464c-7.63-2.54-18.18-7.09-16.38-7.43,1-.18,1.36-.25,6,1.34,4.28,1.47,13.34,3.15,12.71-.35-.52-2.84-18.61-9.7-26.44-10.87"/><path class="cls-12" d="M175.22,402.11c9.05,15.87,104.93,61.37,104.93,61.37l11.24-14.88s-66.42-58.17-76.5-64.79-31.57-16.85-37.18-7.92-6.59,19-2.49,26.22"/><polygon class="cls-29" points="168.22 418.83 357.98 453.2 397.08 393.22 208.93 364.64 168.22 418.83"/></g><path class="cls-45" d="M791.17,185.29C787.45,187,723.4,326.23,721,332.45c-12.77,32.71-24.82,47.72,2,60.76,12,5.84,28.74-22.64,28.74-22.64s52.36-67,61.24-77.77,13.3-71.41,7.63-91.5-25.72-17.74-29.43-16"/><path class="cls-36" d="M788.41,525.13l12.08-59.31L975.34,479c.93,9.89,1.42,25.74,1.42,25.74C940.33,526.53,861.84,548.42,788.41,525.13Z"/><path class="cls-46" d="M878.82,507.54c.26-6.1.61-12.19,1-18.29s.82-12.18,1.23-18.27l0-.49.49,0c3.11.2,6.22.46,9.33.7l.49,0,0,.48c-.61,5.38-.89,10.79-1.34,16.21a35.16,35.16,0,0,1-.54,4.07,5.84,5.84,0,0,1-1.93,3.66,6.78,6.78,0,0,1-4,1,32.46,32.46,0,0,1-4.07-.24c1.36.05,2.72.09,4.06,0a6.53,6.53,0,0,0,3.74-1.1,5.59,5.59,0,0,0,1.64-3.45,33.21,33.21,0,0,0,.42-4c.16-2.7.23-5.42.42-8.13s.38-5.42.65-8.13l.44.52c-3.12-.22-6.23-.42-9.34-.67l.52-.45c-.5,6.08-.92,12.17-1.47,18.25s-1.07,12.17-1.71,18.24"/><path class="cls-47" d="M723,393.21c12,5.84,28.74-22.63,28.74-22.63s52.36-67,61.24-77.78,3.27-55.43-2.4-75.53Z"/><path class="cls-45" d="M808.1,387.69c0,6.48-8.07,79.58-8.07,79.58l132.44,8.64,42.81,3.74s7.15-83.8,7.51-88.59c.84-11.14,19.52-191.71,14.28-197.4s-77.33-16.28-102.38-17.08-98.92,4.59-103.19,8.74S797.7,255,802,282.09c6.27,39.91,6.14,96.38,6.14,105.6"/><path class="cls-47" d="M917.37,474.92l57.91,4.73s7.15-83.8,7.51-88.59c.84-11.14,22-197,14.28-197.4-30.25-1.35-8.92,167.91-79.7,281.26"/><path class="cls-48" d="M997.34,193c10.62,8.11,40.13,139.82,40.89,166.28.68,23.61-9.28,32.45-19.18,34.25-11.9,2.16-25.75-17-25.75-17S967.86,303,964.5,289.44s-4.19-63.88,9.61-79.55,20-19.35,23.23-16.87"/><path class="cls-49" d="M926.28,111c-5.73,20-16,14.58-16,14.58-6.85,9.13.35,46,.35,46s-7.28,10.55-23.4,13.39-17.2-6.25-17.2-6.25-1-16.42-3.18-18.68-32.87,8-41.61-1.26-16.41-62.61-15.54-78.86c1.19-22.39,32.06-44.62,52.58-46.88s39.91,3.78,47.83,19.33c5.22,10.28,2.79,40.1,2.79,40.1,11.28-12.69,15.84,9.9,13.37,18.54"/><path class="cls-9" d="M867.76,104.12A102.71,102.71,0,0,1,878,99.69c3.46-1.34,7-2.53,10.5-3.64s7.1-2.12,10.7-3a103.17,103.17,0,0,1,11-2.2,102.71,102.71,0,0,1-10.26,4.43c-3.46,1.33-7,2.53-10.5,3.63s-7.1,2.13-10.71,3a105.05,105.05,0,0,1-11,2.21"/><path class="cls-50" d="M895.42,80.22c1.3,8.94,5.41,25.71,6.8,26.31.84.36,4.22-1.68,7-7.33s6.18-10.68,9.82-10.39a6,6,0,0,1,5,3.39.13.13,0,0,0,.24,0c1.61-3.29,17.3-36.29,7.55-49.64-10.28-14.06-29.36-10.08-29.36-10.08s-28-19.74-57.07-8.53c-19.73,7.61-40,29.85-45.68,53.77-2.19,13.93,61.67,4.69,94.55-15.84a.49.49,0,0,1,.75.46c-.48,5.23-1.14,7.42.39,17.87"/><path class="cls-9" d="M841,111a14.65,14.65,0,0,1,11.39-16.86,14.62,14.62,0,0,1,15.26,6.31,14.63,14.63,0,0,1,2,11.38A14.55,14.55,0,0,1,857.45,123,14.65,14.65,0,0,1,841,111m0,0a14.31,14.31,0,0,0,2,5.12,14,14,0,0,0,3.86,3.89,13.78,13.78,0,0,0,10.39,2,13.64,13.64,0,0,0-4.72-26.85,13.77,13.77,0,0,0-9.1,5.4,13.94,13.94,0,0,0-2.3,5A14.39,14.39,0,0,0,841,111"/><path class="cls-9" d="M807.76,115.89a13.7,13.7,0,0,1,10.61-15.76,13.66,13.66,0,0,1,14.3,5.88,14.32,14.32,0,0,1,2,5.14,14.11,14.11,0,0,1-.16,5.53,14,14,0,0,1-2.31,5,13.67,13.67,0,0,1-19.15,2.85,13.63,13.63,0,0,1-5.33-8.63m0,0a12.76,12.76,0,0,0,5.49,8.4,12.86,12.86,0,0,0,9.69,1.81,12.7,12.7,0,0,0-4.4-25,12.66,12.66,0,0,0-10.63,9.64,13.08,13.08,0,0,0-.15,5.14"/><path class="cls-51" d="M913.13,107.09c2-7.77,9.16-18.55,7.64-1s-9.65,8.8-7.64,1"/><path class="cls-52" d="M799.73,77.73c-2.19,13.93,61.67,4.69,94.56-15.84.34-.22-47,23.5-94.56,15.84"/><path class="cls-52" d="M924.05,92.2a.13.13,0,0,0,.24,0c1.61-3.29,17.3-36.29,7.55-49.64-10.28-14.06-29.36-10.08-29.36-10.08s46.31-4.35,21.57,59.71"/><path class="cls-53" d="M878.76,246.15l-3.82-.28a2.17,2.17,0,0,1-2-2.31l4.31-58.37,8.11.6-4.31,58.37a2.15,2.15,0,0,1-2.3,2"/><path class="cls-47" d="M867.27,164.85l-5.91,10.38a1.92,1.92,0,0,0-.16,1.52s8.23,22.81,6.75,30.87,11.6-22.07,11.6-22.07a1.88,1.88,0,0,0-.11-1.68l-11.14-19a.6.6,0,0,0-1,0"/><path class="cls-47" d="M884.26,185l26.82-20.35a1.07,1.07,0,0,1,1.6.36l6.55,12.32a1.41,1.41,0,0,1-.19,1.59s-23.5,22.82-24.87,30.76-10.37-23-10.37-23a1.43,1.43,0,0,1,.46-1.65"/><path class="cls-51" d="M847.49,162.17s43.2-4.84,50.94-13.18Z"/><path class="cls-47" d="M883.45,210.25A4,4,0,1,1,879.8,206a4,4,0,0,1,3.65,4.23"/><path class="cls-47" d="M881.75,233.24A4,4,0,1,1,878.1,229a3.94,3.94,0,0,1,3.65,4.23"/><path class="cls-54" d="M883.45,210.25a4,4,0,0,1-4.23,3.65c1.61-1.25,5.3-5.35.58-7.88a4,4,0,0,1,3.65,4.23"/><path class="cls-54" d="M881.75,233.24a3.94,3.94,0,0,1-4.23,3.64c1.61-1.25,5.31-5.35.58-7.87a4,4,0,0,1,3.65,4.23"/><path class="cls-55" d="M685.63,259.29c12.8-9,12.12-28.4,17.52-25.43,8.1,4.46-3,28.08-3,28.08Z"/><path class="cls-56" d="M828.84,216.45A129.72,129.72,0,1,1,678.53,321.63,129.73,129.73,0,0,1,828.84,216.45"/><g class="cls-57"><g class="cls-58"><path d="M795.27,451.81c-68.41-12.08-118.87-65.34-106.79-133.75a125.56,125.56,0,0,1,64.28-88.9,125.8,125.8,0,0,0,31.87,237.61c29,5.12,88.64-7.62,113.31-35-16.87,18.69-76,24.72-102.67,20"/></g></g><path class="cls-29" d="M720.29,329h0a4.33,4.33,0,0,1-5,3.51l-16.64-2.94a4.33,4.33,0,1,1,1.51-8.52L716.78,324a4.33,4.33,0,0,1,3.51,5"/><path class="cls-29" d="M917.25,363.79h0a4.32,4.32,0,0,1-5,3.51l-16.64-2.93a4.33,4.33,0,1,1,1.51-8.53l16.63,2.94a4.32,4.32,0,0,1,3.51,5"/><path class="cls-29" d="M790.64,429.83h0a4.35,4.35,0,0,1,3.51,5l-2.94,16.64a4.33,4.33,0,1,1-8.53-1.51l2.94-16.64a4.34,4.34,0,0,1,5-3.51"/><path class="cls-29" d="M825.38,233.13h0a4.32,4.32,0,0,1,3.51,5L826,254.78a4.33,4.33,0,1,1-8.52-1.5l2.94-16.64a4.32,4.32,0,0,1,5-3.51"/><path class="cls-25" d="M807.43,334.39a10.23,10.23,0,1,1-11.86,8.29,10.24,10.24,0,0,1,11.86-8.29"/><path class="cls-25" d="M864.57,377.2h0a2.94,2.94,0,0,1-4,1.13l-53.24-29.72a2.95,2.95,0,1,1,2.87-5.15l53.24,29.73a3,3,0,0,1,1.14,4"/><path class="cls-25" d="M830.23,299.88h0a3,3,0,0,1,1.22,4L809.06,346a2.95,2.95,0,1,1-5.2-2.77l22.38-42.12a3,3,0,0,1,4-1.22"/><path class="cls-7" d="M777.49,274.07l27.84,70.72a.66.66,0,0,1-1.22.48l-27.84-70.72a.65.65,0,0,1,.37-.85.67.67,0,0,1,.85.37"/><path class="cls-7" d="M804.29,342a2.94,2.94,0,1,1-1.66,3.81,2.94,2.94,0,0,1,1.66-3.81"/><path class="cls-25" d="M942,368.17c-13.22,74.84-84.87,125-159.71,111.75s-125-84.86-111.75-159.7,84.86-125,159.7-111.76,125,84.87,111.76,159.71M686.52,323a121.61,121.61,0,1,0,140.91-98.61A121.74,121.74,0,0,0,686.52,323"/><path class="cls-49" d="M677.9,265.45c-20,22.88,6,32.28,11.05,35s9.83,4.7,11.37,1.76c2.61-5-12.36-13.11-17-16.36-.9-.63.17-.81.17-.81s12.2,6.39,17.57,10.5c4.73,3.62,9.81,7.49,13.64,5s2.89-5.38-9-13.91c-10.56-7.57-17.16-10-17.16-10s-.77-1.24,1-.81c3.12.75,11.36,4,19.17,9.91,8.77,6.62,11.29,14.64,17.31,10.64,4.07-2.71-2.09-10.82-10.35-17.67-5.05-4.19-20.61-12.27-21.67-12.59-1.54-.47-.57-.9-.57-.9A88.5,88.5,0,0,1,713.09,273c9.46,5.27,12.17,13.46,18.39,10.79,7.18-3.08-3.33-13.93-11.32-18.88-6.52-4-27.38-16.41-42.26.59"/><path class="cls-49" d="M840.33,359.94c5.15,3.73,21.72,18.17,21.72,18.17s37.87-3.39,40-1.3.64,16.9-1.41,18.54S862,397.42,862,397.42s-14.15,6.2-27.46,8.53A81.11,81.11,0,0,1,806,406c-4.21-.86-12.19-2.95-12.11-6.27.06-2.87,18.29-1.27,22.94-1,.72,0,.25-.73.25-.73s-28.19-2.32-33.38-4.1-7.14-4.63-4.84-6.07c3.16-2,30.17.56,36.71,1.05,1,.07.46-.61.46-.61s-37.09-5.95-39.9-9.47,2.13-6.66,8.22-6.56c3.56.06,27.27,4.68,33.57,5.68,1,.17.34-.81.34-.81S789,371.7,787.13,368.8c-3.06-4.85.71-6.74,6.44-6.81a161.84,161.84,0,0,1,18.76,2.83c9.1,1.83,18.9,4.07,21,4.55s-1.37-2.54-5.29-6.61c-3.42-3.55-12.63-8.31-10.6-10.52,2.25-2.47,14.68,1.74,22.93,7.7"/><path class="cls-59" d="M902,376.81c2.11,2.08.64,16.9-1.41,18.54S862,397.42,862,397.42s-14.15,6.2-27.46,8.53A81.11,81.11,0,0,1,806,406c-4.21-.86,17.14-.76,37.86-6.93s56.07-24.35,58.17-22.26"/><path class="cls-48" d="M1011.74,396.27c-21,6.94-132.61,1.75-132.61,1.75a36.47,36.47,0,0,1-1.52-14.14,62.36,62.36,0,0,1,2.66-12s83.1-17,98.07-17.91,53.63-4.47,57.19,17.58c2.59,16.05-14,21.53-23.79,24.75"/><path class="cls-60" d="M902.15,401.51c-1.33,1-23-3.49-23-3.49a36.37,36.37,0,0,1-1.53-14.14,62.36,62.36,0,0,1,2.66-12s11.8-5.14,16.45-4.48,6.75,33.17,5.43,34.14"/><path class="cls-61" d="M1046.21,952.48a127.5,127.5,0,0,1,1.3,16.06c-89.81,41.48-171.84,16.4-171.84,16.4l18.87-61.77Z"/><path class="cls-8" d="M894.53,923.17,889,941.27C991.51,986.56,1047.27,963,1047.27,963l-.85-11.31Z"/><path class="cls-62" d="M927.33,682.75C888.18,673.06,839,723.9,824.5,727c-19.31,4.19-72.4,27.75-63.19,53.64,4.13,11.61,5.39,12.11,26.6,12.31S862.3,786.9,886,775.2c11.52-5.69,54.1-40.69,63.35-57.55s-11.8-32.37-22-34.9"/><path class="cls-62" d="M808.19,754.76c7-30.39-38.41-130-38.41-130L737,624s9,109.59,11.24,123.22,12.22,45.49,23.71,43.93,34.21-27.39,36.28-36.38"/><path class="cls-34" d="M906.55,874.19c-1.3,14.84-12,49-12,49s42,19.3,72.25,25.15,79.42,4.16,79.42,4.16,3.6-40.13,6-50.64c2.55-11.26,29.75-54.88,44.26-101.39,12-38.37,25-81.52,22-82.62-10.32-3.73-50.67-24-78.78-31.48-6.31-1.68-43.69-8.51-47.84-9.31-22.67-4.38-64.43,2.73-68.91,5.89s-22.54,60.68-22.62,86c-.11,37.21,8.13,84.19,6.29,105.29"/><path class="cls-63" d="M984.38,676.25c-12.45,10.4,30.73,56.14,63.89,12.66"/><path class="cls-64" d="M966.81,948.16c30.23,5.84,79.42,4.16,79.42,4.16s3.61-40.13,6-50.64c2.55-11.26,29.75-54.88,44.26-101.39-34.72,46.42-71.32,121.43-129.67,147.87"/><path class="cls-62" d="M1080.28,627.28c-21.88,21.36-28.09,36.29-32.76,44.66s-3.5,15.65-3.5,15.65-13.74,18.92-36.5,12.19c-24.84-7.34-18.2-23.16-18.2-23.16s12.09-17.88,11.49-21S968.36,644.55,966,631.78s20.32-62.93,30-76.47c13.3-18.66,51.85-20.94,70.61-11.67a63,63,0,0,1,34.13,42.41c2.9,12.28-5.81,20.28-20.41,41.23"/><path class="cls-62" d="M1205.29,900.32c-15.11,13.64-135.84,37.83-135.84,37.83l-10.87-24.39s67.42-50.69,80.74-54.37,64.28-10.23,71.57,12.83c3.49,11.06,1.25,21.93-5.6,28.1"/><path class="cls-62" d="M1132.33,721.59c23.64,17.06,36.79,74.57,46.92,91.77,16.42,27.87,51.21,67.85,20,90.48-10,7.23-27.7-23.23-43.81-29.21-23.23-8.63-25.78-35.26-34.7-44.51s-41.92-28.74-42.87-81.17c-.58-31.8,41.87-36.45,54.47-27.36"/><path class="cls-62" d="M1074.12,620.85s11.73-8.91,18.86,4.78-18.85,29.77-29.2,20.1"/><path class="cls-65" d="M1082.2,625.59c3.93-1.13,7.69,10.66-5,12.79-8.82,1.48.24-11.43,5-12.79"/><path class="cls-65" d="M1029.87,661.27c3.2-2.22-15.39-1.68-29-6.88-.11,5.66,17.42,14.91,29,6.88"/><path class="cls-66" d="M967.54,618c-2.36,7.83-7,18.19,14.65,28.57,25.11,12,34.32-7.6,35.25-12.3,1.36-6.8-5.58-18.43-22.86-25.61s-24.68,1.51-27,9.34m3.22,2.83c2.06-4.94,6.53-14.95,21.92-8.55s20.93,14.33,17.4,22.82c-6.58,11-20.88,6.5-22.84,3-2.56-4.61.58-9.25.58-9.25l-5.63-2.33s-1.42,9.51-8,6.27c-4.89-2.39-5.46-7-3.4-11.94"/><path class="cls-64" d="M930.59,813c-37.91-21.47,84,20.67,84,20.67s-46.13.79-84-20.67"/><path class="cls-25" d="M1053.38,952.06,999.7,862.67c5.93-8.16,5.9-18.75-.73-25.61a20.18,20.18,0,0,0-14.1-5.95c-1.92-.05-3.16,2.17-1.94,3.44l6.84,7.07a5.18,5.18,0,0,1,1.14,5.18l-2.28,7.44a7,7,0,0,1-5.32,4.65l-8,1.54a5.82,5.82,0,0,1-5.32-1.52l-6.83-7.08a2.3,2.3,0,0,0-3.77,1.55,18.2,18.2,0,0,0,5.35,14.18c4.55,4.49,11.18,6.29,17.76,5.39l53.68,89.4c-5.92,8.15-5.9,18.74.73,25.6A20.18,20.18,0,0,0,1051,993.9c1.91.06,3.16-2.17,1.93-3.44l-6.84-7.07a5.18,5.18,0,0,1-1.14-5.18l2.28-7.43a7,7,0,0,1,5.32-4.66l8-1.54a5.82,5.82,0,0,1,5.32,1.52l6.83,7.08a2.3,2.3,0,0,0,3.77-1.55,18.17,18.17,0,0,0-5.35-14.18C1066.59,953,1060,951.16,1053.38,952.06Z"/><rect class="cls-29" x="1010.86" y="864.56" width="13.28" height="94.39" rx="5.25" transform="translate(-324.18 653.85) rotate(-30.98)"/><path class="cls-62" d="M1066.72,908.26s29.09-9.89,31.94-8,3.11,20.23.84,22.82S1072.22,936,1072.22,936s-5.7,8-21.86,13.56c-7.22,2.48-19.21.13-26.07,0s-10.43-1.09-10.55-5.18c-.21-6.9,14.16-5.34,20.87-6.15,1.31-.16-.1-2-.1-2s-12.82-.47-20.54.83c-6.7,1.12-13.79,2.3-16.39-2.55-2.52-4.68-2.83-6.93,13.47-9.31,14.94-2.17,19.12-2,19.12-2s1.48-.91-.69-1.46c-3.77-1-7.44-1.5-18.52.44-12.16,2.13-18.6,9.13-22.56,1.63-2.64-5,7.32-10.13,19-12.9,7.23-1.72,18.38-1,19.69-.77,1.91.34,1.08-.67,1.08-.67s-5.06-3.29-17.76-3.21-16.37,7.67-21.15,1.61c-5.44-6.89,10-12.74,20.42-13.83,8.67-.91,20.89-.86,30,2.13,12.06,4,27.09,12.12,27.09,12.12"/><path class="cls-67" d="M722.9,567.86c-10.41,17,8.07,44.71,8.07,44.71l15.39-23.23s-15.24-34.94-23.46-21.48"/><path class="cls-9" d="M728.28,621.53l76.5-131.23a28.85,28.85,0,0,0,28.65-40.4,2.75,2.75,0,0,0-5.11.24l-4.46,13.17a7.92,7.92,0,0,1-5.42,5.11l-10,2.74a7.94,7.94,0,0,1-8.42-2.85l-6.27-8.25a8,8,0,0,1-1.2-7.35L797,439.54a2.75,2.75,0,0,0-3.93-3.29,28.79,28.79,0,0,0-10,41.37L706.59,608.89a26,26,0,1,0,21.69,12.64m-16.49,31.18-10.43.45-9-5.26-4.75-9.31,1-10.39,6.49-8.19,9.89-3.37,10.14,2.5,7.18,7.59L724.25,637l-3.92,9.68Z"/><path class="cls-22" d="M723.43,604.92h0a8.31,8.31,0,0,1-3-11.37L779.65,492A8.32,8.32,0,0,1,794,500.33l-59.22,101.6a8.32,8.32,0,0,1-11.38,3"/><path class="cls-62" d="M775.46,578.09c-4.2,10.63-7.71,18.95-8.5,25.78s12.53,71.68,10.93,74.58-27.83-1.44-30.23-3.16c-.87-9.7-9.78-58.17-9.78-58.17s6.26-15.32,12-29.58c5.13-12.82,10.55-26.07,13-32.16.07-5.18-3.06-15.62,1.94-19.88,7.71-6.57,14.84,32,10.67,42.59"/><path class="cls-67" d="M763.9,556.75c8.69,9.35-4.44,34.57-13.17,42.47-15.22,13.79-7.24,35.44-8,45.09l-9-32Z"/><path class="cls-62" d="M750.89,527.77c4.58,3.06,12.15,25.46,14.37,32.87s-2.34,11.52-5.87,7.6S744,540,742.72,533.3s3.6-8.59,8.17-5.53"/><path class="cls-62" d="M744.8,540.84c2.33,4.17,12.91,26.51,15.23,34.26s-2.73,12.11-6.54,8.06-15.17-29.71-17.71-36.4,6.16-11,9-5.92"/><path class="cls-62" d="M737,553.59c2.27,3.54,12.63,22.59,14.94,29.28s-2.39,10.84-6.06,7.51-14.81-25.26-17.32-31,5.65-10.13,8.44-5.79"/><path class="cls-62" d="M730.31,565.63c1.48,2.12,8,13.63,9.21,17.72s-2.95,6.84-5.57,4.88-9.49-15.22-11-18.71,5.49-6.5,7.32-3.89"/><path class="cls-68" d="M634.4,681.88c4.11,8.9-13.07,150.61-14.15,157-5.73,33.86-3.16,52.5-32.23,50-13-1.14-12.74-33.42-12.74-33.42s8-92.56,6-106,4.62-59.74,19.48-73.75,32,2.57,33.65,6.21"/><path class="cls-69" d="M583.59,884.13c-13.06-.71-12.74-33.43-12.74-33.43s8-92.55,6-106,4.62-59.74,19.47-73.75c-22.9,89.87,2,214-12.72,213.21"/><path class="cls-68" d="M362.57,868c15.41,16.29,132.24,64.57,132.24,64.57l14.88-21.85S420.3,853.34,408,846.09c-12.63-7.46-39.33-19.32-45.22-8.51s-6.94,23.3-.22,30.41"/><path class="cls-8" d="M585.67,930.48,439,928.27a899.59,899.59,0,0,0,8.82-144.68c-2-85.52,6.07-106.27,10.16-111.65s58.66-13.39,77.54-13.36S609.87,666.3,613,670.5s-10.54,120.6-14.45,147c-5.75,38.8-12.85,113-12.85,113"/><path class="cls-7" d="M469.36,667.8a43.84,43.84,0,0,1,7.69,2.24,31.48,31.48,0,0,1,7.06,4.05,24.11,24.11,0,0,1,5.6,6.09,26.09,26.09,0,0,1,3.29,7.65,37.32,37.32,0,0,1,0,16.36,64.63,64.63,0,0,1-2.18,7.79,78,78,0,0,1-3,7.48,117.3,117.3,0,0,1-17.1,26.9,79.59,79.59,0,0,1-11.38,11.17,22.18,22.18,0,0,1-7,3.92,6.21,6.21,0,0,1-2.07.21,3,3,0,0,1-1.88-.94,3.63,3.63,0,0,1-.58-.88,8.47,8.47,0,0,1-.32-1,10.52,10.52,0,0,1-.19-2v-.15h.29v.15a10.1,10.1,0,0,0,.27,1.92,6.86,6.86,0,0,0,.32.9,3.6,3.6,0,0,0,.54.74,2.45,2.45,0,0,0,1.61.72,5.29,5.29,0,0,0,1.84-.26,21.23,21.23,0,0,0,6.6-4,78.17,78.17,0,0,0,10.78-11.41,114.87,114.87,0,0,0,16.05-26.9,69,69,0,0,0,4.43-14.87,46.76,46.76,0,0,0,.71-7.62,33.52,33.52,0,0,0-.7-7.5,23.77,23.77,0,0,0-7.33-12.82,40.44,40.44,0,0,0-13.47-7.61l-.14-.05.07-.27Z"/><path class="cls-70" d="M539.17,668.39s23,31.65,28.68,31.24c5.43-.4,13.95-37,13.95-37Z"/><path class="cls-71" d="M514.12,574.8c-2.27,11.45,9.82,39.81,26.12,27.2,6,15-3.24,55.91-3.24,55.91s13.06,9,28.37,10.5c6.39.64,9.93-4.7,9.93-4.7s1.9-23.42,3.92-25.89,24.26.35,32.46-9.83,22-60.25,21.07-77.4C631.53,527,602.32,504.77,583,503.26s-41.18,6.62-47.5,23.27c-7.7,20.27,8.59,39,6,49.81-10.51-12.13-25.11-13-27.39-1.54"/><path class="cls-68" d="M537.85,646.77l-12.7,13.12s13.41,10.48,24.72,30.67c3.79,8.69,14.35-24.59,14.35-24.59Z"/><path class="cls-68" d="M568.89,665.63s6.66,34.22,8.36,21.68,6.5-27,6.5-27l-6.11-9.18Z"/><path class="cls-72" d="M551.91,539.14c13.28,15.42,54.25,18.56,57.81,17.16s6.86-11.78,7.59-11.84c1.24-.1,9.14,11.73,15.45,7.7,1.54-18.47-11.9-48.71-56-51.47-40.23-2.51-36.41,19.68-36.41,19.68s10.56,17.55,11.61,18.77"/><path class="cls-73" d="M546.86,584.51c17.29-18.86,6.6-49.88,7.65-48.66,13.28,15.42,52,20.18,55.62,18.78s6.28-12.51,7-12.56c1.25-.11,11.83,12.08,18.15,8,1.54-18.47-11.82-50-56-52.72-40.23-2.52-39.3,14.88-39.3,14.88s-22.7,6.2-27.41,23.07c-4.4,15.74,9.63,31.47,9.63,31.47s14.64-1.91,24.63,17.69"/><path class="cls-68" d="M460.78,675c-21.52,1.33-82.08,131.52-85,137.33-15.65,30.56-28.85,44-4,59.31,11.14,6.87,30.2-19.19,30.2-19.19s47.28-71.19,54.19-82.94c9.2-15.63,36.19-50.77,32.66-70.88s-24-23.88-28-23.63"/><path class="cls-72" d="M523.85,576c-3.29,3.12,3.46,16.38,9.91,16.08,7.68-.35,1.57-8.1,0-10.56s-6.65-8.64-9.95-5.52"/><path class="cls-72" d="M558.29,629.86c10.25,5,22.32,6.49,22.32,6.49s-11.31,13-22.32-6.49"/><path class="cls-7" d="M521.7,659.34c5.8,8.08,11.63,16.11,17.7,23.92,3.06,3.88,6.14,7.75,9.41,11.41a72.75,72.75,0,0,0,10.47,10.1,19.77,19.77,0,0,0,2.92,1.84,7,7,0,0,0,2.9.84,5.59,5.59,0,0,0,2.69-.92,13.91,13.91,0,0,0,2.5-2.21c3.13-3.48,5.37-7.93,7.51-12.32a258.86,258.86,0,0,0,10.5-27.75c-.9,4.9-2.12,9.73-3.47,14.53a136.13,136.13,0,0,1-4.89,14.16,70,70,0,0,1-3.24,6.85,36.85,36.85,0,0,1-4.29,6.42,15.36,15.36,0,0,1-3,2.74,8.34,8.34,0,0,1-4.27,1.43,9.76,9.76,0,0,1-4.22-1.11,22.15,22.15,0,0,1-3.39-2.09,52.74,52.74,0,0,1-5.73-5.08q-2.67-2.7-5.1-5.57c-3.21-3.85-6.27-7.8-9.14-11.88a253.15,253.15,0,0,1-15.83-25.31"/><path class="cls-7" d="M610,669.14c-.36,8.48-.95,16.93-1.61,25.36-.3,4.23-.7,8.44-1,12.66l-1.09,12.63-2.25,25.26c-.34,4.21-.7,8.41-.93,12.63-.14,2.1-.22,4.21-.24,6.31,0,1,0,2.11.09,3.15a10.13,10.13,0,0,0,.21,1.55,3.05,3.05,0,0,0,.24.74.79.79,0,0,0,.55.5.84.84,0,0,1-.65-.44,4.12,4.12,0,0,1-.36-.73,12.36,12.36,0,0,1-.44-1.55,31.25,31.25,0,0,1-.47-3.18c-.23-2.12-.32-4.25-.4-6.37q-.17-6.39.07-12.75c.1-4.24.37-8.47.61-12.71s.63-8.45,1-12.67.81-8.44,1.27-12.65.94-8.42,1.52-12.62c1.1-8.4,2.34-16.78,3.93-25.12"/><path class="cls-74" d="M540,512.28s-22.7,6.2-27.41,23.07c-4.4,15.74,9.63,31.47,9.63,31.47-11.66-36,5.9-46.44,17.78-54.54"/><path class="cls-75" d="M541.25,851.88c-8.89,10.29-34.78-.4-36.39,1.21s-10.65,10.06-9.05,11.32,12.55,5.25,27.11,6.78,23.87,14.25,34.82,13.58c10.22-.62,31.8-11.07,35.15-14a36.28,36.28,0,0,0,7-9c1.42-3.16-1.75-6.6-6.19-6.65-1.15,0-8.28,1.69-15,3.05-7,1.42-14.14.93-15.74,1.3,0,0,1-12.43,5.16-13.59,3.24-.9,10-7.65,7.66-10.51-1.65-2-29.32,10.46-34.6,16.57"/><path class="cls-76" d="M338.34,672.43c8.13,2.23,85.67,132.36,86.59,144,.84,10.65-5.77,18-12.9,20.08-8.36,2.45-19.15-5.53-25.12-10.62s-69.73-85.45-69.73-85.45-21-30.55-14.55-50.22c9.13-27.89,25-20.77,35.71-17.81"/><path class="cls-76" d="M402.33,839.62c9,6.08,117.43,34.76,117.43,34.76L525,854.7l-96.35-46.54s-9.92-4.4-18.79-5.85c-10.17-1.66-18.8,2.65-20.53,6.76-3.18,10.72,4.31,24.66,13,30.55"/><path class="cls-25" d="M362.37,859.35c1.31,6.32,3.72,14.93,3.72,14.93l-104.9,25.39s-10.8-31.59-14.93-42-86.79-141.2-82.81-147.81,56.32-20.76,80.65-26.6S323,667.21,328,670.41c3.84,2.46,18.66,23.37,35.1,66.64,8.09,21.3-11.28,46.67-10.51,52.87,4.94,40,7.94,60.4,9.8,69.43"/><path class="cls-77" d="M224.89,601.36c-9-.68-16.25-3-18.83,9.1-1.9,8.84,13.78,27.93,22.93,21.06,9.39,10.44,11.83,17.73,12.59,23.41,1.41,10.55-.69,30.08-.69,30.08a76,76,0,0,0,28.89-.12C283.61,682,282,676.57,282,676.57s-2.36-17-1.13-18.73c2-2.88,20.16,2.79,28.31-9s14.34-70.1,8.28-87.42c-8.3-23.73-35.28-35.81-58.54-34.83s-36.71,4.11-48.65,19.76c-8.46,11.09,7.54,43.69,14.58,55"/><path class="cls-25" d="M163.56,710c-3,2.38-33.81,136-35.15,142.08s-1.09,17,10.19,22.82C159.7,885.79,167,862.23,167,862.23s34.26-82.63,45.07-90c13.22-9.05,3.88-37.51-5.64-54.66s-39.8-9.95-42.82-7.57"/><path class="cls-73" d="M243.05,895.28c-5.85,12.81,179.08,3.8,179.08,3.8s-26.15-8.45-38.28-17.61a157.84,157.84,0,0,1-20.76-19.29s-9.87,5.58-41.77,10.92-66.88,4.78-66.88,4.78-9.31,12.85-11.39,17.4"/><path class="cls-75" d="M301.34,873.82c-7.68-1.59-36.93-5.85-39.15-6.35s-11.26,6.64-11.48,8.67,23.89,11.23,23.89,11.23,10.88,9.54,15.95,19.26c4.85,9.29,19.08,22.13,23.39,23.39,3.18.93,9.58,1.79,12.11,1.44,3.44-.48,4.66-5,2.34-8.78-.6-1-5.84-6.11-10.55-11-4.95-5.2-11.49-19.67-12.65-20.82,0,0,9.32,12,13.32,13.61,3.55,1.42,8.27,2,8.87-.22.67-2.5-18.13-28.74-26-30.38"/><path class="cls-25" d="M137.89,878.47C154.68,889.74,275.51,889,275.51,889l4.79-19.9s-109.64-27.29-123.2-29-27.09.15-28.78,11.55,2,21.76,9.57,26.86"/><path class="cls-78" d="M247.89,572.17c83.8,28.67,70.66-17.24,68.08-22.81s-24.24-39-76.38-26.2c-59.86,14.66-24.47,77.58-24.47,77.58s16.79-2.79,20,20.58c11.87-9.67-1.7-30.83,12.75-49.15"/><path class="cls-76" d="M174.86,843.68S201.21,779.6,212,772.21c4-3.26-.77-31.14-10.29-48.3,2.44,37.45-26.87,119.77-26.87,119.77"/><path class="cls-79" d="M219.1,608.53c5,1.23,10.47,8.57,9.36,9.85s-8.55,1.8-11.49-1.31-2.85-9.78,2.13-8.54"/><path class="cls-79" d="M258.19,650.68a215.11,215.11,0,0,0,22.77,6.4s-9.83,7.64-22.77-6.4"/><path class="cls-80" d="M720.32,933.49l-625.75-.58c-4.31,0-10.77-3.84-14.42-8.58L55.36,892.17c-3.69-4.78-3.17-8.67,1.16-8.67H686.09c4.44,0,10.73,3.93,14,8.78l22.25,32.54c3.27,4.8,2.35,8.68-2.06,8.67"/><path class="cls-9" d="M691,921.76H450.4l-48.6-33.65c-1.7-1.5-2.49-6.91,3.16-7.62l1.14-.13c1.27-.1,6.13,5,7.49,5l227.7-.29c5.27,0,9.82.7,10.88,1.67Z"/><path class="cls-81" d="M691.6,916l-238.25-6.09-50.91-27.55c-1.48-1,1.35-2.1,6.57-2.49,0,0,3.85-.24,5.22-.24l227.7-.28c5.26,0,9.82.69,10.88,1.66Z"/><path class="cls-9" d="M444.43,917.63l6,4.13H679.53l47.69-156.87c1.45-4.78-1.33-9.77-6.44-11.59l-1.21-.44a12.1,12.1,0,0,0-3.92-.68l-224.06.87c-5.16,0-9.63,3.23-10.67,7.77Z"/><path class="cls-22" d="M450.55,921.76H691.14L727.72,767c1-4.45-2.76-8.62-7.88-8.62H495.71c-3.81,0-7.1,2.37-7.88,5.68Z"/><path class="cls-82" d="M586.33,818.85c-1.74,10.51,3.72,18.7,12.14,18.72s17.19-8.16,19.66-18.68c2.58-11-2.67-20.34-11.84-20.34s-18.12,9.3-20,20.3"/><g id="Calque_3" data-name="Calque 3"><path class="cls-7" d="M136.26,859.6c.35-47.17-15.57-92.11-31-135.56-2.17-6.13-4.35-12.26-6.48-18.41-7.26-21.56-10-45.25-8.45-72.4l-1.44-.09c-1.58,27.35,1.21,51.21,8.53,73,2.13,6.16,4.31,12.29,6.48,18.42,15.36,43.34,31.24,88.15,30.88,135.07Z"/><path class="cls-7" d="M119.75,770.6l1.22-.77c-9.45-15-20.24-26-36-37L84.1,734C99.74,744.86,110.41,755.79,119.75,770.6Z"/><path class="cls-7" d="M104.67,722.59a201.41,201.41,0,0,1,16.92-51L120.3,671a202.93,202.93,0,0,0-17,51.31Z"/><path class="cls-7" d="M89.15,638s-20.09-79.88,39.52-125.67C128.67,512.28,163.46,551.61,89.15,638Z"/><path class="cls-8" d="M87.54,735.16S45.87,681.75,0,700.62C0,700.62,33.65,753.26,87.54,735.16Z"/><path class="cls-7" d="M100.74,746.72S97,680.31,57.13,655.37C57.13,655.37,54.93,697.31,100.74,746.72Z"/><path class="cls-8" d="M90.14,668.67s-12.47-65.19-45.42-74.23C44.72,594.44,47.28,645.57,90.14,668.67Z"/><path class="cls-7" d="M119,674.6s3.72-53.66,52.83-74.67C171.86,599.93,182.24,637.38,119,674.6Z"/><path class="cls-8" d="M112,692.85s-26.53-37.41-10.31-62.74C101.67,630.11,127.12,635.77,112,692.85Z"/><path class="cls-8" d="M114.27,751.77s-13.19-67.33,37.77-84C152,667.79,157.2,711.25,114.27,751.77Z"/><path class="cls-8" d="M111.28,758s-33.5-21.35-61.63,6.58C49.65,764.62,81.3,792.89,111.28,758Z"/><path class="cls-7" d="M131.23,816.82s-7.89-80,36.69-90C167.92,726.78,173.86,778.4,131.23,816.82Z"/><path class="cls-8" d="M135.28,838.53s-14.86-62.23-49.77-55.34C85.51,783.19,76.12,807,135.28,838.53Z"/><polygon class="cls-73" points="167.32 830.45 81.59 831.07 101.2 913.52 154.53 913.52 167.32 830.45"/><polygon class="cls-83" points="86.05 849.8 164.05 851.7 163.37 856.13 87.39 855.44 86.05 849.8"/><polygon class="cls-83" points="88.73 861.08 162.35 862.74 161.67 867.14 90.06 866.7 88.73 861.08"/></g></g></g></g></svg>