<svg xmlns="http://www.w3.org/2000/svg" xmlns:xlink="http://www.w3.org/1999/xlink" viewBox="0 0 1728.6 890.49"><defs><style>.cls-1,.cls-8{fill:#8c4dce;}.cls-1{opacity:0.2;}.cls-2,.cls-9{fill:#fc9770;}.cls-2,.cls-3,.cls-4,.cls-5,.cls-6{opacity:0.25;}.cls-3{fill:#80569f;}.cls-4{fill:#fd9262;}.cls-5{fill:#fc1ba7;}.cls-6,.cls-7{fill:#a371d0;}.cls-10{fill:#fc6e35;}.cls-11{fill:#af8468;}.cls-12,.cls-39,.cls-43,.cls-51,.cls-58{fill:none;stroke-miterlimit:10;}.cls-12{stroke:#987d6a;}.cls-13{fill:#fff;}.cls-14{fill:#fee862;}.cls-15{fill:url(#Dégradé_sans_nom_12);}.cls-16{fill:url(#Dégradé_sans_nom_12-2);}.cls-17{fill:url(#Dégradé_sans_nom_12-3);}.cls-18{fill:url(#Dégradé_sans_nom_12-4);}.cls-19{fill:url(#Dégradé_sans_nom_20);}.cls-20{fill:url(#Dégradé_sans_nom_20-2);}.cls-21{fill:#698bf4;}.cls-22{fill:#d1d1d1;}.cls-23{fill:#f9ebaa;}.cls-24{fill:#eddfa4;}.cls-25{fill:#5878c6;}.cls-26{fill:#efe1a6;}.cls-27{fill:#d03789;}.cls-28{fill:#dc3a8c;}.cls-29{fill:#e2e2e2;}.cls-30{fill:#cacbce;}.cls-31{fill:#e5d89f;}.cls-32{fill:#2a2825;}.cls-33{fill:#8c5831;}.cls-34{fill:#866aa3;}.cls-35{fill:#70509b;}.cls-36{fill:#7c4f31;}.cls-37{fill:#e9e9e9;}.cls-38{fill:#d7d7d6;}.cls-39{stroke:#b2b2b2;}.cls-40{fill:#7e512f;}.cls-41{fill:#503421;}.cls-42{fill:#664127;}.cls-43{stroke:#70509b;}.cls-44{fill:#f1d96b;}.cls-45{fill:#bc8d6d;}.cls-46{fill:#f6d54c;}.cls-47{fill:#eccfbe;}.cls-48{fill:#dcc1b9;}.cls-49{fill:#d83c8c;}.cls-50{fill:#c93a88;}.cls-51{stroke:#f6d54c;}.cls-52{fill:#f7d64d;}.cls-53{fill:#ffeb96;}.cls-54{fill:url(#Dégradé_sans_nom_28);}.cls-55{fill:#3a3a3a;}.cls-56{fill:#99745b;}.cls-57{fill:#ffea56;opacity:0.65;}.cls-58{stroke:#ffeb96;}.cls-59{fill:#cdcdcc;}.cls-60{fill:#eee;}.cls-61{fill:#f4d556;}.cls-62{fill:#e9cb48;}</style><linearGradient id="Dégradé_sans_nom_12" x1="350.1" y1="408.95" x2="490.81" y2="490.19" gradientUnits="userSpaceOnUse"><stop offset="0" stop-color="#fc6e35"/><stop offset="0.24" stop-color="#fc723b"/><stop offset="0.54" stop-color="#fc7d4b"/><stop offset="0.89" stop-color="#fc9066"/><stop offset="1" stop-color="#fc9770"/></linearGradient><linearGradient id="Dégradé_sans_nom_12-2" x1="633.15" y1="408.95" x2="773.86" y2="490.19" xlink:href="#Dégradé_sans_nom_12"/><linearGradient id="Dégradé_sans_nom_12-3" x1="928.65" y1="400.57" x2="1026.65" y2="498.57" xlink:href="#Dégradé_sans_nom_12"/><linearGradient id="Dégradé_sans_nom_12-4" x1="1174.05" y1="408.95" x2="1314.76" y2="490.19" xlink:href="#Dégradé_sans_nom_12"/><linearGradient id="Dégradé_sans_nom_20" x1="348.07" y1="477.91" x2="759.59" y2="715.5" gradientUnits="userSpaceOnUse"><stop offset="0" stop-color="#f7d64d" stop-opacity="0.8"/><stop offset="0.26" stop-color="#f8cf51" stop-opacity="0.8"/><stop offset="0.6" stop-color="#f9ba5c" stop-opacity="0.8"/><stop offset="0.98" stop-color="#fc996f" stop-opacity="0.8"/><stop offset="1" stop-color="#fc9770" stop-opacity="0.8"/></linearGradient><linearGradient id="Dégradé_sans_nom_20-2" x1="887.09" y1="807.36" x2="1334.96" y2="807.36" xlink:href="#Dégradé_sans_nom_20"/><linearGradient id="Dégradé_sans_nom_28" x1="1575.55" y1="452.17" x2="1604.73" y2="452.17" gradientUnits="userSpaceOnUse"><stop offset="0" stop-color="#1a1a1a"/><stop offset="0.05" stop-color="#1e1e1e"/><stop offset="0.3" stop-color="#2e2e2e"/><stop offset="0.59" stop-color="#373737"/><stop offset="1" stop-color="#3a3a3a"/></linearGradient></defs><g id="Calque_2" data-name="Calque 2"><g id="Illustration_3" data-name="Illustration 3"><g id="Calque_7" data-name="Calque 7"><path class="cls-1" d="M1405,888H261a30.89,30.89,0,0,1-30.9-30.9V265.44a27.63,27.63,0,0,1,27.63-27.63H1408.27c15.26,0,27.63,12.37,25.63,27.63V857.1C1435.9,874.17,1422.07,888,1405,888Z"/></g><g id="Calque_6" data-name="Calque 6"><circle class="cls-2" cx="215.35" cy="356.51" r="214.33"/><circle class="cls-3" cx="281.35" cy="196.34" r="123.91"/><circle class="cls-4" cx="1472.32" cy="672.34" r="214.33"/><circle class="cls-4" cx="797.77" cy="181.48" r="115.43"/><circle class="cls-5" cx="568.64" cy="149.04" r="57.63"/><circle class="cls-5" cx="1664.31" cy="511.4" r="64.29"/><circle class="cls-6" cx="1437.13" cy="485.84" r="123.91"/><circle class="cls-4" cx="1303.62" cy="140.26" r="31.34"/><circle class="cls-5" cx="1423.25" cy="167.82" r="57.63"/><circle class="cls-6" cx="670.29" cy="225.17" r="77.01"/><circle class="cls-4" cx="1515.9" cy="240.87" r="119"/><circle class="cls-5" cx="189.09" cy="767.74" r="99.42"/><circle class="cls-6" cx="42.64" cy="668.32" r="32.29"/><circle class="cls-4" cx="103.83" cy="561.91" r="66.95"/></g><g id="Calque_11" data-name="Calque 11"><path class="cls-7" d="M126.2,222.73s.72,16.69,4.2,40.66c10.85,11.67,32.49,15,35.61,15.42C134.63,231,126.2,222.73,126.2,222.73Z"/><path class="cls-7" d="M318.28,468.53l-.09,1.22L246,464.6a263.91,263.91,0,0,0,68.56,32.13l34-1.34C340.9,488.84,330.4,479.71,318.28,468.53Z"/><path class="cls-7" d="M183.36,290.29c.1-6.53.1-41.64-10.05-59.74a155.24,155.24,0,0,0-47.11-7.82S146.09,238.36,183.36,290.29Z"/><path class="cls-7" d="M212.29,331.94l-.7-.15,1,1.48c3.86,6,7.91,12,12.1,17.93,1.5-6.83,12.15-57.78,3.88-90.63A200.41,200.41,0,0,0,207,245.86C218.79,299.78,212.36,331.62,212.29,331.94Z"/><path class="cls-7" d="M199,330.5c-13-20.73-23.74-37.55-32.67-51.18l-.14,1.15c-1-.12-23-2.78-35.42-14.4a454.32,454.32,0,0,0,12,56.3l66.52,23.77C205.74,341,202.3,335.76,199,330.5Z"/><path class="cls-7" d="M226.05,352.33l-.73-.17c7.89,11.18,16.25,22.27,24.8,33,1.69-4,17.31-42.11,16.43-87.21a242,242,0,0,0-36-35.81C238.56,297.74,226.18,351.77,226.05,352.33Z"/><path class="cls-7" d="M184.15,291.39c8.11,11.33,17,24.36,26.72,39.3.95-5.59,5.24-36.58-5.81-85.91a172.68,172.68,0,0,0-29.51-13.46c10.5,20.66,9.46,58.41,9.41,60.1Z"/><path class="cls-7" d="M298.94,450.19l-.05,1.18L223.53,448q9.41,7.8,19.79,14.83l74.5,5.32C311.86,462.6,305.53,456.6,298.94,450.19Z"/><path class="cls-7" d="M251.45,386.23l-.79-.35c9.49,11.95,19.2,23.52,28.75,34.48L295.27,341a270.18,270.18,0,0,0-27.08-41C268.59,346.9,251.62,385.84,251.45,386.23Z"/><path class="cls-7" d="M293.88,436.64c7.54,8.33,14.83,16.15,21.67,23.35l8.3-33.85a261.71,261.71,0,0,1-8.2-31.33A148.5,148.5,0,0,0,311,377.17l-16.47,59.65Z"/><path class="cls-7" d="M209.8,346.89l-.37,1-66.12-23.63a300.13,300.13,0,0,0,11.24,32.15l73.78,15.7C221.92,363.89,215.7,355.46,209.8,346.89Z"/><path class="cls-7" d="M316.4,460.88c4.62,4.84,9,9.39,13.16,13.6l4.69-20.85c-3.29-7.67-6.51-15.92-9.44-24.6L317,461Z"/><path class="cls-7" d="M348.93,497l-29.54,1.17a283.62,283.62,0,0,0,43.19,8.71s-5.11-4-13.7-11.27Z"/><path class="cls-7" d="M280.86,421.36l-.7-.14q6.55,7.5,13,14.58l16.95-61.37a228,228,0,0,0-13.6-31.2Z"/><path class="cls-7" d="M265.67,416c-12.43-13.5-25-28-36.8-43.18l-.22,1-73.33-15.6a208.52,208.52,0,0,0,9.83,20.07A243,243,0,0,0,187,410.73C206.44,419.44,260.8,416.3,265.67,416Z"/><path class="cls-7" d="M266.07,416.44l.08,1.15c-2.35.16-54.59,3.56-77.08-4.29a254.5,254.5,0,0,0,32.45,32.94l77,3.49C288.1,439.6,277.13,428.43,266.07,416.44Z"/><path class="cls-7" d="M330.47,475.41c19.15,19.49,32.11,31.46,32.11,31.46a345.21,345.21,0,0,1-27.24-50.72L331,475.53Z"/><path class="cls-8" d="M268.19,300l-1.64-2c.88,45.1-14.74,83.25-16.43,87.21-8.25-10.4-16.31-21.08-24-31.86,1.61-7.54,11.82-58.16,4.43-91.16l-2.07-1.62c8.27,32.85-2.38,83.8-3.88,90.63-4.19-6-8.24-11.94-12.1-17.93l-.09-.13c.87-5.3,5.35-37.83-5.5-87.28-.63-.37-1.27-.72-1.9-1.08,11.05,49.33,6.76,80.32,5.81,85.91-9.38-14.45-18-27.11-25.92-38.17.13-7,.23-42.25-9.4-61.2l-2.24-.77c10.15,18.1,10.15,53.21,10.05,59.74-37.27-51.93-57.16-67.56-57.16-67.56S134.63,231,166,278.81c-3.12-.42-24.76-3.75-35.61-15.42.13.88.26,1.78.39,2.68,10.82,10.11,31.07,14.17,36.78,15.13,8.69,13.29,19.08,29.51,31.45,49.3,3.28,5.26,6.72,10.47,10.26,15.64l-66.52-23.77c.18.64.36,1.27.55,1.91L211,348.57c5.55,8,11.37,15.86,17.36,23.56l-73.78-15.7h0c.31.6.58,1.21.83,1.83L230,374.2c11.53,14.66,23.65,28.71,35.7,41.8-4.87.3-59.23,3.44-78.67-5.27.69.86,1.37,1.72,2.07,2.57,21,7.33,69.85,4.82,78.11,4.33,10.68,11.54,21.27,22.31,31.3,32.1l-77-3.49c.67.57,1.33,1.15,2,1.71l76.93,3.71c6,5.86,11.87,11.37,17.36,16.44l-74.5-5.32c.9.61,1.8,1.22,2.71,1.82l74,5.49c11.39,10.46,21.29,19.07,28.65,25.3l-34,1.34c1.59.49,3.18,1,4.8,1.43l31.37-1c7.45,6.25,11.82,9.69,11.82,9.69S349.86,495.11,331,476l4.33-19.81-1.09-2.52-4.69,20.85c-3.93-4-8.13-8.33-12.51-12.92L324.81,429l-1-2.89L315.55,460c-6.64-7-13.72-14.57-21-22.63L311,377.17c-.3-.91-.61-1.82-.92-2.74L293.12,435.8c-4-4.41-8-9-12.13-13.64l15.48-78.93-1.2-2.25-15.86,79.38c-9.25-10.61-18.65-21.82-27.86-33.36C253.69,381.77,268.57,343.75,268.19,300Z"/></g><g id="Calque_12" data-name="Calque 12"><path class="cls-7" d="M1642.75,579.44s-19.33-3.79-47.19-6.21c-13.93,10.14-18.65,35.92-19.27,39.67C1632.89,587.55,1642.75,579.44,1642.75,579.44Z"/><path class="cls-7" d="M1350.75,747.79l-1.41-.45,8.86-87.68c-16.28,21.27-30,46.48-39.92,75.67l.18,42.42C1326.34,770,1337.32,759.62,1350.75,747.79Z"/><path class="cls-7" d="M1562.31,631.11c7.56,1.95,48.16,11.79,69.5,4.32a183.16,183.16,0,0,0,10.94-56S1623.87,599.62,1562.31,631.11Z"/><path class="cls-7" d="M1513,655.16l.2-.83-1.75.78c-7.08,3.09-14.16,6.42-21.22,9.92,7.84,3.76,66.34,31.21,104.67,30.19a186.07,186.07,0,0,0,17.87-22.52C1549.91,672.21,1513.35,655.34,1513,655.16Z"/><path class="cls-7" d="M1515.18,639.17c24.49-10.19,44.38-18.79,60.51-26l-1.33-.48c.18-1.21,4.15-27.63,18.08-39.71a466.49,466.49,0,0,0-65.59-1l-30.17,75.5Q1505.86,643.07,1515.18,639.17Z"/><path class="cls-7" d="M1488.85,666.44l.23-.85c-13.26,6.61-26.41,13.83-39.23,21.37,4.52,3.19,48,33.18,100.2,44.73a213.15,213.15,0,0,0,42.87-34.37C1551.48,697.2,1489.49,666.76,1488.85,666.44Z"/><path class="cls-7" d="M1561,631.77c-13.43,6.84-28.86,14.2-46.53,22,6.43,2.74,42.1,16.72,99.6,16.9A174.29,174.29,0,0,0,1630.84,638c-24.32,7.18-67.94-4.68-69.89-5.22Z"/><path class="cls-7" d="M1372.74,729.05l-1.36-.4,7-92.12a236.38,236.38,0,0,0-17.95,20.29l-9.15,90.52C1357.86,741.53,1365.05,735.38,1372.74,729.05Z"/><path class="cls-7" d="M1448.61,688.31l.44-.88c-14.19,8.37-28,17.13-41,25.85l91.18,41.83a239.36,239.36,0,0,0,48.45-22C1493.42,720.51,1449.06,688.64,1448.61,688.31Z"/><path class="cls-7" d="M1388.61,726.59c-9.94,7-19.28,13.79-27.87,20.23l38.8,19.73a262.69,262.69,0,0,1,36.57-1.35,146.77,146.77,0,0,0,20.6-.81l-68.33-37.06Z"/><path class="cls-7" d="M1495.79,647.89l-1.16-.73,30-75A288.66,288.66,0,0,0,1487,577l-21.13,86.73C1475.64,658.1,1485.64,652.78,1495.79,647.89Z"/><path class="cls-7" d="M1359.67,747.61c-5.79,4.35-11.23,8.52-16.26,12.44l23.93,11.64c9-1.91,18.67-3.58,28.83-4.76l-36.68-18.65Z"/><path class="cls-7" d="M1316.59,777.68l-.16-36.83a328.65,328.65,0,0,0-11.81,50.91s4.85-5.19,13.59-13.76Z"/><path class="cls-7" d="M1406.81,714.79l.19-.82q-8.94,6-17.39,11.92l70.3,38.13a210.65,210.65,0,0,0,36.63-8.06Z"/><path class="cls-7" d="M1413.62,697.53c16.11-11.57,33.39-23,51.42-33.35l-1.19-.56,21-86.19a191.74,191.74,0,0,0-23.61,6.51,214.1,214.1,0,0,0-38.36,17.91C1412,623.42,1413.47,691.43,1413.62,697.53Z"/><path class="cls-7" d="M1413.09,697.91l-1.33-.23c-.09-2.94-1.93-68.42,8.06-94a223.87,223.87,0,0,0-39.41,30.84l-7.12,94.07C1385.42,718.63,1398.78,708.2,1413.09,697.91Z"/><path class="cls-7" d="M1342.3,760.92c-23.31,18.19-37.68,30.84-37.68,30.84s24.25-11.52,59.76-19.43l-22.24-10.81Z"/><path class="cls-8" d="M1547.65,733.15c.8-.47,1.6-1,2.4-1.46-52.19-11.55-95.68-41.54-100.2-44.73,12.36-7.27,25-14.23,37.81-20.65,8.66,4.1,66.79,30.89,105.26,31l2-2.1c-38.33,1-96.83-26.43-104.67-30.19,7.06-3.5,14.14-6.83,21.22-9.92l.15-.07c6.1,2.56,43.55,17.21,101.17,17.66.45-.67.89-1.36,1.33-2-57.5-.18-93.17-14.16-99.6-16.9,17.1-7.54,32.08-14.67,45.2-21.31,8.11,2.12,48.86,12.11,71.16,5.53.32-.85.66-1.69,1-2.55-21.34,7.47-61.94-2.37-69.5-4.32,61.56-31.49,80.44-51.67,80.44-51.67s-9.86,8.11-66.46,33.46c.62-3.75,5.34-29.53,19.27-39.67l-3.12-.26c-12.13,10.52-17.63,34.39-19,41.19-15.72,7-34.9,15.28-58.29,25q-9.32,3.89-18.5,8.3l30.17-75.5-2.23.14-30.81,76.76c-9.47,4.62-18.81,9.6-28,14.85L1487,577h0a21.7,21.7,0,0,1-2.15.51l-21.43,87.66c-17.43,10.14-34.16,21.16-49.78,32.38-.15-6.1-1.6-74.11,9.26-95.68-1,.61-2,1.21-3.06,1.84-9.33,23.89-8.39,84.91-8.15,95.25-13.77,10-26.66,20-38.38,29.66l7.12-94.07c-.68.67-1.37,1.32-2.05,2l-7.38,94c-7,5.81-13.63,11.46-19.72,16.82l9.15-90.52c-.74.94-1.48,1.89-2.21,2.84l-9.33,89.79c-12.56,11.14-22.9,20.95-30.41,28.3l-.18-42.42c-.63,1.83-1.25,3.66-1.85,5.52l-.13,39c-7.53,7.44-11.68,11.88-11.68,11.88s14.11-12.41,37-30.33l22.74,10.9,3-.64-23.93-11.64c4.79-3.73,10-7.7,15.44-11.82l37.32,18.7,3.37-.38-38.8-19.73c8.34-6.26,17.4-12.86,27-19.63l69,37.2c1.06-.11,2.13-.24,3.2-.37l-70.3-38.13c5.26-3.69,10.7-7.42,16.26-11.16L1496.54,756c.88-.27,1.77-.56,2.66-.85L1408,713.28c12.65-8.45,26-16.92,39.71-25.06C1453.69,692.33,1497.06,721.36,1547.65,733.15Z"/></g><g id="Calque_13" data-name="Calque 13"><path class="cls-9" d="M0,493.32S9,510,24.14,531.94c15.61,3.3,36.75-10.71,39.77-12.79C11.71,495,0,493.32,0,493.32Z"/><path class="cls-9" d="M295.92,592.37l.53,1.33L229,646.56C253.87,644,280,637,306.73,624.48l29.95-28.83C326.45,595.12,312.43,594.16,295.92,592.37Z"/><path class="cls-9" d="M85.27,517c-3.19-6.82-20.77-43.1-39-53.61A178.13,178.13,0,0,0,0,493.32S25.73,493.43,85.27,517Z"/><path class="cls-9" d="M132.15,536.73l-.7.41,1.6.75c6.48,3.07,13.12,6,19.87,8.77-2.07-8.27-18-69.5-41.9-96.77a163.89,163.89,0,0,0-26.78,2.21C121.9,498.26,132.05,536.34,132.15,536.73Z"/><path class="cls-9" d="M119.49,545.94c-22-11-40.16-19.65-55-26.53l.46,1.29c-1,.69-22.09,15.67-39.08,13.68a430.9,430.9,0,0,0,39,48.52l71.76-29.08Q127.89,550.1,119.49,545.94Z"/><path class="cls-9" d="M154.74,546.69l-.74.41c12.7,5.2,25.77,9.91,38.87,14.16-.47-5.46-5.52-57.46-28.89-103.35a183.26,183.26,0,0,0-50.29-8C138.66,480.21,154.58,546,154.74,546.69Z"/><path class="cls-9" d="M86.53,517.52c13,5.17,27.52,11.45,43.72,19.06-1.94-6.54-13.61-42-48.25-84.08a159.66,159.66,0,0,0-33.3,9.9c19.79,12.88,37.77,52.71,38.57,54.5Z"/><path class="cls-9" d="M269.34,589l.54,1.27-69.51,57.23a204.07,204.07,0,0,0,25.23-.64l69.69-54.57C287.18,591.42,278.48,590.33,269.34,589Z"/><path class="cls-9" d="M194.58,561.24l-.89.28c14.52,4.69,29.06,8.81,43.14,12.43l-25.5-94.8a206.36,206.36,0,0,0-44.86-20.48C190.3,506.78,194.54,560.69,194.58,561.24Z"/><path class="cls-9" d="M258,579.11c11,2.52,21.44,4.72,31.2,6.64l-9.48-41.66a238.6,238.6,0,0,1-23.08-25.75,134.32,134.32,0,0,0-13-14.48l15.05,74.91Z"/><path class="cls-9" d="M137.4,554.18l.18,1.35-71.33,28.9a258.93,258.93,0,0,0,26.22,24.15l74.25-43.27C156.82,562,147,558.28,137.4,554.18Z"/><path class="cls-9" d="M290.4,586c6.58,1.28,12.83,2.43,18.65,3.45l-6.22-25.33C296,558.83,289,552.9,282,546.3l9,39.37Z"/><path class="cls-9" d="M337.76,597.06l-26,25A317.88,317.88,0,0,0,355,596.27s-6.61,0-18-.61Z"/><path class="cls-9" d="M238.63,573.81l-.7.42c6.44,1.65,12.78,3.18,19,4.62l-15.49-77.07a185.93,185.93,0,0,0-27.87-21.26Z"/><path class="cls-9" d="M222.27,580.52a527.31,527.31,0,0,1-54.73-14.93l.32,1.25-73.78,43A167.66,167.66,0,0,0,113,622.65a184.71,184.71,0,0,0,35.89,15.86C170.71,631.83,218,584.76,222.27,580.52Z"/><path class="cls-9" d="M222.87,580.65l.64,1.13c-2,2.05-47.33,47.69-71.5,57.71a192.31,192.31,0,0,0,45.7,7.87l71-58.44C254.28,586.82,238.81,584.12,222.87,580.65Z"/><path class="cls-9" d="M310.34,589.65c27,4.69,44.64,6.62,44.64,6.62s-22.82-9.9-49.91-30.45l5.79,23.54Z"/><path class="cls-10" d="M166.47,458.67l-2.49-.76c23.37,45.89,28.42,97.89,28.89,103.35-12.63-4.1-25.23-8.64-37.5-13.61-2.33-9.09-18.5-69.61-41.68-97.74-.89,0-1.78,0-2.67,0,23.9,27.27,39.83,88.5,41.9,96.77-6.75-2.78-13.39-5.7-19.87-8.77l-.14-.06c-1.87-6.18-14.13-43.4-48.67-85.73-.75.12-1.5.27-2.24.4,34.64,42.06,46.31,77.54,48.25,84.08-15.68-7.37-29.79-13.47-42.44-18.54-3.4-7.35-21-43.83-39.11-55.64-.8.33-1.6.66-2.39,1,18.19,10.51,35.77,46.79,39,53.61C25.73,493.43,0,493.32,0,493.32s11.71,1.7,63.91,25.83c-3,2.08-24.16,16.09-39.77,12.79.56.81,1.12,1.62,1.7,2.44,14.8,1.73,35-10.4,40.67-14,14.47,6.73,31.94,15.12,53,25.59q8.39,4.17,17.07,7.88L64.8,582.9l1.45,1.53,73-29.47c9,3.78,18.18,7.23,27.43,10.35L92.47,608.58h0a16.56,16.56,0,0,1,1.66,1.23l75.1-43.69a530,530,0,0,0,53.05,14.4c-4.23,4.24-51.56,51.31-73.41,58l3.15,1c22.58-9.36,65.26-51.33,72.45-58.5,15.38,3.31,30.3,5.9,44.23,7.93l-71,58.44c.88,0,1.76.12,2.66.15l71.07-58.2c8.37,1.18,16.37,2.18,23.85,3L225.6,646.87c1.11-.09,2.23-.19,3.35-.31l69.28-53.95c15.5,1.63,28.7,2.54,38.45,3l-29.95,28.83c1.67-.78,3.35-1.56,5-2.39l27.74-26.31c9.83.46,15.48.49,15.48.49s-17.33-1.9-43.89-6.49l-6-24-2.24-1.72,6.22,25.33c-5.54-1-11.48-2.06-17.72-3.27L282,546.3c-.77-.73-1.54-1.46-2.31-2.21l9.48,41.66c-9.48-1.86-19.64-4-30.25-6.43l-15.33-75.46-2.2-2.08,15.49,77.07c-5.8-1.34-11.73-2.79-17.75-4.31l-25.61-94c-.73-.46-1.46-.92-2.21-1.37l25.5,94.8c-13.64-3.51-27.71-7.5-41.78-12C194.36,554.82,188.7,503.55,166.47,458.67Z"/></g><g id="Calque_16" data-name="Calque 16"><path class="cls-9" d="M1576.7,283.84s-15,6.25-35.33,17.4c-5.79,13.57.93,33.91,2,36.83C1573,294.1,1576.7,283.84,1576.7,283.84Z"/><path class="cls-9" d="M1438.36,537.17l-1.16.33-27.85-65.86a232.39,232.39,0,0,0,1.52,71.73l16.6,29.8C1430,564.1,1433.59,551.7,1438.36,537.17Z"/><path class="cls-9" d="M1540.65,357.35c6-2.11,38.17-13.91,50.16-29a149.94,149.94,0,0,0-14.11-44.5S1571.37,306.77,1540.65,357.35Z"/><path class="cls-9" d="M1515.57,397.06l-.18-.68-.92,1.36c-3.74,5.44-7.39,11.05-11,16.77,6.93-1,58.39-8.61,84.73-27a167.81,167.81,0,0,0,3.73-24.11C1548,392,1515.9,397,1515.57,397.06Z"/><path class="cls-9" d="M1510.9,384.78c13.13-18.48,23.66-33.72,32.11-46.24l-1.11.27c-.35-.93-7.84-21.38-2.81-36.32A405.56,405.56,0,0,0,1493,332.05l8.26,67.11Q1505.92,391.82,1510.9,384.78Z"/><path class="cls-9" d="M1503.12,416.14l-.18-.7c-6.68,10.77-13,21.92-19.06,33.15,4.39.16,46.37,1.23,87.26-14.71a199.14,199.14,0,0,0,16.56-44C1558.75,408.91,1503.69,416.07,1503.12,416.14Z"/><path class="cls-9" d="M1540,358.42c-6.72,11-14.63,23.32-23.92,37,5.54-1,35.85-7.64,76-34a152.9,152.9,0,0,0-1-30.76c-14.17,16.28-49.2,28.05-50.77,28.57Z"/><path class="cls-9" d="M1446.43,513.82l-1.11.35L1414.43,446a214.87,214.87,0,0,0-4.65,22.58l28.76,68C1440.89,529.47,1443.52,521.83,1446.43,513.82Z"/><path class="cls-9" d="M1483.54,450.11l0-.82c-6.65,12.45-12.86,25-18.58,37.14l79.84-12.59A223.21,223.21,0,0,0,1570,436C1527.3,452.13,1484,450.13,1483.54,450.11Z"/><path class="cls-9" d="M1456.54,504.76c-4.22,9.5-8.09,18.61-11.59,27.12l34.73-4a231.42,231.42,0,0,1,25-17.83,127.7,127.7,0,0,0,14-10.07l-62,5.41Z"/><path class="cls-9" d="M1500.76,399.87l-1.1,0-8.22-66.72a261.6,261.6,0,0,0-24.35,20.8L1486,424.83C1490.66,416.36,1495.58,408,1500.76,399.87Z"/><path class="cls-9" d="M1444.52,532.93c-2.35,5.73-4.53,11.18-6.52,16.27l21.22-2.84c5.53-5.51,11.63-11.14,18.25-16.66l-32.82,3.78Z"/><path class="cls-9" d="M1426.14,574l-14.41-25.87a271,271,0,0,0,11.52,41.32s1.37-5.89,4.14-16Z"/><path class="cls-9" d="M1464.66,488.06l-.19-.67c-2.61,5.56-5.11,11.05-7.5,16.42l63.84-5.57a192.29,192.29,0,0,0,22.43-22.57Z"/><path class="cls-9" d="M1462.71,472.75c6.74-15.58,14.38-31.58,22.92-47.22l-1.05.15-18.81-70.41a175.16,175.16,0,0,0-13.94,15.48A199.36,199.36,0,0,0,1432,401.07C1432.82,421.27,1460.23,468.52,1462.71,472.75Z"/><path class="cls-9" d="M1462.48,473.26l-1,.46c-1.21-2-27.91-47.32-30.87-70a208.65,208.65,0,0,0-15.51,39.91l31.54,69.57C1451.22,500.62,1456.5,487.12,1462.48,473.26Z"/><path class="cls-9" d="M1437.56,550.32c-9.19,23.57-14.31,39.11-14.31,39.11s12.45-19.3,34.15-41.26l-19.71,2.64Z"/><path class="cls-10" d="M1570,436l1.1-2.14c-40.89,15.94-82.87,14.87-87.26,14.71,5.8-10.83,11.94-21.58,18.36-32,7.63-1.11,58.58-9.05,85.46-26.71.19-.79.37-1.59.55-2.39-26.34,18.4-77.8,26.05-84.73,27,3.56-5.72,7.21-11.33,11-16.77l.08-.12c5.25-1,37-8,77.43-34.23,0-.68.09-1.37.14-2.05-40.19,26.4-70.5,33-76,34,9-13.2,16.68-25.13,23.25-35.87,6.48-2.25,38.78-14,51.78-28.93-.1-.74-.19-1.49-.3-2.24-12,15.1-44.14,26.9-50.16,29,30.72-50.58,36-73.51,36-73.51s-3.73,10.26-33.37,54.23c-1-2.92-7.75-23.26-2-36.83l-2.28,1.25c-4.37,13,1.05,32.37,2.76,37.77-8.25,12.19-18.42,26.87-30.95,44.52q-5,7-9.69,14.38L1493,332.05l-1.51,1.12,8.32,68.3c-4.82,7.63-9.4,15.44-13.74,23.36L1467.09,354h0a18.37,18.37,0,0,1-1.3,1.35L1484.87,427c-8.23,15.18-15.62,30.67-22.16,45.78-2.48-4.23-29.89-51.48-30.69-71.68-.48.9-1,1.79-1.42,2.7,2.77,21.14,27.11,63.7,31.29,70.88-5.73,13.37-10.82,26.4-15.26,38.6l-31.54-69.57c-.22.79-.45,1.57-.66,2.36l31.33,69.63c-2.63,7.33-5,14.36-7.22,20.94l-28.76-68c-.15,1-.3,2-.43,3l28.35,67.56c-4.44,13.65-7.85,25.33-10.23,34l-16.6-29.8c.28,1.58.55,3.16.86,4.74l15.06,27.56c-2.37,8.72-3.54,13.76-3.54,13.76s5-15.26,14-38.45l20.1-2.81c.6-.6,1.2-1.21,1.82-1.81L1438,549.2c1.89-4.85,4-10,6.19-15.46l33.28-4,2.21-1.82-34.73,4c3.4-8.26,7.15-17.09,11.23-26.3l62.54-5.6c.7-.57,1.39-1.15,2.09-1.74L1457,503.81q3.36-7.55,7-15.36l79.26-12.78c.51-.6,1-1.21,1.52-1.83l-79.84,12.59c5.54-11.79,11.55-23.91,18-36C1488.64,450.6,1530.17,451.05,1570,436Z"/></g><g id="Calque_15" data-name="Calque 15"><path class="cls-7" d="M912.22,91.49s2.13,20,8.09,47.39c13.81,8.42,39.83.88,43.58-.28C922.89,97,912.22,91.49,912.22,91.49Z"/><path class="cls-7" d="M1159.59,288.55v1.53l-86.31,32.43c25.14,5.46,53.26,6.63,84.07,2.45l40.44-19.9C1188.07,301.22,1174.87,295.7,1159.59,288.55Z"/><path class="cls-7" d="M985.42,143.31c-.38-8-3-50.9-16.51-67.55a193.3,193.3,0,0,0-56.69,15.73S937.09,99.9,985.42,143.31Z"/><path class="cls-7" d="M1023,178.64l-.85.2c.43.43.84.85,1.26,1.29,5.06,5.23,10.34,10.37,15.77,15.4,1.27-9.15,10.09-77.07-2.26-112.75a158.26,158.26,0,0,0-26.8-6.38C1028.33,135.89,1023.08,178.21,1023,178.64Z"/><path class="cls-7" d="M1007.11,184c-17-18.35-31.11-33.11-42.79-45l-.07,1.48c-1.2.4-27.59,8.94-43.27,1.42a440.58,440.58,0,0,0,18.53,62.32l81-6.67C1015.91,193.18,1011.42,188.66,1007.11,184Z"/><path class="cls-7" d="M1041,196.15l-.88.19c10.24,9.42,21,18.47,32,27,1.7-5.75,17.4-60.71,12.94-115.3a171.22,171.22,0,0,0-45.54-24.43C1051.71,122.79,1041.07,195.4,1041,196.15Z"/><path class="cls-7" d="M986.44,144.23c10.51,9.48,22.12,20.61,34.8,33.65.71-7.34,3.46-47.48-13.44-101.79a160.37,160.37,0,0,0-36.16-.59c14.06,19.59,15.7,66.23,15.77,68.33Z"/><path class="cls-7" d="M1135.18,276.53l0,1.46-90,36.27a196.45,196.45,0,0,0,24.69,7.49l89.1-33.48C1151.51,284.75,1143.51,280.83,1135.18,276.53Z"/><path class="cls-7" d="M1073.77,223.92h-1c12.21,9.49,24.65,18.41,36.86,26.67l12.85-105.44a192.93,192.93,0,0,0-35.35-35.48C1091.2,166.69,1074,223.35,1073.77,223.92Z"/><path class="cls-7" d="M1128.12,262.71c9.61,6.12,18.88,11.76,27.58,16.87l7.32-45.77A239.21,239.21,0,0,1,1150.86,200a134.16,134.16,0,0,0-6.88-19l-15.08,81.67Z"/><path class="cls-7" d="M1021.19,198.23l-.35,1.44-80.53,6.63a254.89,254.89,0,0,0,15.83,33.22l89-20.41C1036.91,212.49,1028.87,205.53,1021.19,198.23Z"/><path class="cls-7" d="M1156.78,280.21c5.87,3.44,11.46,6.63,16.7,9.56l4-28a271.75,271.75,0,0,1-13.11-25l-6.91,43.26Z"/><path class="cls-7" d="M1198.26,306.86l-35.09,17.27a341.59,341.59,0,0,0,52.08-12.53s-6.39-2.16-17.16-6.42Z"/><path class="cls-7" d="M1111.46,251l-.84.2c5.58,3.77,11.11,7.39,16.54,10.86l15.51-84a179.39,179.39,0,0,0-18.56-30.8Z"/><path class="cls-7" d="M1093,252.63a490.73,490.73,0,0,1-47.09-33l-.19,1.38L957.2,241.33a161.28,161.28,0,0,0,13.21,19.23,172.41,172.41,0,0,0,28.49,27.85C1022.71,288.61,1087.19,255.62,1093,252.63Z"/><path class="cls-7" d="M1093.48,253l.18,1.36c-2.79,1.45-64.73,33.64-92.1,36.11a179.35,179.35,0,0,0,41.14,22.82l91.89-37C1121.47,269.42,1107.55,261.66,1093.48,253Z"/><path class="cls-7" d="M1174.63,290.41c24.29,13.52,40.62,21.19,40.62,21.19s-18.19-17.51-36.28-47.32l-3.72,26Z"/><path class="cls-8" d="M1087.16,109.67c-.69-.53-1.4-1-2.1-1.58,4.46,54.59-11.24,109.55-12.94,115.3-10.62-8.28-21-17-30.94-26.06,1.34-10.07,9.66-77.35-1.66-113.67-.85-.3-1.72-.59-2.58-.88,12.35,35.68,3.53,103.6,2.26,112.75-5.43-5-10.71-10.17-15.77-15.4l-.11-.11c.64-7,3.5-49.07-13.18-103.62l-2.34-.31c16.9,54.31,14.15,94.45,13.44,101.79-12.27-12.61-23.52-23.43-33.76-32.71-.39-8.64-2.94-51.71-15.84-69.67-.91.08-1.81.16-2.73.26,13.46,16.65,16.13,59.52,16.51,67.55-48.33-43.41-73.2-51.82-73.2-51.82S922.89,97,963.89,138.6c-3.75,1.16-29.77,8.7-43.58.28.22,1,.44,2,.67,3.06,13.65,6.54,38.07.63,44.95-1.27,11.36,11.57,25,25.81,41.18,43.33,4.31,4.66,8.8,9.18,13.41,13.59l-81,6.67c.26.68.53,1.36.8,2l82.4-6.65c7.22,6.78,14.74,13.27,22.47,19.46l-89,20.41h0a15.85,15.85,0,0,1,1.13,1.79l90-20.56A494.58,494.58,0,0,0,1093,252.63c-5.77,3-70.25,36-94.06,35.78.88.68,1.76,1.36,2.66,2,25.57-2.31,83.53-31.58,93.33-36.61,13.59,8.35,27,15.82,39.7,22.4l-91.89,37c.84.33,1.67.68,2.52,1l91.88-36.75c7.64,3.91,15,7.51,21.91,10.76l-89.1,33.48,3.36.76,88.47-33c14.36,6.67,26.79,11.86,36,15.52L1157.34,325c1.94-.26,3.87-.52,5.83-.83l37.28-18c9.34,3.64,14.8,5.49,14.8,5.49s-16-7.53-39.93-20.81l3.65-26.51-1.49-2.5-4,28c-5-2.79-10.31-5.82-15.87-9.07l6.76-43.88-1.35-3-7.32,45.77c-8.44-5-17.44-10.43-26.75-16.35l15-82.32c-.42-.95-.86-1.9-1.31-2.85l-15.51,84c-5.08-3.25-10.26-6.64-15.48-10.15l12.43-104.68-1.6-2.11-12.85,105.44c-11.82-8-23.87-16.63-35.71-25.79C1076.1,217.27,1090.93,162.87,1087.16,109.67Z"/></g><g id="Calque_14" data-name="Calque 14"><path class="cls-9" d="M643.93,171.07s15.59-6.81,38.61-14.08c13.65,5.94,22.46,26.79,23.68,29.83C653.76,176.06,643.93,171.07,643.93,171.07Z"/><path class="cls-9" d="M921.6,258.26l1.1-.65-23.9-72.24a228.17,228.17,0,0,1,47.83,56.3l7.8,35.79C946.34,272.43,935.13,265.72,921.6,258.26Z"/><path class="cls-9" d="M721.41,199.55c-6,3-38.39,19-57.77,16.67a158.26,158.26,0,0,1-19.71-45.15S663.62,184.55,721.41,199.55Z"/><path class="cls-9" d="M767.5,210.58l-.33-.66,1.63.32q9.81,1.94,19.74,4.39c-5.9,4.64-50.07,38.73-82.56,45.06a160.13,160.13,0,0,1-19.29-15.64C739.56,231.87,767.22,210.79,767.5,210.58Z"/><path class="cls-9" d="M762.65,197.52c-22.56-4-40.93-7.53-55.88-10.59l1-.66c-.37-1-8.67-22.51-22.68-30.08a401.54,401.54,0,0,1,55.1-13.13l39.58,58C774.09,199.72,768.37,198.53,762.65,197.52Z"/><path class="cls-9" d="M790,215.57l-.35-.68c12.41,3.09,24.85,6.71,37.07,10.66-3.21,3.54-34.25,37-76.08,56.48A184.1,184.1,0,0,1,708,261.09C742.92,253.22,789.47,216,790,215.57Z"/><path class="cls-9" d="M722.63,199.87c12.6,3.24,27,6.55,43.34,9.81-4.9,3.51-32.35,22-80.78,32.91a150.12,150.12,0,0,1-20.25-24.41c21.84,1.49,56.38-16.67,57.93-17.49Z"/><path class="cls-9" d="M899.55,246.58l1.07-.59-23.14-76.34a203.59,203.59,0,0,1,18.93,13.74L921.08,258C914.43,254.31,907.22,250.48,899.55,246.58Z"/><path class="cls-9" d="M828,226.46l-.53-.66c13.54,4.4,26.79,9.2,39.43,14.1l-69,52.35a207,207,0,0,1-45-9.44C796.23,262,827.65,226.82,828,226.46Z"/><path class="cls-9" d="M885.71,247.48c9.69,4,18.84,8,27.29,11.83l-29,23.91a224.06,224.06,0,0,0-31.07,5.71,127,127,0,0,1-17.51,3.17l50.65-44Z"/><path class="cls-9" d="M780.63,201.23l.84-.84-39.34-57.63a250,250,0,0,1,32.64-2.94L808.83,209C799.52,206.06,790.1,203.45,780.63,201.23Z"/><path class="cls-9" d="M914,259.78c5.7,2.58,11.06,5.08,16,7.44l-18,14.29c-7.94.07-16.41.48-25.19,1.39l27.42-22.59Z"/><path class="cls-9" d="M956,277.05,949.22,246a283.6,283.6,0,0,1,19.5,40.69s-5.06-3.46-14-9.05Z"/><path class="cls-9" d="M868.16,241l-.31-.66q8.65,3.38,16.89,6.79l-52.11,45.31a182,182,0,0,1-32.39.07Z"/><path class="cls-9" d="M859.19,227.67c-15.75-6.73-32.45-13.09-49.59-18.47l.89-.7-33.84-68.71a166.71,166.71,0,0,1,21.12,1.06,185.49,185.49,0,0,1,35.69,7.91C846.65,164.91,858.17,222.5,859.19,227.67Z"/><path class="cls-9" d="M859.71,227.89l1.07-.43c-.47-2.51-11.19-58-24.4-77.72a193.41,193.41,0,0,1,39,18.61l23.63,78C886.91,240.17,873.69,233.89,859.71,227.89Z"/><path class="cls-9" d="M931.18,267.74c23.05,11,37.54,18.93,37.54,18.93s-22.6-5.16-54-5.17l16.71-13.28Z"/><path class="cls-10" d="M752.89,282.81c-.77-.25-1.53-.52-2.3-.78,41.83-19.52,72.87-52.94,76.08-56.48-11.78-3.81-23.77-7.3-35.74-10.32-6.53,5.08-50.51,38.56-82.91,45.86l-2-1.4c32.49-6.33,76.66-40.42,82.56-45.06q-9.91-2.44-19.74-4.39l-.15,0c-4.66,3.31-33.47,22.67-82,33.84-.51-.48-1-1-1.5-1.46,48.43-10.93,75.88-29.4,80.78-32.91-15.82-3.15-29.79-6.35-42.09-9.5-6.44,3.31-38.91,19.37-58.94,18-.43-.65-.87-1.3-1.3-2,19.38,2.29,51.77-13.62,57.77-16.67-57.79-15-77.48-28.48-77.48-28.48s9.83,5,62.29,15.75c-1.22-3-10-23.89-23.68-29.83l2.58-.8c12.2,6.59,21.31,25.68,23.71,31.16,14.57,3,32.28,6.34,53.82,10.17,5.72,1,11.44,2.2,17.15,3.52l-39.58-58c.64-.11,1.27-.21,1.91-.3l40.35,58.93q13.28,3.18,26.35,7.27l-34.06-69.14h0a17.36,17.36,0,0,0,1.91,0l34.49,69.88c16.59,5.28,32.76,11.44,48,18-1-5.17-12.54-62.76-25.73-78.91,1,.32,1.94.64,2.92,1,12.34,18.39,23,70,24.72,78.76,13.47,5.81,26.21,11.88,37.9,17.81l-23.63-78,2.11,1.3,23.83,77.84c7,3.58,13.63,7.11,19.77,10.48l-24.67-74.58c.8.65,1.6,1.31,2.39,2l24.69,73.94c12.68,7,23.23,13.36,30.94,18.15l-7.8-35.79c.87,1.43,1.74,2.85,2.59,4.31l7.43,32.87c7.74,4.86,12.07,7.82,12.07,7.82s-14.22-7.81-36.89-18.62L914.71,281.5h-2.62l18-14.29c-4.74-2.25-9.84-4.62-15.23-7.07l-28,22.75c-1,.1-1.94.2-2.92.32l29-23.91c-8.21-3.71-17.08-7.58-26.45-11.48L835.4,292.1c-.92.11-1.84.2-2.77.29l52.11-45.31c-5.13-2.12-10.41-4.25-15.8-6.36l-68.7,51.74-2.39-.21,69-52.35c-12.25-4.75-25.07-9.39-38.17-13.68C824.44,230.8,793.32,263.4,752.89,282.81Z"/></g><g id="Calque_5" data-name="Calque 5"><path class="cls-11" d="M1433.72,521.77a38.75,38.75,0,0,1,4.34,9.19s11.69,6.44,12,7.76-2.32,8.37-3.28,8.63-11.37-6.51-11.37-6.51a113,113,0,0,1-11.25-3.23,38.68,38.68,0,0,1-9.54-5.09c-1.46-1-7-4.08-6.4-5.47.5-1.18,7.89,1.82,9.53,3,.29.21.3-.57.3-.57s-8.95-5.14-10.73-6.64c-1.62-1.36-1.59-3-.58-3.08,1.6-.2,12.55,6,12.55,6s.56-.25.27-.47c-2.26-1.68-12.11-7.79-12.43-9.49s1.35-1.53,3.37-.22c1.43.92,9.08,5.31,11,6.35.26.14.41-.43.41-.43s-7.13-4.3-9.2-7.42c-.89-1.34.72-2.24,2.88-.91.5.31,2.38,1.41,5.47,3.53s7.5,5.56,7.19,4.64c-.16-.49-.23-.69-1.92-2.29s-4.32-5.06-2.91-5.84C1424.62,512.53,1431.43,518.6,1433.72,521.77Z"/><path class="cls-12" d="M1422.57,520.53a40.9,40.9,0,0,0-5.09,10.83"/><path class="cls-12" d="M1428.35,521.55a15.6,15.6,0,0,0,.13,4.34,19.32,19.32,0,0,0,1.22,3.45"/></g><path class="cls-13" d="M262.94,236.81H1399.7a27.63,27.63,0,0,1,27.63,27.63V855.75A31.26,31.26,0,0,1,1396.07,887H266.57a31.26,31.26,0,0,1-31.26-31.26V264.44a27.63,27.63,0,0,1,27.63-27.63Z"/><path class="cls-8" d="M262.94,236.81H1399.7a27.63,27.63,0,0,1,27.63,27.63v11.42a0,0,0,0,1,0,0h-1192a0,0,0,0,1,0,0V264.44a27.63,27.63,0,0,1,27.63-27.63Z"/><rect class="cls-14" x="329.89" y="315.93" width="362.24" height="88.28" rx="12.68"/><rect class="cls-15" x="329.89" y="434.86" width="181.12" height="29.43" rx="12.43"/><rect class="cls-16" x="612.95" y="434.86" width="181.12" height="29.43" rx="12.43"/><rect class="cls-17" x="887.09" y="434.86" width="181.12" height="29.43" rx="12.43"/><rect class="cls-18" x="1153.84" y="434.86" width="181.12" height="29.43" rx="12.43"/><rect class="cls-19" x="329.89" y="497.92" width="447.87" height="197.58" rx="15.69"/><rect class="cls-20" x="887.09" y="727.72" width="447.87" height="159.28" rx="15.69"/><rect class="cls-21" x="887.09" y="518.93" width="287.08" height="22.42" rx="8.48"/><rect class="cls-22" x="887.09" y="568.68" width="447.87" height="14.01" rx="5.13"/><rect class="cls-22" x="887.09" y="611.42" width="447.87" height="14.01" rx="5.13"/><rect class="cls-22" x="887.09" y="650.65" width="447.87" height="14.01" rx="5.13"/><rect class="cls-21" x="490.68" y="746.8" width="287.08" height="22.42" rx="8.48"/><rect class="cls-22" x="329.89" y="796.54" width="447.87" height="14.01" rx="5.13"/><rect class="cls-22" x="329.89" y="839.28" width="447.87" height="14.01" rx="5.13"/><circle class="cls-13" cx="288.54" cy="256.33" r="9.37"/><circle class="cls-13" cx="329.89" cy="256.33" r="9.37"/><circle class="cls-13" cx="371.24" cy="256.33" r="9.37"/><path class="cls-23" d="M1091.93,87.29c-1.71.49-17.4,65.52-17.93,68.37-2.78,15-6.69,22.33,5.8,25.7,5.6,1.51,10.4-12,10.4-12s17.29-37.12,20.2-42.42-3.8-26.25-4.64-35.26C1105.06,84,1099.62,85.07,1091.93,87.29Z"/><path class="cls-23" d="M1112.69,206.87c-1.14.27-27.23,8.26-44.3,14.43-6.08,2.2-7.45,8.33-3,16.81,7,13.28,17.73,14.37,21.93,13.24,15.91-4.25,45.15-14.16,45.15-14.16s7.76-4.38-.29-18.28S1113.82,206.59,1112.69,206.87Z"/><path class="cls-24" d="M1144.18,225c0,17.51,12.82,23.18,20.14,23,17.28-1.33,17.88-17.74,17.6-27.68-.5-17.36-6.94-24.06-17.49-24C1143.4,196.54,1144.13,207.4,1144.18,225Z"/><path class="cls-23" d="M1058.36,244c.62,36.71,3.91,123.68,3.91,123.68h17.45c-.72-13.47,10.66-56.66,14.6-88.31,1.83-14.72-5.1-31.72-4.82-43.95.31-13.61-8-16.71-14.44-16.1C1067,220,1058.07,226.9,1058.36,244Z"/><path class="cls-21" d="M1070.18,219.52c25.23,4.86,27.12,33,26.72,35.41,16.66,0,36.57-17.07,41.91-17,8.76.08.26-34.44.26-34.44l-28.91.43A267.44,267.44,0,0,0,1070.18,219.52Z"/><path class="cls-21" d="M1139.07,202.2l41.15-4.26s8.32,20.3,8.64,28.87c.35,9.48,1.18,27.16-18.82,31s-30.34-19.1-31.31-20.12C1133.25,231.84,1139.07,202.2,1139.07,202.2Z"/><path class="cls-25" d="M1147,227.59c8.72-14.05,25.71-14.76,33.9-5.42S1190,256.5,1170,260.31,1138.83,240.73,1147,227.59Z"/><path class="cls-23" d="M1183.81,267.42c-1,17.44-7,46.3-7.83,97.38l-16.8-.26s-10.48-89.85-12-122.35c-.6-12.64,7.56-22.33,16.67-22.94C1186.35,217.75,1184.66,253.05,1183.81,267.42Z"/><path class="cls-26" d="M1058.36,244c.62,36.71,3.91,123.68,3.91,123.68l7.91-.6c-5.75-24.86-3.5-91.1-8.52-121.24C1059.84,234.85,1058.28,239.41,1058.36,244Z"/><path class="cls-27" d="M1090.51,87.15c-3.19,3.57-13.22,39.71-13.22,39.71,6.65,12,28,15.6,28,15.6s4.29-5.53,3.62-11.33c-.69-6-3.35-30.57-4.19-39.58C1104,83.87,1094.45,82.72,1090.51,87.15Z"/><path class="cls-28" d="M1108.41,176.72c.4,7.52,1.74,27.24,1.74,27.24s3.67,4.92,28.15,2.69a345.22,345.22,0,0,0,42.6-6.46c-1.47-8.92-8.58-40.87-12.42-83.41-1.7-18.79,4.25-40-6.91-43.33-3.53.36-25.56-1.19-37.78,1.22-15.37,3-24.38,8-29,10.09-1.51,5.61,2.41,30.58,5.22,42.05C1104.13,143.69,1107.51,159.7,1108.41,176.72Z"/><path class="cls-27" d="M1106.73,159.82c1.33,7.41,3.43,44.08,3.43,44.08s2.94,5.21,28.91,2.68c-17.48-23.47-42.9-100.15-42.9-100.15C1098,124,1103.6,142.46,1106.73,159.82Z"/><path class="cls-29" d="M1091.23,394.55s-21.37,4.8-40.33,8.74c-20.39,4.24-26.26,5.57-26.26,5.57-6.71-14.91,29.84-26.31,33.34-34.18,1.59-3.57.24-12.89,1.86-14.55s21.11-4.29,22-3.46,1.6,12.76,2.39,15.05S1091.26,383.31,1091.23,394.55Z"/><path class="cls-30" d="M1091.23,394.55s-21.28,4.76-40.24,8.7c-20.38,4.24-26.45,5.72-26.45,5.72-1.23-3.46-.72-7.39,1.11-9.66,5.92,4.95,65.54-6.44,65.54-6.44A4.82,4.82,0,0,1,1091.23,394.55Z"/><path class="cls-23" d="M1090,169.75c-1.73,13.28-30.3,54.46-30.3,54.46l-9.2-3.05s13.35-45.67,16.1-51.56,10.4-16.19,15.41-14A13.13,13.13,0,0,1,1090,169.75Z"/><path class="cls-23" d="M1219.61,230.59c-2.1-3.72-9.19-18.19-9.82-19.26s1.57-7,2.58-7.4,9.82,10.52,9.82,10.52,6.76,4.06,12.65,5.07c5.63,1,14.94,6.54,16.31,8.57a19.78,19.78,0,0,1,2.5,5.71c.32,1.86-1.81,3.25-4.17,2.68-.61-.15-4.14-2-7.5-3.63-3.52-1.71-12.12-2.69-12.91-3.1,0,0,7.79,2.84,9.29,4.64,1.33,1.61,2.43,4,1.36,4.65S1221.78,234.42,1219.61,230.59Z"/><path class="cls-23" d="M1195.49,155c7.71,5.69,26.86,59.9,26.86,59.9l-8.07,5.36s-26.86-38.85-29.81-44.65-7.26-17.94-2.46-20.54S1192,152.42,1195.49,155Z"/><path class="cls-23" d="M1171.45,76.29c4,4,21,62.29,21.68,65.1,3.5,14.82,6.62,21.1-5.33,26.06-6.9,2.86-11-11.46-11-11.46s-12.55-33.68-14-39.54c-2.47-9.75-7.82-28.51-5.92-37.36C1158.32,72.4,1167.12,71.92,1171.45,76.29Z"/><path class="cls-23" d="M1138.08,30.82c.54,14-3.35,23.12-2.39,27.48a118.41,118.41,0,0,0,4.25,14.86s-3.12,11.6-12.14,12.78c-11.67,1.54-8.51-10.26-8.51-10.26s.18-8.3-1-9.12-14.15,1-19-2.37c-1.86-1.31-3.27-3.28-5.36-7.54-6.06.6-3.4-3.92-4.63-10.53-.83-4.44-2.86-8.25-3.42-10.93-2.16-10.35,8.29-23.5,16.71-26.52a26.51,26.51,0,0,1,23.58,2.83C1131,14.56,1136.84,25,1138.08,30.82Z"/><path class="cls-31" d="M1126.09,64a17.46,17.46,0,0,1-2.93,1.22,23.7,23.7,0,0,1-3.71.86,6.59,6.59,0,0,0,4.16.26A5.26,5.26,0,0,0,1126.09,64Z"/><path class="cls-32" d="M1099.93,30.43c5.24-2.3,7.39,2.59,9.35,9.41,1.73,6,5.19,8,6,8.64,1.48,1.12,0-2.39.82-7.71.44-2.71,1.2-4.57,2.95-5.63,2.78-1.68,5.25-.87,6.32,2.9,1,3.38-.21,8.33-2.09,10,9.44,13.2,14,2.72,14.07,2.68.41-1.15,5.17-14.78,4-24.42-1.22-10.06-7.82-19.74-11.33-21.54A49,49,0,0,0,1116.81,0a.21.21,0,0,0-.21.33l1,1.31a.23.23,0,0,1-.18.36c-4.72,0-11.71,0-18.1,2.82-13.87,6-21.24,16.88-19,23C1084.22,38.41,1091.12,34.32,1099.93,30.43Z"/><path class="cls-31" d="M1119.07,41.44c1.37-3.53,5.62-8.34,4.15-.32S1117.7,45,1119.07,41.44Z"/><path class="cls-10" d="M1128.33,37.88a12.9,12.9,0,0,0-1.74-3.34,5.77,5.77,0,0,0-3.88-2.38,7.7,7.7,0,0,0-6.24,2.73c-2,2.64-1.54,5.12-.69,6.44a6.11,6.11,0,0,0,3.33,2.28s.49-1.61.5-1.51c0-.37-2.2-.56-2.44-2.49a4.7,4.7,0,0,1,1-3.69,5.45,5.45,0,0,1,4.21-1.43,3.36,3.36,0,0,1,2.32,1.44q.18.26.36.54C1127.37,42.64,1128.84,39.32,1128.33,37.88Z"/><path class="cls-9" d="M1123.06,32.22a2.08,2.08,0,0,0-.9,2.24c2.16.61,3.53,2.07,3.44,7.46,0,.95,2.4,1.46,2.76,1C1129.75,41.18,1129.09,33.36,1123.06,32.22Z"/><circle class="cls-9" cx="1120.67" cy="43.18" r="2.35"/><circle class="cls-10" cx="1120.67" cy="43.18" r="1.33"/><path class="cls-28" d="M1170.1,74.58c10.8,3.7,24.05,41.39,23.87,44.16-.29,4.53-28.21,14.38-28.21,14.38s-4-16.53-5.28-22.16c-2.75-12-7-23.19-4.66-31.56C1157.6,73.07,1162.84,72.09,1170.1,74.58Z"/><path class="cls-23" d="M1052.27,235c2.57-3.42,11.46-16.85,12.22-17.83s-.66-7.09-1.61-7.67-11.08,9.17-11.08,9.17-7.24,3.15-13.21,3.39c-5.71.24-15.65,4.57-17.27,6.4a19.53,19.53,0,0,0-3.22,5.34c-.56,1.81,1.38,3.46,3.79,3.19.62-.07,4.37-1.45,7.9-2.63,3.71-1.24,12.37-1.1,13.2-1.4,0,0-8.08,1.8-9.8,3.4-1.53,1.42-2.92,3.61-2,4.43S1049.62,238.48,1052.27,235Z"/><path class="cls-29" d="M1185.31,395.61c-1.14,6-13.32,11.17-24,11.17-7.86,0-19.8-8.45-19.8-14.4s6.11-12.76,10.55-20.13c2-3.34,1.83-12.76,3.65-14.21s21.47-1.64,22.26-.71,0,12.85.51,15.23S1186.5,389.3,1185.31,395.61Z"/><path class="cls-30" d="M1185.31,395.61c-1.14,6-13.32,11.17-24,11.17-7.86,0-19.8-8.45-19.8-14.4C1151.44,408.84,1177.78,403.53,1185.31,395.61Z"/><path class="cls-33" d="M347.55,885.66c1.69,2.62,16.52,2.26,31.12,2.1,15.7-.17,30.49-1,30.49-4.25,0-3.46-5.75-6.78-13.07-7.17-4.17-.22-25.95-10.84-29.9-13.11-2.12-1.22-1.21-16.08-2.67-17.1s-17.6.74-18.14,1.54,4.25,16.05,4,18S344.55,881,347.55,885.66Z"/><path class="cls-33" d="M218.9,880.38c.74,6.86,26.66,7.38,30.54,7.38,3.53,0,8.08-2.75,8.89-6.9.71-3.62-11.95-14.07-12.81-15.72s.83-10.68-.62-11.9-9.21-.59-10.16.41-2,10.14-3,11.49S218.55,877.13,218.9,880.38Z"/><path class="cls-7" d="M322,727.26c2,12.66-2.27,20.45.65,39.31,5,32.34,16.91,78.36,21.62,94.12,11.13,6.08,21.41-.68,21.41-.68s3.71-45.43,3.6-91.81a437.18,437.18,0,0,0-3.32-50c-1.83-15.37-18.27-22.7-25.42-21C331.53,699.35,318.92,708.1,322,727.26Z"/><path class="cls-34" d="M322,727.26c2,12.66-2.27,20.45.65,39.31,5,32.34,16.91,78.36,21.62,94.12a20.3,20.3,0,0,0,9.76,2.54c-9.76-8-24.39-145.7-25.25-156.48C325.34,711.54,320.56,718.35,322,727.26Z"/><path class="cls-7" d="M351.53,615.07c.27,1.63,8.25,30.29,12,58.92,2.2,16.9.9,31,2.65,46.42,1.69,14.8-4.75,25.7-15.6,27.82-17,3.31-27.46-15-29-24.7-2.13-13.43-9.75-31.08-12.09-48.39A556.76,556.76,0,0,1,305,616.22s4.07-22.09,22.32-24.1S351.09,612.48,351.53,615.07Z"/><path class="cls-34" d="M332.66,743.09a35.83,35.83,0,0,1-11.09-19.56c-2.13-13.43-9.75-31.08-12.09-48.39A556.76,556.76,0,0,1,305,616.22l4.7-.58C309.73,640.59,326.9,706.84,332.66,743.09Z"/><path class="cls-7" d="M237.65,721.76c-1.91,12-6,19.94-7.28,35.73-2.26,28.06-2.76,65.26-2.76,102,9.76,6.68,22.86,2.06,22.86,2.06s11.56-44.85,20.86-84c6.29-26.5,10-52.77,10.49-54.72,1.19-4.83-8.24-21.66-18.47-23.43C253.52,697.68,240.37,704.55,237.65,721.76Z"/><path class="cls-7" d="M259.67,615c-.52,1-11,30.48-15.45,55.61s-4.15,32.7-6.34,48.36c-2.31,16.54,12.2,28.42,18.43,29.11,18.67,1.83,23.76-20.3,25.51-25.26s9.2-19.95,17.42-50.09a357.77,357.77,0,0,0,10.49-57.08s-4.93-19-24.09-22.29C266.71,590.1,260.87,612.71,259.67,615Z"/><path class="cls-7" d="M266.07,587.15s-1.88,7.2-3.25,12.68c-2.36,9.36-6.1,23.58-6.1,23.58l97.21,1.35-5.13-37.61Z"/><path class="cls-35" d="M302.16,624c1.37.07,2.71.08,4,.09s2.67-.06,4-.16,2.64-.26,4-.47,2.62-.5,4-.79a16.53,16.53,0,0,1-3.79,1.56,20.77,20.77,0,0,1-4.06.69A20.48,20.48,0,0,1,302.16,624Z"/><path class="cls-8" d="M266.07,587.15s-1.12,4.22-2.5,9.69c57.73,15.07,86.34-1.57,86.34-1.57l-1.11-8.12Z"/><path class="cls-33" d="M373.19,460.58c17.73,12.33,14.64,50.08,18.5,57,5.14,9.25,14.41,38.95.74,44.38-6.14,2.44-6.78,2.12-14.35-6.35s-23.83-32.1-27.49-45.77c-1.78-6.64-2.74-36.14.78-45.82S368.57,457.36,373.19,460.58Z"/><path class="cls-36" d="M384.49,562.13c-1.58-1.15-3.47-3.21-6.41-6.49-7.58-8.47-23.83-32.1-27.49-45.77-1.78-6.64,5.63-42.72,9.15-52.4C366.33,496.35,370.23,539.24,384.49,562.13Z"/><path class="cls-33" d="M386.3,534c9.76-13.55,66.71-33.58,66.71-33.58l6.82,13.69s-43,37.45-49.3,41.37-22.63,11.15-26.06,6S383.41,538,386.3,534Z"/><path class="cls-37" d="M347.46,560.18c-.83,7.94,1.34,27,1.34,27S324.75,593,308.26,593s-42.19-5.89-42.19-5.89,2.18-21.46,2-27.23c-.2-6.18-10.07-31.88-13-57.81-2.4-21.39-5.12-45.08-3.42-45.35,5.8-.92,29.35-7.8,44.89-8.87,3.49-.24,23.84,0,26.1,0,12.36,0,33.13,7.6,37.07,9.61,2.61,1.34,7.26,35.17,4.73,48.47C360.75,525.52,348.64,548.89,347.46,560.18Z"/><path class="cls-38" d="M308.26,593c-16.5,0-42.19-5.89-42.19-5.89s2.18-21.46,2-27.23c-.2-6.18-10.07-31.88-13-57.81-2.4-21.39-4.87-45.13-3.16-45.4C250.45,482.56,279.82,585.53,308.26,593Z"/><path class="cls-39" d="M293.05,448.21s6.05,14,20.93,12c14-1.91,11.84-12.19,11.84-12.19"/><path class="cls-38" d="M301,528.11s28.24,3.62,43.2-3.31C362.73,516.23,301,528.11,301,528.11Z"/><path class="cls-33" d="M289.44,407.34c6.43,15.06,6.43,23.72,7,28.82s-.86,12.39-.86,12.39,6,9.6,14.91,9.6c15.58,0,13.38-10.7,13.38-10.7s-1.92-8.34-1-9.76,18.32,1.2,22.13-4.62,2.88-35.31.9-44c-2.74-12-21.34-21-32.52-20.29a33.7,33.7,0,0,0-25.6,14C283.86,388.23,286.53,394,289.44,407.34Z"/><path class="cls-33" d="M210.15,543.81c-4.37,10,5.47,75.59,5.47,75.59l14.61,1.44s6.33-31.15,7.41-38.47c1.57-10.67,8.38-45.17-14.16-46.15C217.28,536,212.13,539.29,210.15,543.81Z"/><path class="cls-33" d="M241.28,460.26c-11.43,10.63-14.6,42.06-18.85,51.88-6.88,15.89-23.55,41.15-4.62,49.4,11.36,5,23.61-10.09,27-16,6.61-11.51,5.68-22.83,9.8-28.34s20.37-18,17.4-46C270.24,454.25,247.38,454.59,241.28,460.26Z"/><path class="cls-33" d="M293.81,405.43s-4-6.82-10.31-1.51,3.2,18.59,10.31,15.94"/><path class="cls-40" d="M288.84,406.11c-1.71-1.37-6,3.69-.17,7.34C292.72,416,290.9,407.76,288.84,406.11Z"/><path class="cls-40" d="M307.38,434.51c-1.13-1.75,7.95,2.34,15.76,2.56C322,439.89,311.46,440.86,307.38,434.51Z"/><path class="cls-41" d="M335.66,415.72c-10,0-15.85,4.33-16.57,8-.51,2.52,0,14.12,14.9,13.33,12.86-.68,12.67-6.76,13.12-11.12S345.68,415.72,335.66,415.72Zm5.14,16.13c-3.94.24-2.69-4.76-2.69-4.76h-3.26a5.06,5.06,0,0,1-1.61,4.69c-1.69,1.34-9.7.64-10.69-6.16,0-4.93,4.37-7.71,13.3-7.71s9.08,5.86,9.08,8.73S343.71,431.67,340.8,431.85Z"/><path class="cls-33" d="M238,630.53c-2.4-5.61-7.76-9.7-7.76-9.7s.27-22-1-23.2-11.18-1-12.13.32-1.47,21.45-1.47,21.45-1,8.8-2.17,16.86a66.55,66.55,0,0,0,.64,20c.6,2.51,1.45,7.13,3.43,7,1.69-.11.71-10.59.44-13.6,0-.53.86-.15.86-.15s1.91,16.85,2.57,20.07c.57,2.78,3.41,3.67,4.07,2.17,1.27-2.87-1.49-22.11-1.49-22.11s.61-.66.71-.15c.79,4,3.57,21.18,5.33,22.53s3.39.1,3.22-3.56c-.13-2.59-2.75-16.83-3.38-20.07-.09-.44.76-.38.76-.38s2.47,15.18,5.57,18.49c2,2.14,3.58.36,2.89-3.12-.18-.88-.92-7-2.13-12.14-1.27-5.42-2.82-13.4-2-12.47.46.5.64.7,1.38,4,.69,3.06,3,9,4.82,7.33C242.66,648.73,240.14,635.55,238,630.53Z"/><path class="cls-33" d="M456.78,487.17c-2.88,5.4-2.89,12.87-2.89,12.87S437,511.79,436.84,513.71s5.74,11.44,7.26,11.66,15.3-11.22,15.3-11.22a102.76,102.76,0,0,0,15.45-5.61c6.79-3.28,13.24-10.7,14.8-12.65s5.08-4.75,3.83-6.62c-1.06-1.58-8.46,5.1-10.59,7-.38.34-.62-.75-.62-.75s11.87-11,13.52-13.8,1.58-4.43,0-4.45c-2.45,0-16.42,13.15-16.42,13.15s-.86-.23-.53-.61c2.58-3,14.57-16.48,14.58-18.94,0-2.25-2.42-1.94-5.1.23-1.9,1.54-11.21,11.88-13.3,14.26-.29.33-.74-.53-.74-.53s10.11-10.71,10.84-15.54c.47-3.14-2-2-4.55-.08a80.58,80.58,0,0,0-7.33,8.12c-3.39,4.2-8.72,9.63-8.5,8.29.11-.72.16-1,2.25-3.54,1.93-2.34,5.11-7.84,2.78-8.71-1.89-.71-10.45,8.95-13,13.8"/><path class="cls-42" d="M473.16,483.57a27.69,27.69,0,0,1,6,6.09,27.29,27.29,0,0,1,3.81,7.68c-1.55-2.4-3-4.83-4.63-7.1-.81-1.13-1.68-2.24-2.55-3.35Z"/><path class="cls-42" d="M464.31,486.19a13.06,13.06,0,0,1,1.55,5.54,12.49,12.49,0,0,1-.33,2.89,11.89,11.89,0,0,1-1,2.72c0-1,.12-1.9.18-2.83s.14-1.87.11-2.75C464.81,490,464.47,488.11,464.31,486.19Z"/><path class="cls-43" d="M271.4,589c-4.53,47.17-20.25,67.68-27.67,135.94-2.23,20.46-8,40.29-12.19,136.64"/><path class="cls-11" d="M1545.11,520.05c-2.62,13.16-42.16,55.52-44.45,57.15s-5.86,3.69-9.28-.81-4.49-9.82-.69-13.57,15.28-29.76,17.9-35c3.56-7,9.65-23.2,18.24-25.65S1547.29,509.14,1545.11,520.05Z"/><path class="cls-11" d="M1490.11,581.43c-9.78-1.21-54.66-40.59-54.66-40.59l7.37-7.17s38.5,19,43.93,22.6,20,12.5,15.8,18.68C1499.41,579.53,1494.54,582,1490.11,581.43Z"/><path class="cls-44" d="M1548.5,513.84c2.62,8.56-1.52,22.94-3.38,24.49-9.81,8.16-27.31,1.71-27.11-2.38.39-7.88-.59-25.12,6.27-30.85S1544.91,502.09,1548.5,513.84Z"/><path class="cls-45" d="M1605.27,863.78c.71,2.71-5.08,10.15-15.15,17.52s-19.23,8.54-18.57,5.73c.22-.92,9.93-3.51,15.72-27.3.51-2.08-10.44-15.11-10-16.6s13.63-9.51,14.43-9.2,4.56,17.28,5.75,18.56S1603.08,855.38,1605.27,863.78Z"/><path class="cls-46" d="M1605.58,863.92c.73,2.71-6.28,9.59-12.72,20.38-5,8.32-21.87,7.21-21.31,2.73.37-2.88,3.72-2.5,6.41-6,4.46,15.92,25.88-19.26,22.37-26.3C1601.52,856.05,1603.57,856.57,1605.58,863.92Z"/><path class="cls-45" d="M1565.63,463.83c-5.07,15.23-21.11,19.27-22.32,24-3.59,14,3.88,18.14,3.88,18.14s-4.32-1.93-11.1,1.5c-3.32,1.68-22.57,7.81-23.64,6.36,7.51-9,9.68-13.11,10.45-15s2.8-12.13,2.06-13.56c-1.37-2.67-6.67-2.67-12.92-5.9-5.15-2.66-4.51-12-3.47-19.45.42-3-6.47-5.57-3.88-6.93,8.06-4.23,13.26-10.42,14.08-12.92,5.64-17.1,19.47-14.09,26.24-12.61,10.74,2.34,16.79,5.87,21.17,13.79C1569.29,446.84,1568,457.73,1565.63,463.83Z"/><path class="cls-45" d="M1510.37,884.51c-1.16,3-14.46,3.33-27.35,2.91-13.87-.45-21.52-.79-21.45-4.15.15-8.08,24.56-5.34,36.57-15.48,1.76-1.49,2.41-11.93,3.73-13s8.79-.66,9.25.18-1.1,11-.95,13S1513.94,875.34,1510.37,884.51Z"/><path class="cls-46" d="M1510.54,884.49c-.93,3.06-14.63,3.35-27.52,2.93-13.87-.45-21.52-.79-21.45-4.15.08-4.53,4.65-5.11,12.27-6.64-10.07,15.15,37.49,4.34,37.9-2.57C1512.09,876.08,1512.77,877.08,1510.54,884.49Z"/><path class="cls-47" d="M1502.32,750.8c-1.63,35-2.46,120.36-2.46,120.36a33.58,33.58,0,0,0,5.11.13,38.16,38.16,0,0,1,6.73.53c11.59-50.32,21.56-68.19,22.6-88.21.79-15.29-5.37-20-4.87-32.69.51-13-2.74-22.67-8.92-22.48C1512.75,728.69,1503.08,734.53,1502.32,750.8Z"/><path class="cls-48" d="M1508.08,651.46c-.25,2.19-4.56,38.76-6.28,73.79s-1.52,44.9,11.89,45.12c19.94.33,25.38-27.34,30.14-73.23,3.22-31.1-.27-47.62-.27-47.62s-4.72-16.24-19.12-15.46S1508.34,649.26,1508.08,651.46Z"/><path class="cls-49" d="M1550.18,595.38c1.81,1,20.5,18.23,20.16,49.33-.39,35.77-25.52,53.75-29.7,83-8.93,62.6-7.64,130.72-28.52,144.44-6.49,4.31-12.48-.67-18.59-1.48-26-32.47-1.28-129.69,0-156.49,2.81-58.14,18.57-111.79,18.57-111.79Z"/><path class="cls-50" d="M1550.18,595.38c1.81,1-5.36,103.08-9.54,132.35-8.93,62.6-7.64,130.72-28.52,144.44,8.94-9.22.51-269.2.51-269.2Z"/><path class="cls-51" d="M1488.82,863c4-.82,18.13,8.6,28.87,3.56"/><path class="cls-49" d="M1553.75,598.71c2.52,2.19,15.57,31.51,15.25,59.27-.25,21.1-4.16,58.08-1.53,90.31.94,11.57,29.3,31.71,34.17,105.29-3.22-.11-6.84,14-18.35,10.31-25.13-22.15-59.84-91.32-61.7-112.65-4.92-56.44-8.95-146.79-8.95-146.79Z"/><path class="cls-51" d="M1600.78,842.83c-2.31.92-6.9,8.17-12.55,11.83s-12.41,1.45-12.41,1.45"/><path class="cls-45" d="M1511.8,594.9c.12,3.2-.08,9.15-.08,9.15s.16,1.48,21.13,1.35c18-1.75,20.9-6.69,20.9-6.69a60.8,60.8,0,0,1-3.39-22.37c.88-28,7.14-36.1,5.12-53.33-1.6-13.69-8.79-20.8-21-20.8-14,0-15.8,4.35-22.58,12-5.76,6.47-16.1,21.57-13.86,29.51C1502.76,560.38,1510.71,567.2,1511.8,594.9Z"/><path class="cls-52" d="M1509.65,578.3s5.82,1.29,21.24,1.29c13.67-.9,19.51-4.49,19.51-4.49s7.15-34.43,5.13-51.65c-1.6-13.7-4.62-18.18-18.66-18.18-9.45.23-22,10.48-25,8.9-5.78,6.5-16.1,21.57-13.86,29.51C1502.76,560.38,1509.65,578.3,1509.65,578.3Z"/><path class="cls-53" d="M1551.11,509.49c-2.69-3-7-4.22-14.24-4.22-9.45.23-22,10.48-25,8.9a82.17,82.17,0,0,0-9.88,14.1C1499,533.88,1542.15,500.06,1551.11,509.49Z"/><path class="cls-53" d="M1509.65,578.3s5.82,1.29,21.24,1.29c16-.83,19.51-4.49,19.51-4.49s1.22-6.54,1.86-10c-10.84,4.59-28.56,5.1-46.53,2.5Z"/><path class="cls-45" d="M1547.1,508.36c12.82,4,55.52,49.08,56,53,.36,3-.67,3.37-5.49,6.3a18,18,0,0,1-10.4,2.24s-31.2-21.23-36.09-24.37c-6.64-4.26-21.61-12.1-23.17-20.9S1536.48,505.06,1547.1,508.36Z"/><path class="cls-54" d="M1585,432c6.22-5.75,17.22.16,19.58,13.61,1.24,7.05-7.22,10-6.82,15.22.64,8.28-6.27,14.36-10.36,13.74-3.54-.53-11.51-5-11.85-19.94S1578.82,437.72,1585,432Z"/><path class="cls-49" d="M1579.84,437c1.8-3.68,5.51,25.27-.36,31.94S1578,440.64,1579.84,437Z"/><path class="cls-55" d="M1527.42,424.09c-1,4.45,1.78,12.68,4.45,15.4,1.79,1.82,4.55,2.7,5.38,4.32,1,2-1.19,5-.93,7.54.49,4.73,2.91,8.72,3.83,7.24,1.93-3.11,3.45-4.82,5.47-6.09,0,0,8.42-6,8.75,4.49.18,5.81-7,12.3-10.2,9.4,0,0-.55-.43-1.43,4.94-.69,4.19,3.45,8.67,2.32,14.48,11.89-6.78,19.25,3,28.08-10,10.95-16,12-40.31-1.73-52.18-6.36-5.51-15.22-3.29-18.83-4.2s-8.78-3.66-12.33-3.71C1533.09,415.66,1528.38,419.71,1527.42,424.09Z"/><path class="cls-56" d="M1524.91,483.86s-.72,7.95,12,1.31A49.52,49.52,0,0,1,1524.91,483.86Z"/><path class="cls-56" d="M1545,457.46a12.9,12.9,0,0,1,5.27-3c1.65-.57,2.25,2.49.32,5C1546.55,464.67,1542,460.86,1545,457.46Z"/><path class="cls-57" d="M1553.62,598.52c3.22,2.21,30,23.22,19.92,78-2.14,11.56-62.84-7.85-68.43-28.52-6.43-23.76,6.54-43.94,6.54-43.94a189.19,189.19,0,0,0,23.69-.21C1547.57,602.85,1553.62,598.52,1553.62,598.52Z"/><path class="cls-58" d="M1512.64,604.45s-9.85,25.32-3.83,43c6.4,18.73,55.5,32.58,64.86,28.31"/><ellipse class="cls-53" cx="1572.96" cy="681.5" rx="1.26" ry="2.99" transform="translate(-114.96 980.77) rotate(-33.48)"/><ellipse class="cls-53" cx="1566.51" cy="682.92" rx="1.26" ry="2.99"/><ellipse class="cls-53" cx="1558.12" cy="682.22" rx="2.99" ry="1.26" transform="translate(637.54 2112.5) rotate(-80.88)"/><ellipse class="cls-53" cx="1549.2" cy="680.19" rx="2.99" ry="1.26" transform="translate(433.79 1952.41) rotate(-72.46)"/><ellipse class="cls-53" cx="1540.27" cy="677.37" rx="2.99" ry="1.26" transform="translate(745.47 2160.46) rotate(-85.55)"/><ellipse class="cls-53" cx="1532.05" cy="673.65" rx="1.26" ry="2.99" transform="translate(-36.44 89.86) rotate(-3.32)"/><ellipse class="cls-53" cx="1523.08" cy="669.44" rx="2.99" ry="1.26" transform="matrix(0.25, -0.97, 0.97, 0.25, 491.56, 1974.77)"/><ellipse class="cls-53" cx="1516.12" cy="664.34" rx="1.26" ry="2.99" transform="translate(-61.01 161.72) rotate(-5.99)"/><ellipse class="cls-53" cx="1510.18" cy="659.09" rx="1.26" ry="2.99" transform="translate(-60.5 161.07) rotate(-5.99)"/><ellipse class="cls-53" cx="1502.22" cy="632.08" rx="2.99" ry="1.26" transform="translate(203.72 1617) rotate(-60)"/><ellipse class="cls-53" cx="1502.11" cy="640.95" rx="2.99" ry="1.26" transform="translate(320.84 1768.66) rotate(-66.78)"/><ellipse class="cls-53" cx="1504.04" cy="650.96" rx="2.99" ry="1.26" transform="translate(373.1 1837.07) rotate(-69.77)"/><path class="cls-59" d="M1511.83,596.53c-.67.24-.93,6.53-.24,7.59,7.13,2.41,35.13,3.07,42.37-5.36.21-1.8-1.52-6.68-2.12-6.68C1547.64,596.9,1521.37,598.91,1511.83,596.53Z"/><path class="cls-60" d="M1511.59,604.12c7.13,2.41,35.13,3.07,42.37-5.36.21-1.8-1.52-6.68-2.12-6.68C1536,607.14,1514.83,604.5,1511.59,604.12Z"/><circle class="cls-46" cx="1546.34" cy="465.31" r="2.28"/><path class="cls-61" d="M1547.65,507.85c28.79,10.49,11.35,35.91,1.62,36.7-3.45.28-20.23-11.62-21.6-20.45S1536.11,503.64,1547.65,507.85Z"/><path class="cls-53" d="M1558.13,513.87c13.66,10.58-.77,30.35-8.86,30.68-1.75.07-3.49-1.2-4.87-2C1550.41,544.92,1567.69,522.81,1558.13,513.87Z"/><path class="cls-45" d="M1604.31,571.86c-3.53,9.2-46.66,37.6-46.66,37.6l-6.18-6.21s23.7-29,28.16-33.72,17.38-16.29,21.91-10.61C1605,563.26,1605.9,567.7,1604.31,571.86Z"/><path class="cls-45" d="M1551.8,603.06s7.68-6.28,8.9-6.07,4.32,5.5,4,6.52-7.35,6.13-7.35,6.13-.49,3-5.32,5.64c-2.86,1.58-7.33,2.09-9.5,2.94-2.83,1.1-5.3,3-6.08,1.88s5.42-4.67,7.61-5.13c.26-.06-.07-.46-.07-.46a22.05,22.05,0,0,0-6.14,1.88c-1.95,1.11-5.42,4.78-6.58,3.41-.59-.7-.29-2.34,4.3-5.23,4.26-2.68,5.23-2.94,5.23-2.94s.26-.44-.33-.38a14.29,14.29,0,0,0-5.83,2.37c-2.58,1.66-4.07,5.41-6.81,4.79-1.84-.41,1.56-4.95,4.87-7.1a28.93,28.93,0,0,1,6.27-3.06c.69-.2-.28-.55-.28-.55a25.49,25.49,0,0,0-4.19,1.6c-2.78,1.32-5.65,5-7.36,4.75-2.26-.38,2.34-6.46,6.75-8.09C1541.34,603.21,1551.8,603.06,1551.8,603.06Z"/><path class="cls-51" d="M1560,607.89l.54,1.07c1.4,3.14,1.6,5.92.32,6.7-1.59,1-4.83-1.49-7.25-5.48s-3-7.93-1.5-8.95a1.12,1.12,0,0,1,1.09-.09"/><path class="cls-51" d="M1433.85,540.45c-.72,2.8-.51,5.06.7,5.63,1.67.79,4.64-2,6.62-6.2s2.24-8.28.56-9.07a2.26,2.26,0,0,0-2.31.89"/><path class="cls-62" d="M1502.54,552c-4.45,1.38,14.89,3.81,14.89,3.81S1507,550.65,1502.54,552Z"/></g></g></svg>