<svg width="16" height="16" xmlns="http://www.w3.org/2000/svg">
 <defs>
  <clipPath id="clip1">
   <path id="svg_1" d="m0.43747,0.37498l364.5,0l0,364.5l-364.5,0l0,-364.5zm0,0"/>
  </clipPath>
 </defs>
 <g>
  <title>background</title>
  <rect fill="none" id="canvas_background" height="18" width="18" y="-1" x="-1"/>
 </g>
 <g>
  <title>Layer 1</title>
  <g stroke="null" id="surface1">
   <g stroke="null" id="svg_2" clip-rule="nonzero" clip-path="url(#clip1)">
    <path stroke="null" id="svg_3" fill-rule="nonzero" fill="rgb(67.83905%,71.369934%,98.039246%)" d="m8.18329,0.37498c-4.30565,0 -7.80832,3.4939 -7.80832,7.78878c0,4.29488 3.50266,7.78878 7.80832,7.78878c4.30565,0 7.80832,-3.4939 7.80832,-7.78878c0,-4.29488 -3.50266,-7.78878 -7.80832,-7.78878zm3.95755,6.13824l-4.22951,4.21892c-0.12703,0.12654 -0.29355,0.19015 -0.46007,0.19015c-0.16669,0 -0.33321,-0.0636 -0.46007,-0.19015l-2.11475,-2.10946c-0.25439,-0.25392 -0.25439,-0.66409 0,-0.91784c0.25439,-0.25375 0.66559,-0.25375 0.92014,0l1.65468,1.65054l3.76943,-3.76c0.25439,-0.25375 0.66559,-0.25375 0.92014,0c0.25439,0.25375 0.25439,0.66392 0,0.91784zm0,0"/>
   </g>
  </g>
 </g>
</svg>