<svg xmlns="http://www.w3.org/2000/svg" viewBox="0 0 500 500"><defs><style>.cls-1{fill:#adb6fa;}.cls-2{fill:#a371d0;}.cls-3{fill:#fc1ba7;}.cls-4{fill:#fd9262;}.cls-5{fill:#fee862;}.cls-6{fill:none;}</style></defs><g id="Calque_2" data-name="Calque 2"><g id="Calque_1-2" data-name="Calque 1"><path class="cls-1" d="M351.31,323.24a125,125,0,0,0-.18-146.71l-.19-.27C283.56,79.91,161.67,51.42,57.22,90.82A250.27,250.27,0,0,1,341.76,17.38C411.58,104.55,422.16,229.34,351.31,323.24Z"/><path class="cls-2" d="M500,250q0,7.8-.48,15.48c-61.09,92.89-175.77,141.46-286.51,104a125.19,125.19,0,0,0,138.12-46l.18-.23c70.85-93.9,60.27-218.69-9.55-305.86C434.43,54,500,144.32,500,250Z"/><path class="cls-3" d="M499.52,265.48c-6.68,109.6-84,200.13-187,226.64C204.69,462.61,122.73,367.74,125,250a125.07,125.07,0,0,0,88,119.43h0C323.75,406.94,438.43,358.37,499.52,265.48Z"/><path class="cls-4" d="M312.5,492.12A250.38,250.38,0,0,1,39,384.2h0C33.85,273.07,98.12,166.32,209.82,131.6A125,125,0,0,0,125,250C122.73,367.74,204.69,462.61,312.5,492.12Z"/><path class="cls-5" d="M350.94,176.26a125.16,125.16,0,0,0-141-44.69l-.09,0C98.12,166.32,33.85,273.07,39,384.18A250.06,250.06,0,0,1,57.22,90.82C161.67,51.42,283.56,79.91,350.94,176.26Z"/><path class="cls-6" d="M375,234.52a124.39,124.39,0,0,1-23.69,73.24l-.18.24A125.2,125.2,0,0,1,213,354h0a125.05,125.05,0,0,1-3.15-237.83l.09,0a125.15,125.15,0,0,1,141,44.7l.19.26A124.36,124.36,0,0,1,375,234.52Z"/><path class="cls-6" d="M213,354l-1.59-.54"/><path class="cls-6" d="M351.13,161.05l-.19-.26"/><path class="cls-6" d="M75.65,150.79v-.06"/><path class="cls-6" d="M211.38,115.64l-1.47.45"/></g></g></svg>