<svg xmlns="http://www.w3.org/2000/svg" xmlns:xlink="http://www.w3.org/1999/xlink" viewBox="0 0 477.45 579.26"><defs><style>.cls-1{fill:none;}.cls-2{isolation:isolate;}.cls-3{clip-path:url(#clip-path);}.cls-4{clip-path:url(#clip-path-2);}.cls-5{fill:url(#Dégradé_sans_nom_2);}.cls-6{fill:#9a5742;}.cls-7{fill:#3b3f50;}.cls-8{fill:#b6becf;}.cls-9{fill:#f29065;}.cls-10{fill:#e0e5e8;}.cls-11{fill:#ed6a3c;}.cls-12{fill:#f7b39b;}.cls-13,.cls-18{opacity:0.24;mix-blend-mode:multiply;}.cls-14,.cls-18{fill:#814937;}.cls-15{fill:#2c1913;}.cls-16{fill:#90513e;}.cls-17{fill:#6f3e30;}.cls-19{fill:#babece;}</style><clipPath id="clip-path" transform="translate(-0.04)"><rect class="cls-1" x="9.1" y="63.35" width="459.26" height="130.67" transform="translate(-26.64 72.74) rotate(-16.42)"/></clipPath><clipPath id="clip-path-2" transform="translate(-0.04)"><path class="cls-1" d="M41.41,151.09c-2.86,1.48,7-6.82,2.62-3.76l-3,2.87-3,3c1-2-1.89-.22-1.42.79,1.45-.76.08.55-1.3,2s-2.73,2.85-1.29,2a17.1,17.1,0,0,1,2.12-2.41c.75-.73,1.55-1.39,2.29-2A19.07,19.07,0,0,0,41.41,151.09ZM225,107c.49-2,4-2.67,6-5.25C230.49,104,227.46,105.21,225,107ZM369.53,65.56c0,.1-.13.33-.27.66s-.13.29-.18.41-.12.25-.2.39-.22.42-.34.62l0,0,1.11-1.78v0l-.15-.11-.29-.21c-.4-.29-.79-.54-1.17-.82L366.93,64c-.33-.23-.65-.42-.94-.6a14.56,14.56,0,0,1,3.58,1.69l.24.15.13.08,0,0c-.64,1,1.45-2.3-1.44,2.31l0,0,0-.08.07-.16A10.29,10.29,0,0,0,369.53,65.56ZM72.65,125.21c0-1.45,3-2.6,4.12-3.4C76.65,123.64,73.86,123.88,72.65,125.21Zm143.11-10.47c-.9.71-1.82-.21-1.6-1.32.56-.15.8,0,1,.24S215.52,114.4,215.76,114.74Zm36.43-28.27c-3.45,1.42-.05-1,2.56-2.56S259.09,81.66,252.19,86.47Zm-110.5,3.62c-.75.78-2.76,1.35-5.18,2s-5.25,1.28-7.59,2.09a16.27,16.27,0,0,1,4.66-2.24A30.35,30.35,0,0,1,141.69,90.09Zm3.8,2.14c-.39.53-2,.81-3.88,1.09a35,35,0,0,0-5.3,1,11.94,11.94,0,0,1,4.1-1.68A20.84,20.84,0,0,1,145.49,92.23ZM368.22,70.71a1.36,1.36,0,0,1-.47.68.2.2,0,0,1-.3-.13,1.42,1.42,0,0,0-.19-.39c-.09-.07-.09-.21-.26-.11a1.39,1.39,0,0,1,.32-.42s.08-.06.13-.08a.61.61,0,0,1,.18-.05c.11,0,.18.08.31.16A.55.55,0,0,1,368.22,70.71Zm9-.5c-1.38,1-2.32,1.05-2.4.81S375.33,70.37,377.19,70.21Zm-304,62.69c3.47-.63,1.19,3.25,5.21.88-.26,1.68-3.46,2.18-4.7,2.75-5,8.28-14.33,11.23-22.15,20.29a51.25,51.25,0,0,1,4-5c1.54-1.72,3.23-3.47,5-5.08.87-.82,1.78-1.62,2.69-2.4s1.81-1.48,2.71-2.16a48.06,48.06,0,0,1,5.19-3.51c-3.63,1.63-.26-.51.67-2.32-3.77,1.4-7.47,6-10.52,7.88a33.38,33.38,0,0,1,5.22-5.69C68.58,136.71,71,134.75,73.18,132.9ZM53.85,151c.27-.93,1.43-2.07,2.77-3.22a50.11,50.11,0,0,0,3.8-3.32c-.29.93-1.44,2-2.76,3.13A44.72,44.72,0,0,0,53.85,151ZM28,182.45c.91-.88,1.56.28,2.64-2,.18,1.48-3.19,4.37-4.32,6.57-1,.65-.24-.4.56-1.66S28.57,182.7,28,182.45Zm114.82-83.1c-.89.93-3.16,1.56-6.17,2.24-.66-.65.34-1.09,1.78-1.42S141.69,99.66,142.78,99.35Zm-18.86,8a48.83,48.83,0,0,1-4.55,2.9L117,111.57,114.37,113c0-1,1.8-2.16,3.82-3.18l1.55-.73c.55-.24,1.09-.49,1.67-.71C122.52,107.9,123.43,107.55,123.92,107.32ZM379.53,84.7a31.82,31.82,0,0,1-10.27.62A23,23,0,0,1,367,85c-.76-.12-1.42-.37-2.15-.51s-1.32-.43-1.93-.71a14.75,14.75,0,0,1-1.74-.84c.63-1,.89-.94,1.28-.71.19.11.39.3.62.47a1.33,1.33,0,0,0,.84.33c.15-.6.39-.87.67-.93s.61.2,1.11.44a11.82,11.82,0,0,0,3.9,1.85c1.83.44,3.74-.21,5.36-.46a5.85,5.85,0,0,1,2.37-.18A3.61,3.61,0,0,1,379.53,84.7Zm-19.4-2.78a.72.72,0,0,1-.29,0c-.12,0-.11,0-.58-.27a24.46,24.46,0,0,1-2.34-1.6c-1.56-1.21-3.18-2.59-4.35-3.65s-1.88-1.77-1.52-1.72,1.77.86,4.73,3.14a33.33,33.33,0,0,1,3.1,2.82c.19.21.41.4.58.58s.44.4.41.43A.55.55,0,0,0,360.13,81.92Zm-13.46-6.66c-.59-1.47-2.29-2.48-4.3-3.22s-4.34-1.29-6.31-2a15.06,15.06,0,0,1,6.72,1.28C345.27,72.35,347.22,74,346.67,75.26ZM36.49,187.54c.54-2.23,7.56-10.46,7.91-9.68-1.1,1.27-1.88,2.24-2.5,3l-1.55,2c-.46.59-.92,1.14-1.54,1.85S37.51,186.35,36.49,187.54ZM28.08,206c-.31,2.45-1.7,5.78-3.23,9.2a29.61,29.61,0,0,1,1.07-4.33c.26-.77.53-1.57.88-2.39S27.6,206.88,28.08,206ZM60,190.66c-3.32,5.5-7.54,9.21-10.07,12.79a27.57,27.57,0,0,1,4.61-7.17C56.48,194.07,58.47,192,60,190.66ZM66,184.71c-.18,1.67-1.83,3.25-3.63,4.58C61.43,187.63,64.7,186.12,66,184.71Zm3.83-2.63c.93-2.06,3-3.42,4.63-4.52,0,.61-.9,1.67-1.92,2.59A10.61,10.61,0,0,1,69.84,182.08Zm46.62-39a29.71,29.71,0,0,1,8.52-6C123.19,139.74,119.07,142.59,116.46,143Zm3.7-.35c-1.1,1.48-3.85,4.32-6,4.76A15.93,15.93,0,0,1,120.16,142.69Zm4.49-1.27c.89-.55,1.8-1.09,2.71-1.61.21.37-.49.68-.85,1,1.54.15,1.28-.26.69,1.13C126.42,141.59,125.15,142.42,124.65,141.42ZM77.08,183.71c-1.77,1.16-3,2.53-5.66,5C70.13,189.44,76,182.24,77.08,183.71Zm82.24-46.54a53.68,53.68,0,0,0-12.24.84,45.48,45.48,0,0,0-6.21,1.68c-1.05.36-2.09.78-3.14,1.25-.52.24-1,.46-1.58.73l-1.71.88c.92-.61,1.86-1.23,2.78-1.75.48-.28,1-.53,1.46-.78s1-.52,1.56-.75A33.75,33.75,0,0,1,147,137a27.81,27.81,0,0,1,6.78-.66A21.7,21.7,0,0,1,159.32,137.17ZM59.94,207.89c1.84-1.42,1.86-3.42,4-4.54C63.54,205.55,61.92,208.39,59.94,207.89Zm6.7-7.81c1.15-3.26,5.34-5.07,7-8.48-.25,1.81,1.24-.11,2.07,1.06C70.91,195.89,70.48,198.2,66.64,200.08Zm70.66-57.92c-.42,1.27-4.1,2.14-5.82,3.47-.24-.39.9-1.21,2.29-1.94.69-.37,1.43-.71,2.09-1S137,142.26,137.3,142.16ZM69.71,206.93l1.83-2.22c1.57.46-.58,1.81-1.12,2.76C70.17,207.29,69.93,207.1,69.71,206.93Zm74.51-54.21c-.14-.83.45-1.23,1.24-1.46a20.5,20.5,0,0,0,2.35-.61c.86.27,0,.44-1.07.76S144.33,152.2,144.22,152.72Zm-63,51.79A8.36,8.36,0,0,1,79.85,207c-.61.79-1.32,1.55-2,2.37s-1.62,1.68-2.46,2.65a38,38,0,0,0-2.47,3.31C73.06,212.53,77.7,209.1,81.19,204.51Zm63.61-51c.3-1.24,2.46-1,3.52-1.55C147.85,153.05,145.83,152.74,144.8,153.46Zm16,5c-.57.32-.84-.06-1.18-.52s-.75-1-1.43-.94c-.08-.44.61-.35,1.3,0S160.83,158.05,160.78,158.47Zm2.64,1.51c-.76.65-1.21.38-1.55-.08s-.56-1.1-.67-1.15C162.07,158.09,162.7,159.69,163.42,160Zm-19-1.53c0-1.13,1.86-1,2.65-1.55.06.73-.48,1-1.12,1.11S144.57,158.23,144.37,158.45Zm-38.66,29.32a5.71,5.71,0,0,0,2.77-2.38C110.06,185.85,106,189.37,105.71,187.77Zm23.16-18.53c2.39-.54,5.56-4.27,7.79-4.4.27,1.58-.94,2.79-2.66,4s-3.92,2.31-5.49,3.49C128,171.92,130.64,170.29,128.87,169.24Zm18.31-10c.29-1.2,2-.82,3-1.26a1.42,1.42,0,0,1-1.25,1.31A3.3,3.3,0,0,1,147.18,159.22ZM98.85,196.91c-.19,1.53-3.32,3.39-4.65,5C93.41,200.62,97.46,197.39,98.85,196.91Zm5.69-3.34c1.25,2.69-5.26,5.37-8.65,9.24C97.44,198.86,102.83,196.63,104.54,193.57Zm45.85-26.95a.86.86,0,0,1,1-.68,3.94,3.94,0,0,0,1.18,0,1,1,0,0,1-1,.52A1.58,1.58,0,0,0,150.39,166.62Zm-41.13,31.12c1.22-2.25,6.17-6.27,8.23-6-1.33,1.1-2.48,2-3.75,2.87S111,196.51,109.26,197.74Zm5.78-3.27a41.16,41.16,0,0,0,3.46-2.58c1.21-1,2.59-2.1,4.28-3.38C121.92,190.35,117.07,194.36,115,194.47Zm28.8-22.07c-2.24,1.79-5.83,4.48-9.65,7.5-2,1.57-4,3.12-5.77,4.5-2,1.56-3.84,2.87-5.16,3.71l6.1-5c1.86-1.55,3.71-3,5.47-4.4A88.41,88.41,0,0,1,143.84,172.4Zm160.58-26c1.52-1.52,2.45-.84,4-2.33C308.55,144.74,304.88,148,304.42,146.41Zm5.66-3c.2-1.37,3.49-2.65,4.94-3.93C314.78,140.88,311.51,142.13,310.08,143.44Zm14.41-8.75c-.28.8-.44,1-.63,1s-.38-.21-.61-.31a.37.37,0,0,0-.58.2c.12-1.08.67-1.16,1.19-1.06Q324.17,134.63,324.49,134.69ZM178.22,192.51a87.07,87.07,0,0,1-8.8-6.21c.77.38,3.11,1.56,5.19,2.76S178.5,191.5,178.22,192.51Zm-35.81-16c-.07-1.18,2.45-1.84,3.32-2.65C145.81,175,143.39,175.5,142.41,176.5ZM351.64,54.24c-1.68-.14-5.55-1.3-6.59-2.17a31.39,31.39,0,0,0-3.85-1.2c-1.56-.39-3.32-.75-4.92-1-3.21-.54-5.79-.76-4.79-1.16a48.36,48.36,0,0,1,11.19,2.24C345.88,52,348.72,53.08,351.64,54.24ZM93.38,121.81c-.44-.74,2.38-1.11,3.76-2.73-1-.34-2.09,1.1-1.43-.62a57.87,57.87,0,0,0-10.07,6c-1.57,1.12-3.17,2.28-4.82,3.48-1.5,1.07-3.08,2.14-4.78,3.18-.78.08.21-.84,1.55-1.91s3-2.29,3.84-3.12c-1.7,1.23-3.54,2.55-5.43,3.89s-3.78,2.77-5.63,4.19-3.65,2.92-5.28,4.38a44,44,0,0,0-4.21,4.27c-.25-.6,1.06-1.42,1.8-2.16-5.72,4.84-12,10.34-19.54,16.28,5.1-5.72,11-12.39,17.09-18.33a121.42,121.42,0,0,1,9.29-8.22c1.54-1.21,3.11-2.38,4.64-3.41s3-1.92,4.66-2.8c.65-.66,0-1.15-.58-.67a49,49,0,0,1,12-10.17,111.9,111.9,0,0,1,14.78-7.8c.81.6.09,1.3.18,2,1.52-.88,3-1.77,4.62-2.64.85.63-.74,1.34-1.89,2.07,1.76-.8,3.54-1.61,5.38-2.41.91-.41,1.84-.8,2.81-1.18s2.06-.86,3.25-1.33a116,116,0,0,1,14.3-4.7,83,83,0,0,1,29.53-2.43,69.26,69.26,0,0,1,28,9.21,86.6,86.6,0,0,1,12.21,8.74l2.86,2.5,1.34,1.23.94.88.85.82a1,1,0,0,1,.18.18l.33.37c-.08-.23-.15-.45-.24-.65a.68.68,0,0,0-.1-.17l-.54-.59c-.37-.37-.73-.75-1.09-1.14l-.72-.72-.87-.84-1.69-1.54c-1.12-1-2.28-2-3.43-2.94A76.54,76.54,0,0,0,186.76,101c-10.06-4.81-20.48-7.4-31.89-8.92-1.16,0-2.33,0-3.49.11-5.08.38-.21-.82,2.34-.53a67.18,67.18,0,0,1,10.55.52c1.74.21,3.43.43,5,.68s3,.42,4.24.54c0-.41-.93-.72-1.95-1a5.9,5.9,0,0,1-2.43-.85,49.56,49.56,0,0,1,13.4,3.23,68.93,68.93,0,0,1,15.09,8c2.38,1.64,4.65,3.37,6.75,5.11,1.06.87,2.06,1.73,3,2.58s1.88,1.64,2.85,2.52c.62.54,1.21,1.08,1.75,1.56a4.17,4.17,0,0,1,.38.34c.12.1.31.27.28.22l.11,0a.67.67,0,0,0,.46,0,2.73,2.73,0,0,0,3.49,1.48c-.28-1-.55-1.12-.9-1.2.23-.64.46-.86.65-.8s.42.4.62,1c.06,1.12-.22.27-.3.53a1.3,1.3,0,0,0,1.26.9,2.18,2.18,0,0,0,1.27-.72c.38-.36.72-.8,1.1-1.16l.15-.15.05,0,.07-.07.17-.15,2.74-2.46c1.88-1.6,3.77-3.22,5.78-4.76-2.61.62-.67-1.15,2.23-3.3,1.47-1.06,3.18-2.22,4.68-3.22s2.82-1.83,3.49-2.31c8-5.85,16.26-13.89,21.08-15.05,3.36-2.56,6.92-5.15,10.65-7.64,1.85-1.28,3.74-2.49,5.66-3.73l1.57-1,2.42-1.49c1.6-1,3.23-2,4.84-3s3.26-1.88,4.86-2.83l2.44-1.39a25,25,0,0,1,2.43-1.32l4.9-2.36c.81-.39,1.61-.78,2.43-1.15s1.62-.67,2.43-1a58.72,58.72,0,0,1,19.12-3.81,59.38,59.38,0,0,1,10,.8l-10,.11a67.51,67.51,0,0,0-17.2,3.08,42.52,42.52,0,0,0-4.59,1.69l-4.61,2.12a85.44,85.44,0,0,0-9,4.84c-2.47,1.42-5.1,3.2-7.82,5-.66.45-1.35.91-2,1.35-.4.25-.58.39-.8.55l-.6.43-2.39,1.72a3.58,3.58,0,0,0,2.59,0,9.35,9.35,0,0,0,1.58-.62l.5-.24.68-.37,1.39-.8c1.88-1.1,3.89-2.4,5.9-3.68l5.89-3.66a33.51,33.51,0,0,0-5.4,2.49c-2,1.06-4.07,2.34-5.95,3.32,1.38-1,2.82-1.93,4.3-2.89s3-1.87,4.63-2.81l2.39-1.42a24.38,24.38,0,0,1,2.46-1.33L301.65,60c.88-.39,1.75-.88,2.64-1.21s1.8-.7,2.7-1c1.82-.63,3.67-1.2,5.57-1.67a58.26,58.26,0,0,1,11.93-1.71c.45,0,.88,0,1.33,0a10,10,0,0,0,1.34.05c.91,0,1.82.06,2.74.1a24.93,24.93,0,0,1,2.73.24c.91.08,1.82.23,2.72.37,5.34-1,12.12,1.36,18.48,5.86a96.69,96.69,0,0,1,9.32,7.67c.72.67,1.57,1.36,2.37,2l.6.5.14.12v.23c0,.26.12.33.21.46s.45-.71.52-.73c.54-.24.88,0,1.73.27a14,14,0,0,0,3.28.82c2.73.36,6.47-.27,8.14-2.59.4-.18.82-.35,1.25-.53s.84-.4,1.29-.62.85-.45,1.28-.66l.67-.35c.26-.17.53-.31.78-.47a54,54,0,0,0,6.88-4.79,85.66,85.66,0,0,0,14.8-16c0,2-2,2.18-2.76,4.21,2.57-.78,3.3-4.4,6.18-6.63-.61,3,2.23,1.13,3.93,1,1.13,2.31,3.17,4.55,3.49,6.16a21.79,21.79,0,0,1-2.12,2.56c-.82.88-1.7,1.79-2.44,2.65-1.49,1.7-2.46,3.27-1.4,4.37,1.66,1.84,7.17-2.4,8.2-6.06,3.42-.23,5.55-4.86,9.32-4.33,1.23.81-.33,2.31,0,3.33,2.77-.6,6.38-1.65,7.86-.08.18,2.51-.72,3.18,1.74,4.79-1,1.12-.66,1.89-2.21,3.14.92,1.88,2.29-.43,3.42-.46,1.73,1.26-.16,3.85,2.57,3.83-.45,1.48-2.64,3.39-2.42,4.71,1.42.59,3.15-1.12,4.55-.38,1.27,3.42.81,7.31,0,11.3,3.28-1,1.15-2.65,2-3.54,1.9-2,.32.09.67.58,2.51.81,3.55-5.58,5.8-3.75.84-3-2.2-2.86-4.28-5.28,3.91-1.23,5.8,3.09,5.32,6.14-1.14,1.06-2.18,1.38-3.43,3.15,2.92-.37,5.94,1.61,8.48,1.94.15.85-.92,2-1.55,3.07,3.44-1.11,3.6,4.79,7.27,2.61-1.65,5-.9,7.18-3.16,12.07.53.3,1.25-.32,2-1s1.4-1.37,2-1.3c1.48,2.29.18,5.4.39,8.11-1.41,1.48-2.8,2.93-4.29,4.42-.3-.45.75-1.28,1.31-2a21.44,21.44,0,0,0-4.54,3.49c-1.67,1.54-3.41,3.34-5.3,5.09-3.7,3.49-7.82,6.69-11,6.8,3.91-2.21,7.8-7.12,10.35-8.9-3.95,2.31-8.38,5.28-13.47,8.61s-10.76,7-17.14,10.37c-.82.42-1.56.86-2.43,1.28l-2.63,1.3c-1.76.89-3.55,1.67-5.38,2.46s-3.65,1.52-5.51,2.2-3.72,1.31-5.62,1.92a102.35,102.35,0,0,1-23.24,4.53c2.59-.85,1.86-1,.07-.9-.91,0-2.06.17-3.26.22s-2.42.09-3.36.1c1.43,1.16-2,1.26-6.66.63l-1.78-.24c-.61-.1-1.23-.22-1.88-.34l-3.71-.73c-2.44-.51-4.71-1.11-6.3-1.31-.43.92,4.05,1,5.69,1.49a23.33,23.33,0,0,1-6.09-.55c-1.23-.22-2.6-.63-4-1s-2.84-.84-4.31-1.46-3-1.22-4.42-1.85-2.89-1.44-4.28-2.17-2.73-1.44-4-2.22l-1.8-1.11-.21-.12v0a1.74,1.74,0,0,0-.19.36v0l.2.13c.17.1.34.2.52.29l1,.62c-.17.2-.53.14-1.05-.06a7.56,7.56,0,0,1-.85-.43l-.15-.07s0,0,0,0,.07-.07,0-.13-.08-.08-.14,0c.2-.38.28-.25.37-.29.31-.58-.16-.31.18-1-.72-.49-.68-.72-.37-.68a2.11,2.11,0,0,1,.63.24c.08.06.28.15.28.2l0,.07,1.69,1-.72-.73a3.46,3.46,0,0,0-.39-.37l-.19-.2c-.05-.05-.17-.15-.13-.14.06-.16.12-.31.16-.46a1.57,1.57,0,0,0-.17-.86,3,3,0,0,0-1.08-1.25,5.49,5.49,0,0,0-3.2-.8,4.24,4.24,0,0,1-.72,0,6,6,0,0,0,.72.55,10.89,10.89,0,0,1,1.65,1,2.45,2.45,0,0,1,.68,2.22,3.55,3.55,0,0,0-2.34-1.11,5.08,5.08,0,0,0-2.12.76l-1.65.84s-.26-.13-.49-.25l-.34-.15c-.06,0-.07-.05-.16,0a2.11,2.11,0,0,0-.33.18c-2,1.51-4.8,5.58-7.71,6.18-.63.57.62,1.21-.17,1.74-5.05,1.3-7.32,5.43-13,9.5,1.7.56,4.64-3.65,6.16-2.39-4.79,1.61-8.18,7.18-12.32,6.68.23,3.39-5.25,5.07-8.37,8.74a68.88,68.88,0,0,1-6,5.26c-.7.58-1.41,1.19-2.13,1.81l-4.61,4.13c-1.52,1.39-3.1,2.71-4.63,4s-3.07,2.59-4.57,3.76c-9.79,7.9-21.26,14.38-34.44,17.07-.8.2-1.65.28-2.47.44s-1.66.3-2.51.37c-1.68.14-3.39.32-5.09.4-.86,0-1.72.1-2.58.12l-2.58-.06c-1.74-.09-3.46-.15-5.19-.38a65.7,65.7,0,0,1-10.25-2,68.43,68.43,0,0,1-9.91-3.69,81.47,81.47,0,0,1-18.47-11.94c-2.93-2.4-5.76-5-8.56-7.69l-3.72-3.51-.88-.79-.09-.09h0v0l0,0a7.64,7.64,0,0,0-2.12-1.21.49.49,0,0,1-.2,0,1.34,1.34,0,0,1-.2,0c.17-.52.4-.55.59-.44s.36.32.58.2c.51-.5,1.17.08,1.66.47.61-.87.52-1.16.32-1.37s-.48-.28-.38-.9c.56-.69,1-.63,1.44-.31a3.58,3.58,0,0,1,.56.6,3.88,3.88,0,0,0,.26.31s0,0,0,0l.1.1.65.59c-.13-.25-.29-.52-.41-.74l-.1-.16,0,0,0-.09a1.36,1.36,0,0,0-.18-.43,1.67,1.67,0,0,0-.73-.57,8,8,0,0,1-2-.93,3.8,3.8,0,0,0,0,1c-.63,1.23-.31-.39-.1-1a6.66,6.66,0,0,0-5.11-.12,12.22,12.22,0,0,0-1.16.48c-.09,0-1.53.74-2.55,1.29a84.94,84.94,0,0,0-7.24,4.52c-2.56,1.75-5.21,3.73-8,5.87l-2.08,1.64-2.2,1.76c-1.61,1.29-3.22,2.57-4.82,3.87-6.14,4.86-12.38,9.82-18.89,15-1.14,1-2.22,2.07-3.29,3.09-.64,1.07-2.9,2.14-1.11.46a29.16,29.16,0,0,1,3.13-2.91,6.82,6.82,0,0,0,2.34-2.83c.87.37,2.34-2.26,3.21-1.69,1.06-2.86,5.71-4.06,6.91-6.59a6.2,6.2,0,0,0-3.73,1.29c-1.1.76-2.26,1.79-3.82,2.89,1.22-3.08,5.74-6.18,8.58-8.55-2.45,1.13-5,2.44-6.62,4.48a6.42,6.42,0,0,1,1.3-3,8.42,8.42,0,0,0,1.54-3c-3.13.43-7.12,4.76-10.39,6.65,0,.34,1.15-.27,1.2-.47-.28,1.42-1.48,2.86-3,4.34-.79.74-1.71,1.46-2.69,2.21s-2,1.49-3,2.22-2.07,1.49-3.07,2.22-2,1.46-2.84,2.21A15.27,15.27,0,0,0,83.2,207c-.36-.51.62-1.28,1.14-1.92-1.89.68-1.87,2.45-4,3.82,0-1.08,1.13-2.39,2.14-3.68s2-2.54,1.41-3.56a130.89,130.89,0,0,1,9.52-9.4c1.3,0-3.57,3.72-4.78,5.19,2-.31,4.58-3.75,7.91-6.25-.58-.92-1.82,2-2.25.26,8.42-6.85,13.38-13.2,21.91-20-6,3.58-12.61,10.27-18.38,15,.78-1.75,2.66-3.62,4.92-5.5-3.61.34-7.27,6.48-10.21,7.87-4.56,3.64.63-1.14,3.29-3.58,1.56-1.44,3.34-3,4.87-4.34a21.2,21.2,0,0,0,3.23-3.3c.35,1-3.73.19-1.85-.19-4.48.93-8.44,6.21-14.27,10.91.69-2.21,3.52-5.44,6.78-8.57,1.63-1.58,3.37-3.12,4.94-4.55s3-2.69,4-3.71c-2.15.46-5.09,4.1-7.49,5.81-1.21,1.07-.8.26-1.09-.25-1.75,1.51-3.42,3-5.15,4.56-1.16,1.47-4.53,3.57-1.68.93,2.81-3.4,7.85-7.83,12.38-9.67,1.15-1,.9-1.79,2.61-2.79-5.33,2.67-14.37,9.9-19.83,16.35-.38-.7-.94-.26-1.51.22-1.42-2.38,2.34-3.69,4-5.62,6.35-7.32,11.71-14.21,23-22,1,0-7.07,6.74-.4,1.48,1.39.61-.58,1.51-1.39,2.32,3.82-.7,7.3-5.32,10.38-6.06,1.46.9-1.5,1.94-2.32,2.94.85.11,2-.83,2.76-.46a36.63,36.63,0,0,1-3.73,3.48c-1.7,1.48-3.89,3.31-5.65,4.7,5.12-3.53,9.31-6.5,13.47-9.26s8-5.24,11.8-7.39c.95-.55,1.9-1.07,2.85-1.57.47-.24.94-.51,1.42-.74l1.34-.66c1.54-.74,3.14-1.45,4.81-2.06a29.86,29.86,0,0,1,11.17-2,12.21,12.21,0,0,0-4.81-.49c-1.75.13-3.51.46-5.15.74a4.94,4.94,0,0,1,2.32-1.34,16.4,16.4,0,0,0,2.84-1.07,18.21,18.21,0,0,0-6.45.63,28.09,28.09,0,0,0-6.56,2.88.78.78,0,0,0,.76.54,2.89,2.89,0,0,0,1.06-.28c.75-.34,1.59-.76,2.1-.5-.65.41-1.36.78-2.09,1.24l-2.58,1.48c-1.94,1.11-4.06,2.37-6.21,3.67-4.3,2.6-8.8,5.39-12.5,7.31,4.52-3,7.86-5.86,13.55-9.27-3.81,1.21-5.78,3.1-9.27,5-.5.32.53-.91,1.65-2s2.29-1.92,2-1.08a76.94,76.94,0,0,1,8.55-6.65c.77-.52,1.61-1,2.34-1.41a22.39,22.39,0,0,1,2.08-1,12,12,0,0,1,3.79-1c-.06,0-.12.25-.15.5s-.06.51-.08.51c1.95-.89,4.06-2.85,6.42-3.47a24.07,24.07,0,0,1,10.25-.58A23.66,23.66,0,0,1,169,142c.35-1.3-1.5-2.26-3.45-2.89s-3.94-1-3.95-2.35a6.71,6.71,0,0,0,1.4.61c.31.11.66.22,1,.32l1.15.39a38.22,38.22,0,0,1,4.91,1.91,18.51,18.51,0,0,0-8-4.35,69.81,69.81,0,0,0-9-1.63c-.09,0,1.27-.85,1.74-.48-1.7-1.35-5.77-1.08-10,.3-2.12.66-4.31,1.54-6.39,2.41s-4,1.71-6.08,2.35c1-1.39-.66-1.53,2.72-2.76a20.5,20.5,0,0,0-3.88,1.16,24.66,24.66,0,0,0-2.91,1.45c-1.87,1.07-3.83,2.32-7.41,4.24,2.1-2.68,5.27-4.69,8.66-6.5s6.94-3.41,10.36-5.58a1.88,1.88,0,0,1-1,1.26c3.39-1.13,6.13-2.21,9-3a19,19,0,0,1,9.26-.35c0-.53-1.14-.48-1.89-.54,1.68-.57,4.36-.31,6.82.26s4.8,1.31,6.28,1a35.3,35.3,0,0,0-9.53-2.47,28.19,28.19,0,0,0-10.1.72c-.37-.9.9-1,2-1.14a52.65,52.65,0,0,0-17.32,4,72.07,72.07,0,0,0-16.65,9.62c.51.37,1.59-.61,2.45-1.1-2.74,2.42-6.55,5.09-10.1,7.79a64.25,64.25,0,0,0-8.63,7.43c.43,1.19,1.6-.2,2.37-.22-.71,1.59-4.75,3.28-7,5.77,3.38-.67,8.49-7.57,11-5,.23-1,1.86-2.08,3.2-3.14-1.42-.4-4,3.2-5.16,1.84,2.31-1.94,5.83-4.24,9.24-3.85,1.49-3.27,6.84-5.25,9.57-6.09-.9,1.6-3.09,2.63-5.14,3.72s-3.93,2.23-4.11,3.81c1.49,0,2.23-.7,3.3-1.88a34.11,34.11,0,0,1-5.1,5.6c-2.19,2-4.75,4.22-7.51,6.46-5.47,4.43-11.27,8.69-14.89,11.56-2.44.29,1.13-2,2.3-3.15-2.63.9-.45-.85,1.35-2.34a149.54,149.54,0,0,0-11.6,9.57c-3.76,3.37-7.65,7.2-12.45,12.21-1.43,1.78-1.21.09.11-.76.71-.76,1.45-1.52,2.2-2.27,1.32-1.21-.23-1.92,2-3.31,1.16-1.16.8-.31,1.1.18,1.12-1.8-.84-.8.1-2.58,4.82-4.81,9.41-7.68,14.57-12.59-5.38,3.92-10,7.69-14.36,11.54s-8.5,7.78-12.76,12.14c2.22-3,5.79-7.21,9.6-11.4a130.24,130.24,0,0,1,11-10.78c1.94-.8-1.82,2.16-2.59,2.91,1.71.37,4.18-2.77,6.42-4.47-2.57-1.2,4.72-4,7.85-6.71-.55-.79-1.89,1.32-2.76,1.75-2,.76,1.87-2.11,2.67-2.83-4.16,1.39-6.93,5.16-11.9,9,1.43-1.87,2.81-4.74,6.16-7.68-4.31,2.77-9.16,7.32-13.93,12.13s-9.48,9.87-13.9,13.49c-1-2.62,3.6-5,6-8.78-4.37,1.75-9.17,8.63-11.45,10.24,3.32-5.05,8-10,13.06-15.05s10.75-10.13,16.2-15.6c-2.93.24-3.48,2.59-5.9,3.3.41.91,1.3,0,2.1-.63,0,2-3.36,1.36-5.07,3.27-.17.18-.45,2.19-.56,2.28a53.83,53.83,0,0,1-5.81,4.4c-1.87,1.27-2.79,1.63,0-.87a71.57,71.57,0,0,0-6.53,6l-2.88,2.9c-1,1-2,2.06-3.28,3.16-.83.6-.25-.56-1-.89a48,48,0,0,1-3.27,3.81,18.08,18.08,0,0,0-1.57,2,5.68,5.68,0,0,0-.8,2,3.37,3.37,0,0,1,.56-2.91,17.41,17.41,0,0,1,2.55-3c2-2,4.19-3.88,4.34-5.75-.73-.61-1.72.29-2.77,1.49-.52.62-1.07,1.29-1.58,1.92a9,9,0,0,1-1.5,1.56c3.38.18-4,2.31-5.78,6.1a14.34,14.34,0,0,1,2.47-4A31.74,31.74,0,0,1,52.56,180c-1.94.25-4.38,3.19-6.65,6.34-.57.78-1.15,1.54-1.71,2.29s-1.09,1.47-1.63,2.1a6.64,6.64,0,0,1-3.09,2.4c4.13-6,7.83-11.13,12.35-16.68a183.27,183.27,0,0,1,17.48-18.55c-1.35-1.35-3.26-.55-5.62,2.08.81.42,2.21-1.56,2.76-.12-1.31,0-3,1.68-4.48,2.31,2.45-2.29-2.17-.33,2.11-3.77-3.87,1.71-7.69,7-11.92,10.88a15.62,15.62,0,0,1,3.38-4.69c1.31-1.29,2.56-2.3,3-2.88s-.22-1.17-.64-.64c2.53-3.24,1.69-1.19,7.48-6.32,1-1.22-1.1.06-.4-1.43a42.54,42.54,0,0,0,3.32-3c1-1,1.86-1.88,2.71-2.81A53.45,53.45,0,0,1,76.76,142c-.43-.32-1.19.52-1.84,1a35.52,35.52,0,0,1,6.35-5.91c-1-1.1-3.19,2.08-4.45,2a53.9,53.9,0,0,1,4.28-4.27c.74-.67,1.52-1.34,2.3-2l1.19-1c.44-.34.88-.69,1.31-1.06,3.56-2.83,7.47-5.65,11.53-8.71.6.45-.11,1,.21,1.51,3.24-2.34,4.41-2.82,4-2.34a33.54,33.54,0,0,1-4.93,3.58c1,1.62,3.3.49,5.84-1.2s5.36-4,6.86-4.75c-2.17.11-6,3.65-8.59,5.18-1,.12-.91-.75-.26-.36a124.68,124.68,0,0,1,14-9.29c1.25-.71,2.59-1.4,4-2.09.66-.35,1.4-.68,2.11-1l1.18-.55c.43-.2.87-.38,1.31-.57a76.54,76.54,0,0,1,11.31-3.91c2.43-.8,2.59.32,4.17.24a69.15,69.15,0,0,1,7.95-1.87,25.86,25.86,0,0,1,6.73-.18,9.23,9.23,0,0,1,2.83.43,17.43,17.43,0,0,1-2.08,0,33.54,33.54,0,0,0-5.66.28c0,.53,2.94.25,6.53.12a76,76,0,0,1,10.06.32c-1.11-.56-1.58-.85-1.24-1a10.79,10.79,0,0,1,3.35.44c-.4-.58-1.92-1-3.69-1.12s-3.75-.19-5.09-.42c1.47-.5,1.75-.8,1.27-1a9.13,9.13,0,0,0-3.22-.2,34,34,0,0,0-4.74.6,22,22,0,0,0-3.31.89c-1-.55-3-.6-5.11-.38-1.08.08-2.16.23-3.22.37s-2,.23-2.9.27a38.64,38.64,0,0,1-4.29.93,26.92,26.92,0,0,1,3.75-1.23c1.06-.29,2.29-.6,3.59-.88s2.68-.55,4-.77a68.53,68.53,0,0,1,7.11-.78,65.14,65.14,0,0,1,10.61.28,66.66,66.66,0,0,1,9.61,1.79,125.36,125.36,0,0,1,15.57,5.46c-.31.38,1.2,1.47,3.35,3.07s5,3.66,7.45,5.76c1.25,1,2.41,2,3.45,3,.45.4.88.8,1.26,1.12s.53.52.75.73c.82.82.88,1-.45.17l-1.09-1-1.54-1.41c-1-.9-2-1.78-3.07-2.64-4.25-2.79-9.55-6.58-14.69-8.69,2.86,2.31,6.08,4.72,9.43,7.33,1.68,1.31,3.38,2.68,5.13,4.09l4.81,4a6.89,6.89,0,0,0,1.23.87l.86.5,1.68,1a24,24,0,0,1,2.94,1.86A12.64,12.64,0,0,0,206,125.6a9.23,9.23,0,0,1-1.26-1.42,3.43,3.43,0,0,1-.42-.77l-.07-.19,0-.1-.15-.21a6.88,6.88,0,0,1-.55-.86,4.09,4.09,0,0,1,1.18.39l.13.06h.2a.68.68,0,0,1,.22.09,2,2,0,0,1,.67.66c.38.55.73,1.2,1.35,1.11A6.34,6.34,0,0,0,206,122.3c-.13-.17-.27-.31-.4-.46-.43-.42-.88-.87-1.3-1.3-.62-.6-1.22-1.17-1.81-1.76s-1.34-1.28-2-1.9a14.08,14.08,0,0,1,2.7,1.18c.44.26.89.55,1.31.83s.62.39.9.59.56.43.82.65l.59.52a2.06,2.06,0,0,1,.35.47c.41.69.76,1.63,1.71,1.62a3.86,3.86,0,0,0-.43-2.28,4.05,4.05,0,0,0-.62-.81c-.46-.44-.94-.88-1.41-1.31l-2.23-2a112.32,112.32,0,0,0-10.13-7.85c-3.3-2.26-6.35-4.11-8.64-5.67.22-.38,1.35.28,2.14.61.07-1.19-4.78-2.63-6.82-3.64-.32.26-.22.56.15.81a7.92,7.92,0,0,0,1.54.85c-1.51-.5-3.1-1-4.66-1.6s-3.16-1.11-4.72-1.61-3.08-1-4.54-1.23c-.73-.15-1.43-.29-2.09-.39a19.16,19.16,0,0,0-1.91-.16c.25-.49,2.07-.13,3.35.07a38.91,38.91,0,0,0-11.79-1.91,65.56,65.56,0,0,0-14.57,1.46,103.64,103.64,0,0,0-15.08,4.45c-2.45.91-4.85,1.87-7.21,2.84l-3.12,1.26-2.73,1.08c.1,1,1.53.16,2.85-.45a19.7,19.7,0,0,1-3.16,2.4,12,12,0,0,1-2.92,1.29,14.47,14.47,0,0,0,4.63-1.49l3-1.38c.56-.27,1.14-.54,1.73-.79l2-.86c5.24-2.26,10.68-3.68,13.08-2.48a61.37,61.37,0,0,0-14.07,4.57c-1.12.5-2,.93-2.84,1.36s-1.67.88-2.5,1.32c-1.63.91-3.2,1.81-4.67,2.73C104.45,115.78,99.33,119.33,93.38,121.81ZM463.3,93.68c-.48-.3-.95-.54-1.63.45-4,4.15-8.5,8.73-13.6,13.47a162.51,162.51,0,0,1-17.4,14.19c-1.65,1.14-3.27,2.26-5,3.33-.87.55-1.72,1.08-2.59,1.61l-2.68,1.55c-1.71,1-3.78,2-5.7,3s-3.95,1.81-5.93,2.68a99.66,99.66,0,0,1-24.12,6.61c-1.35,1.82,3.5-.25,3.26.82-7.72,1.8-6.64.33-10.42,0-5.59.89-13.66.8-22.68-1-2.26-.45-4.54-.92-6.89-1.62-1.16-.32-2.34-.65-3.5-1l-3.52-1.22c-2.35-.77-4.67-1.79-7-2.79l-1.72-.74-1.68-.82-1.68-.82c-.18-.1-.15-.07-.17-.06l-.1,0,.07,0h.05l.19.11q.81.45,1.5.87c.94.57,1.7,1.09,2.19,1.43,1,.72.69,1.13-1.84.39,1.48.7,3.05,1.36,4.68,2.08.81.35,1.63.75,2.47,1.08l2.55,1a84.72,84.72,0,0,0,10.41,3.25c1.7.38,3.34.7,4.92,1s3.06.37,4.44.46a19.16,19.16,0,0,0,6.63-.46,52.16,52.16,0,0,0,19.61-.06,118.72,118.72,0,0,0,17.24-4.83c0,.54-1.38,1.5.44,1.25,1.5-.81,3-1.62,4.59-2.4l4.7-2.45c3.16-1.65,6.5-3.44,9.42-5.13A202.65,202.65,0,0,0,440.14,118C450.92,110.34,459.41,102.09,463.3,93.68Zm-236.82,18c2.21-2.68,6-3.5,7-6.17-.83.5-2.87,2-4.58,3.34S225.89,111.55,226.48,111.68Zm90.2-56.09a22.81,22.81,0,0,0-6.24,1.67c-.53.32.24.28,1.69.05l5.81-1c2.24-.41,4.57-.71,6.41-1.18C322.23,55.62,319.48,55.1,316.68,55.59ZM207.19,117.48l.8.81.37.38c.1.1.3.3.26.29a1.65,1.65,0,0,1,.18.41,4.69,4.69,0,0,0,.29.75c.22.45.59.77,1.48.53a7.24,7.24,0,0,1-.88-1.38,2.34,2.34,0,0,0-.55-.64,1.76,1.76,0,0,1-.21-.13l-.63-.47A9.39,9.39,0,0,0,207.19,117.48Zm5.07,5.19c1.18.91,2,.77,3.05,1.36A1.69,1.69,0,0,0,214,122.4,2.22,2.22,0,0,0,212.26,122.67Zm5.7.76a5.28,5.28,0,0,1,1.86-.32c.49-.1.92-.41,1.05-1.63a4.18,4.18,0,0,1-1.68.93C218.56,122.65,218,122.86,218,123.43Zm3.93,1.27c.27-.32-.36-.67-.17-1,.38-.24,2-1.45,1-1.34a3,3,0,0,1-1.71,1.11,2.32,2.32,0,0,0-1.5,1,1,1,0,0,0-1.17-.61c-.41.09-.79.39-.79.7A6.69,6.69,0,0,0,221.89,124.7ZM263,92.3c-.43-.59,1.42-1.34,1.17-2-1.14.57-.05-.56,0-1.13-5.27,4-12.14,7-15.75,10.82,1.74-1.86,3.37-1.43,2.81,0C255,98,254,96.29,257.42,94.23c.62.32,1.14.08.84,1C261.91,93.66,262,91.25,263,92.3ZM215,125a3.34,3.34,0,0,1-1.8-.7c-.57-.36-1.07-.65-1.64-.38a17.69,17.69,0,0,1,1.7,1.07A1.32,1.32,0,0,0,215,125Zm72.29-50.66a29.29,29.29,0,0,1-4.5,2.68l-.47.22-.36.16-.66.29a15.11,15.11,0,0,0-1.38.76,3.58,3.58,0,0,1-.42,1.88c-.36-1.63-2.36.63-2.59,1.19,0-1.65-3.11-1-3.12.48,1.1-.53.21.55.77,1.09,1.77-1.55,1.47.12,1.36.69a7.83,7.83,0,0,0,3.88-1.56c.75-.48,1.53-1,2.32-1.58l1.15-.86.65-.48.88-.61c2.32-1.62,4.44-3.1,5.87-3.93s2.16-.92,1.71.07a48.41,48.41,0,0,1,5.15-2.63c.88-.44,1.64-.77,2.05-1s.5-.44,0-.53c-.35.16-.73.36-1.12.56l-1.12.65c-.71.39-1.31.64-1.56.44,2.47-1.62,5-2.8,7.33-4A70.67,70.67,0,0,1,310,65c4.3-1.86,8.11-3.3,11.23-5.2a46.72,46.72,0,0,0-6.1,1.11c.17,1.31-1.82,2.18-4,3s-4.64,1.46-5.46,1.73c-.14-.6,1.57-1.12,1.7-1.7a9.23,9.23,0,0,0-2.18.78c-.83.45-1.76,1-2.75,1.64s-2,1.31-3,2l-1.49,1c-.49.36-1,.74-1.43,1.09-3.7,2.82-6.67,4.74-6.36,2.13-3,1.26-2.39,4-4.19,3.65A3.26,3.26,0,0,0,287.31,74.33Zm29-11.38c.65-.16,1.31-.28,2-.41.38.54-.78.66-1.92.87s-2.3.44-1.89.94a53.62,53.62,0,0,1,10-1.3h1.25a10.66,10.66,0,0,0,1.25.09c.83,0,1.63.11,2.43.2a18.39,18.39,0,0,1,2.3.38c.76.13,1.47.36,2.17.54a17.06,17.06,0,0,1,6.47,3.41c2-.07,1.1-1.07,2.22-1.06,2.81,1.3,5.82,2.82,9,4.65,1.56.92,3.18,1.9,4.81,2.94s3.2,2.1,5,3.23l.66.43.16.09h0l.06,0,.26.11a2.3,2.3,0,0,0,.56.18c.39.08.71.27,1.13.35s.75.28,1.18.4.77.34,1.22.48a2.44,2.44,0,0,1,.8.58l.78.69a3.94,3.94,0,0,0,.93.67,4.36,4.36,0,0,0,1.34.27,4.15,4.15,0,0,0,1.41-.3,10.94,10.94,0,0,0,1.35-.55,4.75,4.75,0,0,1,1.43-.44,3.8,3.8,0,0,1,1.69,0,2.69,2.69,0,0,1,1-1.48,1.32,1.32,0,0,1,1.73,0c-.52.26-1.36.11-1.35.75.68-.37,2.55,0,2.43-1-1.52.34-.14-.25-.23-.85-2.53.18-4.49,1-6.64,1.6s-4.53.74-6.46-.75c1.12.18.89-.06.39-.45A3.91,3.91,0,0,1,365.85,77a6.75,6.75,0,0,0-.48.55c-.15.17-.3.35-.46.52a1.86,1.86,0,0,1-1,.64,2.85,2.85,0,0,1-.57-.64,2.09,2.09,0,0,1-.42-.64c-.05-.12-.08-.23-.14-.35l0-.07s0,0-.11-.16L362,76.3l-1.24-1.14-1.13-1.1a81.68,81.68,0,0,0-9.53-8.38c-2.4-.52-4.58-2.11-3.32.36-1.05-1-3.25-2-4.4-2.89.62,1.45-1,1.41-2.88.93a18.57,18.57,0,0,1-5.06-1.88c.52-.65,3.14.36,2.24-1.32-2.58.22-4.07-1.5-6.12-.64,1.28.35,2,.85,1.89,1.62a66.24,66.24,0,0,1-8-.43C321.43,61.37,318.36,61.7,316.32,63Zm-17.22,3c-4.75,2.73-12.4,6.54-15,9.39,2.29-1.58,5.32-3.35,8.15-4.93,1.42-.8,2.77-1.59,3.94-2.37A29.17,29.17,0,0,0,299.1,65.93Zm-56,41.92c1.31-1.3,2.82-2.62,3.2-3.81-1.34,1.32-6.29,3.32-4.62,3.25C242.38,106.82,242.76,107.33,243.12,107.85ZM367.9,76.57a5.6,5.6,0,0,1-2.38-.66,2.27,2.27,0,0,0-.5-.17,1.19,1.19,0,0,0-.43-.16,1.83,1.83,0,0,0-.47,0,1.26,1.26,0,0,0-.46.07c.16,0,.25.13.41.18a2.35,2.35,0,0,1,.46.21,7.48,7.48,0,0,0,1,.5,5.29,5.29,0,0,0,1.17.3A2.69,2.69,0,0,0,367.9,76.57Zm9.72-.53a6.89,6.89,0,0,1-1.35.31c-.48.09-1,.05-1.45.12a4.83,4.83,0,0,0-.68.11,2.35,2.35,0,0,0-.6.09,1.86,1.86,0,0,0-1,.55,19,19,0,0,1,2.7-.26A3,3,0,0,0,377.62,76Zm4.48-.85a5.34,5.34,0,0,1-1.37.1,1.62,1.62,0,0,0-1.33.75,5.13,5.13,0,0,1,1.45-.06A1.32,1.32,0,0,0,382.1,75.19Zm1.27,2.37c2-1.1,6.74-3.8,9.51-5.38a4.64,4.64,0,0,0-2.49.45c-.55.21-1.16.41-1.75.68s-1.17.53-1.69.78a13.37,13.37,0,0,0-2.73,1.72C383.51,76.36,383.13,77,383.37,77.56Zm-171.25,50.6a17.46,17.46,0,0,0,4,1.59,4.43,4.43,0,0,0,4.12-1.42,16.86,16.86,0,0,1-4.38.35A36.07,36.07,0,0,1,212.12,128.16ZM397.3,69.6c-.85-.83,2.41-1.36.67-2.23a2.5,2.5,0,0,0-1.41,1.43C396.38,69.32,396.55,69.75,397.3,69.6Zm-58.09-1.35c2.21.73,3.55,1.68,4.09,2.67a38.4,38.4,0,0,0-9.21-3,42,42,0,0,0-4.77-.58c-1.62-.1-3.26-.09-4.93-.08a83.62,83.62,0,0,0-8.51.88,23.67,23.67,0,0,1,8.52-1.8c4.55,0,8.6.79,13.93,1.61a11.25,11.25,0,0,0-4.91-2.65,19.91,19.91,0,0,0-2-.52,16.66,16.66,0,0,0-2.19-.38,41.63,41.63,0,0,0-4.85-.31,38.69,38.69,0,0,0-8.84,1.38c-.34,1.17,1.38.65,3.34.18s4.14-.85,4.37-.16a65.82,65.82,0,0,0-13.73,3.47c-1.06.38-2.1.81-3.11,1.24s-2,1-3,1.45a46.77,46.77,0,0,0-5.58,3.09,54.49,54.49,0,0,1,5.16-2.11c1.74-.64,3.49-1.5,5.62-2.41a2.07,2.07,0,0,1-.58,1.7,45.93,45.93,0,0,1,16.3-4.28c1.7,0,3.4,0,5.08.18.84.07,1.67.23,2.51.34s1.64.31,2.45.52c-1.07,1.11.51,1.57,2.35,2.11s4,1.21,4.13,2c-1-.29-2.46-1.06-3.83-1.55s-2.58-.79-3-.38c1.43,1.09,3.12,2.2,4.66,3.47-1.7-.32-3.5-.54-5.7-.79l-1.72-.15-1.9-.1h-2.09l-2.28.07-.74,0a27.07,27.07,0,0,0-3.86.46c-1.11.25-1.64.51-.51.56a33.32,33.32,0,0,1,4.36-.7,30.88,30.88,0,0,1,6.74.33,35.4,35.4,0,0,1,6.1,1.66,59.42,59.42,0,0,1,12.32,6.67c.73-1.16-.81-2.54-2.81-3.84s-4.39-2.43-5.45-3.59A61.48,61.48,0,0,1,351.74,81a52.64,52.64,0,0,0,4.55,2.8c2,1.12,2.11.78,2.95.69-.3-.26.06-.51.44-.79-.24-.15-.42-.35-.62-.48-.48-.33-.95-.63-1.39-.94-1.29-.83-2.32-1.56-3.38-2.26a56.61,56.61,0,0,1-5.89-4.32c2.06,1.22,4.13,2.56,6.21,4,1.06.72,2,1.45,3.17,2.19l.83.56.41.29.15.09.5.31a24.14,24.14,0,0,0,4.63,1.94,32,32,0,0,0,12.52,1,14.54,14.54,0,0,0,1.74-.23c.58-.1,1.15-.15,1.74-.29,1.16-.27,2.31-.5,3.44-.87a37.47,37.47,0,0,0,6.44-2.52c1-.54,1.93-1,2.94-1.67.5-.32,1-.61,1.45-.94l1.39-1c.93-.64,1.77-1.44,2.61-2.14s1.61-1.54,2.33-2.29c-1.25.93-2.57,2.19-3.26.72,3-2,4.94-3,7.36-6.36a31,31,0,0,1-6.43,4.78A55.49,55.49,0,0,0,392.72,77c-.21-.54.14-1.14-.86-.54l-1.18.71-.59.35-.55.28c-.73.35-1.42.79-2.19,1.09s-1.47.68-2.25,1-1.49.59-2.27.8a39.13,39.13,0,0,1-8.89,1.78,33.15,33.15,0,0,1-7.65-.26c-.28,0-.57-.09-.86-.12s-.51-.14-.77-.19l-.79-.16c-.24-.08-.49-.16-.73-.22s-.5-.11-.74-.19l-.68-.25a4.45,4.45,0,0,1-.7-.24l-.32-.14-.16-.07-.1,0-.32-.21.2.17a.8.8,0,0,1,.14.11l.08.09.13.2a3.71,3.71,0,0,1,.19.46,3.2,3.2,0,0,1,.22,1.06c-.17-.28-.38-.49-.55-.79-.07-.15-.17-.29-.25-.43l-.06-.1a.66.66,0,0,0-.18-.19l-.74-.62c-.95-.82-2-1.68-3-2.54s-2.07-1.72-3.17-2.55C348.8,71.88,343.88,69.2,339.21,68.25Zm-81,33.76c.68-.45,1.51-1.25,1.92-.91,4.78-3.61,8-6.13,3-2.84-.79.55-2.22,2.15-3,1.74,1.34-.85,2-1.66,1.67-2.38C259.4,99.17,259.28,100.54,258.24,102Zm23.88-15.42a25.34,25.34,0,0,1,3.53-2.51l1.18-.72,1.61-.93,3.25-1.86c2.13-1.28,4.26-2.41,6-3.54.89-.54,1.68-1.1,2.39-1.61A12.29,12.29,0,0,0,301.85,74a15.14,15.14,0,0,0-2.51,1.3l-2.7,1.73c-1.79,1.11-3.42,2-4.37,2,3.19-1.81,3.73-2.25,2.73-1.94-.48.16-1.34.51-2.43,1s-2.37,1.18-3.73,1.9c-.67.39-1.36.76-2.07,1.15l-1,.61-.78.48a18.75,18.75,0,0,0-2.34,1.7C281.39,85.12,280.93,86.1,282.12,86.59ZM108.6,120.51c-3.4,2.85-7.75,3.56-9.37,6.4.9-.24,3.9-2.19,6.41-3.86S110.17,119.92,108.6,120.51Zm56-12.61c.61.17,2.28.47,3.42.68s1.81.27.39-.36a59.25,59.25,0,0,0-20.83-1c-.13-.69.05-1.56-2-1.08a113,113,0,0,0-12.26,3.4c-.77.24-2.38.78-4.25,1.49s-4,1.57-5.76,2.39c-.87.41-1.57.76-2.13,1a9.35,9.35,0,0,0-1.24.7c-.48.34-.26.35,1.19-.15a10.41,10.41,0,0,0,2.55-.89c1-.44,2.19-1,3.25-1.37,2.13-.82,4-1.25,4.31-.16-1.19.46-4.67,1.66-7.86,3.19-2.9,1.38-5.41,3-6,4.19,1.13-.49,1,.58.68,1.15,1.34-.6,2.66-1.18,4-1.73s2.58-1.08,4.09-1.68c2.92-1.18,5.76-2.16,8.52-3a80.38,80.38,0,0,1,16.13-3.35,56.78,56.78,0,0,1,15.82.6,51.06,51.06,0,0,1,15.74,5.83c.37-.39,1.33.1,2.19.51s1.65.73,1.78-.12a21,21,0,0,0-4.3-3.06c-.82-.48-1.64-.94-2.36-1.38a10.71,10.71,0,0,1-1.77-1.29c.64-.29,2.14.48,3.59,1.27s2.81,1.66,3.43,1.4a30.63,30.63,0,0,0-7.67-4.27c-2.39-.78-3.56-.72-1.24,1.29a51.6,51.6,0,0,0-12.11-2.92c-3.89-.54-7.32-.74-9.68-1.54C158.07,107.58,161.87,108,164.58,107.9ZM79.79,149.49c.93-1.47,3.34-3.09,2.37-4.32-1.87,2.05-3,1.38-4.66,2.75C78.68,149.69,80.79,146.48,79.79,149.49ZM372.23,87.9a3.92,3.92,0,0,1,2,.06,15,15,0,0,1,1.67.77c1.07.49,2.09,1,3.17.15a25.73,25.73,0,0,0-3.74-1.28C373.9,87.19,372.65,87.15,372.23,87.9ZM97.07,134.67c2.7-1.42,7.76-4.83,7.47-5.56C102.73,130,96.57,132.49,97.07,134.67ZM370.16,87.92a1.16,1.16,0,0,0-1.27.83c.73,0,1.34.13,1.9.11s1,0,1.36-.06c.7,0,1.05-.14,1.09-.26S372.07,88.13,370.16,87.92Zm-10,.42a7.21,7.21,0,0,0,.92,1.07,6.88,6.88,0,0,0,1.29.82,3,3,0,0,0,2.51.31c-.47-1-1.33-1.09-2.19-1.26-.45-.07-.94-.1-1.37-.21A2.53,2.53,0,0,1,360.16,88.34Zm22.26,2.49c.28-.1.55-.21.38-.55-.61.06-.42-.4-.22-.86a100.93,100.93,0,0,1-14.27,1.09c.8,1.34,3.8,1.77,6.85,1.35s5.94-1.33,6.68-1.33C381.35,90.69,381.59,91.2,382.42,90.83Zm-248,31.41a30.87,30.87,0,0,1-4.58,1.71c-.67.21-1.38.4-2,.67a15.69,15.69,0,0,0-2.12,1,14.79,14.79,0,0,0,2.23-.26c.91-.16,2-.39,3-.67C132.9,124.11,134.57,123.36,134.43,122.24ZM121,131.71l4.87-2.26c1.74-.8,3.53-1.63,5.63-2.5a81.24,81.24,0,0,1,13.08-4.35,50.89,50.89,0,0,1,13.65-1.29,39.11,39.11,0,0,1,11.64,2.32,33.3,33.3,0,0,0-11.14-3,45.16,45.16,0,0,0-11.85.49,69,69,0,0,0-11,2.93c-1.71.59-3.33,1.22-4.88,1.82s-2.95,1.19-4.31,1.73c-.33-.66,1.67-1.09,1.56-1.74-1.27.87-4.51,1.63-4.3,2.67,2.41-.6,1.57-.05.2.79S120.85,131.27,121,131.71Zm22.14-5.7a66.29,66.29,0,0,0-13.17,3.8c-4.63,1.92-8.76,4.52-10.57,7,4.11-2.39,8.11-4.36,12-6.17S139.31,127.35,143.09,126ZM108.78,145.9c-2.73.85-5,3.69-6.73,4.19C104.32,150.87,106.55,147.85,108.78,145.9ZM92.46,165.63c1.71-2.06,5.19-2.39,4.64-4.49C95.77,161.68,92.26,164.58,92.46,165.63Zm42.88-30.85c.42,1.14,1.26.43.68,1.63a14.9,14.9,0,0,1,3.63-1.91,12.52,12.52,0,0,0,2.87-1.4c.74,1.11,2.72.51,5.24-.13s5.57-1.32,7.81-.8a2.32,2.32,0,0,0-1.65-1.23,6,6,0,0,0-2.24.13c-1.58.39-3.17,1.09-4.45.88.45-.21,1.17-.23,1.16-.67A29.26,29.26,0,0,0,135.34,134.78Zm190.76-34.5a14.47,14.47,0,0,0-2,0,9.09,9.09,0,0,0-2.3.48c-.41.13-.52.23-.42.25s1.35-.09,2.71.07a7.72,7.72,0,0,1,.92.16c-.31.08-.62.17-.93.23-2.32.56-4.56.89-6.61,1.44s-3.91,1.35-5,2.91c2.3-1.4,1.53-.67.72.62a35,35,0,0,1,4.94-2.52,19.52,19.52,0,0,1,5.95-1.52c2.84-.2,5.45.5,7.58.69-1.71-1.14-4.88-3-2.33-.55A7.37,7.37,0,0,1,326.1,100.28Zm-27.43,15.93c2.9-2.42,4.09-3.39,3.86-3.42a33.45,33.45,0,0,0-4.61,2.33c-.91.58-1.14,1.17-1.07,1.78C297.5,116.53,298.28,115.83,298.67,116.21Zm-1.56,4.29a12.39,12.39,0,0,1,4.05-3.66c.93-.59,1.95-1.15,3-1.7l1.64-.78.82-.38c.27-.12.44-.17.66-.25l-.71-1.12c-.48.17-1.52.7-2.53,1.2a31.35,31.35,0,0,0-3.13,1.8C298.92,117,297.23,118.63,297.11,120.5Zm24.17-16.15c-.48-.42-1.44-.12-2.42.41a28.4,28.4,0,0,1-2.77,1.54c-.21,0-4.27,2.1-4.73,3.34,1.8-.71,3.37-1.34,4.84-2a29.86,29.86,0,0,1,4.35-1.56c-.06-1.21-1.11-.76-2.18-.06s-2.12,1.55-2.56.94A30.3,30.3,0,0,1,321.28,104.35ZM377,121.41a6.38,6.38,0,0,1-3,.39c-1.42-.09-3.11-.26-4.77-.5s-3.28-.55-4.54-.7-2.2-.2-2.5.18c0-.27,0-.53-.74-.54a21.17,21.17,0,0,0,3.32,1.06c1.43.3,3.13.54,4.8.73a40.08,40.08,0,0,0,4.63,0A7,7,0,0,0,377,121.41Zm21.3-4c.55-.22,2.1-.74,3.16-1.22s1.66-.88.39-.65c-1.1.49-2.22.87-3.33,1.31l-1.68.64-1.7.55a9.68,9.68,0,0,0-3.51.58c-1.41.36-2.95.88-4.29,1.11a22,22,0,0,1-3.28,1.4,3.36,3.36,0,0,1-3-.26c.93-.21,2.27-.27,2.32-.81a118.25,118.25,0,0,1-17.13,2.79,56.12,56.12,0,0,0,9-.07c1.33-.14,2.62-.26,3.86-.43l3.63-.64A113.93,113.93,0,0,0,398.25,117.46ZM149.49,146.19c.22-.57-.88-.38-2.11-.07s-2.59.78-3.14.45c.17.71-1,.61-.9,1.26A31.56,31.56,0,0,1,149.49,146.19ZM119.44,163c-1.73,2.64-3.85,1.22-5.16,4.17,2.82.28,7.23-4.56,9.17-6.67C121.6,163.07,116.22,162.63,119.44,163Zm7.34-3.8c-.81-1.33,2.92-2.38,2.94-3.63-1.88.44-6.14,2.3-7.28,4.58C124.77,158.59,123.91,161.64,126.78,159.19Zm15.55-8.58a9.69,9.69,0,0,1-.86.51c-.29.14-.62.29-1,.45-.85.35-1.71.69-2.51,1a10.85,10.85,0,0,0-4,2.41c.59-.27,1.26-.82,1.6-.42-2.44,1.17-2.59,2.8-3.53,4.28,2-1,4.09-2.32,5.57-1.86-3.64,1.68-7.88,5.68-11.36,7,2-1.51,6.32-4.41,4.64-4.91-2.42,2.28-5.76,4.77-6.34,7.32a146.91,146.91,0,0,1,13.8-9.13l1.53-.85,1.47-.79,1.37-.69c.32-.15.64-.29,1-.47a36.27,36.27,0,0,1,4-1.6,21.4,21.4,0,0,1,8.69-1.17,19.6,19.6,0,0,1,4.63,1,23.66,23.66,0,0,1,4.56,2.37,9.75,9.75,0,0,0-5.83-4,30.18,30.18,0,0,0-3.57-.68,23.15,23.15,0,0,1-3.2-.54c1.39,0,2.71.23,3.54-.68a13,13,0,0,0-4.59-.13,14.82,14.82,0,0,1-4.18.17,17.42,17.42,0,0,0,3.21-.76,7.78,7.78,0,0,1,3.24-.42A3.3,3.3,0,0,0,152,147c-.61-.16-1-.33-1.23-1.39-2.11,1.53-4.59,2-7.14,2.64a26.76,26.76,0,0,0-3.68,1.16,14.66,14.66,0,0,0-2,1,9.33,9.33,0,0,0-1.66,1.27c.58-.25,1.15-.47,1.35.28a9.32,9.32,0,0,0-3.3.8,5.69,5.69,0,0,0-2.91,2.31c1.62-.71,3.5-1.68,5.47-2.56,1-.44,2-.86,3-1.22a10,10,0,0,1,1.33-.41ZM286,137.41a15,15,0,0,0-5.25,3.79,13.65,13.65,0,0,1-4.53,3.48C280.29,144.09,285.45,137.63,286,137.41ZM312.31,119a5.65,5.65,0,0,0-1.16,1,4.14,4.14,0,0,1-.32.34l-.5.47-1,.94a14.14,14.14,0,0,1-4,2.88,36.5,36.5,0,0,0,5.57-3.14l2-1.28c.54-.34,1.06-.66,1.48-.89,1.41-.77,2.9-1.58,4.45-2.44a14,14,0,0,1,5.22-1.93,9.19,9.19,0,0,1,5.39,1.36c1.63.92,3.1,2.06,4.61,3.07.38.24.79.51,1.13.71l.58.34,1.79,1c1.18.69,2.43,1.19,3.62,1.75a37.8,37.8,0,0,0,3.6,1.51c1.2.41,2.38.84,3.55,1.26s2.32.67,3.44,1c2.25.66,4.43,1,6.48,1.43-2.11-.56-4.29-1-6.54-1.82-1.12-.37-2.27-.71-3.43-1.15s-2.31-.94-3.48-1.42-2.34-1.06-3.52-1.64-2.37-1.14-3.51-1.87l-1.64-1-.49-.36-1.12-.85a51.29,51.29,0,0,0-4.73-3.51,9.37,9.37,0,0,0-5.69-1.56c-2.43.22-4.51,1.48-6.41,2.6Zm47.77,9.64c1.68.1,3.19.32,4.58.48l4,.46a24.49,24.49,0,0,0,3.84.09c.66,0,1.33-.09,2-.18a20.29,20.29,0,0,0,2.14-.48c-1-.55-4.57-.72-8.15-.81-1.81-.09-3.61,0-5.12,0A8.24,8.24,0,0,0,360.08,128.63ZM163.31,160.49c.75-.73-.22-.86.31-1.54a28,28,0,0,0-6.51-3.47,16.79,16.79,0,0,0-7.9-.62,22.62,22.62,0,0,0-3.93,1c-.31.12-.63.23-.94.36l-.91.39c-.44.21-.88.43-1.32.62l-1.4.74a53.72,53.72,0,0,0-10.56,7.58c1.54-.63,3.22-1.86,4.8-2.7s3-1.28,4.13-.54c-3.47,2.25-6.91,4-10.27,5.9-1.68.93-3.36,1.91-5,3-.83.54-1.65,1.12-2.48,1.75-.4.31-.85.66-1.3,1s-.89.75-1.34,1.14c.78-.56,1.72-1.63,2.25-1.29,1,1.25-2.64,2.9-1.48,4.13a16.84,16.84,0,0,0,2.49-2.15,3.14,3.14,0,0,1,1.12-.74.68.68,0,0,1,.83.4c-.22.84-1.41,1.88-2.72,2.89a37.06,37.06,0,0,0-3.74,3c2.3-1.55,4.84-3.34,7.08-5s4.23-3,6.38-4.51c4.15-2.89,8.16-5.54,11.75-7.56l1.32-.73,1.27-.66,1.07-.52.58-.25a15.6,15.6,0,0,1,2.38-.82,8,8,0,0,1,4.57.08c.94-1,2.66-.54,4,.41.7.47,1.31,1,1.93,1.39a3.53,3.53,0,0,0,.94.45,2.73,2.73,0,0,0,.46.08c.3.15.62.3.93.42-.19-.21-.41-.46-.6-.63s-.17-.18-.25-.27a6.22,6.22,0,0,0-.56-.46c-.39-.29-.82-.56-1.24-.83a3.21,3.21,0,0,1-1.64-2.22,3.8,3.8,0,0,1,3.69,1.56c.22.23.39.46.61.65s.21.18.89.73c.28.23.56.43.85.63l.22.16.36.29.82.62a37.22,37.22,0,0,0,3.4,2.27l-2.48-2.45-1.16-1.2-.38-.41-.27-.32c-.18-.22-.35-.42-.5-.63s-.34-.44-.32-.5A4.64,4.64,0,0,1,163.31,160.49ZM312.6,126.73l1.13-.42.59-.24a2.19,2.19,0,0,1,.49-.18,4.37,4.37,0,0,0,1.11-.31,3.8,3.8,0,0,0,1.88-1.65c-.79.62-1.06,0-1.43.88-.26-.52,0-.73-.38-1.34a8.82,8.82,0,0,1-1.58.94,1.91,1.91,0,0,0-.33.25c-.16.16-.33.31-.47.47A5.52,5.52,0,0,0,312.6,126.73Zm5.33-3.89c.69-.16,1.78-.11,2.54-.22s1.24-.45.8-1.64a3.33,3.33,0,0,1,2.71-.51,2.16,2.16,0,0,0,2.28-.54,4.26,4.26,0,0,0-2.27-.72,6,6,0,0,0-3.48,1.31A18.12,18.12,0,0,0,317.93,122.84Zm26.8,8.59c-1.15-1.05-3.42-2.2-6.21-3.87l-2.22-1.24c-.77-.43-1.53-.95-2.34-1.44l-.6-.37-.27-.18,0,0-.2-.19c-.11-.12-.35-.29-.53-.44a25,25,0,0,0-4.41-3,25.52,25.52,0,0,0,3.48,3.83c.28.21.53.42.8.64l.16.12.07.07,0,0,.26.15c.71.42,1.41.85,2.15,1.28A103,103,0,0,0,344.73,131.43Zm-33.37-3.36c-.51-1.06-1.52-.76-2.75.22C309.14,129.35,310.11,129,311.36,128.07Zm83.31,3.57a139.7,139.7,0,0,0,16.49-5.57c1.34-.62,2.66-1.22,3.94-1.87s2.4-1.32,3.57-2,2.21-1.41,3.24-2.15a32.7,32.7,0,0,0,2.89-2.34c-1.75,1.11-3.59,2.14-5.39,3.14l-2.77,1.44-1.4.72-1.48.69-3,1.36c-1,.43-2,.81-3,1.21-2,.84-4.09,1.5-6.16,2.19s-4.22,1.26-6.38,1.83-4.37,1.09-6.67,1.48a115.51,115.51,0,0,1-14.45,1.88c2.68,1.67,6.32,1.74,10,1S391.38,132.59,394.67,131.64ZM225.11,188.37c.65-.19,1.75-.43,3-.68s2.52-.68,3.66-1c2.21-.82,3.64-1.53,1.85-1.64-.12.31-.69.57-1.48.83s-1.84.4-2.85.64C227.22,186.91,225.22,187.28,225.11,188.37Zm-75.43-26.19c.82-.63.55,1.66.48,2.18a3,3,0,0,1,1.69-.53,3.62,3.62,0,0,0,1.75-.51c-.33-.34-.91-.24-1.44-.1a1.42,1.42,0,0,1-1.58-.31c.06-1,.8-.51.92-1.49C151,161.6,149.21,161.37,149.68,162.18Zm-11.49,7.52c.77.36,2.19-.24,3.46-1a11.09,11.09,0,0,0,2.86-2.33C142,167.82,139.07,167.72,138.19,169.7Zm-8.27,6a14.77,14.77,0,0,0-3.51,2.13,9.63,9.63,0,0,0-.86.75,4.53,4.53,0,0,0-.61.7c-.26.42-.2.68.44.66.15-.24,2.75-2.33,4.6-3.78S132.88,173.86,129.92,175.74Zm26.52-11.89c-.37.09-.69-1-1.13,0C155.26,164.63,155.89,164.63,156.44,163.85Zm-7.27-.14c.06.57-.49.7-.95.85s-.8.26-.26.56a2.08,2.08,0,0,1,1.11-.38A1,1,0,0,0,150,164C149.67,164.22,149.5,163.23,149.17,163.71Zm171.19-34c-.28.49-1.37.17-1.07,1.18C319.55,130.4,320.54,130.78,320.36,129.7Zm-4,4.66c-1.32,1.18-4.49,2.32-4.57,3.59C313.09,136.74,316.25,135.62,316.36,134.36ZM227.17,197l.16,1.33c2.72-.9,6.36-1.89,9.9-3.13s6.89-2.89,9-4.59c-1.7.77-3.47,1.43-5.21,2.11l-2.62.91-1.28.44-1.28.38-2.45.76c-.81.2-1.56.42-2.31.63C229.59,196.3,228.25,196.61,227.17,197Zm52.19-33.85a38.18,38.18,0,0,1-3.83,3.69c-.61.54-1.17,1.06-1.71,1.59s-.9.9-1.34,1.35-1,1.07-1.48,1.62a8.08,8.08,0,0,0,1.62-.88l1-.7.54-.42.29-.18a13.29,13.29,0,0,0,2.22-1.91C278.09,165.89,279.23,164.21,279.36,163.16Zm176.86-55.7c3.55-3.5,7.2-7,9.16-10.07-1.79-.19-3.64,1.61-5.34,3.87-.82,1.11-1.62,2.33-2.3,3.44S456.56,106.78,456.22,107.46Zm-61.58-30.1c.25-.63-.91-.86,1.13-1.78a1.33,1.33,0,0,1-.3,1.27c.36.4.95-.18,1.47-.45.14,1.15-2.5,1.83-3.47,2.71,1.43-1.64-.38-1.09-1.69-.63-.66.24-1.2.49-1.17.46a4.78,4.78,0,0,0,.48-.2c.34-.14.89-.41,1.69-.78C392.9,77.94,393.65,76.49,394.64,77.36ZM52.74,195.84a19.83,19.83,0,0,0-3.21,4.21C47.87,200.75,51.57,195,52.74,195.84Zm78.89-52.31c-.07,0,1-.22.22.39a37.59,37.59,0,0,1-5.68,3.37c-1.29.61-1.35.28,1.85-1.69A21.37,21.37,0,0,1,131.63,143.53ZM63.76,231.24c-.17-.22.27-.91.81-1.74A17.2,17.2,0,0,0,66,226.83C67.21,227.86,64.63,230.09,63.76,231.24Zm16.33-45.47c2.34-.89-.59,2-1.56,2.79.62.75,1.68-1.4,2.52-1.85,0,.54,0,1.07.64.62-1.22.71-5.43,6.12-6.44,3.25-.43.31-.28.53-.1.73C74,189.67,78.3,189.44,80.09,185.77Z"/></clipPath><linearGradient id="Dégradé_sans_nom_2" x1="-33.5" y1="1044.13" x2="241.19" y2="1044.13" gradientTransform="matrix(1.6, -0.47, -0.46, -1.55, 549.84, 1798.42)" gradientUnits="userSpaceOnUse"><stop offset="0" stop-color="#aeb4dc"/><stop offset="0" stop-color="#aeb2db"/><stop offset="0.01" stop-color="#afb1da"/><stop offset="0.01" stop-color="#afb0d9"/><stop offset="0.02" stop-color="#afafd8"/><stop offset="0.02" stop-color="#b0aed7"/><stop offset="0.02" stop-color="#afacd6"/><stop offset="0.03" stop-color="#b0acd6"/><stop offset="0.03" stop-color="#b1acd6"/><stop offset="0.04" stop-color="#b0a9d4"/><stop offset="0.04" stop-color="#b1a8d3"/><stop offset="0.04" stop-color="#b0a7d3"/><stop offset="0.05" stop-color="#b1a6d2"/><stop offset="0.05" stop-color="#b1a6d1"/><stop offset="0.05" stop-color="#b1a4d0"/><stop offset="0.06" stop-color="#b1a3d0"/><stop offset="0.06" stop-color="#b0a2cf"/><stop offset="0.07" stop-color="#b0a1ce"/><stop offset="0.07" stop-color="#b19fcd"/><stop offset="0.07" stop-color="#b09ecd"/><stop offset="0.08" stop-color="#b09dcc"/><stop offset="0.08" stop-color="#b09ccb"/><stop offset="0.09" stop-color="#b09bca"/><stop offset="0.09" stop-color="#b099c9"/><stop offset="0.09" stop-color="#b099c9"/><stop offset="0.1" stop-color="#b098c8"/><stop offset="0.1" stop-color="#b096c7"/><stop offset="0.11" stop-color="#b095c6"/><stop offset="0.11" stop-color="#b195c6"/><stop offset="0.11" stop-color="#b194c5"/><stop offset="0.12" stop-color="#b193c5"/><stop offset="0.12" stop-color="#b193c4"/><stop offset="0.13" stop-color="#b190c2"/><stop offset="0.13" stop-color="#b18fc2"/><stop offset="0.13" stop-color="#b18fc1"/><stop offset="0.14" stop-color="#b18dc0"/><stop offset="0.14" stop-color="#b18dc0"/><stop offset="0.14" stop-color="#b18cbf"/><stop offset="0.15" stop-color="#b18abe"/><stop offset="0.15" stop-color="#b189bd"/><stop offset="0.16" stop-color="#b188bd"/><stop offset="0.16" stop-color="#b287bc"/><stop offset="0.16" stop-color="#b287bc"/><stop offset="0.17" stop-color="#b285ba"/><stop offset="0.17" stop-color="#b284ba"/><stop offset="0.18" stop-color="#b283b9"/><stop offset="0.18" stop-color="#b382b8"/><stop offset="0.18" stop-color="#b382b8"/><stop offset="0.19" stop-color="#b381b8"/><stop offset="0.19" stop-color="#b380b7"/><stop offset="0.2" stop-color="#b47eb6"/><stop offset="0.2" stop-color="#b47eb6"/><stop offset="0.2" stop-color="#b47eb5"/><stop offset="0.21" stop-color="#b47db5"/><stop offset="0.21" stop-color="#b37ab3"/><stop offset="0.21" stop-color="#b47ab3"/><stop offset="0.22" stop-color="#b479b2"/><stop offset="0.22" stop-color="#b478b1"/><stop offset="0.23" stop-color="#b577b1"/><stop offset="0.23" stop-color="#b476b0"/><stop offset="0.23" stop-color="#b474af"/><stop offset="0.24" stop-color="#b574ae"/><stop offset="0.24" stop-color="#b473ae"/><stop offset="0.25" stop-color="#b572ad"/><stop offset="0.25" stop-color="#b472ad"/><stop offset="0.25" stop-color="#b56fac"/><stop offset="0.26" stop-color="#b66fab"/><stop offset="0.26" stop-color="#b66eab"/><stop offset="0.27" stop-color="#b66caa"/><stop offset="0.27" stop-color="#b66ba9"/><stop offset="0.27" stop-color="#b76ca9"/><stop offset="0.28" stop-color="#b76aa8"/><stop offset="0.28" stop-color="#b669a7"/><stop offset="0.29" stop-color="#b868a7"/><stop offset="0.29" stop-color="#b867a6"/><stop offset="0.29" stop-color="#b867a6"/><stop offset="0.3" stop-color="#b966a5"/><stop offset="0.3" stop-color="#b964a4"/><stop offset="0.3" stop-color="#b963a4"/><stop offset="0.31" stop-color="#b962a3"/><stop offset="0.31" stop-color="#ba63a3"/><stop offset="0.32" stop-color="#ba62a3"/><stop offset="0.32" stop-color="#ba60a2"/><stop offset="0.32" stop-color="#ba60a2"/><stop offset="0.33" stop-color="#ba5fa1"/><stop offset="0.33" stop-color="#bc5ea0"/><stop offset="0.34" stop-color="#bc5da0"/><stop offset="0.34" stop-color="#bc5da0"/><stop offset="0.34" stop-color="#bc5c9f"/><stop offset="0.35" stop-color="#bc5b9e"/><stop offset="0.35" stop-color="#be599d"/><stop offset="0.36" stop-color="#be599d"/><stop offset="0.36" stop-color="#be589d"/><stop offset="0.36" stop-color="#bf579c"/><stop offset="0.37" stop-color="#bf569c"/><stop offset="0.37" stop-color="#bf559b"/><stop offset="0.38" stop-color="#c1559b"/><stop offset="0.38" stop-color="#c1559b"/><stop offset="0.38" stop-color="#c2549a"/><stop offset="0.39" stop-color="#c1539a"/><stop offset="0.39" stop-color="#c2539a"/><stop offset="0.39" stop-color="#c45299"/><stop offset="0.4" stop-color="#c35299"/><stop offset="0.4" stop-color="#c55098"/><stop offset="0.41" stop-color="#c55098"/><stop offset="0.41" stop-color="#c54f97"/><stop offset="0.41" stop-color="#c74e97"/><stop offset="0.42" stop-color="#c74e97"/><stop offset="0.42" stop-color="#c84d96"/><stop offset="0.43" stop-color="#c84c96"/><stop offset="0.43" stop-color="#c84c96"/><stop offset="0.43" stop-color="#ca4b95"/><stop offset="0.44" stop-color="#cb4b95"/><stop offset="0.44" stop-color="#cc4a95"/><stop offset="0.45" stop-color="#cd4a95"/><stop offset="0.45" stop-color="#ce4994"/><stop offset="0.45" stop-color="#ce4994"/><stop offset="0.46" stop-color="#cf4894"/><stop offset="0.46" stop-color="#d04894"/><stop offset="0.46" stop-color="#d04793"/><stop offset="0.47" stop-color="#d24793"/><stop offset="0.47" stop-color="#d34692"/><stop offset="0.48" stop-color="#d44592"/><stop offset="0.48" stop-color="#d64592"/><stop offset="0.48" stop-color="#d54592"/><stop offset="0.49" stop-color="#d64491"/><stop offset="0.49" stop-color="#d84491"/><stop offset="0.5" stop-color="#d84391"/><stop offset="0.5" stop-color="#d94190"/><stop offset="0.5" stop-color="#d94190"/><stop offset="0.51" stop-color="#db4190"/><stop offset="0.51" stop-color="#dc4090"/><stop offset="0.52" stop-color="#dd4090"/><stop offset="0.52" stop-color="#de4090"/><stop offset="0.52" stop-color="#de4090"/><stop offset="0.53" stop-color="#df4090"/><stop offset="0.53" stop-color="#df4090"/><stop offset="0.54" stop-color="#e1408f"/><stop offset="0.54" stop-color="#e2408f"/><stop offset="0.54" stop-color="#e2408f"/><stop offset="0.55" stop-color="#e4408f"/><stop offset="0.55" stop-color="#e44190"/><stop offset="0.55" stop-color="#e64190"/><stop offset="0.56" stop-color="#e64290"/><stop offset="0.56" stop-color="#e74190"/><stop offset="0.57" stop-color="#e74290"/><stop offset="0.57" stop-color="#e94491"/><stop offset="0.57" stop-color="#e94391"/><stop offset="0.58" stop-color="#e94391"/><stop offset="0.58" stop-color="#e94591"/><stop offset="0.59" stop-color="#e94692"/><stop offset="0.59" stop-color="#e94692"/><stop offset="0.59" stop-color="#e94793"/><stop offset="0.6" stop-color="#e94793"/><stop offset="0.6" stop-color="#e94793"/><stop offset="0.61" stop-color="#ea4993"/><stop offset="0.61" stop-color="#ea4993"/><stop offset="0.61" stop-color="#ea4b94"/><stop offset="0.62" stop-color="#ea4c95"/><stop offset="0.62" stop-color="#ea4c95"/><stop offset="0.63" stop-color="#ea4e95"/><stop offset="0.63" stop-color="#ea4f95"/><stop offset="0.63" stop-color="#ea5095"/><stop offset="0.64" stop-color="#ea5194"/><stop offset="0.64" stop-color="#ea5393"/><stop offset="0.64" stop-color="#ea5493"/><stop offset="0.65" stop-color="#eb5793"/><stop offset="0.65" stop-color="#eb5792"/><stop offset="0.66" stop-color="#eb5a93"/><stop offset="0.66" stop-color="#eb5c92"/><stop offset="0.66" stop-color="#eb5c92"/><stop offset="0.67" stop-color="#eb5d91"/><stop offset="0.67" stop-color="#eb5e90"/><stop offset="0.68" stop-color="#ec5f90"/><stop offset="0.68" stop-color="#ec6290"/><stop offset="0.68" stop-color="#ec638f"/><stop offset="0.69" stop-color="#ec648e"/><stop offset="0.69" stop-color="#ec668f"/><stop offset="0.7" stop-color="#ed678d"/><stop offset="0.7" stop-color="#ed698e"/><stop offset="0.7" stop-color="#ed6b8d"/><stop offset="0.71" stop-color="#ed6c8d"/><stop offset="0.71" stop-color="#ed6e8c"/><stop offset="0.71" stop-color="#ee708b"/><stop offset="0.72" stop-color="#ee708b"/><stop offset="0.72" stop-color="#ee738a"/><stop offset="0.73" stop-color="#ee758a"/><stop offset="0.73" stop-color="#ee7689"/><stop offset="0.73" stop-color="#ee7889"/><stop offset="0.74" stop-color="#ef7987"/><stop offset="0.74" stop-color="#ef7b88"/><stop offset="0.75" stop-color="#ef7c87"/><stop offset="0.75" stop-color="#ef7d86"/><stop offset="0.75" stop-color="#ef7e85"/><stop offset="0.76" stop-color="#f08085"/><stop offset="0.76" stop-color="#f08285"/><stop offset="0.77" stop-color="#f08384"/><stop offset="0.77" stop-color="#f08584"/><stop offset="0.77" stop-color="#f08683"/><stop offset="0.78" stop-color="#f18983"/><stop offset="0.78" stop-color="#f18b83"/><stop offset="0.79" stop-color="#f18c82"/><stop offset="0.79" stop-color="#f28e81"/><stop offset="0.79" stop-color="#f28f81"/><stop offset="0.8" stop-color="#f29081"/><stop offset="0.8" stop-color="#f29380"/><stop offset="0.8" stop-color="#f2947f"/><stop offset="0.81" stop-color="#f3957e"/><stop offset="0.81" stop-color="#f3977f"/><stop offset="0.82" stop-color="#f3997e"/><stop offset="0.82" stop-color="#f49b7d"/><stop offset="0.82" stop-color="#f49d7d"/><stop offset="0.83" stop-color="#f49f7c"/><stop offset="0.83" stop-color="#f4a07c"/><stop offset="0.84" stop-color="#f5a27b"/><stop offset="0.84" stop-color="#f5a27a"/><stop offset="0.84" stop-color="#f5a57a"/><stop offset="0.85" stop-color="#f5a77a"/><stop offset="0.85" stop-color="#f6a879"/><stop offset="0.86" stop-color="#f6a978"/><stop offset="0.86" stop-color="#f6ac78"/><stop offset="0.86" stop-color="#f7ad78"/><stop offset="0.87" stop-color="#f7b078"/><stop offset="0.87" stop-color="#f8b276"/><stop offset="0.88" stop-color="#f8b276"/><stop offset="0.88" stop-color="#f8b575"/><stop offset="0.88" stop-color="#f9b675"/><stop offset="0.89" stop-color="#f9b774"/><stop offset="0.89" stop-color="#f9ba73"/><stop offset="0.89" stop-color="#fabb72"/><stop offset="0.9" stop-color="#fabc71"/><stop offset="0.9" stop-color="#fabe71"/><stop offset="0.91" stop-color="#fbc06f"/><stop offset="0.91" stop-color="#fbc170"/><stop offset="0.91" stop-color="#fbc36f"/><stop offset="0.92" stop-color="#fcc570"/><stop offset="0.92" stop-color="#fcc770"/><stop offset="0.93" stop-color="#fcc96e"/><stop offset="0.93" stop-color="#fdca6f"/><stop offset="0.93" stop-color="#fdcc6c"/><stop offset="0.94" stop-color="#fece6d"/><stop offset="0.94" stop-color="#fecf6b"/><stop offset="0.95" stop-color="#fed26b"/><stop offset="0.95" stop-color="#ffd46b"/><stop offset="0.95" stop-color="#ffd46b"/><stop offset="0.96" stop-color="#ffd769"/><stop offset="0.96" stop-color="#ffd868"/><stop offset="0.96" stop-color="#fed968"/><stop offset="0.97" stop-color="#fedb66"/><stop offset="0.97" stop-color="#fedd67"/><stop offset="0.98" stop-color="#fede67"/><stop offset="0.98" stop-color="#fee066"/><stop offset="0.98" stop-color="#fee165"/><stop offset="0.99" stop-color="#fee364"/><stop offset="0.99" stop-color="#ffe663"/><stop offset="1" stop-color="#ffe762"/><stop offset="1" stop-color="#ffe963"/></linearGradient></defs><g class="cls-2"><g id="Calque_2" data-name="Calque 2"><g id="Calque_1-2" data-name="Calque 1"><g class="cls-3"><g class="cls-4"><path class="cls-5" d="M0,131.08,37,256.42,477.49,126.59,440.55,1.25Z" transform="translate(-0.04)"/></g></g><polygon class="cls-6" points="262.46 503.23 263.58 545.36 264.91 557.05 243.86 561.67 248.44 546.21 242.06 509.97 262.46 503.23"/><path class="cls-7" d="M264.77,553.82s-3.7-2.67-10.4-2.67-9.67,2.75-9.67,2.75l-16,19,38.27.25Z" transform="translate(-0.04)"/><path class="cls-8" d="M259.41,556.21H249a.89.89,0,1,1,0-1.77h10.44a.89.89,0,1,1,0,1.77Z" transform="translate(-0.04)"/><path class="cls-8" d="M259.41,561H247.09a.89.89,0,1,1,0-1.77h12.32a.89.89,0,1,1,0,1.77Z" transform="translate(-0.04)"/><path class="cls-8" d="M259.65,565.69H244.32a.89.89,0,1,1,0-1.77h15.33a.89.89,0,1,1,0,1.77Z" transform="translate(-0.04)"/><path class="cls-8" d="M227.4,572.82c0,.28,0,.56,0,.85v5.59h41v-5.59c0-.28,0-.57,0-.85Z" transform="translate(-0.04)"/><path class="cls-8" d="M191.17,572.82c0,.28-1.43,1-1.43,1.25l.58,5.19h23.45v-5.59c0-.28,0-.57,0-.85Z" transform="translate(-0.04)"/><path class="cls-6" d="M230.57,507.5c-.32,0-16.11,13.59-16.11,13.59l-4.5,6s-12.8,19.58-12.8,19.29-3.47-37.63-3.47-37.63l10.93-1.88L224.73,486Z" transform="translate(-0.04)"/><path class="cls-7" d="M194.81,573.09c-1.81-10.76-10-59.54-10-59.54l2.51-8,19.6,1.29s-5,1.18-4,9.34c1.06,8.4,7.26,10.16,7.08,10.92s-4.79,27.26-6.73,38.41c-.47,2.71,7.76.73,9,7.56Z" transform="translate(-0.04)"/><polygon class="cls-8" points="180.9 505.91 189.84 576.02 196.3 575.82 187.36 505.1 180.9 505.91"/><path class="cls-8" d="M209.28,534.6l-.26,0-5.08-1.1a1.06,1.06,0,0,1-.86-1.27,1.18,1.18,0,0,1,1.4-.79l5.07,1.1a1.06,1.06,0,0,1,.86,1.28A1.14,1.14,0,0,1,209.28,534.6Z" transform="translate(-0.04)"/><path class="cls-8" d="M208.05,540.88a1.14,1.14,0,0,1-.26,0l-4.3-.91a1.07,1.07,0,0,1-.87-1.27,1.18,1.18,0,0,1,1.39-.79l4.3.91a1.07,1.07,0,0,1,.87,1.27A1.14,1.14,0,0,1,208.05,540.88Z" transform="translate(-0.04)"/><path class="cls-8" d="M206.81,547.17l-.25,0-3.51-.7a1.06,1.06,0,0,1-.89-1.26,1.18,1.18,0,0,1,1.39-.81l3.51.71a1.06,1.06,0,0,1,.89,1.26A1.15,1.15,0,0,1,206.81,547.17Z" transform="translate(-0.04)"/><path class="cls-8" d="M205.58,553.46a1,1,0,0,1-.24,0l-2.73-.51a1.07,1.07,0,0,1-.91-1.25,1.16,1.16,0,0,1,1.37-.82l2.74.51a1.08,1.08,0,0,1,.91,1.25A1.16,1.16,0,0,1,205.58,553.46Z" transform="translate(-0.04)"/><path class="cls-9" d="M371.7,200.78c4.36-4.12,2.18-27.68-13.73-45.25s-14.85-41.13-36.7-53.27S275.19,117,291.85,137.89s36.86,47.41,48.74,58.4C352.66,207.45,367.34,204.91,371.7,200.78Z" transform="translate(-0.04)"/><path class="cls-6" d="M155.71,195c-4.86-3.07-10.39-19.87,2.85-38.15s1.37-28.42,21.21-42.69,47,2,33.5,23.37-19.38,36.1-29.56,47.82C173.36,197.21,160.56,198,155.71,195Z" transform="translate(-0.04)"/><path class="cls-7" d="M208.72,246.29c7.77-30.35,45.15-10.58,51.73,7.69,17.22,47.88,5.43,133.86,5.69,152.27.35,25.43-38.75,43.18-44.51-9.9C213.48,321.34,199.66,281.63,208.72,246.29Z" transform="translate(-0.04)"/><path class="cls-7" d="M222.75,395.13C224.81,418.38,242,534.22,242,534.22l27.92-1.48s-.11-125.68-2.72-141.33S220.72,372.06,222.75,395.13Z" transform="translate(-0.04)"/><path class="cls-7" d="M294.87,242.42c-18.41-26.27-46.45,3.7-46,22.92,1.24,50.38,43.73,127.89,50.21,145.33,8.95,24.1,52.3,29,38.37-22.81C317.78,314.65,316.31,273,294.87,242.42Z" transform="translate(-0.04)"/><path class="cls-7" d="M334.39,423.69c-17.28,17.21-108.91,99.06-108.91,99.06l-21-16.77s84.73-99.18,97.34-110.08S351.53,406.61,334.39,423.69Z" transform="translate(-0.04)"/><path class="cls-10" d="M196.5,100.86c9.1-5.62,28.94-8.32,42.63-9.44,3.27-.27,6.35-.45,9.06-.55,11.41-.4,50,3.66,59.83,8.19,17,7.86,3.87,48,3,58.95-.47,6.1-1.53,33-1.93,64.12-.1,7.48-3.06,22.14-3.13,28.5a39.68,39.68,0,0,0,7.82,24.24s-19,32.92-82.11,23.28c-24.21-3.69-30.54-16.35-30.54-16.35L191.05,123.68C190.65,114.08,187.77,106.25,196.5,100.86Z" transform="translate(-0.04)"/><path class="cls-9" d="M234.25,88.33V311.75s-32.17-2.66-36.35-19.41S190.23,126,187,112.3C182.44,92.51,234.25,88.33,234.25,88.33Z" transform="translate(-0.04)"/><path class="cls-11" d="M225.55,109.78V310.4l-1.74-.39V109.78Z" transform="translate(-0.04)"/><path class="cls-11" d="M234.22,111.16V311.78a17.32,17.32,0,0,0-1.73-.2s0-146,0-200.42Z" transform="translate(-0.04)"/><path class="cls-9" d="M272,88.33V311.75s40.07-6.66,44.24-23.41-.21-162.3,3-176C323.8,92.51,272,88.33,272,88.33Z" transform="translate(-0.04)"/><path class="cls-11" d="M280.59,109.49V309.9l1.75-.38v-200Z" transform="translate(-0.04)"/><path class="cls-11" d="M271.92,110.87c0,54.71,0,201,0,201,.57-.11,1.82-.31,1.82-.31s-.11-146.29-.11-200.67Z" transform="translate(-0.04)"/><path class="cls-11" d="M231.46,137a2.08,2.08,0,1,1-2.07-1.89A2,2,0,0,1,231.46,137Z" transform="translate(-0.04)"/><path class="cls-11" d="M231.46,172.32a2.08,2.08,0,1,1-2.07-1.89A2,2,0,0,1,231.46,172.32Z" transform="translate(-0.04)"/><path class="cls-11" d="M231.46,207.62a2.08,2.08,0,1,1-2.07-1.89A2,2,0,0,1,231.46,207.62Z" transform="translate(-0.04)"/><path class="cls-11" d="M231.46,242.92a2.08,2.08,0,1,1-2.07-1.89A2,2,0,0,1,231.46,242.92Z" transform="translate(-0.04)"/><path class="cls-11" d="M231.46,278.23a2.08,2.08,0,1,1-2.07-1.89A2,2,0,0,1,231.46,278.23Z" transform="translate(-0.04)"/><path class="cls-9" d="M221.12,123c-.63,9.54-23.8,59.43-29.13,67,0,0-1.85-13.14-14.13-17.13-23.07-7.51-27.48-2.93-27.48-2.93,4-11.21,17.71-48.35,22.33-55.92C189.31,86.76,222.59,100.55,221.12,123Z" transform="translate(-0.04)"/><path class="cls-12" d="M176.33,155.37c13.45,2,23.17,11.46,21.71,21.16a14.27,14.27,0,0,1-4.82,8.53,13.11,13.11,0,0,1-.08,3.25c-1.46,9.71-13.55,16-27,14s-23.16-11.46-21.7-21.17c.43-2.91,6.37-16.58,8-18.55C157.15,157,166.37,153.91,176.33,155.37Z" transform="translate(-0.04)"/><ellipse class="cls-9" cx="168.56" cy="184.45" rx="19.23" ry="15.27" transform="translate(-14.14 13.95) rotate(-4.55)"/><path class="cls-6" d="M291,101.69c0,7.07-14.83,16.75-33.63,16.75s-34.46-9.68-34.46-16.75,15.24-10.46,34-10.46S291,94.62,291,101.69Z" transform="translate(-0.04)"/><path class="cls-6" d="M321.58,263.12c.66,15.13-7.52,12.4-13.6,9.41s-7.94-5.46-8.64-7S301.58,252,301.58,252l2.77-6.7Z" transform="translate(-0.04)"/><path class="cls-6" d="M311.3,257h0a2.53,2.53,0,0,0,.36-3.78l-11.42-12.37a3.19,3.19,0,0,0-4.16-.33h0a2.53,2.53,0,0,0-.36,3.78l11.42,12.37A3.19,3.19,0,0,0,311.3,257Z" transform="translate(-0.04)"/><path class="cls-6" d="M312.46,257.26h0a2.56,2.56,0,0,0-1.43-3.51l-15.94-6.6a3,3,0,0,0-3.85,1.31h0a2.55,2.55,0,0,0,1.43,3.5l15.94,6.61A3,3,0,0,0,312.46,257.26Z" transform="translate(-0.04)"/><path class="cls-6" d="M302.74,261.08,283,260.53a2.47,2.47,0,0,0-2.65,2.22h0a2.42,2.42,0,0,0,2.44,2.41l19.75.55C303.93,265.76,304.14,261.13,302.74,261.08Z" transform="translate(-0.04)"/><path class="cls-6" d="M291.18,254H277.13a2.48,2.48,0,0,0-2.65,2.23h0a2.41,2.41,0,0,0,2.44,2.4l13.94.77C292.25,259.43,292.58,254,291.18,254Z" transform="translate(-0.04)"/><path class="cls-6" d="M293.69,246.91l-18.58,1.52a2.42,2.42,0,0,0-2.37,2.48h0a2.49,2.49,0,0,0,2.71,2.15l20.52-.83C297.37,252.14,295.09,246.82,293.69,246.91Z" transform="translate(-0.04)"/><path class="cls-6" d="M298.11,239.9c-5.88.33-16.41.71-16.41.71a2.41,2.41,0,0,0-2.37,2.47,2.48,2.48,0,0,0,2.71,2.15s10.8.22,16.74-.11Z" transform="translate(-0.04)"/><path class="cls-6" d="M312.07,259.87h0a2.76,2.76,0,0,0-2.44-3.14L291.86,254a3,3,0,0,0-3.45,2.23h0a2.76,2.76,0,0,0,2.45,3.13l17.76,2.72A3,3,0,0,0,312.07,259.87Z" transform="translate(-0.04)"/><path class="cls-12" d="M363.45,175.05c-9.54-4.88-20.24-3.36-23.9,3.4a10.85,10.85,0,0,0-1,7.55,10.46,10.46,0,0,0-1.49,2.07c-3.67,6.76,1.08,16.2,10.61,21.08s20.24,3.36,23.9-3.4c1.1-2,3.79-13.31,3.67-15.29C375,184.78,370.51,178.67,363.45,175.05Z" transform="translate(-0.04)"/><path class="cls-6" d="M322.91,272.54c13.82-11.07,40.46-46.57,43.31-62.42s-14-22.35-22.67-19.28c-19.22,6.85-13.4,44.82-28.15,67.37C301.7,279.16,319.68,275.13,322.91,272.54Z" transform="translate(-0.04)"/><path class="cls-12" d="M234.25,130.63c-.34-13.84-19.67-8.08-19.67-8.08a36.86,36.86,0,0,1,7.35-28.22A27.37,27.37,0,0,1,236.58,85Z" transform="translate(-0.04)"/><path class="cls-11" d="M234.4,127.71c-.34-13.84-19.82-8.13-19.82-8.13a36.86,36.86,0,0,1,7.35-28.22,27.56,27.56,0,0,1,15-9.31Z" transform="translate(-0.04)"/><path class="cls-12" d="M272.06,130.67c.34-13.84,21.77-8.12,21.77-8.12a36.83,36.83,0,0,0-7.34-28.22A27.37,27.37,0,0,0,271.83,85Z" transform="translate(-0.04)"/><path class="cls-11" d="M272.06,127.7c.34-13.84,21.77-8.12,21.77-8.12a36.83,36.83,0,0,0-7.34-28.22c-6-7.62-16.28-9.41-16.28-9.41l1.64,16.77Z" transform="translate(-0.04)"/><path class="cls-6" d="M268.13,63.89c-1.16-9.2-10.3-15.79-20.39-14.73s-17.34,9.38-16.18,18.58c.29,2.25,3.6,28.41,3.89,30.66,1.17,9.2,10.3,15.8,20.4,14.74s17.34-9.38,16.17-18.58C271.74,92.38,268.42,66.14,268.13,63.89Z" transform="translate(-0.04)"/><g class="cls-13"><path class="cls-14" d="M255.36,113.18l.49,0c10.1-1.07,17.34-9.38,16.17-18.58-.28-2.18-3.6-28.42-3.89-30.67-1.16-9.2-10.3-15.79-20.39-14.73l-.49.06Z" transform="translate(-0.04)"/></g><path class="cls-15" d="M280.89,29.79a1.39,1.39,0,0,1-.49-2.05,5.41,5.41,0,0,0,.6-5.49,6.33,6.33,0,0,0-4.65-3.53A1.44,1.44,0,0,1,275.12,17a5.5,5.5,0,0,0-1.5-5.35,6.85,6.85,0,0,0-5.7-1.87,1.56,1.56,0,0,1-1.82-1.24,5.87,5.87,0,0,0-3.42-4.6,7,7,0,0,0-6.05,0,1.67,1.67,0,0,1-2.2-.63A6.47,6.47,0,0,0,249.51.05,6.83,6.83,0,0,0,243.83,2a1.71,1.71,0,0,1-2.3.09,6.88,6.88,0,0,0-5.84-1.5,6.33,6.33,0,0,0-4.62,3.57,1.65,1.65,0,0,1-2.13.79,7,7,0,0,0-6,.42,5.75,5.75,0,0,0-3,4.79,1.55,1.55,0,0,1-1.71,1.41,6.72,6.72,0,0,0-5.52,2.27,5.48,5.48,0,0,0-1,5.48,1.41,1.41,0,0,1-1.08,1.81A6.23,6.23,0,0,0,206.23,25a5.46,5.46,0,0,0,1.07,5.43,1.37,1.37,0,0,1-.31,2.08,5.7,5.7,0,0,0-2.62,5,5.81,5.81,0,0,0,3,4.77,1.39,1.39,0,0,1,.49,2,5.41,5.41,0,0,0-.6,5.49A6.33,6.33,0,0,0,212,53.27,1.44,1.44,0,0,1,213.19,55a5.5,5.5,0,0,0,1.5,5.35,6.82,6.82,0,0,0,5.7,1.87,1.56,1.56,0,0,1,1.82,1.24,5.87,5.87,0,0,0,3.42,4.6,7,7,0,0,0,6.05,0,1.67,1.67,0,0,1,2.2.64,6.46,6.46,0,0,0,4.92,3.22A6.83,6.83,0,0,0,244.48,70a1.7,1.7,0,0,1,2.3-.08,6.91,6.91,0,0,0,5.84,1.49,6.33,6.33,0,0,0,4.62-3.57,1.65,1.65,0,0,1,2.13-.79,7,7,0,0,0,6-.42,5.75,5.75,0,0,0,3-4.79,1.55,1.55,0,0,1,1.71-1.41,6.72,6.72,0,0,0,5.52-2.27,5.47,5.47,0,0,0,1-5.48,1.41,1.41,0,0,1,1.08-1.81A6.2,6.2,0,0,0,282.08,47,5.48,5.48,0,0,0,281,41.61a1.37,1.37,0,0,1,.31-2.08,5.7,5.7,0,0,0,2.62-5A5.81,5.81,0,0,0,280.89,29.79Z" transform="translate(-0.04)"/><path class="cls-16" d="M276.59,40a4.81,4.81,0,0,0-4.06-5.67,5.27,5.27,0,0,0-6.22,3.7c-.15.63-.68,2.94-.83,3.58a4.82,4.82,0,0,0,4.07,5.66,5.26,5.26,0,0,0,6.22-3.7C275.91,43,276.45,40.64,276.59,40Z" transform="translate(-0.04)"/><path class="cls-14" d="M274.91,39.78a3.27,3.27,0,0,0-2.75-3.84A3.58,3.58,0,0,0,268,38.45c-.09.42-.45,2-.55,2.41a3.25,3.25,0,0,0,2.74,3.84,3.57,3.57,0,0,0,4.21-2.51C274.45,41.78,274.81,40.21,274.91,39.78Z" transform="translate(-0.04)"/><path class="cls-16" d="M215,52.21a4.52,4.52,0,0,1,1.11-6.69,5.6,5.6,0,0,1,7.35,1l2.38,2.94a4.52,4.52,0,0,1-1.11,6.7,5.61,5.61,0,0,1-7.35-1Z" transform="translate(-0.04)"/><path class="cls-14" d="M216.41,51.36a3,3,0,0,1,.75-4.52,3.79,3.79,0,0,1,5,.68l1.61,2A3.06,3.06,0,0,1,223,54a3.79,3.79,0,0,1-5-.69Z" transform="translate(-0.04)"/><path class="cls-6" d="M269.63,36.75c-2-13.73-16.43-22.7-31-19.7-13.78,2.83-22.25,15.53-19.25,28.1,0,0,4.38,18.19,4.59,18.81,2,13.73,16.42,22.7,31,19.7,13.78-2.83,22.25-15.53,19.25-28.11l-4-16.93C270,38,269.83,37.36,269.63,36.75Z" transform="translate(-0.04)"/><path class="cls-14" d="M251.74,71.82c4.63-.91,7.92-3.85,8.7-6.83l-.12-.06A26.83,26.83,0,0,1,251,68.64a27.86,27.86,0,0,1-10.19.16l-.09.1C242.78,71.32,247.11,72.75,251.74,71.82Z" transform="translate(-0.04)"/><path class="cls-17" d="M257.07,63.89a10.33,10.33,0,0,0-5.32.46q-.65.21-1.32.36a11.18,11.18,0,0,1-1.89.22A10,10,0,0,0,243,66.8a13.1,13.1,0,0,0-2.24,2A27.86,27.86,0,0,0,251,68.64a26.83,26.83,0,0,0,9.34-3.71A14.88,14.88,0,0,0,257.07,63.89Z" transform="translate(-0.04)"/><path class="cls-15" d="M269,41.18v0A.07.07,0,0,0,269,41.18Z" transform="translate(-0.04)"/><path class="cls-15" d="M222.58,50.32v.06S222.59,50.35,222.58,50.32Z" transform="translate(-0.04)"/><path class="cls-15" d="M242.94,12.68l-9.7,1.93C222,16.82,214.93,26.89,217.37,37.1l1.75,7.36a.87.87,0,0,0,1.62.11,2.59,2.59,0,0,0,.1-1.57l-.06-.26a4.61,4.61,0,0,1,.71-3.81,4.85,4.85,0,0,0,.83-4h0c-.89-3.71,5.19-9.21,18-11.74,14.09-2.79,21.91.78,22.24,4.11a4.25,4.25,0,0,0,2.21,3.13,6.26,6.26,0,0,1,2.89,3.85l.06.27v0c.24,1,1.87.61,1.64-.37l-1.69-7C265.2,16.94,254.14,10.47,242.94,12.68Z" transform="translate(-0.04)"/><path class="cls-15" d="M266.8,61.46c-1.29.37-8.53-3.9-18.17-1.92S234.31,68,233,68.16s-4.3-7.43-10.67-6.63c0,0,3.06,12.27,5,16.14s15.88,12.91,28.06,10c12.4-2,21-15.52,21-19.74s-2.82-16.57-2.82-16.57C267.32,53.08,268.1,61.09,266.8,61.46Zm-7.68,8.43a2.8,2.8,0,0,1-2.67,1.78,25.75,25.75,0,0,0-4.67.36,36.14,36.14,0,0,0-4.83,1.4,3,3,0,0,1-3.14-.69l-3.39-3.49a.84.84,0,0,1,.06-1.25c1.19-1,4.13-3.08,9.59-4.16,5.66-1.12,8.84,0,10.13.62a.88.88,0,0,1,.47,1.07Z" transform="translate(-0.04)"/><path class="cls-18" d="M255.57,87.67C267.85,85.55,276.31,72.15,276.3,68s-2.82-16.57-2.82-16.57l-.24.08-1-4.31a5,5,0,0,0,3.56-3.58c.14-.61.68-2.94.82-3.57a4.81,4.81,0,0,0-4.06-5.67,5.7,5.7,0,0,0-3.26.34.73.73,0,0,0,.05-.49l-1.69-7c-2.43-10.2-13.49-16.67-24.69-14.46l-5,1Z" transform="translate(-0.04)"/><path class="cls-15" d="M256.65,41.7a1.53,1.53,0,0,1-.52,2.66,1.87,1.87,0,0,1-1.81-.29,1.53,1.53,0,0,1,.52-2.66A1.87,1.87,0,0,1,256.65,41.7Z" transform="translate(-0.04)"/><path class="cls-15" d="M259,39.45a.73.73,0,0,1-.51.11A6.54,6.54,0,0,0,252,42.27a5.18,5.18,0,0,0-.72,1.89.68.68,0,0,1-1,.42.6.6,0,0,1-.34-.66A6.85,6.85,0,0,1,253,39.49a8.06,8.06,0,0,1,5.63-1.14.63.63,0,0,1,.57.57A.58.58,0,0,1,259,39.45Z" transform="translate(-0.04)"/><path class="cls-15" d="M239.16,44a.72.72,0,0,1-.5.11,6.19,6.19,0,0,0-7.17,4.58.66.66,0,0,1-.61.55.63.63,0,0,1-.72-.71c.7-3.74,4.6-6.26,8.7-5.63a.64.64,0,0,1,.58.57A.58.58,0,0,1,239.16,44Z" transform="translate(-0.04)"/><path class="cls-15" d="M236.89,46.2a1.52,1.52,0,0,1-.49,2.66,1.86,1.86,0,0,1-1.81-.28,1.52,1.52,0,0,1,.49-2.66A1.86,1.86,0,0,1,236.89,46.2Z" transform="translate(-0.04)"/><path class="cls-15" d="M258.9,50c-5.91,1.17-10.41-.92-11.46-5.34-1.45-6.07,5.87-7.52,8.27-8s9.72-1.92,11.17,4.15C267.94,45.24,264.8,48.86,258.9,50ZM256,37.88c-5.81,1.15-8.05,3.17-7.24,6.54,1.07,4.48,6,5.17,9.85,4.41s8-3.26,7-7.74C264.76,37.72,261.81,36.73,256,37.88Z" transform="translate(-0.04)"/><path class="cls-15" d="M235.69,54.62c-5.91,1.17-10.41-.93-11.46-5.34-1.45-6.07,5.87-7.52,8.27-8s9.72-1.92,11.17,4.14C244.73,49.84,241.59,53.45,235.69,54.62Zm-2.9-12.14c-5.82,1.15-8,3.17-7.25,6.53,1.07,4.49,6,5.18,9.86,4.41s8-3.25,7-7.74C241.55,42.32,238.6,41.33,232.79,42.48Z" transform="translate(-0.04)"/><path class="cls-15" d="M248,44.07a.69.69,0,0,1-.62-.17c-1-.88-1.7-1.29-2.22-1.2s-1.15.77-1.77,2a.7.7,0,0,1-.89.31.59.59,0,0,1-.34-.81c.85-1.72,1.71-2.56,2.76-2.74,1.34-.22,2.59.78,3.42,1.55a.58.58,0,0,1,0,.87A.68.68,0,0,1,248,44.07Z" transform="translate(-0.04)"/><path class="cls-15" d="M224.47,47.71a.7.7,0,0,1-.57-.13l-6.5-4.87a.58.58,0,0,1-.09-.86.72.72,0,0,1,.95-.08l6.5,4.86a.59.59,0,0,1,.09.87A.68.68,0,0,1,224.47,47.71Z" transform="translate(-0.04)"/><path class="cls-15" d="M265.85,39.51a.77.77,0,0,1-.45,0,.59.59,0,0,1-.29-.83l3.65-6.36a.7.7,0,0,1,.91-.26.59.59,0,0,1,.28.83l-3.64,6.36A.71.71,0,0,1,265.85,39.51Z" transform="translate(-0.04)"/><path class="cls-19" d="M230.91,84.93l-18.28,4.71a3.27,3.27,0,0,1-4-2l-13.11-42.4a2.92,2.92,0,0,1,2.22-3.62l18.28-4.71a3.27,3.27,0,0,1,4,2l13.11,42.41A2.9,2.9,0,0,1,230.91,84.93Z" transform="translate(-0.04)"/><path class="cls-10" d="M229.15,84.69,210.87,89.4a3.27,3.27,0,0,1-4-2L193.79,45A2.91,2.91,0,0,1,196,41.35l18.27-4.71a3.28,3.28,0,0,1,4,2l13.1,42.4A2.91,2.91,0,0,1,229.15,84.69Z" transform="translate(-0.04)"/><path class="cls-6" d="M197.94,94.84,196,73.91a5.89,5.89,0,0,1,.21-2.21l6.38-25.9c.88-3.58,6.7-3.41,5.52,1.33l-3.71,14.7L206,67a11.08,11.08,0,0,0,1,6.59l3.83,7.8s10.18,9.12.91,16.75c-5.81,4.79-10,2.28-12.12.2A5.63,5.63,0,0,1,197.94,94.84Z" transform="translate(-0.04)"/><path class="cls-6" d="M199.7,66.88h0a3,3,0,0,0,3.83,1l14.74-7.6a2.45,2.45,0,0,0,1.06-3.49h0a3,3,0,0,0-3.83-1l-14.74,7.6A2.45,2.45,0,0,0,199.7,66.88Z" transform="translate(-0.04)"/><path class="cls-6" d="M201.89,65h0a3,3,0,0,0,3.92-.56l10-12.47a2.43,2.43,0,0,0-.61-3.59h0a3,3,0,0,0-3.92.56l-10,12.47A2.44,2.44,0,0,0,201.89,65Z" transform="translate(-0.04)"/><path class="cls-6" d="M199.56,74.84h0a2.67,2.67,0,0,0,2.71-2.65L201,47a2.73,2.73,0,0,0-2.91-2.47h0a2.68,2.68,0,0,0-2.71,2.65l1.23,25.22A2.73,2.73,0,0,0,199.56,74.84Z" transform="translate(-0.04)"/><path class="cls-6" d="M210.27,96.38c-2.58,32-13.65,77.72-25.13,92.2s-29,9.09-32.44,1c-10.08-23.95,34.37-66.22,44-93.56C207.16,66.59,210.27,96.38,210.27,96.38Z" transform="translate(-0.04)"/><polygon class="cls-7" points="272.71 508.25 271.62 537.27 241.62 541.49 236.63 515.53 272.71 508.25"/><polygon class="cls-7" points="221.51 482.58 201.67 505.31 221.5 526.24 243.79 509.43 221.51 482.58"/></g></g></g></svg>