<svg xmlns="http://www.w3.org/2000/svg" xmlns:xlink="http://www.w3.org/1999/xlink" viewBox="0 0 477.45 575.52"><defs><style>.cls-1{fill:none;}.cls-2{clip-path:url(#clip-path);}.cls-3{clip-path:url(#clip-path-2);}.cls-4{fill:url(#Dégradé_sans_nom_2);}.cls-5{fill:#f4a395;}.cls-6{fill:#d85f9f;}.cls-7{fill:#ed6a3c;}.cls-8{fill:#dd3e8f;}.cls-9{fill:#fff;}.cls-10{fill:#f18c7c;}.cls-11{fill:#271c32;}.cls-12{fill:url(#radial-gradient);}.cls-13{fill:url(#radial-gradient-2);}.cls-14{fill:url(#radial-gradient-3);}</style><clipPath id="clip-path" transform="translate(-0.04)"><rect class="cls-1" x="9.1" y="66.95" width="459.26" height="130.67" transform="translate(-27.66 72.89) rotate(-16.42)"/></clipPath><clipPath id="clip-path-2" transform="translate(-0.04)"><path class="cls-1" d="M41.41,154.69c-2.86,1.48,7-6.83,2.62-3.76l-3,2.87-3,3c1-2-1.89-.22-1.42.79,1.45-.76.08.55-1.3,2s-2.73,2.85-1.29,2a17.18,17.18,0,0,1,2.12-2.42c.75-.73,1.55-1.38,2.29-2A19.66,19.66,0,0,0,41.41,154.69ZM225,110.58c.49-2.06,4-2.68,6-5.25C230.49,107.56,227.46,108.81,225,110.58ZM369.53,69.16c0,.1-.13.33-.27.66s-.13.29-.18.4a3.72,3.72,0,0,1-.2.4c-.11.2-.22.42-.34.62l0,0,1.11-1.78h0l-.15-.11-.29-.22c-.4-.28-.79-.54-1.17-.82l-1.09-.74L366,67a15,15,0,0,1,3.58,1.7l.24.15.13.08,0,0c-.64,1,1.45-2.3-1.44,2.32l0,0,0-.08.07-.16A10.29,10.29,0,0,0,369.53,69.16ZM72.65,128.81c0-1.46,3-2.6,4.12-3.41C76.65,127.23,73.86,127.48,72.65,128.81Zm143.11-10.48c-.9.72-1.82-.2-1.6-1.31.56-.15.8,0,1,.24S215.52,118,215.76,118.33Zm36.43-28.26c-3.45,1.42-.05-1,2.56-2.56S259.09,85.25,252.19,90.07Zm-110.5,3.62c-.75.78-2.76,1.35-5.18,2s-5.25,1.28-7.59,2.08a16.09,16.09,0,0,1,4.66-2.23A30.35,30.35,0,0,1,141.69,93.69Zm3.8,2.13c-.39.54-2,.81-3.88,1.1a33.84,33.84,0,0,0-5.3,1,11.94,11.94,0,0,1,4.1-1.69A20.84,20.84,0,0,1,145.49,95.82ZM368.22,74.31a1.31,1.31,0,0,1-.47.67.2.2,0,0,1-.3-.13,1.5,1.5,0,0,0-.19-.38c-.09-.07-.09-.21-.26-.11a1.33,1.33,0,0,1,.32-.43.21.21,0,0,1,.13-.07.61.61,0,0,1,.18,0c.11,0,.18.08.31.16A.55.55,0,0,1,368.22,74.31Zm9-.51c-1.38,1-2.32,1.06-2.4.82S375.33,74,377.19,73.8Zm-304,62.7c3.47-.63,1.19,3.24,5.21.88-.26,1.68-3.46,2.18-4.7,2.75-5,8.27-14.33,11.22-22.15,20.29a51.25,51.25,0,0,1,4-5c1.54-1.72,3.23-3.47,5-5.08.87-.82,1.78-1.63,2.69-2.4s1.81-1.48,2.71-2.16a48.06,48.06,0,0,1,5.19-3.51c-3.63,1.63-.26-.51.67-2.32-3.77,1.4-7.47,6-10.52,7.87a33.34,33.34,0,0,1,5.22-5.68C68.58,140.3,71,138.35,73.18,136.5ZM53.85,154.56c.27-.94,1.43-2.07,2.77-3.23a48,48,0,0,0,3.8-3.31c-.29.93-1.44,2-2.76,3.12A43.09,43.09,0,0,0,53.85,154.56ZM28,186c.91-.87,1.56.29,2.64-2,.18,1.48-3.19,4.37-4.32,6.57-1,.65-.24-.4.56-1.66S28.57,186.3,28,186ZM142.78,103c-.89.92-3.16,1.56-6.17,2.24-.66-.65.34-1.1,1.78-1.42S141.69,103.26,142.78,103Zm-18.86,8a48.8,48.8,0,0,1-4.55,2.89c-.76.43-1.57.89-2.41,1.35l-2.59,1.39c0-1,1.8-2.17,3.82-3.18.52-.26,1-.49,1.55-.73s1.09-.49,1.67-.71C122.52,111.5,123.43,111.15,123.92,110.92ZM379.53,88.3a31.81,31.81,0,0,1-10.27.61,23.07,23.07,0,0,1-2.3-.35c-.76-.13-1.42-.37-2.15-.52s-1.32-.43-1.93-.71a14.71,14.71,0,0,1-1.74-.83c.63-1,.89-.94,1.28-.72.19.12.39.31.62.48a1.27,1.27,0,0,0,.84.32c.15-.6.39-.87.67-.92s.61.19,1.11.44a11.62,11.62,0,0,0,3.9,1.84c1.83.45,3.74-.2,5.36-.46a5.84,5.84,0,0,1,2.37-.17A3.55,3.55,0,0,1,379.53,88.3Zm-19.4-2.79a1,1,0,0,1-.29,0c-.12,0-.11,0-.58-.27a24.46,24.46,0,0,1-2.34-1.6c-1.56-1.21-3.18-2.59-4.35-3.65s-1.88-1.77-1.52-1.73,1.77.86,4.73,3.15a32,32,0,0,1,3.1,2.82c.19.21.41.4.58.58s.44.39.41.42A.55.55,0,0,0,360.13,85.51Zm-13.46-6.65c-.59-1.47-2.29-2.49-4.3-3.23s-4.34-1.28-6.31-2a15,15,0,0,1,6.72,1.27C345.27,75.94,347.22,77.55,346.67,78.86ZM36.49,191.14c.54-2.23,7.56-10.46,7.91-9.69-1.1,1.27-1.88,2.24-2.5,3.05l-1.55,2c-.46.59-.92,1.15-1.54,1.85S37.51,189.94,36.49,191.14Zm-8.41,18.49c-.31,2.45-1.7,5.78-3.23,9.2a29.3,29.3,0,0,1,1.07-4.33c.26-.77.53-1.58.88-2.39S27.6,210.48,28.08,209.63ZM60,194.26c-3.32,5.49-7.54,9.2-10.07,12.79a27.57,27.57,0,0,1,4.61-7.17A77.56,77.56,0,0,1,60,194.26ZM66,188.31c-.18,1.67-1.83,3.25-3.63,4.58C61.43,191.22,64.7,189.72,66,188.31Zm3.83-2.63c.93-2.06,3-3.42,4.63-4.52,0,.61-.9,1.66-1.92,2.59A10.61,10.61,0,0,1,69.84,185.68Zm46.62-39.05a30.11,30.11,0,0,1,8.52-6C123.19,143.33,119.07,146.19,116.46,146.63Zm3.7-.34c-1.1,1.47-3.85,4.32-6,4.76A15.93,15.93,0,0,1,120.16,146.29Zm4.49-1.27c.89-.56,1.8-1.09,2.71-1.61.21.37-.49.68-.85,1,1.54.15,1.28-.26.69,1.12C126.42,145.19,125.15,146,124.65,145ZM77.08,187.31c-1.77,1.16-3,2.52-5.66,5C70.13,193,76,185.83,77.08,187.31Zm82.24-46.54a53.12,53.12,0,0,0-12.24.84,44.08,44.08,0,0,0-6.21,1.68c-1.05.36-2.09.78-3.14,1.24-.52.24-1,.46-1.58.74s-1.13.59-1.71.87c.92-.6,1.86-1.22,2.78-1.74.48-.28,1-.54,1.46-.79s1-.51,1.56-.74a33.12,33.12,0,0,1,6.76-2.25,27.81,27.81,0,0,1,6.78-.66A21.7,21.7,0,0,1,159.32,140.77ZM59.94,211.48c1.84-1.41,1.86-3.41,4-4.53C63.54,209.14,61.92,212,59.94,211.48Zm6.7-7.8c1.15-3.26,5.34-5.07,7-8.48-.25,1.81,1.24-.12,2.07,1.06C70.91,199.48,70.48,201.8,66.64,203.68Zm70.66-57.92c-.42,1.27-4.1,2.14-5.82,3.46-.24-.38.9-1.21,2.29-1.93a23,23,0,0,1,2.09-1Q136.85,145.91,137.3,145.76ZM69.71,210.53l1.83-2.22c1.57.46-.58,1.8-1.12,2.75Zm74.51-54.21c-.14-.84.45-1.23,1.24-1.46a22.8,22.8,0,0,0,2.35-.61c.86.26,0,.44-1.07.75S144.33,155.8,144.22,156.32Zm-63,51.79a8.31,8.31,0,0,1-1.34,2.48c-.61.79-1.32,1.56-2,2.38s-1.62,1.68-2.46,2.65a36.54,36.54,0,0,0-2.47,3.31C73.06,216.12,77.7,212.69,81.19,208.11Zm63.61-51.05c.3-1.24,2.46-1,3.52-1.55C147.85,156.64,145.83,156.33,144.8,157.06Zm16,5c-.57.32-.84-.05-1.18-.51s-.75-1-1.43-1c-.08-.43.61-.34,1.3,0S160.83,161.64,160.78,162.06Zm2.64,1.52c-.76.65-1.21.37-1.55-.08s-.56-1.1-.67-1.16C162.07,161.69,162.7,163.29,163.42,163.58Zm-19-1.54c0-1.13,1.86-1,2.65-1.54.06.73-.48,1-1.12,1.11A4.78,4.78,0,0,0,144.37,162Zm-38.66,29.32a5.64,5.64,0,0,0,2.77-2.37C110.06,189.44,106,193,105.71,191.36Zm23.16-18.52c2.39-.54,5.56-4.27,7.79-4.41.27,1.59-.94,2.79-2.66,4s-3.92,2.3-5.49,3.49C128,175.51,130.64,173.88,128.87,172.84Zm18.31-10c.29-1.2,2-.83,3-1.26a1.42,1.42,0,0,1-1.25,1.31A3.3,3.3,0,0,1,147.18,162.82ZM98.85,200.5c-.19,1.53-3.32,3.4-4.65,5C93.41,204.22,97.46,201,98.85,200.5Zm5.69-3.34c1.25,2.7-5.26,5.38-8.65,9.25C97.44,202.46,102.83,200.23,104.54,197.16Zm45.85-26.94a.88.88,0,0,1,1-.69,3.65,3.65,0,0,0,1.18.05,1,1,0,0,1-1,.52A1.58,1.58,0,0,0,150.39,170.22Zm-41.13,31.12c1.22-2.25,6.17-6.28,8.23-6-1.33,1.09-2.48,2-3.75,2.87S111,200.11,109.26,201.34Zm5.78-3.28a38.85,38.85,0,0,0,3.46-2.57c1.21-1,2.59-2.11,4.28-3.38C121.92,194,117.07,198,115,198.06ZM143.84,176c-2.24,1.79-5.83,4.48-9.65,7.49L128.42,188c-2,1.55-3.84,2.87-5.16,3.71l6.1-5c1.86-1.55,3.71-3,5.47-4.4A88.41,88.41,0,0,1,143.84,176Zm160.58-26c1.52-1.53,2.45-.84,4-2.33C308.55,148.33,304.88,151.56,304.42,150Zm5.66-3c.2-1.38,3.49-2.65,4.94-3.94C314.78,144.48,311.51,145.72,310.08,147Zm14.41-8.75c-.28.79-.44,1-.63,1s-.38-.21-.61-.31a.38.38,0,0,0-.58.2c.12-1.08.67-1.15,1.19-1.05Q324.17,138.23,324.49,138.29ZM178.22,196.11a87.07,87.07,0,0,1-8.8-6.21c.77.38,3.11,1.56,5.19,2.75S178.5,195.1,178.22,196.11Zm-35.81-16c-.07-1.18,2.45-1.84,3.32-2.65C145.81,178.57,143.39,179.1,142.41,180.1ZM351.64,57.84c-1.68-.15-5.55-1.3-6.59-2.17a29.73,29.73,0,0,0-3.85-1.2c-1.56-.4-3.32-.76-4.92-1-3.21-.53-5.79-.75-4.79-1.15a47.84,47.84,0,0,1,11.19,2.24C345.88,55.55,348.72,56.68,351.64,57.84ZM93.38,125.4c-.44-.73,2.38-1.1,3.76-2.72-1-.34-2.09,1.1-1.43-.63a57.3,57.3,0,0,0-10.07,6c-1.57,1.12-3.17,2.28-4.82,3.48-1.5,1.06-3.08,2.13-4.78,3.18-.78.08.21-.84,1.55-1.91s3-2.3,3.84-3.12L76,133.56c-1.87,1.34-3.78,2.77-5.63,4.19s-3.65,2.91-5.28,4.37a42.94,42.94,0,0,0-4.21,4.28c-.25-.6,1.06-1.42,1.8-2.16-5.72,4.83-12,10.34-19.54,16.28,5.1-5.72,11-12.39,17.09-18.33A119.3,119.3,0,0,1,69.52,134c1.54-1.21,3.11-2.39,4.64-3.41s3-1.92,4.66-2.81c.65-.66,0-1.14-.58-.67a49.23,49.23,0,0,1,12-10.17,113.1,113.1,0,0,1,14.78-7.8c.81.61.09,1.31.18,2,1.52-.89,3-1.77,4.62-2.65.85.63-.74,1.35-1.89,2.08,1.76-.81,3.54-1.62,5.38-2.41.91-.41,1.84-.8,2.81-1.19s2.06-.86,3.25-1.32a116.07,116.07,0,0,1,14.3-4.71,83.26,83.26,0,0,1,29.53-2.42,69.11,69.11,0,0,1,28,9.21,85.8,85.8,0,0,1,12.21,8.74l2.86,2.5,1.34,1.22.94.89.85.82a.77.77,0,0,1,.18.18l.33.37a6.88,6.88,0,0,0-.24-.65.68.68,0,0,0-.1-.17L209,121c-.37-.38-.73-.76-1.09-1.15l-.72-.71-.87-.84-1.69-1.54c-1.12-1-2.28-2-3.43-2.94a75.56,75.56,0,0,0-14.47-9.23c-10.06-4.81-20.48-7.4-31.89-8.92-1.16,0-2.33,0-3.49.1-5.08.38-.21-.81,2.34-.52a67.18,67.18,0,0,1,10.55.52c1.74.21,3.43.42,5,.68s3,.42,4.24.54c0-.42-.93-.73-1.95-1s-2.15-.48-2.43-.86a49.63,49.63,0,0,1,13.4,3.24,68.93,68.93,0,0,1,15.09,8c2.38,1.64,4.65,3.37,6.75,5.11,1.06.87,2.06,1.72,3,2.58s1.88,1.64,2.85,2.52l1.75,1.55a4.26,4.26,0,0,1,.38.35,2,2,0,0,0,.28.22l.11,0a.62.62,0,0,0,.46,0,2.73,2.73,0,0,0,3.49,1.49c-.28-1-.55-1.12-.9-1.2.23-.64.46-.87.65-.8s.42.4.62,1c.06,1.11-.22.27-.3.53a1.27,1.27,0,0,0,1.26.89,2.11,2.11,0,0,0,1.27-.71c.38-.37.72-.8,1.1-1.17l.15-.14.05-.06.07-.06.17-.15,2.74-2.46c1.88-1.61,3.77-3.22,5.78-4.76-2.61.62-.67-1.15,2.23-3.31,1.47-1,3.18-2.21,4.68-3.22s2.82-1.82,3.49-2.31c8-5.84,16.26-13.88,21.08-15,3.36-2.56,6.92-5.15,10.65-7.65,1.85-1.27,3.74-2.49,5.66-3.73l1.57-1,2.42-1.49c1.6-1,3.23-2,4.84-3s3.26-1.89,4.86-2.83L293.27,66a27.42,27.42,0,0,1,2.43-1.33l4.9-2.35c.81-.4,1.61-.79,2.43-1.16s1.62-.66,2.43-1a58.2,58.2,0,0,1,19.12-3.81,59.48,59.48,0,0,1,10,.79l-10,.12a66.65,66.65,0,0,0-17.2,3.08,40.5,40.5,0,0,0-4.59,1.69l-4.61,2.11a87.33,87.33,0,0,0-9,4.84c-2.47,1.42-5.1,3.21-7.82,5-.66.45-1.35.91-2,1.34-.4.26-.58.4-.8.56l-.6.43-2.39,1.72a3.63,3.63,0,0,0,2.59,0,11.41,11.41,0,0,0,1.58-.62l.5-.25.68-.37,1.39-.8c1.88-1.09,3.89-2.39,5.9-3.67l5.89-3.66a31.86,31.86,0,0,0-5.4,2.49c-2,1.06-4.07,2.34-5.95,3.32,1.38-1,2.82-1.93,4.3-2.89s3-1.88,4.63-2.81c.78-.48,1.59-1,2.39-1.42a24.38,24.38,0,0,1,2.46-1.33l5.14-2.48c.88-.39,1.75-.89,2.64-1.22s1.8-.69,2.7-1c1.82-.64,3.67-1.2,5.57-1.68A58.26,58.26,0,0,1,324.49,58l1.33,0a10,10,0,0,0,1.34.06c.91,0,1.82.06,2.74.09s1.83.13,2.73.24,1.82.24,2.72.38c5.34-1,12.12,1.35,18.48,5.85a95.35,95.35,0,0,1,9.32,7.68c.72.67,1.57,1.36,2.37,2l.6.5.14.12v.23c0,.25.12.33.21.46s.45-.71.52-.73c.54-.24.88,0,1.73.27A14.49,14.49,0,0,0,372,76c2.73.36,6.47-.27,8.14-2.59l1.25-.54,1.29-.61c.45-.19.85-.45,1.28-.67l.67-.34c.26-.17.53-.31.78-.47A54,54,0,0,0,392.28,66a86,86,0,0,0,14.8-16c0,2-2,2.18-2.76,4.2,2.57-.77,3.3-4.4,6.18-6.63-.61,3,2.23,1.13,3.93,1,1.13,2.31,3.17,4.55,3.49,6.15a21,21,0,0,1-2.12,2.57c-.82.88-1.7,1.78-2.44,2.64-1.49,1.71-2.46,3.28-1.4,4.38,1.66,1.84,7.17-2.4,8.2-6.06,3.42-.23,5.55-4.86,9.32-4.33,1.23.81-.33,2.3,0,3.33,2.77-.6,6.38-1.65,7.86-.08.18,2.51-.72,3.18,1.74,4.79-1,1.12-.66,1.89-2.21,3.14.92,1.87,2.29-.44,3.42-.46,1.73,1.25-.16,3.85,2.57,3.82-.45,1.49-2.64,3.4-2.42,4.72,1.42.59,3.15-1.12,4.55-.39,1.27,3.42.81,7.32,0,11.31,3.28-1,1.15-2.65,2-3.54,1.9-2,.32.09.67.58,2.51.81,3.55-5.59,5.8-3.75.84-3-2.2-2.86-4.28-5.29,3.91-1.22,5.8,3.1,5.32,6.15-1.14,1.06-2.18,1.38-3.43,3.15,2.92-.38,5.94,1.6,8.48,1.94.15.85-.92,2-1.55,3.07,3.44-1.12,3.6,4.78,7.27,2.61-1.65,5-.9,7.18-3.16,12.06.53.3,1.25-.32,2-1s1.4-1.38,2-1.31c1.48,2.3.18,5.41.39,8.12-1.41,1.48-2.8,2.93-4.29,4.42-.3-.46.75-1.29,1.31-2a21.87,21.87,0,0,0-4.54,3.5c-1.67,1.54-3.41,3.33-5.3,5.09-3.7,3.48-7.82,6.69-11,6.8,3.91-2.22,7.8-7.13,10.35-8.9-3.95,2.3-8.38,5.28-13.47,8.6s-10.76,7-17.14,10.37c-.82.43-1.56.86-2.43,1.29l-2.63,1.3c-1.76.89-3.55,1.67-5.38,2.46s-3.65,1.52-5.51,2.19-3.72,1.32-5.62,1.93a102.33,102.33,0,0,1-23.24,4.52c2.59-.85,1.86-1,.07-.89-.91,0-2.06.17-3.26.22s-2.42.08-3.36.09c1.43,1.17-2,1.27-6.66.64-.58-.09-1.18-.16-1.78-.24l-1.88-.34-3.71-.73c-2.44-.51-4.71-1.11-6.3-1.31-.43.92,4.05,1,5.69,1.49a23.33,23.33,0,0,1-6.09-.55c-1.23-.23-2.6-.63-4-1a43.84,43.84,0,0,1-4.31-1.46c-1.46-.58-3-1.22-4.42-1.85s-2.89-1.44-4.28-2.16-2.73-1.44-4-2.22l-1.8-1.11-.21-.12v0a1.74,1.74,0,0,0-.19.36h0a.85.85,0,0,0,.2.13c.17.11.34.2.52.3l1,.61c-.17.21-.53.14-1.05-.06a7.36,7.36,0,0,1-.85-.42l-.15-.07a0,0,0,0,1,0,0s.07-.07,0-.12-.08-.08-.14-.05c.2-.38.28-.25.37-.29.31-.59-.16-.31.18-1-.72-.49-.68-.72-.37-.68a2.11,2.11,0,0,1,.63.24c.08.06.28.15.28.2l0,.07,1.69,1c-.22-.24-.47-.49-.72-.73a4.72,4.72,0,0,0-.39-.38l-.19-.19c-.05,0-.17-.16-.13-.15.06-.15.12-.31.16-.45a1.57,1.57,0,0,0-.17-.86,3,3,0,0,0-1.08-1.25,5.49,5.49,0,0,0-3.2-.8c-.26,0-.49,0-.72,0a6,6,0,0,0,.72.55,10.89,10.89,0,0,1,1.65,1,2.47,2.47,0,0,1,.68,2.23,3.51,3.51,0,0,0-2.34-1.11,5.08,5.08,0,0,0-2.12.76l-1.65.83s-.26-.12-.49-.24a2.37,2.37,0,0,0-.34-.15c-.06,0-.07-.05-.16,0l-.33.19c-2,1.51-4.8,5.58-7.71,6.18-.63.56.62,1.2-.17,1.74-5.05,1.3-7.32,5.43-13,9.5,1.7.56,4.64-3.65,6.16-2.4-4.79,1.62-8.18,7.19-12.32,6.69.23,3.39-5.25,5.07-8.37,8.74a70.65,70.65,0,0,1-6,5.26c-.7.57-1.41,1.19-2.13,1.81L270.55,178c-1.52,1.4-3.1,2.72-4.63,4.05s-3.07,2.59-4.57,3.76c-9.79,7.89-21.26,14.38-34.44,17.06-.8.21-1.65.29-2.47.45s-1.66.3-2.51.37c-1.68.14-3.39.32-5.09.4-.86.05-1.72.1-2.58.12l-2.58-.07c-1.74-.08-3.46-.14-5.19-.38a66.85,66.85,0,0,1-10.25-2,68.48,68.48,0,0,1-9.91-3.7,81.43,81.43,0,0,1-18.47-11.93c-2.93-2.41-5.76-5-8.56-7.7-1.24-1.17-2.49-2.33-3.72-3.5l-.88-.79-.09-.09s0,0,0,0h0l0,0a7.64,7.64,0,0,0-2.12-1.21.49.49,0,0,1-.2,0,1.34,1.34,0,0,1-.2,0c.17-.52.4-.55.59-.44s.36.32.58.2c.51-.51,1.17.07,1.66.47.61-.87.52-1.17.32-1.38s-.48-.27-.38-.89c.56-.69,1-.63,1.44-.31a3.51,3.51,0,0,1,.56.59,2.66,2.66,0,0,0,.26.31s0,0,0,0l.1.1.65.59c-.13-.25-.29-.53-.41-.74l-.1-.16,0,0,0-.09a1.51,1.51,0,0,0-.18-.44,1.73,1.73,0,0,0-.73-.56,8.08,8.08,0,0,1-2-.94,3.8,3.8,0,0,0,0,1c-.63,1.23-.31-.38-.1-1a6.62,6.62,0,0,0-5.11-.12,10.06,10.06,0,0,0-1.16.48c-.09,0-1.53.74-2.55,1.29a84.94,84.94,0,0,0-7.24,4.52c-2.56,1.74-5.21,3.73-8,5.87l-2.08,1.64-2.2,1.76c-1.61,1.29-3.22,2.57-4.82,3.87-6.14,4.86-12.38,9.82-18.89,15-1.14,1-2.22,2.08-3.29,3.1-.64,1.06-2.9,2.14-1.11.46a27.26,27.26,0,0,1,3.13-2.91,6.88,6.88,0,0,0,2.34-2.83c.87.36,2.34-2.26,3.21-1.69,1.06-2.86,5.71-4.06,6.91-6.59a6.26,6.26,0,0,0-3.73,1.28c-1.1.77-2.26,1.8-3.82,2.9,1.22-3.08,5.74-6.18,8.58-8.56-2.45,1.13-5,2.45-6.62,4.49a6.45,6.45,0,0,1,1.3-3,8.42,8.42,0,0,0,1.54-3c-3.13.44-7.12,4.77-10.39,6.66,0,.34,1.15-.27,1.2-.47-.28,1.42-1.48,2.86-3,4.34-.79.73-1.71,1.46-2.69,2.21s-2,1.49-3,2.21-2.07,1.49-3.07,2.23-2,1.46-2.84,2.2a15.28,15.28,0,0,0-3.77,4.18c-.36-.52.62-1.28,1.14-1.92-1.89.67-1.87,2.44-4,3.81,0-1.08,1.13-2.38,2.14-3.68s2-2.53,1.41-3.55a130.89,130.89,0,0,1,9.52-9.4c1.3,0-3.57,3.72-4.78,5.18,2-.31,4.58-3.74,7.91-6.24-.58-.93-1.82,2-2.25.26,8.42-6.85,13.38-13.2,21.91-20-6,3.58-12.61,10.27-18.38,15,.78-1.75,2.66-3.62,4.92-5.5-3.61.33-7.27,6.48-10.21,7.87-4.56,3.63.63-1.15,3.29-3.59,1.56-1.44,3.34-3,4.87-4.33a21.2,21.2,0,0,0,3.23-3.3c.35,1-3.73.18-1.85-.2-4.48.93-8.44,6.22-14.27,10.92.69-2.21,3.52-5.44,6.78-8.58,1.63-1.57,3.37-3.11,4.94-4.54s3-2.69,4-3.72c-2.15.47-5.09,4.1-7.49,5.82-1.21,1.06-.8.25-1.09-.25-1.75,1.51-3.42,3-5.15,4.55-1.16,1.48-4.53,3.58-1.68.94,2.81-3.4,7.85-7.83,12.38-9.68,1.15-1,.9-1.78,2.61-2.79-5.33,2.67-14.37,9.91-19.83,16.35-.38-.69-.94-.26-1.51.23-1.42-2.38,2.34-3.69,4-5.63,6.35-7.32,11.71-14.21,23-22,1,0-7.07,6.74-.4,1.48,1.39.61-.58,1.51-1.39,2.32,3.82-.7,7.3-5.33,10.38-6.06,1.46.9-1.5,1.94-2.32,2.94.85.1,2-.84,2.76-.46a37.83,37.83,0,0,1-3.73,3.48c-1.7,1.48-3.89,3.31-5.65,4.7,5.12-3.53,9.31-6.5,13.47-9.27s8-5.23,11.8-7.38c.95-.55,1.9-1.07,2.85-1.57.47-.24.94-.52,1.42-.74l1.34-.66c1.54-.75,3.14-1.45,4.81-2.07a30.05,30.05,0,0,1,11.17-2,12,12,0,0,0-4.81-.49,51.88,51.88,0,0,0-5.15.74,4.94,4.94,0,0,1,2.32-1.34,16.4,16.4,0,0,0,2.84-1.07,18,18,0,0,0-6.45.63,28.09,28.09,0,0,0-6.56,2.88.78.78,0,0,0,.76.53,2.86,2.86,0,0,0,1.06-.27c.75-.35,1.59-.76,2.1-.51-.65.41-1.36.79-2.09,1.25l-2.58,1.48c-1.94,1.11-4.06,2.36-6.21,3.67-4.3,2.6-8.8,5.39-12.5,7.31,4.52-3,7.86-5.86,13.55-9.27-3.81,1.21-5.78,3.1-9.27,5-.5.32.53-.92,1.65-2s2.29-1.93,2-1.08a76.94,76.94,0,0,1,8.55-6.65c.77-.52,1.61-1,2.34-1.42s1.4-.75,2.08-1a11.77,11.77,0,0,1,3.79-1c-.06,0-.12.25-.15.5s-.06.5-.08.51c1.95-.9,4.06-2.85,6.42-3.48A23.58,23.58,0,0,1,169,145.59c.35-1.3-1.5-2.25-3.45-2.89s-3.94-1-3.95-2.35a6.16,6.16,0,0,0,1.4.62c.31.11.66.21,1,.32l1.15.38a38.24,38.24,0,0,1,4.91,1.92,18.51,18.51,0,0,0-8-4.35,68.13,68.13,0,0,0-9-1.63c-.09,0,1.27-.85,1.74-.48-1.7-1.36-5.77-1.08-10,.3-2.12.66-4.31,1.53-6.39,2.4a64.14,64.14,0,0,1-6.08,2.35c1-1.38-.66-1.52,2.72-2.75a21.31,21.31,0,0,0-3.88,1.15A28.18,28.18,0,0,0,128.3,142c-1.87,1.08-3.83,2.33-7.41,4.24,2.1-2.67,5.27-4.68,8.66-6.5s6.94-3.41,10.36-5.58a1.92,1.92,0,0,1-1,1.27c3.39-1.14,6.13-2.21,9-3a19,19,0,0,1,9.26-.34c0-.54-1.14-.48-1.89-.55,1.68-.56,4.36-.3,6.82.27s4.8,1.3,6.28,1a34.94,34.94,0,0,0-9.53-2.47,28.19,28.19,0,0,0-10.1.71c-.37-.9.9-1,2-1.13a52.65,52.65,0,0,0-17.32,4,72.4,72.4,0,0,0-16.65,9.61c.51.38,1.59-.6,2.45-1.09-2.74,2.41-6.55,5.09-10.1,7.79a63.54,63.54,0,0,0-8.63,7.43c.43,1.19,1.6-.2,2.37-.23-.71,1.6-4.75,3.29-7,5.78,3.38-.67,8.49-7.58,11-5,.23-1,1.86-2.08,3.2-3.14-1.42-.41-4,3.2-5.16,1.84,2.31-1.94,5.83-4.25,9.24-3.85,1.49-3.28,6.84-5.25,9.57-6.09-.9,1.6-3.09,2.63-5.14,3.72s-3.93,2.22-4.11,3.81c1.49,0,2.23-.71,3.3-1.88a34.52,34.52,0,0,1-5.1,5.6c-2.19,2-4.75,4.22-7.51,6.46-5.47,4.43-11.27,8.69-14.89,11.56-2.44.28,1.13-2,2.3-3.16-2.63.91-.45-.84,1.35-2.33a149.54,149.54,0,0,0-11.6,9.57c-3.76,3.37-7.65,7.2-12.45,12.2-1.43,1.79-1.21.09.11-.75.71-.77,1.45-1.53,2.2-2.27,1.32-1.21-.23-1.92,2-3.32,1.16-1.15.8-.3,1.1.18,1.12-1.8-.84-.79.1-2.57,4.82-4.81,9.41-7.68,14.57-12.59-5.38,3.91-10,7.69-14.36,11.53s-8.5,7.78-12.76,12.15c2.22-3,5.79-7.21,9.6-11.4a128.72,128.72,0,0,1,11-10.78c1.94-.81-1.82,2.15-2.59,2.91,1.71.37,4.18-2.77,6.42-4.48-2.57-1.19,4.72-4,7.85-6.7-.55-.8-1.89,1.32-2.76,1.74-2,.77,1.87-2.1,2.67-2.82-4.16,1.39-6.93,5.16-11.9,9,1.43-1.87,2.81-4.74,6.16-7.69-4.31,2.78-9.16,7.32-13.93,12.14s-9.48,9.86-13.9,13.49c-1-2.63,3.6-5.06,6-8.78-4.37,1.74-9.17,8.62-11.45,10.24,3.32-5,8-10,13.06-15s10.75-10.14,16.2-15.61c-2.93.24-3.48,2.6-5.9,3.31.41.91,1.3,0,2.1-.63,0,2-3.36,1.36-5.07,3.26-.17.19-.45,2.19-.56,2.29a53.83,53.83,0,0,1-5.81,4.4c-1.87,1.27-2.79,1.63,0-.87a71.58,71.58,0,0,0-6.53,6l-2.88,2.91c-1,1-2,2-3.28,3.16-.83.6-.25-.57-1-.89a49.9,49.9,0,0,1-3.27,3.8,18.16,18.16,0,0,0-1.57,2,5.64,5.64,0,0,0-.8,2,3.38,3.38,0,0,1,.56-2.91,17.75,17.75,0,0,1,2.55-3c2-2,4.19-3.89,4.34-5.76-.73-.6-1.72.29-2.77,1.5l-1.58,1.91a8.77,8.77,0,0,1-1.5,1.57c3.38.17-4,2.3-5.78,6.09a14.45,14.45,0,0,1,2.47-4,32.78,32.78,0,0,1,3.55-3.68c-1.94.26-4.38,3.2-6.65,6.35l-1.71,2.29c-.54.75-1.09,1.47-1.63,2.1a6.71,6.71,0,0,1-3.09,2.4c4.13-6,7.83-11.13,12.35-16.69a184.37,184.37,0,0,1,17.48-18.54c-1.35-1.36-3.26-.56-5.62,2.08.81.42,2.21-1.56,2.76-.12-1.31.05-3,1.68-4.48,2.31,2.45-2.29-2.17-.33,2.11-3.77-3.87,1.71-7.69,7-11.92,10.88a15.62,15.62,0,0,1,3.38-4.69c1.31-1.3,2.56-2.3,3-2.89s-.22-1.16-.64-.63c2.53-3.24,1.69-1.19,7.48-6.32,1-1.22-1.1,0-.4-1.44a40.6,40.6,0,0,0,3.32-3c1-.94,1.86-1.87,2.71-2.8a52.5,52.5,0,0,1,5.72-5.56c-.43-.32-1.19.51-1.84,1a35.86,35.86,0,0,1,6.35-5.9c-1-1.11-3.19,2.07-4.45,2a53.78,53.78,0,0,1,4.28-4.26c.74-.67,1.52-1.35,2.3-2l1.19-1c.44-.35.88-.69,1.31-1.06,3.56-2.84,7.47-5.66,11.53-8.71.6.44-.11,1,.21,1.51,3.24-2.34,4.41-2.82,4-2.34a33.54,33.54,0,0,1-4.93,3.58c1,1.61,3.3.49,5.84-1.2s5.36-4,6.86-4.75c-2.17.11-6,3.65-8.59,5.17-1,.13-.91-.74-.26-.36a123.26,123.26,0,0,1,14-9.28c1.25-.71,2.59-1.41,4-2.09.66-.35,1.4-.69,2.11-1l1.18-.54,1.31-.58a76.53,76.53,0,0,1,11.31-3.9c2.43-.81,2.59.32,4.17.24a69.65,69.65,0,0,1,7.95-1.88,25.91,25.91,0,0,1,6.73-.17,8.81,8.81,0,0,1,2.83.43,17.43,17.43,0,0,1-2.08,0,31.4,31.4,0,0,0-5.66.28c0,.53,2.94.25,6.53.12a72.71,72.71,0,0,1,10.06.32c-1.11-.57-1.58-.85-1.24-1a10.46,10.46,0,0,1,3.35.44c-.4-.59-1.92-1-3.69-1.12s-3.75-.19-5.09-.42c1.47-.5,1.75-.8,1.27-1a9.65,9.65,0,0,0-3.22-.2,34,34,0,0,0-4.74.61,22,22,0,0,0-3.31.89c-1-.55-3-.61-5.11-.39-1.08.09-2.16.24-3.22.38s-2,.23-2.9.27a42.58,42.58,0,0,1-4.29.93,26.92,26.92,0,0,1,3.75-1.23c1.06-.29,2.29-.61,3.59-.89s2.68-.54,4-.76a68.53,68.53,0,0,1,7.11-.78,64,64,0,0,1,10.61.28,66.66,66.66,0,0,1,9.61,1.79,123.75,123.75,0,0,1,15.57,5.46c-.31.38,1.2,1.47,3.35,3.07s5,3.65,7.45,5.76c1.25,1,2.41,2,3.45,3,.45.41.88.81,1.26,1.13s.53.52.75.72c.82.83.88,1-.45.17l-1.09-1-1.54-1.4c-1-.9-2-1.78-3.07-2.64-4.25-2.79-9.55-6.58-14.69-8.69,2.86,2.31,6.08,4.72,9.43,7.32,1.68,1.31,3.38,2.68,5.13,4.09,1.58,1.31,3.19,2.62,4.81,4a6.1,6.1,0,0,0,1.23.86l.86.51,1.68,1a24,24,0,0,1,2.94,1.87A12.24,12.24,0,0,0,206,129.2a10.27,10.27,0,0,1-1.26-1.42,3.43,3.43,0,0,1-.42-.77l-.07-.2,0-.09-.15-.21a6.88,6.88,0,0,1-.55-.86,4.09,4.09,0,0,1,1.18.39l.13.06h.08l.12,0a.51.51,0,0,1,.22.09,2,2,0,0,1,.67.66c.38.54.73,1.2,1.35,1.1a6.44,6.44,0,0,0-1.29-2.07c-.13-.16-.27-.3-.4-.45-.43-.43-.88-.87-1.3-1.3l-1.81-1.76c-.68-.65-1.34-1.28-2-1.9a13.48,13.48,0,0,1,2.7,1.18c.44.25.89.54,1.31.83s.62.39.9.59a8.67,8.67,0,0,1,.82.65l.59.52a2.06,2.06,0,0,1,.35.47c.41.69.76,1.63,1.71,1.62a3.9,3.9,0,0,0-.43-2.29,4.71,4.71,0,0,0-.62-.81c-.46-.44-.94-.87-1.41-1.3l-2.23-2a110.37,110.37,0,0,0-10.13-7.84c-3.3-2.27-6.35-4.11-8.64-5.67.22-.38,1.35.28,2.14.6.07-1.19-4.78-2.62-6.82-3.64-.32.27-.22.57.15.82a8.52,8.52,0,0,0,1.54.84c-1.51-.5-3.1-1-4.66-1.6s-3.16-1.1-4.72-1.6-3.08-1-4.54-1.23c-.73-.16-1.43-.29-2.09-.39s-1.31-.14-1.91-.17c.25-.48,2.07-.12,3.35.08a38.6,38.6,0,0,0-11.79-1.91,65.56,65.56,0,0,0-14.57,1.46,103.64,103.64,0,0,0-15.08,4.45c-2.45.9-4.85,1.86-7.21,2.83l-3.12,1.27-2.73,1.08c.1,1,1.53.15,2.85-.45a19.59,19.59,0,0,1-3.16,2.39,12.07,12.07,0,0,1-2.92,1.3,14.79,14.79,0,0,0,4.63-1.5c.92-.42,1.92-.88,3-1.37.56-.27,1.14-.54,1.73-.8s1.31-.57,2-.85c5.24-2.27,10.68-3.68,13.08-2.48a61.35,61.35,0,0,0-14.07,4.56c-1.12.5-2,.94-2.84,1.36s-1.67.88-2.5,1.33c-1.63.9-3.2,1.8-4.67,2.73C104.45,119.37,99.33,122.93,93.38,125.4ZM463.3,97.28c-.48-.3-.95-.55-1.63.45-4,4.14-8.5,8.72-13.6,13.47a162.47,162.47,0,0,1-17.4,14.18c-1.65,1.14-3.27,2.26-5,3.34-.87.54-1.72,1.08-2.59,1.61l-2.68,1.55c-1.71,1-3.78,2-5.7,3s-3.95,1.8-5.93,2.67a99.23,99.23,0,0,1-24.12,6.62c-1.35,1.82,3.5-.25,3.26.81-7.72,1.8-6.64.34-10.42,0-5.59.89-13.66.8-22.68-1-2.26-.44-4.54-.92-6.89-1.61l-3.5-1-3.52-1.22c-2.35-.78-4.67-1.8-7-2.79l-1.72-.74-1.68-.82-1.68-.82c-.18-.1-.15-.07-.17-.07l-.1,0,.07,0h.05l.19.11c.54.3,1,.58,1.5.87.94.57,1.7,1.08,2.19,1.43,1,.71.69,1.13-1.84.39,1.48.69,3.05,1.36,4.68,2.08.81.35,1.63.75,2.47,1.07l2.55,1a84.8,84.8,0,0,0,10.41,3.26c1.7.38,3.34.7,4.92,1s3.06.37,4.44.46a19.12,19.12,0,0,0,6.63-.47,51.75,51.75,0,0,0,19.61-.06,118.78,118.78,0,0,0,17.24-4.82c0,.54-1.38,1.5.44,1.25,1.5-.82,3-1.63,4.59-2.4l4.7-2.45c3.16-1.66,6.5-3.45,9.42-5.13a200.26,200.26,0,0,0,17.33-10.92C450.92,113.93,459.41,105.69,463.3,97.28Zm-236.82,18c2.21-2.67,6-3.5,7-6.16-.83.5-2.87,2-4.58,3.34S225.89,115.14,226.48,115.27Zm90.2-56.08a22.81,22.81,0,0,0-6.24,1.67c-.53.32.24.28,1.69,0l5.81-1c2.24-.41,4.57-.7,6.41-1.18C322.23,59.22,319.48,58.7,316.68,59.19ZM207.19,121.07c.28.29.55.55.8.82s.25.26.37.37.3.31.26.3a1.59,1.59,0,0,1,.18.4,4.46,4.46,0,0,0,.29.76c.22.44.59.77,1.48.53a7.59,7.59,0,0,1-.88-1.38,2.55,2.55,0,0,0-.55-.65.82.82,0,0,1-.21-.12l-.63-.47A9.63,9.63,0,0,0,207.19,121.07Zm5.07,5.19c1.18.92,2,.77,3.05,1.36A1.67,1.67,0,0,0,214,126,2.18,2.18,0,0,0,212.26,126.26Zm5.7.77a5.32,5.32,0,0,1,1.86-.33c.49-.1.92-.41,1.05-1.63a4.19,4.19,0,0,1-1.68.94C218.56,126.24,218,126.46,218,127Zm3.93,1.27c.27-.32-.36-.67-.17-1,.38-.23,2-1.44,1-1.33a3,3,0,0,1-1.71,1.11,2.28,2.28,0,0,0-1.5,1,1,1,0,0,0-1.17-.61c-.41.08-.79.38-.79.7A6.69,6.69,0,0,0,221.89,128.3ZM263,95.9c-.43-.6,1.42-1.34,1.17-2-1.14.58-.05-.56,0-1.12-5.27,4-12.14,7-15.75,10.82,1.74-1.87,3.37-1.43,2.81.05,3.71-2.13,2.66-3.79,6.13-5.86.62.32,1.14.09.84,1.05C261.91,97.26,262,94.84,263,95.9Zm-48,32.69a3.28,3.28,0,0,1-1.8-.71c-.57-.35-1.07-.64-1.64-.37a15.92,15.92,0,0,1,1.7,1.07A1.33,1.33,0,0,0,215,128.59Zm72.29-50.66a29.29,29.29,0,0,1-4.5,2.68l-.47.22L282,81l-.66.3a13,13,0,0,0-1.38.76,3.6,3.6,0,0,1-.42,1.88c-.36-1.63-2.36.63-2.59,1.18,0-1.64-3.11-.95-3.12.49,1.1-.53.21.54.77,1.08,1.77-1.55,1.47.13,1.36.7a8,8,0,0,0,3.88-1.57c.75-.47,1.53-1,2.32-1.57l1.15-.87.65-.47.88-.62c2.32-1.61,4.44-3.09,5.87-3.92s2.16-.93,1.71.07a46.61,46.61,0,0,1,5.15-2.63c.88-.45,1.64-.77,2.05-1s.5-.45,0-.53c-.35.16-.73.35-1.12.56s-.76.45-1.12.64c-.71.4-1.31.65-1.56.44,2.47-1.62,5-2.79,7.33-4a70.67,70.67,0,0,1,6.8-3.22c4.3-1.86,8.11-3.3,11.23-5.2a43.6,43.6,0,0,0-6.1,1.11c.17,1.31-1.82,2.18-4,3s-4.64,1.46-5.46,1.73c-.14-.6,1.57-1.12,1.7-1.7a9.23,9.23,0,0,0-2.18.78c-.83.45-1.76,1-2.75,1.64s-2,1.31-3,2l-1.49,1c-.49.36-1,.74-1.43,1.09-3.7,2.81-6.67,4.74-6.36,2.13-3,1.25-2.39,4-4.19,3.65A3.26,3.26,0,0,0,287.31,77.93Zm29-11.38c.65-.16,1.31-.29,2-.42.38.55-.78.67-1.92.87s-2.3.44-1.89,1a52,52,0,0,1,10-1.3h1.25a10.66,10.66,0,0,0,1.25.09,24.12,24.12,0,0,1,2.43.2,18.39,18.39,0,0,1,2.3.38c.76.13,1.47.36,2.17.54a17.05,17.05,0,0,1,6.47,3.4c2-.07,1.1-1.06,2.22-1.06,2.81,1.31,5.82,2.83,9,4.65,1.56.93,3.18,1.9,4.81,2.94s3.2,2.11,5,3.24l.66.43.16.09h0l.06,0,.26.11a1.93,1.93,0,0,0,.56.17c.39.09.71.28,1.13.36s.75.28,1.18.39.77.35,1.22.49a2.56,2.56,0,0,1,.8.57l.78.7a4.25,4.25,0,0,0,.93.67,4.09,4.09,0,0,0,1.34.26,3.92,3.92,0,0,0,1.41-.3,9.57,9.57,0,0,0,1.35-.55,5,5,0,0,1,1.43-.43,3.66,3.66,0,0,1,1.69,0,2.69,2.69,0,0,1,1-1.48,1.31,1.31,0,0,1,1.73,0c-.52.25-1.36.11-1.35.75.68-.37,2.55-.06,2.43-1-1.52.33-.14-.26-.23-.85-2.53.18-4.49,1-6.64,1.6s-4.53.74-6.46-.75c1.12.18.89-.06.39-.45a3.91,3.91,0,0,1-1.32-1.16,6.55,6.55,0,0,0-.48.54c-.15.18-.3.36-.46.52a1.83,1.83,0,0,1-1,.65,2.85,2.85,0,0,1-.57-.64,2.36,2.36,0,0,1-.42-.64c-.05-.12-.08-.23-.14-.35l0-.07c0-.05,0,0-.11-.16l-.64-.57c-.43-.38-.84-.77-1.24-1.13l-1.13-1.1a79.86,79.86,0,0,0-9.53-8.38c-2.4-.53-4.58-2.11-3.32.35-1.05-1-3.25-2-4.4-2.88.62,1.45-1,1.41-2.88.93a18.57,18.57,0,0,1-5.06-1.88c.52-.66,3.14.36,2.24-1.32-2.58.22-4.07-1.5-6.12-.64,1.28.35,2,.85,1.89,1.62a66.24,66.24,0,0,1-8-.43C321.43,65,318.36,65.3,316.32,66.55Zm-17.22,3c-4.75,2.73-12.4,6.54-15,9.39,2.29-1.58,5.32-3.36,8.15-4.93,1.42-.81,2.77-1.6,3.94-2.38A27.74,27.74,0,0,0,299.1,69.53Zm-56,41.92c1.31-1.3,2.82-2.62,3.2-3.81C245,109,240,111,241.7,110.89,242.38,110.42,242.76,110.93,243.12,111.45ZM367.9,80.17a5.6,5.6,0,0,1-2.38-.67,3,3,0,0,0-.5-.17,1.72,1.72,0,0,0-.43-.16,1.84,1.84,0,0,0-.47,0,.94.94,0,0,0-.46.07,3.65,3.65,0,0,1,.41.18,3.05,3.05,0,0,1,.46.2,7.5,7.5,0,0,0,1,.51,5.27,5.27,0,0,0,1.17.29A2.69,2.69,0,0,0,367.9,80.17Zm9.72-.54a6.86,6.86,0,0,1-1.35.32c-.48.09-1,0-1.45.12a4.84,4.84,0,0,0-.68.1,2.89,2.89,0,0,0-.6.09,2,2,0,0,0-1,.55,19.12,19.12,0,0,1,2.7-.25A3,3,0,0,0,377.62,79.63Zm4.48-.84a5.41,5.41,0,0,1-1.37.09,1.65,1.65,0,0,0-1.33.75,5.11,5.11,0,0,1,1.45,0A1.32,1.32,0,0,0,382.1,78.79Zm1.27,2.37,9.51-5.38a4.54,4.54,0,0,0-2.49.45c-.55.21-1.16.4-1.75.68l-1.69.78a13.37,13.37,0,0,0-2.73,1.72C383.51,80,383.13,80.57,383.37,81.16ZM212.12,131.75a17,17,0,0,0,4,1.59,4.42,4.42,0,0,0,4.12-1.41,16.85,16.85,0,0,1-4.38.34A33.59,33.59,0,0,1,212.12,131.75ZM397.3,73.19c-.85-.83,2.41-1.35.67-2.22a2.47,2.47,0,0,0-1.41,1.43C396.38,72.92,396.55,73.35,397.3,73.19Zm-58.09-1.35c2.21.73,3.55,1.69,4.09,2.68a37.54,37.54,0,0,0-9.21-3,42,42,0,0,0-4.77-.58c-1.62-.1-3.26-.09-4.93-.09a83.7,83.7,0,0,0-8.51.89,23.46,23.46,0,0,1,8.52-1.8c4.55,0,8.6.79,13.93,1.61a11.14,11.14,0,0,0-4.91-2.65,17.46,17.46,0,0,0-2-.52,16.66,16.66,0,0,0-2.19-.38,41.63,41.63,0,0,0-4.85-.31A38.68,38.68,0,0,0,315.58,69c-.34,1.18,1.38.66,3.34.18s4.14-.85,4.37-.15a65.82,65.82,0,0,0-13.73,3.47c-1.06.38-2.1.8-3.11,1.24l-3,1.45a45.4,45.4,0,0,0-5.58,3.09,54.49,54.49,0,0,1,5.16-2.11c1.74-.64,3.49-1.5,5.62-2.41.18.58-.2,1.15-.58,1.7a45.72,45.72,0,0,1,16.3-4.28c1.7,0,3.4,0,5.08.17.84.07,1.67.24,2.51.35s1.64.3,2.45.52c-1.07,1.11.51,1.57,2.35,2.11s4,1.21,4.13,2.05c-1-.29-2.46-1.06-3.83-1.55s-2.58-.79-3-.39c1.43,1.1,3.12,2.21,4.66,3.47-1.7-.31-3.5-.53-5.7-.78L331.34,77l-1.9-.1h-2.09l-2.28.07-.74,0a27.07,27.07,0,0,0-3.86.46c-1.11.24-1.64.5-.51.56a33.32,33.32,0,0,1,4.36-.7,30.27,30.27,0,0,1,6.74.33,35.4,35.4,0,0,1,6.1,1.66A58.49,58.49,0,0,1,349.48,86c.73-1.16-.81-2.55-2.81-3.85s-4.39-2.43-5.45-3.58a62.13,62.13,0,0,1,10.52,6.09,50.42,50.42,0,0,0,4.55,2.81c2,1.12,2.11.78,2.95.68-.3-.25.06-.51.44-.79-.24-.14-.42-.34-.62-.47-.48-.34-.95-.63-1.39-.94-1.29-.84-2.32-1.56-3.38-2.26a59.66,59.66,0,0,1-5.89-4.32c2.06,1.22,4.13,2.56,6.21,4,1.06.72,2,1.44,3.17,2.19l.83.56.41.28.15.09.5.31a22.94,22.94,0,0,0,4.63,1.94,32,32,0,0,0,12.52,1,16.88,16.88,0,0,0,1.74-.22c.58-.1,1.15-.16,1.74-.3,1.16-.27,2.31-.49,3.44-.86a38.3,38.3,0,0,0,6.44-2.52c1-.54,1.93-1,2.94-1.67.5-.32,1-.62,1.45-.94l1.39-1c.93-.65,1.77-1.44,2.61-2.14s1.61-1.54,2.33-2.29c-1.25.93-2.57,2.19-3.26.72,3-2,4.94-3,7.36-6.37a30.33,30.33,0,0,1-6.43,4.78,55.65,55.65,0,0,0-5.85,3.72c-.21-.55.14-1.14-.86-.54l-1.18.7-.59.36-.55.28c-.73.35-1.42.79-2.19,1.08s-1.47.69-2.25,1-1.49.58-2.27.8A39.09,39.09,0,0,1,373.94,86a32.64,32.64,0,0,1-7.65-.25,8.09,8.09,0,0,0-.86-.12c-.26-.08-.51-.14-.77-.2l-.79-.15c-.24-.08-.49-.16-.73-.22s-.5-.11-.74-.19l-.68-.25a5.78,5.78,0,0,1-.7-.24l-.32-.14-.16-.07-.1,0-.32-.21.2.16.14.11.08.1a1.27,1.27,0,0,1,.13.19,3.29,3.29,0,0,1,.19.47,3.14,3.14,0,0,1,.22,1.05c-.17-.27-.38-.48-.55-.78s-.17-.29-.25-.44l-.06-.09a.66.66,0,0,0-.18-.19c-.23-.2-.48-.42-.74-.62-.95-.82-2-1.69-3-2.55s-2.07-1.72-3.17-2.54C348.8,75.47,343.88,72.79,339.21,71.84Zm-81,33.77c.68-.46,1.51-1.26,1.92-.91,4.78-3.61,8-6.13,3-2.85-.79.56-2.22,2.16-3,1.74,1.34-.85,2-1.65,1.67-2.38C259.4,102.77,259.28,104.14,258.24,105.61Zm23.88-15.42a25.34,25.34,0,0,1,3.53-2.51l1.18-.72,1.61-.93,3.25-1.87c2.13-1.27,4.26-2.4,6-3.53.89-.55,1.68-1.11,2.39-1.61a13,13,0,0,0,1.74-1.38,15.14,15.14,0,0,0-2.51,1.3l-2.7,1.72c-1.79,1.12-3.42,2-4.37,2,3.19-1.8,3.73-2.24,2.73-1.94-.48.16-1.34.52-2.43,1s-2.37,1.19-3.73,1.91l-2.07,1.15-1,.6-.78.49a16.92,16.92,0,0,0-2.34,1.7C281.39,88.72,280.93,89.7,282.12,90.19ZM108.6,124.11c-3.4,2.85-7.75,3.56-9.37,6.4a47.33,47.33,0,0,0,6.41-3.86C108.14,125,110.17,123.52,108.6,124.11Zm56-12.61c.61.16,2.28.46,3.42.68s1.81.26.39-.36a59.49,59.49,0,0,0-20.83-1.06c-.13-.68.05-1.56-2-1.07a115,115,0,0,0-12.26,3.39c-.77.24-2.38.79-4.25,1.49s-4,1.58-5.76,2.39c-.87.41-1.57.77-2.13,1.05a10.66,10.66,0,0,0-1.24.7c-.48.35-.26.35,1.19-.15a10.75,10.75,0,0,0,2.55-.88c1-.45,2.19-1,3.25-1.38,2.13-.81,4-1.25,4.31-.16-1.19.47-4.67,1.66-7.86,3.2-2.9,1.38-5.41,3-6,4.18,1.13-.48,1,.58.68,1.16,1.34-.6,2.66-1.18,4-1.74s2.58-1.08,4.09-1.67c2.92-1.18,5.76-2.16,8.52-3a80.42,80.42,0,0,1,16.13-3.36,56.78,56.78,0,0,1,15.82.61,50.56,50.56,0,0,1,15.74,5.83c.37-.4,1.33.1,2.19.5s1.65.73,1.78-.11a21,21,0,0,0-4.3-3.06l-2.36-1.38a11.31,11.31,0,0,1-1.77-1.29c.64-.3,2.14.48,3.59,1.26s2.81,1.67,3.43,1.4a30.59,30.59,0,0,0-7.67-4.26c-2.39-.78-3.56-.72-1.24,1.29a51.63,51.63,0,0,0-12.11-2.93c-3.89-.54-7.32-.74-9.68-1.53C158.07,111.18,161.87,111.61,164.58,111.5ZM79.79,153.09c.93-1.47,3.34-3.09,2.37-4.32-1.87,2-3,1.38-4.66,2.75C78.68,153.28,80.79,150.08,79.79,153.09Zm292.44-61.6a4,4,0,0,1,2,.06,13.4,13.4,0,0,1,1.67.78c1.07.49,2.09,1,3.17.14a27.14,27.14,0,0,0-3.74-1.27C373.9,90.78,372.65,90.74,372.23,91.49ZM97.07,138.26c2.7-1.42,7.76-4.83,7.47-5.56C102.73,133.58,96.57,136.09,97.07,138.26ZM370.16,91.52a1.16,1.16,0,0,0-1.27.83c.73,0,1.34.12,1.9.11s1,0,1.36-.06c.7,0,1.05-.15,1.09-.26S372.07,91.73,370.16,91.52Zm-10,.41a7.8,7.8,0,0,0,.92,1.08,6.88,6.88,0,0,0,1.29.82,3,3,0,0,0,2.51.3c-.47-1-1.33-1.09-2.19-1.25-.45-.08-.94-.1-1.37-.21A2.55,2.55,0,0,1,360.16,91.93Zm22.26,2.5c.28-.1.55-.21.38-.55-.61.06-.42-.4-.22-.87a99.46,99.46,0,0,1-14.27,1.09c.8,1.35,3.8,1.78,6.85,1.36s5.94-1.33,6.68-1.33C381.35,94.29,381.59,94.79,382.42,94.43Zm-248,31.41a29.61,29.61,0,0,1-4.58,1.7c-.67.21-1.38.41-2,.67a17,17,0,0,0-2.12,1,14.53,14.53,0,0,0,2.23-.25c.91-.17,2-.4,3-.67C132.9,127.71,134.57,127,134.43,125.84ZM121,135.31c1.52-.7,3.14-1.47,4.87-2.26s3.53-1.63,5.63-2.51a82.21,82.21,0,0,1,13.08-4.34,50.49,50.49,0,0,1,13.65-1.29,39.11,39.11,0,0,1,11.64,2.32,33.3,33.3,0,0,0-11.14-3,44.73,44.73,0,0,0-11.85.49,70.11,70.11,0,0,0-11,2.92c-1.71.59-3.33,1.22-4.88,1.83s-2.95,1.19-4.31,1.72c-.33-.66,1.67-1.08,1.56-1.74-1.27.88-4.51,1.64-4.3,2.67,2.41-.59,1.57,0,.2.8S120.85,134.86,121,135.31Zm22.14-5.7a65,65,0,0,0-13.17,3.8c-4.63,1.92-8.76,4.52-10.57,7,4.11-2.39,8.11-4.36,12-6.16S139.31,130.94,143.09,129.61Zm-34.31,19.88c-2.73.86-5,3.69-6.73,4.19C104.32,154.47,106.55,151.45,108.78,149.49ZM92.46,169.23c1.71-2.06,5.19-2.39,4.64-4.49C95.77,165.28,92.26,168.18,92.46,169.23Zm42.88-30.86c.42,1.14,1.26.44.68,1.64a14.54,14.54,0,0,1,3.63-1.91,12.23,12.23,0,0,0,2.87-1.41c.74,1.12,2.72.52,5.24-.12s5.57-1.33,7.81-.8a2.33,2.33,0,0,0-1.65-1.24,6,6,0,0,0-2.24.14c-1.58.38-3.17,1.08-4.45.87.45-.2,1.17-.22,1.16-.66A29.39,29.39,0,0,0,135.34,138.37ZM326.1,103.88a13,13,0,0,0-2,0,9.22,9.22,0,0,0-2.3.47c-.41.14-.52.24-.42.26s1.35-.1,2.71.06c.29,0,.62.09.92.17-.31.08-.62.17-.93.22-2.32.57-4.56.89-6.61,1.45s-3.91,1.35-5,2.91c2.3-1.41,1.53-.67.72.61a37.21,37.21,0,0,1,4.94-2.52,19.51,19.51,0,0,1,5.95-1.51c2.84-.2,5.45.5,7.58.68-1.71-1.13-4.88-3-2.33-.55A7.36,7.36,0,0,1,326.1,103.88ZM298.67,119.8c2.9-2.42,4.09-3.38,3.86-3.41a34,34,0,0,0-4.61,2.32c-.91.59-1.14,1.18-1.07,1.78C297.5,120.13,298.28,119.43,298.67,119.8Zm-1.56,4.29a12.38,12.38,0,0,1,4.05-3.65c.93-.59,1.95-1.15,3-1.7l1.64-.79.82-.38c.27-.11.44-.16.66-.24l-.71-1.12c-.48.17-1.52.69-2.53,1.19a33.44,33.44,0,0,0-3.13,1.8C298.92,120.58,297.23,122.22,297.11,124.09ZM321.28,108c-.48-.42-1.44-.12-2.42.41a28.4,28.4,0,0,1-2.77,1.54c-.21,0-4.27,2.1-4.73,3.33,1.8-.7,3.37-1.33,4.84-2a31,31,0,0,1,4.35-1.55c-.06-1.21-1.11-.77-2.18-.06s-2.12,1.55-2.56.94A29,29,0,0,1,321.28,108ZM377,125a6.38,6.38,0,0,1-3,.39c-1.42-.09-3.11-.27-4.77-.51s-3.28-.55-4.54-.7-2.2-.19-2.5.18c0-.27,0-.52-.74-.54a19.23,19.23,0,0,0,3.32,1.06,47.71,47.71,0,0,0,4.8.73,40.23,40.23,0,0,0,4.63,0A7.14,7.14,0,0,0,377,125Zm21.3-4c.55-.21,2.1-.73,3.16-1.21s1.66-.88.39-.65c-1.1.49-2.22.87-3.33,1.31l-1.68.63-1.7.56a9.86,9.86,0,0,0-3.51.57c-1.41.37-2.95.89-4.29,1.11a21,21,0,0,1-3.28,1.41,3.33,3.33,0,0,1-3-.27c.93-.21,2.27-.26,2.32-.8a119.64,119.64,0,0,1-17.13,2.79,57.3,57.3,0,0,0,9-.07c1.33-.14,2.62-.27,3.86-.43s2.44-.43,3.63-.65A113.93,113.93,0,0,0,398.25,121.05ZM149.49,149.79c.22-.57-.88-.39-2.11-.07s-2.59.78-3.14.45c.17.71-1,.6-.9,1.26A30.87,30.87,0,0,1,149.49,149.79Zm-30.05,16.8c-1.73,2.63-3.85,1.22-5.16,4.17,2.82.28,7.23-4.56,9.17-6.67C121.6,166.66,116.22,166.22,119.44,166.59Zm7.34-3.8c-.81-1.33,2.92-2.38,2.94-3.63-1.88.43-6.14,2.3-7.28,4.57C124.77,162.18,123.91,165.24,126.78,162.79Zm15.55-8.58c-.29.17-.57.37-.86.51s-.62.28-1,.45c-.85.35-1.71.68-2.51,1a10.86,10.86,0,0,0-4,2.42c.59-.27,1.26-.83,1.6-.43-2.44,1.18-2.59,2.81-3.53,4.28,2-1,4.09-2.31,5.57-1.86-3.64,1.69-7.88,5.68-11.36,7,2-1.51,6.32-4.41,4.64-4.91-2.42,2.28-5.76,4.77-6.34,7.31a146.62,146.62,0,0,1,13.8-9.12l1.53-.86,1.47-.79,1.37-.68c.32-.15.64-.3,1-.48a40.79,40.79,0,0,1,4-1.6,21.39,21.39,0,0,1,8.69-1.16,19.12,19.12,0,0,1,4.63,1,23.66,23.66,0,0,1,4.56,2.37,9.71,9.71,0,0,0-5.83-4,30.18,30.18,0,0,0-3.57-.68,23.09,23.09,0,0,1-3.2-.55c1.39,0,2.71.23,3.54-.67a12.53,12.53,0,0,0-4.59-.13,15.2,15.2,0,0,1-4.18.17,17.42,17.42,0,0,0,3.21-.76,7.47,7.47,0,0,1,3.24-.42,3.3,3.3,0,0,0-2.14-1.17c-.61-.16-1-.34-1.23-1.4-2.11,1.54-4.59,2-7.14,2.65A28.19,28.19,0,0,0,139.9,153a14.74,14.74,0,0,0-2,1,8.88,8.88,0,0,0-1.66,1.27c.58-.26,1.15-.48,1.35.27a9.37,9.37,0,0,0-3.3.81,5.65,5.65,0,0,0-2.91,2.31c1.62-.72,3.5-1.68,5.47-2.56,1-.44,2-.86,3-1.22a10,10,0,0,1,1.33-.41C141.55,154.37,142,154.27,142.33,154.21ZM286,141a14.83,14.83,0,0,0-5.25,3.79,13.5,13.5,0,0,1-4.53,3.47C280.29,147.69,285.45,141.23,286,141Zm26.28-18.42a5.35,5.35,0,0,0-1.16,1,3,3,0,0,1-.32.33l-.5.47-1,.94a14,14,0,0,1-4,2.89,36.7,36.7,0,0,0,5.57-3.15l2-1.27c.54-.35,1.06-.67,1.48-.89,1.41-.77,2.9-1.58,4.45-2.45a14.2,14.2,0,0,1,5.22-1.92,9.19,9.19,0,0,1,5.39,1.36c1.63.92,3.1,2.06,4.61,3.06l1.13.72.58.33,1.79,1c1.18.68,2.43,1.19,3.62,1.75a37.68,37.68,0,0,0,3.6,1.5l3.55,1.27c1.17.36,2.32.66,3.44,1,2.25.66,4.43,1,6.48,1.42-2.11-.55-4.29-1-6.54-1.81-1.12-.38-2.27-.72-3.43-1.15l-3.48-1.42c-1.18-.45-2.34-1.07-3.52-1.65s-2.37-1.13-3.51-1.86l-1.64-1-.49-.36-1.12-.85a51.37,51.37,0,0,0-4.73-3.52,9.43,9.43,0,0,0-5.69-1.55,15.61,15.61,0,0,0-6.41,2.59Zm47.77,9.63c1.68.11,3.19.32,4.58.49l4,.45a23.32,23.32,0,0,0,3.84.1c.66,0,1.33-.09,2-.18s1.4-.28,2.14-.48c-1-.56-4.57-.72-8.15-.82-1.81-.09-3.61,0-5.12,0A8.43,8.43,0,0,0,360.08,132.22ZM163.31,164.09c.75-.73-.22-.87.31-1.55a28.35,28.35,0,0,0-6.51-3.46,16.79,16.79,0,0,0-7.9-.62,22.59,22.59,0,0,0-3.93,1l-.94.37c-.31.14-.6.26-.91.38s-.88.44-1.32.63l-1.4.73a54.14,54.14,0,0,0-10.56,7.58c1.54-.62,3.22-1.85,4.8-2.69s3-1.29,4.13-.54c-3.47,2.25-6.91,4-10.27,5.89-1.68.93-3.36,1.92-5,3-.83.55-1.65,1.13-2.48,1.76-.4.3-.85.66-1.3,1s-.89.76-1.34,1.14c.78-.55,1.72-1.62,2.25-1.28,1,1.24-2.64,2.9-1.48,4.12a16.27,16.27,0,0,0,2.49-2.15,3.09,3.09,0,0,1,1.12-.73.66.66,0,0,1,.83.4c-.22.84-1.41,1.88-2.72,2.89a38.48,38.48,0,0,0-3.74,3c2.3-1.54,4.84-3.33,7.08-4.95s4.23-3,6.38-4.51C135,172.64,139,170,142.62,168l1.32-.72,1.27-.67,1.07-.51c.2-.08.38-.16.58-.26a16.7,16.7,0,0,1,2.38-.81,8,8,0,0,1,4.57.08c.94-1.06,2.66-.55,4,.4.7.47,1.31,1,1.93,1.39a3.28,3.28,0,0,0,.94.46,2.73,2.73,0,0,0,.46.08c.3.14.62.3.93.41-.19-.21-.41-.45-.6-.63s-.17-.17-.25-.26a4.89,4.89,0,0,0-.56-.46c-.39-.29-.82-.57-1.24-.84a3.21,3.21,0,0,1-1.64-2.21,3.8,3.8,0,0,1,3.69,1.56c.22.22.39.46.61.65s.21.18.89.73c.28.22.56.42.85.63l.22.15.36.3.82.62a39.41,39.41,0,0,0,3.4,2.27l-2.48-2.46c-.4-.4-.78-.8-1.16-1.19l-.38-.41-.27-.33c-.18-.21-.35-.42-.5-.63s-.34-.43-.32-.49A5,5,0,0,1,163.31,164.09ZM312.6,130.32c.36-.12.74-.27,1.13-.41.19-.08.39-.15.59-.25a2,2,0,0,1,.49-.17,4.83,4.83,0,0,0,1.11-.31,3.8,3.8,0,0,0,1.88-1.65c-.79.61-1.06,0-1.43.87-.26-.51,0-.72-.38-1.34a8.82,8.82,0,0,1-1.58.94,1.91,1.91,0,0,0-.33.25c-.16.17-.33.32-.47.48A5.47,5.47,0,0,0,312.6,130.32Zm5.33-3.88c.69-.17,1.78-.12,2.54-.22s1.24-.46.8-1.64a3.33,3.33,0,0,1,2.71-.51,2.16,2.16,0,0,0,2.28-.54,4.27,4.27,0,0,0-2.27-.73,6.12,6.12,0,0,0-3.48,1.31A18.77,18.77,0,0,0,317.93,126.44Zm26.8,8.58a53.38,53.38,0,0,0-6.21-3.87l-2.22-1.23c-.77-.43-1.53-.95-2.34-1.44l-.6-.38-.27-.17,0-.05-.2-.2a5.41,5.41,0,0,0-.53-.43,25.72,25.72,0,0,0-4.41-3,25.18,25.18,0,0,0,3.48,3.84c.28.21.53.42.8.64l.16.12.07.07,0,0,.26.16c.71.42,1.41.85,2.15,1.27A98.37,98.37,0,0,0,344.73,135Zm-33.37-3.35c-.51-1.06-1.52-.77-2.75.22C309.14,133,310.11,132.61,311.36,131.67Zm83.31,3.56a137.83,137.83,0,0,0,16.49-5.56c1.34-.62,2.66-1.23,3.94-1.88s2.4-1.31,3.57-2,2.21-1.41,3.24-2.16a32.63,32.63,0,0,0,2.89-2.33c-1.75,1.11-3.59,2.13-5.39,3.14l-2.77,1.44-1.4.72-1.48.69-3,1.35c-1,.44-2,.82-3,1.22-2,.83-4.09,1.5-6.16,2.19s-4.22,1.26-6.38,1.83-4.37,1.08-6.67,1.47a111.9,111.9,0,0,1-14.45,1.88c2.68,1.68,6.32,1.75,10,1A109.83,109.83,0,0,0,394.67,135.23ZM225.11,192c.65-.19,1.75-.43,3-.69s2.52-.67,3.66-1c2.21-.82,3.64-1.53,1.85-1.64-.12.3-.69.57-1.48.83s-1.84.4-2.85.63C227.22,190.51,225.22,190.88,225.11,192Zm-75.43-26.2c.82-.62.55,1.66.48,2.19a3,3,0,0,1,1.69-.53,3.64,3.64,0,0,0,1.75-.52c-.33-.34-.91-.24-1.44-.1a1.42,1.42,0,0,1-1.58-.31c.06-1,.8-.5.92-1.48C151,165.2,149.21,165,149.68,165.77Zm-11.49,7.52c.77.37,2.19-.24,3.46-1a10.9,10.9,0,0,0,2.86-2.32C142,171.42,139.07,171.31,138.19,173.29Zm-8.27,6.05a14.43,14.43,0,0,0-3.51,2.13,9.61,9.61,0,0,0-.86.74,5.7,5.7,0,0,0-.61.7c-.26.42-.2.69.44.67.15-.25,2.75-2.33,4.6-3.79S132.88,177.46,129.92,179.34Zm26.52-11.9c-.37.1-.69-1-1.13,0C155.26,168.23,155.89,168.23,156.44,167.44Zm-7.27-.13c.06.57-.49.7-.95.85s-.8.26-.26.55a2.16,2.16,0,0,1,1.11-.37,1,1,0,0,0,.88-.79C149.67,167.82,149.5,166.82,149.17,167.31Zm171.19-34c-.28.48-1.37.16-1.07,1.17C319.55,134,320.54,134.38,320.36,133.3Zm-4,4.65c-1.32,1.19-4.49,2.32-4.57,3.59C313.09,140.33,316.25,139.22,316.36,138Zm-89.19,62.66.16,1.33c2.72-.9,6.36-1.89,9.9-3.13s6.89-2.89,9-4.59c-1.7.77-3.47,1.43-5.21,2.11l-2.62.91-1.28.44-1.28.38c-.85.26-1.67.5-2.45.75s-1.56.43-2.31.63C229.59,199.9,228.25,200.2,227.17,200.61Zm52.19-33.85a39.33,39.33,0,0,1-3.83,3.69c-.61.53-1.17,1.05-1.71,1.58l-1.34,1.36c-.51.53-1,1.07-1.48,1.62a7.7,7.7,0,0,0,1.62-.89l1-.7.54-.41.29-.19a13.69,13.69,0,0,0,2.22-1.9C278.09,169.49,279.23,167.8,279.36,166.76Zm176.86-55.7c3.55-3.5,7.2-7,9.16-10.08-1.79-.18-3.64,1.61-5.34,3.87-.82,1.12-1.62,2.33-2.3,3.45S456.56,110.38,456.22,111.06ZM394.64,81c.25-.63-.91-.86,1.13-1.79a1.34,1.34,0,0,1-.3,1.28c.36.4.95-.18,1.47-.45.14,1.15-2.5,1.83-3.47,2.71,1.43-1.64-.38-1.09-1.69-.64-.66.25-1.2.49-1.17.46a3.07,3.07,0,0,0,.48-.19c.34-.14.89-.41,1.69-.78C392.9,81.54,393.65,80.09,394.64,81ZM52.74,199.44a19.81,19.81,0,0,0-3.21,4.2C47.87,204.35,51.57,198.61,52.74,199.44Zm78.89-52.32c-.07,0,1-.21.22.4a39.36,39.36,0,0,1-5.68,3.37c-1.29.6-1.35.28,1.85-1.69A22,22,0,0,1,131.63,147.12ZM63.76,234.84c-.17-.22.27-.91.81-1.74A17.2,17.2,0,0,0,66,230.43C67.21,231.46,64.63,233.69,63.76,234.84Zm16.33-45.47c2.34-.89-.59,2-1.56,2.79.62.74,1.68-1.41,2.52-1.86,0,.54,0,1.07.64.63-1.22.71-5.43,6.11-6.44,3.24-.43.31-.28.54-.1.74C74,193.26,78.3,193,80.09,189.37Z"/></clipPath><linearGradient id="Dégradé_sans_nom_2" x1="-23.61" y1="1043.81" x2="251.08" y2="1043.81" gradientTransform="matrix(1.6, -0.47, -0.46, -1.55, 533.84, 1806.2)" gradientUnits="userSpaceOnUse"><stop offset="0" stop-color="#aeb4dc"/><stop offset="0" stop-color="#aeb2db"/><stop offset="0.01" stop-color="#afb1da"/><stop offset="0.01" stop-color="#afb0d9"/><stop offset="0.02" stop-color="#afafd8"/><stop offset="0.02" stop-color="#b0aed7"/><stop offset="0.02" stop-color="#afacd6"/><stop offset="0.03" stop-color="#b0acd6"/><stop offset="0.03" stop-color="#b1acd6"/><stop offset="0.04" stop-color="#b0a9d4"/><stop offset="0.04" stop-color="#b1a8d3"/><stop offset="0.04" stop-color="#b0a7d3"/><stop offset="0.05" stop-color="#b1a6d2"/><stop offset="0.05" stop-color="#b1a6d1"/><stop offset="0.05" stop-color="#b1a4d0"/><stop offset="0.06" stop-color="#b1a3d0"/><stop offset="0.06" stop-color="#b0a2cf"/><stop offset="0.07" stop-color="#b0a1ce"/><stop offset="0.07" stop-color="#b19fcd"/><stop offset="0.07" stop-color="#b09ecd"/><stop offset="0.08" stop-color="#b09dcc"/><stop offset="0.08" stop-color="#b09ccb"/><stop offset="0.09" stop-color="#b09bca"/><stop offset="0.09" stop-color="#b099c9"/><stop offset="0.09" stop-color="#b099c9"/><stop offset="0.1" stop-color="#b098c8"/><stop offset="0.1" stop-color="#b096c7"/><stop offset="0.11" stop-color="#b095c6"/><stop offset="0.11" stop-color="#b195c6"/><stop offset="0.11" stop-color="#b194c5"/><stop offset="0.12" stop-color="#b193c5"/><stop offset="0.12" stop-color="#b193c4"/><stop offset="0.13" stop-color="#b190c2"/><stop offset="0.13" stop-color="#b18fc2"/><stop offset="0.13" stop-color="#b18fc1"/><stop offset="0.14" stop-color="#b18dc0"/><stop offset="0.14" stop-color="#b18dc0"/><stop offset="0.14" stop-color="#b18cbf"/><stop offset="0.15" stop-color="#b18abe"/><stop offset="0.15" stop-color="#b189bd"/><stop offset="0.16" stop-color="#b188bd"/><stop offset="0.16" stop-color="#b287bc"/><stop offset="0.16" stop-color="#b287bc"/><stop offset="0.17" stop-color="#b285ba"/><stop offset="0.17" stop-color="#b284ba"/><stop offset="0.18" stop-color="#b283b9"/><stop offset="0.18" stop-color="#b382b8"/><stop offset="0.18" stop-color="#b382b8"/><stop offset="0.19" stop-color="#b381b8"/><stop offset="0.19" stop-color="#b380b7"/><stop offset="0.2" stop-color="#b47eb6"/><stop offset="0.2" stop-color="#b47eb6"/><stop offset="0.2" stop-color="#b47eb5"/><stop offset="0.21" stop-color="#b47db5"/><stop offset="0.21" stop-color="#b37ab3"/><stop offset="0.21" stop-color="#b47ab3"/><stop offset="0.22" stop-color="#b479b2"/><stop offset="0.22" stop-color="#b478b1"/><stop offset="0.23" stop-color="#b577b1"/><stop offset="0.23" stop-color="#b476b0"/><stop offset="0.23" stop-color="#b474af"/><stop offset="0.24" stop-color="#b574ae"/><stop offset="0.24" stop-color="#b473ae"/><stop offset="0.25" stop-color="#b572ad"/><stop offset="0.25" stop-color="#b472ad"/><stop offset="0.25" stop-color="#b56fac"/><stop offset="0.26" stop-color="#b66fab"/><stop offset="0.26" stop-color="#b66eab"/><stop offset="0.27" stop-color="#b66caa"/><stop offset="0.27" stop-color="#b66ba9"/><stop offset="0.27" stop-color="#b76ca9"/><stop offset="0.28" stop-color="#b76aa8"/><stop offset="0.28" stop-color="#b669a7"/><stop offset="0.29" stop-color="#b868a7"/><stop offset="0.29" stop-color="#b867a6"/><stop offset="0.29" stop-color="#b867a6"/><stop offset="0.3" stop-color="#b966a5"/><stop offset="0.3" stop-color="#b964a4"/><stop offset="0.3" stop-color="#b963a4"/><stop offset="0.31" stop-color="#b962a3"/><stop offset="0.31" stop-color="#ba63a3"/><stop offset="0.32" stop-color="#ba62a3"/><stop offset="0.32" stop-color="#ba60a2"/><stop offset="0.32" stop-color="#ba60a2"/><stop offset="0.33" stop-color="#ba5fa1"/><stop offset="0.33" stop-color="#bc5ea0"/><stop offset="0.34" stop-color="#bc5da0"/><stop offset="0.34" stop-color="#bc5da0"/><stop offset="0.34" stop-color="#bc5c9f"/><stop offset="0.35" stop-color="#bc5b9e"/><stop offset="0.35" stop-color="#be599d"/><stop offset="0.36" stop-color="#be599d"/><stop offset="0.36" stop-color="#be589d"/><stop offset="0.36" stop-color="#bf579c"/><stop offset="0.37" stop-color="#bf569c"/><stop offset="0.37" stop-color="#bf559b"/><stop offset="0.38" stop-color="#c1559b"/><stop offset="0.38" stop-color="#c1559b"/><stop offset="0.38" stop-color="#c2549a"/><stop offset="0.39" stop-color="#c1539a"/><stop offset="0.39" stop-color="#c2539a"/><stop offset="0.39" stop-color="#c45299"/><stop offset="0.4" stop-color="#c35299"/><stop offset="0.4" stop-color="#c55098"/><stop offset="0.41" stop-color="#c55098"/><stop offset="0.41" stop-color="#c54f97"/><stop offset="0.41" stop-color="#c74e97"/><stop offset="0.42" stop-color="#c74e97"/><stop offset="0.42" stop-color="#c84d96"/><stop offset="0.43" stop-color="#c84c96"/><stop offset="0.43" stop-color="#c84c96"/><stop offset="0.43" stop-color="#ca4b95"/><stop offset="0.44" stop-color="#cb4b95"/><stop offset="0.44" stop-color="#cc4a95"/><stop offset="0.45" stop-color="#cd4a95"/><stop offset="0.45" stop-color="#ce4994"/><stop offset="0.45" stop-color="#ce4994"/><stop offset="0.46" stop-color="#cf4894"/><stop offset="0.46" stop-color="#d04894"/><stop offset="0.46" stop-color="#d04793"/><stop offset="0.47" stop-color="#d24793"/><stop offset="0.47" stop-color="#d34692"/><stop offset="0.48" stop-color="#d44592"/><stop offset="0.48" stop-color="#d64592"/><stop offset="0.48" stop-color="#d54592"/><stop offset="0.49" stop-color="#d64491"/><stop offset="0.49" stop-color="#d84491"/><stop offset="0.5" stop-color="#d84391"/><stop offset="0.5" stop-color="#d94190"/><stop offset="0.5" stop-color="#d94190"/><stop offset="0.51" stop-color="#db4190"/><stop offset="0.51" stop-color="#dc4090"/><stop offset="0.52" stop-color="#dd4090"/><stop offset="0.52" stop-color="#de4090"/><stop offset="0.52" stop-color="#de4090"/><stop offset="0.53" stop-color="#df4090"/><stop offset="0.53" stop-color="#df4090"/><stop offset="0.54" stop-color="#e1408f"/><stop offset="0.54" stop-color="#e2408f"/><stop offset="0.54" stop-color="#e2408f"/><stop offset="0.55" stop-color="#e4408f"/><stop offset="0.55" stop-color="#e44190"/><stop offset="0.55" stop-color="#e64190"/><stop offset="0.56" stop-color="#e64290"/><stop offset="0.56" stop-color="#e74190"/><stop offset="0.57" stop-color="#e74290"/><stop offset="0.57" stop-color="#e94491"/><stop offset="0.57" stop-color="#e94391"/><stop offset="0.58" stop-color="#e94391"/><stop offset="0.58" stop-color="#e94591"/><stop offset="0.59" stop-color="#e94692"/><stop offset="0.59" stop-color="#e94692"/><stop offset="0.59" stop-color="#e94793"/><stop offset="0.6" stop-color="#e94793"/><stop offset="0.6" stop-color="#e94793"/><stop offset="0.61" stop-color="#ea4993"/><stop offset="0.61" stop-color="#ea4993"/><stop offset="0.61" stop-color="#ea4b94"/><stop offset="0.62" stop-color="#ea4c95"/><stop offset="0.62" stop-color="#ea4c95"/><stop offset="0.63" stop-color="#ea4e95"/><stop offset="0.63" stop-color="#ea4f95"/><stop offset="0.63" stop-color="#ea5095"/><stop offset="0.64" stop-color="#ea5194"/><stop offset="0.64" stop-color="#ea5393"/><stop offset="0.64" stop-color="#ea5493"/><stop offset="0.65" stop-color="#eb5793"/><stop offset="0.65" stop-color="#eb5792"/><stop offset="0.66" stop-color="#eb5a93"/><stop offset="0.66" stop-color="#eb5c92"/><stop offset="0.66" stop-color="#eb5c92"/><stop offset="0.67" stop-color="#eb5d91"/><stop offset="0.67" stop-color="#eb5e90"/><stop offset="0.68" stop-color="#ec5f90"/><stop offset="0.68" stop-color="#ec6290"/><stop offset="0.68" stop-color="#ec638f"/><stop offset="0.69" stop-color="#ec648e"/><stop offset="0.69" stop-color="#ec668f"/><stop offset="0.7" stop-color="#ed678d"/><stop offset="0.7" stop-color="#ed698e"/><stop offset="0.7" stop-color="#ed6b8d"/><stop offset="0.71" stop-color="#ed6c8d"/><stop offset="0.71" stop-color="#ed6e8c"/><stop offset="0.71" stop-color="#ee708b"/><stop offset="0.72" stop-color="#ee708b"/><stop offset="0.72" stop-color="#ee738a"/><stop offset="0.73" stop-color="#ee758a"/><stop offset="0.73" stop-color="#ee7689"/><stop offset="0.73" stop-color="#ee7889"/><stop offset="0.74" stop-color="#ef7987"/><stop offset="0.74" stop-color="#ef7b88"/><stop offset="0.75" stop-color="#ef7c87"/><stop offset="0.75" stop-color="#ef7d86"/><stop offset="0.75" stop-color="#ef7e85"/><stop offset="0.76" stop-color="#f08085"/><stop offset="0.76" stop-color="#f08285"/><stop offset="0.77" stop-color="#f08384"/><stop offset="0.77" stop-color="#f08584"/><stop offset="0.77" stop-color="#f08683"/><stop offset="0.78" stop-color="#f18983"/><stop offset="0.78" stop-color="#f18b83"/><stop offset="0.79" stop-color="#f18c82"/><stop offset="0.79" stop-color="#f28e81"/><stop offset="0.79" stop-color="#f28f81"/><stop offset="0.8" stop-color="#f29081"/><stop offset="0.8" stop-color="#f29380"/><stop offset="0.8" stop-color="#f2947f"/><stop offset="0.81" stop-color="#f3957e"/><stop offset="0.81" stop-color="#f3977f"/><stop offset="0.82" stop-color="#f3997e"/><stop offset="0.82" stop-color="#f49b7d"/><stop offset="0.82" stop-color="#f49d7d"/><stop offset="0.83" stop-color="#f49f7c"/><stop offset="0.83" stop-color="#f4a07c"/><stop offset="0.84" stop-color="#f5a27b"/><stop offset="0.84" stop-color="#f5a27a"/><stop offset="0.84" stop-color="#f5a57a"/><stop offset="0.85" stop-color="#f5a77a"/><stop offset="0.85" stop-color="#f6a879"/><stop offset="0.86" stop-color="#f6a978"/><stop offset="0.86" stop-color="#f6ac78"/><stop offset="0.86" stop-color="#f7ad78"/><stop offset="0.87" stop-color="#f7b078"/><stop offset="0.87" stop-color="#f8b276"/><stop offset="0.88" stop-color="#f8b276"/><stop offset="0.88" stop-color="#f8b575"/><stop offset="0.88" stop-color="#f9b675"/><stop offset="0.89" stop-color="#f9b774"/><stop offset="0.89" stop-color="#f9ba73"/><stop offset="0.89" stop-color="#fabb72"/><stop offset="0.9" stop-color="#fabc71"/><stop offset="0.9" stop-color="#fabe71"/><stop offset="0.91" stop-color="#fbc06f"/><stop offset="0.91" stop-color="#fbc170"/><stop offset="0.91" stop-color="#fbc36f"/><stop offset="0.92" stop-color="#fcc570"/><stop offset="0.92" stop-color="#fcc770"/><stop offset="0.93" stop-color="#fcc96e"/><stop offset="0.93" stop-color="#fdca6f"/><stop offset="0.93" stop-color="#fdcc6c"/><stop offset="0.94" stop-color="#fece6d"/><stop offset="0.94" stop-color="#fecf6b"/><stop offset="0.95" stop-color="#fed26b"/><stop offset="0.95" stop-color="#ffd46b"/><stop offset="0.95" stop-color="#ffd46b"/><stop offset="0.96" stop-color="#ffd769"/><stop offset="0.96" stop-color="#ffd868"/><stop offset="0.96" stop-color="#fed968"/><stop offset="0.97" stop-color="#fedb66"/><stop offset="0.97" stop-color="#fedd67"/><stop offset="0.98" stop-color="#fede67"/><stop offset="0.98" stop-color="#fee066"/><stop offset="0.98" stop-color="#fee165"/><stop offset="0.99" stop-color="#fee364"/><stop offset="0.99" stop-color="#ffe663"/><stop offset="1" stop-color="#ffe762"/><stop offset="1" stop-color="#ffe963"/></linearGradient><radialGradient id="radial-gradient" cx="-208.79" cy="-722.49" r="23.17" gradientTransform="matrix(0.41, 0.07, -0.07, 0.39, 278.63, 347.32)" gradientUnits="userSpaceOnUse"><stop offset="0" stop-color="#ee7370"/><stop offset="1" stop-color="#f4a395"/></radialGradient><radialGradient id="radial-gradient-2" cx="-172.89" cy="-716.68" r="18.31" gradientTransform="matrix(0.41, 0.07, -0.07, 0.39, 278.59, 347.32)" xlink:href="#radial-gradient"/><radialGradient id="radial-gradient-3" cx="-244.48" cy="-716.68" r="18.31" gradientTransform="matrix(0.41, 0.07, -0.07, 0.39, 278.59, 347.32)" xlink:href="#radial-gradient"/></defs><g id="Calque_2" data-name="Calque 2"><g id="Calque_1-2" data-name="Calque 1"><g class="cls-2"><g class="cls-3"><path class="cls-4" d="M0,134.67,37,260,477.49,130.19,440.55,4.85Z" transform="translate(-0.04)"/></g></g><path class="cls-5" d="M294.71,232.08c6.56,12.71,13.57,26,16.73,36.62,7.8,26.19,11.44.1,11.44.1-.74-18.8-7.37-40.56-13-57,0,0-4.63-1.19-11.59-2.18Z" transform="translate(-0.04)"/><path class="cls-6" d="M156.24,187.28c-3.89-3-1.37-22.16,11-37.45s13.7-38.41,31.36-49.79,29.37,9.07,16.55,27.07-29.7,45.14-39.05,54.83C166.59,191.8,160.12,190.25,156.24,187.28Z" transform="translate(-0.04)"/><path class="cls-7" d="M281.53,110V31C281.53,13.86,266.91,0,248.89,0s-32.64,13.86-32.64,31v79Z" transform="translate(-0.04)"/><path class="cls-5" d="M254.88,275.35c-16.54,1.88-60.47,2.36-57.07-18.84,5.41-33.73,24-55.38,24.05-67S246.1,167.4,246.1,167.4s16.67,6.09,24.18,23,23.9,51.08,27.18,65.82S265.82,274.11,254.88,275.35Z" transform="translate(-0.04)"/><path class="cls-5" d="M214.91,239.93c38.94-9.22,32.17,53,30.56,81.12s3.28,74.58-4.43,80.6-21.58,4-24.83-10.25S191.71,306.75,194,274.78,203,242.74,214.91,239.93Z" transform="translate(-0.04)"/><path class="cls-5" d="M227.49,379.74c17.16-5.79,20.54,6.54,19.9,25.63s5.64,91.48,10.06,109.76,5.51,29,5.51,29l-12.81,2.29s-1.54-9-11.06-37.76S216.2,463.25,212.64,439C209.45,417.19,212.85,384.68,227.49,379.74Z" transform="translate(-0.04)"/><path class="cls-5" d="M272.33,575.52a13.51,13.51,0,0,0-.47-5.1c-1.62-5.49-8.34-25.45-10.18-36a201.59,201.59,0,0,0-4.79-20.48l-7.2.56s-7.77,43.66-6.83,54.37a13.86,13.86,0,0,0,2.47,6.68Z" transform="translate(-0.04)"/><path class="cls-8" d="M274,575.52a16.53,16.53,0,0,0-2.44-11.16c-8.57-14.73-39.27-3.13-27,11.16Z" transform="translate(-0.04)"/><path class="cls-5" d="M270.2,237.14c-39.87-4.38-24.7,56.46-19.29,84.18s6.88,74.36,15.35,79.39,21.95,1.36,23.23-13.2,12.79-86.94,6.2-118.36S282.37,238.48,270.2,237.14Z" transform="translate(-0.04)"/><path class="cls-5" d="M276.09,378.22c-18.22-.06-17.08,12.64-9.79,30.44s26.73,88.06,29,106.7,3.16,29.37,3.16,29.37l14.7-2.13s-1.7-9-2.8-39.1,5.66-50.07.51-74.1C306.22,407.86,291.63,378.27,276.09,378.22Z" transform="translate(-0.04)"/><path class="cls-5" d="M285.34,575.52a13.6,13.6,0,0,1,.46-6.08c1.74-5.46,8.88-25.29,10.94-35.83A201.91,201.91,0,0,1,302,513.23l7.19.69s6.84,43.81,5.66,54.5a14.07,14.07,0,0,1-2.95,7.1Z" transform="translate(-0.04)"/><path class="cls-8" d="M285.31,575.52c-2.41-2.64-.3-7.44.34-9.19,9.91-15.14,29.72-2.06,29.72-2.06,1.47,3.74-.06,8.6-1.78,11.25Z" transform="translate(-0.04)"/><path class="cls-5" d="M252.85,122.59c13.71-3.78,22.16-13.36,26.63-24.94C264.85,91.21,245,89.12,245,89.12s-15.62,2.33-29.2,7.72C217.67,112.35,235.55,125.4,252.85,122.59Z" transform="translate(-0.04)"/><path class="cls-6" d="M214.59,198.6c-2.27,19-19.61,42.47-21,67.23-2.28,24.43-.7,51,11.5,111.85l12.92-.38-6.79-73,15.35,72.76,70.29-1.41c19.86-143.11-18.18-147.8-20.37-184.87C275.76,171.66,217.23,169.83,214.59,198.6Z" transform="translate(-0.04)"/><path class="cls-6" d="M281.2,203.54c-7.3-27.06-.19-58.17,4.48-71,3.74-10.24,11.68-27.53,3.21-33.84S268.81,91.6,261.63,90c-9-2-14.5-3-17.2-2.75-4.94.55-41.3,9.81-42.84,11.11-13.61,11.47,16.5,58.09,8.79,105.41-.66,4.43,16.08,10,24.32,5.45,4.42-2.42,5.46-11.26,4.79-16.3-1.57-11.91,20.16-3.11,20.16,2.4,0,3.7-1,8.45,2.72,11.65C268.23,212,281.2,203.54,281.2,203.54Z" transform="translate(-0.04)"/><path class="cls-9" d="M259.65,195.34c-.8-31.62,16.13-108.09-9.23-108.09-2.11.23-29-7.67-16.93,29.06,7,21.2,5.65,52.38,6.48,81.1Z" transform="translate(-0.04)"/><path class="cls-9" d="M262.31,99.19c3.31-5,16,3.83,16,3.83S264,80.82,239.49,82.39C204.79,84.62,222,116.12,222,116.12s-2.51-16.14,10.12-8.07S262.31,99.19,262.31,99.19Z" transform="translate(-0.04)"/><path class="cls-5" d="M233,103.55c1.64,8.83,16.11,16.93,21.09,15.89,7.09-1.48,7.45-12.79,5.8-21.62s-6.78-12.08-16.92-10.24C231.38,89.68,231.31,94.72,233,103.55Z" transform="translate(-0.04)"/><path class="cls-5" d="M258.88,73.38c0-6.48-5.54-11.73-12.37-11.73s-12.38,5.25-12.38,11.73V94.74c0,6.48,5.54,11.73,12.38,11.73s12.37-5.25,12.37-11.73Z" transform="translate(-0.04)"/><path class="cls-10" d="M258.88,76V73.38c0-6.48-5.54-11.73-12.37-11.73s-12.38,5.25-12.38,11.73v9a9.82,9.82,0,0,0,.06,1.09,21.88,21.88,0,0,0,7.34,1.25A21.37,21.37,0,0,0,258.88,76Z" transform="translate(-0.04)"/><path class="cls-5" d="M280.76,47.34a5,5,0,0,0-1.4-7.12,5.59,5.59,0,0,0-7.51,1.34l-2.33,3.22a5,5,0,0,0,1.4,7.12,5.59,5.59,0,0,0,7.51-1.33Z" transform="translate(-0.04)"/><path class="cls-10" d="M279.26,46.48a3.34,3.34,0,0,0-.95-4.81,3.78,3.78,0,0,0-5.08.9c-.27.39-1.29,1.79-1.57,2.18a3.36,3.36,0,0,0,.95,4.82,3.78,3.78,0,0,0,5.08-.91Z" transform="translate(-0.04)"/><path class="cls-5" d="M217,36.39a5.1,5.1,0,0,1,3.95-6.2,5.43,5.43,0,0,1,6.54,3.74c.17.68.81,3.13,1,3.8a5.11,5.11,0,0,1-4,6.2A5.42,5.42,0,0,1,218,40.18C217.81,39.53,217.16,37.06,217,36.39Z" transform="translate(-0.04)"/><path class="cls-10" d="M218.71,36.08a3.45,3.45,0,0,1,2.67-4.19,3.66,3.66,0,0,1,4.42,2.53l.67,2.57a3.46,3.46,0,0,1-2.67,4.19,3.67,3.67,0,0,1-4.42-2.53C219.26,38.21,218.83,36.54,218.71,36.08Z" transform="translate(-0.04)"/><path class="cls-5" d="M276.34,37.94c2.59-13.55-6.89-26.52-21.18-29s-28,6.54-30.55,20.09c-.64,3.31-3,15.4-3.58,18.72-2.59,13.54,6.9,26.51,21.18,29s28-6.54,30.55-20.09C273.38,53.44,275.71,41.25,276.34,37.94Z" transform="translate(-0.04)"/><ellipse class="cls-5" cx="246.26" cy="55.56" rx="23.13" ry="22.62" transform="translate(47.12 210.77) rotate(-50.65)"/><path class="cls-11" d="M262.09,45.46a1.79,1.79,0,0,1-2.51,1.65,1.7,1.7,0,0,1-1.07-1.47A1.78,1.78,0,0,1,261,44,1.7,1.7,0,0,1,262.09,45.46Z" transform="translate(-0.04)"/><path class="cls-7" d="M264.64,43a.73.73,0,0,1-.45-.27,6.34,6.34,0,0,0-4.11-2.51,6.62,6.62,0,0,0-4.78,1,.71.71,0,0,1-1-.17.63.63,0,0,1,.17-.91A8,8,0,0,1,260.33,39a7.75,7.75,0,0,1,5,3,.63.63,0,0,1-.18.91A.72.72,0,0,1,264.64,43Z" transform="translate(-0.04)"/><path class="cls-11" d="M241,41.84a1.79,1.79,0,0,1-2.51,1.64A1.68,1.68,0,0,1,237.41,42a1.78,1.78,0,0,1,2.5-1.65A1.72,1.72,0,0,1,241,41.84Z" transform="translate(-0.04)"/><path class="cls-7" d="M243.53,39.4a.69.69,0,0,1-.44-.27A6.38,6.38,0,0,0,239,36.62a6.62,6.62,0,0,0-4.78,1,.71.71,0,0,1-1-.16.63.63,0,0,1,.17-.91,8,8,0,0,1,5.82-1.2,7.81,7.81,0,0,1,5,3.05.65.65,0,0,1-.18.92A.73.73,0,0,1,243.53,39.4Z" transform="translate(-0.04)"/><path class="cls-11" d="M244.55,64.49a16.76,16.76,0,0,1-5-1.62.65.65,0,0,1-.26-.9.72.72,0,0,1,.95-.24,17.22,17.22,0,0,0,9.39,1.61.7.7,0,0,1,.8.54.67.67,0,0,1-.57.76A17.08,17.08,0,0,1,244.55,64.49Z" transform="translate(-0.04)"/><path class="cls-12" d="M246.34,55.11h0a3.62,3.62,0,0,1-3.06-4.19l1.23-6.45a3.8,3.8,0,0,1,4.42-2.91h0A3.64,3.64,0,0,1,252,45.75l-1.24,6.46A3.79,3.79,0,0,1,246.34,55.11Z" transform="translate(-0.04)"/><ellipse class="cls-13" cx="261" cy="57.31" rx="7.61" ry="7.22"/><ellipse class="cls-14" cx="231.73" cy="52.28" rx="7.61" ry="7.22"/><path class="cls-7" d="M261.9,13.06A14.53,14.53,0,0,1,264,15.13a13.22,13.22,0,0,1-2.58,19.16l3-2.17A13.24,13.24,0,0,0,267,13a14.1,14.1,0,0,0-2.09-2.07Z" transform="translate(-0.04)"/><path class="cls-7" d="M260.6,12.76a14.28,14.28,0,0,1,2.82,1,13.36,13.36,0,0,1,6.24,18.39L271.38,29a13.38,13.38,0,0,0-6.25-18.39,15.67,15.67,0,0,0-2.82-1Z" transform="translate(-0.04)"/><path class="cls-9" d="M253.13,61.6a1,1,0,0,1,.54,1.79A10.92,10.92,0,0,1,244.79,66a10.47,10.47,0,0,1-7.37-5.36,1,1,0,0,1,1.17-1.49Z" transform="translate(-0.04)"/><ellipse class="cls-7" cx="246.22" cy="18.42" rx="16.32" ry="21.03" transform="translate(193.14 259.56) rotate(-81.87)"/><path class="cls-5" d="M322.7,270.05l-.82,19.29a6,6,0,0,1-.44,2s-11.45,7-16.18,5.66-.57-7.85-1.21-9.84l5.8-6.16S302,271.64,311,265.63c5.66-3.77,9-1.05,10.64,1.06A5.13,5.13,0,0,1,322.7,270.05Z" transform="translate(-0.04)"/><path class="cls-5" d="M310.89,267.24h0a6,6,0,0,1,7.25,5.64v.64a5.76,5.76,0,0,1-3.26,5.13l-5.42,3.63a9.25,9.25,0,0,0-3.63,5.34l-.83,2.82c-.84,3-4.54,5.63-6.7,4.73h0a1.82,1.82,0,0,1-1-2.47l9.07-21.89A6,6,0,0,1,310.89,267.24Z" transform="translate(-0.04)"/><path class="cls-6" d="M295.72,201.08c4.88-1,7-18.79,3.14-37.69s7.53-38.62-2.94-56.27-27.68-6.32-24.66,15.21,5.37,53,9.19,65.58C284.33,200.75,290.84,202.1,295.72,201.08Z" transform="translate(-0.04)"/><path class="cls-6" d="M302.29,250.42c-9.39-20.13-21-43-21.16-54.49-.19-17.34,10.43-19.84,17.2-14.44,13.3,11.25,16.73,35.09,21.68,61.06Z" transform="translate(-0.04)"/><path class="cls-5" d="M194.83,156.48c14.44-3.57,29.63-7.18,40.19-11.83,26-11.45,7.54,8.16,7.54,8.16-15.52,11.73-36.05,22.8-52.89,29.45,0,0-5.17-4.22-10.49-8.59Z" transform="translate(-0.04)"/><path class="cls-5" d="M240.29,133.94c.84-.64,4.8-3,6.73-4.59,0,0,6-3.81,11,3.29,2.9,4.11,1.7,11.66,1.7,11.66-4.31,4.23-11,7.09-17.28,10.59-6.83,3.81-8.49-9.38-8.49-9.38C233,140.41,236.55,137.19,240.29,133.94Z" transform="translate(-0.04)"/><path class="cls-5" d="M263.61,115.54h0a2.31,2.31,0,0,1,.2,3.4l-14.27,14.62a2.66,2.66,0,0,1-3.59.18h0a2.32,2.32,0,0,1-.21-3.4L260,115.72A2.64,2.64,0,0,1,263.61,115.54Z" transform="translate(-0.04)"/><path class="cls-5" d="M270.47,118.32h0a2.33,2.33,0,0,1,0,3.41l-15.16,13.8a2.66,2.66,0,0,1-3.6,0h0a2.34,2.34,0,0,1,0-3.41l15.16-13.8A2.66,2.66,0,0,1,270.47,118.32Z" transform="translate(-0.04)"/><path class="cls-5" d="M275.56,125.43h0a2.33,2.33,0,0,1-.66,3.35l-17.53,11a2.64,2.64,0,0,1-3.53-.63h0a2.33,2.33,0,0,1,.66-3.35l17.53-11A2.64,2.64,0,0,1,275.56,125.43Z" transform="translate(-0.04)"/><path class="cls-5" d="M276,134h0a2.36,2.36,0,0,1-1.06,3.26l-18.76,9a2.62,2.62,0,0,1-3.43-1h0a2.36,2.36,0,0,1,1.06-3.26l18.75-9A2.63,2.63,0,0,1,276,134Z" transform="translate(-0.04)"/><path class="cls-5" d="M232.82,146h0a5.31,5.31,0,0,0,7.87.81l.41-.38a4.73,4.73,0,0,0,1.34-4.89l-.9-5.25a7.48,7.48,0,0,1,1.25-5.22l1.31-2.15c1.38-2.23.9-5.92-.95-6.63h0a1.71,1.71,0,0,0-2.18.89l-8.56,18.12A4.67,4.67,0,0,0,232.82,146Z" transform="translate(-0.04)"/><path class="cls-6" d="M225.71,165.84c-20.05,11.08-40.3,22.78-52.28,24.16-18.15,2.1-22-7.62-17-14.6,11-12.22,37.45-20.35,64.19-26.41Z" transform="translate(-0.04)"/></g></g></svg>