<svg xmlns="http://www.w3.org/2000/svg" xmlns:xlink="http://www.w3.org/1999/xlink" viewBox="0 0 538.48 604.09"><defs><style>.cls-1{fill:none;}.cls-2{clip-path:url(#clip-path);}.cls-3{clip-path:url(#clip-path-2);}.cls-4{fill:url(#Dégradé_sans_nom_2);}.cls-5{fill:#f4a395;}.cls-6{fill:#a2b6d5;}.cls-7{fill:#304876;}.cls-8{fill:#395489;}.cls-9{fill:#aeb4dc;}.cls-10{fill:#9471b0;}.cls-11{fill:#271c32;}.cls-12{fill:#281a40;}.cls-13{fill:#b6bcdb;}.cls-14{fill:#381f13;}.cls-15{fill:url(#radial-gradient);}.cls-16{fill:#f18c7c;}</style><clipPath id="clip-path" transform="translate(-0.05 -0.17)"><rect class="cls-1" x="10.24" y="70.22" width="518.01" height="147.19" transform="translate(-29.67 81.98) rotate(-16.42)"/></clipPath><clipPath id="clip-path-2" transform="translate(-0.05 -0.17)"><path class="cls-1" d="M46.69,169.14c-3.22,1.67,7.92-7.7,3-4.24l-3.37,3.24-3.38,3.39c1.09-2.24-2.14-.25-1.61.88,1.64-.85.09.63-1.47,2.23s-3.08,3.21-1.45,2.27a19.65,19.65,0,0,1,2.39-2.72c.85-.82,1.75-1.56,2.58-2.22A22.48,22.48,0,0,0,46.69,169.14Zm207.1-49.77c.55-2.32,4.47-3,6.76-5.92C260,116,256.54,117.38,253.79,119.37Zm163-46.72c0,.11-.14.37-.31.74-.11.22-.14.33-.2.46s-.13.28-.22.44-.26.48-.39.7l0,.05c.56-.9-1.26,2,1.26-2v0l-.17-.12-.33-.25-1.31-.92-1.23-.83c-.37-.25-.73-.47-1.06-.68a16.64,16.64,0,0,1,4,1.91l.26.17.15.09,0,0c-.72,1.16,1.63-2.59-1.63,2.6l0,0,.06-.09.08-.18A12.69,12.69,0,0,0,416.79,72.65ZM81.94,140c0-1.64,3.38-2.93,4.65-3.84C86.45,138.19,83.31,138.47,81.94,140Zm161.4-11.86c-1,.81-2.05-.23-1.8-1.48.63-.17.9,0,1.13.27S243.08,127.73,243.34,128.11Zm41.1-31.86c-3.89,1.61-.05-1.18,2.89-2.89S292.22,90.82,284.44,96.25Zm-124.62,4.13c-.84.87-3.11,1.52-5.84,2.19s-5.93,1.45-8.57,2.36a17.77,17.77,0,0,1,5.26-2.52A33.77,33.77,0,0,1,159.82,100.38Zm4.29,2.4c-.45.61-2.27.91-4.38,1.23a40.18,40.18,0,0,0-6,1.18,13.62,13.62,0,0,1,4.64-1.9A23.12,23.12,0,0,1,164.11,102.78Zm251.2-24.33a1.43,1.43,0,0,1-.54.76.22.22,0,0,1-.33-.15,1.72,1.72,0,0,0-.21-.43c-.1-.08-.11-.23-.29-.12a1.52,1.52,0,0,1,.35-.48.27.27,0,0,1,.15-.09.89.89,0,0,1,.2-.06c.13,0,.2.1.35.19A.62.62,0,0,1,415.31,78.45Zm10.12-.57c-1.56,1.16-2.62,1.19-2.71.91S423.33,78.06,425.43,77.88ZM82.53,148.63c3.91-.71,1.35,3.66,5.87,1-.29,1.89-3.89,2.46-5.3,3.1-5.59,9.32-16.16,12.65-25,22.87A56.48,56.48,0,0,1,62.6,170c1.73-1.94,3.65-3.91,5.63-5.73,1-.92,2-1.83,3-2.7s2-1.67,3.06-2.44a53.38,53.38,0,0,1,5.85-3.95c-4.1,1.84-.29-.58.76-2.62-4.25,1.58-8.42,6.76-11.87,8.88A37.43,37.43,0,0,1,75,155C77.34,152.92,80,150.72,82.53,148.63ZM60.73,169c.3-1.06,1.61-2.34,3.11-3.64a53.73,53.73,0,0,0,4.29-3.73c-.32,1-1.61,2.26-3.11,3.52A46.9,46.9,0,0,0,60.73,169ZM31.51,204.46c1-1,1.76.32,3-2.22.2,1.67-3.6,4.92-4.88,7.4-1.08.74-.26-.45.63-1.87S32.2,204.75,31.51,204.46ZM161,110.81c-1,1-3.57,1.75-6.95,2.52-.75-.73.38-1.23,2-1.59S159.81,111.15,161,110.81Zm-21.27,9a56.19,56.19,0,0,1-5.14,3.26l-2.71,1.52L129,126.14c.05-1.09,2-2.44,4.31-3.58.58-.29,1.16-.56,1.74-.83s1.23-.55,1.89-.8C138.19,120.45,139.21,120.06,139.77,119.8ZM428.06,94.2a35.8,35.8,0,0,1-11.59.7,26,26,0,0,1-2.59-.39c-.85-.15-1.6-.43-2.42-.59s-1.49-.48-2.18-.79a16.17,16.17,0,0,1-2-.95c.71-1.11,1-1.05,1.45-.8a8.07,8.07,0,0,1,.69.53,1.41,1.41,0,0,0,1,.37c.17-.68.44-1,.75-1s.7.22,1.25.49a13.33,13.33,0,0,0,4.41,2.08c2.05.5,4.21-.24,6-.52a6.63,6.63,0,0,1,2.67-.2A4,4,0,0,1,428.06,94.2Zm-21.88-3.12a1.22,1.22,0,0,1-.32,0c-.14,0-.13,0-.66-.31a25.73,25.73,0,0,1-2.63-1.8c-1.76-1.36-3.6-2.92-4.91-4.11s-2.12-2-1.71-1.94,2,1,5.32,3.54a35.92,35.92,0,0,1,3.5,3.17c.22.24.46.45.66.66s.49.44.45.47A.67.67,0,0,0,406.18,91.08ZM391,83.58c-.67-1.65-2.58-2.8-4.85-3.63s-4.88-1.44-7.11-2.25a17,17,0,0,1,7.58,1.43C389.42,80.3,391.62,82.11,391,83.58ZM41.13,210.2c.61-2.52,8.53-11.79,8.93-10.91-1.25,1.43-2.13,2.52-2.83,3.43S46,204.3,45.48,205s-1,1.3-1.73,2.09S42.28,208.85,41.13,210.2ZM31.63,231c-.34,2.76-1.91,6.51-3.64,10.37a32.39,32.39,0,0,1,1.21-4.88c.3-.87.6-1.78,1-2.69S31.09,232,31.63,231Zm36-17.33c-3.74,6.2-8.5,10.38-11.37,14.41,1-2.66,3.09-5.47,5.21-8.07S65.92,215.22,67.6,213.7Zm6.83-6.7c-.21,1.88-2.07,3.66-4.11,5.16C69.26,210.28,73,208.59,74.43,207Zm4.32-3c1-2.32,3.32-3.85,5.22-5.09,0,.69-1,1.88-2.17,2.92A11.78,11.78,0,0,1,78.75,204Zm52.59-44c2-2.4,7.27-5.79,9.61-6.73C138.93,156.31,134.28,159.53,131.34,160Zm4.17-.39c-1.24,1.66-4.34,4.87-6.8,5.37A18,18,0,0,1,135.51,159.64Zm5.06-1.43c1-.63,2-1.23,3.06-1.82.25.42-.55.77-.95,1.14,1.73.17,1.44-.29.78,1.27C142.57,158.4,141.14,159.33,140.57,158.21ZM86.91,205.87c-2,1.3-3.41,2.84-6.38,5.68C79.06,212.32,85.72,204.21,86.91,205.87Zm92.77-52.46a60.47,60.47,0,0,0-13.8,1,50.34,50.34,0,0,0-7,1.89c-1.18.41-2.35.88-3.54,1.4-.59.28-1.18.53-1.78.83s-1.28.67-1.93,1c1-.68,2.09-1.38,3.14-2,.53-.31,1.08-.6,1.64-.88s1.14-.58,1.76-.84a38,38,0,0,1,7.63-2.54,31.6,31.6,0,0,1,7.64-.75A24.49,24.49,0,0,1,179.68,153.41ZM67.57,233.11c2.07-1.6,2.1-3.85,4.51-5.11C71.63,230.47,69.8,233.67,67.57,233.11Zm7.56-8.8c1.3-3.67,6-5.71,7.92-9.55-.29,2,1.39-.13,2.33,1.19C80,219.59,79.46,222.19,75.13,224.31ZM154.85,159c-.48,1.44-4.64,2.41-6.57,3.91-.27-.43,1-1.36,2.58-2.18.78-.42,1.61-.8,2.37-1.12S154.51,159.15,154.85,159ZM78.58,232c.7-.83,1.39-1.68,2.07-2.51,1.77.52-.66,2-1.26,3.11Zm84.07-61.1c-.16-.94.51-1.39,1.4-1.65a21.9,21.9,0,0,0,2.64-.69c1,.3,0,.5-1.2.85S162.76,170.34,162.65,170.93ZM91.54,229.29A9.37,9.37,0,0,1,90,232.1c-.68.89-1.48,1.75-2.31,2.68s-1.83,1.88-2.78,3a43.09,43.09,0,0,0-2.78,3.73C82.36,238.33,87.6,234.47,91.54,229.29Zm71.76-57.53c.34-1.39,2.77-1.16,4-1.74C166.74,171.29,164.45,170.94,163.3,171.76Zm18,5.63c-.64.37-.94-.06-1.33-.57s-.85-1.14-1.61-1.07c-.09-.49.69-.39,1.47,0S181.38,176.92,181.32,177.39Zm3,1.71c-.87.73-1.37.42-1.76-.09s-.62-1.24-.75-1.3C182.77,177,183.48,178.77,184.3,179.1Zm-21.49-1.72c.06-1.27,2.1-1.11,3-1.74.07.82-.55,1.07-1.26,1.25A5.37,5.37,0,0,0,162.81,177.38Zm-43.61,33a6.35,6.35,0,0,0,3.12-2.68C124.1,208.26,119.54,212.23,119.2,210.42Zm26.13-20.88c2.69-.6,6.26-4.81,8.78-5,.3,1.79-1.06,3.14-3,4.47s-4.43,2.6-6.2,3.93C144.37,192.56,147.32,190.72,145.33,189.54ZM166,178.25c.33-1.35,2.3-.93,3.34-1.42a1.61,1.61,0,0,1-1.41,1.48A3.7,3.7,0,0,1,166,178.25Zm-54.52,42.47c-.22,1.73-3.74,3.83-5.25,5.67C105.32,224.91,109.89,221.27,111.46,220.72Zm6.42-3.76c1.41,3-5.94,6.06-9.76,10.42C109.87,222.93,116,220.41,117.88,217Zm51.72-30.37a1,1,0,0,1,1.07-.78,4.29,4.29,0,0,0,1.33.05,1.16,1.16,0,0,1-1.17.59A1.66,1.66,0,0,0,169.6,186.59Zm-46.4,35.07c1.37-2.54,7-7.07,9.29-6.71-1.51,1.24-2.81,2.23-4.24,3.24S125.19,220.27,123.2,221.66Zm6.52-3.69a46.5,46.5,0,0,0,3.9-2.9c1.36-1.11,2.92-2.38,4.83-3.82C137.47,213.33,132,217.84,129.72,218ZM162.2,193.1c-2.51,2-6.57,5.05-10.88,8.45-2.29,1.77-4.53,3.52-6.51,5.07-2.29,1.76-4.33,3.24-5.82,4.19l6.88-5.68c2.1-1.74,4.18-3.42,6.17-4.95A101,101,0,0,1,162.2,193.1Zm181.12-29.35c1.72-1.72,2.77-.94,4.52-2.62C348,161.87,343.84,165.5,343.32,163.75Zm6.39-3.34c.23-1.55,3.93-3,5.57-4.44C355,157.52,351.32,158.92,349.71,160.41ZM366,150.54c-.33.9-.5,1.18-.72,1.15s-.43-.24-.68-.35a.43.43,0,0,0-.66.22c.14-1.21.76-1.3,1.34-1.19A5.4,5.4,0,0,0,366,150.54Zm-165,65.2a99.47,99.47,0,0,1-9.93-7c.87.42,3.51,1.75,5.85,3.1S201.29,214.6,201,215.74Zm-40.39-18c-.08-1.33,2.77-2.07,3.74-3C164.43,196,161.69,196.59,160.59,197.72Zm236-137.82c-1.9-.16-6.27-1.46-7.44-2.44a34.3,34.3,0,0,0-4.33-1.35c-1.77-.44-3.75-.85-5.56-1.17-3.62-.61-6.52-.85-5.4-1.3a53.77,53.77,0,0,1,12.62,2.52C390.12,57.33,393.32,58.6,396.62,59.9Zm-291.3,76.22c-.5-.82,2.68-1.24,4.24-3.07-1.09-.38-2.36,1.24-1.62-.7a64.58,64.58,0,0,0-11.36,6.75c-1.77,1.26-3.57,2.57-5.43,3.92-1.69,1.2-3.47,2.4-5.39,3.58-.88.09.24-.94,1.75-2.15s3.36-2.59,4.33-3.52l-6.12,4.39c-2.11,1.52-4.28,3.12-6.35,4.72s-4.13,3.29-6,4.93a49.54,49.54,0,0,0-4.75,4.82c-.29-.68,1.19-1.6,2-2.44-6.45,5.46-13.5,11.66-22,18.35,5.75-6.44,12.36-14,19.27-20.65a139.34,139.34,0,0,1,10.48-9.27c1.75-1.36,3.52-2.68,5.24-3.84a61,61,0,0,1,5.26-3.16c.73-.75,0-1.29-.65-.76,3.22-4.07,8-8,13.49-11.46a126.81,126.81,0,0,1,16.67-8.79c.91.68.1,1.47.2,2.2,1.71-1,3.42-2,5.22-3,1,.71-.84,1.52-2.14,2.34,2-.91,4-1.82,6.07-2.72,1-.46,2.07-.9,3.17-1.34s2.32-1,3.66-1.49a134,134,0,0,1,16.13-5.31,94,94,0,0,1,33.3-2.74,78.22,78.22,0,0,1,31.63,10.36,98.5,98.5,0,0,1,13.77,9.85l3.22,2.81,1.51,1.38,1.06,1,1,.91a1.31,1.31,0,0,1,.2.21l.38.42c-.1-.26-.17-.52-.28-.74a.68.68,0,0,0-.11-.19l-.61-.66c-.42-.42-.82-.85-1.23-1.29l-.8-.8-1-1-1.9-1.73c-1.27-1.15-2.58-2.25-3.87-3.31a85.68,85.68,0,0,0-16.31-10.4c-11.35-5.41-23.1-8.33-36-10-1.31,0-2.63,0-3.94.12-5.73.43-.23-.92,2.64-.59a75.87,75.87,0,0,1,11.9.57c2,.24,3.87.48,5.6.77s3.36.47,4.78.6c0-.46-1-.81-2.21-1.13s-2.42-.54-2.74-1a55.86,55.86,0,0,1,15.12,3.64,77.72,77.72,0,0,1,17,9c2.69,1.85,5.24,3.79,7.61,5.75,1.2,1,2.33,1.94,3.44,2.91s2.11,1.84,3.21,2.83l2,1.75c.16.13.29.26.43.39s.34.3.31.25l.13,0a.7.7,0,0,0,.51,0,3.09,3.09,0,0,0,3.94,1.67c-.31-1.11-.61-1.27-1-1.36.25-.72.52-1,.73-.9s.47.45.7,1.09c.07,1.25-.25.3-.34.59a1.44,1.44,0,0,0,1.42,1,2.38,2.38,0,0,0,1.43-.81c.43-.41.82-.9,1.25-1.31l.17-.17.06-.05.07-.08.19-.17c1-.91,2.05-1.84,3.09-2.77,2.13-1.81,4.26-3.63,6.52-5.36-2.94.69-.76-1.3,2.52-3.73,1.66-1.19,3.59-2.5,5.28-3.63s3.19-2.06,3.93-2.6c9-6.59,18.35-15.65,23.78-17,3.8-2.89,7.81-5.8,12-8.61,2.09-1.44,4.22-2.81,6.38-4.21l1.78-1.13,2.72-1.68,5.47-3.34c1.82-1.1,3.67-2.12,5.49-3.19l2.74-1.57c.91-.51,1.8-1.08,2.74-1.49L339.05,65c.91-.44,1.82-.88,2.74-1.3s1.83-.75,2.75-1.09a65.61,65.61,0,0,1,21.55-4.3,67.39,67.39,0,0,1,11.24.88l-11.23.14a75.49,75.49,0,0,0-19.4,3.48,47.79,47.79,0,0,0-5.18,1.9l-5.19,2.39a95.85,95.85,0,0,0-10.13,5.45c-2.8,1.6-5.76,3.62-8.83,5.62-.75.51-1.52,1-2.3,1.52a10.56,10.56,0,0,0-.9.62l-.68.49-2.69,1.94a4.09,4.09,0,0,0,2.92,0,12.31,12.31,0,0,0,1.78-.7l.56-.28.77-.41,1.56-.9c2.13-1.24,4.39-2.7,6.66-4.15l6.65-4.12a37,37,0,0,0-6.1,2.8c-2.25,1.2-4.58,2.64-6.71,3.75,1.56-1.09,3.19-2.18,4.85-3.26s3.43-2.11,5.22-3.17l2.7-1.6a27.61,27.61,0,0,1,2.78-1.5l5.8-2.79c1-.44,2-1,3-1.37s2-.79,3-1.15c2.05-.71,4.14-1.35,6.29-1.89A65.49,65.49,0,0,1,366,60.11l1.51,0a12.79,12.79,0,0,0,1.51.06c1,0,2.05.07,3.08.11a29,29,0,0,1,3.09.26c1,.1,2,.27,3.07.43,6-1.13,13.66,1.52,20.84,6.59a109.66,109.66,0,0,1,10.51,8.64c.81.75,1.77,1.53,2.66,2.29l.68.56.16.14v.26c0,.29.13.38.23.52s.51-.8.59-.82c.6-.28,1,0,1.95.3a16.07,16.07,0,0,0,3.7.92c3.08.4,7.3-.31,9.18-2.92l1.41-.6c.47-.24,1-.45,1.45-.7s1-.51,1.45-.74l.75-.4.89-.52a61.52,61.52,0,0,0,7.76-5.41,96.63,96.63,0,0,0,16.7-18c0,2.24-2.28,2.46-3.12,4.74,2.9-.88,3.72-5,7-7.47-.68,3.41,2.52,1.27,4.44,1.1,1.27,2.61,3.57,5.13,3.93,6.94A25,25,0,0,1,469,59.27c-.93,1-1.92,2-2.76,3-1.68,1.92-2.77,3.68-1.57,4.93,1.86,2.07,8.08-2.71,9.24-6.83,3.86-.27,6.27-5.48,10.52-4.89,1.39.92-.38,2.6,0,3.75,3.12-.67,7.2-1.86,8.86-.09.21,2.83-.81,3.59,2,5.4-1.15,1.26-.75,2.13-2.5,3.54,1,2.11,2.59-.49,3.85-.52,2,1.41-.17,4.34,2.91,4.3-.51,1.68-3,3.83-2.74,5.32,1.61.66,3.56-1.26,5.14-.44,1.43,3.85.91,8.24,0,12.73,3.7-1.09,1.3-3,2.3-4,2.15-2.25.37.1.76.65,2.83.91,4-6.29,6.54-4.23.95-3.38-2.48-3.22-4.82-6,4.41-1.38,6.53,3.49,6,6.92-1.28,1.19-2.45,1.56-3.87,3.55,3.3-.42,6.71,1.81,9.57,2.18.17,1-1,2.26-1.75,3.46,3.88-1.25,4.06,5.39,8.2,2.94-1.87,5.6-1,8.09-3.57,13.59.6.34,1.41-.36,2.22-1.11s1.58-1.55,2.23-1.47c1.67,2.59.21,6.09.44,9.14-1.59,1.67-3.15,3.31-4.84,5-.33-.51.85-1.44,1.48-2.22a24,24,0,0,0-5.12,3.94c-1.89,1.74-3.85,3.75-6,5.73-4.17,3.93-8.83,7.54-12.41,7.67,4.41-2.5,8.8-8,11.67-10-4.44,2.6-9.45,6-15.19,9.7s-12.14,7.83-19.34,11.69c-.92.47-1.76,1-2.73,1.45s-2,1-3,1.46c-2,1-4,1.89-6.06,2.77s-4.12,1.72-6.21,2.48-4.2,1.49-6.34,2.17A115.68,115.68,0,0,1,425.92,162c2.92-1,2.09-1.11.07-1-1,0-2.32.19-3.68.25s-2.72.1-3.78.11c1.61,1.31-2.25,1.42-7.52.71l-2-.27c-.69-.11-1.39-.25-2.12-.38l-4.19-.81c-2.75-.58-5.31-1.26-7.1-1.48-.48,1,4.56,1.14,6.41,1.68a26.2,26.2,0,0,1-6.86-.62c-1.39-.25-2.93-.71-4.5-1.16s-3.2-.94-4.86-1.65-3.34-1.37-5-2.08-3.27-1.62-4.83-2.44-3.08-1.62-4.48-2.5l-2-1.24-.23-.14,0,0a1.74,1.74,0,0,0-.21.41v0a.92.92,0,0,0,.22.14c.2.12.38.23.59.34l1.15.69c-.19.23-.6.15-1.18-.07-.29-.12-.61-.28-1-.47l-.16-.09s0,0,0,0,.08-.08,0-.15-.08-.09-.16-.05c.23-.43.32-.28.42-.33.36-.66-.18-.34.21-1.09-.81-.55-.77-.81-.42-.77a2.48,2.48,0,0,1,.71.27c.09.07.32.17.32.23l0,.08c.67.39,1.32.79,1.91,1.15-.25-.27-.53-.55-.81-.83a5.86,5.86,0,0,0-.44-.42l-.22-.22c-.06-.06-.19-.17-.15-.16.07-.18.14-.35.19-.51a1.92,1.92,0,0,0-.19-1,3.51,3.51,0,0,0-1.22-1.4,6.15,6.15,0,0,0-3.61-.9c-.29,0-.55,0-.81,0a5.72,5.72,0,0,0,.81.61,12.56,12.56,0,0,1,1.85,1.09,2.81,2.81,0,0,1,.78,2.51,4,4,0,0,0-2.65-1.25,5.56,5.56,0,0,0-2.38.85l-1.86,1s-.3-.14-.56-.27a2.13,2.13,0,0,0-.38-.18c-.07,0-.08,0-.18,0a2.22,2.22,0,0,0-.37.21c-2.31,1.7-5.42,6.28-8.7,7-.72.64.69,1.36-.19,2-5.7,1.47-8.26,6.12-14.72,10.71,1.92.63,5.24-4.12,7-2.7-5.41,1.82-9.24,8.1-13.91,7.53.26,3.82-5.92,5.72-9.44,9.86a80.06,80.06,0,0,1-6.82,5.92c-.8.65-1.59,1.34-2.41,2l-5.19,4.65c-1.73,1.57-3.51,3.06-5.23,4.56s-3.46,2.92-5.16,4.24c-11,8.89-24,16.2-38.84,19.23-.91.24-1.87.33-2.8.51s-1.87.34-2.82.41c-1.9.16-3.83.37-5.75.46-1,.06-1.93.11-2.91.13l-2.91-.07c-1.95-.09-3.9-.16-5.85-.42A75.76,75.76,0,0,1,221.29,222a78.48,78.48,0,0,1-11.18-4.16,92.24,92.24,0,0,1-20.82-13.43c-3.3-2.71-6.49-5.67-9.65-8.67-1.39-1.32-2.81-2.63-4.2-4l-1-.89-.11-.1s0,0,0,0v0s0,0,0,0a8.61,8.61,0,0,0-2.4-1.37.45.45,0,0,1-.22,0,1.7,1.7,0,0,1-.22,0c.18-.58.44-.62.66-.49s.4.35.65.22c.58-.57,1.33.08,1.87.53.69-1,.6-1.31.37-1.55s-.54-.31-.43-1c.63-.78,1.16-.71,1.62-.35a3.67,3.67,0,0,1,.63.67,2.62,2.62,0,0,0,.3.35s0,0,0,0l.12.11.72.67c-.14-.28-.32-.59-.45-.84l-.12-.17,0-.05,0-.1a1.26,1.26,0,0,0-.21-.49,1.82,1.82,0,0,0-.81-.63,9.65,9.65,0,0,1-2.22-1.06,4,4,0,0,0,0,1.13c-.71,1.38-.35-.44-.11-1.17a7.48,7.48,0,0,0-5.76-.13,11.19,11.19,0,0,0-1.31.54c-.1,0-1.73.83-2.88,1.45a95.38,95.38,0,0,0-8.17,5.1c-2.88,2-5.88,4.2-9,6.61l-2.35,1.85-2.48,2c-1.81,1.45-3.63,2.89-5.44,4.36-6.92,5.47-14,11.07-21.3,16.9-1.29,1.15-2.51,2.33-3.71,3.49-.73,1.19-3.28,2.4-1.26.52a32.77,32.77,0,0,1,3.53-3.29c1.29-1.1,2.41-2.19,2.64-3.19,1,.41,2.65-2.55,3.63-1.9,1.19-3.22,6.43-4.58,7.79-7.43a7.1,7.1,0,0,0-4.21,1.45c-1.24.86-2.55,2-4.31,3.26,1.38-3.46,6.49-7,9.69-9.63-2.77,1.27-5.66,2.75-7.48,5.05a7.25,7.25,0,0,1,1.48-3.34A9.83,9.83,0,0,0,125,205.5c-3.54.49-8,5.37-11.73,7.5,0,.38,1.3-.3,1.35-.53-.31,1.6-1.66,3.22-3.43,4.89-.9.83-1.93,1.65-3,2.49s-2.22,1.68-3.4,2.5-2.33,1.68-3.47,2.5-2.24,1.65-3.19,2.49c-1.91,1.66-3.57,3.24-4.26,4.71-.41-.59.7-1.44,1.29-2.17-2.13.76-2.12,2.76-4.53,4.3C90.5,233,91.83,231.49,93,230s2.27-2.85,1.59-4a146.25,146.25,0,0,1,10.74-10.59c1.47,0-4,4.19-5.39,5.84,2.29-.35,5.16-4.22,8.92-7-.65-1-2,2.28-2.53.3,9.49-7.73,15.09-14.88,24.71-22.6-6.73,4-14.22,11.58-20.74,16.94.89-2,3-4.08,5.56-6.2-4.07.38-8.21,7.3-11.52,8.87-5.14,4.1.71-1.29,3.71-4,1.76-1.62,3.77-3.35,5.5-4.89a24.21,24.21,0,0,0,3.64-3.71c.4,1.09-4.21.21-2.09-.22-5,1.05-9.51,7-16.09,12.3.78-2.49,4-6.13,7.65-9.66,1.84-1.78,3.8-3.52,5.57-5.12s3.41-3,4.54-4.19c-2.42.52-5.73,4.62-8.44,6.55-1.37,1.2-.91.29-1.23-.28-2,1.7-3.87,3.42-5.82,5.13-1.3,1.66-5.1,4-1.89,1.05,3.18-3.82,8.86-8.82,14-10.9,1.29-1.08,1-2,2.94-3.14-6,3-16.21,11.16-22.37,18.43-.42-.79-1.06-.3-1.71.25-1.59-2.68,2.65-4.16,4.56-6.34,7.17-8.25,13.22-16,25.91-24.81,1.09,0-8,7.6-.45,1.67,1.56.69-.65,1.7-1.57,2.61,4.31-.79,8.24-6,11.71-6.83,1.64,1-1.69,2.19-2.62,3.32,1,.11,2.24-.94,3.11-.52a40.47,40.47,0,0,1-4.21,3.92c-1.91,1.66-4.39,3.73-6.36,5.3,5.77-4,10.5-7.34,15.18-10.45s9-5.9,13.32-8.33c1.07-.62,2.14-1.2,3.21-1.76.53-.27,1.07-.58,1.6-.83l1.52-.75a58.91,58.91,0,0,1,5.42-2.33,33.93,33.93,0,0,1,12.6-2.27,13.92,13.92,0,0,0-5.43-.54,56.21,56.21,0,0,0-5.8.84,5.54,5.54,0,0,1,2.62-1.52,18,18,0,0,0,3.2-1.21,20.46,20.46,0,0,0-7.28.72,32.1,32.1,0,0,0-7.4,3.24.89.89,0,0,0,.87.61,3.23,3.23,0,0,0,1.19-.31c.84-.39,1.79-.86,2.36-.57-.73.46-1.53.89-2.36,1.4l-2.9,1.67c-2.19,1.25-4.59,2.66-7,4.14-4.86,2.93-9.93,6.07-14.11,8.24,5.1-3.4,8.87-6.61,15.28-10.45-4.29,1.36-6.51,3.49-10.45,5.62-.56.36.6-1,1.86-2.22s2.59-2.17,2.26-1.21a86.5,86.5,0,0,1,9.65-7.5c.86-.58,1.81-1.12,2.63-1.59s1.58-.85,2.35-1.17a13.71,13.71,0,0,1,4.27-1.19c-.06,0-.13.29-.17.57s-.07.57-.08.57c2.2-1,4.57-3.21,7.24-3.92a27.25,27.25,0,0,1,11.56-.65,26.75,26.75,0,0,1,11.09,4.56c.4-1.47-1.69-2.54-3.89-3.26s-4.44-1.14-4.45-2.64a7.26,7.26,0,0,0,1.58.69c.35.13.74.24,1.17.36s.85.28,1.3.43a43.21,43.21,0,0,1,5.53,2.15,20.84,20.84,0,0,0-9-4.89,77.74,77.74,0,0,0-10.15-1.83c-.11,0,1.43-1,2-.54-1.92-1.53-6.51-1.22-11.28.34-2.4.74-4.86,1.73-7.2,2.71s-4.56,1.93-6.87,2.65c1.12-1.56-.74-1.72,3.08-3.11a24.27,24.27,0,0,0-4.38,1.31,29.63,29.63,0,0,0-3.29,1.63c-2.1,1.21-4.32,2.63-8.36,4.78,2.38-3,5.95-5.28,9.78-7.32s7.82-3.85,11.68-6.29a2.1,2.1,0,0,1-1.11,1.42c3.83-1.28,6.92-2.49,10.12-3.34a21.63,21.63,0,0,1,10.45-.4c-.05-.6-1.28-.53-2.13-.61,1.89-.63,4.91-.35,7.69.3s5.41,1.47,7.08,1.14a40.15,40.15,0,0,0-10.74-2.78,31.93,31.93,0,0,0-11.4.82c-.42-1,1-1.14,2.21-1.28a59.25,59.25,0,0,0-19.53,4.56,81.17,81.17,0,0,0-18.78,10.83c.57.42,1.78-.68,2.76-1.23-3.09,2.72-7.39,5.73-11.39,8.78a71.49,71.49,0,0,0-9.74,8.37c.49,1.34,1.8-.22,2.68-.25-.81,1.8-5.36,3.7-7.86,6.51,3.81-.76,9.58-8.54,12.4-5.69.27-1.1,2.11-2.34,3.62-3.53-1.61-.46-4.5,3.61-5.82,2.07,2.6-2.19,6.57-4.78,10.42-4.34,1.68-3.69,7.71-5.92,10.79-6.87-1,1.81-3.48,3-5.8,4.2s-4.43,2.51-4.63,4.29c1.68,0,2.52-.8,3.72-2.12a38.07,38.07,0,0,1-5.75,6.31c-2.47,2.29-5.36,4.76-8.47,7.29-6.17,5-12.72,9.79-16.8,13-2.76.32,1.27-2.21,2.59-3.55-3,1-.5-1,1.52-2.63-4.83,3.61-8.85,6.95-13.08,10.78s-8.63,8.12-14,13.76c-1.61,2-1.36.1.12-.86.81-.86,1.64-1.71,2.5-2.56,1.48-1.36-.27-2.16,2.3-3.73,1.3-1.3.9-.34,1.24.2,1.26-2-1-.89.1-2.89,5.44-5.43,10.62-8.66,16.44-14.2-6.07,4.41-11.28,8.67-16.2,13s-9.58,8.76-14.39,13.68c2.51-3.33,6.54-8.12,10.83-12.85A144.33,144.33,0,0,1,94.16,189.5c2.19-.91-2.06,2.43-2.93,3.27,1.93.42,4.72-3.12,7.24-5-2.89-1.35,5.33-4.47,8.87-7.55-.62-.9-2.14,1.49-3.12,2-2.23.87,2.11-2.37,3-3.18-4.69,1.57-7.82,5.81-13.42,10.16,1.6-2.1,3.17-5.34,7-8.66-4.86,3.13-10.33,8.25-15.71,13.68s-10.7,11.12-15.69,15.21c-1.17-3,4.06-5.7,6.75-9.9-4.92,2-10.34,9.72-12.91,11.54,3.75-5.69,9-11.27,14.74-17s12.12-11.42,18.27-17.58c-3.3.27-3.92,2.92-6.65,3.72.46,1,1.46,0,2.37-.71-.05,2.24-3.8,1.53-5.72,3.68-.2.21-.51,2.47-.64,2.58a61.56,61.56,0,0,1-6.55,5c-2.1,1.43-3.14,1.83,0-1a82.3,82.3,0,0,0-7.36,6.77l-3.26,3.28c-1.12,1.14-2.31,2.31-3.7,3.56-.94.67-.28-.64-1.13-1-.89,1.25-2.35,2.78-3.69,4.28a19.36,19.36,0,0,0-1.78,2.27,6.36,6.36,0,0,0-.9,2.2,3.81,3.81,0,0,1,.63-3.28,20.78,20.78,0,0,1,2.87-3.37c2.22-2.29,4.73-4.38,4.9-6.48-.81-.69-1.93.32-3.12,1.68l-1.78,2.16A10.36,10.36,0,0,1,59,203.53c3.81.19-4.48,2.59-6.53,6.86a16.4,16.4,0,0,1,2.79-4.54,36.94,36.94,0,0,1,4-4.15c-2.19.29-4.95,3.61-7.5,7.16l-1.94,2.58c-.61.84-1.22,1.65-1.83,2.36a7.54,7.54,0,0,1-3.49,2.7c4.66-6.79,8.84-12.54,13.94-18.79a206,206,0,0,1,19.71-20.9c-1.51-1.53-3.67-.63-6.33,2.34.91.48,2.49-1.76,3.11-.14-1.48.06-3.4,1.9-5.05,2.61,2.76-2.58-2.45-.37,2.38-4.25-4.36,1.93-8.68,7.86-13.45,12.27a17.74,17.74,0,0,1,3.81-5.29c1.48-1.46,2.89-2.6,3.43-3.25s-.25-1.31-.72-.72c2.85-3.65,1.9-1.34,8.43-7.12,1.11-1.37-1.24.06-.45-1.62a48.07,48.07,0,0,0,3.75-3.34c1.1-1.07,2.09-2.12,3.06-3.16a57.79,57.79,0,0,1,6.45-6.27c-.48-.36-1.35.58-2.08,1.1a40.11,40.11,0,0,1,7.16-6.65c-1.11-1.25-3.59,2.33-5,2.22a64.49,64.49,0,0,1,4.83-4.81c.84-.75,1.72-1.51,2.6-2.25l1.35-1.11q.74-.59,1.47-1.2c4-3.19,8.42-6.38,13-9.81.68.49-.13,1.16.23,1.7,3.66-2.64,5-3.18,4.49-2.64a38,38,0,0,1-5.56,4c1.11,1.82,3.73.56,6.58-1.35s6.06-4.48,7.75-5.36c-2.45.13-6.75,4.12-9.69,5.84-1.17.14-1-.84-.3-.41a139.21,139.21,0,0,1,15.85-10.46c1.42-.8,2.92-1.59,4.46-2.36.75-.39,1.58-.77,2.38-1.14l1.33-.62,1.48-.65a87.85,87.85,0,0,1,12.75-4.4c2.74-.91,2.92.35,4.7.26a81,81,0,0,1,9-2.11,29.16,29.16,0,0,1,7.58-.2c2.42.2,3.25.43,3.19.49a19.16,19.16,0,0,1-2.34,0,36.81,36.81,0,0,0-6.38.32c0,.6,3.31.28,7.36.13a84.33,84.33,0,0,1,11.35.36c-1.25-.64-1.78-1-1.4-1.09a12.49,12.49,0,0,1,3.78.5c-.45-.66-2.17-1.09-4.17-1.26s-4.23-.21-5.74-.47c1.66-.57,2-.91,1.43-1.15a10.73,10.73,0,0,0-3.62-.22,39.6,39.6,0,0,0-5.34.68,25.73,25.73,0,0,0-3.74,1c-1.14-.62-3.36-.68-5.77-.43-1.21.09-2.44.26-3.63.42s-2.3.26-3.27.3c-3.67.8-5,1.21-4.84,1a32.67,32.67,0,0,1,4.23-1.38c1.2-.33,2.59-.68,4.05-1s3-.61,4.54-.86a79.09,79.09,0,0,1,8-.89,72.76,72.76,0,0,1,12,.32,74.37,74.37,0,0,1,10.83,2A142.22,142.22,0,0,1,211,121.51c-.35.43,1.35,1.66,3.77,3.46s5.6,4.12,8.4,6.49c1.41,1.18,2.72,2.29,3.89,3.34.51.45,1,.9,1.42,1.26l.85.82c.92.93,1,1.15-.51.19l-1.23-1.14-1.74-1.58c-1.14-1-2.28-2-3.45-3-4.8-3.15-10.78-7.41-16.57-9.78,3.23,2.6,6.86,5.31,10.63,8.24q2.83,2.22,5.78,4.61c1.79,1.47,3.61,3,5.43,4.46a7.59,7.59,0,0,0,1.39,1l1,.57,1.89,1.07a27.75,27.75,0,0,1,3.31,2.1,13.59,13.59,0,0,0-2.85-3.28,10.52,10.52,0,0,1-1.42-1.6,3.84,3.84,0,0,1-.47-.86l-.08-.23,0-.1-.16-.24a6.87,6.87,0,0,1-.62-1,4.66,4.66,0,0,1,1.32.44l.16.07h.22a.77.77,0,0,1,.25.1,2.15,2.15,0,0,1,.75.75c.44.61.83,1.35,1.52,1.24a7,7,0,0,0-1.45-2.33q-.22-.27-.45-.51l-1.47-1.47-2-2-2.22-2.14a15.57,15.57,0,0,1,3,1.33c.49.29,1,.61,1.47.93s.7.44,1,.67a11.53,11.53,0,0,1,.93.73l.66.59a2.17,2.17,0,0,1,.4.53c.45.77.85,1.83,1.93,1.82a4.14,4.14,0,0,0-1.19-3.49l-1.59-1.47L230.32,130a122.62,122.62,0,0,0-11.43-8.83c-3.71-2.56-7.16-4.63-9.74-6.38.25-.44,1.53.31,2.42.67.08-1.34-5.39-3-7.69-4.1-.37.3-.25.64.17.92a8.22,8.22,0,0,0,1.73,1c-1.7-.56-3.49-1.11-5.25-1.79s-3.57-1.25-5.33-1.81a51,51,0,0,0-5.12-1.38c-.82-.18-1.61-.33-2.36-.45s-1.47-.15-2.15-.18c.29-.54,2.34-.14,3.78.08a43.89,43.89,0,0,0-13.29-2.14,73.86,73.86,0,0,0-16.44,1.65,118.17,118.17,0,0,0-17,5c-2.76,1-5.47,2.11-8.13,3.2L131,116.8c-1,.41-2.07.83-3.08,1.21.11,1.17,1.72.18,3.21-.5a21.57,21.57,0,0,1-3.56,2.7,13.55,13.55,0,0,1-3.29,1.46,16.4,16.4,0,0,0,5.22-1.69c1-.47,2.17-1,3.32-1.55.64-.3,1.3-.61,2-.89l2.21-1c5.92-2.56,12.05-4.16,14.75-2.81a69,69,0,0,0-15.86,5.15c-1.27.57-2.25,1.06-3.21,1.54s-1.89,1-2.82,1.49c-1.84,1-3.61,2-5.27,3.08C117.81,129.33,112,133.33,105.32,136.12Zm417.21-31.84c-.54-.33-1.07-.61-1.84.51-4.52,4.67-9.58,9.84-15.34,15.18a183.78,183.78,0,0,1-19.63,16c-1.86,1.29-3.69,2.55-5.68,3.76-1,.61-1.93,1.22-2.92,1.81l-3,1.75c-1.93,1.13-4.27,2.28-6.43,3.39s-4.46,2-6.68,3a113,113,0,0,1-27.21,7.46c-1.52,2,3.94-.28,3.67.92-8.7,2-7.48.38-11.75,0-6.31,1-15.41.91-25.58-1.06-2.54-.51-5.12-1-7.77-1.82l-3.94-1.11-4-1.38c-2.65-.87-5.27-2-7.86-3.14l-1.94-.83-1.9-.93-1.89-.92c-.21-.11-.18-.08-.2-.07l-.1,0,.07,0,.05,0,.22.13c.61.33,1.17.66,1.7,1,1.05.63,1.91,1.22,2.46,1.61,1.08.8.79,1.27-2.07.44,1.67.78,3.44,1.53,5.27,2.34.92.39,1.84.84,2.79,1.21l2.88,1.09a94.26,94.26,0,0,0,11.74,3.66c1.91.43,3.77.79,5.55,1.1a47.69,47.69,0,0,0,5,.52,21.72,21.72,0,0,0,7.47-.53,58.73,58.73,0,0,0,22.11-.07,133.48,133.48,0,0,0,19.45-5.45c0,.61-1.56,1.7.5,1.41,1.69-.92,3.43-1.83,5.18-2.7s3.51-1.83,5.3-2.76c3.56-1.87,7.33-3.89,10.62-5.79a225.57,225.57,0,0,0,19.55-12.3C508.56,123.05,518.15,113.76,522.53,104.28ZM255.44,124.66c2.49-3,6.8-4,7.88-7-.93.56-3.23,2.23-5.16,3.77S254.77,124.51,255.44,124.66ZM357.19,61.44a26,26,0,0,0-7,1.88c-.6.36.27.32,1.91.06l6.55-1.09c2.52-.46,5.16-.8,7.22-1.33C363.44,61.47,360.35,60.89,357.19,61.44ZM233.68,131.2l.9.91c.14.15.28.3.42.43s.34.34.29.33a2.07,2.07,0,0,1,.2.46,5.58,5.58,0,0,0,.33.85c.24.5.67.87,1.67.59a8.24,8.24,0,0,1-1-1.55,2.68,2.68,0,0,0-.63-.73c-.07-.05-.08,0-.24-.14l-.7-.53A11,11,0,0,0,233.68,131.2ZM239.4,137c1.32,1,2.2.87,3.43,1.53a1.89,1.89,0,0,0-1.48-1.82A2.43,2.43,0,0,0,239.4,137Zm6.42.86a6.35,6.35,0,0,1,2.09-.37c.56-.11,1.05-.46,1.19-1.83a4.78,4.78,0,0,1-1.89,1.05C246.5,137,245.89,137.26,245.82,137.9Zm4.43,1.43c.31-.36-.4-.75-.19-1.12.43-.26,2.31-1.63,1.11-1.5a3.44,3.44,0,0,1-1.93,1.25c-.68.24-1.29.37-1.69,1.08a1.12,1.12,0,0,0-1.32-.69c-.47.1-.9.44-.89.8A7.55,7.55,0,0,0,250.25,139.33Zm46.41-36.52c-.49-.66,1.6-1.51,1.31-2.21-1.28.65-.05-.63,0-1.26-5.93,4.49-13.68,7.85-17.75,12.19,1.95-2.1,3.79-1.61,3.16,0,4.19-2.39,3-4.27,6.92-6.59.7.36,1.28.09.94,1.18C295.4,104.35,295.54,101.63,296.66,102.81Zm-54.15,36.85a3.65,3.65,0,0,1-2-.79c-.65-.4-1.22-.73-1.85-.42a18.64,18.64,0,0,1,1.91,1.2A1.51,1.51,0,0,0,242.51,139.66Zm81.54-57.1a33.12,33.12,0,0,1-5.07,3l-.53.25-.4.17c-.24.12-.49.22-.75.34a13.64,13.64,0,0,0-1.55.86,4,4,0,0,1-.48,2.11c-.4-1.84-2.66.71-2.93,1.34,0-1.86-3.5-1.07-3.52.54,1.25-.59.24.62.87,1.23,2-1.75,1.66.14,1.53.78,1.14,0,2.69-.69,4.38-1.76.85-.54,1.73-1.14,2.62-1.78l1.3-1,.73-.54,1-.69c2.61-1.82,5-3.49,6.62-4.43s2.44-1,1.93.08a52.36,52.36,0,0,1,5.81-3c1-.51,1.85-.87,2.31-1.16s.56-.51,0-.6c-.4.18-.82.4-1.27.63s-.85.51-1.26.73c-.8.44-1.48.72-1.76.49,2.79-1.82,5.6-3.14,8.27-4.56a82.76,82.76,0,0,1,7.68-3.63c4.85-2.09,9.14-3.72,12.66-5.86a52,52,0,0,0-6.88,1.25c.2,1.48-2.05,2.46-4.51,3.34s-5.23,1.64-6.16,2c-.16-.67,1.77-1.26,1.91-1.91a10.14,10.14,0,0,0-2.46.88c-.93.5-2,1.13-3.09,1.84s-2.24,1.48-3.38,2.25c-.58.38-1.14.77-1.69,1.14s-1.1.84-1.61,1.24c-4.17,3.17-7.53,5.33-7.17,2.4-3.38,1.41-2.7,4.5-4.73,4.11A3.64,3.64,0,0,0,324.05,82.56Zm32.73-12.83c.73-.18,1.47-.32,2.22-.47.43.61-.88.75-2.17,1s-2.59.5-2.12,1.06a60.83,60.83,0,0,1,11.22-1.46h1.42a13.37,13.37,0,0,0,1.4.1c.94,0,1.85.12,2.74.22a21.21,21.21,0,0,1,2.61.43c.85.15,1.65.4,2.44.61a19.35,19.35,0,0,1,7.3,3.83c2.28-.08,1.24-1.2,2.5-1.19,3.16,1.46,6.56,3.18,10.09,5.23,1.76,1,3.58,2.14,5.42,3.31s3.61,2.37,5.68,3.65l.74.48.17.1h0l.07,0,.29.13a2.56,2.56,0,0,0,.63.19c.45.1.81.32,1.28.4s.84.32,1.33.45.87.39,1.38.54a3,3,0,0,1,.9.65l.88.78a4.78,4.78,0,0,0,1.05.76,4.69,4.69,0,0,0,1.5.3,4.78,4.78,0,0,0,1.6-.34,12.14,12.14,0,0,0,1.52-.62,5.66,5.66,0,0,1,1.61-.49,4.18,4.18,0,0,1,1.91-.05,3,3,0,0,1,1.12-1.66,1.49,1.49,0,0,1,1.95,0c-.59.29-1.54.13-1.52.85.76-.42,2.87-.07,2.74-1.17-1.72.37-.17-.29-.27-1-2.84.2-5.06,1.18-7.48,1.8s-5.11.84-7.29-.84c1.26.2,1-.06.44-.5a4.64,4.64,0,0,1-1.49-1.31c-.18.18-.35.39-.54.61s-.34.4-.52.59a2.06,2.06,0,0,1-1.16.72,3.39,3.39,0,0,1-.65-.72,2.47,2.47,0,0,1-.46-.71l-.16-.4,0-.08s0,0-.12-.18-.48-.42-.72-.64l-1.4-1.28-1.27-1.24a91.48,91.48,0,0,0-10.75-9.43c-2.7-.59-5.16-2.37-3.75.4-1.17-1.17-3.66-2.22-5-3.25.7,1.64-1.08,1.6-3.25,1.06a21.26,21.26,0,0,1-5.71-2.12c.59-.74,3.54.4,2.53-1.49-2.92.25-4.59-1.69-6.9-.72,1.44.39,2.29,1,2.13,1.83-2.2.19-5.54-.25-9-.49C362.54,68,359.08,68.32,356.78,69.73Zm-19.42,3.36c-5.36,3.08-14,7.37-17,10.59,2.58-1.79,6-3.78,9.19-5.56,1.61-.91,3.13-1.8,4.44-2.68A31.87,31.87,0,0,0,337.36,73.09ZM274.2,120.34c1.48-1.46,3.18-3,3.61-4.29-1.5,1.48-7.09,3.74-5.21,3.66C273.37,119.18,273.79,119.76,274.2,120.34ZM414.94,85.05a6.34,6.34,0,0,1-2.68-.75,2.64,2.64,0,0,0-.56-.19,1.81,1.81,0,0,0-.49-.18,1.86,1.86,0,0,0-.53,0,1.17,1.17,0,0,0-.51.07c.17.05.28.15.45.21a2,2,0,0,1,.52.23,7.67,7.67,0,0,0,1.11.56,6,6,0,0,0,1.32.34A3.06,3.06,0,0,0,414.94,85.05Zm11-.61a7.65,7.65,0,0,1-1.53.36c-.54.1-1.1.06-1.63.14a5.94,5.94,0,0,0-.77.11,2.61,2.61,0,0,0-.68.11,2,2,0,0,0-1.07.62,20.52,20.52,0,0,1,3-.29A3.4,3.4,0,0,0,425.91,84.44Zm5-1a6.09,6.09,0,0,1-1.54.11,1.84,1.84,0,0,0-1.5.84,6,6,0,0,1,1.63-.06A1.49,1.49,0,0,0,431,83.49Zm1.43,2.67,10.74-6.07a5.2,5.2,0,0,0-2.82.51c-.62.24-1.3.46-2,.77s-1.32.6-1.9.88a15.43,15.43,0,0,0-3.08,1.94C432.55,84.81,432.12,85.5,432.39,86.16ZM239.23,143.23a19.58,19.58,0,0,0,4.56,1.79,5,5,0,0,0,4.64-1.6,18.94,18.94,0,0,1-4.94.39A42,42,0,0,1,239.23,143.23Zm208.88-66c-1-.93,2.72-1.53.75-2.5a2.81,2.81,0,0,0-1.59,1.6C447.07,76.87,447.26,77.35,448.11,77.18Zm-65.52-1.5c2.49.83,4,1.9,4.61,3a42.46,42.46,0,0,0-10.39-3.42,45.69,45.69,0,0,0-5.38-.66c-1.82-.11-3.66-.1-5.55-.09a93.52,93.52,0,0,0-9.59,1,26.46,26.46,0,0,1,9.6-2c5.13,0,9.7.89,15.71,1.81a12.62,12.62,0,0,0-5.54-3,18.67,18.67,0,0,0-2.21-.59,17,17,0,0,0-2.47-.42,45.32,45.32,0,0,0-5.47-.35,43.35,43.35,0,0,0-10,1.55c-.39,1.33,1.55.74,3.75.2s4.68-1,4.94-.18a74.22,74.22,0,0,0-15.49,3.92c-1.2.43-2.37.9-3.5,1.39s-2.26,1.1-3.37,1.64A50.09,50.09,0,0,0,336,83c2-1,3.89-1.6,5.82-2.39s3.93-1.68,6.34-2.71c.2.66-.23,1.3-.66,1.92A51.41,51.41,0,0,1,365.87,75c1.92,0,3.85,0,5.74.19.95.08,1.89.26,2.82.38s1.86.35,2.77.59c-1.2,1.25.58,1.77,2.65,2.38s4.47,1.36,4.65,2.31c-1.14-.33-2.77-1.2-4.31-1.75s-2.91-.89-3.37-.43c1.62,1.23,3.52,2.48,5.26,3.9-1.91-.35-3.95-.6-6.43-.88-.62,0-1.27-.1-1.94-.17l-2.14-.11h-2.36c-.81,0-1.67,0-2.57.08l-.83,0a30.92,30.92,0,0,0-4.35.53c-1.26.27-1.86.57-.58.62a39.68,39.68,0,0,1,4.91-.78,33.65,33.65,0,0,1,7.6.37,39.82,39.82,0,0,1,6.88,1.86,66.37,66.37,0,0,1,13.9,7.51c.83-1.31-.91-2.86-3.17-4.33s-4.95-2.73-6.14-4a69,69,0,0,1,11.85,6.87c1.75,1.15,3.37,2.23,5.14,3.16,2.3,1.26,2.38.87,3.33.76-.34-.28.07-.57.49-.88-.27-.17-.48-.4-.7-.54-.53-.38-1.07-.71-1.56-1-1.46-1-2.62-1.76-3.82-2.55A68.76,68.76,0,0,1,393,84.13c2.33,1.37,4.66,2.88,7,4.49,1.2.81,2.29,1.62,3.58,2.46l.93.64.47.32.17.09.56.35a26.43,26.43,0,0,0,5.22,2.19A36.31,36.31,0,0,0,425,95.79a18.6,18.6,0,0,0,1.95-.26c.66-.11,1.3-.17,2-.33,1.31-.3,2.61-.56,3.89-1a43.32,43.32,0,0,0,7.26-2.85c1.11-.6,2.18-1.13,3.31-1.88.57-.36,1.12-.69,1.64-1.06s1.05-.76,1.57-1.14c1.05-.73,2-1.62,3-2.41s1.81-1.73,2.62-2.58c-1.4,1-2.89,2.47-3.67.82,3.38-2.21,5.57-3.36,8.3-7.18a34.8,34.8,0,0,1-7.26,5.39,63.48,63.48,0,0,0-6.59,4.18c-.24-.61.15-1.28-1-.6l-1.34.79-.66.4-.61.32c-.83.39-1.61.89-2.47,1.22s-1.66.77-2.54,1.07-1.69.67-2.57.91a44,44,0,0,1-10,2,37.13,37.13,0,0,1-8.64-.28c-.31-.06-.64-.1-1-.14l-.87-.21-.9-.18c-.26-.09-.54-.18-.82-.25s-.56-.12-.83-.21l-.77-.29a4.2,4.2,0,0,1-.78-.26l-.36-.16-.19-.08-.11,0-.36-.24.23.18.16.13.09.1.14.23a3,3,0,0,1,.21.52,3.38,3.38,0,0,1,.25,1.19c-.19-.31-.43-.54-.62-.89-.08-.16-.19-.32-.28-.48l-.06-.12a1.28,1.28,0,0,0-.21-.2l-.83-.71-3.36-2.86c-1.15-1-2.34-1.94-3.58-2.87C393.41,79.77,387.86,76.75,382.59,75.68Zm-91.33,38.08c.77-.52,1.7-1.42,2.17-1,5.38-4.07,9-6.91,3.42-3.21-.9.63-2.51,2.44-3.43,2,1.5-1,2.26-1.86,1.88-2.68C292.57,110.55,292.44,112.1,291.26,113.76ZM318.2,96.37a29.34,29.34,0,0,1,4-2.82l1.33-.81c.59-.35,1.19-.7,1.82-1L329,89.58c2.41-1.43,4.81-2.7,6.81-4,1-.62,1.89-1.25,2.69-1.82a13.82,13.82,0,0,0,2-1.55,17.17,17.17,0,0,0-2.83,1.47l-3.05,1.94c-2,1.26-3.85,2.27-4.93,2.29,3.61-2,4.21-2.54,3.09-2.19-.55.18-1.52.58-2.75,1.14s-2.67,1.34-4.2,2.15l-2.33,1.29-1.16.68-.88.55a21.34,21.34,0,0,0-2.64,1.91C317.37,94.72,316.85,95.82,318.2,96.37ZM122.48,134.66c-3.83,3.21-8.74,4-10.57,7.21,1-.27,4.4-2.47,7.23-4.35S124.26,134,122.48,134.66Zm63.15-14.23c.68.19,2.57.52,3.85.77s2,.29.44-.41a67.14,67.14,0,0,0-23.49-1.18c-.15-.77,0-1.76-2.27-1.21a129.41,129.41,0,0,0-13.83,3.83c-.86.27-2.68.89-4.79,1.68s-4.49,1.77-6.5,2.69c-1,.46-1.77.87-2.4,1.19a10.32,10.32,0,0,0-1.4.79c-.53.38-.29.39,1.34-.17a12.57,12.57,0,0,0,2.88-1c1.19-.5,2.47-1.09,3.67-1.55,2.4-.92,4.5-1.41,4.86-.18-1.34.52-5.27,1.87-8.86,3.6-3.28,1.55-6.11,3.37-6.74,4.72,1.28-.55,1.08.65.76,1.29q2.26-1,4.5-1.95c1.5-.63,2.9-1.22,4.61-1.89,3.28-1.33,6.5-2.43,9.61-3.4a90.24,90.24,0,0,1,18.19-3.79,64.35,64.35,0,0,1,17.84.67,57.53,57.53,0,0,1,17.75,6.57c.42-.45,1.5.11,2.47.56s1.86.82,2-.13a23.48,23.48,0,0,0-4.85-3.44l-2.66-1.55a12.84,12.84,0,0,1-2-1.46c.73-.33,2.42.54,4,1.42s3.17,1.88,3.87,1.58a34.48,34.48,0,0,0-8.65-4.8c-2.69-.88-4-.81-1.4,1.46a58.38,58.38,0,0,0-13.65-3.3c-4.39-.6-8.26-.83-10.92-1.72C178.28,120.07,182.57,120.56,185.63,120.43ZM90,167.32c1-1.66,3.77-3.49,2.67-4.87-2.1,2.31-3.35,1.56-5.25,3.1C88.73,167.54,91.11,163.93,90,167.32ZM419.82,97.81a4.44,4.44,0,0,1,2.22.06,16.33,16.33,0,0,1,1.89.88c1.21.55,2.36,1.18,3.57.16a29.06,29.06,0,0,0-4.22-1.44C421.71,97,420.3,97,419.82,97.81Zm-310.35,52.8c3-1.6,8.76-5.44,8.44-6.27C115.86,145.33,108.91,148.16,109.47,150.61Zm308-52.78a1.3,1.3,0,0,0-1.43.94c.82,0,1.51.14,2.14.12s1.12,0,1.53-.06c.79,0,1.19-.17,1.23-.29S419.64,98.07,417.49,97.83Zm-11.28.48a9.91,9.91,0,0,0,1,1.21,7.51,7.51,0,0,0,1.46.92,3.36,3.36,0,0,0,2.83.34c-.53-1.13-1.5-1.22-2.48-1.41-.5-.08-1.06-.11-1.54-.23A3.06,3.06,0,0,1,406.21,98.31Zm25.11,2.8c.31-.11.61-.24.42-.62-.69.07-.47-.45-.25-1a114.76,114.76,0,0,1-16.09,1.23c.9,1.52,4.29,2,7.72,1.52s6.7-1.5,7.55-1.5C430.11,101,430.38,101.52,431.32,101.11Zm-279.7,35.48a33.5,33.5,0,0,1-5.17,1.93c-.76.24-1.56.46-2.31.75a19.3,19.3,0,0,0-2.4,1.11,16.68,16.68,0,0,0,2.52-.29,34.75,34.75,0,0,0,3.41-.76C149.88,138.7,151.78,137.86,151.62,136.59Zm-15.21,10.68,5.49-2.55c2-.9,4-1.84,6.35-2.82A90.91,90.91,0,0,1,163,137a57,57,0,0,1,15.39-1.46,44,44,0,0,1,13.13,2.61A37.2,37.2,0,0,0,179,134.73a50.52,50.52,0,0,0-13.35.55,79.45,79.45,0,0,0-12.36,3.3c-1.93.67-3.76,1.38-5.5,2.07s-3.33,1.34-4.86,1.94c-.38-.75,1.88-1.22,1.76-2-1.44,1-5.1,1.84-4.85,3,2.71-.66,1.77,0,.22.91S136.3,146.77,136.41,147.27Zm25-6.43a73.86,73.86,0,0,0-14.86,4.28c-5.22,2.17-9.88,5.11-11.92,7.93,4.63-2.7,9.15-4.92,13.58-7S157.11,142.35,161.39,140.84Zm-38.72,22.41c-3.07,1-5.61,4.16-7.59,4.73C117.64,168.86,120.16,165.46,122.67,163.25Zm-18.41,22.24c1.93-2.31,5.85-2.69,5.24-5.06C108,181.05,104,184.31,104.26,185.49Zm48.38-34.77c.48,1.28,1.42.49.76,1.84a16.9,16.9,0,0,1,4.1-2.16,13.81,13.81,0,0,0,3.23-1.58c.84,1.26,3.08.58,5.91-.14s6.29-1.5,8.82-.91a2.68,2.68,0,0,0-1.87-1.39,6.93,6.93,0,0,0-2.53.16c-1.77.43-3.56,1.22-5,1,.5-.22,1.32-.25,1.31-.74A33,33,0,0,0,152.64,150.72Zm215.15-38.94a15,15,0,0,0-2.22,0,10.78,10.78,0,0,0-2.6.53c-.46.16-.58.27-.46.29s1.52-.11,3.05.07a9.75,9.75,0,0,1,1,.19c-.34.09-.69.19-1,.25-2.62.64-5.15,1-7.46,1.63s-4.41,1.53-5.66,3.28c2.6-1.58,1.73-.75.81.7a40.11,40.11,0,0,1,5.57-2.85,22.6,22.6,0,0,1,6.72-1.71c3.19-.22,6.14.57,8.54.77-1.93-1.27-5.5-3.32-2.62-.61A8.45,8.45,0,0,1,367.79,111.78Zm-30.93,17.95c3.26-2.73,4.61-3.81,4.34-3.85a38.13,38.13,0,0,0-5.2,2.62c-1,.66-1.28,1.33-1.2,2C335.53,130.1,336.42,129.31,336.86,129.73Zm-1.77,4.83a13.89,13.89,0,0,1,4.57-4.12c1-.67,2.19-1.29,3.4-1.92l1.85-.88.93-.43c.3-.12.5-.18.75-.27l-.81-1.27c-.53.2-1.71.79-2.84,1.35a36.43,36.43,0,0,0-3.54,2C337.13,130.6,335.22,132.45,335.09,134.56Zm27.27-18.2c-.55-.47-1.63-.13-2.73.46a32,32,0,0,1-3.12,1.74c-.25,0-4.83,2.37-5.35,3.76,2-.79,3.81-1.5,5.47-2.22a35.07,35.07,0,0,1,4.9-1.75c-.07-1.36-1.25-.86-2.46-.07s-2.39,1.75-2.89,1.06A33.84,33.84,0,0,1,362.36,116.36Zm62.77,19.2a7.23,7.23,0,0,1-3.37.44c-1.6-.1-3.5-.3-5.37-.56s-3.71-.62-5.13-.79-2.48-.22-2.81.2c0-.3-.06-.59-.85-.61a22.53,22.53,0,0,0,3.75,1.2c1.62.34,3.53.61,5.41.82a48.6,48.6,0,0,0,5.23,0A8.09,8.09,0,0,0,425.13,135.56Zm24-4.46c.61-.24,2.37-.84,3.56-1.38s1.87-1,.44-.73c-1.24.55-2.51,1-3.75,1.48l-1.9.71-1.92.63a11,11,0,0,0-3.95.65c-1.59.41-3.33,1-4.84,1.25a24.66,24.66,0,0,1-3.7,1.59,3.82,3.82,0,0,1-3.44-.3c1-.24,2.57-.3,2.63-.91A134.52,134.52,0,0,1,413,137.24a63.36,63.36,0,0,0,10.2-.08c1.5-.16,2.95-.3,4.36-.48l4.08-.73A131.22,131.22,0,0,0,449.16,131.1ZM168.6,163.57c.24-.64-1-.43-2.39-.08s-2.92.88-3.54.51c.19.8-1.14.68-1,1.42A36,36,0,0,1,168.6,163.57Zm-33.9,18.94c-2,3-4.35,1.37-5.83,4.7,3.18.31,8.16-5.14,10.35-7.52C137.13,182.59,131.06,182.1,134.7,182.51Zm8.27-4.28c-.91-1.5,3.3-2.69,3.32-4.1-2.12.49-6.92,2.6-8.21,5.16C140.71,177.54,139.74,181,143,178.23Zm17.54-9.67c-.32.18-.64.41-1,.57s-.7.32-1.13.5l-2.84,1.16c-1.87.8-3.62,1.61-4.53,2.72.66-.3,1.42-.93,1.81-.48-2.76,1.33-2.93,3.17-4,4.83,2.23-1.11,4.61-2.62,6.28-2.1-4.1,1.9-8.88,6.4-12.81,7.88,2.23-1.7,7.12-5,5.23-5.53-2.73,2.57-6.5,5.37-7.15,8.24A166.05,166.05,0,0,1,156,176.07l1.72-1c.56-.29,1.12-.6,1.66-.89l1.55-.77c.36-.17.72-.33,1.08-.53a42,42,0,0,1,4.46-1.81,24.14,24.14,0,0,1,9.8-1.31,21.08,21.08,0,0,1,5.21,1.16,26.57,26.57,0,0,1,5.15,2.66,10.93,10.93,0,0,0-6.57-4.44,34.3,34.3,0,0,0-4-.77,27.09,27.09,0,0,1-3.61-.61c1.57,0,3.06.26,4-.76a14.19,14.19,0,0,0-5.18-.15,17.27,17.27,0,0,1-4.72.2,18.67,18.67,0,0,0,3.62-.87,8.74,8.74,0,0,1,3.66-.47,3.74,3.74,0,0,0-2.42-1.31c-.68-.18-1.17-.38-1.39-1.57-2.38,1.73-5.17,2.25-8,3a31.53,31.53,0,0,0-4.16,1.3,17.26,17.26,0,0,0-2.22,1.14,10.86,10.86,0,0,0-1.87,1.43c.65-.28,1.29-.53,1.52.31a10.78,10.78,0,0,0-3.72.91,6.47,6.47,0,0,0-3.29,2.61c1.83-.81,3.95-1.89,6.17-2.89,1.11-.5,2.26-1,3.39-1.38a12,12,0,0,1,1.5-.46C159.64,168.73,160.08,168.63,160.51,168.56Zm162.07-14.94a16.74,16.74,0,0,0-5.91,4.27,15.44,15.44,0,0,1-5.12,3.92C316.11,161.15,321.93,153.87,322.58,153.62Zm29.65-20.76a5.69,5.69,0,0,0-1.3,1.12c-.13.13-.15.17-.37.38l-.57.52-1.14,1.06a15.85,15.85,0,0,1-4.53,3.26,42.28,42.28,0,0,0,6.29-3.55c.74-.49,1.52-1,2.23-1.43s1.2-.76,1.67-1c1.59-.87,3.27-1.78,5-2.76a16.06,16.06,0,0,1,5.89-2.17,10.47,10.47,0,0,1,6.08,1.53c1.84,1,3.49,2.32,5.2,3.45.42.28.88.58,1.26.81l.66.38,2,1.13c1.33.77,2.73,1.33,4.08,2a43.67,43.67,0,0,0,4.06,1.69c1.35.47,2.67.95,4,1.42s2.62.75,3.88,1.1c2.54.75,5,1.13,7.32,1.61-2.39-.63-4.84-1.16-7.39-2-1.26-.43-2.55-.81-3.86-1.3s-2.61-1.05-3.93-1.6-2.63-1.19-4-1.85-2.67-1.28-4-2.1L379,133.37l-.55-.4-1.26-1a58.14,58.14,0,0,0-5.34-4,10.54,10.54,0,0,0-6.41-1.75c-2.74.25-5.1,1.66-7.24,2.92Zm53.87,10.83c1.9.12,3.6.37,5.17.55l4.46.51a28.31,28.31,0,0,0,4.33.11q1.11,0,2.31-.21a23.47,23.47,0,0,0,2.41-.54c-1.14-.63-5.15-.81-9.19-.91-2-.11-4.07,0-5.77,0A9.71,9.71,0,0,0,406.1,143.69Zm-221.93,36c.84-.82-.25-1,.35-1.74a31.91,31.91,0,0,0-7.33-3.9,19,19,0,0,0-8.92-.69,24.76,24.76,0,0,0-4.43,1.11c-.35.14-.71.26-1.06.41s-.68.3-1,.43c-.5.25-1,.49-1.48.71s-1.06.56-1.59.83a60.89,60.89,0,0,0-11.91,8.54c1.74-.7,3.63-2.09,5.42-3s3.42-1.45,4.65-.61c-3.91,2.54-7.79,4.54-11.59,6.65-1.89,1-3.78,2.15-5.66,3.38-.94.61-1.87,1.27-2.8,2-.45.34-1,.74-1.47,1.15s-1,.85-1.51,1.29c.88-.63,1.94-1.83,2.54-1.45,1.08,1.4-3,3.27-1.67,4.65a18.64,18.64,0,0,0,2.8-2.43,3.61,3.61,0,0,1,1.27-.83.77.77,0,0,1,.94.45c-.26.95-1.6,2.13-3.07,3.26a41.23,41.23,0,0,0-4.22,3.43c2.59-1.74,5.46-3.76,8-5.58,2.38-1.67,4.76-3.39,7.19-5.09,4.68-3.26,9.2-6.24,13.25-8.52l1.49-.82,1.43-.75,1.21-.58c.23-.09.44-.18.66-.29a19.75,19.75,0,0,1,2.68-.92,9,9,0,0,1,5.15.1c1.07-1.19,3-.62,4.52.45.79.53,1.47,1.13,2.18,1.56a3.64,3.64,0,0,0,1,.51,2,2,0,0,0,.52.09,8.34,8.34,0,0,0,1.06.47c-.23-.24-.47-.51-.68-.71s-.2-.19-.29-.3a7.75,7.75,0,0,0-.62-.52c-.45-.32-.94-.63-1.4-.93a3.61,3.61,0,0,1-1.85-2.5c2-.39,3.23.78,4.15,1.76.25.25.45.51.69.73a12.19,12.19,0,0,0,1,.82c.31.25.63.48,1,.71l.25.17.41.34.92.7a41.9,41.9,0,0,0,3.84,2.55l-2.8-2.76c-.45-.46-.88-.9-1.3-1.35-.26-.26-.32-.34-.44-.46l-.3-.37c-.21-.24-.39-.47-.56-.7s-.39-.5-.36-.56A4.1,4.1,0,0,1,184.17,179.67Zm168.38-38.1c.41-.13.84-.3,1.28-.46.21-.09.44-.17.66-.28a2.57,2.57,0,0,1,.56-.2,5,5,0,0,0,1.25-.35,4.24,4.24,0,0,0,2.12-1.86c-.89.7-1.19,0-1.61,1-.29-.58,0-.82-.43-1.51a9.61,9.61,0,0,1-1.79,1.06,3,3,0,0,0-.37.28l-.52.53A6.45,6.45,0,0,0,352.55,141.57Zm6-4.37c.78-.19,2-.14,2.86-.25s1.4-.52.91-1.85a3.76,3.76,0,0,1,3.05-.58,2.46,2.46,0,0,0,2.58-.6,4.79,4.79,0,0,0-2.56-.82,6.84,6.84,0,0,0-3.93,1.47A20.66,20.66,0,0,0,358.57,137.2Zm30.22,9.66c-1.29-1.18-3.86-2.48-7-4.36l-2.49-1.39c-.87-.49-1.73-1.07-2.64-1.62l-.67-.43-.32-.19-.05-.06-.23-.22a7.65,7.65,0,0,0-.6-.49,28.45,28.45,0,0,0-5-3.38,27.78,27.78,0,0,0,3.92,4.32c.31.23.59.47.9.72l.18.14.08.07.06,0,.29.18c.8.47,1.59.95,2.42,1.43A113,113,0,0,0,388.79,146.86Zm-37.64-3.77c-.57-1.2-1.71-.86-3.09.25C348.65,144.53,349.75,144.15,351.15,143.09Zm94,4a154.61,154.61,0,0,0,18.59-6.28c1.51-.69,3-1.38,4.45-2.11s2.71-1.48,4-2.25a43,43,0,0,0,3.66-2.43,36.3,36.3,0,0,0,3.26-2.63c-2,1.25-4.05,2.41-6.07,3.54-1.06.54-2.1,1.09-3.14,1.63l-1.57.8-1.68.78-3.38,1.53c-1.14.49-2.29.92-3.43,1.37-2.28.94-4.62,1.69-7,2.47s-4.75,1.43-7.2,2.07-4.92,1.22-7.51,1.66a126.69,126.69,0,0,1-16.3,2.12c3,1.89,7.13,2,11.24,1.18S441.41,148.15,445.12,147.07Zm-191.26,64c.74-.22,2-.49,3.35-.78s2.84-.76,4.12-1.14c2.5-.93,4.11-1.73,2.09-1.85-.13.34-.77.64-1.67.93s-2.07.46-3.21.72C256.24,209.41,254,209.82,253.86,211.06Zm-85.07-29.48c.93-.71.63,1.87.55,2.46a3.35,3.35,0,0,1,1.91-.6,4.07,4.07,0,0,0,2-.58c-.37-.38-1-.27-1.62-.11a1.61,1.61,0,0,1-1.78-.35c.06-1.12.89-.57,1-1.67C170.29,180.93,168.26,180.67,168.79,181.58Zm-12.95,8.47c.86.41,2.47-.27,3.9-1.15a12,12,0,0,0,3.22-2.62C160.11,187.94,156.83,187.82,155.84,190.05Zm-9.34,6.82a16.13,16.13,0,0,0-3.95,2.4,9.47,9.47,0,0,0-1,.84,5.1,5.1,0,0,0-.69.79c-.3.47-.23.77.49.75.18-.28,3.1-2.63,5.2-4.27S149.85,194.75,146.5,196.87Zm29.92-13.42c-.42.11-.78-1.11-1.27,0C175.09,184.34,175.8,184.34,176.42,183.45Zm-8.2-.14c.07.64-.55.79-1.07,1s-.9.28-.29.62a2.37,2.37,0,0,1,1.25-.43,1.09,1.09,0,0,0,1-.88C168.78,183.88,168.59,182.76,168.22,183.31Zm193.09-38.38c-.32.54-1.54.18-1.21,1.32C360.39,145.7,361.5,146.14,361.31,144.93Zm-4.52,5.24c-1.49,1.33-5.06,2.61-5.15,4C353.1,152.85,356.66,151.6,356.79,150.17ZM256.17,220.79l.19,1.5c3.06-1,7.18-2.13,11.17-3.54s7.76-3.25,10.13-5.17c-1.91.87-3.91,1.61-5.87,2.38l-3,1-1.44.5-1.45.43-2.76.85c-.91.23-1.76.48-2.6.71C258.9,220,257.39,220.33,256.17,220.79Zm58.88-38.16a44.58,44.58,0,0,1-4.32,4.16c-.68.6-1.32,1.19-1.93,1.79s-1,1-1.51,1.52-1.12,1.21-1.67,1.83a8.77,8.77,0,0,0,1.83-1l1.13-.79.61-.46.33-.21a15.68,15.68,0,0,0,2.49-2.15C313.62,185.71,314.91,183.81,315.05,182.63Zm199.49-62.82c4-3.94,8.12-7.94,10.34-11.35-2-.21-4.11,1.81-6,4.36-.93,1.26-1.82,2.62-2.59,3.88S514.93,119.05,514.54,119.81ZM445.11,85.93c.27-.71-1-1,1.27-2a1.51,1.51,0,0,1-.34,1.43c.4.46,1.07-.2,1.66-.5.16,1.29-2.82,2.06-3.92,3.05,1.62-1.84-.42-1.23-1.9-.71-.75.27-1.35.55-1.32.52l.54-.22,1.9-.88C443.13,86.59,444,85,445.11,85.93ZM59.45,219.54a22.89,22.89,0,0,0-3.62,4.74C54,225.08,58.13,218.6,59.45,219.54Zm89-59c-.07,0,1.17-.25.25.44a42.63,42.63,0,0,1-6.41,3.8c-1.44.68-1.51.32,2.09-1.91A25.2,25.2,0,0,1,148.44,160.58ZM71.87,259.42c-.19-.25.31-1,.91-2a17.85,17.85,0,0,0,1.63-3C75.76,255.61,72.84,258.12,71.87,259.42Zm18.44-51.23c2.63-1-.67,2.21-1.77,3.14.7.84,1.89-1.58,2.84-2.09,0,.61,0,1.2.73.7-1.38.81-6.13,6.9-7.26,3.66-.49.35-.32.6-.11.83C83.47,212.58,88.29,212.32,90.31,208.19Z"/></clipPath><linearGradient id="Dégradé_sans_nom_2" x1="11.3" y1="1077.02" x2="285.99" y2="1077.02" gradientTransform="matrix(1.81, -0.53, -0.52, -1.75, 555.33, 2106.05)" gradientUnits="userSpaceOnUse"><stop offset="0" stop-color="#aeb4dc"/><stop offset="0" stop-color="#aeb2db"/><stop offset="0.01" stop-color="#afb1da"/><stop offset="0.01" stop-color="#afb0d9"/><stop offset="0.02" stop-color="#afafd8"/><stop offset="0.02" stop-color="#b0aed7"/><stop offset="0.02" stop-color="#afacd6"/><stop offset="0.03" stop-color="#b0acd6"/><stop offset="0.03" stop-color="#b1acd6"/><stop offset="0.04" stop-color="#b0a9d4"/><stop offset="0.04" stop-color="#b1a8d3"/><stop offset="0.04" stop-color="#b0a7d3"/><stop offset="0.05" stop-color="#b1a6d2"/><stop offset="0.05" stop-color="#b1a6d1"/><stop offset="0.05" stop-color="#b1a4d0"/><stop offset="0.06" stop-color="#b1a3d0"/><stop offset="0.06" stop-color="#b0a2cf"/><stop offset="0.07" stop-color="#b0a1ce"/><stop offset="0.07" stop-color="#b19fcd"/><stop offset="0.07" stop-color="#b09ecd"/><stop offset="0.08" stop-color="#b09dcc"/><stop offset="0.08" stop-color="#b09ccb"/><stop offset="0.09" stop-color="#b09bca"/><stop offset="0.09" stop-color="#b099c9"/><stop offset="0.09" stop-color="#b099c9"/><stop offset="0.1" stop-color="#b098c8"/><stop offset="0.1" stop-color="#b096c7"/><stop offset="0.11" stop-color="#b095c6"/><stop offset="0.11" stop-color="#b195c6"/><stop offset="0.11" stop-color="#b194c5"/><stop offset="0.12" stop-color="#b193c5"/><stop offset="0.12" stop-color="#b193c4"/><stop offset="0.13" stop-color="#b190c2"/><stop offset="0.13" stop-color="#b18fc2"/><stop offset="0.13" stop-color="#b18fc1"/><stop offset="0.14" stop-color="#b18dc0"/><stop offset="0.14" stop-color="#b18dc0"/><stop offset="0.14" stop-color="#b18cbf"/><stop offset="0.15" stop-color="#b18abe"/><stop offset="0.15" stop-color="#b189bd"/><stop offset="0.16" stop-color="#b188bd"/><stop offset="0.16" stop-color="#b287bc"/><stop offset="0.16" stop-color="#b287bc"/><stop offset="0.17" stop-color="#b285ba"/><stop offset="0.17" stop-color="#b284ba"/><stop offset="0.18" stop-color="#b283b9"/><stop offset="0.18" stop-color="#b382b8"/><stop offset="0.18" stop-color="#b382b8"/><stop offset="0.19" stop-color="#b381b8"/><stop offset="0.19" stop-color="#b380b7"/><stop offset="0.2" stop-color="#b47eb6"/><stop offset="0.2" stop-color="#b47eb6"/><stop offset="0.2" stop-color="#b47eb5"/><stop offset="0.21" stop-color="#b47db5"/><stop offset="0.21" stop-color="#b37ab3"/><stop offset="0.21" stop-color="#b47ab3"/><stop offset="0.22" stop-color="#b479b2"/><stop offset="0.22" stop-color="#b478b1"/><stop offset="0.23" stop-color="#b577b1"/><stop offset="0.23" stop-color="#b476b0"/><stop offset="0.23" stop-color="#b474af"/><stop offset="0.24" stop-color="#b574ae"/><stop offset="0.24" stop-color="#b473ae"/><stop offset="0.25" stop-color="#b572ad"/><stop offset="0.25" stop-color="#b472ad"/><stop offset="0.25" stop-color="#b56fac"/><stop offset="0.26" stop-color="#b66fab"/><stop offset="0.26" stop-color="#b66eab"/><stop offset="0.27" stop-color="#b66caa"/><stop offset="0.27" stop-color="#b66ba9"/><stop offset="0.27" stop-color="#b76ca9"/><stop offset="0.28" stop-color="#b76aa8"/><stop offset="0.28" stop-color="#b669a7"/><stop offset="0.29" stop-color="#b868a7"/><stop offset="0.29" stop-color="#b867a6"/><stop offset="0.29" stop-color="#b867a6"/><stop offset="0.3" stop-color="#b966a5"/><stop offset="0.3" stop-color="#b964a4"/><stop offset="0.3" stop-color="#b963a4"/><stop offset="0.31" stop-color="#b962a3"/><stop offset="0.31" stop-color="#ba63a3"/><stop offset="0.32" stop-color="#ba62a3"/><stop offset="0.32" stop-color="#ba60a2"/><stop offset="0.32" stop-color="#ba60a2"/><stop offset="0.33" stop-color="#ba5fa1"/><stop offset="0.33" stop-color="#bc5ea0"/><stop offset="0.34" stop-color="#bc5da0"/><stop offset="0.34" stop-color="#bc5da0"/><stop offset="0.34" stop-color="#bc5c9f"/><stop offset="0.35" stop-color="#bc5b9e"/><stop offset="0.35" stop-color="#be599d"/><stop offset="0.36" stop-color="#be599d"/><stop offset="0.36" stop-color="#be589d"/><stop offset="0.36" stop-color="#bf579c"/><stop offset="0.37" stop-color="#bf569c"/><stop offset="0.37" stop-color="#bf559b"/><stop offset="0.38" stop-color="#c1559b"/><stop offset="0.38" stop-color="#c1559b"/><stop offset="0.38" stop-color="#c2549a"/><stop offset="0.39" stop-color="#c1539a"/><stop offset="0.39" stop-color="#c2539a"/><stop offset="0.39" stop-color="#c45299"/><stop offset="0.4" stop-color="#c35299"/><stop offset="0.4" stop-color="#c55098"/><stop offset="0.41" stop-color="#c55098"/><stop offset="0.41" stop-color="#c54f97"/><stop offset="0.41" stop-color="#c74e97"/><stop offset="0.42" stop-color="#c74e97"/><stop offset="0.42" stop-color="#c84d96"/><stop offset="0.43" stop-color="#c84c96"/><stop offset="0.43" stop-color="#c84c96"/><stop offset="0.43" stop-color="#ca4b95"/><stop offset="0.44" stop-color="#cb4b95"/><stop offset="0.44" stop-color="#cc4a95"/><stop offset="0.45" stop-color="#cd4a95"/><stop offset="0.45" stop-color="#ce4994"/><stop offset="0.45" stop-color="#ce4994"/><stop offset="0.46" stop-color="#cf4894"/><stop offset="0.46" stop-color="#d04894"/><stop offset="0.46" stop-color="#d04793"/><stop offset="0.47" stop-color="#d24793"/><stop offset="0.47" stop-color="#d34692"/><stop offset="0.48" stop-color="#d44592"/><stop offset="0.48" stop-color="#d64592"/><stop offset="0.48" stop-color="#d54592"/><stop offset="0.49" stop-color="#d64491"/><stop offset="0.49" stop-color="#d84491"/><stop offset="0.5" stop-color="#d84391"/><stop offset="0.5" stop-color="#d94190"/><stop offset="0.5" stop-color="#d94190"/><stop offset="0.51" stop-color="#db4190"/><stop offset="0.51" stop-color="#dc4090"/><stop offset="0.52" stop-color="#dd4090"/><stop offset="0.52" stop-color="#de4090"/><stop offset="0.52" stop-color="#de4090"/><stop offset="0.53" stop-color="#df4090"/><stop offset="0.53" stop-color="#df4090"/><stop offset="0.54" stop-color="#e1408f"/><stop offset="0.54" stop-color="#e2408f"/><stop offset="0.54" stop-color="#e2408f"/><stop offset="0.55" stop-color="#e4408f"/><stop offset="0.55" stop-color="#e44190"/><stop offset="0.55" stop-color="#e64190"/><stop offset="0.56" stop-color="#e64290"/><stop offset="0.56" stop-color="#e74190"/><stop offset="0.57" stop-color="#e74290"/><stop offset="0.57" stop-color="#e94491"/><stop offset="0.57" stop-color="#e94391"/><stop offset="0.58" stop-color="#e94391"/><stop offset="0.58" stop-color="#e94591"/><stop offset="0.59" stop-color="#e94692"/><stop offset="0.59" stop-color="#e94692"/><stop offset="0.59" stop-color="#e94793"/><stop offset="0.6" stop-color="#e94793"/><stop offset="0.6" stop-color="#e94793"/><stop offset="0.61" stop-color="#ea4993"/><stop offset="0.61" stop-color="#ea4993"/><stop offset="0.61" stop-color="#ea4b94"/><stop offset="0.62" stop-color="#ea4c95"/><stop offset="0.62" stop-color="#ea4c95"/><stop offset="0.63" stop-color="#ea4e95"/><stop offset="0.63" stop-color="#ea4f95"/><stop offset="0.63" stop-color="#ea5095"/><stop offset="0.64" stop-color="#ea5194"/><stop offset="0.64" stop-color="#ea5393"/><stop offset="0.64" stop-color="#ea5493"/><stop offset="0.65" stop-color="#eb5793"/><stop offset="0.65" stop-color="#eb5792"/><stop offset="0.66" stop-color="#eb5a93"/><stop offset="0.66" stop-color="#eb5c92"/><stop offset="0.66" stop-color="#eb5c92"/><stop offset="0.67" stop-color="#eb5d91"/><stop offset="0.67" stop-color="#eb5e90"/><stop offset="0.68" stop-color="#ec5f90"/><stop offset="0.68" stop-color="#ec6290"/><stop offset="0.68" stop-color="#ec638f"/><stop offset="0.69" stop-color="#ec648e"/><stop offset="0.69" stop-color="#ec668f"/><stop offset="0.7" stop-color="#ed678d"/><stop offset="0.7" stop-color="#ed698e"/><stop offset="0.7" stop-color="#ed6b8d"/><stop offset="0.71" stop-color="#ed6c8d"/><stop offset="0.71" stop-color="#ed6e8c"/><stop offset="0.71" stop-color="#ee708b"/><stop offset="0.72" stop-color="#ee708b"/><stop offset="0.72" stop-color="#ee738a"/><stop offset="0.73" stop-color="#ee758a"/><stop offset="0.73" stop-color="#ee7689"/><stop offset="0.73" stop-color="#ee7889"/><stop offset="0.74" stop-color="#ef7987"/><stop offset="0.74" stop-color="#ef7b88"/><stop offset="0.75" stop-color="#ef7c87"/><stop offset="0.75" stop-color="#ef7d86"/><stop offset="0.75" stop-color="#ef7e85"/><stop offset="0.76" stop-color="#f08085"/><stop offset="0.76" stop-color="#f08285"/><stop offset="0.77" stop-color="#f08384"/><stop offset="0.77" stop-color="#f08584"/><stop offset="0.77" stop-color="#f08683"/><stop offset="0.78" stop-color="#f18983"/><stop offset="0.78" stop-color="#f18b83"/><stop offset="0.79" stop-color="#f18c82"/><stop offset="0.79" stop-color="#f28e81"/><stop offset="0.79" stop-color="#f28f81"/><stop offset="0.8" stop-color="#f29081"/><stop offset="0.8" stop-color="#f29380"/><stop offset="0.8" stop-color="#f2947f"/><stop offset="0.81" stop-color="#f3957e"/><stop offset="0.81" stop-color="#f3977f"/><stop offset="0.82" stop-color="#f3997e"/><stop offset="0.82" stop-color="#f49b7d"/><stop offset="0.82" stop-color="#f49d7d"/><stop offset="0.83" stop-color="#f49f7c"/><stop offset="0.83" stop-color="#f4a07c"/><stop offset="0.84" stop-color="#f5a27b"/><stop offset="0.84" stop-color="#f5a27a"/><stop offset="0.84" stop-color="#f5a57a"/><stop offset="0.85" stop-color="#f5a77a"/><stop offset="0.85" stop-color="#f6a879"/><stop offset="0.86" stop-color="#f6a978"/><stop offset="0.86" stop-color="#f6ac78"/><stop offset="0.86" stop-color="#f7ad78"/><stop offset="0.87" stop-color="#f7b078"/><stop offset="0.87" stop-color="#f8b276"/><stop offset="0.88" stop-color="#f8b276"/><stop offset="0.88" stop-color="#f8b575"/><stop offset="0.88" stop-color="#f9b675"/><stop offset="0.89" stop-color="#f9b774"/><stop offset="0.89" stop-color="#f9ba73"/><stop offset="0.89" stop-color="#fabb72"/><stop offset="0.9" stop-color="#fabc71"/><stop offset="0.9" stop-color="#fabe71"/><stop offset="0.91" stop-color="#fbc06f"/><stop offset="0.91" stop-color="#fbc170"/><stop offset="0.91" stop-color="#fbc36f"/><stop offset="0.92" stop-color="#fcc570"/><stop offset="0.92" stop-color="#fcc770"/><stop offset="0.93" stop-color="#fcc96e"/><stop offset="0.93" stop-color="#fdca6f"/><stop offset="0.93" stop-color="#fdcc6c"/><stop offset="0.94" stop-color="#fece6d"/><stop offset="0.94" stop-color="#fecf6b"/><stop offset="0.95" stop-color="#fed26b"/><stop offset="0.95" stop-color="#ffd46b"/><stop offset="0.95" stop-color="#ffd46b"/><stop offset="0.96" stop-color="#ffd769"/><stop offset="0.96" stop-color="#ffd868"/><stop offset="0.96" stop-color="#fed968"/><stop offset="0.97" stop-color="#fedb66"/><stop offset="0.97" stop-color="#fedd67"/><stop offset="0.98" stop-color="#fede67"/><stop offset="0.98" stop-color="#fee066"/><stop offset="0.98" stop-color="#fee165"/><stop offset="0.99" stop-color="#fee364"/><stop offset="0.99" stop-color="#ffe663"/><stop offset="1" stop-color="#ffe762"/><stop offset="1" stop-color="#ffe963"/></linearGradient><radialGradient id="radial-gradient" cx="1848.96" cy="-1175.57" r="18.25" gradientTransform="matrix(0.39, 0.16, -0.18, 0.35, -600.94, 196.9)" gradientUnits="userSpaceOnUse"><stop offset="0" stop-color="#f0807a"/><stop offset="1" stop-color="#f4a395"/></radialGradient></defs><g id="Calque_2" data-name="Calque 2"><g id="Calque_1-2" data-name="Calque 1"><g class="cls-2"><g class="cls-3"><path class="cls-4" d="M.05,146.61,41.66,287.79,538.52,141.35,496.91.17Z" transform="translate(-0.05 -0.17)"/></g></g><path class="cls-5" d="M359.37,174.75c-32.89,7.61-87.65,5.65-105.63,17.26-15.78,10.2-9.61,19.82-.61,22.79s73.78-11.62,102.6-27.24S359.37,174.75,359.37,174.75Z" transform="translate(-0.05 -0.17)"/><path class="cls-5" d="M376.76,173.8h0a2.86,2.86,0,0,0,2.47,3.36l20.7,3.73a3.22,3.22,0,0,0,3.78-2.21h0a2.87,2.87,0,0,0-2.48-3.37l-20.69-3.73A3.23,3.23,0,0,0,376.76,173.8Z" transform="translate(-0.05 -0.17)"/><path class="cls-5" d="M354.14,173.5l-1.28,1.11-.32,18.59h0a30.53,30.53,0,0,0,7.49,1.31h.43l15.34.2h.09a2.89,2.89,0,0,0,3.07-2.65h0a2.88,2.88,0,0,0-3-2.73h.17a.24.24,0,0,1-.25-.23h0a.23.23,0,0,1,.26-.22l2.07,0a2.86,2.86,0,0,0,3.07-2.74,2.93,2.93,0,0,0-3.05-2.64h-.52a.25.25,0,0,1-.25-.23h0a.25.25,0,0,1,.26-.23l1.49,0a2.87,2.87,0,0,0,3.06-2.65h0a2.86,2.86,0,0,0-3-2.73l-2.06,0a.28.28,0,0,1-.27-.2.25.25,0,0,1,.26-.26H378a2.89,2.89,0,0,0,3.07-2.65h0a2.87,2.87,0,0,0-3-2.73l-12.35-.17-8.63.61A5,5,0,0,0,354.14,173.5Z" transform="translate(-0.05 -0.17)"/><path class="cls-5" d="M317.87,191.53l32.47-14.38c.19-.17,3.66-3.51,3.92-3.72a5,5,0,0,1,2.86-1.11l8.95-.61c.88,5.45-6.26,8.48-7,11.6,5.54.07,7.72,10.7,1.42,11.22H360a30.53,30.53,0,0,1-7.49-1.31Z" transform="translate(-0.05 -0.17)"/><path class="cls-5" d="M364.16,168.12h0a2.61,2.61,0,0,1,.16,4l-5,4.72a3.47,3.47,0,0,1-4.49.14h0a2.62,2.62,0,0,1-.16-4l5-4.71A3.47,3.47,0,0,1,364.16,168.12Z" transform="translate(-0.05 -0.17)"/><path class="cls-5" d="M379.63,191.65h0a3,3,0,0,1-3.14,2.69l-6.38-.12a2.91,2.91,0,0,1-3-2.8h0a2.94,2.94,0,0,1,3.14-2.69l6.37.12A2.92,2.92,0,0,1,379.63,191.65Z" transform="translate(-0.05 -0.17)"/><path class="cls-5" d="M384.65,180.39h0a3.32,3.32,0,0,1-3.54,3l-12.69-.11a3.26,3.26,0,0,1-3.39-3.14h0a3.3,3.3,0,0,1,3.53-3l12.69.1A3.27,3.27,0,0,1,384.65,180.39Z" transform="translate(-0.05 -0.17)"/><path class="cls-5" d="M383.34,185.42h0a2.9,2.9,0,0,1-2.7,3.2l-11.31,1.57a3.13,3.13,0,0,1-3.59-2.4h0a2.89,2.89,0,0,1,2.69-3.2L379.74,183A3.15,3.15,0,0,1,383.34,185.42Z" transform="translate(-0.05 -0.17)"/><path class="cls-5" d="M383.74,174.55h0a3.11,3.11,0,0,1-3.33,2.85l-10.54-.19a3.08,3.08,0,0,1-3.2-3h0a3.12,3.12,0,0,1,3.33-2.85l10.54.19A3.08,3.08,0,0,1,383.74,174.55Z" transform="translate(-0.05 -0.17)"/><path class="cls-5" d="M374.46,170.3h0a3.35,3.35,0,0,1-3.53,3.12l-8.05-.07a3.33,3.33,0,0,1-3.5-3.14h0a3.35,3.35,0,0,1,3.53-3.12l8,.07A3.33,3.33,0,0,1,374.46,170.3Z" transform="translate(-0.05 -0.17)"/><path class="cls-5" d="M368.86,167.83a4.29,4.29,0,0,1,5.78,1.09,25.36,25.36,0,0,0,2.26,3l2.83,3.16a1.75,1.75,0,0,1-.23,2.66,5.31,5.31,0,0,1-6.66-.68l-4.16-3.53a3.34,3.34,0,0,1,.18-5.65Z" transform="translate(-0.05 -0.17)"/><path class="cls-5" d="M422,180.15h0a2.74,2.74,0,0,1-3.42-1.22l-6.14-12.86a2.23,2.23,0,0,1,1.38-3h0a2.74,2.74,0,0,1,3.41,1.22l6.15,12.85A2.25,2.25,0,0,1,422,180.15Z" transform="translate(-0.05 -0.17)"/><path class="cls-5" d="M421.52,177.71h0a2.46,2.46,0,0,1-2.54-2.37l.37-14A2.51,2.51,0,0,1,422,159.1h0a2.46,2.46,0,0,1,2.55,2.36l-.38,14A2.5,2.5,0,0,1,421.52,177.71Z" transform="translate(-0.05 -0.17)"/><path class="cls-5" d="M406,201.13,420.33,187a5.84,5.84,0,0,0,1.21-1.69l10.93-23a1,1,0,0,0-.75-1.4h0a5,5,0,0,0-5.39,2l-9,14.22a11.63,11.63,0,0,1-4.83,4.22L404.84,185s-13.13,1.45-11,11.58c1.31,6.36,6,6.68,8.79,6.23A6.16,6.16,0,0,0,406,201.13Z" transform="translate(-0.05 -0.17)"/><path class="cls-6" d="M391.67,190.88h0L433.21,150h0a4.08,4.08,0,0,1,.35,6.23l-34.9,34.37A5.39,5.39,0,0,1,391.67,190.88Z" transform="translate(-0.05 -0.17)"/><path class="cls-5" d="M401.5,197.1h0c-3.62,1-7.31-1.25-7.68-4.59l-.07-.6a5.19,5.19,0,0,1,2.68-5l5-3.8a8.36,8.36,0,0,0,3-5.23l.54-2.68c.53-2.8,3.89-5.58,6.11-4.93h0a1.71,1.71,0,0,1,1.24,2.2l-6.72,21A5.72,5.72,0,0,1,401.5,197.1Z" transform="translate(-0.05 -0.17)"/><path class="cls-7" d="M281,247.51c27.21.08,31.19,26.88,37.44,59.27,8.95,46.41,15.25,101.94,13.91,116.67-1.29,14.24-25.43,35.21-46.22-3.84-25.25-47.42-46.83-125.93-29.42-152.86S281,247.51,281,247.51" transform="translate(-0.05 -0.17)"/><path class="cls-8" d="M244.69,241.31c-16.53,24-30.93,34.11-30.1,52.76,1,22.3,17.07,25.38,24,32.68,7.78,8.15,22.16,2.28,21-20.57S244.69,241.31,244.69,241.31Z" transform="translate(-0.05 -0.17)"/><polygon class="cls-5" points="256.98 503.55 208.22 538.8 202.25 558.9 185.81 529.99 199.79 527.13 244.84 482.32 256.98 503.55"/><path class="cls-8" d="M174.59,532.84l20.48-5.25s-4.69,3-.64,10.92c4.18,8.13,10.8,7.12,10.9,8s6.56,38.44,6.56,38.44l-7.51,6L175,542.35Z" transform="translate(-0.05 -0.17)"/><polygon class="cls-6" points="170.06 534.49 205.21 603 209.69 601.18 174.54 532.67 170.06 534.49"/><path class="cls-6" d="M209.74,601.35c10.09-4.11,2.15-16.44,2.15-16.44l-10.25.64Z" transform="translate(-0.05 -0.17)"/><polygon class="cls-6" points="210.14 570.2 205.38 570.76 205.22 568.5 209.84 568.47 210.14 570.2"/><polygon class="cls-6" points="209.18 563.69 204.41 564.25 204.26 561.99 208.88 561.96 209.18 563.69"/><polygon class="cls-6" points="208.22 557.18 203.46 557.74 203.3 555.47 207.92 555.45 208.22 557.18"/><polygon class="cls-6" points="207.26 550.67 202.5 551.23 202.34 548.96 206.96 548.94 207.26 550.67"/><path class="cls-7" d="M299.48,410.74c-42.62,37.52-103.41,115.57-103.41,115.57L225,547.79S319,447.08,328.54,434.09C341.81,416.08,312.44,399.34,299.48,410.74Z" transform="translate(-0.05 -0.17)"/><path class="cls-8" d="M236.55,256.59c8.13-9.52,29.95-12.2,35.84-3.58,28.63,41.85,3.5,146.93,1.83,167.69-2,25-25.41,47.39-43.35-2.6S215.44,281.33,236.55,256.59Z" transform="translate(-0.05 -0.17)"/><path class="cls-9" d="M331.91,114.87c4.2,7.81,3.92,25.41,1.19,52.17-1.75,17.15-14.3,42.34-16.05,66.72-.54,7.55-7.54,8.56-7.84,11.09-.56,4.64,10,3.58,5.82,10.5s.62,15.46,2.41,23.21c.57,2.44-8,7.91-17.22,4.56-6.76-2.44-17.67-14.17-27.41-14.91-10.55-.81-36.91,7.87-46.44,9.11-11.94,1.56-8.7-4.85-7.46-7.2,13.62-25.82,28.57-133.26,28.57-133.26,9.71-36.84,45.77-48.11,63.84-35.92C315.49,103.75,326.78,105.34,331.91,114.87Z" transform="translate(-0.05 -0.17)"/><path class="cls-5" d="M291,97.49c-14.64,5.44-11.47,9.47-.62,12.53,9.89,2.78,18.51,13.64,23.93,19.22,5.78,5.94,10.25-19.43.75-24.46S291,97.49,291,97.49Z" transform="translate(-0.05 -0.17)"/><polygon class="cls-5" points="248.78 520.05 240.78 576.7 258.16 588.11 221.79 589.46 224.65 576.95 226.2 517.15 248.78 520.05"/><path class="cls-8" d="M219.91,599.87,223,581.1s1.14,5,10.9,5c10.05,0,11.76-5.8,12.66-5.54s42,10.61,42,10.61l3,8.57-61.8,3.68Z" transform="translate(-0.05 -0.17)"/><rect class="cls-6" x="219.91" y="599.82" width="84.6" height="4.39" transform="translate(525.12 1203.52) rotate(179.93)"/><path class="cls-6" d="M304.51,599.76c0-9.88-15.91-8.55-15.91-8.55L285,599.79Z" transform="translate(-0.05 -0.17)"/><polygon class="cls-6" points="272.98 586.4 271.58 590.49 269.2 589.68 271.09 585.93 272.98 586.4"/><polygon class="cls-6" points="265.93 584.48 264.52 588.58 262.14 587.76 264.03 584.01 265.93 584.48"/><polygon class="cls-6" points="258.87 582.56 257.47 586.66 255.09 585.84 256.97 582.09 258.87 582.56"/><polygon class="cls-6" points="251.81 580.64 250.41 584.74 248.03 583.92 249.92 580.17 251.81 580.64"/><path class="cls-8" d="M261.1,416.72c-15.09-6.41-28.55,5-31.85,15.09C212.49,483,218,583.29,218,583.29l36.07-3.54s16.79-128.53,16.36-144.07S261.1,416.72,261.1,416.72Z" transform="translate(-0.05 -0.17)"/><path class="cls-5" d="M344.52,51.5l-25.33-6.23L286.26,99.51s.07,8.69,13,14.15,19.1-2.74,19.1-2.74Z" transform="translate(-0.05 -0.17)"/><path class="cls-8" d="M205.26,146.23c2-6.48,8.8-5.73,8.8-5.73s-3.22-3.91-7.28-2.71a17.38,17.38,0,0,0-11.26,8.93C194.1,149.29,205.26,146.23,205.26,146.23Z" transform="translate(-0.05 -0.17)"/><path class="cls-10" d="M229.3,155.12c15.57-26.52,31.82-42.8,44.52-41.75s24,9.2,24.55,17.34-9.82,36-6.09,40.24,8.46,8.89,10.83,3.16,6.88-22.36,3.05-37.37c-4.57-17.94-17.1-28.34-36.06-27.28s-54.52,38.43-54.52,38.43Z" transform="translate(-0.05 -0.17)"/><path class="cls-11" d="M194.25,145.78c10.84-15.37,23.87-7.39,29.12,1.2s-11.85-1-11.85-1-1.86-8.29-8-5.73-6.09,5.43-6.09,5.43Z" transform="translate(-0.05 -0.17)"/><polygon class="cls-10" points="297.48 166.86 255.49 270.4 262.43 277.49 301.2 170.93 297.48 166.86"/><path class="cls-10" d="M231.47,151c10.6,7.81,40.35,117.36,36.23,127.07s-44.24,11.13-48.21,11.78-37.8-3.41-43.43-11.14-17.47-73.95-17.47-73.95-7-35.34-4.24-40.85,26.87-13.61,29.22-14.31a6.61,6.61,0,0,1,4.1,0,7,7,0,0,1,3.29-3.35C195,144.65,223.43,145.05,231.47,151Z" transform="translate(-0.05 -0.17)"/><path class="cls-9" d="M194.71,263.21c20.26-27.06-15.2-63.14,0-94.71,4.7-8.38,22.52-12.87,37.21-17.08a6.1,6.1,0,0,0-.45-.44c-8-5.93-36.47-6.33-40.51-4.75a7,7,0,0,0-3.29,3.35,6.61,6.61,0,0,0-4.1,0c-2.35.7-26.48,8.8-29.22,14.31s4.24,40.85,4.24,40.85,11.83,66.21,17.47,73.95a9.29,9.29,0,0,0,2.14,1.93A61.82,61.82,0,0,0,194.71,263.21Z" transform="translate(-0.05 -0.17)"/><path class="cls-12" d="M243.17,287.43l-2.87.2c3.12-2.82-.3-21-5-39.16-1.83-7.05-3.72-14.35-5.51-22-2.55-10.87-4.11-21.75-5.49-31.36-2.77-19.34-5.06-34.49-13.11-39.74a37.14,37.14,0,0,0-23.53-5.82c4.52-1.78,16.24-1.93,25.2,3.72,9.19,5.78,11.44,21.55,14.31,41.51,1.37,9.56,2.92,20.4,5.45,31.16,1.78,7.6,3.67,14.88,5.49,21.92C244.36,272,247.2,283.77,243.17,287.43Z" transform="translate(-0.05 -0.17)"/><path class="cls-12" d="M242.7,270.4l-.46-2.54c5.45-.78,19.68-2.54,23.62-9.53l.45,2.47C262.77,267.79,244.86,270.09,242.7,270.4Z" transform="translate(-0.05 -0.17)"/><path class="cls-12" d="M187.87,209.85c-4.59,0-11.59-1.12-22.55-2.88,0,0-4-.63-5.06-.81s-1.11-2.86.5-2.53,5.08.81,5.08.81c14.82,2.37,22.72,3.71,25.94,2.24s2.89,1.4,1.39,2.26S190.18,209.85,187.87,209.85Z" transform="translate(-0.05 -0.17)"/><path class="cls-12" d="M221.45,289.63a155.06,155.06,0,0,1-7.11-17.22c-3.19-9.38-17.48-69.78-19.32-82.5a82.35,82.35,0,0,1,.09-23.6c3.84,19.9,18.85,96.11,22,105.36s6,17.76,6,17.76Z" transform="translate(-0.05 -0.17)"/><path class="cls-12" d="M206.75,208.64a17.15,17.15,0,0,1-5.32-.88l1.2-2.26c7.24,2.23,18.88-3.12,22.75-5.38l2.12,2.49C227,202.93,216.81,208.64,206.75,208.64Z" transform="translate(-0.05 -0.17)"/><path class="cls-11" d="M190,208.86l-.36,13.45s-.09,1.05,1.81,1a2.44,2.44,0,0,0,2.35-1.29l-2.53-13.05Z" transform="translate(-0.05 -0.17)"/><path class="cls-5" d="M402.36,192.2c-32.67,8.33-88.39,10.65-105.11,19.59s-9.06,20,0,22.8,73.43-13.25,101.81-29.51S402.36,192.2,402.36,192.2Z" transform="translate(-0.05 -0.17)"/><path class="cls-5" d="M297,237c13-2.73,16.18-19.36,11.28-42.91s3.77-45.11-9.59-67-50.39-18.22-46.62,8.6,20.09,78.09,29.48,91.93S297,237,297,237Z" transform="translate(-0.05 -0.17)"/><path class="cls-13" d="M308.38,170.25c.18-14.95.49-29.43-8.43-44.08-14.23-23.37-53.67-19.41-49.66,9.16-2.11,10.11,5.82,29.65,9.37,42.56Z" transform="translate(-0.05 -0.17)"/><ellipse class="cls-14" cx="363.54" cy="56.95" rx="8.41" ry="7.49"/><ellipse class="cls-5" cx="333.37" cy="59.92" rx="32.67" ry="29.09"/><path class="cls-5" d="M361.31,87.73l-.61-12.38c1.52-2.93.39-6.38,1.05-7.66,6.32-12.22,1.13-19.09-12.6-24.72s-26.69-5.8-33,6.42c-1.55,3,6.55,14.26,5,17.25-3.84,7.42-10.95,17.74-6.73,24.34,2.56,4,8.33,14.5,19,18.86,8.07,3.31,9.69-1.24,13.41-8.43,0,0,3.09-.43,2.17-2.37l1.8-2.87a2.12,2.12,0,0,0,2.16-1,18.31,18.31,0,0,0,1-4c.34.06,1.53.3,1.88.3h0C359.05,91.63,361.21,90.66,361.31,87.73Z" transform="translate(-0.05 -0.17)"/><path class="cls-15" d="M333.88,80.56c1.79-3.75,6.75-5.38,10.85-3.56,3.71,1.65,5.36,5.64,3.75,9-1.78,3.76-6.75,5.39-10.85,3.57C333.92,88,332.27,84,333.88,80.56Z" transform="translate(-0.05 -0.17)"/><path class="cls-11" d="M356.52,74.58a2,2,0,0,0-2.64.19A1.55,1.55,0,0,0,354,77h0a1,1,0,0,0,1.18,0c.49-.34,1-.69,1.48-1a.77.77,0,0,0,.19-1.08A1.79,1.79,0,0,0,356.52,74.58Z" transform="translate(-0.05 -0.17)"/><ellipse class="cls-14" cx="347.33" cy="43.65" rx="11.03" ry="28.07" transform="translate(180.06 351.02) rotate(-68.63)"/><ellipse class="cls-14" cx="331.22" cy="25.94" rx="6.86" ry="6.11"/><ellipse class="cls-14" cx="327.94" cy="38.03" rx="8.07" ry="7.18"/><ellipse class="cls-14" cx="338.47" cy="51.23" rx="6.3" ry="5.61"/><ellipse class="cls-14" cx="364.73" cy="36.57" rx="6.3" ry="5.61"/><path class="cls-14" d="M354.41,37.85c1.86-3.6,6.66-5.18,10.7-3.52s5.82,5.93,4,9.53-6.66,5.18-10.71,3.52S352.54,41.46,354.41,37.85Z" transform="translate(-0.05 -0.17)"/><path class="cls-14" d="M345.1,30.08c1.87-3.6,6.66-5.18,10.71-3.52s5.82,5.93,3.95,9.53-6.66,5.18-10.7,3.52S343.24,33.68,345.1,30.08Z" transform="translate(-0.05 -0.17)"/><ellipse class="cls-14" cx="343.12" cy="26.68" rx="8.07" ry="7.18"/><ellipse class="cls-14" cx="368.42" cy="45.82" rx="10.49" ry="9.34"/><path class="cls-14" d="M329.78,25.38c-9-3.69-23.55,2.76-28.6,12.5-9,17.37,5.26,27.42-.23,38l1.63.67.05,0a22.48,22.48,0,0,0,9.66-9.49l4.22-8.15a4.82,4.82,0,0,1,6-2h0A4.2,4.2,0,0,1,325,59.59c1.8-1.17,2.52-.79,2.52-.79l21.88-9.11Z" transform="translate(-0.05 -0.17)"/><polygon class="cls-14" points="341.07 50.33 323.28 78.25 319.97 71.42 329.41 51.75 341.07 50.33"/><path class="cls-5" d="M322.62,68.33a3,3,0,0,1-4.61.73A5.41,5.41,0,0,1,316.19,65c0-.75.05-3.6.05-4.38,0-3.17,3-5.71,6.52-5.67a6.69,6.69,0,0,1,1.86.26A3.37,3.37,0,0,1,326.94,60Z" transform="translate(-0.05 -0.17)"/><path class="cls-16" d="M320.7,67.22a3.88,3.88,0,0,1-2.41-3.51c0-.51,0-2.44,0-3a4.15,4.15,0,0,1,4.4-3.84,4.66,4.66,0,0,1,2.81,1Z" transform="translate(-0.05 -0.17)"/><path class="cls-14" d="M352.53,94,344,90.5A1.84,1.84,0,0,1,343,88h0a2.28,2.28,0,0,1,2.87-.94l8.5,3.48A1.85,1.85,0,0,1,355.4,93h0A2.3,2.3,0,0,1,352.53,94Z" transform="translate(-0.05 -0.17)"/><path class="cls-14" d="M347.46,105.82a2.29,2.29,0,0,0-1.34-3.17h0c-6.86-2.81-5.07-9.71-2.9-13.89,0,0-21.88-4.31-14-19.59,1.8-3.47-4.36.15-4.36.15a6.1,6.1,0,0,0-7.67,2.52,4.61,4.61,0,0,0,0,4.3,5.38,5.38,0,0,0-2.69,2.46,4.6,4.6,0,0,0,.08,4.45,8.19,8.19,0,0,0-3.48,3.44,7.22,7.22,0,0,0,2,9c-.62,2.16,8,7.55,10.12,8.74a5.71,5.71,0,0,0,1.94,7.13,4.62,4.62,0,0,0-.28.48c-1.6,3.09-.08,6.75,3.39,8.18a7.79,7.79,0,0,0,2.1.52c.29,2,9.16.63,9.79-.6Z" transform="translate(-0.05 -0.17)"/><path class="cls-14" d="M313.53,96.92a6.65,6.65,0,0,1,8.37-2.75c3.16,1.29,4.54,4.63,3.09,7.44a6.65,6.65,0,0,1-8.37,2.75C313.46,103.07,312.08,99.73,313.53,96.92Z" transform="translate(-0.05 -0.17)"/><ellipse class="cls-14" cx="335.27" cy="118.28" rx="6.3" ry="5.61"/><ellipse class="cls-14" cx="325.97" cy="106.65" rx="7.83" ry="6.97"/><path class="cls-11" d="M359.1,72.38a.65.65,0,0,1-.37-.36c-1.27-3.06-5.1-4.63-8.54-3.5a.76.76,0,0,1-.93-.38.64.64,0,0,1,.43-.83c4.18-1.37,8.84.54,10.39,4.27a.62.62,0,0,1-.43.82A.8.8,0,0,1,359.1,72.38Z" transform="translate(-0.05 -0.17)"/></g></g></svg>