<svg xmlns="http://www.w3.org/2000/svg" xmlns:xlink="http://www.w3.org/1999/xlink" viewBox="0 0 517.08 472.56"><defs><style>.cls-1,.cls-14{fill:none;}.cls-2{isolation:isolate;}.cls-3{clip-path:url(#clip-path);}.cls-4{clip-path:url(#clip-path-2);}.cls-5{fill:url(#Dégradé_sans_nom_2);}.cls-6{fill:#4f5454;}.cls-7{fill:#cfcece;}.cls-8{fill:#6c84c2;}.cls-9{fill:#94a6d6;}.cls-10{fill:#f4a395;}.cls-11{fill:#f29065;}.cls-12{fill:#a69bb4;}.cls-13{fill:#dabcaf;}.cls-14{stroke:#f7b39b;stroke-linecap:round;stroke-miterlimit:10;stroke-width:0.5px;}.cls-15{fill:#282828;}.cls-16{fill:#623a33;}.cls-17{fill:#403433;}.cls-18{fill:#fff;}.cls-19{fill:#f9e8d8;}.cls-20{fill:#e0e5e8;mix-blend-mode:multiply;}.cls-21{fill:#dd3e8f;}.cls-22{fill:#271c32;}.cls-23{fill:url(#radial-gradient);}.cls-24{fill:#f18c7c;}</style><clipPath id="clip-path" transform="translate(-0.04 -0.15)"><rect class="cls-1" x="8.66" y="65.65" width="483.35" height="131.01" transform="translate(-26.87 76.12) rotate(-16.42)"/></clipPath><clipPath id="clip-path-2" transform="translate(-0.04 -0.15)"><path class="cls-1" d="M43.15,156.38c-3,1.53,7.44-7,2.8-3.82l-3.18,2.93-3.19,3.07c1.05-2-2-.2-1.49.81,1.52-.79.07.55-1.4,2s-2.9,2.9-1.38,2A19.24,19.24,0,0,1,37.56,161c.81-.74,1.66-1.42,2.43-2A22.1,22.1,0,0,0,43.15,156.38Zm193.1-46.89c.54-2.07,4.2-2.74,6.36-5.36C242,106.38,238.83,107.68,236.25,109.49ZM388.33,65.85c0,.1-.14.33-.29.66s-.14.3-.2.41a2.6,2.6,0,0,1-.21.4c-.12.21-.24.43-.37.64l0,0c.53-.82-1.19,1.8,1.19-1.81h0l-.16-.11-.3-.22c-.42-.28-.82-.53-1.21-.8l-1.13-.74c-.34-.22-.68-.41-1-.59a15.55,15.55,0,0,1,3.74,1.66l.25.15.13.08,0,0c-.68,1.05,1.55-2.33-1.54,2.35l0,0,.05-.08.08-.16A11.3,11.3,0,0,0,388.33,65.85ZM76.25,129.91c0-1.47,3.18-2.67,4.37-3.49C80.46,128.26,77.54,128.55,76.25,129.91Zm150.19-12.49c-1,.74-1.9-.18-1.66-1.3.59-.16.84-.05,1.05.23S226.2,117.09,226.44,117.42ZM265,88.48c-3.64,1.48,0-1,2.71-2.61S272.31,83.54,265,88.48ZM149.11,93.62c-.79.79-2.91,1.4-5.45,2s-5.53,1.36-8,2.2a18,18,0,0,1,4.91-2.31A33.29,33.29,0,0,1,149.11,93.62Zm4,2.1c-.42.54-2.12.84-4.08,1.15A38.08,38.08,0,0,0,143.41,98a13.26,13.26,0,0,1,4.33-1.75A22.47,22.47,0,0,1,153.07,95.72ZM386.89,71a1.4,1.4,0,0,1-.51.69.21.21,0,0,1-.31-.12,1.42,1.42,0,0,0-.19-.39c-.09-.07-.1-.21-.27-.1a1.56,1.56,0,0,1,.33-.44.28.28,0,0,1,.15-.08.61.61,0,0,1,.18,0c.12,0,.19.08.32.16A.55.55,0,0,1,386.89,71Zm9.41-.62c-1.46,1.06-2.45,1.09-2.53.85S394.34,70.61,396.3,70.42ZM76.7,137.64c3.64-.68,1.21,3.25,5.45.81-.3,1.7-3.66,2.24-5,2.83-5.3,8.4-15.17,11.5-23.49,20.73a53.68,53.68,0,0,1,4.23-5c1.63-1.75,3.44-3.53,5.3-5.18.93-.84,1.89-1.66,2.85-2.45s1.92-1.51,2.87-2.22a51,51,0,0,1,5.49-3.59c-3.83,1.68-.26-.52.74-2.35-4,1.46-7.92,6.14-11.14,8.07a35.57,35.57,0,0,1,5.55-5.8C71.83,141.53,74.35,139.53,76.7,137.64ZM56.19,156.08c.29-1,1.53-2.11,2.94-3.29a51,51,0,0,0,4-3.38c-.31.93-1.53,2-2.93,3.18A45.28,45.28,0,0,0,56.19,156.08Zm-27.57,32c1-.9,1.63.26,2.79-2,.17,1.49-3.4,4.44-4.62,6.68-1,.67-.24-.41.61-1.69S29.26,188.37,28.62,188.12Zm121.51-85.19c-.95.94-3.34,1.61-6.5,2.33-.69-.64.37-1.1,1.88-1.45S149,103.25,150.13,102.93Zm-19.89,8.27a51.36,51.36,0,0,1-4.8,3l-2.55,1.39L120.16,117c.06-1,1.92-2.2,4-3.25.54-.27,1.08-.51,1.63-.76s1.15-.51,1.76-.74C128.77,111.81,129.73,111.44,130.24,111.2ZM398.55,85a34.63,34.63,0,0,1-10.77.76c-.86,0-1.62-.23-2.41-.32s-1.48-.36-2.24-.49-1.39-.42-2-.69a15,15,0,0,1-1.81-.82c.67-1,.94-1,1.35-.73a6.85,6.85,0,0,1,.64.47,1.36,1.36,0,0,0,.88.31c.17-.6.42-.88.71-.94s.64.19,1.16.43a12.11,12.11,0,0,0,4.07,1.8c1.9.42,3.92-.26,5.62-.53a6.29,6.29,0,0,1,2.49-.21A3.76,3.76,0,0,1,398.55,85Zm-20.3-2.53a.77.77,0,0,1-.3,0c-.13,0-.12,0-.61-.26a22.64,22.64,0,0,1-2.42-1.58c-1.63-1.2-3.31-2.56-4.52-3.61s-1.95-1.76-1.57-1.72,1.84.84,4.91,3.1A30.37,30.37,0,0,1,377,81.2c.21.2.43.39.61.57s.45.4.42.43A.57.57,0,0,0,378.25,82.44Zm-14-6.52c-.59-1.47-2.36-2.47-4.46-3.19s-4.52-1.23-6.58-1.93a16.14,16.14,0,0,1,7,1.19C362.8,73,364.82,74.59,364.22,75.92ZM37.49,193.13c.6-2.25,8.07-10.63,8.43-9.85-1.18,1.29-2,2.28-2.66,3.1l-1.66,2c-.49.6-1,1.17-1.63,1.89S38.58,191.91,37.49,193.13Zm-9.07,18.72c-.35,2.47-1.85,5.84-3.51,9.31a31.77,31.77,0,0,1,1.18-4.38c.29-.77.58-1.59,1-2.41S27.91,212.72,28.42,211.85ZM62.06,196c-3.55,5.58-8,9.37-10.74,13a28.83,28.83,0,0,1,4.94-7.27C58.36,199.43,60.48,197.33,62.06,196Zm6.42-6.07c-.21,1.69-2,3.3-3.87,4.66C63.64,192.88,67.09,191.32,68.48,189.88Zm4-2.7c1-2.08,3.14-3.48,4.92-4.61,0,.62-1,1.69-2,2.64A11.24,11.24,0,0,1,72.53,187.18Zm49.41-39.93a32.61,32.61,0,0,1,9-6.12C129,143.84,124.68,146.77,121.94,147.25Zm3.88-.39c-1.17,1.49-4.09,4.4-6.38,4.87A17.22,17.22,0,0,1,125.82,146.86Zm4.73-1.34c.95-.57,1.9-1.13,2.86-1.66.22.37-.52.69-.9,1,1.61.13,1.34-.28.71,1.12C132.4,145.66,131.06,146.51,130.55,145.52ZM80.1,188.73c-1.86,1.19-3.2,2.58-6,5.14C72.73,194.58,79,187.26,80.1,188.73Zm86.85-48a58.57,58.57,0,0,0-12.83,1,47.88,47.88,0,0,0-6.54,1.78c-1.1.37-2.2.81-3.31,1.29-.55.25-1.11.48-1.66.76s-1.2.61-1.81.9c1-.62,2-1.25,2.94-1.79.5-.28,1-.55,1.54-.81s1.07-.53,1.64-.77a37.5,37.5,0,0,1,7.13-2.36,30.85,30.85,0,0,1,7.11-.75A23.24,23.24,0,0,1,167,140.77ZM61.81,213.29c1.94-1.45,2-3.46,4.25-4.62C65.61,210.89,63.88,213.77,61.81,213.29Zm7.12-7.95c1.25-3.29,5.67-5.17,7.48-8.63-.29,1.83,1.3-.13,2.15,1C73.47,201.07,73,203.4,68.93,205.34Zm74.88-59.25c-.46,1.28-4.34,2.21-6.16,3.57-.24-.39,1-1.23,2.43-2,.73-.38,1.51-.73,2.21-1S143.49,146.19,143.81,146.09ZM72.06,212.2l2-2.26c1.64.44-.64,1.82-1.21,2.79Zm78.86-55.57c-.14-.84.49-1.25,1.32-1.49a24.39,24.39,0,0,0,2.47-.65c.9.26,0,.44-1.13.78S151,156.1,150.92,156.63Zm-66.79,53a8.73,8.73,0,0,1-1.44,2.52c-.65.8-1.4,1.58-2.18,2.42s-1.72,1.71-2.62,2.7a39.35,39.35,0,0,0-2.62,3.36C75.5,217.79,80.41,214.27,84.13,209.61Zm67.39-52.25c.33-1.25,2.58-1.07,3.71-1.6C154.72,156.9,152.6,156.62,151.52,157.36Zm16.68,4.82c-.6.33-.87,0-1.23-.5a1.71,1.71,0,0,0-1.48-.93c-.08-.43.64-.36,1.36,0S168.26,161.76,168.2,162.18Zm2.75,1.5c-.81.66-1.28.39-1.63-.07s-.57-1.1-.69-1.15C169.55,161.79,170.19,163.39,171,163.68ZM151,162.38c.07-1.13,2-1,2.8-1.58,0,.73-.53,1-1.19,1.13A5.44,5.44,0,0,0,151,162.38Zm-40.93,30A6.09,6.09,0,0,0,113,190C114.65,190.43,110.36,194,110.07,192.42Zm24.53-19c2.51-.57,5.88-4.37,8.22-4.54.27,1.59-1,2.82-2.83,4s-4.15,2.37-5.8,3.59C133.67,176.17,136.44,174.49,134.6,173.46Zm19.33-10.33c.32-1.22,2.15-.86,3.12-1.31a1.52,1.52,0,0,1-1.33,1.34A3.64,3.64,0,0,1,153.93,163.13Zm-51.18,38.58c-.22,1.55-3.52,3.47-4.94,5.13C97,205.53,101.29,202.22,102.75,201.71Zm6-3.44c1.28,2.7-5.59,5.49-9.19,9.43C101.25,203.7,106.93,201.38,108.76,198.27Zm48.44-27.74a.94.94,0,0,1,1-.7,4.33,4.33,0,0,0,1.24,0,1.12,1.12,0,0,1-1.09.54A1.66,1.66,0,0,0,157.2,170.53Zm-43.54,31.88c1.3-2.28,6.55-6.4,8.71-6.1-1.42,1.12-2.64,2-4,2.94S115.52,201.15,113.66,202.41Zm6.1-3.37c1.18-.74,2.36-1.63,3.66-2.64s2.74-2.15,4.54-3.46C127,194.8,121.88,198.9,119.76,199Zm30.49-22.6c-2.37,1.83-6.18,4.59-10.22,7.67l-6.11,4.62c-2.15,1.59-4.06,2.93-5.46,3.8,2-1.63,4.23-3.38,6.46-5.15,2-1.58,3.93-3.1,5.8-4.5A95.73,95.73,0,0,1,150.25,176.44ZM319,148.1c1.61-1.55,2.58-.87,4.22-2.39C323.32,146.36,319.43,149.66,319,148.1Zm6-3.06c.24-1.39,3.7-2.71,5.24-4C329.9,142.4,326.46,143.7,324.94,145Zm15.23-9c-.31.8-.47,1.05-.68,1s-.39-.21-.63-.31a.41.41,0,0,0-.61.21c.14-1.08.72-1.17,1.26-1.07ZM186,196.21a87.93,87.93,0,0,1-9.15-6.13c.81.38,3.24,1.53,5.4,2.71S186.33,195.2,186,196.21Zm-37.34-15.63c-.05-1.18,2.61-1.88,3.52-2.71C152.28,179,149.73,179.57,148.69,180.58Zm221-125.89c-1.76-.12-5.81-1.23-6.89-2.09a30.68,30.68,0,0,0-4-1.16c-1.64-.37-3.48-.71-5.15-1-3.36-.5-6.06-.69-5-1.1a52.39,52.39,0,0,1,11.7,2.1C363.72,52.47,366.68,53.56,369.73,54.69ZM98,126.2c-.45-.74,2.51-1.15,4-2.8-1-.33-2.21,1.14-1.49-.61A62.85,62.85,0,0,0,89.87,129c-1.66,1.14-3.34,2.33-5.09,3.56-1.58,1.09-3.26,2.19-5,3.26-.82.09.22-.84,1.65-1.94s3.15-2.35,4.06-3.19c-1.79,1.26-3.74,2.61-5.74,4s-4,2.84-6,4.29-3.87,3-5.6,4.48a48,48,0,0,0-4.47,4.36c-.25-.6,1.13-1.45,1.91-2.2-6.06,5-12.69,10.57-20.7,16.65C50.3,156.39,56.54,149.6,63,143.54c3.26-3,6.56-5.89,9.85-8.4,1.64-1.24,3.3-2.44,4.92-3.49a56.51,56.51,0,0,1,4.92-2.89c.69-.68,0-1.15-.59-.67a53,53,0,0,1,12.67-10.4,124.77,124.77,0,0,1,15.61-8c.83.6.07,1.31.15,2,1.61-.91,3.21-1.82,4.89-2.73.88.62-.8,1.37-2,2.12,1.86-.84,3.74-1.68,5.68-2.5,1-.42,1.94-.83,3-1.23s2.17-.9,3.42-1.38A129.15,129.15,0,0,1,140.56,101a91.19,91.19,0,0,1,31-2.84A73,73,0,0,1,200.83,107a87.62,87.62,0,0,1,12.69,8.64l3,2.47,1.39,1.22,1,.87.88.81c.06,0,.12.12.18.18l.34.38c-.08-.23-.15-.46-.24-.66a.87.87,0,0,0-.11-.17l-.55-.58c-.39-.38-.76-.76-1.13-1.14l-.74-.71-.91-.83c-.59-.52-1.16-1-1.75-1.53-1.16-1-2.36-2-3.55-2.91a77.68,77.68,0,0,0-15.05-9.1c-10.49-4.7-21.37-7.17-33.32-8.55-1.22,0-2.44.07-3.66.16-5.33.45-.21-.82,2.46-.56a73.47,73.47,0,0,1,11.06.37c1.82.2,3.58.39,5.19.62s3.12.39,4.44.49c0-.42-1-.72-2-1s-2.24-.45-2.53-.83a52.9,52.9,0,0,1,14,3.08,70.92,70.92,0,0,1,15.72,7.82c2.47,1.61,4.83,3.32,7,5,1.09.86,2.13,1.71,3.15,2.55s2,1.63,3,2.5l1.81,1.54c.14.11.27.23.39.34s.32.27.29.22l.12,0a.68.68,0,0,0,.48-.06,2.84,2.84,0,0,0,3.64,1.45c-.28-1-.56-1.13-.93-1.2.25-.65.5-.87.7-.82s.42.4.63,1c.05,1.12-.23.27-.32.53a1.31,1.31,0,0,0,1.31.89,2.32,2.32,0,0,0,1.34-.74c.4-.37.76-.82,1.17-1.19l.16-.15.06,0,.06-.07.18-.15c1-.83,1.93-1.67,2.91-2.52,2-1.63,4-3.29,6.12-4.86-2.74.65-.68-1.15,2.39-3.36,1.55-1.09,3.37-2.28,5-3.3s3-1.88,3.69-2.38c8.45-6,17.24-14.19,22.3-15.43,3.56-2.62,7.33-5.27,11.27-7.84,2-1.3,4-2.55,6-3.83l1.66-1,2.55-1.53c1.7-1,3.42-2,5.13-3s3.44-2,5.13-2.92l2.57-1.44c.85-.47,1.69-1,2.57-1.36l5.17-2.44c.85-.4,1.7-.81,2.56-1.19s1.71-.69,2.57-1a58.74,58.74,0,0,1,30.52-3.44l-10.44.26a73.6,73.6,0,0,0-18.08,3.33,46.28,46.28,0,0,0-4.83,1.76l-4.86,2.19a92.14,92.14,0,0,0-9.48,5c-2.61,1.46-5.39,3.29-8.27,5.12-.7.46-1.43.93-2.15,1.38-.43.26-.62.41-.85.57l-.64.44-2.52,1.77a3.92,3.92,0,0,0,2.71,0,11.67,11.67,0,0,0,1.66-.64l.53-.26.72-.38,1.46-.82c2-1.13,4.11-2.47,6.24-3.79l6.23-3.76a36,36,0,0,0-5.7,2.58c-2.11,1.1-4.29,2.41-6.29,3.43,1.47-1,3-2,4.55-3s3.22-1.93,4.89-2.9l2.53-1.45a25.86,25.86,0,0,1,2.6-1.38l5.43-2.56c.92-.41,1.84-.92,2.78-1.26s1.9-.73,2.84-1.06c1.92-.66,3.87-1.25,5.87-1.76a63.29,63.29,0,0,1,12.52-1.88l1.4,0a11.12,11.12,0,0,0,1.41,0c.95,0,1.9,0,2.86,0s1.92.11,2.86.21,1.91.21,2.86.34c5.61-1.08,12.68,1.2,19.29,5.64a97.15,97.15,0,0,1,9.67,7.6c.74.67,1.63,1.35,2.45,2l.62.5.15.12V72c0,.26.12.33.21.46s.48-.72.55-.74c.57-.25.93,0,1.82.25a15.91,15.91,0,0,0,3.42.78c2.86.32,6.79-.37,8.57-2.72.42-.19.86-.37,1.32-.55s.89-.42,1.36-.64.9-.47,1.36-.69l.7-.36.83-.48a59.19,59.19,0,0,0,7.28-4.92A91.17,91.17,0,0,0,428,46.07c0,2-2.15,2.22-3,4.27,2.71-.82,3.52-4.47,6.58-6.76-.68,3.06,2.32,1.11,4.1.94,1.16,2.31,3.27,4.54,3.58,6.15A22.33,22.33,0,0,1,437,53.28c-.87.9-1.81,1.82-2.6,2.7-1.58,1.73-2.62,3.32-1.52,4.42,1.72,1.83,7.55-2.51,8.68-6.21,3.59-.28,5.89-5,9.83-4.49,1.28.8-.38,2.33,0,3.35,2.91-.64,6.71-1.74,8.24-.18.15,2.52-.8,3.21,1.76,4.79-1.08,1.15-.72,1.92-2.36,3.2.93,1.87,2.41-.47,3.59-.51,1.8,1.24-.22,3.88,2.64,3.81-.49,1.5-2.81,3.45-2.6,4.78,1.49.58,3.32-1.17,4.78-.45,1.28,3.43.75,7.36-.15,11.38,3.46-1,1.25-2.68,2.19-3.59,2-2,.34.09.7.57,2.62.79,3.8-5.67,6.13-3.85.92-3-2.27-2.85-4.41-5.26,4.11-1.28,6,3,5.48,6.11-1.2,1.08-2.29,1.42-3.63,3.22,3.07-.42,6.21,1.53,8.87,1.84.14.85-1,2-1.67,3.11,3.62-1.17,3.71,4.77,7.59,2.53-1.8,5-1,7.24-3.48,12.18.55.3,1.32-.33,2.07-1s1.49-1.41,2.1-1.34c1.52,2.29.12,5.44.3,8.16-1.5,1.51-3,3-4.56,4.5-.3-.45.8-1.3,1.41-2a23.86,23.86,0,0,0-4.82,3.58c-1.77,1.57-3.62,3.4-5.62,5.19-3.92,3.56-8.29,6.85-11.63,7,4.14-2.28,8.28-7.28,11-9.1-4.16,2.37-8.85,5.43-14.23,8.84s-11.38,7.14-18.12,10.67c-.86.44-1.65.89-2.56,1.33l-2.78,1.35c-1.86.92-3.74,1.73-5.67,2.54s-3.85,1.58-5.8,2.29-3.93,1.37-5.92,2a113,113,0,0,1-24.43,4.87c2.73-.89,2-1,.08-.9-1,0-2.16.2-3.42.26s-2.54.12-3.52.14c1.48,1.16-2.11,1.3-7,.73l-1.85-.21-2-.32-3.89-.68c-2.54-.48-4.91-1.06-6.58-1.24-.46.93,4.23,1,5.94,1.43a25.35,25.35,0,0,1-6.37-.48c-1.29-.21-2.71-.6-4.17-1s-3-.8-4.5-1.41-3.09-1.19-4.61-1.81-3-1.41-4.45-2.12-2.85-1.41-4.14-2.18l-1.87-1.09-.22-.12v0a1.8,1.8,0,0,0-.21.37h0a1,1,0,0,0,.2.13l.55.29,1.05.6c-.17.21-.56.15-1.09,0a8.61,8.61,0,0,1-.9-.42l-.15-.07s0,0,0,0,.08-.08,0-.13a.09.09,0,0,0-.14,0c.22-.38.29-.25.39-.3.34-.59-.17-.3.21-1-.75-.49-.71-.72-.39-.68a2.08,2.08,0,0,1,.66.23c.09.06.3.15.3.2l0,.07c.62.34,1.22.69,1.77,1l-.75-.73-.4-.37-.2-.19c-.06-.05-.18-.15-.14-.14.06-.16.13-.32.18-.46a1.52,1.52,0,0,0-.17-.87,3,3,0,0,0-1.12-1.24,5.77,5.77,0,0,0-3.34-.76c-.27,0-.51,0-.75,0a7.18,7.18,0,0,0,.74.54,11.86,11.86,0,0,1,1.72.95,2.41,2.41,0,0,1,.69,2.23,3.74,3.74,0,0,0-2.45-1.09,5.51,5.51,0,0,0-2.22.79l-1.75.87s-.27-.12-.51-.24l-.35-.15c-.07,0-.07,0-.17,0a2,2,0,0,0-.35.19c-2.16,1.55-5.11,5.68-8.17,6.33-.67.57.63,1.2-.2,1.75-5.31,1.38-7.75,5.56-13.8,9.74,1.77.54,4.91-3.74,6.49-2.49-5,1.69-8.67,7.34-13,6.89.2,3.41-5.57,5.18-8.89,8.91a73.69,73.69,0,0,1-6.42,5.38c-.74.59-1.49,1.21-2.26,1.85l-4.88,4.21c-1.62,1.42-3.29,2.78-4.91,4.14s-3.26,2.65-4.85,3.84C263,192.77,250.84,199.45,237,202.33c-.85.22-1.74.31-2.6.49s-1.75.32-2.64.4c-1.76.17-3.56.37-5.34.48-.9.06-1.8.12-2.71.15l-2.7,0c-1.82-.06-3.63-.1-5.43-.31A69.19,69.19,0,0,1,194.5,198a83.11,83.11,0,0,1-19.2-11.76c-3-2.38-6-5-8.87-7.63l-3.86-3.48-.9-.78-.1-.09s0,0,0,0v0s0,0,0,0a7.71,7.71,0,0,0-2.21-1.19.4.4,0,0,1-.21,0c-.06,0-.14,0-.2,0,.17-.53.42-.56.62-.45s.37.31.6.19c.55-.52,1.23.06,1.73.45.66-.88.57-1.18.37-1.39s-.51-.27-.4-.89c.6-.7,1.09-.65,1.52-.33a3.53,3.53,0,0,1,.58.58,2.08,2.08,0,0,0,.27.32l0,0,.11.1.66.58c-.13-.25-.3-.52-.42-.74l-.1-.15,0-.05,0-.09a1,1,0,0,0-.18-.43,1.64,1.64,0,0,0-.75-.56,8.45,8.45,0,0,1-2.05-.92,4,4,0,0,0,0,1c-.67,1.25-.31-.38-.08-1a7.22,7.22,0,0,0-5.35,0,10.52,10.52,0,0,0-1.23.5c-.09,0-1.61.77-2.69,1.33-2.38,1.28-4.95,2.83-7.66,4.65s-5.51,3.82-8.42,6l-2.2,1.68-2.34,1.81c-1.7,1.31-3.4,2.62-5.1,4-6.5,5-13.11,10-20,15.34-1.22,1-2.37,2.12-3.49,3.16-.69,1.08-3.08,2.19-1.18.48a31.54,31.54,0,0,1,3.32-3c1.21-1,2.26-2,2.49-2.88.91.35,2.49-2.31,3.39-1.75,1.15-2.89,6-4.16,7.34-6.72a6.87,6.87,0,0,0-3.93,1.34c-1.17.78-2.4,1.84-4,3,1.32-3.12,6.11-6.3,9.12-8.73-2.59,1.17-5.29,2.53-7,4.61a6.55,6.55,0,0,1,1.41-3,8.68,8.68,0,0,0,1.66-3c-3.3.48-7.54,4.9-11,6.84,0,.34,1.22-.28,1.27-.49-.31,1.43-1.59,2.9-3.25,4.41A36.18,36.18,0,0,1,99.65,201c-1,.76-2.08,1.53-3.18,2.28s-2.19,1.52-3.25,2.27-2.11,1.5-3,2.26a15.9,15.9,0,0,0-4,4.26c-.38-.52.66-1.3,1.22-1.95-2,.7-2,2.48-4.27,3.89,0-1.08,1.22-2.42,2.3-3.73s2.14-2.58,1.52-3.6c3.65-3.93,5.64-5.52,10.11-9.59,1.36,0-3.8,3.79-5.08,5.29,2.14-.34,4.85-3.84,8.37-6.4-.59-.92-1.93,2.06-2.36.3,8.92-7,14.21-13.48,23.24-20.48-6.3,3.68-13.35,10.51-19.47,15.38.85-1.78,2.84-3.69,5.24-5.61-3.79.39-7.72,6.62-10.82,8.06-4.82,3.72.67-1.16,3.5-3.65,1.65-1.47,3.54-3,5.17-4.43a23.16,23.16,0,0,0,3.43-3.37c.35,1-3.92.24-1.94-.17-4.72,1-8.93,6.37-15.11,11.18.76-2.23,3.77-5.52,7.23-8.72,1.73-1.61,3.57-3.18,5.23-4.64s3.21-2.75,4.28-3.8c-2.26.5-5.39,4.2-7.93,6-1.28,1.09-.84.26-1.14-.24-1.85,1.55-3.63,3.1-5.47,4.66-1.23,1.49-4.79,3.66-1.77,1,3-3.46,8.34-8,13.11-9.91,1.22-1,1-1.8,2.78-2.84-5.62,2.76-15.2,10.16-21,16.72-.39-.69-1-.24-1.59.26-1.46-2.38,2.5-3.75,4.31-5.72,6.75-7.46,12.47-14.47,24.38-22.48,1,0-7.52,6.89-.44,1.5,1.44.6-.63,1.53-1.49,2.36,4-.76,7.73-5.46,11-6.25,1.52.89-1.6,2-2.47,3,.89.09,2.09-.87,2.9-.5a40.44,40.44,0,0,1-4,3.55c-1.8,1.51-4.13,3.38-6,4.81,5.41-3.63,9.85-6.68,14.24-9.51s8.43-5.38,12.47-7.6c1-.57,2-1.1,3-1.61.49-.25,1-.54,1.5-.77l1.41-.68c1.63-.77,3.32-1.51,5.08-2.14a32.84,32.84,0,0,1,11.74-2.18,13.25,13.25,0,0,0-5-.42c-1.82.15-3.68.51-5.4.82a5.39,5.39,0,0,1,2.45-1.39,17.67,17.67,0,0,0,3-1.11,19.78,19.78,0,0,0-6.77.72,31.41,31.41,0,0,0-6.92,3,.8.8,0,0,0,.8.53,3,3,0,0,0,1.11-.29c.79-.35,1.67-.78,2.21-.53-.69.42-1.44.81-2.21,1.28s-1.79,1-2.73,1.53c-2.05,1.14-4.29,2.43-6.55,3.77-4.55,2.67-9.3,5.55-13.21,7.53,4.77-3.1,8.32-6,14.33-9.52-4,1.27-6.1,3.2-9.79,5.15-.53.33.57-.93,1.76-2s2.43-2,2.11-1.12a84.73,84.73,0,0,1,9.06-6.81c.81-.53,1.7-1,2.47-1.45a23.26,23.26,0,0,1,2.2-1.07,13.08,13.08,0,0,1,4-1.11c-.06,0-.13.25-.16.5s-.08.51-.09.52c2.06-.93,4.29-2.93,6.78-3.59a26.47,26.47,0,0,1,10.75-.72A24.82,24.82,0,0,1,177,145.5c.39-1.32-1.54-2.25-3.58-2.87s-4.11-1-4.11-2.31a6.69,6.69,0,0,0,1.47.6c.32.11.68.21,1.08.31l1.2.37a40.66,40.66,0,0,1,5.12,1.86,19.15,19.15,0,0,0-8.3-4.27,73.78,73.78,0,0,0-9.42-1.52c-.09,0,1.34-.87,1.83-.5-1.76-1.35-6-1-10.49.43-2.23.7-4.53,1.61-6.73,2.51s-4.26,1.78-6.41,2.45c1-1.41-.67-1.53,2.89-2.81a23,23,0,0,0-4.08,1.21,31.45,31.45,0,0,0-3.08,1.5c-2,1.11-4,2.4-7.82,4.37,2.24-2.72,5.59-4.79,9.17-6.66s7.32-3.53,10.94-5.76a2,2,0,0,1-1,1.29c3.57-1.19,6.46-2.31,9.45-3.11a21,21,0,0,1,9.71-.47c0-.54-1.19-.47-2-.52,1.77-.59,4.57-.37,7.15.17s5,1.25,6.57.94a37.88,37.88,0,0,0-10-2.35,30.82,30.82,0,0,0-10.61.86c-.37-.91,1-1,2.08-1.18a58.18,58.18,0,0,0-18.21,4.31,78.37,78.37,0,0,0-17.59,9.9c.53.37,1.67-.63,2.58-1.13-2.91,2.46-6.94,5.2-10.7,8a69.55,69.55,0,0,0-9.15,7.6c.44,1.19,1.68-.23,2.5-.26-.78,1.62-5,3.37-7.38,5.91,3.55-.72,9-7.75,11.59-5.23.27-1,2-2.12,3.41-3.2-1.49-.39-4.23,3.28-5.43,1.92,2.44-2,6.16-4.35,9.73-4,1.61-3.32,7.24-5.38,10.11-6.26-1,1.62-3.27,2.69-5.44,3.82s-4.14,2.29-4.35,3.89c1.56,0,2.35-.74,3.48-1.94a36.69,36.69,0,0,1-5.42,5.71c-2.32,2.07-5,4.31-8,6.6-5.79,4.54-11.94,8.9-15.77,11.84-2.57.32,1.21-2,2.45-3.21-2.76.95-.45-.85,1.45-2.37-4.54,3.28-8.32,6.32-12.29,9.79s-8.12,7.35-13.22,12.46c-1.52,1.81-1.27.1.12-.77.76-.78,1.54-1.55,2.35-2.31,1.39-1.24-.22-1.93,2.18-3.37,1.23-1.17.84-.31,1.15.17,1.2-1.83-.88-.79.13-2.59,5.12-4.91,10-7.86,15.45-12.88-5.69,4-10.59,7.88-15.21,11.81s-9,7.95-13.54,12.4c2.37-3,6.17-7.33,10.22-11.61A138.59,138.59,0,0,1,87,174c2-.83-1.94,2.2-2.76,3,1.79.35,4.43-2.85,6.79-4.59-2.67-1.17,5-4.06,8.33-6.86-.56-.79-2,1.36-2.92,1.8-2.08.79,2-2.15,2.84-2.89-4.38,1.46-7.34,5.29-12.6,9.25,1.52-1.9,3-4.82,6.56-7.82-4.55,2.85-9.7,7.49-14.76,12.4S68.43,188.33,63.74,192c-1.05-2.63,3.85-5.14,6.4-8.92-4.6,1.81-9.73,8.8-12.14,10.46,3.55-5.12,8.48-10.18,13.9-15.33s11.4-10.34,17.19-15.92c-3.07.28-3.67,2.66-6.22,3.41.41.91,1.35,0,2.21-.67-.08,2-3.55,1.42-5.37,3.36-.18.18-.5,2.21-.62,2.31a57.2,57.2,0,0,1-6.15,4.5c-2,1.31-2.94,1.68,0-.87A75.33,75.33,0,0,0,66,180.5c-1,1-2,1.95-3.07,3s-2.17,2.1-3.47,3.23c-.88.61-.25-.57-1-.88-.85,1.13-2.22,2.52-3.49,3.87a19.55,19.55,0,0,0-1.67,2,5.72,5.72,0,0,0-.87,2,3.36,3.36,0,0,1,.63-2.94,18.51,18.51,0,0,1,2.71-3.05c2.09-2.07,4.44-4,4.63-5.85-.75-.6-1.81.31-2.93,1.54-.54.64-1.13,1.32-1.68,2a9.25,9.25,0,0,1-1.59,1.6c3.55.13-4.19,2.37-6.14,6.21a14.65,14.65,0,0,1,2.64-4.09,33.65,33.65,0,0,1,3.78-3.75c-2.05.28-4.65,3.28-7.06,6.48l-1.83,2.33c-.58.76-1.16,1.49-1.74,2.13a7.11,7.11,0,0,1-3.27,2.45c4.41-6.12,8.37-11.3,13.18-16.95a193.89,193.89,0,0,1,18.57-18.9c-1.39-1.35-3.4-.52-5.91,2.16.83.42,2.33-1.6,2.89-.16-1.38.07-3.18,1.74-4.73,2.39,2.6-2.34-2.27-.3,2.26-3.83-4.07,1.78-8.15,7.13-12.64,11.12a16.49,16.49,0,0,1,3.6-4.77c1.4-1.32,2.72-2.35,3.23-2.94s-.22-1.17-.67-.63c2.7-3.3,1.79-1.22,7.93-6.47,1-1.24-1.15.07-.4-1.43a45.81,45.81,0,0,0,3.52-3c1-1,2-1.91,2.88-2.86a57.37,57.37,0,0,1,6.07-5.68c-.44-.31-1.25.54-1.94,1a38.13,38.13,0,0,1,6.74-6c-1-1.11-3.38,2.13-4.7,2A58.68,58.68,0,0,1,85,139.41c.79-.69,1.61-1.37,2.44-2l1.26-1c.46-.36.93-.71,1.39-1.09,3.77-2.9,7.9-5.79,12.21-8.92.62.44-.14,1,.19,1.52,3.43-2.41,4.67-2.9,4.21-2.42a36.64,36.64,0,0,1-5.22,3.67c1,1.62,3.46.46,6.14-1.28s5.68-4.08,7.26-4.88c-2.27.15-6.33,3.76-9.08,5.33-1.09.14-.94-.74-.27-.36a137,137,0,0,1,14.86-9.54c1.32-.73,2.73-1.45,4.17-2.16.7-.35,1.48-.7,2.22-1l1.25-.57,1.38-.59a86.16,86.16,0,0,1,11.91-4.09c2.56-.84,2.71.29,4.37.18a80.62,80.62,0,0,1,8.36-2,28,28,0,0,1,7.06-.26,9.48,9.48,0,0,1,3,.39,20.35,20.35,0,0,1-2.18.07,34.21,34.21,0,0,0-5.93.36c0,.53,3.07.21,6.83,0a81,81,0,0,1,10.55.19c-1.15-.56-1.64-.84-1.29-1a11.8,11.8,0,0,1,3.51.4c-.41-.58-2-.94-3.86-1.07s-3.93-.15-5.33-.36c1.55-.52,1.85-.83,1.35-1a10.11,10.11,0,0,0-3.37-.15,37.85,37.85,0,0,0-5,.67,23.34,23.34,0,0,0-3.48.94c-1.05-.54-3.12-.57-5.36-.32-1.13.1-2.27.26-3.38.42s-2.14.26-3,.31c-3.43.76-4.68,1.14-4.52,1a33.19,33.19,0,0,1,4-1.28c1.11-.31,2.41-.64,3.77-.94s2.82-.58,4.23-.83c2.85-.48,5.6-.75,7.47-.88a72,72,0,0,1,11.12.14,73.14,73.14,0,0,1,10,1.67,132.46,132.46,0,0,1,16.25,5.29c-.33.39,1.24,1.46,3.47,3s5.15,3.62,7.73,5.7c1.29,1,2.5,2,3.58,2.94l1.3,1.12c.3.26.56.51.78.71.85.82.91,1-.48.18l-1.12-1-1.6-1.39c-1.05-.9-2.1-1.77-3.18-2.62-4.43-2.75-9.93-6.49-15.29-8.55,3,2.29,6.31,4.67,9.79,7.25,1.74,1.29,3.51,2.65,5.32,4,1.65,1.29,3.32,2.59,5,3.92a6.62,6.62,0,0,0,1.28.85l.9.5,1.74.94a23.14,23.14,0,0,1,3.06,1.84,11.75,11.75,0,0,0-2.62-2.9,9.36,9.36,0,0,1-1.29-1.41,3.12,3.12,0,0,1-.43-.77l-.08-.2,0-.09-.15-.21a8.52,8.52,0,0,1-.57-.86,4.18,4.18,0,0,1,1.23.38l.15.06h.21a.68.68,0,0,1,.22.09,1.89,1.89,0,0,1,.69.66c.4.54.76,1.19,1.4,1.09a5.82,5.82,0,0,0-1.32-2.06,6.1,6.1,0,0,0-.41-.46c-.45-.42-.91-.86-1.35-1.29l-1.87-1.75c-.7-.64-1.39-1.27-2-1.88a14.06,14.06,0,0,1,2.81,1.15c.46.25.93.53,1.36.81s.65.39,1,.59.58.42.84.64l.62.52a2.16,2.16,0,0,1,.36.47c.41.69.77,1.63,1.77,1.6a3.74,3.74,0,0,0-.42-2.29,4.38,4.38,0,0,0-.64-.81l-1.46-1.29c-.77-.66-1.55-1.3-2.31-2a114.59,114.59,0,0,0-10.52-7.76c-3.43-2.24-6.6-4-9-5.59.23-.39,1.41.26,2.24.58.09-1.2-5-2.57-7.11-3.57-.34.27-.23.57.15.82a8.65,8.65,0,0,0,1.6.83c-1.57-.49-3.23-1-4.86-1.55s-3.3-1.07-4.93-1.55-3.22-.92-4.75-1.18c-.75-.14-1.49-.27-2.18-.36a17.88,17.88,0,0,0-2-.14c.28-.49,2.17-.16,3.51,0A41.32,41.32,0,0,0,164.15,98a72.37,72.37,0,0,0-15.3,1.66A116.57,116.57,0,0,0,133,104.36c-2.58,1-5.11,2-7.6,3l-3.28,1.32-2.89,1.12c.09,1,1.61.14,3-.49a21.61,21.61,0,0,1-3.35,2.46,13.21,13.21,0,0,1-3.07,1.34,16.18,16.18,0,0,0,4.87-1.57l3.11-1.42c.59-.28,1.21-.56,1.83-.83l2.07-.88c5.52-2.35,11.24-3.85,13.74-2.68a68.13,68.13,0,0,0-14.81,4.79c-1.19.52-2.1,1-3,1.41s-1.77.91-2.65,1.37c-1.72.93-3.38,1.85-4.93,2.81C109.72,120,104.3,123.62,98,126.2ZM486.26,92.88c-.49-.29-1-.54-1.72.47-4.25,4.23-9,8.9-14.43,13.75a176.85,176.85,0,0,1-18.44,14.51c-1.74,1.17-3.46,2.32-5.32,3.43-.91.56-1.81,1.11-2.74,1.65l-2.83,1.6c-1.8,1-4,2.09-6,3.1s-4.17,1.87-6.25,2.78a109.92,109.92,0,0,1-25.38,7c-1.44,1.85,3.67-.3,3.4.78-8.11,1.92-7,.43-10.93.16-5.87,1-14.33,1-23.76-.66-2.36-.42-4.75-.86-7.2-1.53L361,139l-3.67-1.18c-2.46-.75-4.88-1.75-7.27-2.71l-1.79-.73-1.76-.8-1.74-.8c-.2-.1-.17-.07-.19-.07l-.1,0,.07,0h0l.2.11c.56.29,1.08.57,1.57.85,1,.56,1.77,1.07,2.27,1.42,1,.7.71,1.12-1.93.41,1.54.68,3.18,1.33,4.87,2,.85.34,1.7.73,2.58,1.05l2.66.94a90.48,90.48,0,0,0,10.87,3.14q2.67.54,5.15.91c1.65.25,3.2.33,4.65.41a21,21,0,0,0,7-.56,56.84,56.84,0,0,0,20.55-.32,131.53,131.53,0,0,0,18.15-5.1c0,.55-1.47,1.54.44,1.26,1.59-.84,3.22-1.68,4.85-2.48l5-2.53c3.33-1.71,6.86-3.56,9.94-5.29,6.38-3.52,12.64-7.3,18.32-11.22C473.05,109.81,482.08,101.4,486.26,92.88ZM237.72,114.2c2.36-2.73,6.37-3.61,7.41-6.3-.87.51-3,2-4.84,3.42S237.1,114.08,237.72,114.2Zm95.33-57.68a25.08,25.08,0,0,0-6.56,1.77c-.56.33.25.28,1.77,0l6.11-1c2.35-.44,4.8-.77,6.72-1.28C338.87,56.48,336,56,333.05,56.52ZM217.42,120.3l.82.8.39.38c.1.11.31.3.27.29a1.62,1.62,0,0,1,.17.41,6,6,0,0,0,.3.76c.22.44.61.76,1.55.51a8,8,0,0,1-.91-1.38,2.23,2.23,0,0,0-.57-.64c-.07-.05-.08,0-.22-.13l-.65-.46A9.38,9.38,0,0,0,217.42,120.3Zm5.24,5.15c1.22.91,2,.75,3.18,1.33a1.66,1.66,0,0,0-1.36-1.62A2.38,2.38,0,0,0,222.66,125.45Zm6,.69a6.19,6.19,0,0,1,2-.35c.51-.1,1-.42,1.12-1.65a4.54,4.54,0,0,1-1.77,1C229.27,125.35,228.7,125.57,228.63,126.14Zm4.1,1.23c.29-.32-.36-.67-.17-1,.41-.24,2.17-1.48,1.05-1.36a3.15,3.15,0,0,1-1.81,1.14,2.57,2.57,0,0,0-1.58,1,1,1,0,0,0-1.22-.6c-.43.09-.84.4-.84.72A7.27,7.27,0,0,0,232.73,127.37ZM276.3,94.2c-.45-.59,1.5-1.37,1.24-2-1.19.59,0-.56.06-1.13-5.57,4.08-12.82,7.18-16.65,11.1,1.84-1.9,3.54-1.49,2.94,0,3.92-2.19,2.84-3.85,6.51-6,.64.32,1.19.07.86,1.05C275.11,95.58,275.28,93.15,276.3,94.2Zm-50.78,33.55a3.33,3.33,0,0,1-1.87-.68c-.59-.35-1.12-.63-1.72-.35a15.36,15.36,0,0,1,1.77,1A1.43,1.43,0,0,0,225.52,127.75Zm76.48-52a31.9,31.9,0,0,1-4.75,2.75l-.49.23-.38.16-.7.31a16.35,16.35,0,0,0-1.46.78,3.45,3.45,0,0,1-.46,1.9c-.36-1.64-2.49.66-2.74,1.23,0-1.66-3.24-.92-3.28.53,1.16-.55.22.54.8,1.08,1.88-1.58,1.54.11,1.41.68A8.63,8.63,0,0,0,294,83.81c.79-.48,1.62-1,2.46-1.62l1.22-.88.68-.49.93-.63c2.46-1.65,4.7-3.17,6.21-4s2.28-1,1.8,0a51.47,51.47,0,0,1,5.43-2.72c.93-.46,1.73-.8,2.17-1.06s.52-.46,0-.53c-.37.16-.77.36-1.19.57s-.79.47-1.18.67c-.74.4-1.38.66-1.64.46,2.61-1.66,5.24-2.88,7.74-4.17a77.2,77.2,0,0,1,7.18-3.33c4.53-1.93,8.55-3.43,11.84-5.39a51.68,51.68,0,0,0-6.41,1.2c.17,1.32-1.93,2.22-4.23,3s-4.89,1.52-5.75,1.81c-.14-.6,1.66-1.15,1.8-1.73a10.51,10.51,0,0,0-2.3.81c-.87.46-1.86,1-2.89,1.69s-2.1,1.34-3.18,2c-.54.34-1.06.7-1.58,1l-1.51,1.12c-3.91,2.88-7.06,4.85-6.69,2.23-3.16,1.3-2.57,4-4.45,3.72A3.37,3.37,0,0,0,302,75.79Zm30.57-11.85c.69-.17,1.38-.31,2.07-.45.4.54-.82.69-2,.91s-2.42.47-2,1a58,58,0,0,1,10.45-1.44l1.32,0a11.62,11.62,0,0,0,1.3.08c.87,0,1.72.08,2.55.16a20.25,20.25,0,0,1,2.41.35c.79.13,1.53.35,2.26.52a17.64,17.64,0,0,1,6.75,3.34c2.12-.1,1.17-1.09,2.34-1.1,2.92,1.28,6.06,2.77,9.32,4.56,1.62.91,3.3,1.87,5,2.89s3.33,2.08,5.23,3.2l.69.42.16.09h0l.07,0,.27.1a2.07,2.07,0,0,0,.58.17c.41.08.74.27,1.19.34s.77.28,1.23.38.79.34,1.27.47a2.68,2.68,0,0,1,.83.57c.27.24.54.46.81.69a3.81,3.81,0,0,0,1,.66,4.43,4.43,0,0,0,1.4.25,4.1,4.1,0,0,0,1.48-.32A10.64,10.64,0,0,0,392,81.2a5.66,5.66,0,0,1,1.5-.46,4.15,4.15,0,0,1,1.77-.06,2.86,2.86,0,0,1,1.07-1.5,1.41,1.41,0,0,1,1.81,0c-.55.26-1.43.13-1.43.77.72-.38,2.67-.09,2.57-1.08-1.6.35-.15-.26-.24-.86-2.65.22-4.72,1.12-7,1.7s-4.75.81-6.77-.66c1.18.16.94-.07.42-.46a4,4,0,0,1-1.37-1.15,7.27,7.27,0,0,0-.51.56c-.15.17-.31.36-.49.53a2,2,0,0,1-1.08.66,3,3,0,0,1-.6-.64,2,2,0,0,1-.42-.63l-.14-.36,0-.07s0,0-.11-.15l-.66-.57c-.45-.38-.87-.76-1.29-1.12s-.78-.74-1.17-1.1a80.58,80.58,0,0,0-9.87-8.3c-2.51-.5-4.77-2.06-3.5.4-1.08-1-3.38-1.94-4.56-2.85.63,1.46-1,1.44-3,1a19.41,19.41,0,0,1-5.29-1.82c.55-.67,3.29.32,2.37-1.36-2.71.26-4.25-1.45-6.41-.56,1.33.33,2.12.83,2,1.6a71.28,71.28,0,0,1-8.37-.32C338,62.28,334.73,62.65,332.57,63.94Zm-18.09,3.23c-5,2.81-13.09,6.75-15.89,9.65,2.41-1.62,5.62-3.44,8.61-5.07,1.5-.83,2.92-1.64,4.15-2.44A31.77,31.77,0,0,0,314.48,67.17Zm-59.26,43c1.39-1.32,3-2.67,3.41-3.87-1.42,1.34-6.65,3.42-4.89,3.33C254.45,109.09,254.84,109.61,255.22,110.12ZM386.47,77a5.82,5.82,0,0,1-2.48-.64,2.49,2.49,0,0,0-.53-.16A1.28,1.28,0,0,0,383,76a2,2,0,0,0-.49,0,1,1,0,0,0-.48.07,3.79,3.79,0,0,1,.42.18,1.81,1.81,0,0,1,.48.2,7.59,7.59,0,0,0,1,.49,5.55,5.55,0,0,0,1.22.28A3,3,0,0,0,386.47,77Zm10.2-.67a6.89,6.89,0,0,1-1.42.33c-.5.1-1,.07-1.52.15a5.42,5.42,0,0,0-.72.11,2.67,2.67,0,0,0-.63.1,2,2,0,0,0-1,.57,20.5,20.5,0,0,1,2.83-.3A3.31,3.31,0,0,0,396.67,76.28Zm4.71-.91a6.36,6.36,0,0,1-1.44.11,1.78,1.78,0,0,0-1.4.77,5.59,5.59,0,0,1,1.51-.07A1.45,1.45,0,0,0,401.38,75.37Zm1.3,2.37,10.05-5.55a5.19,5.19,0,0,0-2.63.49c-.58.22-1.21.42-1.84.71s-1.24.55-1.78.81A14.35,14.35,0,0,0,403.59,76C402.84,76.52,402.43,77.15,402.68,77.74ZM222.44,131a17.85,17.85,0,0,0,4.21,1.55,4.87,4.87,0,0,0,4.34-1.48,18.61,18.61,0,0,1-4.6.4A38,38,0,0,1,222.44,131Zm195-61.45c-.88-.82,2.55-1.39.73-2.25a2.64,2.64,0,0,0-1.49,1.46C416.43,69.27,416.6,69.69,417.39,69.53ZM356.5,69c2.3.7,3.7,1.65,4.25,2.63a40.18,40.18,0,0,0-9.62-2.93,45.58,45.58,0,0,0-5-.52c-1.69-.08-3.41,0-5.16,0a89.77,89.77,0,0,0-8.93,1A25.68,25.68,0,0,1,341,67.2c4.77,0,9,.68,14.58,1.43a11.45,11.45,0,0,0-5.11-2.6,18.68,18.68,0,0,0-2.05-.49,16.12,16.12,0,0,0-2.29-.36,43.7,43.7,0,0,0-5.08-.24,42.1,42.1,0,0,0-9.28,1.5c-.38,1.19,1.43.64,3.49.14s4.35-.92,4.59-.22A72.54,72.54,0,0,0,325.4,70c-1.11.4-2.21.84-3.27,1.29L319,72.83A49.41,49.41,0,0,0,313.09,76a57.56,57.56,0,0,1,5.45-2.2c1.82-.67,3.67-1.55,5.92-2.5.17.59-.23,1.16-.63,1.72A50.56,50.56,0,0,1,341,68.51c1.78,0,3.57,0,5.33.11.88.06,1.75.21,2.62.31s1.72.29,2.56.49c-1.13,1.13.52,1.57,2.44,2.09s4.14,1.16,4.3,2c-1.06-.28-2.56-1-4-1.51s-2.7-.76-3.12-.35c1.49,1.09,3.24,2.18,4.84,3.43-1.78-.29-3.67-.49-6-.71-.58,0-1.18-.08-1.8-.13l-2-.07-2.19,0c-.76,0-1.56,0-2.4.1-.18,0-.45,0-.77,0a31.57,31.57,0,0,0-4.05.51c-1.17.27-1.73.53-.55.57a38.48,38.48,0,0,1,4.58-.76,33.31,33.31,0,0,1,7.06.24,36.75,36.75,0,0,1,6.38,1.59A60.46,60.46,0,0,1,367.08,83c.78-1.18-.81-2.55-2.89-3.83s-4.58-2.39-5.67-3.54a63.12,63.12,0,0,1,10.94,6,53.79,53.79,0,0,0,4.74,2.76c2.12,1.11,2.2.76,3.09.65-.31-.25.07-.51.46-.8-.25-.14-.43-.34-.64-.47-.49-.33-1-.62-1.44-.92-1.34-.83-2.42-1.54-3.52-2.23A59.37,59.37,0,0,1,366,76.38c2.15,1.2,4.3,2.52,6.46,3.93,1.11.71,2.11,1.43,3.29,2.16l.87.56.43.28.16.08.51.31a24.44,24.44,0,0,0,4.83,1.89,34.8,34.8,0,0,0,13.12.84c.61-.05,1.21-.14,1.82-.25s1.21-.17,1.83-.32c1.22-.29,2.43-.53,3.62-.92a41.65,41.65,0,0,0,6.78-2.63c1.05-.55,2-1,3.1-1.72.53-.32,1-.63,1.54-1s1-.69,1.47-1c1-.66,1.88-1.47,2.77-2.19s1.7-1.57,2.47-2.33c-1.32,1-2.72,2.24-3.42.77,3.16-2,5.22-3.06,7.79-6.51a33.53,33.53,0,0,1-6.8,4.9A61.12,61.12,0,0,0,412.49,77c-.22-.54.16-1.14-.89-.53l-1.26.73-.62.37-.57.29c-.78.36-1.51.81-2.31,1.12s-1.55.71-2.38,1-1.58.62-2.39.84a43.1,43.1,0,0,1-9.34,1.91,35.75,35.75,0,0,1-8-.15c-.29,0-.59-.08-.89-.11L383,82.3l-.83-.14c-.24-.08-.5-.15-.76-.22s-.52-.1-.77-.18l-.71-.24a6.18,6.18,0,0,1-.73-.23l-.33-.13-.17-.07s0,0-.1,0l-.34-.21.21.16.15.11.08.09.13.2a2.43,2.43,0,0,1,.19.47,2.72,2.72,0,0,1,.22,1c-.17-.27-.4-.48-.56-.78s-.18-.29-.26-.43l-.06-.1a.56.56,0,0,0-.19-.18c-.24-.2-.5-.42-.77-.62-1-.81-2-1.67-3.09-2.52s-2.15-1.7-3.29-2.52C366.51,72.48,361.39,69.85,356.5,69ZM271.15,104c.72-.47,1.6-1.28,2-.94,5.05-3.7,8.46-6.28,3.21-2.91-.84.57-2.35,2.21-3.21,1.8,1.41-.88,2.12-1.69,1.78-2.42C272.41,101.16,272.26,102.55,271.15,104ZM296.39,88.2a28.34,28.34,0,0,1,3.74-2.58c.41-.24.83-.48,1.25-.74l1.7-1L306.51,82c2.26-1.31,4.5-2.47,6.38-3.64.93-.56,1.77-1.13,2.52-1.65a13.29,13.29,0,0,0,1.84-1.41,17.85,17.85,0,0,0-2.65,1.34l-2.86,1.77c-1.88,1.15-3.6,2.08-4.6,2.1,3.37-1.86,3.94-2.31,2.89-2-.51.16-1.42.53-2.57,1s-2.5,1.23-3.93,2c-.71.4-1.44.78-2.18,1.18l-1.09.63-.82.5A19.12,19.12,0,0,0,297,85.59C295.65,86.73,295.15,87.72,296.39,88.2ZM114,124.69c-3.59,2.91-8.17,3.69-9.91,6.57,1-.26,4.12-2.27,6.78-4S115.66,124.07,114,124.69Zm58.87-13.45c.64.15,2.38.43,3.58.63s1.89.25.41-.36a64.37,64.37,0,0,0-21.82-.78c-.13-.69.07-1.57-2.1-1.06a130,130,0,0,0-12.9,3.58c-.81.26-2.51.83-4.47,1.56s-4.2,1.64-6.08,2.48c-.92.43-1.65.8-2.25,1.09a11.57,11.57,0,0,0-1.31.72c-.5.35-.27.36,1.26-.16a11.94,11.94,0,0,0,2.68-.93c1.11-.46,2.31-1,3.43-1.43,2.24-.85,4.2-1.31,4.52-.22-1.25.49-4.92,1.74-8.28,3.32-3.07,1.43-5.72,3.09-6.32,4.3,1.2-.51,1,.57.69,1.15,1.42-.62,2.81-1.22,4.21-1.8s2.71-1.12,4.3-1.74c3.08-1.23,6.08-2.25,9-3.15a88.75,88.75,0,0,1,17-3.6,61.74,61.74,0,0,1,16.57.39,53.79,53.79,0,0,1,16.43,5.66c.4-.4,1.39.08,2.29.48s1.71.71,1.87-.14a20.91,20.91,0,0,0-4.47-3c-.86-.47-1.71-.93-2.45-1.36a11.31,11.31,0,0,1-1.85-1.28c.68-.3,2.25.46,3.75,1.23s2.93,1.64,3.58,1.36a31.54,31.54,0,0,0-8-4.19c-2.49-.75-3.72-.67-1.31,1.32a55,55,0,0,0-12.66-2.78c-4.07-.49-7.67-.65-10.13-1.41C166.05,111,170,111.38,172.87,111.24Zm-89.46,43c1-1.5,3.54-3.16,2.54-4.39-2,2.1-3.14,1.44-4.92,2.84C82.24,154.46,84.49,151.2,83.41,154.25Zm307.45-66a4.31,4.31,0,0,1,2.06,0,16.2,16.2,0,0,1,1.75.76c1.11.48,2.17,1,3.31.11a28,28,0,0,0-3.9-1.24C392.62,87.55,391.31,87.53,390.86,88.29Zm-289.14,50.8c2.86-1.47,8.2-5,7.92-5.7C107.72,134.3,101.23,136.91,101.72,139.09Zm287-50.75a1.24,1.24,0,0,0-1.34.85c.76,0,1.4.11,2,.09s1.05,0,1.43-.08c.74,0,1.11-.16,1.15-.27S390.69,88.53,388.69,88.34Zm-10.5.56a8.29,8.29,0,0,0,1,1.06,6.46,6.46,0,0,0,1.34.81,3.19,3.19,0,0,0,2.63.28c-.48-1-1.38-1.08-2.29-1.24-.46-.07-1-.08-1.43-.19A2.76,2.76,0,0,1,378.19,88.9Zm23.31,2.21c.3-.11.58-.22.4-.56-.64.07-.43-.4-.21-.87a109.52,109.52,0,0,1-15,1.29c.82,1.35,4,1.74,7.16,1.27s6.25-1.42,7-1.43C400.38,91,400.62,91.49,401.5,91.11Zm-260.43,35a31.7,31.7,0,0,1-4.83,1.78c-.71.23-1.45.43-2.16.71a18.47,18.47,0,0,0-2.24,1,17,17,0,0,0,2.35-.28c.95-.18,2.14-.43,3.18-.72C139.43,128,141.2,127.2,141.07,126.07Zm-14.27,9.72,5.14-2.34c1.83-.83,3.72-1.69,5.93-2.6a89.71,89.71,0,0,1,13.78-4.54A55.55,55.55,0,0,1,166,124.82,41.6,41.6,0,0,1,178.15,127a35.26,35.26,0,0,0-11.64-2.91,48.79,48.79,0,0,0-12.43.65,78.16,78.16,0,0,0-11.52,3.09c-1.8.62-3.51,1.28-5.14,1.91s-3.11,1.24-4.54,1.79c-.34-.66,1.77-1.11,1.66-1.77-1.35.9-4.76,1.71-4.55,2.74,2.53-.62,1.65-.06.2.81S126.71,135.35,126.8,135.79Zm23.3-6a72.24,72.24,0,0,0-13.87,4c-4.87,2-9.24,4.67-11.17,7.21,4.34-2.46,8.56-4.5,12.71-6.36S146.11,131.15,150.1,129.76Zm-36.25,20.47c-2.87.9-5.27,3.79-7.12,4.31C109.11,155.3,111.49,152.23,113.85,150.23ZM96.47,170.32c1.82-2.09,5.47-2.48,4.93-4.58C100,166.3,96.27,169.26,96.47,170.32Zm45.38-31.64c.43,1.14,1.32.42.69,1.64a16.34,16.34,0,0,1,3.83-2,13.81,13.81,0,0,0,3-1.45c.77,1.11,2.86.47,5.5-.2s5.86-1.41,8.21-.92a2.43,2.43,0,0,0-1.72-1.22,6.88,6.88,0,0,0-2.35.17c-1.66.41-3.33,1.14-4.67.94.47-.21,1.22-.24,1.22-.68A32.4,32.4,0,0,0,141.85,138.68Zm200.47-37.3a13.74,13.74,0,0,0-2.06,0,9.7,9.7,0,0,0-2.42.51c-.44.14-.55.24-.44.26s1.42-.11,2.84,0c.3,0,.64.08,1,.15-.33.08-.65.18-1,.24-2.44.6-4.79,1-7,1.54s-4.12,1.42-5.3,3c2.43-1.44,1.61-.69.75.61a38.3,38.3,0,0,1,5.21-2.6,21.53,21.53,0,0,1,6.26-1.61c3-.24,5.7.43,7.93.59-1.78-1.12-5.07-2.9-2.43-.52A7.62,7.62,0,0,1,342.32,101.38Zm-29,16.4c3.07-2.47,4.34-3.46,4.09-3.49a37.19,37.19,0,0,0-4.87,2.4c-1,.61-1.2,1.2-1.14,1.81C312.11,118.13,313,117.41,313.35,117.78Zm-1.69,4.34a13.05,13.05,0,0,1,4.29-3.73c1-.61,2.06-1.19,3.19-1.76l1.72-.81.87-.39c.29-.12.47-.17.7-.26l-.73-1.12c-.5.18-1.6.73-2.66,1.24a33.3,33.3,0,0,0-3.31,1.86C313.6,118.55,311.8,120.23,311.66,122.12Zm25.56-16.58c-.5-.41-1.51-.1-2.54.44a30.86,30.86,0,0,1-2.93,1.59c-.22.05-4.51,2.18-5,3.43,1.89-.74,3.56-1.39,5.1-2a33.07,33.07,0,0,1,4.59-1.62c-.05-1.22-1.16-.76-2.29,0s-2.24,1.59-2.7,1A33.57,33.57,0,0,1,337.22,105.54ZM395.35,122a7,7,0,0,1-3.14.43c-1.48-.07-3.25-.22-5-.44s-3.43-.51-4.76-.64-2.3-.17-2.61.21c0-.27-.05-.53-.78-.53a22.72,22.72,0,0,0,3.47,1c1.5.29,3.27.51,5,.67a43.18,43.18,0,0,0,4.86,0A7.71,7.71,0,0,0,395.35,122Zm22.39-4.27c.57-.22,2.21-.77,3.33-1.27s1.75-.9.41-.66c-1.15.51-2.34.91-3.5,1.37l-1.77.66-1.79.58a10.68,10.68,0,0,0-3.69.63c-1.48.38-3.1.93-4.51,1.18a23.35,23.35,0,0,1-3.46,1.45,3.61,3.61,0,0,1-3.19-.22c1-.23,2.39-.3,2.45-.84a132.24,132.24,0,0,1-18,3,61.52,61.52,0,0,0,9.48-.2c1.41-.16,2.76-.3,4.06-.48l3.81-.7A125.26,125.26,0,0,0,417.74,117.69ZM156.53,150c.24-.58-.91-.37-2.21,0s-2.73.82-3.3.5c.17.71-1.07.62-1,1.28A34.4,34.4,0,0,1,156.53,150ZM124.8,167.3c-1.85,2.67-4.06,1.28-5.47,4.26,3,.25,7.65-4.68,9.71-6.83C127.06,167.34,121.42,167,124.8,167.3Zm7.74-3.93c-.83-1.32,3.1-2.43,3.13-3.69-2,.46-6.46,2.4-7.69,4.7C130.44,162.79,129.5,165.88,132.54,163.37ZM149,154.53c-.3.17-.6.38-.91.52s-.65.3-1.06.47c-.9.36-1.8.71-2.65,1.06a12,12,0,0,0-4.24,2.49c.61-.28,1.33-.85,1.68-.45-2.57,1.22-2.75,2.86-3.76,4.36,2.08-1,4.32-2.39,5.87-1.95-3.84,1.74-8.34,5.82-12,7.19,2.09-1.55,6.68-4.52,4.93-5-2.56,2.33-6.1,4.88-6.74,7.45a157.69,157.69,0,0,1,14.59-9.37l1.61-.89,1.56-.81c.48-.25,1-.47,1.44-.71a10.42,10.42,0,0,0,1-.49,41.66,41.66,0,0,1,4.17-1.67,23.61,23.61,0,0,1,9.13-1.29,20.42,20.42,0,0,1,4.83,1,24.55,24.55,0,0,1,4.76,2.32,9.88,9.88,0,0,0-6.07-3.89,32.37,32.37,0,0,0-3.73-.64,24.12,24.12,0,0,1-3.35-.51c1.46,0,2.84.2,3.73-.72a13.8,13.8,0,0,0-4.81-.07,16.64,16.64,0,0,1-4.39.23,18.94,18.94,0,0,0,3.37-.81,8.43,8.43,0,0,1,3.41-.47,3.48,3.48,0,0,0-2.23-1.15c-.63-.15-1.09-.32-1.27-1.38-2.24,1.57-4.84,2.07-7.52,2.76a29.23,29.23,0,0,0-3.88,1.2,18.43,18.43,0,0,0-2.08,1.05,10.69,10.69,0,0,0-1.76,1.3c.62-.26,1.22-.49,1.42.26a10.29,10.29,0,0,0-3.47.86,6.14,6.14,0,0,0-3.09,2.36c1.71-.74,3.69-1.73,5.77-2.64,1-.46,2.11-.9,3.17-1.28a11.09,11.09,0,0,1,1.4-.43C148.15,154.7,148.56,154.6,149,154.53ZM299.8,139.3a16.06,16.06,0,0,0-5.54,3.88,14.76,14.76,0,0,1-4.81,3.56C293.7,146.1,299.2,139.53,299.8,139.3Zm27.81-18.9a6.12,6.12,0,0,0-1.23,1,3.54,3.54,0,0,1-.34.34l-.53.48-1.08,1a15,15,0,0,1-4.25,3,39.87,39.87,0,0,0,5.89-3.24l2.09-1.31c.58-.36,1.12-.68,1.56-.92q2.25-1.19,4.71-2.52a15.66,15.66,0,0,1,5.5-2,9.88,9.88,0,0,1,5.63,1.3c1.69.91,3.22,2,4.79,3,.39.25.82.51,1.17.71l.6.33,1.87,1c1.23.67,2.53,1.16,3.78,1.71a38.64,38.64,0,0,0,3.75,1.46l3.7,1.23c1.22.35,2.42.64,3.59.94,2.36.64,4.63.95,6.78,1.35-2.21-.54-4.48-1-6.84-1.74-1.17-.37-2.37-.69-3.57-1.12s-2.42-.91-3.64-1.38-2.43-1-3.66-1.6-2.47-1.12-3.66-1.84l-1.7-1-.51-.35-1.16-.85a52.64,52.64,0,0,0-4.92-3.47,10,10,0,0,0-5.94-1.49c-2.55.26-4.75,1.55-6.76,2.7S329.32,119.38,327.61,120.4Zm50,9c1.76.09,3.34.28,4.79.43l4.14.4a27,27,0,0,0,4,.05c.69,0,1.4-.11,2.14-.21s1.48-.3,2.26-.51c-1.06-.55-4.79-.67-8.54-.71-1.89-.07-3.78,0-5.37,0A9.22,9.22,0,0,0,377.57,129.45ZM170.83,164.19c.79-.75-.22-.87.35-1.56a29.26,29.26,0,0,0-6.78-3.4,18.26,18.26,0,0,0-8.28-.52,25.25,25.25,0,0,0-4.13,1c-.33.13-.66.24-1,.38l-1,.4-1.38.64-1.49.76A59.21,59.21,0,0,0,136,169.71c1.62-.64,3.4-1.91,5.07-2.77s3.2-1.34,4.34-.6c-3.67,2.31-7.3,4.14-10.85,6.07-1.77,1-3.55,2-5.31,3.09-.88.56-1.75,1.15-2.63,1.8-.42.31-.9.67-1.38,1l-1.41,1.16c.82-.57,1.82-1.66,2.37-1.32,1,1.24-2.81,2.95-1.61,4.17a16.77,16.77,0,0,0,2.64-2.2,3.3,3.3,0,0,1,1.19-.75.71.71,0,0,1,.87.39c-.25.85-1.51,1.91-2.89,2.95a39.64,39.64,0,0,0-4,3.11c2.43-1.58,5.12-3.42,7.49-5.09,2.24-1.51,4.47-3.07,6.75-4.62,4.39-3,8.63-5.69,12.42-7.77l1.39-.75,1.34-.69,1.13-.53.62-.26a17.2,17.2,0,0,1,2.5-.86,8.74,8.74,0,0,1,4.79,0c1-1.07,2.8-.58,4.19.36.73.46,1.36,1,2,1.37a3.38,3.38,0,0,0,1,.44,3.43,3.43,0,0,0,.48.08c.32.14.66.29,1,.4-.2-.21-.43-.45-.62-.62s-.18-.17-.26-.27-.39-.31-.58-.45c-.41-.29-.86-.56-1.29-.83a3.11,3.11,0,0,1-1.69-2.2,3.92,3.92,0,0,1,3.84,1.52c.23.22.41.46.63.64s.22.18.93.73c.29.22.58.42.88.62l.23.15.38.3.84.61a41.49,41.49,0,0,0,3.54,2.24L173.74,168l-1.19-1.19-.4-.4-.28-.33c-.19-.21-.36-.42-.52-.62s-.35-.44-.32-.5A3.31,3.31,0,0,1,170.83,164.19Zm157-36,1.19-.43c.2-.08.41-.16.62-.26a2.45,2.45,0,0,1,.52-.18,5.37,5.37,0,0,0,1.17-.33,4.06,4.06,0,0,0,2-1.69c-.84.64-1.11,0-1.51.91-.26-.52,0-.73-.38-1.35a9.62,9.62,0,0,1-1.67,1,2.11,2.11,0,0,0-.35.26c-.17.16-.35.32-.5.48A6,6,0,0,0,327.81,128.18Zm5.65-4c.72-.18,1.86-.14,2.65-.26s1.32-.47.87-1.66a3.64,3.64,0,0,1,2.85-.55,2.38,2.38,0,0,0,2.4-.57,4.46,4.46,0,0,0-2.37-.7,6.66,6.66,0,0,0-3.67,1.36A19,19,0,0,0,333.46,124.2Zm28,8.28c-1.18-1-3.55-2.17-6.46-3.81l-2.3-1.22c-.81-.42-1.6-.93-2.44-1.41l-.62-.38-.29-.16-.05-.06-.21-.19a3.91,3.91,0,0,0-.54-.43,26.57,26.57,0,0,0-4.58-3,24.1,24.1,0,0,0,3.6,3.82c.28.2.54.41.83.63l.16.12.07.07,0,0,.27.16,2.24,1.25A105,105,0,0,0,361.43,132.48Zm-34.94-2.93c-.52-1.06-1.58-.75-2.88.26C324.14,130.87,325.17,130.52,326.49,129.55ZM413.8,132a150.42,150.42,0,0,0,17.35-5.82c1.42-.64,2.81-1.27,4.17-1.94s2.53-1.36,3.76-2.06,2.34-1.45,3.43-2.21a36.46,36.46,0,0,0,3.06-2.39c-1.85,1.14-3.79,2.2-5.69,3.23L437,122.31l-1.47.74-1.57.72-3.17,1.4c-1.05.45-2.13.85-3.2,1.27-2.13.86-4.31,1.56-6.5,2.28s-4.43,1.33-6.71,1.93-4.59,1.15-7,1.58a124.7,124.7,0,0,1-15.18,2.08c2.78,1.65,6.6,1.68,10.43.92S410.33,133,413.8,132ZM235.25,191.42c.68-.21,1.84-.46,3.12-.74s2.65-.71,3.85-1.06c2.33-.86,3.84-1.59,2-1.68-.13.31-.73.58-1.56.85s-1.94.43-3,.68C237.48,189.91,235.37,190.31,235.25,191.42Zm-78.74-25.35c.87-.64.56,1.66.48,2.19a3.38,3.38,0,0,1,1.78-.56,4,4,0,0,0,1.84-.54c-.34-.34-1-.23-1.51-.08a1.5,1.5,0,0,1-1.65-.29c.07-1,.84-.52,1-1.51C157.91,165.47,156,165.26,156.51,166.07Zm-12.14,7.72c.79.36,2.3-.27,3.64-1.07a11.74,11.74,0,0,0,3-2.38C148.36,171.86,145.31,171.79,144.37,173.79Zm-8.76,6.2a16,16,0,0,0-3.7,2.19,11.31,11.31,0,0,0-.92.76,5.69,5.69,0,0,0-.65.72c-.28.42-.22.69.45.66.17-.25,2.92-2.38,4.88-3.87S138.74,178.06,135.61,180Zm28-12.33c-.39.1-.72-1-1.18,0C162.33,168.46,163,168.46,163.58,167.66Zm-7.63,0c.06.58-.52.71-1,.87s-.84.27-.28.56a2.41,2.41,0,0,1,1.17-.4,1,1,0,0,0,.93-.8C156.47,168.13,156.31,167.13,156,167.62Zm180-36.55c-.3.49-1.44.19-1.14,1.2C335.05,131.78,336.08,132.15,335.91,131.07Zm-4.26,4.74c-1.4,1.21-4.74,2.4-4.84,3.68C328.19,138.25,331.51,137.09,331.65,135.81Zm-94.36,64.27.15,1.34c2.86-.94,6.7-2,10.42-3.29s7.26-3,9.48-4.74c-1.78.8-3.65,1.49-5.48,2.19l-2.76,1c-.45.14-.9.31-1.35.46l-1.35.4-2.57.79c-.86.22-1.65.45-2.43.67C239.83,199.33,238.42,199.66,237.29,200.08Zm55.17-34.78a39.3,39.3,0,0,1-4.06,3.77c-.64.55-1.24,1.08-1.81,1.62s-1,.92-1.43,1.38-1.05,1.09-1.57,1.65a9.09,9.09,0,0,0,1.71-.91c.31-.21.68-.45,1.06-.72l.57-.42.31-.2a14.63,14.63,0,0,0,2.35-1.94C291.1,168.07,292.32,166.36,292.46,165.3Zm186.19-58.46c3.77-3.56,7.64-7.19,9.75-10.26-1.88-.16-3.84,1.67-5.66,4-.87,1.13-1.72,2.37-2.45,3.5S479,106.16,478.65,106.84ZM414.5,77.38c.27-.64-.95-.85,1.2-1.81a1.33,1.33,0,0,1-.33,1.29c.37.4,1-.2,1.55-.48.13,1.16-2.64,1.88-3.68,2.78,1.53-1.67-.38-1.09-1.76-.62-.69.26-1.26.51-1.23.48s.13,0,.51-.2l1.78-.81C412.66,78,413.47,76.52,414.5,77.38ZM54.42,201.26A20.77,20.77,0,0,0,51,205.54C49.25,206.27,53.2,200.44,54.42,201.26Zm83.42-53.72c-.07,0,1.09-.23.22.39a42.15,42.15,0,0,1-6,3.48c-1.35.62-1.41.3,2-1.73A23.5,23.5,0,0,1,137.84,147.54ZM65.49,236.75c-.17-.22.3-.92.88-1.77a17.52,17.52,0,0,0,1.55-2.7C69.16,233.3,66.42,235.58,65.49,236.75Zm17.74-46c2.47-.93-.64,2-1.68,2.83.65.74,1.78-1.44,2.67-1.9,0,.54,0,1.07.67.61-1.29.74-5.78,6.24-6.8,3.36-.45.32-.3.54-.11.74C76.82,194.76,81.31,194.47,83.23,190.76Z"/></clipPath><linearGradient id="Dégradé_sans_nom_2" x1="26.44" y1="983.95" x2="301.13" y2="983.95" gradientTransform="matrix(1.69, -0.5, -0.46, -1.56, 425.17, 1743.8)" gradientUnits="userSpaceOnUse"><stop offset="0" stop-color="#aeb4dc"/><stop offset="0" stop-color="#aeb2db"/><stop offset="0.01" stop-color="#afb1da"/><stop offset="0.01" stop-color="#afb0d9"/><stop offset="0.02" stop-color="#afafd8"/><stop offset="0.02" stop-color="#b0aed7"/><stop offset="0.02" stop-color="#afacd6"/><stop offset="0.03" stop-color="#b0acd6"/><stop offset="0.03" stop-color="#b1acd6"/><stop offset="0.04" stop-color="#b0a9d4"/><stop offset="0.04" stop-color="#b1a8d3"/><stop offset="0.04" stop-color="#b0a7d3"/><stop offset="0.05" stop-color="#b1a6d2"/><stop offset="0.05" stop-color="#b1a6d1"/><stop offset="0.05" stop-color="#b1a4d0"/><stop offset="0.06" stop-color="#b1a3d0"/><stop offset="0.06" stop-color="#b0a2cf"/><stop offset="0.07" stop-color="#b0a1ce"/><stop offset="0.07" stop-color="#b19fcd"/><stop offset="0.07" stop-color="#b09ecd"/><stop offset="0.08" stop-color="#b09dcc"/><stop offset="0.08" stop-color="#b09ccb"/><stop offset="0.09" stop-color="#b09bca"/><stop offset="0.09" stop-color="#b099c9"/><stop offset="0.09" stop-color="#b099c9"/><stop offset="0.1" stop-color="#b098c8"/><stop offset="0.1" stop-color="#b096c7"/><stop offset="0.11" stop-color="#b095c6"/><stop offset="0.11" stop-color="#b195c6"/><stop offset="0.11" stop-color="#b194c5"/><stop offset="0.12" stop-color="#b193c5"/><stop offset="0.12" stop-color="#b193c4"/><stop offset="0.13" stop-color="#b190c2"/><stop offset="0.13" stop-color="#b18fc2"/><stop offset="0.13" stop-color="#b18fc1"/><stop offset="0.14" stop-color="#b18dc0"/><stop offset="0.14" stop-color="#b18dc0"/><stop offset="0.14" stop-color="#b18cbf"/><stop offset="0.15" stop-color="#b18abe"/><stop offset="0.15" stop-color="#b189bd"/><stop offset="0.16" stop-color="#b188bd"/><stop offset="0.16" stop-color="#b287bc"/><stop offset="0.16" stop-color="#b287bc"/><stop offset="0.17" stop-color="#b285ba"/><stop offset="0.17" stop-color="#b284ba"/><stop offset="0.18" stop-color="#b283b9"/><stop offset="0.18" stop-color="#b382b8"/><stop offset="0.18" stop-color="#b382b8"/><stop offset="0.19" stop-color="#b381b8"/><stop offset="0.19" stop-color="#b380b7"/><stop offset="0.2" stop-color="#b47eb6"/><stop offset="0.2" stop-color="#b47eb6"/><stop offset="0.2" stop-color="#b47eb5"/><stop offset="0.21" stop-color="#b47db5"/><stop offset="0.21" stop-color="#b37ab3"/><stop offset="0.21" stop-color="#b47ab3"/><stop offset="0.22" stop-color="#b479b2"/><stop offset="0.22" stop-color="#b478b1"/><stop offset="0.23" stop-color="#b577b1"/><stop offset="0.23" stop-color="#b476b0"/><stop offset="0.23" stop-color="#b474af"/><stop offset="0.24" stop-color="#b574ae"/><stop offset="0.24" stop-color="#b473ae"/><stop offset="0.25" stop-color="#b572ad"/><stop offset="0.25" stop-color="#b472ad"/><stop offset="0.25" stop-color="#b56fac"/><stop offset="0.26" stop-color="#b66fab"/><stop offset="0.26" stop-color="#b66eab"/><stop offset="0.27" stop-color="#b66caa"/><stop offset="0.27" stop-color="#b66ba9"/><stop offset="0.27" stop-color="#b76ca9"/><stop offset="0.28" stop-color="#b76aa8"/><stop offset="0.28" stop-color="#b669a7"/><stop offset="0.29" stop-color="#b868a7"/><stop offset="0.29" stop-color="#b867a6"/><stop offset="0.29" stop-color="#b867a6"/><stop offset="0.3" stop-color="#b966a5"/><stop offset="0.3" stop-color="#b964a4"/><stop offset="0.3" stop-color="#b963a4"/><stop offset="0.31" stop-color="#b962a3"/><stop offset="0.31" stop-color="#ba63a3"/><stop offset="0.32" stop-color="#ba62a3"/><stop offset="0.32" stop-color="#ba60a2"/><stop offset="0.32" stop-color="#ba60a2"/><stop offset="0.33" stop-color="#ba5fa1"/><stop offset="0.33" stop-color="#bc5ea0"/><stop offset="0.34" stop-color="#bc5da0"/><stop offset="0.34" stop-color="#bc5da0"/><stop offset="0.34" stop-color="#bc5c9f"/><stop offset="0.35" stop-color="#bc5b9e"/><stop offset="0.35" stop-color="#be599d"/><stop offset="0.36" stop-color="#be599d"/><stop offset="0.36" stop-color="#be589d"/><stop offset="0.36" stop-color="#bf579c"/><stop offset="0.37" stop-color="#bf569c"/><stop offset="0.37" stop-color="#bf559b"/><stop offset="0.38" stop-color="#c1559b"/><stop offset="0.38" stop-color="#c1559b"/><stop offset="0.38" stop-color="#c2549a"/><stop offset="0.39" stop-color="#c1539a"/><stop offset="0.39" stop-color="#c2539a"/><stop offset="0.39" stop-color="#c45299"/><stop offset="0.4" stop-color="#c35299"/><stop offset="0.4" stop-color="#c55098"/><stop offset="0.41" stop-color="#c55098"/><stop offset="0.41" stop-color="#c54f97"/><stop offset="0.41" stop-color="#c74e97"/><stop offset="0.42" stop-color="#c74e97"/><stop offset="0.42" stop-color="#c84d96"/><stop offset="0.43" stop-color="#c84c96"/><stop offset="0.43" stop-color="#c84c96"/><stop offset="0.43" stop-color="#ca4b95"/><stop offset="0.44" stop-color="#cb4b95"/><stop offset="0.44" stop-color="#cc4a95"/><stop offset="0.45" stop-color="#cd4a95"/><stop offset="0.45" stop-color="#ce4994"/><stop offset="0.45" stop-color="#ce4994"/><stop offset="0.46" stop-color="#cf4894"/><stop offset="0.46" stop-color="#d04894"/><stop offset="0.46" stop-color="#d04793"/><stop offset="0.47" stop-color="#d24793"/><stop offset="0.47" stop-color="#d34692"/><stop offset="0.48" stop-color="#d44592"/><stop offset="0.48" stop-color="#d64592"/><stop offset="0.48" stop-color="#d54592"/><stop offset="0.49" stop-color="#d64491"/><stop offset="0.49" stop-color="#d84491"/><stop offset="0.5" stop-color="#d84391"/><stop offset="0.5" stop-color="#d94190"/><stop offset="0.5" stop-color="#d94190"/><stop offset="0.51" stop-color="#db4190"/><stop offset="0.51" stop-color="#dc4090"/><stop offset="0.52" stop-color="#dd4090"/><stop offset="0.52" stop-color="#de4090"/><stop offset="0.52" stop-color="#de4090"/><stop offset="0.53" stop-color="#df4090"/><stop offset="0.53" stop-color="#df4090"/><stop offset="0.54" stop-color="#e1408f"/><stop offset="0.54" stop-color="#e2408f"/><stop offset="0.54" stop-color="#e2408f"/><stop offset="0.55" stop-color="#e4408f"/><stop offset="0.55" stop-color="#e44190"/><stop offset="0.55" stop-color="#e64190"/><stop offset="0.56" stop-color="#e64290"/><stop offset="0.56" stop-color="#e74190"/><stop offset="0.57" stop-color="#e74290"/><stop offset="0.57" stop-color="#e94491"/><stop offset="0.57" stop-color="#e94391"/><stop offset="0.58" stop-color="#e94391"/><stop offset="0.58" stop-color="#e94591"/><stop offset="0.59" stop-color="#e94692"/><stop offset="0.59" stop-color="#e94692"/><stop offset="0.59" stop-color="#e94793"/><stop offset="0.6" stop-color="#e94793"/><stop offset="0.6" stop-color="#e94793"/><stop offset="0.61" stop-color="#ea4993"/><stop offset="0.61" stop-color="#ea4993"/><stop offset="0.61" stop-color="#ea4b94"/><stop offset="0.62" stop-color="#ea4c95"/><stop offset="0.62" stop-color="#ea4c95"/><stop offset="0.63" stop-color="#ea4e95"/><stop offset="0.63" stop-color="#ea4f95"/><stop offset="0.63" stop-color="#ea5095"/><stop offset="0.64" stop-color="#ea5194"/><stop offset="0.64" stop-color="#ea5393"/><stop offset="0.64" stop-color="#ea5493"/><stop offset="0.65" stop-color="#eb5793"/><stop offset="0.65" stop-color="#eb5792"/><stop offset="0.66" stop-color="#eb5a93"/><stop offset="0.66" stop-color="#eb5c92"/><stop offset="0.66" stop-color="#eb5c92"/><stop offset="0.67" stop-color="#eb5d91"/><stop offset="0.67" stop-color="#eb5e90"/><stop offset="0.68" stop-color="#ec5f90"/><stop offset="0.68" stop-color="#ec6290"/><stop offset="0.68" stop-color="#ec638f"/><stop offset="0.69" stop-color="#ec648e"/><stop offset="0.69" stop-color="#ec668f"/><stop offset="0.7" stop-color="#ed678d"/><stop offset="0.7" stop-color="#ed698e"/><stop offset="0.7" stop-color="#ed6b8d"/><stop offset="0.71" stop-color="#ed6c8d"/><stop offset="0.71" stop-color="#ed6e8c"/><stop offset="0.71" stop-color="#ee708b"/><stop offset="0.72" stop-color="#ee708b"/><stop offset="0.72" stop-color="#ee738a"/><stop offset="0.73" stop-color="#ee758a"/><stop offset="0.73" stop-color="#ee7689"/><stop offset="0.73" stop-color="#ee7889"/><stop offset="0.74" stop-color="#ef7987"/><stop offset="0.74" stop-color="#ef7b88"/><stop offset="0.75" stop-color="#ef7c87"/><stop offset="0.75" stop-color="#ef7d86"/><stop offset="0.75" stop-color="#ef7e85"/><stop offset="0.76" stop-color="#f08085"/><stop offset="0.76" stop-color="#f08285"/><stop offset="0.77" stop-color="#f08384"/><stop offset="0.77" stop-color="#f08584"/><stop offset="0.77" stop-color="#f08683"/><stop offset="0.78" stop-color="#f18983"/><stop offset="0.78" stop-color="#f18b83"/><stop offset="0.79" stop-color="#f18c82"/><stop offset="0.79" stop-color="#f28e81"/><stop offset="0.79" stop-color="#f28f81"/><stop offset="0.8" stop-color="#f29081"/><stop offset="0.8" stop-color="#f29380"/><stop offset="0.8" stop-color="#f2947f"/><stop offset="0.81" stop-color="#f3957e"/><stop offset="0.81" stop-color="#f3977f"/><stop offset="0.82" stop-color="#f3997e"/><stop offset="0.82" stop-color="#f49b7d"/><stop offset="0.82" stop-color="#f49d7d"/><stop offset="0.83" stop-color="#f49f7c"/><stop offset="0.83" stop-color="#f4a07c"/><stop offset="0.84" stop-color="#f5a27b"/><stop offset="0.84" stop-color="#f5a27a"/><stop offset="0.84" stop-color="#f5a57a"/><stop offset="0.85" stop-color="#f5a77a"/><stop offset="0.85" stop-color="#f6a879"/><stop offset="0.86" stop-color="#f6a978"/><stop offset="0.86" stop-color="#f6ac78"/><stop offset="0.86" stop-color="#f7ad78"/><stop offset="0.87" stop-color="#f7b078"/><stop offset="0.87" stop-color="#f8b276"/><stop offset="0.88" stop-color="#f8b276"/><stop offset="0.88" stop-color="#f8b575"/><stop offset="0.88" stop-color="#f9b675"/><stop offset="0.89" stop-color="#f9b774"/><stop offset="0.89" stop-color="#f9ba73"/><stop offset="0.89" stop-color="#fabb72"/><stop offset="0.9" stop-color="#fabc71"/><stop offset="0.9" stop-color="#fabe71"/><stop offset="0.91" stop-color="#fbc06f"/><stop offset="0.91" stop-color="#fbc170"/><stop offset="0.91" stop-color="#fbc36f"/><stop offset="0.92" stop-color="#fcc570"/><stop offset="0.92" stop-color="#fcc770"/><stop offset="0.93" stop-color="#fcc96e"/><stop offset="0.93" stop-color="#fdca6f"/><stop offset="0.93" stop-color="#fdcc6c"/><stop offset="0.94" stop-color="#fece6d"/><stop offset="0.94" stop-color="#fecf6b"/><stop offset="0.95" stop-color="#fed26b"/><stop offset="0.95" stop-color="#ffd46b"/><stop offset="0.95" stop-color="#ffd46b"/><stop offset="0.96" stop-color="#ffd769"/><stop offset="0.96" stop-color="#ffd868"/><stop offset="0.96" stop-color="#fed968"/><stop offset="0.97" stop-color="#fedb66"/><stop offset="0.97" stop-color="#fedd67"/><stop offset="0.98" stop-color="#fede67"/><stop offset="0.98" stop-color="#fee066"/><stop offset="0.98" stop-color="#fee165"/><stop offset="0.99" stop-color="#fee364"/><stop offset="0.99" stop-color="#ffe663"/><stop offset="1" stop-color="#ffe762"/><stop offset="1" stop-color="#ffe963"/></linearGradient><radialGradient id="radial-gradient" cx="4130.97" cy="-317.89" r="17.55" gradientTransform="matrix(0.38, 0.02, -0.02, 0.35, -1274.93, 140.49)" gradientUnits="userSpaceOnUse"><stop offset="0" stop-color="#f0807a"/><stop offset="1" stop-color="#f4a395"/></radialGradient></defs><g class="cls-2"><g id="Calque_2" data-name="Calque 2"><g id="Calque_1-2" data-name="Calque 1"><g class="cls-3"><g class="cls-4"><path class="cls-5" d="M0,136.79l37,125.66L500.7,125.81,463.66.15Z" transform="translate(-0.04 -0.15)"/></g></g><path class="cls-6" d="M371.1,310.28c43.61,0,79,36.36,79,81.22s-35.37,81.21-79,81.21-79-36.36-79-81.21S327.47,310.28,371.1,310.28ZM302.5,391.5c0,38.95,30.71,70.52,68.6,70.52s68.59-31.57,68.59-70.52S409,321,371.1,321,302.5,352.54,302.5,391.5Z" transform="translate(-0.04 -0.15)"/><path class="cls-7" d="M302.5,391.5c0,38.95,30.71,70.52,68.6,70.52s68.59-31.57,68.59-70.52S409,321,371.1,321,302.5,352.54,302.5,391.5Zm3.9-1a67.63,67.63,0,0,1,8.19-31.47l48.06,28.53a9.34,9.34,0,0,0-.79,2.94Zm55.45,1.92a9.71,9.71,0,0,0,.77,3l-48,28.52a67.69,67.69,0,0,1-8.19-31.47Zm-23.92-58.1,27.76,49.44a9.39,9.39,0,0,0-2.09,2.13l-48.08-28.53A66,66,0,0,1,337.93,334.35Zm32.23,47.71a9.05,9.05,0,0,0-2.84.77l-27.76-49.44a63,63,0,0,1,30.6-8.42Zm4.74,18.12,27.74,49.41A62.88,62.88,0,0,1,372,458V401A9,9,0,0,0,374.9,400.18Zm0-17.32a8.76,8.76,0,0,0-2.83-.79V325a63.13,63.13,0,0,1,30.61,8.42ZM370.16,458a63.16,63.16,0,0,1-30.61-8.42l27.74-49.39a9,9,0,0,0,2.87.79Zm56.51-100.63L378.56,386a9.73,9.73,0,0,0-2.07-2.13l27.77-49.47A65.86,65.86,0,0,1,426.67,357.39Zm-47.18,30.23,48.12-28.56a67.87,67.87,0,0,1,8.19,31.47H380.27A9.41,9.41,0,0,0,379.49,387.62Zm.79,4.83H435.8a67.63,67.63,0,0,1-8.19,31.47l-48.08-28.54A9.79,9.79,0,0,0,380.28,392.45Zm24,56.19-27.75-49.43a9.24,9.24,0,0,0,2.07-2.16l48.09,28.54A66.15,66.15,0,0,1,404.27,448.64Zm-88.75-23,48-28.52a9.41,9.41,0,0,0,2.11,2.16l-27.73,49.4A66,66,0,0,1,315.52,425.6Z" transform="translate(-0.04 -0.15)"/><path class="cls-8" d="M483.24,459.4c-2.09-15.86-5.27-40-7.53-55.56h0c-2.26-15.53-5.91-39.49-7.3-46.34h0c-1.16-5.7-3.52-9.85-7.09-12.87h0c-3.57-3-8.48-4.76-14.58-4.75h0c-.72,0-1.46,0-2.21.07h-.12l-88.11,1.92h0c-7.52,0-13.31-1.21-17.83-5.49h0c-4.53-4.36-6.72-11.28-7.76-20h0c-2.19-20.35-15.24-142.74-16.7-157.22h0c-.47-4.53-1.94-8-4.17-10.42h0a12.3,12.3,0,0,0-9.39-4h0a17.87,17.87,0,0,0-3.09.29h0c-4.89.9-42.8,7-42.81,7a4.86,4.86,0,0,1-4.12-4.2c-.75-3.95,3.24-5.33,3.24-5.33l27.52-4.39h0s10.41-1.68,15.17-2.55h0a23.24,23.24,0,0,1,4.09-.38h0a18.54,18.54,0,0,1,14,6.19h0c3.7,4,6.08,9.88,6.74,16.54h0c1.45,14.34,14.48,137.06,16.68,157h0c1,7.69,2.51,11.48,4.86,13.74h0c2.36,2.34,6.58,3.68,13.56,3.65h0c7.86-.18,29.94-.47,49.94-1h0c20-.48,38-.95,38-.95h0c.83-.06,1.65-.09,2.47-.09h0c7.13,0,13.43,2,18.47,6.24h0c5,4.18,8.65,10.63,10.21,18.51h0c3,14.91,12.89,87.07,15,103C490.42,458,483.86,458.88,483.24,459.4Z" transform="translate(-0.04 -0.15)"/><path class="cls-8" d="M450.15,281.44c0-12.72-7.79-23-17.42-23H320.13V268h112.6c5.61,0,10.15,6,10.16,13.43h0V339.6h7.26Z" transform="translate(-0.04 -0.15)"/><path class="cls-9" d="M204.52,311.47c-1.72,0-3.42,2-3,5.55,1.39,11.75,6.16,17.82,16.2,19.26,5.07.73,28.42-.16,39.18-.16s44.87-1.43,53.09-1.43,12.71,1.28,15.24,2.55a7.73,7.73,0,0,0,3.61,1.13H461.62c1,0,1.7-.63,1.95-2.25a7.86,7.86,0,0,0-4.47-7.83c-3.14-1.6-9.56-2.78-15.72-2.72-7.26.08-40.64,1.12-54.06,1.44s-32.65,1-38.58.48-8.89-6.56-10.4-12.87c-.52-2.19-1.78-3.18-3-3.14Z" transform="translate(-0.04 -0.15)"/><path class="cls-8" d="M351.26,464.26c-2.08-15.86-6.19-44.86-8.45-60.42h0c-2.26-15.53-5.91-39.49-7.3-46.34h0c-1.16-5.7-3.52-9.85-7.09-12.87h0c-3.56-3-8.48-4.76-14.58-4.75h0c-.72,0-1.45,0-2.21.07h-.11l-88.11,1.92h0c-7.53,0-13.32-1.21-17.83-5.49h0c-4.53-4.36-6.72-11.28-7.76-20h0c-2.2-20.35-15.25-142.74-16.71-157.22h0c-.47-4.53-1.93-8-4.16-10.42h0a12.34,12.34,0,0,0-9.4-4h0a17.87,17.87,0,0,0-3.09.29h0c-4.89.9-51.17,9.22-51.18,9.22s-4.1-.52-4.86-4.16,3.64-5.3,3.64-5.3l36.23-6.71h0s10.41-1.68,15.18-2.55h0a23.13,23.13,0,0,1,4.08-.38h0a18.57,18.57,0,0,1,14,6.19h0c3.7,4,6.08,9.88,6.73,16.54h0c1.46,14.34,14.49,137.06,16.68,157h0c1,7.69,2.52,11.48,4.86,13.74h0c2.36,2.34,6.58,3.68,13.57,3.65h0c7.86-.18,29.94-.47,49.94-1h0c20-.48,38-.95,38-.95h0c.84-.06,1.66-.09,2.47-.09h0c7.14,0,13.44,2,18.47,6.24h0c5,4.18,8.65,10.63,10.22,18.51h0c3,14.91,13.82,91.93,15.92,107.86C358.45,462.89,351.88,463.74,351.26,464.26Z" transform="translate(-0.04 -0.15)"/><path class="cls-7" d="M165.14,391.5c0,38.95,30.72,70.52,68.6,70.52s68.59-31.57,68.59-70.52S271.62,321,233.74,321,165.14,352.54,165.14,391.5Zm3.9-1a67.63,67.63,0,0,1,8.19-31.47l48.06,28.53a9.34,9.34,0,0,0-.79,2.94Zm55.45,1.92a9.71,9.71,0,0,0,.77,3l-48,28.52A67.69,67.69,0,0,1,169,392.46Zm-23.92-58.1,27.76,49.44a9.39,9.39,0,0,0-2.09,2.13l-48.08-28.53A66,66,0,0,1,200.57,334.35Zm32.23,47.71a9.05,9.05,0,0,0-2.84.77L202.2,333.39A63,63,0,0,1,232.8,325Zm4.74,18.12,27.75,49.41A62.94,62.94,0,0,1,234.68,458V401A9,9,0,0,0,237.54,400.18Zm0-17.32a8.76,8.76,0,0,0-2.83-.79V325a63.12,63.12,0,0,1,30.6,8.42ZM232.81,458a63.17,63.17,0,0,1-30.62-8.42l27.74-49.39a9,9,0,0,0,2.87.79Zm56.51-100.63L241.2,386a9.73,9.73,0,0,0-2.07-2.13l27.78-49.47A66,66,0,0,1,289.32,357.39Zm-47.18,30.23,48.11-28.56a67.63,67.63,0,0,1,8.19,31.47H242.91A9.4,9.4,0,0,0,242.14,387.62Zm.78,4.83h55.52a67.63,67.63,0,0,1-8.19,31.47l-48.08-28.54A9.79,9.79,0,0,0,242.92,392.45Zm24,56.19-27.75-49.43a9.48,9.48,0,0,0,2.08-2.16l48.08,28.54A66,66,0,0,1,266.91,448.64Zm-88.75-23,48-28.52a9.21,9.21,0,0,0,2.11,2.16l-27.74,49.4A66.11,66.11,0,0,1,178.16,425.6Z" transform="translate(-0.04 -0.15)"/><path class="cls-9" d="M190.51,157.2c-1.49.33-8.15,2.19-9.22,2.49s-1.42,1.19-1.3,2.63l10.64,101.37c.16,1.6,1.21,2.56,2.3,2.4H324.41c1.09-.16,8-1.84,9-2.15s1.79-1.66,1.61-3.52c-.28-2.73-10.69-101.15-10.69-101.15-.2-1.56-.86-2.39-2.31-2.07Z" transform="translate(-0.04 -0.15)"/><path class="cls-9" d="M351.53,470.48c-2.5.23-4.66-2.27-4.84-5.57a6.78,6.78,0,0,1,2.1-5.47,3.83,3.83,0,0,1,2.12-.92l5.06-.45,157.09-4.53c2.15.29,3.9,2.6,4.05,5.56.18,3.3-1.71,6.17-4.21,6.39Z" transform="translate(-0.04 -0.15)"/><path class="cls-6" d="M233.74,310.28c43.62,0,79,36.36,79,81.22s-35.37,81.21-79,81.21-79-36.36-79-81.21S190.12,310.28,233.74,310.28Zm-68.6,81.22c0,38.95,30.72,70.52,68.6,70.52s68.59-31.57,68.59-70.52S271.62,321,233.74,321,165.14,352.54,165.14,391.5Z" transform="translate(-0.04 -0.15)"/><path class="cls-10" d="M428.76,186.38a20,20,0,0,0-4.07,8.26s-15.41,7.06-15.81,8.3,3.21,7.63,4.42,7.83S427.35,204,427.35,204s7.89-1.55,13.9-3.45a47.69,47.69,0,0,0,13.35-7.37c1.54-1.21,4.8-2.91,4-4.17-.66-1.07-7.62,3-9.62,4.19-.35.2-.4-.51-.4-.51s11.19-6.73,12.92-8.51,1.89-2.82.61-2.89c-2-.1-15.22,8-15.22,8s-.67-.18-.35-.41c2.51-1.84,14.14-10.21,14.48-11.81s-1.74-1.34-4.23,0c-1.76.94-10.77,7.34-12.81,8.82-.27.2-.53-.38-.53-.38s9.72-6.61,10.95-9.72c.81-2-1.34-1.39-3.72-.21a73.54,73.54,0,0,0-7.09,5c-3.34,2.62-8.43,6-8.08,5.1.19-.46.27-.65,2.32-2.23,1.89-1.45,5.23-4.91,3.43-5.56C439.82,177.33,431.52,183.32,428.76,186.38Z" transform="translate(-0.04 -0.15)"/><path class="cls-11" d="M323.82,163.41c6.38.75,42.2,52.37,43.78,58.82,1.44,5.89,3,10-.27,12.47-3.83,2.91-7.89,8-20.11-3.53-3.18-3-32.2-31-32.2-31s-13.22-13.43-10.73-24.95S321,163.08,323.82,163.41Z" transform="translate(-0.04 -0.15)"/><path class="cls-11" d="M316.92,181.31c2.18.78,29.51,45.29,39.66,44.62,3.79-.25,7.53,9.89,3.86,10.89-4.85,1.31-3.66,3.78-13.22-5.65-3.1-3.06-32.2-31-32.2-31S314.27,180.37,316.92,181.31Z" transform="translate(-0.04 -0.15)"/><path class="cls-12" d="M255.56,253.78c-.48,2.27-2.55,8-2.55,8s21.65,5.3,36.26,3.75a79.2,79.2,0,0,0,26.44-7.32l-6.86-6.66a152.79,152.79,0,0,1-18.71,2.28C280.66,254.31,255.56,253.78,255.56,253.78Z" transform="translate(-0.04 -0.15)"/><path class="cls-11" d="M218,160c-9.82,9.49-17.13,67.24-16.07,70.36s6,7.43,14.42,7.8a39.48,39.48,0,0,0,18.37-3.56s9.45-46.95,12.48-53.32,1.41-11.91-6.05-20.27S222.21,155.89,218,160Z" transform="translate(-0.04 -0.15)"/><path class="cls-11" d="M358.71,219.25c4.82-3.74,66.56-25.27,66.56-25.27l2.08,10s-57.13,33.26-62.2,34.52c-5.82,1.44-10.77-.08-12-2.19C350.56,230.76,354,222.88,358.71,219.25Z" transform="translate(-0.04 -0.15)"/><path class="cls-13" d="M274.59,142.27s1.1.76,6.16,1.3,6.15,0,6.15,0a9.54,9.54,0,0,1-6.43,1.26A9.65,9.65,0,0,1,274.59,142.27Z" transform="translate(-0.04 -0.15)"/><path class="cls-11" d="M427.35,204s-57.08,33.44-62.2,34.52c-18.27,3.84-15.64-14.57-11.2-13.23C363.79,228.26,427.35,204,427.35,204Z" transform="translate(-0.04 -0.15)"/><path class="cls-11" d="M223.44,235.8c8.35.43,10.18-9,10.18-9s10.35-34.58,12.73-40.53S233.89,218.46,223.44,235.8Z" transform="translate(-0.04 -0.15)"/><path class="cls-14" d="M442.81,185a27,27,0,0,1,3.61,3.93,23,23,0,0,1,2.81,5.32" transform="translate(-0.04 -0.15)"/><path class="cls-14" d="M435.47,185.89a10.67,10.67,0,0,1,0,4,15.8,15.8,0,0,1-1.41,3.26" transform="translate(-0.04 -0.15)"/><path class="cls-15" d="M471.61,434.59c-8.73.73-17.14.41-18.23,3.07s-3.92,19.42-3.92,19.42l17.63,1.61,2.81-1.86,13.68,3.36,27.56,2.5.51-4.86S489.16,449,485.51,446C481,442.26,471.61,434.59,471.61,434.59Z" transform="translate(-0.04 -0.15)"/><path class="cls-16" d="M430.56,320,444,436s21.86,3,36.61-2l-9.26-117.1Z" transform="translate(-0.04 -0.15)"/><ellipse class="cls-16" cx="450.89" cy="318.29" rx="20.44" ry="17.75"/><ellipse class="cls-16" cx="443.64" cy="317.06" rx="20.44" ry="18.76"/><path class="cls-16" d="M353,266c12.92,3,20.72,15.06,17.43,26.91s-16.43,19-29.34,16S320.42,293.82,323.71,282,340.13,263,353,266Z" transform="translate(-0.04 -0.15)"/><polygon class="cls-16" points="448.69 298.89 353 265.83 341.09 308.74 438.6 335.24 448.69 298.89"/><polygon class="cls-17" points="365.5 428.42 363.3 440.04 365.64 447.61 380.89 443.33 385.29 434.71 388.23 421.31 365.5 428.42"/><path class="cls-16" d="M375.23,307.85l-13,123s16.36,6.84,32,4.88l21.43-122.41Z" transform="translate(-0.04 -0.15)"/><ellipse class="cls-16" cx="395.4" cy="310.46" rx="20.44" ry="18.76"/><ellipse class="cls-16" cx="388.17" cy="317.06" rx="20.44" ry="18.76"/><path class="cls-16" d="M287,266c12.92,3,20.72,15.06,17.43,26.91s-16.43,19-29.34,16S254.41,293.82,257.7,282,274.12,263,287,266Z" transform="translate(-0.04 -0.15)"/><polygon class="cls-16" points="393.21 298.89 286.99 265.83 275.08 308.74 383.12 335.24 393.21 298.89"/><path class="cls-16" d="M252.6,263.81h93.18v21.41h0c-.09,11.68-10.23,21.12-22.74,21.12H275.42a23,23,0,0,1-2.61-.13c-11.55-1.25-20.05-10.38-20.12-21h-.09Z" transform="translate(-0.04 -0.15)"/><path class="cls-11" d="M323.82,163.41a12.24,12.24,0,0,1-4.25,17,12.66,12.66,0,0,1-17.22-4.18,12.22,12.22,0,0,1,4.24-16.94A12.67,12.67,0,0,1,323.82,163.41Z" transform="translate(-0.04 -0.15)"/><path class="cls-11" d="M238.82,177.27c-5.23,35.6,16,84.33,16,84.33s47.89,5.89,79.92,0l-19-39.6-.07-56,7.2-2.38c-9-8.24-37.65-24.57-46.53-23.19-14,2.17-52.81,12.71-53.85,16.57Z" transform="translate(-0.04 -0.15)"/><ellipse class="cls-11" cx="237.42" cy="169.8" rx="12.55" ry="12.34"/><path class="cls-10" d="M284.16,248.82s-11.22-3.57-12.5-2.87-2.55,7.41-1.79,8.35,10.79,3.54,10.79,3.54,1.8,2.92,8.32,3.82c3.87.53,9.09-.67,11.87-.63,3.64.05,7.21,1.09,7.6-.39s-8-2.77-10.67-2.4c-.32,0-.11-.5-.11-.5a28.52,28.52,0,0,1,7.66-.43c2.66.4,8.08,2.89,8.81,1,.37-1-.66-2.56-7-3.79-5.89-1.14-7.08-1-7.08-1s-.48-.36.2-.53a18.49,18.49,0,0,1,7.53.21c3.58.73,6.82,4.06,9.64,2.36,1.89-1.15-3.82-4.56-8.42-5.52a37.85,37.85,0,0,0-8.32-.76c-.84.07.1-.67.1-.67a31.73,31.73,0,0,1,5.36,0c3.66.3,8.43,3.06,10.22,2.1,2.38-1.27-5.31-5.82-10.94-5.81C296,244.93,284.16,248.82,284.16,248.82Z" transform="translate(-0.04 -0.15)"/><path class="cls-11" d="M208.34,249.06c9,6.19,77.66,12,77.66,12l-1.84-12.22s-47.33-18.5-55-20-25.81-3.82-27.28,1.5S204.25,246.26,208.34,249.06Z" transform="translate(-0.04 -0.15)"/><path class="cls-10" d="M297,96.61,262.57,91l-7.84,54.54s2.94,7.25,14.92,8.19,14-4.8,14-4.8Z" transform="translate(-0.04 -0.15)"/><path class="cls-18" d="M265.13,262H307a0,0,0,0,1,0,0v4.38a0,0,0,0,1,0,0H266.55a1.43,1.43,0,0,1-1.43-1.43v-3A0,0,0,0,1,265.13,262Z"/><path class="cls-18" d="M377.36,266.51H303.68a1.81,1.81,0,0,1-1.95-2L308,217.3a5,5,0,0,1,5-4h69.24c2.45,0,4.2,1.78,3.91,4l-6.22,47.22A2.49,2.49,0,0,1,377.36,266.51Z" transform="translate(-0.04 -0.15)"/><ellipse class="cls-19" cx="345.77" cy="238.51" rx="4.42" ry="3.98"/><path class="cls-8" d="M317.25,281.44c0-12.72-7.79-23-17.41-23H187.23V268H299.84c5.61,0,10.15,6,10.15,13.43h0V339.6h7.26Z" transform="translate(-0.04 -0.15)"/><path class="cls-15" d="M380.41,440.21c-9,.61-17.59.24-18.68,2.72s-3.84,18.19-3.84,18.19L376,462.76l2.86-1.71,14.07,3.25,28.29,2.58.48-4.55s-23.16-8.47-26.93-11.31C390.67,447.92,390.71,448,380.41,440.21Z" transform="translate(-0.04 -0.15)"/><path class="cls-20" d="M276.06,163.91l-8-8.06,8.95-1.61,9.12,1.36-2.41,7c6.93,9,18.61,38,12.68,72.74l-12,8.43-14.13-9.07c9.72-25,8.36-58.45,5.85-70.77Z" transform="translate(-0.04 -0.15)"/><path class="cls-21" d="M279.81,160.44l3.44,2.6s23.19,30.85,13.15,72.27l-12,8.43-11.53-7.18c15.2-33,4.52-74.31,4.52-74.31Z" transform="translate(-0.04 -0.15)"/><polygon class="cls-21" points="288.1 159.47 285.18 166.62 278.38 167.16 271.83 159.03 280.01 157.8 288.1 159.47"/><path class="cls-18" d="M295.29,156.63c-3.74-11.26-10.35-13.3-10.35-13.3s-.7,11.77-11.56,10.78c-12.3-1.13-20.17-13.93-20.17-13.93a24.34,24.34,0,0,0-4.41,10C247.6,156.32,261,171.6,261,171.6s8-14.07,19.63-13.23,14,12.61,14,12.61S297.71,163.93,295.29,156.63Z" transform="translate(-0.04 -0.15)"/><ellipse class="cls-22" cx="297.72" cy="96.05" rx="6.98" ry="6.39"/><ellipse class="cls-10" cx="275.38" cy="106.86" rx="27.25" ry="25.04"/><path class="cls-10" d="M306.4,121.48l-4.64-9.77c.2-2.77-1.84-5.23-1.76-6.44.82-11.54-5.54-15.63-18.14-16.38s-22.76,2.67-23.58,14.22c-.2,2.82,9.91,9.64,9.71,12.47-.5,7-2.57,17.25,2.94,21.38,3.34,2.51,11.38,9.35,21.13,9.93,7.4.45,7.26-5.09,7.74-11.87,0,0,3.2-1.28.49-3.74,0,0,2-.12,2.08-1.49a15.81,15.81,0,0,0-.58-3.45c.28,0,1.3-.19,1.57-.28h0C306,125.23,307.31,123.86,306.4,121.48Z" transform="translate(-0.04 -0.15)"/><path class="cls-22" d="M300.92,132.15c-.31,0-.62,0-.92,0a15.28,15.28,0,0,1-4.5-.9.53.53,0,0,1-.31-.73.61.61,0,0,1,.79-.28,15,15,0,0,0,5,.84Z" transform="translate(-0.04 -0.15)"/><path class="cls-23" d="M282.63,123.15c.12-3.51,3.45-6.19,7.26-5.85a6.3,6.3,0,0,1,6,6.24c-.12,3.51-3.45,6.19-7.27,5.85A6.3,6.3,0,0,1,282.63,123.15Z" transform="translate(-0.04 -0.15)"/><path class="cls-22" d="M298.24,112.24a1.59,1.59,0,0,0-2,.87,1.41,1.41,0,0,0,.86,1.78h0a.8.8,0,0,0,.93-.3c.27-.41.54-.82.8-1.25a.67.67,0,0,0-.21-.91A1.42,1.42,0,0,0,298.24,112.24Z" transform="translate(-0.04 -0.15)"/><ellipse class="cls-22" cx="280.74" cy="89.84" rx="9.33" ry="23.9" transform="translate(174.94 364.83) rotate(-86.72)"/><ellipse class="cls-22" cx="262.09" cy="80.06" rx="5.7" ry="5.22"/><ellipse class="cls-22" cx="263.63" cy="90.8" rx="6.74" ry="6.18"/><path class="cls-22" d="M271.09,98.36a5.1,5.1,0,0,1,5.56-4.47,5,5,0,0,1,4.88,5.1,5.1,5.1,0,0,1-5.56,4.47A5,5,0,0,1,271.09,98.36Z" transform="translate(-0.04 -0.15)"/><ellipse class="cls-22" cx="291.84" cy="79.44" rx="5.23" ry="4.79"/><ellipse class="cls-22" cx="290.9" cy="83.62" rx="6.74" ry="6.18"/><path class="cls-22" d="M274.36,79.74A6.57,6.57,0,0,1,281.52,74a6.39,6.39,0,0,1,6.29,6.57,6.56,6.56,0,0,1-7.16,5.76A6.38,6.38,0,0,1,274.36,79.74Z" transform="translate(-0.04 -0.15)"/><ellipse class="cls-22" cx="271.67" cy="77.41" rx="6.74" ry="6.18"/><ellipse class="cls-22" cx="297.82" cy="85.93" rx="8.72" ry="7.99"/><path class="cls-22" d="M260.84,80.09c-8.25-.49-17.44,8.68-18.09,17.88-1.16,16.42,13.33,20.57,12.62,30.59l1.49.09,0,0a17.57,17.57,0,0,0,4.34-10.28l.55-7.7a3.69,3.69,0,0,1,4-3.24h0a3.88,3.88,0,0,1,2.84,1.45c1-1.43,1.7-1.32,1.7-1.32l14-13.32Z" transform="translate(-0.04 -0.15)"/><polygon class="cls-22" points="278.08 96.98 273.62 124.28 268.73 119.71 269.48 101.33 278.08 96.98"/><path class="cls-10" d="M269.71,116.53a2.38,2.38,0,0,1-3.35,1.85,5.12,5.12,0,0,1-2.78-2.76c-.25-.6-1.18-2.9-1.43-3.53a4.82,4.82,0,0,1,3.16-6.34,6,6,0,0,1,1.55-.3,3.13,3.13,0,0,1,3.41,3.19Z" transform="translate(-0.04 -0.15)"/><path class="cls-24" d="M267.84,116.16a3.61,3.61,0,0,1-3.06-2.15c-.16-.41-.79-2-1-2.39a3.27,3.27,0,0,1,2.14-4.29,3.92,3.92,0,0,1,2.51,0Z" transform="translate(-0.04 -0.15)"/><path class="cls-22" d="M301.66,128.91l-7.8-.46a1.71,1.71,0,0,1-1.68-1.76h0a1.75,1.75,0,0,1,1.91-1.54l7.81.46a1.72,1.72,0,0,1,1.68,1.76h0A1.76,1.76,0,0,1,301.66,128.91Z" transform="translate(-0.04 -0.15)"/><path class="cls-22" d="M301.69,139.8a2.12,2.12,0,0,0-2.11-2.17h0c-6.3-.37-7.22-6.4-6.94-10.35,0,0-18.5,2.55-17.48-11.88.23-3.29-3.35,1.31-3.35,1.31a4.7,4.7,0,0,0-5.13,4.13,4.24,4.24,0,0,0,1.45,3.45,4.14,4.14,0,0,0,.29,6.26,6.35,6.35,0,0,0-1.55,3.72,6.7,6.7,0,0,0,4.57,6.67c.25,1.9,8.76,3.87,10.83,4.23a5.34,5.34,0,0,0,3.91,5.2c0,.15,0,.3-.05.46a5.47,5.47,0,0,0,5.39,5.63,6,6,0,0,0,1.81-.16c.92,1.56,7.36-2,7.44-3.16Z" transform="translate(-0.04 -0.15)"/><path class="cls-22" d="M272.17,142a5.1,5.1,0,0,1,5.56-4.47,5,5,0,0,1,4.88,5.09,5.1,5.1,0,0,1-5.56,4.48A5,5,0,0,1,272.17,142Z" transform="translate(-0.04 -0.15)"/><path class="cls-22" d="M291.28,152.94a5.09,5.09,0,0,1,5.56-4.47,5,5,0,0,1,4.88,5.09,5.1,5.1,0,0,1-5.56,4.48A5,5,0,0,1,291.28,152.94Z" transform="translate(-0.04 -0.15)"/><ellipse class="cls-22" cx="285.25" cy="146.41" rx="6.51" ry="5.97"/><path class="cls-22" d="M299.52,109.76a.64.64,0,0,1-.42-.18,5.91,5.91,0,0,0-7.83-.47.64.64,0,0,1-.85,0,.52.52,0,0,1,.05-.78,7.21,7.21,0,0,1,9.54.57.52.52,0,0,1-.06.78A.61.61,0,0,1,299.52,109.76Z" transform="translate(-0.04 -0.15)"/></g></g></g></svg>