<svg xmlns="http://www.w3.org/2000/svg" xmlns:xlink="http://www.w3.org/1999/xlink" viewBox="0 0 477.45 581.46"><defs><style>.cls-1{fill:none;}.cls-2{clip-path:url(#clip-path);}.cls-3{clip-path:url(#clip-path-2);}.cls-4{fill:url(#Dégradé_sans_nom_2);}.cls-5{fill:#9a5742;}.cls-6{fill:#f29065;}.cls-7{fill:#814937;}.cls-8{fill:#2c1913;}.cls-9{fill:#90513e;}.cls-10{fill:#fff;}.cls-11{fill:#f39672;}.cls-12{fill:#ed6f3c;}</style><clipPath id="clip-path" transform="translate(-0.04 -0.15)"><rect class="cls-1" x="9.1" y="62.25" width="459.26" height="130.67" transform="translate(-26.33 72.7) rotate(-16.42)"/></clipPath><clipPath id="clip-path-2" transform="translate(-0.04 -0.15)"><path class="cls-1" d="M41.41,150c-2.86,1.48,7-6.82,2.62-3.76l-3,2.88-3,3c1-2-1.89-.22-1.42.79,1.45-.76.08.55-1.3,2s-2.73,2.85-1.29,2a17.1,17.1,0,0,1,2.12-2.41c.75-.73,1.55-1.39,2.29-2A19.07,19.07,0,0,0,41.41,150ZM225,105.88c.49-2,4-2.67,6-5.24C230.49,102.87,227.46,104.12,225,105.88ZM369.53,64.47l-.27.65c-.1.2-.13.29-.18.41a3.64,3.64,0,0,1-.2.39c-.11.21-.22.42-.34.63l0,0,1.11-1.78v0l-.15-.1-.29-.22c-.4-.29-.79-.54-1.17-.82l-1.09-.74c-.33-.23-.65-.42-.94-.6A14.56,14.56,0,0,1,369.57,64l.24.15.13.08,0,0c-.64,1,1.45-2.3-1.44,2.31l0,0,0-.08.07-.16A10.47,10.47,0,0,0,369.53,64.47ZM72.65,124.12c0-1.46,3-2.61,4.12-3.41C76.65,122.54,73.86,122.78,72.65,124.12Zm143.11-10.48c-.9.71-1.82-.21-1.6-1.32.56-.15.8,0,1,.24S215.52,113.3,215.76,113.64Zm36.43-28.27c-3.45,1.42-.05-1.05,2.56-2.56S259.09,80.56,252.19,85.37ZM141.69,89c-.75.78-2.76,1.35-5.18,2s-5.25,1.28-7.59,2.09a16.27,16.27,0,0,1,4.66-2.24A30.74,30.74,0,0,1,141.69,89Zm3.8,2.14c-.39.54-2,.81-3.88,1.09a35,35,0,0,0-5.3,1,12.14,12.14,0,0,1,4.1-1.68A20.84,20.84,0,0,1,145.49,91.13ZM368.22,69.61a1.36,1.36,0,0,1-.47.68.2.2,0,0,1-.3-.13,1.22,1.22,0,0,0-.19-.38c-.09-.08-.09-.22-.26-.12a1.39,1.39,0,0,1,.32-.42s.08-.06.13-.08a.61.61,0,0,1,.18,0c.11,0,.18.08.31.16A.57.57,0,0,1,368.22,69.61Zm9-.5c-1.38,1-2.32,1-2.4.81S375.33,69.27,377.19,69.11Zm-304,62.7c3.47-.64,1.19,3.24,5.21.87-.26,1.68-3.46,2.18-4.7,2.75-5,8.28-14.33,11.23-22.15,20.3a51.3,51.3,0,0,1,4-5c1.54-1.71,3.23-3.46,5-5.08.87-.82,1.78-1.62,2.69-2.4s1.81-1.47,2.71-2.16a48.06,48.06,0,0,1,5.19-3.51c-3.63,1.63-.26-.51.67-2.32-3.77,1.4-7.47,6-10.52,7.88a33.38,33.38,0,0,1,5.22-5.69C68.58,135.61,71,133.66,73.18,131.81ZM53.85,149.86c.27-.93,1.43-2.07,2.77-3.22a50.11,50.11,0,0,0,3.8-3.32c-.29.93-1.44,2-2.76,3.13A44.72,44.72,0,0,0,53.85,149.86ZM28,181.35c.91-.88,1.56.28,2.64-2,.18,1.48-3.19,4.37-4.32,6.57-1,.66-.24-.4.56-1.66S28.57,181.6,28,181.35Zm114.82-83.1c-.89.93-3.16,1.56-6.17,2.24-.66-.64.34-1.09,1.78-1.41S141.69,98.56,142.78,98.25Zm-18.86,8a48.83,48.83,0,0,1-4.55,2.9L117,110.47c-.82.44-1.7.9-2.59,1.39,0-1,1.8-2.17,3.82-3.19l1.55-.73c.55-.24,1.09-.49,1.67-.71C122.52,106.8,123.43,106.45,123.92,106.22ZM379.53,83.6a31.82,31.82,0,0,1-10.27.62,20.47,20.47,0,0,1-2.3-.36c-.76-.12-1.42-.37-2.15-.51s-1.32-.43-1.93-.71a14.75,14.75,0,0,1-1.74-.84c.63-1,.89-.94,1.28-.71.19.11.39.3.62.47a1.33,1.33,0,0,0,.84.33c.15-.6.39-.87.67-.93s.61.2,1.11.44a11.82,11.82,0,0,0,3.9,1.85c1.83.44,3.74-.21,5.36-.46a5.85,5.85,0,0,1,2.37-.18A3.61,3.61,0,0,1,379.53,83.6Zm-19.4-2.78a.72.72,0,0,1-.29,0c-.12,0-.11,0-.58-.27a24.46,24.46,0,0,1-2.34-1.6c-1.56-1.21-3.18-2.59-4.35-3.65s-1.88-1.77-1.52-1.72,1.77.86,4.73,3.15a32,32,0,0,1,3.1,2.81c.19.21.41.4.58.58s.44.4.41.43A.55.55,0,0,0,360.13,80.82Zm-13.46-6.66c-.59-1.47-2.29-2.48-4.3-3.22s-4.34-1.29-6.31-2a15.06,15.06,0,0,1,6.72,1.28C345.27,71.25,347.22,72.85,346.67,74.16ZM36.49,186.44c.54-2.23,7.56-10.46,7.91-9.68-1.1,1.27-1.88,2.24-2.5,3l-1.55,2c-.46.59-.92,1.14-1.54,1.85S37.51,185.25,36.49,186.44Zm-8.41,18.49c-.31,2.45-1.7,5.78-3.23,9.2a29.61,29.61,0,0,1,1.07-4.33c.26-.77.53-1.57.88-2.39S27.6,205.78,28.08,204.93ZM60,189.56c-3.32,5.5-7.54,9.21-10.07,12.79a27.37,27.37,0,0,1,4.61-7.16C56.48,193,58.47,190.91,60,189.56ZM66,183.61c-.18,1.67-1.83,3.25-3.63,4.58C61.43,186.53,64.7,185,66,183.61ZM69.84,181c.93-2.06,3-3.42,4.63-4.51,0,.6-.9,1.66-1.92,2.58A10.61,10.61,0,0,1,69.84,181Zm46.62-39a29.71,29.71,0,0,1,8.52-6C123.19,138.64,119.07,141.49,116.46,141.94Zm3.7-.35c-1.1,1.48-3.85,4.32-6,4.76A16,16,0,0,1,120.16,141.59Zm4.49-1.27c.89-.55,1.8-1.09,2.71-1.61.21.37-.49.68-.85,1,1.54.15,1.28-.26.69,1.13C126.42,140.49,125.15,141.32,124.65,140.32ZM77.08,182.61c-1.77,1.16-3,2.53-5.66,5C70.13,188.34,76,181.14,77.08,182.61Zm82.24-46.54a54.25,54.25,0,0,0-12.24.84,45.48,45.48,0,0,0-6.21,1.68c-1.05.36-2.09.79-3.14,1.25-.52.24-1,.46-1.58.73l-1.71.88c.92-.61,1.86-1.23,2.78-1.75.48-.27,1-.53,1.46-.78s1-.52,1.56-.75a34.39,34.39,0,0,1,6.76-2.25,27.81,27.81,0,0,1,6.78-.66A21.7,21.7,0,0,1,159.32,136.07ZM59.94,206.79c1.84-1.42,1.86-3.42,4-4.54C63.54,204.45,61.92,207.29,59.94,206.79Zm6.7-7.81c1.15-3.26,5.34-5.07,7-8.48-.25,1.81,1.24-.11,2.07,1.06C70.91,194.79,70.48,197.1,66.64,199Zm70.66-57.92c-.42,1.27-4.1,2.14-5.82,3.47-.24-.38.9-1.21,2.29-1.94.69-.37,1.43-.71,2.09-1S137,141.16,137.3,141.06ZM69.71,205.84l1.83-2.23c1.57.46-.58,1.81-1.12,2.76Zm74.51-54.22c-.14-.83.45-1.23,1.24-1.46a20.5,20.5,0,0,0,2.35-.61c.86.27,0,.44-1.07.76S144.33,151.1,144.22,151.62Zm-63,51.79a8.36,8.36,0,0,1-1.34,2.49c-.61.79-1.32,1.55-2,2.38s-1.62,1.67-2.46,2.64a38,38,0,0,0-2.47,3.31C73.06,211.43,77.7,208,81.19,203.41Zm63.61-51c.3-1.24,2.46-1,3.52-1.55C147.85,152,145.83,151.64,144.8,152.36Zm16,5c-.57.32-.84-.06-1.18-.52s-.75-1-1.43-.94c-.08-.43.61-.35,1.3,0S160.83,157,160.78,157.37Zm2.64,1.52c-.76.64-1.21.37-1.55-.09s-.56-1.1-.67-1.15C162.07,157,162.7,158.59,163.42,158.89Zm-19-1.54c0-1.13,1.86-1,2.65-1.55.06.73-.48,1-1.12,1.11S144.57,157.13,144.37,157.35Zm-38.66,29.32a5.71,5.71,0,0,0,2.77-2.38C110.06,184.75,106,188.27,105.71,186.67Zm23.16-18.53c2.39-.54,5.56-4.27,7.79-4.4.27,1.58-.94,2.79-2.66,4s-3.92,2.31-5.49,3.49C128,170.82,130.64,169.19,128.87,168.14Zm18.31-10c.29-1.2,2-.82,3-1.26a1.42,1.42,0,0,1-1.25,1.31A3.3,3.3,0,0,1,147.18,158.12ZM98.85,195.81c-.19,1.53-3.32,3.39-4.65,5C93.41,199.52,97.46,196.29,98.85,195.81Zm5.69-3.34c1.25,2.69-5.26,5.38-8.65,9.24C97.44,197.76,102.83,195.53,104.54,192.47Zm45.85-26.95a.86.86,0,0,1,1-.68,3.64,3.64,0,0,0,1.18,0,1,1,0,0,1-1,.52A1.58,1.58,0,0,0,150.39,165.52Zm-41.13,31.12c1.22-2.25,6.17-6.27,8.23-5.95-1.33,1.1-2.48,2-3.75,2.87S111,195.41,109.26,196.64Zm5.78-3.27c1.12-.72,2.23-1.59,3.46-2.57s2.59-2.11,4.28-3.39C121.92,189.25,117.07,193.26,115,193.37Zm28.8-22.07c-2.24,1.79-5.83,4.48-9.65,7.5l-5.77,4.5c-2,1.56-3.84,2.87-5.16,3.72,1.92-1.6,4-3.31,6.1-5,1.86-1.55,3.71-3,5.47-4.4A88.41,88.41,0,0,1,143.84,171.3Zm160.58-26c1.52-1.52,2.45-.84,4-2.33C308.55,143.64,304.88,146.86,304.42,145.31Zm5.66-3c.2-1.37,3.49-2.65,4.94-3.93C314.78,139.78,311.51,141,310.08,142.34Zm14.41-8.75c-.28.8-.44,1-.63,1s-.38-.21-.61-.31a.37.37,0,0,0-.58.2c.12-1.08.67-1.16,1.19-1.06Q324.17,133.53,324.49,133.59ZM178.22,191.41a87.07,87.07,0,0,1-8.8-6.21c.77.38,3.11,1.56,5.19,2.76S178.5,190.4,178.22,191.41Zm-35.81-16c-.07-1.18,2.45-1.83,3.32-2.65C145.81,173.88,143.39,174.4,142.41,175.4ZM351.64,53.14c-1.68-.14-5.55-1.3-6.59-2.17a31.39,31.39,0,0,0-3.85-1.2c-1.56-.39-3.32-.75-4.92-1-3.21-.54-5.79-.76-4.79-1.16a48.89,48.89,0,0,1,11.19,2.24C345.88,50.86,348.72,52,351.64,53.14ZM93.38,120.71c-.44-.74,2.38-1.11,3.76-2.73-1-.34-2.09,1.1-1.43-.62a57.3,57.3,0,0,0-10.07,6c-1.57,1.11-3.17,2.27-4.82,3.47C79.32,127.89,77.74,129,76,130c-.78.08.21-.84,1.55-1.91s3-2.29,3.84-3.12L76,128.87c-1.87,1.34-3.78,2.76-5.63,4.18s-3.65,2.92-5.28,4.38a42.94,42.94,0,0,0-4.21,4.28c-.25-.61,1.06-1.43,1.8-2.17-5.72,4.84-12,10.34-19.54,16.28,5.1-5.72,11-12.39,17.09-18.32a119.48,119.48,0,0,1,9.29-8.23c1.54-1.21,3.11-2.38,4.64-3.41s3-1.92,4.66-2.8c.65-.66,0-1.15-.58-.67a49.23,49.23,0,0,1,12-10.17,111.9,111.9,0,0,1,14.78-7.8c.81.6.09,1.3.18,2,1.52-.88,3-1.77,4.62-2.64.85.63-.74,1.34-1.89,2.08,1.76-.81,3.54-1.62,5.38-2.42.91-.41,1.84-.79,2.81-1.18s2.06-.86,3.25-1.33a116,116,0,0,1,14.3-4.7,83,83,0,0,1,29.53-2.43,69.26,69.26,0,0,1,28,9.21,86.67,86.67,0,0,1,12.21,8.75l2.86,2.49,1.34,1.23.94.88.85.82a1.53,1.53,0,0,1,.18.18l.33.37c-.08-.23-.15-.45-.24-.65a.68.68,0,0,0-.1-.17l-.54-.59c-.37-.37-.73-.75-1.09-1.14l-.72-.72-.87-.83c-.57-.53-1.12-1-1.69-1.55-1.12-1-2.28-2-3.43-2.94a76.54,76.54,0,0,0-14.47-9.23c-10.06-4.8-20.48-7.4-31.89-8.92-1.16,0-2.33,0-3.49.11-5.08.38-.21-.82,2.34-.52a66,66,0,0,1,10.55.51c1.74.21,3.43.43,5,.68s3,.42,4.24.54c0-.41-.93-.72-1.95-1a5.9,5.9,0,0,1-2.43-.85,49.56,49.56,0,0,1,13.4,3.23,68.93,68.93,0,0,1,15.09,8c2.38,1.64,4.65,3.37,6.75,5.11,1.06.87,2.06,1.73,3,2.58s1.88,1.64,2.85,2.52l1.75,1.56c.14.11.26.23.38.34s.31.27.28.22l.11,0a.67.67,0,0,0,.46,0,2.72,2.72,0,0,0,3.49,1.48c-.28-1-.55-1.12-.9-1.2.23-.64.46-.86.65-.8s.42.4.62,1c.06,1.11-.22.26-.3.52a1.3,1.3,0,0,0,1.26.9,2.18,2.18,0,0,0,1.27-.72c.38-.36.72-.8,1.1-1.16l.15-.15.05-.05.07-.07.17-.15,2.74-2.46c1.88-1.6,3.77-3.22,5.78-4.75-2.61.61-.67-1.16,2.23-3.31,1.47-1.06,3.18-2.22,4.68-3.22s2.82-1.83,3.49-2.31c8-5.84,16.26-13.88,21.08-15,3.36-2.56,6.92-5.15,10.65-7.64,1.85-1.28,3.74-2.49,5.66-3.73l1.57-1,2.42-1.49c1.6-1,3.23-2,4.84-3s3.26-1.89,4.86-2.84l2.44-1.39A25,25,0,0,1,295.7,60l4.9-2.36c.81-.39,1.61-.78,2.43-1.15s1.62-.67,2.43-1a53.77,53.77,0,0,1,29.08-3l-10,.11a67.51,67.51,0,0,0-17.2,3.08,42.52,42.52,0,0,0-4.59,1.69l-4.61,2.12a85.44,85.44,0,0,0-9,4.84c-2.47,1.42-5.1,3.2-7.82,5-.66.46-1.35.91-2,1.35-.4.25-.58.39-.8.55l-.6.43-2.39,1.72a3.53,3.53,0,0,0,2.59,0,10.18,10.18,0,0,0,1.58-.61c.17-.09.24-.13.5-.25l.68-.37,1.39-.8c1.88-1.1,3.89-2.4,5.9-3.68l5.89-3.66a33.51,33.51,0,0,0-5.4,2.49c-2,1.06-4.07,2.34-5.95,3.32,1.38-1,2.82-1.93,4.3-2.89s3-1.87,4.63-2.81l2.39-1.42a24.38,24.38,0,0,1,2.46-1.33l5.14-2.48c.88-.39,1.75-.88,2.64-1.21s1.8-.7,2.7-1c1.82-.63,3.67-1.19,5.57-1.67a58.26,58.26,0,0,1,11.93-1.71c.45,0,.88,0,1.33,0a10,10,0,0,0,1.34.05c.91,0,1.82.06,2.74.1a24.93,24.93,0,0,1,2.73.24c.91.08,1.82.23,2.72.37,5.34-1,12.12,1.36,18.48,5.86a95.35,95.35,0,0,1,9.32,7.68c.72.66,1.57,1.36,2.37,2l.6.5.14.12v.23c0,.26.12.34.21.46s.45-.7.52-.72c.54-.25.88,0,1.73.26a14,14,0,0,0,3.28.82c2.73.36,6.47-.27,8.14-2.58.4-.19.82-.36,1.25-.54s.84-.4,1.29-.62.85-.45,1.28-.66l.67-.35.78-.46a55.15,55.15,0,0,0,6.88-4.8,85.66,85.66,0,0,0,14.8-16c0,2-2,2.18-2.76,4.21,2.57-.78,3.3-4.4,6.18-6.63-.61,3,2.23,1.13,3.93,1,1.13,2.31,3.17,4.55,3.49,6.16a21.79,21.79,0,0,1-2.12,2.56c-.82.88-1.7,1.79-2.44,2.65-1.49,1.7-2.46,3.27-1.4,4.37,1.66,1.84,7.17-2.4,8.2-6.06,3.42-.23,5.55-4.86,9.32-4.33,1.23.81-.33,2.31,0,3.33,2.77-.6,6.38-1.65,7.86-.08.18,2.51-.72,3.18,1.74,4.79-1,1.12-.66,1.9-2.21,3.15.92,1.87,2.29-.44,3.42-.47,1.73,1.26-.16,3.85,2.57,3.83-.45,1.48-2.64,3.39-2.42,4.71,1.42.59,3.15-1.12,4.55-.38,1.27,3.42.81,7.31,0,11.3,3.28-1,1.15-2.65,2-3.54,1.9-2,.32.09.67.58,2.51.81,3.55-5.58,5.8-3.75.84-3-2.2-2.86-4.28-5.28,3.91-1.23,5.8,3.09,5.32,6.14-1.14,1.06-2.18,1.38-3.43,3.15,2.92-.37,5.94,1.61,8.48,1.94.15.85-.92,2-1.55,3.07,3.44-1.11,3.6,4.79,7.27,2.61-1.65,5-.9,7.19-3.16,12.07.53.3,1.25-.32,2-1s1.4-1.37,2-1.3c1.48,2.29.18,5.41.39,8.11-1.41,1.48-2.8,2.93-4.29,4.42-.3-.45.75-1.28,1.31-2a21.44,21.44,0,0,0-4.54,3.49c-1.67,1.54-3.41,3.34-5.3,5.09-3.7,3.49-7.82,6.69-11,6.8,3.91-2.21,7.8-7.12,10.35-8.9-3.95,2.31-8.38,5.28-13.47,8.61s-10.76,6.95-17.14,10.37c-.82.42-1.56.86-2.43,1.28l-2.63,1.3c-1.76.89-3.55,1.67-5.38,2.46s-3.65,1.52-5.51,2.2-3.72,1.32-5.62,1.92a102.35,102.35,0,0,1-23.24,4.53c2.59-.85,1.86-1,.07-.9-.91,0-2.06.17-3.26.22s-2.42.09-3.36.1c1.43,1.16-2,1.26-6.66.63l-1.78-.24c-.61-.1-1.23-.22-1.88-.34l-3.71-.73c-2.44-.51-4.71-1.11-6.3-1.31-.43.92,4.05,1,5.69,1.49a23.33,23.33,0,0,1-6.09-.55c-1.23-.22-2.6-.63-4-1s-2.84-.84-4.31-1.46-3-1.22-4.42-1.85-2.89-1.44-4.28-2.17-2.73-1.44-4-2.22l-1.8-1.1-.21-.13v0a2.07,2.07,0,0,0-.19.36v0l.2.13c.17.1.34.2.52.29l1,.62c-.17.2-.53.14-1.05-.06a7.56,7.56,0,0,1-.85-.43l-.15-.07s0,0,0,0,.07-.07,0-.13-.08-.08-.14,0c.2-.38.28-.25.37-.29.31-.58-.16-.3.18-1-.72-.49-.68-.72-.37-.68a2.44,2.44,0,0,1,.63.24c.08.06.28.15.28.2l0,.07,1.69,1-.72-.73a3.46,3.46,0,0,0-.39-.37l-.19-.2c-.05-.05-.17-.15-.13-.14.06-.16.12-.31.16-.46a1.59,1.59,0,0,0-.17-.86,3,3,0,0,0-1.08-1.25,5.4,5.4,0,0,0-3.2-.79,5.54,5.54,0,0,1-.72,0,6,6,0,0,0,.72.55,10.89,10.89,0,0,1,1.65,1,2.45,2.45,0,0,1,.68,2.22,3.6,3.6,0,0,0-2.34-1.11,5.08,5.08,0,0,0-2.12.76l-1.65.84s-.26-.13-.49-.24a2.52,2.52,0,0,0-.34-.16.15.15,0,0,0-.16,0,2.11,2.11,0,0,0-.33.18c-2,1.51-4.8,5.58-7.71,6.18-.63.57.62,1.21-.17,1.74-5.05,1.31-7.32,5.43-13,9.5,1.7.56,4.64-3.65,6.16-2.39-4.79,1.61-8.18,7.18-12.32,6.68.23,3.39-5.25,5.07-8.37,8.74a68.88,68.88,0,0,1-6,5.26c-.7.58-1.41,1.19-2.13,1.81l-4.61,4.13c-1.52,1.39-3.1,2.71-4.63,4s-3.07,2.59-4.57,3.76c-9.79,7.9-21.26,14.38-34.44,17.07-.8.2-1.65.28-2.47.44s-1.66.3-2.51.37c-1.68.14-3.39.32-5.09.4-.86,0-1.72.1-2.58.12l-2.58-.06c-1.74-.08-3.46-.15-5.19-.38a65.7,65.7,0,0,1-10.25-2,68.43,68.43,0,0,1-9.91-3.69,81.77,81.77,0,0,1-18.47-11.93c-2.93-2.41-5.76-5-8.56-7.7l-3.72-3.51-.88-.79-.09-.09h0v0l0,0a7.64,7.64,0,0,0-2.12-1.21.36.36,0,0,1-.2,0H152c.17-.52.4-.56.59-.45s.36.32.58.2c.51-.5,1.17.08,1.66.47.61-.87.52-1.16.32-1.37s-.48-.28-.38-.9c.56-.69,1-.63,1.44-.31a3.58,3.58,0,0,1,.56.6,3.88,3.88,0,0,0,.26.31s0,0,0,0l.1.1.65.59c-.13-.25-.29-.52-.41-.74l-.1-.16,0,0,0-.09a1.36,1.36,0,0,0-.18-.43,1.58,1.58,0,0,0-.73-.56,8.47,8.47,0,0,1-2-.94,3.8,3.8,0,0,0,0,1c-.63,1.23-.31-.39-.1-1a6.66,6.66,0,0,0-5.11-.12c-.41.13-.79.33-1.16.48-.09,0-1.53.74-2.55,1.29a84.94,84.94,0,0,0-7.24,4.52c-2.56,1.75-5.21,3.73-8,5.87L128.29,178l-2.2,1.76c-1.61,1.29-3.22,2.57-4.82,3.87-6.14,4.86-12.38,9.82-18.89,15-1.14,1-2.22,2.07-3.29,3.09-.64,1.07-2.9,2.14-1.11.46a29.16,29.16,0,0,1,3.13-2.91,6.76,6.76,0,0,0,2.34-2.83c.87.37,2.34-2.26,3.21-1.69,1.06-2.86,5.71-4.06,6.91-6.59a6.2,6.2,0,0,0-3.73,1.29c-1.1.76-2.26,1.79-3.82,2.89,1.22-3.08,5.74-6.18,8.58-8.55-2.45,1.13-5,2.44-6.62,4.49a6.41,6.41,0,0,1,1.3-3,8.42,8.42,0,0,0,1.54-3c-3.13.43-7.12,4.76-10.39,6.65,0,.34,1.15-.27,1.2-.47-.28,1.42-1.48,2.86-3,4.34-.79.74-1.71,1.46-2.69,2.21s-2,1.49-3,2.22-2.07,1.49-3.07,2.22-2,1.46-2.84,2.21a15.27,15.27,0,0,0-3.77,4.17c-.36-.51.62-1.27,1.14-1.92-1.89.68-1.87,2.45-4,3.82,0-1.08,1.13-2.39,2.14-3.68s2-2.54,1.41-3.56a130.89,130.89,0,0,1,9.52-9.4c1.3,0-3.57,3.72-4.78,5.19,2-.31,4.58-3.75,7.91-6.25-.58-.92-1.82,2-2.25.26,8.42-6.85,13.38-13.2,21.91-20.05-6,3.58-12.61,10.28-18.38,15,.78-1.76,2.66-3.63,4.92-5.51-3.61.34-7.27,6.48-10.21,7.87-4.56,3.64.63-1.14,3.29-3.58,1.56-1.44,3.34-3,4.87-4.34a21.2,21.2,0,0,0,3.23-3.3c.35,1-3.73.19-1.85-.19-4.48.93-8.44,6.21-14.27,10.91.69-2.2,3.52-5.44,6.78-8.57,1.63-1.58,3.37-3.12,4.94-4.55s3-2.69,4-3.71c-2.15.46-5.09,4.1-7.49,5.82-1.21,1.06-.8.25-1.09-.26-1.75,1.51-3.42,3-5.15,4.56-1.16,1.47-4.53,3.58-1.68.93,2.81-3.39,7.85-7.83,12.38-9.67,1.15-1,.9-1.79,2.61-2.79-5.33,2.67-14.37,9.9-19.83,16.35-.38-.7-.94-.26-1.51.23-1.42-2.38,2.34-3.7,4-5.63,6.35-7.32,11.71-14.21,23-22,1,0-7.07,6.74-.4,1.48,1.39.61-.58,1.51-1.39,2.32,3.82-.7,7.3-5.32,10.38-6.06,1.46.91-1.5,1.94-2.32,2.94.85.11,2-.83,2.76-.46a37.59,37.59,0,0,1-3.73,3.49c-1.7,1.47-3.89,3.3-5.65,4.7,5.12-3.54,9.31-6.51,13.47-9.27s8-5.24,11.8-7.39c.95-.55,1.9-1.07,2.85-1.57.47-.24.94-.51,1.42-.74l1.34-.66c1.54-.74,3.14-1.45,4.81-2.06a29.86,29.86,0,0,1,11.17-2,12.21,12.21,0,0,0-4.81-.49c-1.75.13-3.51.46-5.15.74a4.94,4.94,0,0,1,2.32-1.34,16.4,16.4,0,0,0,2.84-1.07A18.21,18.21,0,0,0,144,141a28.51,28.51,0,0,0-6.56,2.88.78.78,0,0,0,.76.54,2.89,2.89,0,0,0,1.06-.28c.75-.34,1.59-.76,2.1-.5-.65.41-1.36.78-2.09,1.24l-2.58,1.49c-1.94,1.11-4.06,2.36-6.21,3.66-4.3,2.6-8.8,5.39-12.5,7.31,4.52-3,7.86-5.86,13.55-9.27-3.81,1.21-5.78,3.1-9.27,5-.5.32.53-.91,1.65-2s2.29-1.92,2-1.08a76.94,76.94,0,0,1,8.55-6.65c.77-.52,1.61-1,2.34-1.41s1.4-.76,2.08-1a12.3,12.3,0,0,1,3.79-1.05c-.06,0-.12.25-.15.5s-.06.51-.08.51c1.95-.89,4.06-2.85,6.42-3.47a24.07,24.07,0,0,1,10.25-.58A23.66,23.66,0,0,1,169,140.9c.35-1.3-1.5-2.26-3.45-2.89s-3.94-1-3.95-2.35a6.71,6.71,0,0,0,1.4.61c.31.11.66.22,1,.32l1.15.39a38.22,38.22,0,0,1,4.91,1.91,18.51,18.51,0,0,0-8-4.35,69.81,69.81,0,0,0-9-1.63c-.09,0,1.27-.84,1.74-.48-1.7-1.35-5.77-1.08-10,.3-2.12.66-4.31,1.54-6.39,2.41s-4,1.71-6.08,2.35c1-1.39-.66-1.53,2.72-2.76a20.5,20.5,0,0,0-3.88,1.16,26.3,26.3,0,0,0-2.91,1.45c-1.87,1.07-3.83,2.32-7.41,4.24,2.1-2.68,5.27-4.69,8.66-6.5s6.94-3.41,10.36-5.58a1.88,1.88,0,0,1-1,1.26c3.39-1.13,6.13-2.21,9-3a19,19,0,0,1,9.26-.35c0-.53-1.14-.48-1.89-.54,1.68-.57,4.36-.31,6.82.26s4.8,1.31,6.28,1a35.3,35.3,0,0,0-9.53-2.47,28.19,28.19,0,0,0-10.1.72c-.37-.9.9-1,2-1.14a52.91,52.91,0,0,0-17.32,4A72.07,72.07,0,0,0,116.73,139c.51.37,1.59-.61,2.45-1.09-2.74,2.41-6.55,5.08-10.1,7.78a64.25,64.25,0,0,0-8.63,7.43c.43,1.19,1.6-.2,2.37-.22-.71,1.59-4.75,3.29-7,5.78,3.38-.67,8.49-7.58,11-5,.23-1,1.86-2.08,3.2-3.14-1.42-.4-4,3.21-5.16,1.84,2.31-1.94,5.83-4.24,9.24-3.84,1.49-3.28,6.84-5.26,9.57-6.1-.9,1.6-3.09,2.63-5.14,3.72s-3.93,2.23-4.11,3.81c1.49,0,2.23-.7,3.3-1.88a34.11,34.11,0,0,1-5.1,5.6c-2.19,2-4.75,4.22-7.51,6.47-5.47,4.43-11.27,8.69-14.89,11.55-2.44.29,1.13-2,2.3-3.15-2.63.91-.45-.85,1.35-2.34a149.54,149.54,0,0,0-11.6,9.57c-3.76,3.37-7.65,7.2-12.45,12.21-1.43,1.78-1.21.09.11-.76.71-.76,1.45-1.52,2.2-2.27,1.32-1.21-.23-1.92,2-3.31,1.16-1.16.8-.31,1.1.18,1.12-1.8-.84-.8.1-2.57,4.82-4.82,9.41-7.69,14.57-12.6-5.38,3.92-10,7.69-14.36,11.54s-8.5,7.78-12.76,12.14c2.22-2.95,5.79-7.21,9.6-11.4a130.24,130.24,0,0,1,11-10.78c1.94-.8-1.82,2.16-2.59,2.91,1.71.37,4.18-2.77,6.42-4.47-2.57-1.2,4.72-4,7.85-6.71-.55-.79-1.89,1.32-2.76,1.75-2,.76,1.87-2.11,2.67-2.83-4.16,1.39-6.93,5.16-11.9,9,1.43-1.87,2.81-4.74,6.16-7.68-4.31,2.77-9.16,7.32-13.93,12.13s-9.48,9.87-13.9,13.5c-1-2.63,3.6-5.06,6-8.79-4.37,1.75-9.17,8.63-11.45,10.24,3.32-5,8-10,13.06-15.05S79.87,162,85.32,156.5c-2.93.24-3.48,2.59-5.9,3.3.41.92,1.3,0,2.1-.63,0,2-3.36,1.36-5.07,3.27-.17.18-.45,2.19-.56,2.29a53.87,53.87,0,0,1-5.81,4.39c-1.87,1.27-2.79,1.63,0-.87a71.57,71.57,0,0,0-6.53,6l-2.88,2.9c-1,1-2,2.06-3.28,3.16-.83.6-.25-.56-1-.88a49.9,49.9,0,0,1-3.27,3.8,18.08,18.08,0,0,0-1.57,2,5.68,5.68,0,0,0-.8,2,3.38,3.38,0,0,1,.56-2.91,17.41,17.41,0,0,1,2.55-3c2-2,4.19-3.88,4.34-5.75-.73-.61-1.72.29-2.77,1.49-.52.62-1.07,1.29-1.58,1.92a8.68,8.68,0,0,1-1.5,1.56c3.38.18-4,2.31-5.78,6.1a14.34,14.34,0,0,1,2.47-4,31.74,31.74,0,0,1,3.55-3.67c-1.94.25-4.38,3.19-6.65,6.34-.57.78-1.15,1.54-1.71,2.3s-1.09,1.46-1.63,2.09a6.64,6.64,0,0,1-3.09,2.4c4.13-6,7.83-11.13,12.35-16.68a182.24,182.24,0,0,1,17.48-18.54c-1.35-1.36-3.26-.56-5.62,2.07.81.42,2.21-1.56,2.76-.12-1.31,0-3,1.68-4.48,2.31,2.45-2.29-2.17-.33,2.11-3.77-3.87,1.71-7.69,7-11.92,10.88a15.62,15.62,0,0,1,3.38-4.69c1.31-1.29,2.56-2.3,3-2.88s-.22-1.17-.64-.64c2.53-3.24,1.69-1.19,7.48-6.32,1-1.22-1.1.06-.4-1.43a42.54,42.54,0,0,0,3.32-3c1-.95,1.86-1.88,2.71-2.81a53.45,53.45,0,0,1,5.72-5.56c-.43-.32-1.19.52-1.84,1a35.5,35.5,0,0,1,6.35-5.9c-1-1.11-3.19,2.07-4.45,2a53.9,53.9,0,0,1,4.28-4.27c.74-.67,1.52-1.34,2.3-2l1.19-1c.44-.34.88-.69,1.31-1.06,3.56-2.83,7.47-5.65,11.53-8.71.6.45-.11,1,.21,1.51,3.24-2.34,4.41-2.82,4-2.34a33.54,33.54,0,0,1-4.93,3.58c1,1.62,3.3.5,5.84-1.2s5.36-4,6.86-4.75c-2.17.12-6,3.65-8.59,5.18-1,.12-.91-.75-.26-.36a124.68,124.68,0,0,1,14-9.29c1.25-.71,2.59-1.4,4-2.09.66-.35,1.4-.68,2.11-1l1.18-.55c.43-.2.87-.38,1.31-.57a77.71,77.71,0,0,1,11.31-3.91c2.43-.8,2.59.32,4.17.24a69.15,69.15,0,0,1,7.95-1.87,25.86,25.86,0,0,1,6.73-.18,9.23,9.23,0,0,1,2.83.43,17.43,17.43,0,0,1-2.08,0,33.54,33.54,0,0,0-5.66.28c0,.53,2.94.25,6.53.12a76,76,0,0,1,10.06.32c-1.11-.56-1.58-.85-1.24-1a11.15,11.15,0,0,1,3.35.44c-.4-.58-1.92-1-3.69-1.12s-3.75-.19-5.09-.42c1.47-.5,1.75-.8,1.27-1a9.38,9.38,0,0,0-3.22-.2,34,34,0,0,0-4.74.6,23.3,23.3,0,0,0-3.31.89c-1-.54-3-.6-5.11-.38-1.08.08-2.16.23-3.22.37s-2,.23-2.9.27a38.64,38.64,0,0,1-4.29.93,28.55,28.55,0,0,1,3.75-1.23c1.06-.29,2.29-.6,3.59-.88s2.68-.55,4-.77a68.53,68.53,0,0,1,7.11-.78,65.14,65.14,0,0,1,10.61.28,66.66,66.66,0,0,1,9.61,1.79,127,127,0,0,1,15.57,5.46c-.31.38,1.2,1.47,3.35,3.07s5,3.66,7.45,5.76c1.25,1.05,2.41,2,3.45,3,.45.4.88.8,1.26,1.13l.75.72c.82.82.88,1-.45.17l-1.09-1-1.54-1.41c-1-.9-2-1.78-3.07-2.64-4.25-2.79-9.55-6.57-14.69-8.69,2.86,2.31,6.08,4.72,9.43,7.33,1.68,1.31,3.38,2.68,5.13,4.09l4.81,4a6.89,6.89,0,0,0,1.23.87l.86.51,1.68,1a24,24,0,0,1,2.94,1.86A12.64,12.64,0,0,0,206,124.5a9.23,9.23,0,0,1-1.26-1.42,3.23,3.23,0,0,1-.42-.77l-.07-.19,0-.1-.15-.21a6.88,6.88,0,0,1-.55-.86,4.09,4.09,0,0,1,1.18.39l.13.06h.2a.68.68,0,0,1,.22.09,2,2,0,0,1,.67.66c.38.55.73,1.2,1.35,1.11A6.34,6.34,0,0,0,206,121.2c-.13-.17-.27-.31-.4-.46-.43-.42-.88-.86-1.3-1.3-.62-.6-1.22-1.17-1.81-1.76s-1.34-1.28-2-1.9a14.08,14.08,0,0,1,2.7,1.18c.44.26.89.55,1.31.83s.62.39.9.59.56.43.82.65l.59.52a1.91,1.91,0,0,1,.35.48c.41.68.76,1.63,1.71,1.61a3.86,3.86,0,0,0-.43-2.28,4.05,4.05,0,0,0-.62-.81c-.46-.44-.94-.87-1.41-1.31l-2.23-2a112.32,112.32,0,0,0-10.13-7.85c-3.3-2.26-6.35-4.11-8.64-5.66.22-.39,1.35.27,2.14.6.07-1.19-4.78-2.63-6.82-3.64-.32.26-.22.56.15.81a7.92,7.92,0,0,0,1.54.85c-1.51-.5-3.1-1-4.66-1.6s-3.16-1.11-4.72-1.61A44.76,44.76,0,0,0,168.53,96c-.73-.16-1.43-.3-2.09-.4a19.16,19.16,0,0,0-1.91-.16c.25-.48,2.07-.13,3.35.07a38.91,38.91,0,0,0-11.79-1.91A65.6,65.6,0,0,0,141.52,95a102.37,102.37,0,0,0-15.08,4.44c-2.45.91-4.85,1.87-7.21,2.84l-3.12,1.26-2.73,1.08c.1,1,1.53.16,2.85-.45a19.7,19.7,0,0,1-3.16,2.4,12,12,0,0,1-2.92,1.29,14.47,14.47,0,0,0,4.63-1.49l3-1.38c.56-.27,1.14-.54,1.73-.79l2-.86c5.24-2.26,10.68-3.68,13.08-2.48a61.37,61.37,0,0,0-14.07,4.57c-1.12.5-2,.94-2.84,1.36s-1.67.88-2.5,1.32c-1.63.91-3.2,1.81-4.67,2.73C104.45,114.68,99.33,118.23,93.38,120.71ZM463.3,92.58c-.48-.3-.95-.54-1.63.45-4,4.15-8.5,8.73-13.6,13.47a162.51,162.51,0,0,1-17.4,14.19c-1.65,1.14-3.27,2.26-5,3.33-.87.55-1.72,1.08-2.59,1.61l-2.68,1.55c-1.71,1-3.78,2-5.7,3s-3.95,1.81-5.93,2.68a99.66,99.66,0,0,1-24.12,6.61c-1.35,1.82,3.5-.25,3.26.82-7.72,1.8-6.64.33-10.42,0-5.59.89-13.66.8-22.68-1-2.26-.45-4.54-.92-6.89-1.62-1.16-.32-2.34-.65-3.5-1l-3.52-1.22c-2.35-.77-4.67-1.79-7-2.79l-1.72-.74-1.68-.82-1.68-.82c-.18-.1-.15-.07-.17-.06l-.1,0,.07,0h.05l.19.11q.81.45,1.5.87c.94.57,1.7,1.09,2.19,1.43,1,.72.69,1.13-1.84.39,1.48.7,3.05,1.37,4.68,2.08.81.35,1.63.75,2.47,1.08l2.55,1a84.72,84.72,0,0,0,10.41,3.25c1.7.38,3.34.71,4.92,1s3.06.37,4.44.46a19.16,19.16,0,0,0,6.63-.46,52.16,52.16,0,0,0,19.61-.06,118.72,118.72,0,0,0,17.24-4.83c0,.54-1.38,1.5.44,1.25,1.5-.81,3-1.62,4.59-2.4s3.11-1.62,4.7-2.44c3.16-1.66,6.5-3.45,9.42-5.14a200.2,200.2,0,0,0,17.33-10.91C450.92,109.24,459.41,101,463.3,92.58Zm-236.82,18c2.21-2.68,6-3.5,7-6.16a55.94,55.94,0,0,0-4.58,3.33C227.22,109.15,225.89,110.45,226.48,110.58Zm90.2-56.09a22.81,22.81,0,0,0-6.24,1.67c-.53.32.24.28,1.69.06s3.59-.61,5.81-1,4.57-.71,6.41-1.18C322.23,54.52,319.48,54,316.68,54.49ZM207.19,116.38l.8.81.37.38c.1.1.3.3.26.29a1.65,1.65,0,0,1,.18.41,4.35,4.35,0,0,0,.29.75c.22.45.59.77,1.48.53a7.24,7.24,0,0,1-.88-1.38,2.34,2.34,0,0,0-.55-.64,1.76,1.76,0,0,1-.21-.13l-.63-.47A9.39,9.39,0,0,0,207.19,116.38Zm5.07,5.19c1.18.91,2,.77,3.05,1.36A1.69,1.69,0,0,0,214,121.3,2.22,2.22,0,0,0,212.26,121.57Zm5.7.76a5.52,5.52,0,0,1,1.86-.32c.49-.1.92-.41,1.05-1.63a4.18,4.18,0,0,1-1.68.93C218.56,121.55,218,121.76,218,122.33Zm3.93,1.27c.27-.31-.36-.67-.17-1,.38-.24,2-1.45,1-1.34a3,3,0,0,1-1.71,1.11,2.32,2.32,0,0,0-1.5,1,1,1,0,0,0-1.17-.61c-.41.09-.79.39-.79.71A6.69,6.69,0,0,0,221.89,123.6ZM263,91.2c-.43-.59,1.42-1.34,1.17-2-1.14.57-.05-.56,0-1.12-5.27,4-12.14,7-15.75,10.81,1.74-1.86,3.37-1.43,2.81,0,3.71-2.12,2.66-3.79,6.13-5.85.62.32,1.14.08.84,1.05C261.91,92.56,262,90.15,263,91.2Zm-48,32.69a3.34,3.34,0,0,1-1.8-.7c-.57-.36-1.07-.64-1.64-.38a17.69,17.69,0,0,1,1.7,1.07A1.32,1.32,0,0,0,215,123.89Zm72.29-50.66a28.5,28.5,0,0,1-4.5,2.68l-.47.22-.36.16-.66.29c-.44.22-.89.46-1.38.76a3.58,3.58,0,0,1-.42,1.88c-.36-1.63-2.36.63-2.59,1.19,0-1.65-3.11-1-3.12.48,1.1-.53.21.55.77,1.09,1.77-1.55,1.47.12,1.36.69a7.83,7.83,0,0,0,3.88-1.56c.75-.48,1.53-1,2.32-1.58l1.15-.86.65-.48.88-.61c2.32-1.61,4.44-3.1,5.87-3.93s2.16-.92,1.71.07a48.41,48.41,0,0,1,5.15-2.63c.88-.44,1.64-.77,2.05-1s.5-.44,0-.53c-.35.16-.73.36-1.12.56s-.76.46-1.12.65c-.71.39-1.31.64-1.56.44,2.47-1.62,5-2.8,7.33-4.05a73.14,73.14,0,0,1,6.8-3.22c4.3-1.86,8.11-3.3,11.23-5.2a46.72,46.72,0,0,0-6.1,1.11c.17,1.31-1.82,2.18-4,3s-4.64,1.46-5.46,1.73c-.14-.6,1.57-1.12,1.7-1.7a9.23,9.23,0,0,0-2.18.78c-.83.45-1.76,1-2.75,1.64s-2,1.31-3,2c-.51.33-1,.68-1.49,1s-1,.74-1.43,1.09c-3.7,2.82-6.67,4.74-6.36,2.13-3,1.26-2.39,4-4.19,3.65A3.26,3.26,0,0,0,287.31,73.23Zm29-11.38c.65-.16,1.31-.28,2-.41.38.54-.78.66-1.92.87s-2.3.44-1.89.94a53.62,53.62,0,0,1,10-1.3h1.25a10.66,10.66,0,0,0,1.25.09c.83,0,1.63.11,2.43.2a18.39,18.39,0,0,1,2.3.38c.76.13,1.47.36,2.17.54a17.06,17.06,0,0,1,6.47,3.41c2-.07,1.1-1.07,2.22-1.06,2.81,1.3,5.82,2.82,9,4.65,1.56.92,3.18,1.9,4.81,2.94s3.2,2.1,5,3.24l.66.42.16.09h0l.06,0,.26.11a2.3,2.3,0,0,0,.56.18c.39.08.71.27,1.13.35s.75.29,1.18.4.77.34,1.22.48a2.6,2.6,0,0,1,.8.58l.78.69a3.94,3.94,0,0,0,.93.67,4.36,4.36,0,0,0,1.34.27,3.92,3.92,0,0,0,1.41-.3,10.94,10.94,0,0,0,1.35-.55,5.4,5.4,0,0,1,1.43-.44,4,4,0,0,1,1.69,0,2.69,2.69,0,0,1,1-1.48,1.32,1.32,0,0,1,1.73,0c-.52.26-1.36.12-1.35.75.68-.37,2.55,0,2.43-1-1.52.34-.14-.25-.23-.85-2.53.19-4.49,1-6.64,1.6s-4.53.75-6.46-.74c1.12.17.89-.06.39-.46a3.91,3.91,0,0,1-1.32-1.16,6.75,6.75,0,0,0-.48.55c-.15.17-.3.35-.46.52a1.86,1.86,0,0,1-1,.64,2.85,2.85,0,0,1-.57-.64,2.09,2.09,0,0,1-.42-.64c-.05-.12-.08-.22-.14-.35l0-.07s0,0-.11-.15L362,75.2c-.43-.38-.84-.77-1.24-1.14L359.61,73a81.68,81.68,0,0,0-9.53-8.38c-2.4-.52-4.58-2.11-3.32.36-1.05-1-3.25-2-4.4-2.89.62,1.45-1,1.42-2.88.93a18.57,18.57,0,0,1-5.06-1.88c.52-.65,3.14.36,2.24-1.32-2.58.22-4.07-1.5-6.12-.64,1.28.35,2,.85,1.89,1.62a66.24,66.24,0,0,1-8-.43C321.43,60.27,318.36,60.6,316.32,61.85Zm-17.22,3c-4.75,2.73-12.4,6.54-15,9.39,2.29-1.58,5.32-3.35,8.15-4.93,1.42-.8,2.77-1.59,3.94-2.37A29.17,29.17,0,0,0,299.1,64.83Zm-56,41.92c1.31-1.3,2.82-2.62,3.2-3.81-1.34,1.32-6.29,3.32-4.62,3.25C242.38,105.72,242.76,106.23,243.12,106.75ZM367.9,75.47a5.6,5.6,0,0,1-2.38-.66,2.27,2.27,0,0,0-.5-.17,1.19,1.19,0,0,0-.43-.16,1.48,1.48,0,0,0-.47,0,1.06,1.06,0,0,0-.46.06c.16,0,.25.13.41.18a2.35,2.35,0,0,1,.46.21,7.48,7.48,0,0,0,1,.5,5.29,5.29,0,0,0,1.17.3A2.69,2.69,0,0,0,367.9,75.47Zm9.72-.53a6.89,6.89,0,0,1-1.35.31c-.48.09-1,.06-1.45.12a4.83,4.83,0,0,0-.68.11,2.35,2.35,0,0,0-.6.09,1.86,1.86,0,0,0-1,.55,20.63,20.63,0,0,1,2.7-.26A3,3,0,0,0,377.62,74.94Zm4.48-.85a5.34,5.34,0,0,1-1.37.1,1.62,1.62,0,0,0-1.33.75,5.13,5.13,0,0,1,1.45-.06A1.32,1.32,0,0,0,382.1,74.09Zm1.27,2.37c2-1.1,6.74-3.8,9.51-5.38a4.64,4.64,0,0,0-2.49.45c-.55.21-1.16.41-1.75.68s-1.17.53-1.69.79a13.36,13.36,0,0,0-2.73,1.71C383.51,75.26,383.13,75.88,383.37,76.46Zm-171.25,50.6a17.46,17.46,0,0,0,4,1.59,4.41,4.41,0,0,0,4.12-1.42,16.86,16.86,0,0,1-4.38.35A36.07,36.07,0,0,1,212.12,127.06ZM397.3,68.5c-.85-.83,2.41-1.36.67-2.23a2.5,2.5,0,0,0-1.41,1.43C396.38,68.23,396.55,68.65,397.3,68.5Zm-58.09-1.35c2.21.73,3.55,1.68,4.09,2.67a38.4,38.4,0,0,0-9.21-3,42,42,0,0,0-4.77-.58c-1.62-.1-3.26-.09-4.93-.08a80.94,80.94,0,0,0-8.51.89,23.49,23.49,0,0,1,8.52-1.81c4.55,0,8.6.79,13.93,1.61a11.25,11.25,0,0,0-4.91-2.65,17.49,17.49,0,0,0-2-.51,15.15,15.15,0,0,0-2.19-.39,41.63,41.63,0,0,0-4.85-.31,38.69,38.69,0,0,0-8.84,1.38c-.34,1.18,1.38.65,3.34.18s4.14-.85,4.37-.16a65.21,65.21,0,0,0-13.73,3.48c-1.06.37-2.1.8-3.11,1.23s-2,1-3,1.45a46.77,46.77,0,0,0-5.58,3.09,54.49,54.49,0,0,1,5.16-2.11c1.74-.64,3.49-1.5,5.62-2.41a2.07,2.07,0,0,1-.58,1.7,45.71,45.71,0,0,1,16.3-4.27,50.52,50.52,0,0,1,5.08.17c.84.07,1.67.23,2.51.34s1.64.31,2.45.52c-1.07,1.11.51,1.57,2.35,2.11s4,1.21,4.13,2c-1-.29-2.46-1.06-3.83-1.55s-2.58-.79-3-.38c1.43,1.09,3.12,2.2,4.66,3.47-1.7-.32-3.5-.54-5.7-.79l-1.72-.15-1.9-.1h-2.09l-2.28.07-.74,0a27.07,27.07,0,0,0-3.86.46c-1.11.25-1.64.51-.51.56a33.32,33.32,0,0,1,4.36-.7,30.88,30.88,0,0,1,6.74.33,35.4,35.4,0,0,1,6.1,1.66,59.42,59.42,0,0,1,12.32,6.67c.73-1.16-.81-2.54-2.81-3.84s-4.39-2.43-5.45-3.59a61.48,61.48,0,0,1,10.52,6.1,52.64,52.64,0,0,0,4.55,2.8c2,1.12,2.11.78,2.95.69-.3-.26.06-.51.44-.79-.24-.15-.42-.35-.62-.48-.48-.33-.95-.63-1.39-.94-1.29-.83-2.32-1.56-3.38-2.26a58,58,0,0,1-5.89-4.31c2.06,1.21,4.13,2.56,6.21,4,1.06.72,2,1.45,3.17,2.19l.83.57.41.28.15.09.5.31A24.14,24.14,0,0,0,364.3,84a32,32,0,0,0,12.52,1,14.54,14.54,0,0,0,1.74-.23c.58-.1,1.15-.15,1.74-.29,1.16-.27,2.31-.5,3.44-.87a37.47,37.47,0,0,0,6.44-2.52c1-.54,1.93-1,2.94-1.67.5-.32,1-.61,1.45-.94l1.39-1c.93-.64,1.77-1.44,2.61-2.14s1.61-1.54,2.33-2.29c-1.25.93-2.57,2.19-3.26.72,3-2,4.94-3,7.36-6.36a31,31,0,0,1-6.43,4.78,55.49,55.49,0,0,0-5.85,3.71c-.21-.54.14-1.14-.86-.54l-1.18.71-.59.35-.55.28c-.73.35-1.42.79-2.19,1.09s-1.47.68-2.25.95-1.49.59-2.27.8a39.13,39.13,0,0,1-8.89,1.78,33.15,33.15,0,0,1-7.65-.26c-.28,0-.57-.09-.86-.12s-.51-.14-.77-.19l-.79-.16c-.24-.08-.49-.16-.73-.22s-.5-.11-.74-.19l-.68-.25a4.45,4.45,0,0,1-.7-.24l-.32-.14-.16-.07-.1,0-.32-.21.2.17a.8.8,0,0,1,.14.11l.08.09.13.2a3.71,3.71,0,0,1,.19.46,3.26,3.26,0,0,1,.22,1.06c-.17-.28-.38-.48-.55-.79-.07-.15-.17-.29-.25-.43l-.06-.1a.66.66,0,0,0-.18-.19l-.74-.62c-.95-.82-2-1.68-3-2.54s-2.07-1.72-3.17-2.55C348.8,70.78,343.88,68.1,339.21,67.15Zm-81,33.76c.68-.45,1.51-1.25,1.92-.9,4.78-3.62,8-6.14,3-2.85-.79.55-2.22,2.16-3,1.74,1.34-.85,2-1.65,1.67-2.38C259.4,98.07,259.28,99.44,258.24,100.91Zm23.88-15.42A25.34,25.34,0,0,1,285.65,83l1.18-.72,1.61-.93,3.25-1.86c2.13-1.28,4.26-2.4,6-3.54.89-.54,1.68-1.1,2.39-1.61A13,13,0,0,0,301.85,73a15.83,15.83,0,0,0-2.51,1.29L296.64,76c-1.79,1.11-3.42,2-4.37,2,3.19-1.81,3.73-2.25,2.73-1.94-.48.16-1.34.51-2.43,1s-2.37,1.18-3.73,1.9c-.67.39-1.36.76-2.07,1.15l-1,.61-.78.48a18.75,18.75,0,0,0-2.34,1.7C281.39,84,280.93,85,282.12,85.49ZM108.6,119.41c-3.4,2.85-7.75,3.57-9.37,6.4.9-.24,3.9-2.19,6.41-3.86S110.17,118.83,108.6,119.41Zm56-12.6c.61.16,2.28.46,3.42.67s1.81.27.39-.36a59.49,59.49,0,0,0-20.83-1.05c-.13-.69.05-1.56-2-1.08a115.38,115.38,0,0,0-12.26,3.4c-.77.24-2.38.79-4.25,1.49s-4,1.57-5.76,2.39c-.87.41-1.57.76-2.13,1a9.35,9.35,0,0,0-1.24.7c-.48.34-.26.35,1.19-.15a10.75,10.75,0,0,0,2.55-.88c1-.45,2.19-1,3.25-1.38,2.13-.82,4-1.25,4.31-.16-1.19.46-4.67,1.66-7.86,3.19-2.9,1.38-5.41,3-6,4.19,1.13-.49,1,.58.68,1.15,1.34-.6,2.66-1.18,4-1.73s2.58-1.08,4.09-1.68c2.92-1.18,5.76-2.16,8.52-3a80.38,80.38,0,0,1,16.13-3.35,56.78,56.78,0,0,1,15.82.6,50.84,50.84,0,0,1,15.74,5.84c.37-.4,1.33.09,2.19.5s1.65.73,1.78-.12a20.6,20.6,0,0,0-4.3-3c-.82-.49-1.64-1-2.36-1.39a10.71,10.71,0,0,1-1.77-1.29c.64-.29,2.14.48,3.59,1.27s2.81,1.67,3.43,1.4a30.63,30.63,0,0,0-7.67-4.27c-2.39-.78-3.56-.72-1.24,1.29a51.6,51.6,0,0,0-12.11-2.92c-3.89-.54-7.32-.74-9.68-1.54C158.07,106.48,161.87,106.91,164.58,106.81ZM79.79,148.39c.93-1.47,3.34-3.09,2.37-4.32-1.87,2.05-3,1.39-4.66,2.76C78.68,148.59,80.79,145.38,79.79,148.39ZM372.23,86.8a3.92,3.92,0,0,1,2,.06,15,15,0,0,1,1.67.77c1.07.5,2.09,1.05,3.17.15a25.73,25.73,0,0,0-3.74-1.28C373.9,86.09,372.65,86.05,372.23,86.8ZM97.07,133.57c2.7-1.42,7.76-4.83,7.47-5.56C102.73,128.88,96.57,131.39,97.07,133.57ZM370.16,86.82a1.16,1.16,0,0,0-1.27.83c.73,0,1.34.13,1.9.11s1,0,1.36-.06c.7,0,1.05-.14,1.09-.25S372.07,87,370.16,86.82Zm-10,.42a7.21,7.21,0,0,0,.92,1.07,6.88,6.88,0,0,0,1.29.82,3,3,0,0,0,2.51.31c-.47-1-1.33-1.09-2.19-1.26a12.22,12.22,0,0,1-1.37-.21A2.53,2.53,0,0,1,360.16,87.24Zm22.26,2.5c.28-.11.55-.22.38-.56-.61.07-.42-.4-.22-.86a100.93,100.93,0,0,1-14.27,1.09c.8,1.35,3.8,1.77,6.85,1.35s5.94-1.33,6.68-1.33C381.35,89.59,381.59,90.1,382.42,89.74Zm-248,31.4a30.87,30.87,0,0,1-4.58,1.71c-.67.21-1.38.4-2,.67a15.69,15.69,0,0,0-2.12,1,15.93,15.93,0,0,0,2.23-.25c.91-.17,2-.4,3-.68C132.9,123,134.57,122.26,134.43,121.14ZM121,130.61l4.87-2.26c1.74-.8,3.53-1.63,5.63-2.5a81.24,81.24,0,0,1,13.08-4.35,50.89,50.89,0,0,1,13.65-1.29,39.11,39.11,0,0,1,11.64,2.32,33.3,33.3,0,0,0-11.14-3,45.16,45.16,0,0,0-11.85.49,69,69,0,0,0-11,2.93c-1.71.59-3.33,1.22-4.88,1.83l-4.31,1.72c-.33-.66,1.67-1.08,1.56-1.74-1.27.87-4.51,1.63-4.3,2.67,2.41-.6,1.57,0,.2.8S120.85,130.17,121,130.61Zm22.14-5.7a66.29,66.29,0,0,0-13.17,3.8c-4.63,1.92-8.76,4.53-10.57,7,4.11-2.39,8.11-4.36,12-6.17S139.31,126.25,143.09,124.91ZM108.78,144.8c-2.73.85-5,3.69-6.73,4.19C104.32,149.77,106.55,146.75,108.78,144.8ZM92.46,164.53c1.71-2.05,5.19-2.39,4.64-4.49C95.77,160.59,92.26,163.48,92.46,164.53Zm42.88-30.85c.42,1.14,1.26.43.68,1.64a14.68,14.68,0,0,1,3.63-1.92,12.52,12.52,0,0,0,2.87-1.4c.74,1.11,2.72.51,5.24-.13s5.57-1.32,7.81-.8a2.34,2.34,0,0,0-1.65-1.23,6.18,6.18,0,0,0-2.24.13c-1.58.39-3.17,1.09-4.45.88.45-.2,1.17-.23,1.16-.66A29.13,29.13,0,0,0,135.34,133.68ZM326.1,99.18a14.47,14.47,0,0,0-2,0,9.09,9.09,0,0,0-2.3.48c-.41.13-.52.23-.42.25s1.35-.09,2.71.07c.29,0,.62.09.92.16-.31.08-.62.17-.93.23-2.32.56-4.56.89-6.61,1.44s-3.91,1.35-5,2.91c2.3-1.4,1.53-.67.72.62a35,35,0,0,1,4.94-2.52,19.52,19.52,0,0,1,5.95-1.52c2.84-.19,5.45.5,7.58.69-1.71-1.14-4.88-3-2.33-.55A7.37,7.37,0,0,1,326.1,99.18Zm-27.43,15.93c2.9-2.42,4.09-3.39,3.86-3.42a33.45,33.45,0,0,0-4.61,2.33c-.91.58-1.14,1.17-1.07,1.78C297.5,115.43,298.28,114.73,298.67,115.11Zm-1.56,4.29a12.39,12.39,0,0,1,4.05-3.66c.93-.59,1.95-1.15,3-1.7l1.64-.78.82-.38c.27-.12.44-.17.66-.25l-.71-1.12c-.48.17-1.52.7-2.53,1.2a31.35,31.35,0,0,0-3.13,1.8C298.92,115.88,297.23,117.53,297.11,119.4Zm24.17-16.15c-.48-.42-1.44-.12-2.42.41a28.4,28.4,0,0,1-2.77,1.54c-.21,0-4.27,2.11-4.73,3.34,1.8-.71,3.37-1.34,4.84-2a29.86,29.86,0,0,1,4.35-1.56c-.06-1.21-1.11-.76-2.18-.06s-2.12,1.55-2.56.94A30.3,30.3,0,0,1,321.28,103.25ZM377,120.31a6.38,6.38,0,0,1-3,.39c-1.42-.09-3.11-.26-4.77-.5s-3.28-.55-4.54-.7-2.2-.2-2.5.18c0-.27,0-.53-.74-.54a21.17,21.17,0,0,0,3.32,1.06c1.43.3,3.13.55,4.8.73a40.08,40.08,0,0,0,4.63,0A7,7,0,0,0,377,120.31Zm21.3-4c.55-.21,2.1-.74,3.16-1.22s1.66-.88.39-.65c-1.1.49-2.22.87-3.33,1.31l-1.68.64-1.7.55a9.68,9.68,0,0,0-3.51.58c-1.41.36-2.95.88-4.29,1.11a22,22,0,0,1-3.28,1.4,3.36,3.36,0,0,1-3-.26c.93-.21,2.27-.27,2.32-.81a118.25,118.25,0,0,1-17.13,2.79,56.12,56.12,0,0,0,9-.07c1.33-.14,2.62-.26,3.86-.43l3.63-.64A113.93,113.93,0,0,0,398.25,116.36ZM149.49,145.09c.22-.57-.88-.38-2.11-.07s-2.59.78-3.14.45c.17.71-1,.61-.9,1.26A31.56,31.56,0,0,1,149.49,145.09Zm-30.05,16.8c-1.73,2.64-3.85,1.22-5.16,4.17,2.82.28,7.23-4.56,9.17-6.67C121.6,162,116.22,161.53,119.44,161.89Zm7.34-3.8c-.81-1.33,2.92-2.38,2.94-3.63-1.88.44-6.14,2.3-7.28,4.58C124.77,157.49,123.91,160.54,126.78,158.09Zm15.55-8.57c-.29.16-.57.37-.86.5s-.62.29-1,.45c-.85.35-1.71.69-2.51,1a10.85,10.85,0,0,0-4,2.41c.59-.27,1.26-.82,1.6-.42-2.44,1.17-2.59,2.8-3.53,4.28,2-1,4.09-2.32,5.57-1.86-3.64,1.68-7.88,5.68-11.36,7,2-1.51,6.32-4.41,4.64-4.91-2.42,2.28-5.76,4.77-6.34,7.32a146.91,146.91,0,0,1,13.8-9.13l1.53-.85,1.47-.79,1.37-.69c.32-.15.64-.29,1-.47a36.27,36.27,0,0,1,4-1.6,21.4,21.4,0,0,1,8.69-1.17,19.14,19.14,0,0,1,4.63,1,23,23,0,0,1,4.56,2.36,9.75,9.75,0,0,0-5.83-3.95,32.36,32.36,0,0,0-3.57-.68,23.15,23.15,0,0,1-3.2-.54c1.39,0,2.71.23,3.54-.68a13,13,0,0,0-4.59-.13,14.82,14.82,0,0,1-4.18.17,17.42,17.42,0,0,0,3.21-.76,7.78,7.78,0,0,1,3.24-.42,3.35,3.35,0,0,0-2.14-1.17c-.61-.16-1-.33-1.23-1.39-2.11,1.53-4.59,2-7.14,2.64a26.76,26.76,0,0,0-3.68,1.16,14.66,14.66,0,0,0-2,1,9.33,9.33,0,0,0-1.66,1.27c.58-.25,1.15-.47,1.35.28a9.32,9.32,0,0,0-3.3.8,5.69,5.69,0,0,0-2.91,2.31c1.62-.71,3.5-1.67,5.47-2.55,1-.45,2-.87,3-1.23a10,10,0,0,1,1.33-.41C141.55,149.67,142,149.58,142.33,149.52ZM286,136.31a15,15,0,0,0-5.25,3.79,13.65,13.65,0,0,1-4.53,3.48C280.29,143,285.45,136.53,286,136.31Zm26.28-18.42a5.65,5.65,0,0,0-1.16,1,4.14,4.14,0,0,1-.32.34l-.5.47-1,.94a14,14,0,0,1-4,2.88,35.66,35.66,0,0,0,5.57-3.14l2-1.27c.54-.35,1.06-.67,1.48-.9,1.41-.77,2.9-1.58,4.45-2.44a14,14,0,0,1,5.22-1.93,9.19,9.19,0,0,1,5.39,1.36c1.63.93,3.1,2.06,4.61,3.07.38.24.79.51,1.13.71l.58.34,1.79,1c1.18.69,2.43,1.19,3.62,1.75a37.8,37.8,0,0,0,3.6,1.51c1.2.41,2.38.85,3.55,1.26s2.32.67,3.44,1c2.25.67,4.43,1,6.48,1.43-2.11-.56-4.29-1-6.54-1.82-1.12-.37-2.27-.71-3.43-1.15s-2.31-.93-3.48-1.42-2.34-1.06-3.52-1.64-2.37-1.14-3.51-1.87l-1.64-1-.49-.36c-.37-.27-.74-.57-1.12-.85a51.29,51.29,0,0,0-4.73-3.51,9.37,9.37,0,0,0-5.69-1.56c-2.43.22-4.51,1.48-6.41,2.6Zm47.77,9.64c1.68.1,3.19.32,4.58.48l4,.46a24.49,24.49,0,0,0,3.84.09c.66,0,1.33-.09,2-.18a20.29,20.29,0,0,0,2.14-.48c-1-.55-4.57-.72-8.15-.81-1.81-.09-3.61,0-5.12,0A8.43,8.43,0,0,0,360.08,127.53ZM163.31,159.39c.75-.73-.22-.86.31-1.54a28,28,0,0,0-6.51-3.47,16.92,16.92,0,0,0-7.9-.62,22.62,22.62,0,0,0-3.93,1c-.31.13-.63.23-.94.36l-.91.39c-.44.21-.88.43-1.32.62l-1.4.74a53.72,53.72,0,0,0-10.56,7.58c1.54-.62,3.22-1.86,4.8-2.7s3-1.28,4.13-.54c-3.47,2.25-6.91,4-10.27,5.9-1.68.93-3.36,1.91-5,3-.83.54-1.65,1.12-2.48,1.75-.4.31-.85.66-1.3,1s-.89.75-1.34,1.14c.78-.56,1.72-1.63,2.25-1.29,1,1.25-2.64,2.9-1.48,4.13a16.27,16.27,0,0,0,2.49-2.15A3.14,3.14,0,0,1,123,174a.68.68,0,0,1,.83.4c-.22.84-1.41,1.88-2.72,2.89a37.06,37.06,0,0,0-3.74,3.05c2.3-1.55,4.84-3.34,7.08-5s4.23-3,6.38-4.51c4.15-2.89,8.16-5.54,11.75-7.56l1.32-.73,1.27-.66,1.07-.51.58-.26a15.6,15.6,0,0,1,2.38-.82,8,8,0,0,1,4.57.08c.94-1,2.66-.54,4,.41.7.47,1.31,1,1.93,1.39a3.53,3.53,0,0,0,.94.45,2.73,2.73,0,0,0,.46.08,8.56,8.56,0,0,0,.93.42c-.19-.21-.41-.46-.6-.63s-.17-.18-.25-.27a6.22,6.22,0,0,0-.56-.46c-.39-.29-.82-.56-1.24-.83a3.21,3.21,0,0,1-1.64-2.22,3.8,3.8,0,0,1,3.69,1.56c.22.23.39.46.61.65s.21.18.89.73c.28.23.56.43.85.63l.22.16.36.29.82.62a37.22,37.22,0,0,0,3.4,2.27l-2.48-2.45L165,162l-.38-.41-.27-.32c-.18-.22-.35-.42-.5-.63s-.34-.44-.32-.5A4.64,4.64,0,0,1,163.31,159.39ZM312.6,125.63c.36-.12.74-.27,1.13-.42l.59-.24a2.87,2.87,0,0,1,.49-.18,4.37,4.37,0,0,0,1.11-.31,3.8,3.8,0,0,0,1.88-1.65c-.79.62-1.06,0-1.43.88-.26-.52,0-.73-.38-1.34a8.82,8.82,0,0,1-1.58.94,1.91,1.91,0,0,0-.33.25c-.16.16-.33.31-.47.47A5.52,5.52,0,0,0,312.6,125.63Zm5.33-3.89c.69-.16,1.78-.11,2.54-.22s1.24-.45.8-1.64a3.33,3.33,0,0,1,2.71-.51,2.16,2.16,0,0,0,2.28-.54,4.26,4.26,0,0,0-2.27-.72,6,6,0,0,0-3.48,1.31A18.12,18.12,0,0,0,317.93,121.74Zm26.8,8.59c-1.15-1.05-3.42-2.2-6.21-3.87l-2.22-1.24c-.77-.43-1.53-1-2.34-1.44l-.6-.37-.27-.18,0,0-.2-.19c-.11-.12-.35-.29-.53-.44a25,25,0,0,0-4.41-3,25,25,0,0,0,3.48,3.83c.28.21.53.42.8.64l.16.12.07.07,0,0,.26.15c.71.42,1.41.85,2.15,1.28A100.63,100.63,0,0,0,344.73,130.33ZM311.36,127c-.51-1.06-1.52-.76-2.75.22C309.14,128.25,310.11,127.91,311.36,127Zm83.31,3.57A137.9,137.9,0,0,0,411.16,125c1.34-.62,2.66-1.22,3.94-1.87s2.4-1.32,3.57-2,2.21-1.41,3.24-2.15a32.7,32.7,0,0,0,2.89-2.34c-1.75,1.11-3.59,2.14-5.39,3.14l-2.77,1.44-1.4.72-1.48.69-3,1.36c-1,.43-2,.81-3,1.21-2,.84-4.09,1.5-6.16,2.19s-4.22,1.26-6.38,1.83-4.37,1.09-6.67,1.48a115.51,115.51,0,0,1-14.45,1.88c2.68,1.67,6.32,1.74,10,1S391.38,131.49,394.67,130.54ZM225.11,187.27c.65-.19,1.75-.43,3-.68s2.52-.68,3.66-1c2.21-.82,3.64-1.53,1.85-1.64-.12.31-.69.58-1.48.83s-1.84.4-2.85.64C227.22,185.81,225.22,186.18,225.11,187.27Zm-75.43-26.19c.82-.63.55,1.66.48,2.19a3.07,3.07,0,0,1,1.69-.54,3.62,3.62,0,0,0,1.75-.51c-.33-.34-.91-.24-1.44-.1a1.42,1.42,0,0,1-1.58-.31c.06-1,.8-.51.92-1.49C151,160.51,149.21,160.27,149.68,161.08Zm-11.49,7.52c.77.36,2.19-.24,3.46-1a11.09,11.09,0,0,0,2.86-2.33C142,166.72,139.07,166.62,138.19,168.6Zm-8.27,6.05a14.31,14.31,0,0,0-3.51,2.12,9.63,9.63,0,0,0-.86.75,4.53,4.53,0,0,0-.61.7c-.26.42-.2.68.44.66.15-.24,2.75-2.33,4.6-3.78S132.88,172.76,129.92,174.65Zm26.52-11.9c-.37.09-.69-1-1.13,0C155.26,163.53,155.89,163.53,156.44,162.75Zm-7.27-.13c.06.57-.49.69-.95.84s-.8.26-.26.56a2.08,2.08,0,0,1,1.11-.38,1,1,0,0,0,.88-.78C149.67,163.12,149.5,162.13,149.17,162.62Zm171.19-34c-.28.49-1.37.17-1.07,1.18C319.55,129.3,320.54,129.68,320.36,128.6Zm-4,4.66c-1.32,1.18-4.49,2.32-4.57,3.59C313.09,135.64,316.25,134.52,316.36,133.26Zm-89.19,62.65.16,1.34c2.72-.91,6.36-1.89,9.9-3.14s6.89-2.89,9-4.59c-1.7.77-3.47,1.43-5.21,2.11l-2.62.91-1.28.44-1.28.38-2.45.76c-.81.2-1.56.42-2.31.63C229.59,195.2,228.25,195.51,227.17,195.91Zm52.19-33.85a38.18,38.18,0,0,1-3.83,3.69c-.61.54-1.17,1.06-1.71,1.59s-.9.9-1.34,1.35-1,1.07-1.48,1.62a8.08,8.08,0,0,0,1.62-.88l1-.7.54-.42.29-.18a13.29,13.29,0,0,0,2.22-1.91C278.09,164.79,279.23,163.11,279.36,162.06Zm176.86-55.7c3.55-3.49,7.2-7,9.16-10.07-1.79-.18-3.64,1.61-5.34,3.87-.82,1.11-1.62,2.33-2.3,3.44S456.56,105.69,456.22,106.36Zm-61.58-30.1c.25-.63-.91-.86,1.13-1.78a1.33,1.33,0,0,1-.3,1.27c.36.4.95-.18,1.47-.45.14,1.15-2.5,1.83-3.47,2.71,1.43-1.64-.38-1.09-1.69-.63-.66.24-1.2.49-1.17.46s.13,0,.48-.19l1.69-.79C392.9,76.84,393.65,75.39,394.64,76.26ZM52.74,194.74A19.83,19.83,0,0,0,49.53,199C47.87,199.65,51.57,193.91,52.74,194.74Zm78.89-52.31c-.07,0,1-.22.22.39a38.64,38.64,0,0,1-5.68,3.38c-1.29.6-1.35.27,1.85-1.7A21.37,21.37,0,0,1,131.63,142.43ZM63.76,230.14c-.17-.22.27-.91.81-1.74A17.2,17.2,0,0,0,66,225.73C67.21,226.76,64.63,229,63.76,230.14Zm16.33-45.47c2.34-.89-.59,2-1.56,2.8.62.74,1.68-1.41,2.52-1.86,0,.54,0,1.07.64.62-1.22.71-5.43,6.12-6.44,3.25-.43.31-.28.53-.1.73C74,188.57,78.3,188.34,80.09,184.67Z"/></clipPath><linearGradient id="Dégradé_sans_nom_2" x1="-18.88" y1="1061.62" x2="255.81" y2="1061.62" gradientTransform="matrix(1.6, -0.47, -0.46, -1.55, 534.4, 1831.38)" gradientUnits="userSpaceOnUse"><stop offset="0" stop-color="#aeb4dc"/><stop offset="0" stop-color="#aeb2db"/><stop offset="0.01" stop-color="#afb1da"/><stop offset="0.01" stop-color="#afb0d9"/><stop offset="0.02" stop-color="#afafd8"/><stop offset="0.02" stop-color="#b0aed7"/><stop offset="0.02" stop-color="#afacd6"/><stop offset="0.03" stop-color="#b0acd6"/><stop offset="0.03" stop-color="#b1acd6"/><stop offset="0.04" stop-color="#b0a9d4"/><stop offset="0.04" stop-color="#b1a8d3"/><stop offset="0.04" stop-color="#b0a7d3"/><stop offset="0.05" stop-color="#b1a6d2"/><stop offset="0.05" stop-color="#b1a6d1"/><stop offset="0.05" stop-color="#b1a4d0"/><stop offset="0.06" stop-color="#b1a3d0"/><stop offset="0.06" stop-color="#b0a2cf"/><stop offset="0.07" stop-color="#b0a1ce"/><stop offset="0.07" stop-color="#b19fcd"/><stop offset="0.07" stop-color="#b09ecd"/><stop offset="0.08" stop-color="#b09dcc"/><stop offset="0.08" stop-color="#b09ccb"/><stop offset="0.09" stop-color="#b09bca"/><stop offset="0.09" stop-color="#b099c9"/><stop offset="0.09" stop-color="#b099c9"/><stop offset="0.1" stop-color="#b098c8"/><stop offset="0.1" stop-color="#b096c7"/><stop offset="0.11" stop-color="#b095c6"/><stop offset="0.11" stop-color="#b195c6"/><stop offset="0.11" stop-color="#b194c5"/><stop offset="0.12" stop-color="#b193c5"/><stop offset="0.12" stop-color="#b193c4"/><stop offset="0.13" stop-color="#b190c2"/><stop offset="0.13" stop-color="#b18fc2"/><stop offset="0.13" stop-color="#b18fc1"/><stop offset="0.14" stop-color="#b18dc0"/><stop offset="0.14" stop-color="#b18dc0"/><stop offset="0.14" stop-color="#b18cbf"/><stop offset="0.15" stop-color="#b18abe"/><stop offset="0.15" stop-color="#b189bd"/><stop offset="0.16" stop-color="#b188bd"/><stop offset="0.16" stop-color="#b287bc"/><stop offset="0.16" stop-color="#b287bc"/><stop offset="0.17" stop-color="#b285ba"/><stop offset="0.17" stop-color="#b284ba"/><stop offset="0.18" stop-color="#b283b9"/><stop offset="0.18" stop-color="#b382b8"/><stop offset="0.18" stop-color="#b382b8"/><stop offset="0.19" stop-color="#b381b8"/><stop offset="0.19" stop-color="#b380b7"/><stop offset="0.2" stop-color="#b47eb6"/><stop offset="0.2" stop-color="#b47eb6"/><stop offset="0.2" stop-color="#b47eb5"/><stop offset="0.21" stop-color="#b47db5"/><stop offset="0.21" stop-color="#b37ab3"/><stop offset="0.21" stop-color="#b47ab3"/><stop offset="0.22" stop-color="#b479b2"/><stop offset="0.22" stop-color="#b478b1"/><stop offset="0.23" stop-color="#b577b1"/><stop offset="0.23" stop-color="#b476b0"/><stop offset="0.23" stop-color="#b474af"/><stop offset="0.24" stop-color="#b574ae"/><stop offset="0.24" stop-color="#b473ae"/><stop offset="0.25" stop-color="#b572ad"/><stop offset="0.25" stop-color="#b472ad"/><stop offset="0.25" stop-color="#b56fac"/><stop offset="0.26" stop-color="#b66fab"/><stop offset="0.26" stop-color="#b66eab"/><stop offset="0.27" stop-color="#b66caa"/><stop offset="0.27" stop-color="#b66ba9"/><stop offset="0.27" stop-color="#b76ca9"/><stop offset="0.28" stop-color="#b76aa8"/><stop offset="0.28" stop-color="#b669a7"/><stop offset="0.29" stop-color="#b868a7"/><stop offset="0.29" stop-color="#b867a6"/><stop offset="0.29" stop-color="#b867a6"/><stop offset="0.3" stop-color="#b966a5"/><stop offset="0.3" stop-color="#b964a4"/><stop offset="0.3" stop-color="#b963a4"/><stop offset="0.31" stop-color="#b962a3"/><stop offset="0.31" stop-color="#ba63a3"/><stop offset="0.32" stop-color="#ba62a3"/><stop offset="0.32" stop-color="#ba60a2"/><stop offset="0.32" stop-color="#ba60a2"/><stop offset="0.33" stop-color="#ba5fa1"/><stop offset="0.33" stop-color="#bc5ea0"/><stop offset="0.34" stop-color="#bc5da0"/><stop offset="0.34" stop-color="#bc5da0"/><stop offset="0.34" stop-color="#bc5c9f"/><stop offset="0.35" stop-color="#bc5b9e"/><stop offset="0.35" stop-color="#be599d"/><stop offset="0.36" stop-color="#be599d"/><stop offset="0.36" stop-color="#be589d"/><stop offset="0.36" stop-color="#bf579c"/><stop offset="0.37" stop-color="#bf569c"/><stop offset="0.37" stop-color="#bf559b"/><stop offset="0.38" stop-color="#c1559b"/><stop offset="0.38" stop-color="#c1559b"/><stop offset="0.38" stop-color="#c2549a"/><stop offset="0.39" stop-color="#c1539a"/><stop offset="0.39" stop-color="#c2539a"/><stop offset="0.39" stop-color="#c45299"/><stop offset="0.4" stop-color="#c35299"/><stop offset="0.4" stop-color="#c55098"/><stop offset="0.41" stop-color="#c55098"/><stop offset="0.41" stop-color="#c54f97"/><stop offset="0.41" stop-color="#c74e97"/><stop offset="0.42" stop-color="#c74e97"/><stop offset="0.42" stop-color="#c84d96"/><stop offset="0.43" stop-color="#c84c96"/><stop offset="0.43" stop-color="#c84c96"/><stop offset="0.43" stop-color="#ca4b95"/><stop offset="0.44" stop-color="#cb4b95"/><stop offset="0.44" stop-color="#cc4a95"/><stop offset="0.45" stop-color="#cd4a95"/><stop offset="0.45" stop-color="#ce4994"/><stop offset="0.45" stop-color="#ce4994"/><stop offset="0.46" stop-color="#cf4894"/><stop offset="0.46" stop-color="#d04894"/><stop offset="0.46" stop-color="#d04793"/><stop offset="0.47" stop-color="#d24793"/><stop offset="0.47" stop-color="#d34692"/><stop offset="0.48" stop-color="#d44592"/><stop offset="0.48" stop-color="#d64592"/><stop offset="0.48" stop-color="#d54592"/><stop offset="0.49" stop-color="#d64491"/><stop offset="0.49" stop-color="#d84491"/><stop offset="0.5" stop-color="#d84391"/><stop offset="0.5" stop-color="#d94190"/><stop offset="0.5" stop-color="#d94190"/><stop offset="0.51" stop-color="#db4190"/><stop offset="0.51" stop-color="#dc4090"/><stop offset="0.52" stop-color="#dd4090"/><stop offset="0.52" stop-color="#de4090"/><stop offset="0.52" stop-color="#de4090"/><stop offset="0.53" stop-color="#df4090"/><stop offset="0.53" stop-color="#df4090"/><stop offset="0.54" stop-color="#e1408f"/><stop offset="0.54" stop-color="#e2408f"/><stop offset="0.54" stop-color="#e2408f"/><stop offset="0.55" stop-color="#e4408f"/><stop offset="0.55" stop-color="#e44190"/><stop offset="0.55" stop-color="#e64190"/><stop offset="0.56" stop-color="#e64290"/><stop offset="0.56" stop-color="#e74190"/><stop offset="0.57" stop-color="#e74290"/><stop offset="0.57" stop-color="#e94491"/><stop offset="0.57" stop-color="#e94391"/><stop offset="0.58" stop-color="#e94391"/><stop offset="0.58" stop-color="#e94591"/><stop offset="0.59" stop-color="#e94692"/><stop offset="0.59" stop-color="#e94692"/><stop offset="0.59" stop-color="#e94793"/><stop offset="0.6" stop-color="#e94793"/><stop offset="0.6" stop-color="#e94793"/><stop offset="0.61" stop-color="#ea4993"/><stop offset="0.61" stop-color="#ea4993"/><stop offset="0.61" stop-color="#ea4b94"/><stop offset="0.62" stop-color="#ea4c95"/><stop offset="0.62" stop-color="#ea4c95"/><stop offset="0.63" stop-color="#ea4e95"/><stop offset="0.63" stop-color="#ea4f95"/><stop offset="0.63" stop-color="#ea5095"/><stop offset="0.64" stop-color="#ea5194"/><stop offset="0.64" stop-color="#ea5393"/><stop offset="0.64" stop-color="#ea5493"/><stop offset="0.65" stop-color="#eb5793"/><stop offset="0.65" stop-color="#eb5792"/><stop offset="0.66" stop-color="#eb5a93"/><stop offset="0.66" stop-color="#eb5c92"/><stop offset="0.66" stop-color="#eb5c92"/><stop offset="0.67" stop-color="#eb5d91"/><stop offset="0.67" stop-color="#eb5e90"/><stop offset="0.68" stop-color="#ec5f90"/><stop offset="0.68" stop-color="#ec6290"/><stop offset="0.68" stop-color="#ec638f"/><stop offset="0.69" stop-color="#ec648e"/><stop offset="0.69" stop-color="#ec668f"/><stop offset="0.7" stop-color="#ed678d"/><stop offset="0.7" stop-color="#ed698e"/><stop offset="0.7" stop-color="#ed6b8d"/><stop offset="0.71" stop-color="#ed6c8d"/><stop offset="0.71" stop-color="#ed6e8c"/><stop offset="0.71" stop-color="#ee708b"/><stop offset="0.72" stop-color="#ee708b"/><stop offset="0.72" stop-color="#ee738a"/><stop offset="0.73" stop-color="#ee758a"/><stop offset="0.73" stop-color="#ee7689"/><stop offset="0.73" stop-color="#ee7889"/><stop offset="0.74" stop-color="#ef7987"/><stop offset="0.74" stop-color="#ef7b88"/><stop offset="0.75" stop-color="#ef7c87"/><stop offset="0.75" stop-color="#ef7d86"/><stop offset="0.75" stop-color="#ef7e85"/><stop offset="0.76" stop-color="#f08085"/><stop offset="0.76" stop-color="#f08285"/><stop offset="0.77" stop-color="#f08384"/><stop offset="0.77" stop-color="#f08584"/><stop offset="0.77" stop-color="#f08683"/><stop offset="0.78" stop-color="#f18983"/><stop offset="0.78" stop-color="#f18b83"/><stop offset="0.79" stop-color="#f18c82"/><stop offset="0.79" stop-color="#f28e81"/><stop offset="0.79" stop-color="#f28f81"/><stop offset="0.8" stop-color="#f29081"/><stop offset="0.8" stop-color="#f29380"/><stop offset="0.8" stop-color="#f2947f"/><stop offset="0.81" stop-color="#f3957e"/><stop offset="0.81" stop-color="#f3977f"/><stop offset="0.82" stop-color="#f3997e"/><stop offset="0.82" stop-color="#f49b7d"/><stop offset="0.82" stop-color="#f49d7d"/><stop offset="0.83" stop-color="#f49f7c"/><stop offset="0.83" stop-color="#f4a07c"/><stop offset="0.84" stop-color="#f5a27b"/><stop offset="0.84" stop-color="#f5a27a"/><stop offset="0.84" stop-color="#f5a57a"/><stop offset="0.85" stop-color="#f5a77a"/><stop offset="0.85" stop-color="#f6a879"/><stop offset="0.86" stop-color="#f6a978"/><stop offset="0.86" stop-color="#f6ac78"/><stop offset="0.86" stop-color="#f7ad78"/><stop offset="0.87" stop-color="#f7b078"/><stop offset="0.87" stop-color="#f8b276"/><stop offset="0.88" stop-color="#f8b276"/><stop offset="0.88" stop-color="#f8b575"/><stop offset="0.88" stop-color="#f9b675"/><stop offset="0.89" stop-color="#f9b774"/><stop offset="0.89" stop-color="#f9ba73"/><stop offset="0.89" stop-color="#fabb72"/><stop offset="0.9" stop-color="#fabc71"/><stop offset="0.9" stop-color="#fabe71"/><stop offset="0.91" stop-color="#fbc06f"/><stop offset="0.91" stop-color="#fbc170"/><stop offset="0.91" stop-color="#fbc36f"/><stop offset="0.92" stop-color="#fcc570"/><stop offset="0.92" stop-color="#fcc770"/><stop offset="0.93" stop-color="#fcc96e"/><stop offset="0.93" stop-color="#fdca6f"/><stop offset="0.93" stop-color="#fdcc6c"/><stop offset="0.94" stop-color="#fece6d"/><stop offset="0.94" stop-color="#fecf6b"/><stop offset="0.95" stop-color="#fed26b"/><stop offset="0.95" stop-color="#ffd46b"/><stop offset="0.95" stop-color="#ffd46b"/><stop offset="0.96" stop-color="#ffd769"/><stop offset="0.96" stop-color="#ffd868"/><stop offset="0.96" stop-color="#fed968"/><stop offset="0.97" stop-color="#fedb66"/><stop offset="0.97" stop-color="#fedd67"/><stop offset="0.98" stop-color="#fede67"/><stop offset="0.98" stop-color="#fee066"/><stop offset="0.98" stop-color="#fee165"/><stop offset="0.99" stop-color="#fee364"/><stop offset="0.99" stop-color="#ffe663"/><stop offset="1" stop-color="#ffe762"/><stop offset="1" stop-color="#ffe963"/></linearGradient></defs><g id="Calque_2" data-name="Calque 2"><g id="Calque_1-2" data-name="Calque 1"><g id="surface1"><g class="cls-2"><g class="cls-3"><path class="cls-4" d="M0,130,37,255.32,477.49,125.49,440.55.15Z" transform="translate(-0.04 -0.15)"/></g></g></g><path class="cls-5" d="M263.48,287.26c-14.06,1.84-51.41,2.31-48.52-18.48,4.6-33.08,20.41-54.31,20.45-65.73S256,181.4,256,181.4a41.81,41.81,0,0,1,20.56,22.51c6.38,16.55,20.32,50.09,23.1,64.55S272.78,286,263.48,287.26Z" transform="translate(-0.04 -0.15)"/><path class="cls-5" d="M229.5,252.52c33.1-9,27.35,51.94,26,79.54s2.79,73.15-3.77,79.05-18.34,3.95-21.1-10.05-20.83-83-18.9-114.36S219.4,255.28,229.5,252.52Z" transform="translate(-0.04 -0.15)"/><path class="cls-5" d="M240.19,389.62c14.59-5.68,17.46,6.42,16.92,25.14s4.79,89.7,8.56,107.63a268.07,268.07,0,0,1,4.68,28.46l-10.89,2.26s-1.31-8.83-9.4-37-19.46-44.57-22.48-68.38C224.86,426.35,227.75,394.47,240.19,389.62Z" transform="translate(-0.04 -0.15)"/><path class="cls-5" d="M278.31,581.61a15.58,15.58,0,0,0-.39-5c-1.39-5.38-7.1-25-8.66-35.33s-4.07-20.09-4.07-20.09l-6.13.55s-6.6,42.82-5.79,53.32a15,15,0,0,0,2.09,6.55Z" transform="translate(-0.04 -0.15)"/><path class="cls-5" d="M276.5,249.79c-33.89-4.3-21,55.36-16.39,82.54s5.84,72.93,13,77.86,18.66,1.33,19.75-12.95,10.88-85.26,5.27-116.06S286.85,251.1,276.5,249.79Z" transform="translate(-0.04 -0.15)"/><path class="cls-5" d="M281.51,388.13C266,388.07,267,400.52,273.19,418s22.72,86.35,24.62,104.63,2.69,28.81,2.69,28.81l12.5-2.09s-1.44-8.81-2.38-38.35,4.81-49.1.43-72.66C307.13,417.2,294.72,388.18,281.51,388.13Z" transform="translate(-0.04 -0.15)"/><path class="cls-5" d="M289.37,581.61a15.36,15.36,0,0,1,.39-6c1.48-5.35,7.55-24.8,9.3-35.14s4.45-20,4.45-20l6.11.69s5.81,42.95,4.82,53.44a15,15,0,0,1-2.52,7Z" transform="translate(-0.04 -0.15)"/><path class="cls-5" d="M261.76,137.46c11.65-3.71,18.83-13.1,22.63-24.46-12.44-6.31-29.29-8.37-29.29-8.37a115.61,115.61,0,0,0-24.83,7.57C231.85,127.41,247.05,140.21,261.76,137.46Z" transform="translate(-0.04 -0.15)"/><path class="cls-6" d="M218.2,336.67a235.88,235.88,0,0,0,52.54,5.72c27.52-.39,27.95-5.72,27.95-5.72s7.76-55.39,4.28-72.74c-6.74-33.65-25.71-62.14-25.71-62.14L236.67,201C189.88,263.93,218.2,336.67,218.2,336.67Z" transform="translate(-0.04 -0.15)"/><path class="cls-5" d="M306.58,285.83,303,302.24a5.83,5.83,0,0,1-.64,1.64s-9.57,4.2-12.88,2.3.77-6.83.6-8.63l5.24-4.37s-4.39-9.26,3.23-13c4.78-2.34,6.89.53,7.75,2.59A5.09,5.09,0,0,1,306.58,285.83Z" transform="translate(-0.04 -0.15)"/><path class="cls-5" d="M179.62,200.89c-3.3-2.92,2.16-19.41,12.68-34.39s8.64-33.41,23.66-44.57,24.64,2.31,13.74,20-25.24,44.26-33.19,53.77C188.42,205.32,182.93,203.81,179.62,200.89Z" transform="translate(-0.04 -0.15)"/><path class="cls-5" d="M298.89,284c-5.14-26.6-15.7-60.79-13.52-76s12.8-13.87,17.22-8.2c8.23,10.57,4.3,54.29,4.15,79.14C306.57,305.65,298.89,284,298.89,284Z" transform="translate(-0.04 -0.15)"/><path class="cls-5" d="M298.23,281.55h0c2.89,0,5.07,2.88,4.52,6l-.1.56a4.91,4.91,0,0,1-3.2,3.88l-4.58,2.25a7.9,7.9,0,0,0-3.51,4l-1.05,2.29c-1.07,2.41-4.23,4.11-5.7,3h0a1.73,1.73,0,0,1-.37-2.28l10.07-17.33A4.55,4.55,0,0,1,298.23,281.55Z" transform="translate(-0.04 -0.15)"/><path class="cls-5" d="M298.2,214.43c4.15-1,6-18.43,2.67-37s5.87-34.12-3-51.43-23-10-20.44,11.16,4.57,51.94,7.82,64.32C288.51,214.1,294.05,215.43,298.2,214.43Z" transform="translate(-0.04 -0.15)"/><path class="cls-6" d="M277,204.68c1.85-5.37,4.2-12.37,6.64-20,10.08-4.34,8.2-17.76,8.2-17.76s-.12-.83-.58-2.63c-2.76-9.49-5.27-17.78-4.52-28.71A66.36,66.36,0,0,1,290.65,117a45.09,45.09,0,0,0-11.47-6.29c-4.22,12-14,20-24.86,19.06-9.67-.79-17.55-8.46-20.93-19A52.5,52.5,0,0,0,220.33,118c4.07,20.23,4.22,40,2,49.12-.68,2.76-4,14.11,7,19.65,1.46,4.11,2.28,8.69,3.59,12.23,2.49,9.36,7.07,24,24.57,25.43C269.24,225.42,274.77,211.85,277,204.68Z" transform="translate(-0.04 -0.15)"/><path class="cls-5" d="M266.59,89.67c0-6.61-4.89-12-10.93-12s-10.93,5.35-10.93,12v24.91c0,6.6,4.89,12,10.93,12s10.93-5.35,10.93-12Z" transform="translate(-0.04 -0.15)"/><path class="cls-7" d="M266.59,92.35V89.67c0-6.61-4.89-12-10.93-12s-10.93,5.35-10.93,12v9.12c0,.38,0,.75,0,1.11a17.21,17.21,0,0,0,6.49,1.27A18.18,18.18,0,0,0,266.59,92.35Z" transform="translate(-0.04 -0.15)"/><path class="cls-8" d="M269.72,31.48a1.8,1.8,0,0,0,1.12-.36,2.27,2.27,0,0,0,.55-3c-.34-.57-8.61-14-19.58-16.12-4.59-.87-8.95.36-13,3.65a2.3,2.3,0,0,0-.4,3,1.86,1.86,0,0,0,2.76.43c3.15-2.58,6.4-3.52,9.92-2.86,9.28,1.75,16.9,14.14,17,14.27A1.93,1.93,0,0,0,269.72,31.48Z" transform="translate(-0.04 -0.15)"/><path class="cls-8" d="M231.15,35.18a1.91,1.91,0,0,1-1.11-.4,2.29,2.29,0,0,1-.46-3c.36-.56,9-13.73,20.07-15.4,4.61-.7,8.93.69,12.84,4.13a2.3,2.3,0,0,1,.31,3,1.85,1.85,0,0,1-2.77.33c-3.08-2.7-6.29-3.75-9.83-3.22-9.33,1.41-17.33,13.51-17.41,13.63A1.91,1.91,0,0,1,231.15,35.18Z" transform="translate(-0.04 -0.15)"/><path class="cls-8" d="M234.92,52a2.2,2.2,0,0,1-.39-.17,2.26,2.26,0,0,1-.86-2.9c1.4-3,14-29.2,26.88-29.07,4.88.05,9,3.74,12.19,11a2.24,2.24,0,0,1-.91,2.88,1.89,1.89,0,0,1-2.63-1c-2.5-5.63-5.43-8.5-8.68-8.54-8.88-.09-19.86,19.26-23.34,26.72A1.92,1.92,0,0,1,234.92,52Z" transform="translate(-0.04 -0.15)"/><path class="cls-8" d="M223.59,65.82a1.39,1.39,0,0,1-.44-.07,2.17,2.17,0,0,1-1.44-2.61c.3-1.33,7.58-32.69,23.55-40.46,5.54-2.7,11.41-2.27,17.47,1.28a2.25,2.25,0,0,1,.81,2.91,1.89,1.89,0,0,1-2.67.89c-5-2.92-9.57-3.3-14-1.15-14.22,6.91-21.26,37.27-21.33,37.57A2,2,0,0,1,223.59,65.82Z" transform="translate(-0.04 -0.15)"/><path class="cls-8" d="M225.45,81.77a1.07,1.07,0,0,1-.25,0,2.13,2.13,0,0,1-1.67-2.44c.33-2.42,8.19-59.17,32.91-57.29a2.09,2.09,0,0,1,1.83,2.3,2,2,0,0,1-2.1,2c-10.76-.82-18,13.51-22.12,25.67a168.64,168.64,0,0,0-6.62,27.94A2,2,0,0,1,225.45,81.77Z" transform="translate(-0.04 -0.15)"/><path class="cls-8" d="M232.2,110.39a1.82,1.82,0,0,1-.46-.06,2.19,2.19,0,0,1-1.42-2.63c.42-1.79.52-6.23.64-11.38.41-18.16,1.18-52,17.49-67.14a1.85,1.85,0,0,1,2.77.25,2.29,2.29,0,0,1-.22,3c-15,13.92-15.7,46.47-16.1,64-.13,5.85-.23,10.08-.76,12.35A2,2,0,0,1,232.2,110.39Z" transform="translate(-0.04 -0.15)"/><path class="cls-8" d="M237.56,110.24a2,2,0,0,1-1.92-1.88c-.25-2.08-5.84-51.31,11.77-73.9a1.86,1.86,0,0,1,2.78-.24,2.29,2.29,0,0,1,.22,3c-16.49,21.15-10.92,70.06-10.86,70.55a2.12,2.12,0,0,1-1.7,2.41A1.46,1.46,0,0,1,237.56,110.24Z" transform="translate(-0.04 -0.15)"/><path class="cls-8" d="M295.07,52.15a2,2,0,0,1-1.85-1.51c-2.24-7.85-10.18-28.73-19.84-31-3.69-.87-7.52,1.1-11.4,5.86a1.85,1.85,0,0,1-2.78.17,2.29,2.29,0,0,1-.16-3c4.9-6,10-8.43,15.17-7.2C288.09,18.69,296.63,48.1,297,49.35a2.2,2.2,0,0,1-1.3,2.7A1.65,1.65,0,0,1,295.07,52.15Z" transform="translate(-0.04 -0.15)"/><path class="cls-8" d="M296.21,62.79a2,2,0,0,1-1.88-1.62c-.07-.29-7-29.3-21.24-36.46-4.61-2.32-9.38-2.08-14.6.73a1.9,1.9,0,0,1-2.64-1,2.24,2.24,0,0,1,.9-2.88c6.26-3.37,12.32-3.63,18-.77,15.93,8,23.11,38,23.41,39.3a2.18,2.18,0,0,1-1.42,2.62A1.86,1.86,0,0,1,296.21,62.79Z" transform="translate(-0.04 -0.15)"/><path class="cls-8" d="M296.17,78.19a2,2,0,0,1-1.92-1.84c-.06-.48-6.91-48.46-27.79-49.75a2.1,2.1,0,0,1-1.86-2.27,2,2,0,0,1,2.08-2c24.07,1.49,31.18,51.3,31.47,53.42a2.13,2.13,0,0,1-1.65,2.45A1.84,1.84,0,0,1,296.17,78.19Z" transform="translate(-0.04 -0.15)"/><path class="cls-8" d="M292.23,96.85h-.12a2.11,2.11,0,0,1-1.81-2.32c0-.44,2.93-44.39-17.68-60.12a2.29,2.29,0,0,1-.49-3,1.87,1.87,0,0,1,2.75-.54c22.46,17.15,19.49,62.1,19.35,64A2.06,2.06,0,0,1,292.23,96.85Z" transform="translate(-0.04 -0.15)"/><path class="cls-8" d="M282.88,105.75h-.22a2.12,2.12,0,0,1-1.7-2.41c.05-.5,5.57-50.22-12.88-69.07a2.3,2.3,0,0,1-.1-3,1.86,1.86,0,0,1,2.79-.11c19.93,20.37,14.34,70.64,14.1,72.77A2,2,0,0,1,282.88,105.75Z" transform="translate(-0.04 -0.15)"/><path class="cls-8" d="M235.21,96.7a2.16,2.16,0,0,1-1.43-2.42c.24-1.67,6.12-41.21,19-66.7a1.9,1.9,0,0,1,2.68-.85,2.26,2.26,0,0,1,.77,2.93c-12.52,24.82-18.48,64.9-18.54,65.3a2,2,0,0,1-2.26,1.79Z" transform="translate(-0.04 -0.15)"/><path class="cls-8" d="M271.14,105.53a1.15,1.15,0,0,1-.26,0,2.12,2.12,0,0,1-1.66-2.44c.06-.5,6.42-50.11-12-68.95a2.29,2.29,0,0,1-.1-3,1.86,1.86,0,0,1,2.79-.11c19.95,20.38,13.51,70.59,13.23,72.72A2,2,0,0,1,271.14,105.53Z" transform="translate(-0.04 -0.15)"/><path class="cls-8" d="M267.89,100.12l-.25,0A2.14,2.14,0,0,1,266,97.65c.07-.49,6.42-50.1-12-68.94a2.31,2.31,0,0,1-.09-3.05,1.85,1.85,0,0,1,2.78-.1c19.95,20.38,13.52,70.59,13.23,72.72A2,2,0,0,1,267.89,100.12Z" transform="translate(-0.04 -0.15)"/><path class="cls-8" d="M287.45,103.67h-.2a2.13,2.13,0,0,1-1.73-2.39c.05-.48,4.84-48.08-13.63-66.94a2.31,2.31,0,0,1-.09-3,1.85,1.85,0,0,1,2.78-.11c19.93,20.36,15.07,68.55,14.86,70.59A2,2,0,0,1,287.45,103.67Z" transform="translate(-0.04 -0.15)"/><path class="cls-8" d="M273.15,109.69a1.54,1.54,0,0,1-.56-.1,2.21,2.21,0,0,1-1.29-2.7c.14-.49,13.82-48.65-1.88-70.23a2.3,2.3,0,0,1,.31-3,1.86,1.86,0,0,1,2.77.34c17,23.38,3.16,72.15,2.56,74.22A2,2,0,0,1,273.15,109.69Z" transform="translate(-0.04 -0.15)"/><path class="cls-8" d="M276.09,112.19a1.92,1.92,0,0,1-.57-.11,2.2,2.2,0,0,1-1.28-2.7c.14-.48,13.82-48.65-1.89-70.23a2.29,2.29,0,0,1,.32-3,1.86,1.86,0,0,1,2.77.35c17,23.37,3.15,72.15,2.56,74.21A2,2,0,0,1,276.09,112.19Z" transform="translate(-0.04 -0.15)"/><path class="cls-8" d="M265.19,38c10.08,2.84,16.71,12.82,16.57,23.69l.13-.53c.16-.63.28-1.26.38-1.89,4.26-13.12,1.6-26.09-14.82-30.56-11.47-3.12-23.08,4.61-26.11,17.1l-1,4.16C245.13,40.48,255.23,35.17,265.19,38Z" transform="translate(-0.04 -0.15)"/><path class="cls-8" d="M243,99.31a2,2,0,0,1-1.89-1.68c-.35-1.71-8.35-42,4.06-60.08A18.83,18.83,0,0,1,260,29a2,2,0,0,1,2.09,2,2.09,2.09,0,0,1-1.85,2.28,14.94,14.94,0,0,0-11.91,6.86C237,56.62,244.87,96.29,245,96.69a2.17,2.17,0,0,1-1.5,2.57A1.44,1.44,0,0,1,243,99.31Z" transform="translate(-0.04 -0.15)"/><path class="cls-8" d="M240.19,101.82a2,2,0,0,1-1.89-1.69c-.35-1.71-8.35-42,4.06-60.07a18.84,18.84,0,0,1,14.82-8.58,2,2,0,0,1,2.09,2,2.1,2.1,0,0,1-1.84,2.29,14.92,14.92,0,0,0-11.92,6.86c-11.33,16.48-3.44,56.15-3.36,56.55a2.18,2.18,0,0,1-1.5,2.57A2.4,2.4,0,0,1,240.19,101.82Z" transform="translate(-0.04 -0.15)"/><path class="cls-8" d="M275.42,79.6a1,1,0,0,1-.22-.08,2.22,2.22,0,0,1-1.11-2.79l.22-.62c1.94-5.33,7.84-21.58,2.86-31.07-2-3.81-5.51-6.08-10.74-6.95a2.15,2.15,0,0,1-1.66-2.46,2,2,0,0,1,2.25-1.8c6.4,1.06,11,4.11,13.56,9.06,5.93,11.3-.49,29-2.61,34.82l-.21.6A1.93,1.93,0,0,1,275.42,79.6Z" transform="translate(-0.04 -0.15)"/><path class="cls-8" d="M228.55,99.27a2.2,2.2,0,0,1-.36,0,2.17,2.17,0,0,1-1.54-2.54c.5-2.71.82-6.65,1.18-11.2,1.44-17.81,3.61-44.73,20.31-56.61a1.87,1.87,0,0,1,2.73.63,2.27,2.27,0,0,1-.58,3c-15.09,10.74-17.16,36.4-18.53,53.38-.38,4.68-.7,8.72-1.25,11.67A2,2,0,0,1,228.55,99.27Z" transform="translate(-0.04 -0.15)"/><path class="cls-9" d="M287.93,68.13a5.51,5.51,0,0,0-.7-7.27,4.47,4.47,0,0,0-6.66.76l-2.27,3.07A5.52,5.52,0,0,0,279,72a4.46,4.46,0,0,0,6.65-.77Z" transform="translate(-0.04 -0.15)"/><path class="cls-7" d="M286.68,67.15a3.73,3.73,0,0,0-.47-4.92,3,3,0,0,0-4.5.52l-1.54,2.07a3.74,3.74,0,0,0,.47,4.93,3,3,0,0,0,4.5-.52Z" transform="translate(-0.04 -0.15)"/><path class="cls-9" d="M233.06,52.2A5.14,5.14,0,0,1,237,46.26a4.8,4.8,0,0,1,5.43,4.28c.1.69.48,3.2.58,3.89a5.14,5.14,0,0,1-3.91,5.94,4.79,4.79,0,0,1-5.43-4.27C233.54,55.43,233.16,52.89,233.06,52.2Z" transform="translate(-0.04 -0.15)"/><path class="cls-7" d="M234.59,52a3.47,3.47,0,0,1,2.64-4,3.24,3.24,0,0,1,3.67,2.89l.39,2.63a3.47,3.47,0,0,1-2.64,4A3.24,3.24,0,0,1,235,54.66Z" transform="translate(-0.04 -0.15)"/><path class="cls-5" d="M285.33,55.62c4.58-14.12-2.93-29.21-15.95-32.87-12.31-3.47-24.83,4.95-28.09,18.39,0,0-3.35,21.92-3.46,22.6-1.71,7.61,1.11,28.72,14.14,32.35,11.43,3.19,22.24-7.16,26.37-18.9l6.12-17.6C284.62,58.91,285.22,56.3,285.33,55.62Z" transform="translate(-0.04 -0.15)"/><path class="cls-8" d="M282.37,61.53l0-.06A.1.1,0,0,0,282.37,61.53Z" transform="translate(-0.04 -0.15)"/><path class="cls-8" d="M241.05,49.47l0,.06A.08.08,0,0,0,241.05,49.47Z" transform="translate(-0.04 -0.15)"/><path class="cls-7" d="M248.66,76.3a12.8,12.8,0,0,1,8-.13,13.77,13.77,0,0,1,6.89,4.48A56.45,56.45,0,0,1,248.66,76.3Z" transform="translate(-0.04 -0.15)"/><path class="cls-7" d="M254.37,86a8,8,0,0,0,9.52-4.18.76.76,0,0,1-.08-.11,12.83,12.83,0,0,1-8.5.42,13.9,13.9,0,0,1-7.18-5l-.12.05A9,9,0,0,0,254.37,86Z" transform="translate(-0.04 -0.15)"/><path class="cls-10" d="M263,80.31a1.07,1.07,0,0,1,.61,1.8,9,9,0,0,1-8.84,2.2,10.05,10.05,0,0,1-6.68-6.7,1,1,0,0,1,1.35-1.23A59.93,59.93,0,0,0,263,80.31Z" transform="translate(-0.04 -0.15)"/><path class="cls-8" d="M268.59,37.37a2,2,0,0,1-1.33-2.22c.52-3.77.74-10.65-.89-13.08a2.11,2.11,0,0,1,.39-2.78,1.72,1.72,0,0,1,2.54.43c3,4.53,1.71,14.86,1.55,16a1.84,1.84,0,0,1-2.07,1.67Z" transform="translate(-0.04 -0.15)"/><path class="cls-8" d="M264.25,35.85a2,2,0,0,1-1.35-2c.16-3.51-.07-9.84-1.4-11.91a2.12,2.12,0,0,1,.45-2.77,1.72,1.72,0,0,1,2.53.49c2.47,3.85,2.1,13.32,2,14.39a1.88,1.88,0,0,1-1.9,1.88A2.32,2.32,0,0,1,264.25,35.85Z" transform="translate(-0.04 -0.15)"/><path class="cls-8" d="M259.57,35.94a2,2,0,0,1-1.35-2h0c.08-2.21-.41-8.37-3.63-10.21a2.1,2.1,0,0,1-.77-2.69,1.76,1.76,0,0,1,2.46-.84c5.93,3.41,5.59,13.49,5.57,13.92A1.88,1.88,0,0,1,260,36,1.23,1.23,0,0,1,259.57,35.94Z" transform="translate(-0.04 -0.15)"/><path class="cls-8" d="M255.34,35.8A2,2,0,0,1,254,34c0-.22-.32-5.12-4.55-6.9a2,2,0,0,1-1.05-2.57,1.78,1.78,0,0,1,2.35-1.14c6.5,2.72,6.87,10.11,6.88,10.42a1.91,1.91,0,0,1-1.73,2.07A1.66,1.66,0,0,1,255.34,35.8Z" transform="translate(-0.04 -0.15)"/><path class="cls-8" d="M251.11,38a1.9,1.9,0,0,1-1.31-1.51,5.69,5.69,0,0,0-4.05-4.24,2,2,0,0,1-1.36-2.38,1.82,1.82,0,0,1,2.17-1.5l.36.1c5.35,1.55,6.4,7,6.44,7.22A2,2,0,0,1,251.94,38,1.66,1.66,0,0,1,251.11,38Z" transform="translate(-0.04 -0.15)"/><path class="cls-8" d="M247.37,41.1a1.85,1.85,0,0,1-1.24-1.25A6,6,0,0,0,243,36.41a2,2,0,0,1-1.15-2.52,1.78,1.78,0,0,1,2.29-1.25c4,1.44,5.36,5.71,5.42,5.89a2,2,0,0,1-1.12,2.53A1.64,1.64,0,0,1,247.37,41.1Z" transform="translate(-0.04 -0.15)"/><path class="cls-8" d="M244.2,44.22a1.7,1.7,0,0,1-.73-.42h0A9,9,0,0,0,240.85,42a2,2,0,0,1-1.23-2.47,1.83,1.83,0,0,1,2.26-1.35,12.57,12.57,0,0,1,4,2.62,2.11,2.11,0,0,1,.17,2.8A1.7,1.7,0,0,1,244.2,44.22Z" transform="translate(-0.04 -0.15)"/><path class="cls-8" d="M239.87,47a1.18,1.18,0,0,0-.75-.65,2,2,0,0,1-1.24-2.47,1.8,1.8,0,0,1,2.26-1.34,5,5,0,0,1,3.15,3.11,2,2,0,0,1-1.13,2.11A2.13,2.13,0,0,1,239.87,47Z" transform="translate(-0.04 -0.15)"/><path class="cls-8" d="M280.57,56.17a1.82,1.82,0,0,1-.83-.53,2.1,2.1,0,0,1,0-2.79c1.07-1.16,5.7-3.71,7.9-1.77a2.13,2.13,0,0,1,.28,2.8,1.72,1.72,0,0,1-2.36.45,6.66,6.66,0,0,0-3.26,1.34A1.71,1.71,0,0,1,280.57,56.17Zm4.8-2Z" transform="translate(-0.04 -0.15)"/><path class="cls-8" d="M282.07,60a1.82,1.82,0,0,1-.82-.52,2.13,2.13,0,0,1,0-2.81,4.45,4.45,0,0,1,6.11-.26,2.11,2.11,0,0,1,.28,2.79,1.71,1.71,0,0,1-2.56.3,1,1,0,0,0-1.27,0A1.69,1.69,0,0,1,282.07,60Z" transform="translate(-0.04 -0.15)"/><path class="cls-8" d="M280.2,51.61a1.85,1.85,0,0,1-.93-.65,2.12,2.12,0,0,1,.23-2.8,8,8,0,0,1,8.26-2,2,2,0,0,1,1.17,2.5,1.78,1.78,0,0,1-2.29,1.28,4.6,4.6,0,0,0-4.81,1.27A1.7,1.7,0,0,1,280.2,51.61Z" transform="translate(-0.04 -0.15)"/><path class="cls-8" d="M278.74,47.23a1.72,1.72,0,0,1-.73-.43,2.12,2.12,0,0,1-.16-2.81c3-3.72,6.87-4.65,9.38-3.92a2,2,0,0,1,1.29,2.43,1.8,1.8,0,0,1-2.22,1.41c-.8-.23-3.38-.19-5.73,2.72A1.72,1.72,0,0,1,278.74,47.23Z" transform="translate(-0.04 -0.15)"/><path class="cls-8" d="M276.23,43.49a1.79,1.79,0,0,1-.58-.3,2.11,2.11,0,0,1-.44-2.77c2.5-3.87,6.37-6,9.87-5.33a2,2,0,0,1,1.49,2.28A1.83,1.83,0,0,1,284.48,39c-2.13-.39-4.6,1.07-6.3,3.7A1.75,1.75,0,0,1,276.23,43.49Z" transform="translate(-0.04 -0.15)"/><path class="cls-8" d="M272.87,33.62a1.63,1.63,0,0,1-.34-.14,2.09,2.09,0,0,1-.82-2.67c1.45-3.18.82-7.89.81-7.94A2,2,0,0,1,274,20.61a1.85,1.85,0,0,1,2.08,1.66c0,.24.82,6-1.15,10.31A1.78,1.78,0,0,1,272.87,33.62Z" transform="translate(-0.04 -0.15)"/><path class="cls-8" d="M272.77,40.51a2.6,2.6,0,0,1-.42-.19,2.09,2.09,0,0,1-.7-2.71c2.78-5.42,7.42-7.67,10.83-7.95a1.88,1.88,0,0,1,2,1.82,2,2,0,0,1-1.68,2.14,10.44,10.44,0,0,0-7.94,5.94A1.78,1.78,0,0,1,272.77,40.51Z" transform="translate(-0.04 -0.15)"/><path class="cls-8" d="M277.77,30.26a1.81,1.81,0,0,1-.93-.66,2.11,2.11,0,0,1,.25-2.8,5.78,5.78,0,0,1,2.36-1.41l.74,3.9.09,0a3.32,3.32,0,0,0-.88.61A1.69,1.69,0,0,1,277.77,30.26Z" transform="translate(-0.04 -0.15)"/><path class="cls-8" d="M246.56,54.29a.65.65,0,0,1-.35-.34.69.69,0,0,1,.27-.89,6.57,6.57,0,0,1,9.12,3.39.7.7,0,0,1-.28.89.58.58,0,0,1-.81-.3A5.39,5.39,0,0,0,247,54.25.58.58,0,0,1,246.56,54.29Z" transform="translate(-0.04 -0.15)"/><path class="cls-8" d="M250.78,57.56a1.55,1.55,0,0,1-2,1.07,1.76,1.76,0,0,1-1-2.18,1.53,1.53,0,0,1,2-1.07A1.76,1.76,0,0,1,250.78,57.56Z" transform="translate(-0.04 -0.15)"/><path class="cls-8" d="M264.68,61.07a.6.6,0,0,1-.35-.33.69.69,0,0,1,.28-.89,6.56,6.56,0,0,1,9.11,3.39.69.69,0,0,1-.28.89.58.58,0,0,1-.81-.3A5.39,5.39,0,0,0,265.14,61,.53.53,0,0,1,264.68,61.07Z" transform="translate(-0.04 -0.15)"/><path class="cls-8" d="M268.9,64.34a1.53,1.53,0,0,1-2,1.07,1.75,1.75,0,0,1-1-2.17,1.53,1.53,0,0,1,2-1.07A1.75,1.75,0,0,1,268.9,64.34Z" transform="translate(-0.04 -0.15)"/><path class="cls-5" d="M249.31,166.22c-17.86,17.58-44.89,34.42-58,37.05s-15.37-8.2-12.11-14.31c6.08-11.38,44.74-18.76,63.66-29.92C263.21,147,249.31,166.22,249.31,166.22Z" transform="translate(-0.04 -0.15)"/><path class="cls-5" d="M244.82,147.46c.68-.68,3.89-3.29,5.43-4.94,0,0,4.86-4.12,9.56,2.5,2.72,3.83,2.19,11.3,2.19,11.3-3.4,4.44-8.91,7.68-14,11.52-5.56,4.19-7.81-8.62-7.81-8.62C239,154.29,241.86,150.9,244.82,147.46Z" transform="translate(-0.04 -0.15)"/><path class="cls-5" d="M263.45,127.89h0a2.53,2.53,0,0,1,.39,3.32l-11.19,15.27a2.05,2.05,0,0,1-3,.41h0a2.51,2.51,0,0,1-.38-3.31l11.18-15.27A2,2,0,0,1,263.45,127.89Z" transform="translate(-0.04 -0.15)"/><path class="cls-5" d="M269.45,130.17h0a2.52,2.52,0,0,1,.21,3.33l-12,14.52a2,2,0,0,1-3.06.22h0a2.52,2.52,0,0,1-.2-3.33l12-14.52A2,2,0,0,1,269.45,130.17Z" transform="translate(-0.04 -0.15)"/><path class="cls-5" d="M274.23,136.79h0a2.53,2.53,0,0,1-.34,3.33L259.7,152a2,2,0,0,1-3-.38h0a2.54,2.54,0,0,1,.35-3.33l14.18-11.92A2,2,0,0,1,274.23,136.79Z" transform="translate(-0.04 -0.15)"/><path class="cls-5" d="M275.13,145.13h0a2.5,2.5,0,0,1-.69,3.26l-15.35,10.05a2.07,2.07,0,0,1-3-.76h0a2.5,2.5,0,0,1,.69-3.26l15.35-10.06A2.07,2.07,0,0,1,275.13,145.13Z" transform="translate(-0.04 -0.15)"/><path class="cls-5" d="M239.25,159.73h0A4.13,4.13,0,0,0,246,160l.33-.4a5.16,5.16,0,0,0,.82-4.89l-1.1-5.07a8.43,8.43,0,0,1,.73-5.2l1-2.19c1-2.28.39-5.86-1.23-6.43h0a1.41,1.41,0,0,0-1.79,1l-6.11,18.32A5.17,5.17,0,0,0,239.25,159.73Z" transform="translate(-0.04 -0.15)"/><ellipse class="cls-11" cx="283.93" cy="65.15" rx="2.05" ry="1.23" transform="translate(131.36 313.19) rotate(-71.35)"/><ellipse class="cls-12" cx="283.93" cy="65.15" rx="1.16" ry="0.69" transform="translate(131.36 313.19) rotate(-71.35)"/><path class="cls-12" d="M282.38,73.16a6.21,6.21,0,0,0,2.28-.79c1-.6,1.25-1.77,2.32-3A9.32,9.32,0,0,0,289,63c-.43-2.63-2.75-3.43-3.71-3-1.16.56-1,4.2-1.5,4.84,0,0,.71.06.66,0,.18.07,1-2.45,1.34-3.45.11-.37,1.36,1,1.4,2.21a11.12,11.12,0,0,1-1.27,4.48c-.44.86-.49,1.68-1.14,2-.12.08-1.44.84-1.58.91C279.34,71.69,281.5,73.26,282.38,73.16Z" transform="translate(-0.04 -0.15)"/><path class="cls-11" d="M287,69c0-.68-.19-1.35-.82-1.4-1,2-2.11,4.13-4.77,2.79-.47-.23-1.21,1.63-1.11,2.07C280.7,74.27,284.4,74.69,287,69Z" transform="translate(-0.04 -0.15)"/></g></g></svg>