<svg xmlns="http://www.w3.org/2000/svg" xmlns:xlink="http://www.w3.org/1999/xlink" viewBox="0 0 477.45 581.11"><defs><style>.cls-1{fill:none;}.cls-2{isolation:isolate;}.cls-3{clip-path:url(#clip-path);}.cls-4{clip-path:url(#clip-path-2);}.cls-5{fill:url(#Dégradé_sans_nom_2);}.cls-6{fill:#9471b0;}.cls-7{fill:#281a40;}.cls-8{fill:#9a5742;}.cls-9{fill:#271c32;}.cls-10{fill:#fff;}.cls-11,.cls-13{fill:#814937;}.cls-11{opacity:0.24;mix-blend-mode:multiply;}.cls-12{fill:#90513e;}.cls-14{fill:#ee7370;}</style><clipPath id="clip-path" transform="translate(-0.04)"><rect class="cls-1" x="9.1" y="72.64" width="459.26" height="130.67" transform="translate(-29.27 73.12) rotate(-16.42)"/></clipPath><clipPath id="clip-path-2" transform="translate(-0.04)"><path class="cls-1" d="M41.41,160.38c-2.86,1.48,7-6.83,2.62-3.76l-3,2.87-3,3c1-2-1.89-.22-1.42.79,1.45-.77.08.55-1.3,2s-2.73,2.85-1.29,2a17.1,17.1,0,0,1,2.12-2.41c.75-.73,1.55-1.38,2.29-2A19.66,19.66,0,0,0,41.41,160.38ZM225,116.27c.49-2.06,4-2.68,6-5.25C230.49,113.25,227.46,114.5,225,116.27ZM369.53,74.85c0,.1-.13.33-.27.66s-.13.29-.18.4a3.72,3.72,0,0,1-.2.4c-.11.2-.22.42-.34.62l0,0,1.11-1.78h0l-.15-.11-.29-.22c-.4-.28-.79-.54-1.17-.82l-1.09-.74-.94-.6a15,15,0,0,1,3.58,1.7l.24.15.13.08,0,0c-.64,1,1.45-2.3-1.44,2.32l0,0,0-.08.07-.16A10.29,10.29,0,0,0,369.53,74.85ZM72.65,134.5c0-1.46,3-2.6,4.12-3.41C76.65,132.92,73.86,133.17,72.65,134.5ZM215.76,124c-.9.72-1.82-.2-1.6-1.31.56-.15.8,0,1,.24S215.52,123.68,215.76,124Zm36.43-28.26c-3.45,1.42-.05-1.05,2.56-2.56S259.09,90.94,252.19,95.76Zm-110.5,3.62c-.75.78-2.76,1.35-5.18,2s-5.25,1.28-7.59,2.08a16.09,16.09,0,0,1,4.66-2.23A30.35,30.35,0,0,1,141.69,99.38Zm3.8,2.13c-.39.54-2,.81-3.88,1.1a33.84,33.84,0,0,0-5.3,1,11.94,11.94,0,0,1,4.1-1.69A20.84,20.84,0,0,1,145.49,101.51ZM368.22,80a1.31,1.31,0,0,1-.47.68.2.2,0,0,1-.3-.13,1.5,1.5,0,0,0-.19-.38c-.09-.07-.09-.21-.26-.11a1.33,1.33,0,0,1,.32-.43.21.21,0,0,1,.13-.07.61.61,0,0,1,.18,0c.11,0,.18.08.31.16A.55.55,0,0,1,368.22,80Zm9-.5c-1.38,1-2.32,1.06-2.4.81S375.33,79.66,377.19,79.49Zm-304,62.7c3.47-.63,1.19,3.24,5.21.88-.26,1.68-3.46,2.18-4.7,2.75-5,8.27-14.33,11.22-22.15,20.29a51.25,51.25,0,0,1,4-5c1.54-1.72,3.23-3.47,5-5.08.87-.82,1.78-1.63,2.69-2.4s1.81-1.48,2.71-2.17a47.88,47.88,0,0,1,5.19-3.5c-3.63,1.63-.26-.51.67-2.32-3.77,1.39-7.47,6-10.52,7.87a33.34,33.34,0,0,1,5.22-5.68C68.58,146,71,144,73.18,142.19ZM53.85,160.25c.27-.94,1.43-2.07,2.77-3.23a48,48,0,0,0,3.8-3.31c-.29.93-1.44,2-2.76,3.12A43.09,43.09,0,0,0,53.85,160.25ZM28,191.73c.91-.87,1.56.29,2.64-2,.18,1.48-3.19,4.37-4.32,6.57-1,.65-.24-.4.56-1.66S28.57,192,28,191.73Zm114.82-83.09c-.89.92-3.16,1.56-6.17,2.24-.66-.65.34-1.1,1.78-1.42S141.69,109,142.78,108.64Zm-18.86,8a48.8,48.8,0,0,1-4.55,2.89c-.76.43-1.57.89-2.41,1.35l-2.59,1.39c0-1,1.8-2.17,3.82-3.18.52-.26,1-.49,1.55-.73s1.09-.49,1.67-.71C122.52,117.19,123.43,116.84,123.92,116.61ZM379.53,94a31.81,31.81,0,0,1-10.27.61,23.07,23.07,0,0,1-2.3-.35c-.76-.13-1.42-.37-2.15-.52s-1.32-.43-1.93-.71a14.71,14.71,0,0,1-1.74-.83c.63-1,.89-.94,1.28-.72.19.11.39.31.62.48a1.27,1.27,0,0,0,.84.32c.15-.6.39-.87.67-.92s.61.19,1.11.44a11.62,11.62,0,0,0,3.9,1.84c1.83.45,3.74-.2,5.36-.46a5.84,5.84,0,0,1,2.37-.17A3.55,3.55,0,0,1,379.53,94Zm-19.4-2.79a1,1,0,0,1-.29,0c-.12,0-.11,0-.58-.27a24.46,24.46,0,0,1-2.34-1.6c-1.56-1.21-3.18-2.59-4.35-3.65S350.69,84,351.05,84s1.77.86,4.73,3.15a33.39,33.39,0,0,1,3.1,2.81c.19.22.41.41.58.59s.44.39.41.42A.55.55,0,0,0,360.13,91.2Zm-13.46-6.65c-.59-1.47-2.29-2.49-4.3-3.23s-4.34-1.28-6.31-2a15,15,0,0,1,6.72,1.27C345.27,81.63,347.22,83.24,346.67,84.55ZM36.49,196.83c.54-2.23,7.56-10.46,7.91-9.69-1.1,1.27-1.88,2.24-2.5,3.05l-1.55,2c-.46.59-.92,1.15-1.54,1.85S37.51,195.63,36.49,196.83Zm-8.41,18.48c-.31,2.46-1.7,5.78-3.23,9.21a29.3,29.3,0,0,1,1.07-4.33c.26-.77.53-1.58.88-2.39S27.6,216.17,28.08,215.31ZM60,200c-3.32,5.49-7.54,9.2-10.07,12.79a27.57,27.57,0,0,1,4.61-7.17A77.56,77.56,0,0,1,60,200ZM66,194c-.18,1.68-1.83,3.26-3.63,4.59C61.43,196.91,64.7,195.41,66,194Zm3.83-2.62c.93-2.06,3-3.42,4.63-4.52,0,.61-.9,1.66-1.92,2.59A10.61,10.61,0,0,1,69.84,191.37Zm46.62-39.05a30.11,30.11,0,0,1,8.52-6C123.19,149,119.07,151.88,116.46,152.32Zm3.7-.34c-1.1,1.47-3.85,4.32-6,4.76A15.93,15.93,0,0,1,120.16,152Zm4.49-1.27c.89-.56,1.8-1.09,2.71-1.61.21.37-.49.68-.85,1,1.54.15,1.28-.26.69,1.12C126.42,150.88,125.15,151.7,124.65,150.71ZM77.08,193c-1.77,1.16-3,2.52-5.66,5C70.13,198.72,76,191.52,77.08,193Zm82.24-46.54a53.12,53.12,0,0,0-12.24.84,44.08,44.08,0,0,0-6.21,1.68c-1.05.36-2.09.78-3.14,1.24-.52.24-1,.46-1.58.74l-1.71.87c.92-.6,1.86-1.22,2.78-1.74.48-.28,1-.54,1.46-.79s1-.51,1.56-.75a33.72,33.72,0,0,1,6.76-2.24,27.81,27.81,0,0,1,6.78-.66A21.7,21.7,0,0,1,159.32,146.46ZM59.94,217.17c1.84-1.41,1.86-3.41,4-4.53C63.54,214.83,61.92,217.67,59.94,217.17Zm6.7-7.8c1.15-3.26,5.34-5.07,7-8.48-.25,1.81,1.24-.12,2.07,1.06C70.91,205.17,70.48,207.49,66.64,209.37Zm70.66-57.93c-.42,1.28-4.1,2.14-5.82,3.47-.24-.38.9-1.21,2.29-1.94.69-.37,1.43-.7,2.09-1ZM69.71,216.22,71.54,214c1.57.46-.58,1.8-1.12,2.75ZM144.22,162c-.14-.84.45-1.23,1.24-1.46a22.8,22.8,0,0,0,2.35-.61c.86.26,0,.43-1.07.75S144.33,161.49,144.22,162Zm-63,51.79a8.31,8.31,0,0,1-1.34,2.48c-.61.79-1.32,1.55-2,2.38s-1.62,1.68-2.46,2.65a37.78,37.78,0,0,0-2.47,3.3C73.06,221.81,77.7,218.38,81.19,213.8Zm63.61-51.05c.3-1.24,2.46-1,3.52-1.55C147.85,162.33,145.83,162,144.8,162.75Zm16,5c-.57.32-.84-.05-1.18-.51s-.75-1-1.43-1c-.08-.43.61-.34,1.3,0S160.83,167.33,160.78,167.75Zm2.64,1.52c-.76.65-1.21.37-1.55-.08s-.56-1.1-.67-1.16C162.07,167.38,162.7,169,163.42,169.27Zm-19-1.54c0-1.13,1.86-1,2.65-1.54.06.73-.48.95-1.12,1.11A4.78,4.78,0,0,0,144.37,167.73Zm-38.66,29.32a5.61,5.61,0,0,0,2.77-2.38C110.06,195.13,106,198.66,105.71,197.05Zm23.16-18.53c2.39-.53,5.56-4.26,7.79-4.4.27,1.59-.94,2.79-2.66,4s-3.92,2.3-5.49,3.49C128,181.2,130.64,179.57,128.87,178.52Zm18.31-10c.29-1.2,2-.83,3-1.26a1.42,1.42,0,0,1-1.25,1.31A3.3,3.3,0,0,1,147.18,168.51ZM98.85,206.19c-.19,1.53-3.32,3.4-4.65,5C93.41,209.91,97.46,206.67,98.85,206.19Zm5.69-3.34c1.25,2.7-5.26,5.38-8.65,9.25C97.44,208.15,102.83,205.92,104.54,202.85Zm45.85-26.94a.88.88,0,0,1,1-.69,3.65,3.65,0,0,0,1.18.05,1,1,0,0,1-1,.52A1.52,1.52,0,0,0,150.39,175.91ZM109.26,207c1.22-2.25,6.17-6.28,8.23-5.95-1.33,1.09-2.48,2-3.75,2.87S111,205.8,109.26,207Zm5.78-3.28a38.85,38.85,0,0,0,3.46-2.57c1.21-1,2.59-2.11,4.28-3.38C121.92,199.64,117.07,203.64,115,203.75Zm28.8-22.06c-2.24,1.78-5.83,4.48-9.65,7.49l-5.77,4.51c-2,1.55-3.84,2.87-5.16,3.71,1.92-1.6,4-3.3,6.1-5,1.86-1.54,3.71-3,5.47-4.39A86.81,86.81,0,0,1,143.84,181.69Zm160.58-26c1.52-1.53,2.45-.84,4-2.33C308.55,154,304.88,157.25,304.42,155.7Zm5.66-3c.2-1.38,3.49-2.65,4.94-3.94C314.78,150.17,311.51,151.41,310.08,152.73ZM324.49,144c-.28.79-.44,1-.63,1s-.38-.21-.61-.31a.38.38,0,0,0-.58.2c.12-1.08.67-1.15,1.19-1C324.07,143.88,324.28,143.94,324.49,144ZM178.22,201.8a88.69,88.69,0,0,1-8.8-6.21c.77.38,3.11,1.56,5.19,2.75S178.5,200.79,178.22,201.8Zm-35.81-16c-.07-1.18,2.45-1.84,3.32-2.65C145.81,184.26,143.39,184.79,142.41,185.79ZM351.64,63.53c-1.68-.15-5.55-1.3-6.59-2.17a29.73,29.73,0,0,0-3.85-1.2c-1.56-.4-3.32-.76-4.92-1-3.21-.53-5.79-.75-4.79-1.15a47.84,47.84,0,0,1,11.19,2.24C345.88,61.24,348.72,62.37,351.64,63.53ZM93.38,131.09c-.44-.73,2.38-1.1,3.76-2.73-1-.33-2.09,1.11-1.43-.62a57.3,57.3,0,0,0-10.07,6c-1.57,1.12-3.17,2.28-4.82,3.48-1.5,1.06-3.08,2.13-4.78,3.18-.78.07.21-.84,1.55-1.91s3-2.3,3.84-3.12L76,139.25c-1.87,1.34-3.78,2.77-5.63,4.19s-3.65,2.91-5.28,4.37a42.94,42.94,0,0,0-4.21,4.28c-.25-.6,1.06-1.42,1.8-2.16-5.72,4.83-12,10.34-19.54,16.28,5.1-5.72,11-12.39,17.09-18.33a119.3,119.3,0,0,1,9.29-8.22c1.54-1.21,3.11-2.39,4.64-3.41s3-1.92,4.66-2.81c.65-.66,0-1.14-.58-.67a49.23,49.23,0,0,1,12-10.17A113.1,113.1,0,0,1,105,114.8c.81.61.09,1.31.18,2,1.52-.89,3-1.77,4.62-2.65.85.63-.74,1.35-1.89,2.08,1.76-.81,3.54-1.62,5.38-2.41.91-.41,1.84-.8,2.81-1.19s2.06-.86,3.25-1.33a117.72,117.72,0,0,1,14.3-4.7,83.26,83.26,0,0,1,29.53-2.42,69.11,69.11,0,0,1,28,9.21,85.8,85.8,0,0,1,12.21,8.74l2.86,2.5,1.34,1.22.94.89.85.81a1.09,1.09,0,0,1,.18.19l.33.37a6.88,6.88,0,0,0-.24-.65.68.68,0,0,0-.1-.17l-.54-.59c-.37-.38-.73-.76-1.09-1.15l-.72-.71-.87-.84-1.69-1.54c-1.12-1-2.28-2-3.43-2.94a75.56,75.56,0,0,0-14.47-9.23c-10.06-4.81-20.48-7.41-31.89-8.92-1.16,0-2.33,0-3.49.1-5.08.38-.21-.81,2.34-.52a67.18,67.18,0,0,1,10.55.52c1.74.21,3.43.42,5,.68s3,.42,4.24.53c0-.41-.93-.72-1.95-1s-2.15-.48-2.43-.86a49.63,49.63,0,0,1,13.4,3.24,68.93,68.93,0,0,1,15.09,8c2.38,1.64,4.65,3.37,6.75,5.11,1.06.87,2.06,1.72,3,2.58s1.88,1.63,2.85,2.52l1.75,1.55a4.26,4.26,0,0,1,.38.35,2,2,0,0,0,.28.22l.11,0a.62.62,0,0,0,.46,0,2.73,2.73,0,0,0,3.49,1.49c-.28-1-.55-1.13-.9-1.2.23-.64.46-.87.65-.81s.42.41.62,1c.06,1.11-.22.27-.3.52a1.27,1.27,0,0,0,1.26.9,2.11,2.11,0,0,0,1.27-.71c.38-.37.72-.8,1.1-1.17l.15-.14.05-.06.07-.07.17-.14,2.74-2.46c1.88-1.61,3.77-3.22,5.78-4.76-2.61.62-.67-1.15,2.23-3.31,1.47-1,3.18-2.22,4.68-3.22s2.82-1.82,3.49-2.31c8-5.84,16.26-13.88,21.08-15,3.36-2.55,6.92-5.14,10.65-7.64,1.85-1.27,3.74-2.49,5.66-3.73l1.57-1,2.42-1.49c1.6-1,3.23-2,4.84-3s3.26-1.89,4.86-2.83l2.44-1.4c.8-.45,1.6-1,2.43-1.32l4.9-2.35c.81-.4,1.61-.79,2.43-1.16s1.62-.66,2.43-1a58.2,58.2,0,0,1,19.12-3.81,59.48,59.48,0,0,1,10,.79l-10,.12a66.65,66.65,0,0,0-17.2,3.08,40.5,40.5,0,0,0-4.59,1.69l-4.61,2.11a87.33,87.33,0,0,0-9,4.84c-2.47,1.42-5.1,3.21-7.82,5-.66.45-1.35.91-2,1.34-.4.26-.58.4-.8.56l-.6.43-2.39,1.72a3.63,3.63,0,0,0,2.59,0,11.41,11.41,0,0,0,1.58-.62l.5-.25.68-.37,1.39-.8c1.88-1.09,3.89-2.39,5.9-3.67l5.89-3.66a32.52,32.52,0,0,0-5.4,2.48c-2,1.07-4.07,2.35-5.95,3.33,1.38-1,2.82-1.93,4.3-2.89s3-1.88,4.63-2.82l2.39-1.41a22.54,22.54,0,0,1,2.46-1.33l5.14-2.48c.88-.39,1.75-.89,2.64-1.22s1.8-.69,2.7-1c1.82-.64,3.67-1.2,5.57-1.68a57.58,57.58,0,0,1,11.93-1.7l1.33,0a10,10,0,0,0,1.34.06c.91,0,1.82.06,2.74.09s1.83.13,2.73.24,1.82.24,2.72.38c5.34-1,12.12,1.35,18.48,5.85A95.35,95.35,0,0,1,363.15,78c.72.67,1.57,1.36,2.37,2l.6.49.14.13v.23c0,.25.12.33.21.46s.45-.71.52-.73c.54-.24.88,0,1.73.27a14.49,14.49,0,0,0,3.28.82c2.73.36,6.47-.27,8.14-2.59l1.25-.54,1.29-.61c.45-.19.85-.45,1.28-.67l.67-.34c.26-.17.53-.31.78-.47a55,55,0,0,0,6.88-4.79,86,86,0,0,0,14.8-16c0,2-2,2.18-2.76,4.2,2.57-.78,3.3-4.4,6.18-6.63-.61,3,2.23,1.13,3.93,1,1.13,2.31,3.17,4.55,3.49,6.15A21.82,21.82,0,0,1,415.8,63c-.82.88-1.7,1.78-2.44,2.64-1.49,1.7-2.46,3.27-1.4,4.38,1.66,1.84,7.17-2.4,8.2-6.06,3.42-.23,5.55-4.86,9.32-4.33,1.23.81-.33,2.3,0,3.32,2.77-.59,6.38-1.64,7.86-.07.18,2.51-.72,3.18,1.74,4.79-1,1.12-.66,1.89-2.21,3.14.92,1.87,2.29-.44,3.42-.46,1.73,1.25-.16,3.85,2.57,3.82-.45,1.49-2.64,3.4-2.42,4.72,1.42.59,3.15-1.12,4.55-.39,1.27,3.42.81,7.32,0,11.31,3.28-1,1.15-2.65,2-3.54,1.9-2,.32.09.67.58,2.51.81,3.55-5.59,5.8-3.75.84-3-2.2-2.86-4.28-5.29,3.91-1.22,5.8,3.1,5.32,6.14-1.14,1.07-2.18,1.39-3.43,3.16,2.92-.38,5.94,1.6,8.48,1.93.15.86-.92,2-1.55,3.08,3.44-1.12,3.6,4.78,7.27,2.61-1.65,5-.9,7.18-3.16,12.06.53.3,1.25-.32,2-1s1.4-1.38,2-1.31c1.48,2.3.18,5.41.39,8.12-1.41,1.47-2.8,2.93-4.29,4.42-.3-.46.75-1.29,1.31-2a21.87,21.87,0,0,0-4.54,3.5c-1.67,1.54-3.41,3.33-5.3,5.09-3.7,3.48-7.82,6.69-11,6.8,3.91-2.22,7.8-7.13,10.35-8.9-3.95,2.3-8.38,5.28-13.47,8.6s-10.76,7-17.14,10.37c-.82.43-1.56.86-2.43,1.29l-2.63,1.3c-1.76.89-3.55,1.67-5.38,2.46s-3.65,1.51-5.51,2.19-3.72,1.32-5.62,1.93a102.33,102.33,0,0,1-23.24,4.52c2.59-.85,1.86-1,.07-.89-.91,0-2.06.17-3.26.22s-2.42.08-3.36.09c1.43,1.17-2,1.26-6.66.64-.58-.09-1.18-.17-1.78-.24l-1.88-.34-3.71-.73c-2.44-.51-4.71-1.11-6.3-1.31-.43.92,4.05,1,5.69,1.49a23.33,23.33,0,0,1-6.09-.55c-1.23-.23-2.6-.63-4-1a43.84,43.84,0,0,1-4.31-1.46c-1.46-.58-3-1.22-4.42-1.85s-2.89-1.44-4.28-2.16-2.73-1.44-4-2.23c-.61-.37-1.23-.74-1.8-1.1l-.21-.12v0a1.74,1.74,0,0,0-.19.36h0a.85.85,0,0,0,.2.13l.52.3,1,.61c-.17.21-.53.14-1.05-.06a7.36,7.36,0,0,1-.85-.42l-.15-.07a0,0,0,0,1,0,0s.07-.07,0-.12-.08-.08-.14-.05c.2-.38.28-.25.37-.29.31-.59-.16-.31.18-1-.72-.49-.68-.72-.37-.68a2,2,0,0,1,.63.23c.08.07.28.16.28.21l0,.07,1.69,1c-.22-.24-.47-.49-.72-.73a4.72,4.72,0,0,0-.39-.38l-.19-.19c-.05,0-.17-.16-.13-.15.06-.15.12-.31.16-.45a1.62,1.62,0,0,0-.17-.87,3.08,3.08,0,0,0-1.08-1.24,5.41,5.41,0,0,0-3.2-.8c-.26,0-.49,0-.72,0a5,5,0,0,0,.72.54,11.8,11.8,0,0,1,1.65,1,2.47,2.47,0,0,1,.68,2.23,3.51,3.51,0,0,0-2.34-1.11,5.08,5.08,0,0,0-2.12.75l-1.65.84s-.26-.12-.49-.24a1.61,1.61,0,0,0-.34-.15c-.06,0-.07-.05-.16,0a2.17,2.17,0,0,0-.33.19c-2,1.51-4.8,5.58-7.71,6.18-.63.56.62,1.2-.17,1.74-5.05,1.3-7.32,5.43-13,9.5,1.7.56,4.64-3.65,6.16-2.4-4.79,1.62-8.18,7.19-12.32,6.69.23,3.39-5.25,5.07-8.37,8.74a70.65,70.65,0,0,1-6,5.26c-.7.57-1.41,1.19-2.13,1.81l-4.61,4.12c-1.52,1.4-3.1,2.72-4.63,4.05s-3.07,2.59-4.57,3.76c-9.79,7.89-21.26,14.38-34.44,17.06-.8.21-1.65.29-2.47.45s-1.66.3-2.51.37c-1.68.14-3.39.32-5.09.4-.86.05-1.72.1-2.58.12l-2.58-.07c-1.74-.08-3.46-.14-5.19-.38a66.85,66.85,0,0,1-10.25-2,68.48,68.48,0,0,1-9.91-3.7,81.77,81.77,0,0,1-18.47-11.93c-2.93-2.41-5.76-5-8.56-7.7-1.24-1.17-2.49-2.33-3.72-3.5l-.88-.79-.09-.09s0,0,0,0h0l0,0a7.64,7.64,0,0,0-2.12-1.21.49.49,0,0,1-.2,0c-.06,0-.14,0-.2,0,.17-.52.4-.55.59-.44s.36.32.58.2c.51-.51,1.17.07,1.66.47.61-.87.52-1.17.32-1.38s-.48-.28-.38-.89c.56-.69,1-.63,1.44-.31a3.51,3.51,0,0,1,.56.59,2.66,2.66,0,0,0,.26.31s0,0,0,0l.1.1.65.59c-.13-.25-.29-.53-.41-.74l-.1-.16,0,0,0-.09a1.41,1.41,0,0,0-.18-.44,1.65,1.65,0,0,0-.73-.56,8.08,8.08,0,0,1-2-.94,3.8,3.8,0,0,0,0,1c-.63,1.23-.31-.38-.1-1a6.62,6.62,0,0,0-5.11-.12,10.06,10.06,0,0,0-1.16.48c-.09,0-1.53.74-2.55,1.29a84.94,84.94,0,0,0-7.24,4.52c-2.56,1.74-5.21,3.72-8,5.87l-2.08,1.64-2.2,1.76c-1.61,1.29-3.22,2.57-4.82,3.87-6.14,4.86-12.38,9.82-18.89,15-1.14,1-2.22,2.08-3.29,3.1-.64,1.06-2.9,2.13-1.11.46a27.26,27.26,0,0,1,3.13-2.91,6.88,6.88,0,0,0,2.34-2.83c.87.36,2.34-2.27,3.21-1.69,1.06-2.86,5.71-4.06,6.91-6.6a6.33,6.33,0,0,0-3.73,1.29c-1.1.76-2.26,1.8-3.82,2.9,1.22-3.08,5.74-6.18,8.58-8.56-2.45,1.13-5,2.45-6.62,4.49a6.45,6.45,0,0,1,1.3-3,8.42,8.42,0,0,0,1.54-3c-3.13.44-7.12,4.77-10.39,6.66,0,.34,1.15-.27,1.2-.47-.28,1.42-1.48,2.86-3,4.34-.79.73-1.71,1.46-2.69,2.21s-2,1.49-3,2.21-2.07,1.49-3.07,2.23-2,1.46-2.84,2.2a15.28,15.28,0,0,0-3.77,4.18c-.36-.52.62-1.28,1.14-1.92-1.89.67-1.87,2.44-4,3.81,0-1.08,1.13-2.38,2.14-3.68s2-2.53,1.41-3.55a128.88,128.88,0,0,1,9.52-9.4c1.3,0-3.57,3.72-4.78,5.18,2-.31,4.58-3.74,7.91-6.24-.58-.93-1.82,2-2.25.26,8.42-6.85,13.38-13.2,21.91-20-6,3.58-12.61,10.27-18.38,15,.78-1.75,2.66-3.62,4.92-5.5-3.61.33-7.27,6.48-10.21,7.87-4.56,3.63.63-1.15,3.29-3.59,1.56-1.44,3.34-3,4.87-4.33a21.2,21.2,0,0,0,3.23-3.3c.35,1-3.73.18-1.85-.2-4.48.93-8.44,6.22-14.27,10.92.69-2.21,3.52-5.44,6.78-8.58,1.63-1.57,3.37-3.11,4.94-4.54s3-2.69,4-3.72c-2.15.47-5.09,4.1-7.49,5.82-1.21,1.06-.8.25-1.09-.25-1.75,1.51-3.42,3-5.15,4.55-1.16,1.48-4.53,3.58-1.68.93,2.81-3.39,7.85-7.82,12.38-9.67,1.15-1,.9-1.78,2.61-2.79-5.33,2.67-14.37,9.91-19.83,16.35-.38-.69-.94-.26-1.51.23-1.42-2.38,2.34-3.69,4-5.63,6.35-7.32,11.71-14.21,23-22,1,0-7.07,6.74-.4,1.48,1.39.61-.58,1.51-1.39,2.32,3.82-.71,7.3-5.33,10.38-6.07,1.46.91-1.5,1.95-2.32,2.95.85.1,2-.84,2.76-.46a37.83,37.83,0,0,1-3.73,3.48c-1.7,1.48-3.89,3.31-5.65,4.7,5.12-3.53,9.31-6.51,13.47-9.27s8-5.23,11.8-7.39c.95-.55,1.9-1.06,2.85-1.56.47-.24.94-.52,1.42-.74l1.34-.66c1.54-.75,3.14-1.45,4.81-2.07a30.06,30.06,0,0,1,11.17-2,12.21,12.21,0,0,0-4.81-.48,49.09,49.09,0,0,0-5.15.74,4.94,4.94,0,0,1,2.32-1.34,16.4,16.4,0,0,0,2.84-1.07,18,18,0,0,0-6.45.63,28.09,28.09,0,0,0-6.56,2.88.78.78,0,0,0,.76.53,2.86,2.86,0,0,0,1.06-.27c.75-.35,1.59-.76,2.1-.51-.65.41-1.36.79-2.09,1.25l-2.58,1.48c-1.94,1.11-4.06,2.36-6.21,3.67-4.3,2.6-8.8,5.39-12.5,7.31,4.52-3,7.86-5.86,13.55-9.27-3.81,1.2-5.78,3.1-9.27,5-.5.32.53-.92,1.65-2s2.29-1.93,2-1.08a76.94,76.94,0,0,1,8.55-6.65c.77-.52,1.61-1,2.34-1.42s1.4-.75,2.08-1a11.77,11.77,0,0,1,3.79-1.05c-.06,0-.12.25-.15.5s-.06.5-.08.51c1.95-.9,4.06-2.85,6.42-3.48A23.58,23.58,0,0,1,169,151.28c.35-1.3-1.5-2.25-3.45-2.89s-3.94-1-3.95-2.35a6.16,6.16,0,0,0,1.4.62c.31.11.66.21,1,.32l1.15.38a39.74,39.74,0,0,1,4.91,1.91,18.59,18.59,0,0,0-8-4.34,68.13,68.13,0,0,0-9-1.63c-.09,0,1.27-.85,1.74-.48-1.7-1.36-5.77-1.08-10,.3-2.12.66-4.31,1.53-6.39,2.4a64.14,64.14,0,0,1-6.08,2.35c1-1.38-.66-1.52,2.72-2.75a21.31,21.31,0,0,0-3.88,1.15,28.18,28.18,0,0,0-2.91,1.45c-1.87,1.07-3.83,2.33-7.41,4.24,2.1-2.67,5.27-4.68,8.66-6.5s6.94-3.41,10.36-5.58a1.92,1.92,0,0,1-1,1.27c3.39-1.14,6.13-2.21,9-3a19,19,0,0,1,9.26-.34c0-.54-1.14-.48-1.89-.55,1.68-.56,4.36-.3,6.82.27s4.8,1.3,6.28,1a34.94,34.94,0,0,0-9.53-2.47,28.19,28.19,0,0,0-10.1.71c-.37-.9.9-1,2-1.13a52.65,52.65,0,0,0-17.32,4,72.4,72.4,0,0,0-16.65,9.61c.51.38,1.59-.6,2.45-1.09-2.74,2.41-6.55,5.09-10.1,7.79a63.54,63.54,0,0,0-8.63,7.43c.43,1.19,1.6-.2,2.37-.23-.71,1.6-4.75,3.29-7,5.78,3.38-.67,8.49-7.58,11-5,.23-1,1.86-2.08,3.2-3.14-1.42-.41-4,3.2-5.16,1.84,2.31-1.94,5.83-4.25,9.24-3.85,1.49-3.28,6.84-5.25,9.57-6.09-.9,1.6-3.09,2.63-5.14,3.72s-3.93,2.22-4.11,3.81c1.49,0,2.23-.71,3.3-1.88a34.52,34.52,0,0,1-5.1,5.6c-2.19,2-4.75,4.22-7.51,6.46-5.47,4.43-11.27,8.69-14.89,11.56-2.44.28,1.13-2,2.3-3.16-2.63.91-.45-.84,1.35-2.33a149.54,149.54,0,0,0-11.6,9.57c-3.76,3.37-7.65,7.2-12.45,12.2-1.43,1.79-1.21.09.11-.75.71-.77,1.45-1.53,2.2-2.27,1.32-1.21-.23-1.93,2-3.32,1.16-1.15.8-.3,1.1.18,1.12-1.8-.84-.79.1-2.57,4.82-4.81,9.41-7.68,14.57-12.59-5.38,3.91-10,7.69-14.36,11.53s-8.5,7.78-12.76,12.14c2.22-2.94,5.79-7.2,9.6-11.39a128.72,128.72,0,0,1,11-10.78c1.94-.81-1.82,2.15-2.59,2.9,1.71.38,4.18-2.76,6.42-4.47-2.57-1.19,4.72-4,7.85-6.7-.55-.8-1.89,1.32-2.76,1.74-2,.77,1.87-2.1,2.67-2.82-4.16,1.39-6.93,5.16-11.9,9,1.43-1.87,2.81-4.74,6.16-7.69-4.31,2.77-9.16,7.32-13.93,12.13s-9.48,9.87-13.9,13.5c-1-2.63,3.6-5.06,6-8.78-4.37,1.74-9.17,8.62-11.45,10.24,3.32-5,8-10,13.06-15s10.75-10.14,16.2-15.61c-2.93.24-3.48,2.6-5.9,3.31.41.91,1.3,0,2.1-.63,0,2-3.36,1.36-5.07,3.26-.17.19-.45,2.19-.56,2.29a53.83,53.83,0,0,1-5.81,4.4c-1.87,1.27-2.79,1.63,0-.87a71.58,71.58,0,0,0-6.53,6l-2.88,2.91c-1,1-2,2-3.28,3.16-.83.6-.25-.57-1-.89a49.9,49.9,0,0,1-3.27,3.8,18.16,18.16,0,0,0-1.57,2,5.56,5.56,0,0,0-.8,2,3.38,3.38,0,0,1,.56-2.91,17.75,17.75,0,0,1,2.55-3c2-2,4.19-3.89,4.34-5.76-.73-.61-1.72.29-2.77,1.5l-1.58,1.91a8.77,8.77,0,0,1-1.5,1.57c3.38.17-4,2.3-5.78,6.09A14.45,14.45,0,0,1,49,193a32.78,32.78,0,0,1,3.55-3.68c-1.94.26-4.38,3.2-6.65,6.35l-1.71,2.29c-.54.75-1.09,1.47-1.63,2.1a6.61,6.61,0,0,1-3.09,2.39c4.13-6,7.83-11.12,12.35-16.68A184.37,184.37,0,0,1,69.31,167.2c-1.35-1.36-3.26-.56-5.62,2.08.81.42,2.21-1.56,2.76-.12-1.31.05-3,1.68-4.48,2.31,2.45-2.29-2.17-.33,2.11-3.78-3.87,1.72-7.69,7-11.92,10.89a15.62,15.62,0,0,1,3.38-4.69c1.31-1.3,2.56-2.3,3-2.89s-.22-1.16-.64-.63c2.53-3.24,1.69-1.19,7.48-6.32,1-1.22-1.1,0-.4-1.44a40.6,40.6,0,0,0,3.32-3c1-.94,1.86-1.87,2.71-2.8a53.49,53.49,0,0,1,5.72-5.57c-.43-.31-1.19.52-1.84,1a35.86,35.86,0,0,1,6.35-5.9c-1-1.11-3.19,2.07-4.45,2a53.78,53.78,0,0,1,4.28-4.26c.74-.68,1.52-1.35,2.3-2l1.19-1c.44-.35.88-.69,1.31-1.06,3.56-2.84,7.47-5.66,11.53-8.71.6.44-.11,1,.21,1.51,3.24-2.34,4.41-2.82,4-2.34a33.54,33.54,0,0,1-4.93,3.58c1,1.61,3.3.49,5.84-1.2s5.36-4,6.86-4.75c-2.17.11-6,3.65-8.59,5.17-1,.13-.91-.74-.26-.36a123.26,123.26,0,0,1,14-9.28c1.25-.71,2.59-1.41,4-2.1.66-.34,1.4-.68,2.11-1l1.18-.54,1.31-.58a76.53,76.53,0,0,1,11.31-3.9c2.43-.81,2.59.31,4.17.23a71.36,71.36,0,0,1,7.95-1.87,25.47,25.47,0,0,1,6.73-.17,8.81,8.81,0,0,1,2.83.43,17.43,17.43,0,0,1-2.08,0,31.4,31.4,0,0,0-5.66.28c0,.53,2.94.25,6.53.12a72.71,72.71,0,0,1,10.06.32c-1.11-.57-1.58-.85-1.24-1a10.46,10.46,0,0,1,3.35.44c-.4-.59-1.92-1-3.69-1.12s-3.75-.19-5.09-.42c1.47-.5,1.75-.81,1.27-1a9.65,9.65,0,0,0-3.22-.2,34,34,0,0,0-4.74.61,22,22,0,0,0-3.31.89c-1-.55-3-.61-5.11-.39-1.08.09-2.16.24-3.22.38s-2,.23-2.9.26c-3.26.71-4.45,1.08-4.29.93a29.43,29.43,0,0,1,3.75-1.22c1.06-.3,2.29-.61,3.59-.89s2.68-.54,4-.76a68.53,68.53,0,0,1,7.11-.78,64,64,0,0,1,10.61.28,66.66,66.66,0,0,1,9.61,1.79,123.75,123.75,0,0,1,15.57,5.46c-.31.38,1.2,1.47,3.35,3.06s5,3.66,7.45,5.77c1.25,1,2.41,2,3.45,3,.45.41.88.8,1.26,1.13s.53.52.75.72c.82.83.88,1-.45.17l-1.09-1-1.54-1.4c-1-.9-2-1.78-3.07-2.64-4.25-2.79-9.55-6.58-14.69-8.69,2.86,2.31,6.08,4.72,9.43,7.32,1.68,1.31,3.38,2.68,5.13,4.09,1.58,1.31,3.19,2.62,4.81,4a6.1,6.1,0,0,0,1.23.86l.86.51,1.68,1a24,24,0,0,1,2.94,1.87,12.24,12.24,0,0,0-2.53-2.91,10.27,10.27,0,0,1-1.26-1.42,3.43,3.43,0,0,1-.42-.77l-.07-.2,0-.09-.15-.21a6.88,6.88,0,0,1-.55-.86,4.09,4.09,0,0,1,1.18.39l.13.06h.08l.12,0a.51.51,0,0,1,.22.09,2,2,0,0,1,.67.66c.38.54.73,1.2,1.35,1.1a6.44,6.44,0,0,0-1.29-2.07c-.13-.16-.27-.3-.4-.45l-1.3-1.3c-.62-.6-1.22-1.18-1.81-1.77s-1.34-1.27-2-1.89a13.48,13.48,0,0,1,2.7,1.18c.44.25.89.54,1.31.83s.62.39.9.59a8.67,8.67,0,0,1,.82.65l.59.52a2.06,2.06,0,0,1,.35.47c.41.69.76,1.63,1.71,1.62a3.9,3.9,0,0,0-.43-2.29,4.71,4.71,0,0,0-.62-.81c-.46-.44-.94-.87-1.41-1.3l-2.23-2a110.37,110.37,0,0,0-10.13-7.84c-3.3-2.27-6.35-4.11-8.64-5.67.22-.38,1.35.28,2.14.6.07-1.19-4.78-2.62-6.82-3.64-.32.26-.22.57.15.82a8.52,8.52,0,0,0,1.54.84c-1.51-.5-3.1-1-4.66-1.6s-3.16-1.1-4.72-1.6-3.08-1-4.54-1.23c-.73-.16-1.43-.29-2.09-.39s-1.31-.14-1.91-.17c.25-.48,2.07-.12,3.35.08a38.6,38.6,0,0,0-11.79-1.91,65.56,65.56,0,0,0-14.57,1.46,104.86,104.86,0,0,0-15.08,4.44c-2.45.91-4.85,1.87-7.21,2.84L116.11,114,113.38,115c.1,1,1.53.16,2.85-.44a19.59,19.59,0,0,1-3.16,2.39,12.07,12.07,0,0,1-2.92,1.3,14.79,14.79,0,0,0,4.63-1.5c.92-.42,1.92-.88,3-1.37.56-.27,1.14-.54,1.73-.8l2-.85c5.24-2.27,10.68-3.69,13.08-2.48a61.35,61.35,0,0,0-14.07,4.56c-1.12.5-2,.94-2.84,1.36s-1.67.88-2.5,1.33c-1.63.9-3.2,1.8-4.67,2.73C104.45,125.06,99.33,128.61,93.38,131.09ZM463.3,103c-.48-.3-.95-.55-1.63.45-4,4.14-8.5,8.72-13.6,13.47a162.47,162.47,0,0,1-17.4,14.18c-1.65,1.14-3.27,2.26-5,3.34-.87.54-1.72,1.08-2.59,1.61l-2.68,1.55c-1.71,1-3.78,2-5.7,3s-3.95,1.8-5.93,2.67a99.23,99.23,0,0,1-24.12,6.62c-1.35,1.82,3.5-.25,3.26.81-7.72,1.8-6.64.34-10.42,0-5.59.89-13.66.8-22.68-1-2.26-.44-4.54-.92-6.89-1.61l-3.5-1-3.52-1.22c-2.35-.78-4.67-1.8-7-2.79l-1.72-.74-1.68-.82-1.68-.82c-.18-.1-.15-.07-.17-.07l-.1,0,.07,0h.05l.19.11q.81.44,1.5.87c.94.56,1.7,1.08,2.19,1.43,1,.71.69,1.13-1.84.39,1.48.69,3.05,1.36,4.68,2.08.81.35,1.63.75,2.47,1.07l2.55,1a84.8,84.8,0,0,0,10.41,3.26c1.7.38,3.34.7,4.92,1s3.06.37,4.44.46a19.37,19.37,0,0,0,6.63-.47,51.75,51.75,0,0,0,19.61-.06,117.47,117.47,0,0,0,17.24-4.83c0,.55-1.38,1.51.44,1.26,1.5-.82,3-1.63,4.59-2.4l4.7-2.45c3.16-1.66,6.5-3.45,9.42-5.13a200.26,200.26,0,0,0,17.33-10.92C450.92,119.62,459.41,111.38,463.3,103ZM226.48,121c2.21-2.68,6-3.5,7-6.16-.83.5-2.87,2-4.58,3.34S225.89,120.83,226.48,121Zm90.2-56.08a22.81,22.81,0,0,0-6.24,1.67c-.53.32.24.28,1.69,0l5.81-1c2.24-.41,4.57-.7,6.41-1.18C322.23,64.91,319.48,64.39,316.68,64.88ZM207.19,126.76c.28.29.55.55.8.82s.25.26.37.37.3.31.26.3a1.59,1.59,0,0,1,.18.4,4.46,4.46,0,0,0,.29.76c.22.44.59.77,1.48.53a7.59,7.59,0,0,1-.88-1.38,2.39,2.39,0,0,0-.55-.65,1.35,1.35,0,0,1-.21-.12l-.63-.47A9.63,9.63,0,0,0,207.19,126.76Zm5.07,5.19c1.18.92,2,.77,3.05,1.36a1.67,1.67,0,0,0-1.31-1.62A2.18,2.18,0,0,0,212.26,132Zm5.7.77a5.32,5.32,0,0,1,1.86-.33c.49-.1.92-.41,1.05-1.63a4.19,4.19,0,0,1-1.68.94C218.56,131.93,218,132.14,218,132.72Zm3.93,1.27c.27-.32-.36-.67-.17-1,.38-.23,2-1.44,1-1.33a3,3,0,0,1-1.71,1.11,2.28,2.28,0,0,0-1.5,1,1,1,0,0,0-1.17-.61c-.41.08-.79.38-.79.7A6.69,6.69,0,0,0,221.89,134ZM263,101.59c-.43-.6,1.42-1.34,1.17-2-1.14.58-.05-.56,0-1.12-5.27,4-12.14,7-15.75,10.81,1.74-1.86,3.37-1.42,2.81.06,3.71-2.13,2.66-3.79,6.13-5.86.62.32,1.14.09.84,1C261.91,103,262,100.53,263,101.59Zm-48,32.69a3.28,3.28,0,0,1-1.8-.71c-.57-.35-1.07-.64-1.64-.37a15.92,15.92,0,0,1,1.7,1.07A1.35,1.35,0,0,0,215,134.28Zm72.29-50.66a29.29,29.29,0,0,1-4.5,2.68l-.47.22-.36.15-.66.3a13,13,0,0,0-1.38.76,3.6,3.6,0,0,1-.42,1.88c-.36-1.63-2.36.63-2.59,1.18,0-1.64-3.11-1-3.12.49,1.1-.53.21.54.77,1.08,1.77-1.55,1.47.13,1.36.7a8,8,0,0,0,3.88-1.57c.75-.47,1.53-1,2.32-1.57l1.15-.87.65-.47.88-.62c2.32-1.61,4.44-3.09,5.87-3.92s2.16-.93,1.71.07a46.61,46.61,0,0,1,5.15-2.63c.88-.45,1.64-.77,2.05-1s.5-.45,0-.53c-.35.15-.73.35-1.12.55s-.76.46-1.12.65c-.71.4-1.31.64-1.56.44,2.47-1.62,5-2.79,7.33-4A72.94,72.94,0,0,1,310,74.3c4.3-1.86,8.11-3.3,11.23-5.2a43.6,43.6,0,0,0-6.1,1.11c.17,1.31-1.82,2.18-4,3s-4.64,1.45-5.46,1.73c-.14-.6,1.57-1.12,1.7-1.7a9.23,9.23,0,0,0-2.18.78c-.83.45-1.76,1-2.75,1.63s-2,1.31-3,2l-1.49,1c-.49.36-1,.74-1.43,1.09-3.7,2.81-6.67,4.73-6.36,2.13-3,1.25-2.39,4-4.19,3.65A3.26,3.26,0,0,0,287.31,83.62Zm29-11.38c.65-.16,1.31-.29,2-.42.38.54-.78.67-1.92.87s-2.3.44-1.89,1a52,52,0,0,1,10-1.3h1.25a10.66,10.66,0,0,0,1.25.09c.83,0,1.63.1,2.43.19a20.42,20.42,0,0,1,2.3.39c.76.13,1.47.36,2.17.54a17.05,17.05,0,0,1,6.47,3.4c2-.07,1.1-1.06,2.22-1.06,2.81,1.31,5.82,2.83,9,4.65,1.56.93,3.18,1.9,4.81,2.94s3.2,2.11,5,3.24l.66.43.16.09h0l.06,0,.26.11a1.93,1.93,0,0,0,.56.17c.39.08.71.28,1.13.36s.75.28,1.18.39.77.35,1.22.49a2.41,2.41,0,0,1,.8.57l.78.7a4.6,4.6,0,0,0,.93.67,4.09,4.09,0,0,0,1.34.26,3.92,3.92,0,0,0,1.41-.3,10.94,10.94,0,0,0,1.35-.55,5,5,0,0,1,1.43-.43,3.66,3.66,0,0,1,1.69,0,2.69,2.69,0,0,1,1-1.48,1.31,1.31,0,0,1,1.73,0c-.52.25-1.36.11-1.35.75.68-.37,2.55-.06,2.43-1-1.52.33-.14-.26-.23-.85-2.53.18-4.49,1-6.64,1.6s-4.53.74-6.46-.75c1.12.18.89-.06.39-.45a3.91,3.91,0,0,1-1.32-1.16,6.55,6.55,0,0,0-.48.54c-.15.18-.3.36-.46.52a1.83,1.83,0,0,1-1,.65,2.69,2.69,0,0,1-.57-.65,2.17,2.17,0,0,1-.42-.63c-.05-.12-.08-.23-.14-.35l0-.07s0,0-.11-.16l-.64-.57c-.43-.38-.84-.77-1.24-1.13l-1.13-1.1A79.86,79.86,0,0,0,350.08,75c-2.4-.53-4.58-2.11-3.32.35-1.05-1-3.25-2-4.4-2.89.62,1.46-1,1.42-2.88.94a18.57,18.57,0,0,1-5.06-1.88c.52-.66,3.14.36,2.24-1.32-2.58.22-4.07-1.5-6.12-.64,1.28.35,2,.85,1.89,1.62a64.52,64.52,0,0,1-8-.44C321.43,70.66,318.36,71,316.32,72.24Zm-17.22,3c-4.75,2.73-12.4,6.54-15,9.39,2.29-1.59,5.32-3.36,8.15-4.93,1.42-.81,2.77-1.6,3.94-2.38A27.74,27.74,0,0,0,299.1,75.22Zm-56,41.92c1.31-1.3,2.82-2.62,3.2-3.81-1.34,1.32-6.29,3.32-4.62,3.25C242.38,116.11,242.76,116.62,243.12,117.14ZM367.9,85.86a5.6,5.6,0,0,1-2.38-.67A3,3,0,0,0,365,85a1.72,1.72,0,0,0-.43-.16,1.84,1.84,0,0,0-.47,0,.94.94,0,0,0-.46.07,2.44,2.44,0,0,1,.41.18,3.05,3.05,0,0,1,.46.2,7.5,7.5,0,0,0,1,.51,5.27,5.27,0,0,0,1.17.29A2.69,2.69,0,0,0,367.9,85.86Zm9.72-.54a6.86,6.86,0,0,1-1.35.32c-.48.09-1,0-1.45.12a4.84,4.84,0,0,0-.68.1,2.89,2.89,0,0,0-.6.09,2,2,0,0,0-1,.55,19.12,19.12,0,0,1,2.7-.25A3,3,0,0,0,377.62,85.32Zm4.48-.84a5.41,5.41,0,0,1-1.37.09,1.65,1.65,0,0,0-1.33.75,4.77,4.77,0,0,1,1.45,0A1.32,1.32,0,0,0,382.1,84.48Zm1.27,2.37c2-1.1,6.74-3.81,9.51-5.39a4.68,4.68,0,0,0-2.49.46c-.55.21-1.16.4-1.75.68l-1.69.78a13.37,13.37,0,0,0-2.73,1.72C383.51,85.65,383.13,86.26,383.37,86.85ZM212.12,137.44a17,17,0,0,0,4,1.59,4.42,4.42,0,0,0,4.12-1.41,16.85,16.85,0,0,1-4.38.34A33.59,33.59,0,0,1,212.12,137.44ZM397.3,78.88c-.85-.83,2.41-1.35.67-2.22a2.47,2.47,0,0,0-1.41,1.43C396.38,78.61,396.55,79,397.3,78.88Zm-58.09-1.35c2.21.73,3.55,1.69,4.09,2.68a37.54,37.54,0,0,0-9.21-3,42,42,0,0,0-4.77-.58c-1.62-.1-3.26-.09-4.93-.09a80.94,80.94,0,0,0-8.51.89,23.46,23.46,0,0,1,8.52-1.8c4.55,0,8.6.79,13.93,1.61a11.14,11.14,0,0,0-4.91-2.65,17.46,17.46,0,0,0-2-.52,16.66,16.66,0,0,0-2.19-.38,41.63,41.63,0,0,0-4.85-.31,38.68,38.68,0,0,0-8.84,1.37c-.34,1.18,1.38.66,3.34.18s4.14-.85,4.37-.15a65.82,65.82,0,0,0-13.73,3.47c-1.06.38-2.1.8-3.11,1.23s-2,1-3,1.46A45.4,45.4,0,0,0,297.89,84a54.49,54.49,0,0,1,5.16-2.11c1.74-.64,3.49-1.5,5.62-2.41.18.58-.2,1.15-.58,1.7a45.72,45.72,0,0,1,16.3-4.28c1.7,0,3.4,0,5.08.17.84.07,1.67.24,2.51.35s1.64.3,2.45.52c-1.07,1.11.51,1.57,2.35,2.11s4,1.21,4.13,2c-1-.29-2.46-1.06-3.83-1.55s-2.58-.79-3-.39c1.43,1.1,3.12,2.2,4.66,3.47-1.7-.31-3.5-.53-5.7-.78l-1.72-.15-1.9-.1h-2.09c-.72,0-1.49,0-2.28.07l-.74,0a27.07,27.07,0,0,0-3.86.46c-1.11.24-1.64.5-.51.55a34.92,34.92,0,0,1,4.36-.69,30.27,30.27,0,0,1,6.74.33,34.52,34.52,0,0,1,6.1,1.66,58.49,58.49,0,0,1,12.32,6.67c.73-1.16-.81-2.55-2.81-3.85s-4.39-2.43-5.45-3.58a62.13,62.13,0,0,1,10.52,6.09,50.42,50.42,0,0,0,4.55,2.81c2,1.12,2.11.78,2.95.68-.3-.25.06-.51.44-.79-.24-.14-.42-.34-.62-.47-.48-.34-.95-.63-1.39-.94-1.29-.84-2.32-1.56-3.38-2.26A59.66,59.66,0,0,1,348.4,85c2.06,1.22,4.13,2.56,6.21,4,1.06.72,2,1.44,3.17,2.19l.83.56.41.28.15.09.5.31a22.94,22.94,0,0,0,4.63,1.94,32,32,0,0,0,12.52,1,16.88,16.88,0,0,0,1.74-.22c.58-.1,1.15-.16,1.74-.3,1.16-.27,2.31-.49,3.44-.86a38.3,38.3,0,0,0,6.44-2.52c1-.54,1.93-1,2.94-1.67.5-.32,1-.62,1.45-.94l1.39-1c.93-.64,1.77-1.43,2.61-2.13s1.61-1.54,2.33-2.29c-1.25.92-2.57,2.19-3.26.72,3-2,4.94-3,7.36-6.37a30.33,30.33,0,0,1-6.43,4.78,55.65,55.65,0,0,0-5.85,3.72c-.21-.55.14-1.14-.86-.54l-1.18.7-.59.36-.55.28c-.73.35-1.42.79-2.19,1.08s-1.47.69-2.25,1-1.49.59-2.27.81a39.09,39.09,0,0,1-8.89,1.77,32.64,32.64,0,0,1-7.65-.25,8.09,8.09,0,0,0-.86-.12c-.26-.08-.51-.14-.77-.2l-.79-.15c-.24-.08-.49-.16-.73-.22s-.5-.11-.74-.19l-.68-.25a5.78,5.78,0,0,1-.7-.24l-.32-.14-.16-.07-.1,0-.32-.21.2.16.14.11.08.1a1.27,1.27,0,0,1,.13.19,3.29,3.29,0,0,1,.19.47,3.14,3.14,0,0,1,.22,1c-.17-.27-.38-.48-.55-.78s-.17-.29-.25-.44l-.06-.09a.66.66,0,0,0-.18-.19c-.23-.2-.48-.42-.74-.62-.95-.82-2-1.69-3-2.55s-2.07-1.72-3.17-2.54C348.8,81.16,343.88,78.48,339.21,77.53Zm-81,33.77c.68-.46,1.51-1.26,1.92-.91,4.78-3.61,8-6.13,3-2.85-.79.56-2.22,2.16-3,1.74,1.34-.85,2-1.65,1.67-2.38C259.4,108.46,259.28,109.83,258.24,111.3Zm23.88-15.42a25.34,25.34,0,0,1,3.53-2.51l1.18-.72,1.61-.93,3.25-1.87c2.13-1.27,4.26-2.4,6-3.53.89-.55,1.68-1.11,2.39-1.61a13,13,0,0,0,1.74-1.38,15.14,15.14,0,0,0-2.51,1.3l-2.7,1.72c-1.79,1.12-3.42,2-4.37,2,3.19-1.8,3.73-2.24,2.73-1.94-.48.16-1.34.52-2.43,1s-2.37,1.19-3.73,1.91c-.67.38-1.36.75-2.07,1.14l-1,.61-.78.49a16.92,16.92,0,0,0-2.34,1.7C281.39,94.41,280.93,95.39,282.12,95.88ZM108.6,129.8c-3.4,2.85-7.75,3.56-9.37,6.4a47.33,47.33,0,0,0,6.41-3.86C108.14,130.64,110.17,129.21,108.6,129.8Zm56-12.61c.61.16,2.28.46,3.42.68s1.81.26.39-.36a59.49,59.49,0,0,0-20.83-1.06c-.13-.68.05-1.56-2-1.07a115,115,0,0,0-12.26,3.39c-.77.24-2.38.79-4.25,1.49s-4,1.58-5.76,2.39c-.87.41-1.57.77-2.13,1a10.66,10.66,0,0,0-1.24.7c-.48.34-.26.35,1.19-.15a10.75,10.75,0,0,0,2.55-.88c1-.45,2.19-1,3.25-1.38,2.13-.82,4-1.25,4.31-.16-1.19.47-4.67,1.66-7.86,3.2-2.9,1.38-5.41,3-6,4.18,1.13-.48,1,.58.68,1.16,1.34-.6,2.66-1.18,4-1.74s2.58-1.08,4.09-1.68c2.92-1.17,5.76-2.15,8.52-3a80.42,80.42,0,0,1,16.13-3.36,56.78,56.78,0,0,1,15.82.61A50.56,50.56,0,0,1,182.34,127c.37-.4,1.33.1,2.19.5s1.65.73,1.78-.12a21.37,21.37,0,0,0-4.3-3.05L179.65,123a11.31,11.31,0,0,1-1.77-1.29c.64-.3,2.14.47,3.59,1.26s2.81,1.67,3.43,1.4a30.94,30.94,0,0,0-7.67-4.27c-2.39-.77-3.56-.71-1.24,1.3a51.63,51.63,0,0,0-12.11-2.93c-3.89-.54-7.32-.74-9.68-1.53C158.07,116.87,161.87,117.3,164.58,117.19ZM79.79,158.78c.93-1.47,3.34-3.09,2.37-4.32-1.87,2-3,1.38-4.66,2.75C78.68,159,80.79,155.77,79.79,158.78Zm292.44-61.6a4,4,0,0,1,2,.06,13.4,13.4,0,0,1,1.67.78c1.07.49,2.09,1,3.17.14a27.14,27.14,0,0,0-3.74-1.27C373.9,96.47,372.65,96.43,372.23,97.18ZM97.07,144c2.7-1.42,7.76-4.83,7.47-5.56C102.73,139.27,96.57,141.78,97.07,144ZM370.16,97.2a1.17,1.17,0,0,0-1.27.84c.73,0,1.34.12,1.9.11s1,0,1.36-.06c.7,0,1.05-.15,1.09-.26S372.07,97.42,370.16,97.2Zm-10,.42a7.8,7.8,0,0,0,.92,1.08,6.88,6.88,0,0,0,1.29.82,3,3,0,0,0,2.51.3c-.47-1-1.33-1.09-2.19-1.26-.45-.07-.94-.09-1.37-.2A2.55,2.55,0,0,1,360.16,97.62Zm22.26,2.5c.28-.1.55-.21.38-.55-.61.06-.42-.4-.22-.87a99.46,99.46,0,0,1-14.27,1.09c.8,1.35,3.8,1.78,6.85,1.35s5.94-1.32,6.68-1.32C381.35,100,381.59,100.48,382.42,100.12Zm-248,31.4a28.77,28.77,0,0,1-4.58,1.71c-.67.21-1.38.41-2,.67a15.69,15.69,0,0,0-2.12,1,14.53,14.53,0,0,0,2.23-.25c.91-.17,2-.4,3-.67C132.9,133.39,134.57,132.65,134.43,131.52ZM121,141c1.52-.7,3.14-1.47,4.87-2.26s3.53-1.63,5.63-2.51a81.22,81.22,0,0,1,13.08-4.34,50.49,50.49,0,0,1,13.65-1.29,39.11,39.11,0,0,1,11.64,2.32,33.3,33.3,0,0,0-11.14-3,44.73,44.73,0,0,0-11.85.49,69,69,0,0,0-11,2.92c-1.71.59-3.33,1.22-4.88,1.83s-2.95,1.19-4.31,1.72c-.33-.66,1.67-1.08,1.56-1.74-1.27.88-4.51,1.64-4.3,2.67,2.41-.59,1.57,0,.2.8S120.85,140.55,121,141Zm22.14-5.7a65,65,0,0,0-13.17,3.8c-4.63,1.92-8.76,4.52-10.57,7,4.11-2.39,8.11-4.36,12-6.16S139.31,136.63,143.09,135.3Zm-34.31,19.88c-2.73.86-5,3.69-6.73,4.19C104.32,160.16,106.55,157.14,108.78,155.18ZM92.46,174.92c1.71-2.06,5.19-2.39,4.64-4.49C95.77,171,92.26,173.87,92.46,174.92Zm42.88-30.86c.42,1.14,1.26.44.68,1.64a14.54,14.54,0,0,1,3.63-1.91,12.65,12.65,0,0,0,2.87-1.41c.74,1.12,2.72.52,5.24-.12s5.57-1.33,7.81-.8a2.33,2.33,0,0,0-1.65-1.24,6,6,0,0,0-2.24.14c-1.58.38-3.17,1.08-4.45.87.45-.2,1.17-.22,1.16-.66A29.39,29.39,0,0,0,135.34,144.06ZM326.1,109.57a11.81,11.81,0,0,0-2,0,9.22,9.22,0,0,0-2.3.47c-.41.14-.52.24-.42.26s1.35-.1,2.71.06c.29.05.62.09.92.17-.31.07-.62.16-.93.22-2.32.57-4.56.89-6.61,1.45s-3.91,1.35-5,2.91c2.3-1.41,1.53-.67.72.61a37.21,37.21,0,0,1,4.94-2.52,19.51,19.51,0,0,1,5.95-1.51c2.84-.2,5.45.5,7.58.68-1.71-1.13-4.88-3-2.33-.55A7.36,7.36,0,0,1,326.1,109.57Zm-27.43,15.92c2.9-2.42,4.09-3.38,3.86-3.41a32.65,32.65,0,0,0-4.61,2.32c-.91.59-1.14,1.18-1.07,1.78C297.5,125.82,298.28,125.12,298.67,125.49Zm-1.56,4.29a12.38,12.38,0,0,1,4.05-3.65c.93-.6,1.95-1.15,3-1.7l1.64-.79.82-.38c.27-.11.44-.16.66-.24l-.71-1.12c-.48.17-1.52.69-2.53,1.19a33.44,33.44,0,0,0-3.13,1.8C298.92,126.26,297.23,127.91,297.11,129.78Zm24.17-16.14c-.48-.42-1.44-.12-2.42.4a26.68,26.68,0,0,1-2.77,1.55c-.21,0-4.27,2.1-4.73,3.33,1.8-.7,3.37-1.33,4.84-2a31,31,0,0,1,4.35-1.55c-.06-1.21-1.11-.77-2.18-.06s-2.12,1.55-2.56.94A29,29,0,0,1,321.28,113.64Zm55.67,17a6.22,6.22,0,0,1-3,.4c-1.42-.09-3.11-.27-4.77-.51s-3.28-.55-4.54-.7-2.2-.19-2.5.18c0-.27,0-.52-.74-.54a20.15,20.15,0,0,0,3.32,1.06,47.71,47.71,0,0,0,4.8.73,40.23,40.23,0,0,0,4.63,0A6.93,6.93,0,0,0,377,130.69Zm21.3-4c.55-.21,2.1-.73,3.16-1.21s1.66-.88.39-.66c-1.1.5-2.22.88-3.33,1.32l-1.68.63-1.7.55a10.14,10.14,0,0,0-3.51.58c-1.41.37-2.95.89-4.29,1.11a21,21,0,0,1-3.28,1.41,3.33,3.33,0,0,1-3-.27c.93-.21,2.27-.26,2.32-.8a121.06,121.06,0,0,1-17.13,2.79,57.3,57.3,0,0,0,9-.07c1.33-.14,2.62-.27,3.86-.43s2.44-.43,3.63-.65A113.93,113.93,0,0,0,398.25,126.74ZM149.49,155.48c.22-.57-.88-.39-2.11-.07s-2.59.78-3.14.45c.17.71-1,.6-.9,1.26A30.87,30.87,0,0,1,149.49,155.48Zm-30.05,16.8c-1.73,2.63-3.85,1.22-5.16,4.17,2.82.28,7.23-4.56,9.17-6.67C121.6,172.35,116.22,171.91,119.44,172.28Zm7.34-3.8c-.81-1.33,2.92-2.38,2.94-3.63-1.88.43-6.14,2.3-7.28,4.57C124.77,167.87,123.91,170.93,126.78,168.48Zm15.55-8.58c-.29.17-.57.37-.86.51l-1,.45c-.85.34-1.71.68-2.51,1a10.86,10.86,0,0,0-4,2.42c.59-.27,1.26-.83,1.6-.43-2.44,1.18-2.59,2.81-3.53,4.28,2-1,4.09-2.31,5.57-1.86-3.64,1.69-7.88,5.68-11.36,7,2-1.51,6.32-4.41,4.64-4.91-2.42,2.28-5.76,4.77-6.34,7.31a146.62,146.62,0,0,1,13.8-9.12l1.53-.86,1.47-.79,1.37-.69a10.61,10.61,0,0,0,1-.47,40.79,40.79,0,0,1,4-1.6,21.39,21.39,0,0,1,8.69-1.16,19.12,19.12,0,0,1,4.63,1,23.66,23.66,0,0,1,4.56,2.37,9.71,9.71,0,0,0-5.83-4,32.45,32.45,0,0,0-3.57-.69,23.15,23.15,0,0,1-3.2-.54c1.39,0,2.71.23,3.54-.67a12.53,12.53,0,0,0-4.59-.13,15.2,15.2,0,0,1-4.18.17,17.42,17.42,0,0,0,3.21-.76,7.47,7.47,0,0,1,3.24-.42,3.3,3.3,0,0,0-2.14-1.17c-.61-.16-1-.34-1.23-1.4-2.11,1.54-4.59,2-7.14,2.65a28.19,28.19,0,0,0-3.68,1.15,14.74,14.74,0,0,0-2,1,9.29,9.29,0,0,0-1.66,1.26c.58-.25,1.15-.47,1.35.28a9.37,9.37,0,0,0-3.3.81,5.65,5.65,0,0,0-2.91,2.31c1.62-.72,3.5-1.68,5.47-2.56,1-.44,2-.86,3-1.23a11.52,11.52,0,0,1,1.33-.4C141.55,160.06,142,160,142.33,159.9ZM286,146.7a14.83,14.83,0,0,0-5.25,3.79,13.5,13.5,0,0,1-4.53,3.47C280.29,153.38,285.45,146.92,286,146.7Zm26.28-18.42a5.35,5.35,0,0,0-1.16,1,3,3,0,0,1-.32.33l-.5.47-1,.94a14,14,0,0,1-4,2.89,36.7,36.7,0,0,0,5.57-3.15l2-1.27c.54-.35,1.06-.67,1.48-.89,1.41-.77,2.9-1.58,4.45-2.45a14,14,0,0,1,5.22-1.92,9.19,9.19,0,0,1,5.39,1.36c1.63.92,3.1,2.06,4.61,3.06l1.13.72.58.33,1.79,1c1.18.68,2.43,1.19,3.62,1.75a37.68,37.68,0,0,0,3.6,1.5l3.55,1.27c1.17.36,2.32.66,3.44,1,2.25.67,4.43,1,6.48,1.43-2.11-.56-4.29-1-6.54-1.81-1.12-.38-2.27-.72-3.43-1.15l-3.48-1.42c-1.18-.45-2.34-1.07-3.52-1.65s-2.37-1.14-3.51-1.87l-1.64-1-.49-.36-1.12-.85a51.37,51.37,0,0,0-4.73-3.52,9.43,9.43,0,0,0-5.69-1.55,15.61,15.61,0,0,0-6.41,2.59Zm47.77,9.63c1.68.11,3.19.32,4.58.49l4,.45a24.48,24.48,0,0,0,3.84.1c.66,0,1.33-.09,2-.18s1.4-.28,2.14-.48c-1-.56-4.57-.72-8.15-.82-1.81-.09-3.61,0-5.12,0A8.43,8.43,0,0,0,360.08,137.91ZM163.31,169.78c.75-.73-.22-.87.31-1.55a28.35,28.35,0,0,0-6.51-3.46,16.79,16.79,0,0,0-7.9-.62,21.73,21.73,0,0,0-3.93,1l-.94.37c-.31.14-.6.26-.91.38s-.88.44-1.32.63l-1.4.73a54.14,54.14,0,0,0-10.56,7.58c1.54-.62,3.22-1.85,4.8-2.69s3-1.29,4.13-.54c-3.47,2.25-6.91,4-10.27,5.89-1.68.93-3.36,1.92-5,3-.83.55-1.65,1.13-2.48,1.76-.4.3-.85.66-1.3,1s-.89.76-1.34,1.14c.78-.55,1.72-1.62,2.25-1.29,1,1.25-2.64,2.91-1.48,4.13a16.27,16.27,0,0,0,2.49-2.15,3.09,3.09,0,0,1,1.12-.73.66.66,0,0,1,.83.4c-.22.84-1.41,1.88-2.72,2.89a38.48,38.48,0,0,0-3.74,3c2.3-1.54,4.84-3.33,7.08-4.95s4.23-3,6.38-4.51c4.15-2.9,8.16-5.55,11.75-7.57l1.32-.72,1.27-.67,1.07-.51c.2-.08.38-.16.58-.26a16.76,16.76,0,0,1,2.38-.82,8,8,0,0,1,4.57.09c.94-1.06,2.66-.55,4,.4.7.47,1.31,1,1.93,1.39a3.28,3.28,0,0,0,.94.46,2.73,2.73,0,0,0,.46.08c.3.14.62.3.93.41-.19-.21-.41-.45-.6-.63s-.17-.17-.25-.26a4.89,4.89,0,0,0-.56-.46c-.39-.29-.82-.57-1.24-.84a3.21,3.21,0,0,1-1.64-2.21,3.8,3.8,0,0,1,3.69,1.56c.22.22.39.46.61.65s.21.17.89.73c.28.22.56.42.85.63l.22.15.36.3.82.62a39.41,39.41,0,0,0,3.4,2.27l-2.48-2.46c-.4-.4-.78-.8-1.16-1.19l-.38-.41-.27-.33c-.18-.21-.35-.42-.5-.63s-.34-.43-.32-.49A5,5,0,0,1,163.31,169.78ZM312.6,136c.36-.12.74-.27,1.13-.41.19-.08.39-.15.59-.25a2,2,0,0,1,.49-.17,4.83,4.83,0,0,0,1.11-.31,3.8,3.8,0,0,0,1.88-1.65c-.79.61-1.06-.05-1.43.87-.26-.51,0-.72-.38-1.34a8.82,8.82,0,0,1-1.58.94,1.91,1.91,0,0,0-.33.25c-.16.17-.33.32-.47.48A5.47,5.47,0,0,0,312.6,136Zm5.33-3.88c.69-.17,1.78-.12,2.54-.22s1.24-.46.8-1.64a3.33,3.33,0,0,1,2.71-.51,2.16,2.16,0,0,0,2.28-.54,4.27,4.27,0,0,0-2.27-.73,6.12,6.12,0,0,0-3.48,1.31A18.77,18.77,0,0,0,317.93,132.13Zm26.8,8.58a53.38,53.38,0,0,0-6.21-3.87l-2.22-1.23c-.77-.44-1.53-1-2.34-1.44l-.6-.38-.27-.17,0-.05-.2-.2a5.41,5.41,0,0,0-.53-.43,25.72,25.72,0,0,0-4.41-3,25.18,25.18,0,0,0,3.48,3.84c.28.21.53.42.8.64l.16.12.07.07,0,0,.26.16c.71.41,1.41.85,2.15,1.27A98.37,98.37,0,0,0,344.73,140.71Zm-33.37-3.35c-.51-1.07-1.52-.77-2.75.22C309.14,138.64,310.11,138.3,311.36,137.36Zm83.31,3.56a137.83,137.83,0,0,0,16.49-5.56c1.34-.62,2.66-1.23,3.94-1.88s2.4-1.31,3.57-2,2.21-1.41,3.24-2.16A32.63,32.63,0,0,0,424.8,127c-1.75,1.11-3.59,2.13-5.39,3.14l-2.77,1.44-1.4.72-1.48.69-3,1.35c-1,.44-2,.82-3,1.22-2,.83-4.09,1.49-6.16,2.19s-4.22,1.26-6.38,1.83-4.37,1.08-6.67,1.47a111.9,111.9,0,0,1-14.45,1.88c2.68,1.68,6.32,1.75,10,1A109.83,109.83,0,0,0,394.67,140.92ZM225.11,197.66c.65-.19,1.75-.43,3-.69s2.52-.67,3.66-1c2.21-.82,3.64-1.53,1.85-1.64-.12.3-.69.57-1.48.83s-1.84.4-2.85.63C227.22,196.19,225.22,196.57,225.11,197.66Zm-75.43-26.2c.82-.62.55,1.66.48,2.19a3,3,0,0,1,1.69-.53,3.64,3.64,0,0,0,1.75-.52c-.33-.34-.91-.24-1.44-.1a1.42,1.42,0,0,1-1.58-.31c.06-1,.8-.5.92-1.48C151,170.89,149.21,170.66,149.68,171.46ZM138.19,179c.77.37,2.19-.24,3.46-1a10.9,10.9,0,0,0,2.86-2.32C142,177.11,139.07,177,138.19,179ZM129.92,185a14.43,14.43,0,0,0-3.51,2.13,9.61,9.61,0,0,0-.86.74,5.7,5.7,0,0,0-.61.7c-.26.42-.2.69.44.67.15-.25,2.75-2.33,4.6-3.79S132.88,183.15,129.92,185Zm26.52-11.9c-.37.1-.69-1-1.13,0C155.26,173.92,155.89,173.92,156.44,173.13Zm-7.27-.13c.06.57-.49.7-.95.85s-.8.25-.26.55a2.26,2.26,0,0,1,1.11-.38,1,1,0,0,0,.88-.78C149.67,173.51,149.5,172.51,149.17,173Zm171.19-34c-.28.48-1.37.16-1.07,1.17C319.55,139.68,320.54,140.07,320.36,139Zm-4,4.65c-1.32,1.18-4.49,2.32-4.57,3.59C313.09,146,316.25,144.91,316.36,143.64ZM227.17,206.3l.16,1.33c2.72-.9,6.36-1.89,9.9-3.13s6.89-2.89,9-4.59c-1.7.77-3.47,1.43-5.21,2.1-.88.32-1.75.61-2.62.92l-1.28.44-1.28.38c-.85.26-1.67.5-2.45.75s-1.56.43-2.31.63C229.59,205.59,228.25,205.89,227.17,206.3Zm52.19-33.85a39.33,39.33,0,0,1-3.83,3.69c-.61.53-1.17,1.05-1.71,1.58l-1.34,1.36c-.51.53-1,1.07-1.48,1.62a7.7,7.7,0,0,0,1.62-.89c.3-.2.64-.44,1-.7l.54-.41.29-.19a13.69,13.69,0,0,0,2.22-1.9C278.09,175.18,279.23,173.49,279.36,172.45Zm176.86-55.7c3.55-3.5,7.2-7,9.16-10.08-1.79-.18-3.64,1.61-5.34,3.87-.82,1.12-1.62,2.33-2.3,3.45S456.56,116.07,456.22,116.75Zm-61.58-30.1c.25-.63-.91-.86,1.13-1.79a1.34,1.34,0,0,1-.3,1.28c.36.4.95-.18,1.47-.45.14,1.15-2.5,1.83-3.47,2.71,1.43-1.64-.38-1.09-1.69-.64-.66.25-1.2.49-1.17.46a3.07,3.07,0,0,0,.48-.19l1.69-.78C392.9,87.23,393.65,85.78,394.64,86.65ZM52.74,205.13a19.56,19.56,0,0,0-3.21,4.2C47.87,210,51.57,204.29,52.74,205.13Zm78.89-52.32c-.07,0,1-.22.22.4a39.36,39.36,0,0,1-5.68,3.37c-1.29.6-1.35.28,1.85-1.69A22,22,0,0,1,131.63,152.81ZM63.76,240.53c-.17-.22.27-.91.81-1.74A17.67,17.67,0,0,0,66,236.12C67.21,237.15,64.63,239.38,63.76,240.53Zm16.33-45.47c2.34-.89-.59,2-1.56,2.79.62.74,1.68-1.41,2.52-1.86,0,.54,0,1.07.64.62-1.22.72-5.43,6.12-6.44,3.25-.43.31-.28.54-.1.74C74,199,78.3,198.72,80.09,195.06Z"/></clipPath><linearGradient id="Dégradé_sans_nom_2" x1="-32.2" y1="1040.42" x2="242.49" y2="1040.42" gradientTransform="matrix(1.6, -0.47, -0.46, -1.55, 546.07, 1802.57)" gradientUnits="userSpaceOnUse"><stop offset="0" stop-color="#aeb4dc"/><stop offset="0" stop-color="#aeb2db"/><stop offset="0.01" stop-color="#afb1da"/><stop offset="0.01" stop-color="#afb0d9"/><stop offset="0.02" stop-color="#afafd8"/><stop offset="0.02" stop-color="#b0aed7"/><stop offset="0.02" stop-color="#afacd6"/><stop offset="0.03" stop-color="#b0acd6"/><stop offset="0.03" stop-color="#b1acd6"/><stop offset="0.04" stop-color="#b0a9d4"/><stop offset="0.04" stop-color="#b1a8d3"/><stop offset="0.04" stop-color="#b0a7d3"/><stop offset="0.05" stop-color="#b1a6d2"/><stop offset="0.05" stop-color="#b1a6d1"/><stop offset="0.05" stop-color="#b1a4d0"/><stop offset="0.06" stop-color="#b1a3d0"/><stop offset="0.06" stop-color="#b0a2cf"/><stop offset="0.07" stop-color="#b0a1ce"/><stop offset="0.07" stop-color="#b19fcd"/><stop offset="0.07" stop-color="#b09ecd"/><stop offset="0.08" stop-color="#b09dcc"/><stop offset="0.08" stop-color="#b09ccb"/><stop offset="0.09" stop-color="#b09bca"/><stop offset="0.09" stop-color="#b099c9"/><stop offset="0.09" stop-color="#b099c9"/><stop offset="0.1" stop-color="#b098c8"/><stop offset="0.1" stop-color="#b096c7"/><stop offset="0.11" stop-color="#b095c6"/><stop offset="0.11" stop-color="#b195c6"/><stop offset="0.11" stop-color="#b194c5"/><stop offset="0.12" stop-color="#b193c5"/><stop offset="0.12" stop-color="#b193c4"/><stop offset="0.13" stop-color="#b190c2"/><stop offset="0.13" stop-color="#b18fc2"/><stop offset="0.13" stop-color="#b18fc1"/><stop offset="0.14" stop-color="#b18dc0"/><stop offset="0.14" stop-color="#b18dc0"/><stop offset="0.14" stop-color="#b18cbf"/><stop offset="0.15" stop-color="#b18abe"/><stop offset="0.15" stop-color="#b189bd"/><stop offset="0.16" stop-color="#b188bd"/><stop offset="0.16" stop-color="#b287bc"/><stop offset="0.16" stop-color="#b287bc"/><stop offset="0.17" stop-color="#b285ba"/><stop offset="0.17" stop-color="#b284ba"/><stop offset="0.18" stop-color="#b283b9"/><stop offset="0.18" stop-color="#b382b8"/><stop offset="0.18" stop-color="#b382b8"/><stop offset="0.19" stop-color="#b381b8"/><stop offset="0.19" stop-color="#b380b7"/><stop offset="0.2" stop-color="#b47eb6"/><stop offset="0.2" stop-color="#b47eb6"/><stop offset="0.2" stop-color="#b47eb5"/><stop offset="0.21" stop-color="#b47db5"/><stop offset="0.21" stop-color="#b37ab3"/><stop offset="0.21" stop-color="#b47ab3"/><stop offset="0.22" stop-color="#b479b2"/><stop offset="0.22" stop-color="#b478b1"/><stop offset="0.23" stop-color="#b577b1"/><stop offset="0.23" stop-color="#b476b0"/><stop offset="0.23" stop-color="#b474af"/><stop offset="0.24" stop-color="#b574ae"/><stop offset="0.24" stop-color="#b473ae"/><stop offset="0.25" stop-color="#b572ad"/><stop offset="0.25" stop-color="#b472ad"/><stop offset="0.25" stop-color="#b56fac"/><stop offset="0.26" stop-color="#b66fab"/><stop offset="0.26" stop-color="#b66eab"/><stop offset="0.27" stop-color="#b66caa"/><stop offset="0.27" stop-color="#b66ba9"/><stop offset="0.27" stop-color="#b76ca9"/><stop offset="0.28" stop-color="#b76aa8"/><stop offset="0.28" stop-color="#b669a7"/><stop offset="0.29" stop-color="#b868a7"/><stop offset="0.29" stop-color="#b867a6"/><stop offset="0.29" stop-color="#b867a6"/><stop offset="0.3" stop-color="#b966a5"/><stop offset="0.3" stop-color="#b964a4"/><stop offset="0.3" stop-color="#b963a4"/><stop offset="0.31" stop-color="#b962a3"/><stop offset="0.31" stop-color="#ba63a3"/><stop offset="0.32" stop-color="#ba62a3"/><stop offset="0.32" stop-color="#ba60a2"/><stop offset="0.32" stop-color="#ba60a2"/><stop offset="0.33" stop-color="#ba5fa1"/><stop offset="0.33" stop-color="#bc5ea0"/><stop offset="0.34" stop-color="#bc5da0"/><stop offset="0.34" stop-color="#bc5da0"/><stop offset="0.34" stop-color="#bc5c9f"/><stop offset="0.35" stop-color="#bc5b9e"/><stop offset="0.35" stop-color="#be599d"/><stop offset="0.36" stop-color="#be599d"/><stop offset="0.36" stop-color="#be589d"/><stop offset="0.36" stop-color="#bf579c"/><stop offset="0.37" stop-color="#bf569c"/><stop offset="0.37" stop-color="#bf559b"/><stop offset="0.38" stop-color="#c1559b"/><stop offset="0.38" stop-color="#c1559b"/><stop offset="0.38" stop-color="#c2549a"/><stop offset="0.39" stop-color="#c1539a"/><stop offset="0.39" stop-color="#c2539a"/><stop offset="0.39" stop-color="#c45299"/><stop offset="0.4" stop-color="#c35299"/><stop offset="0.4" stop-color="#c55098"/><stop offset="0.41" stop-color="#c55098"/><stop offset="0.41" stop-color="#c54f97"/><stop offset="0.41" stop-color="#c74e97"/><stop offset="0.42" stop-color="#c74e97"/><stop offset="0.42" stop-color="#c84d96"/><stop offset="0.43" stop-color="#c84c96"/><stop offset="0.43" stop-color="#c84c96"/><stop offset="0.43" stop-color="#ca4b95"/><stop offset="0.44" stop-color="#cb4b95"/><stop offset="0.44" stop-color="#cc4a95"/><stop offset="0.45" stop-color="#cd4a95"/><stop offset="0.45" stop-color="#ce4994"/><stop offset="0.45" stop-color="#ce4994"/><stop offset="0.46" stop-color="#cf4894"/><stop offset="0.46" stop-color="#d04894"/><stop offset="0.46" stop-color="#d04793"/><stop offset="0.47" stop-color="#d24793"/><stop offset="0.47" stop-color="#d34692"/><stop offset="0.48" stop-color="#d44592"/><stop offset="0.48" stop-color="#d64592"/><stop offset="0.48" stop-color="#d54592"/><stop offset="0.49" stop-color="#d64491"/><stop offset="0.49" stop-color="#d84491"/><stop offset="0.5" stop-color="#d84391"/><stop offset="0.5" stop-color="#d94190"/><stop offset="0.5" stop-color="#d94190"/><stop offset="0.51" stop-color="#db4190"/><stop offset="0.51" stop-color="#dc4090"/><stop offset="0.52" stop-color="#dd4090"/><stop offset="0.52" stop-color="#de4090"/><stop offset="0.52" stop-color="#de4090"/><stop offset="0.53" stop-color="#df4090"/><stop offset="0.53" stop-color="#df4090"/><stop offset="0.54" stop-color="#e1408f"/><stop offset="0.54" stop-color="#e2408f"/><stop offset="0.54" stop-color="#e2408f"/><stop offset="0.55" stop-color="#e4408f"/><stop offset="0.55" stop-color="#e44190"/><stop offset="0.55" stop-color="#e64190"/><stop offset="0.56" stop-color="#e64290"/><stop offset="0.56" stop-color="#e74190"/><stop offset="0.57" stop-color="#e74290"/><stop offset="0.57" stop-color="#e94491"/><stop offset="0.57" stop-color="#e94391"/><stop offset="0.58" stop-color="#e94391"/><stop offset="0.58" stop-color="#e94591"/><stop offset="0.59" stop-color="#e94692"/><stop offset="0.59" stop-color="#e94692"/><stop offset="0.59" stop-color="#e94793"/><stop offset="0.6" stop-color="#e94793"/><stop offset="0.6" stop-color="#e94793"/><stop offset="0.61" stop-color="#ea4993"/><stop offset="0.61" stop-color="#ea4993"/><stop offset="0.61" stop-color="#ea4b94"/><stop offset="0.62" stop-color="#ea4c95"/><stop offset="0.62" stop-color="#ea4c95"/><stop offset="0.63" stop-color="#ea4e95"/><stop offset="0.63" stop-color="#ea4f95"/><stop offset="0.63" stop-color="#ea5095"/><stop offset="0.64" stop-color="#ea5194"/><stop offset="0.64" stop-color="#ea5393"/><stop offset="0.64" stop-color="#ea5493"/><stop offset="0.65" stop-color="#eb5793"/><stop offset="0.65" stop-color="#eb5792"/><stop offset="0.66" stop-color="#eb5a93"/><stop offset="0.66" stop-color="#eb5c92"/><stop offset="0.66" stop-color="#eb5c92"/><stop offset="0.67" stop-color="#eb5d91"/><stop offset="0.67" stop-color="#eb5e90"/><stop offset="0.68" stop-color="#ec5f90"/><stop offset="0.68" stop-color="#ec6290"/><stop offset="0.68" stop-color="#ec638f"/><stop offset="0.69" stop-color="#ec648e"/><stop offset="0.69" stop-color="#ec668f"/><stop offset="0.7" stop-color="#ed678d"/><stop offset="0.7" stop-color="#ed698e"/><stop offset="0.7" stop-color="#ed6b8d"/><stop offset="0.71" stop-color="#ed6c8d"/><stop offset="0.71" stop-color="#ed6e8c"/><stop offset="0.71" stop-color="#ee708b"/><stop offset="0.72" stop-color="#ee708b"/><stop offset="0.72" stop-color="#ee738a"/><stop offset="0.73" stop-color="#ee758a"/><stop offset="0.73" stop-color="#ee7689"/><stop offset="0.73" stop-color="#ee7889"/><stop offset="0.74" stop-color="#ef7987"/><stop offset="0.74" stop-color="#ef7b88"/><stop offset="0.75" stop-color="#ef7c87"/><stop offset="0.75" stop-color="#ef7d86"/><stop offset="0.75" stop-color="#ef7e85"/><stop offset="0.76" stop-color="#f08085"/><stop offset="0.76" stop-color="#f08285"/><stop offset="0.77" stop-color="#f08384"/><stop offset="0.77" stop-color="#f08584"/><stop offset="0.77" stop-color="#f08683"/><stop offset="0.78" stop-color="#f18983"/><stop offset="0.78" stop-color="#f18b83"/><stop offset="0.79" stop-color="#f18c82"/><stop offset="0.79" stop-color="#f28e81"/><stop offset="0.79" stop-color="#f28f81"/><stop offset="0.8" stop-color="#f29081"/><stop offset="0.8" stop-color="#f29380"/><stop offset="0.8" stop-color="#f2947f"/><stop offset="0.81" stop-color="#f3957e"/><stop offset="0.81" stop-color="#f3977f"/><stop offset="0.82" stop-color="#f3997e"/><stop offset="0.82" stop-color="#f49b7d"/><stop offset="0.82" stop-color="#f49d7d"/><stop offset="0.83" stop-color="#f49f7c"/><stop offset="0.83" stop-color="#f4a07c"/><stop offset="0.84" stop-color="#f5a27b"/><stop offset="0.84" stop-color="#f5a27a"/><stop offset="0.84" stop-color="#f5a57a"/><stop offset="0.85" stop-color="#f5a77a"/><stop offset="0.85" stop-color="#f6a879"/><stop offset="0.86" stop-color="#f6a978"/><stop offset="0.86" stop-color="#f6ac78"/><stop offset="0.86" stop-color="#f7ad78"/><stop offset="0.87" stop-color="#f7b078"/><stop offset="0.87" stop-color="#f8b276"/><stop offset="0.88" stop-color="#f8b276"/><stop offset="0.88" stop-color="#f8b575"/><stop offset="0.88" stop-color="#f9b675"/><stop offset="0.89" stop-color="#f9b774"/><stop offset="0.89" stop-color="#f9ba73"/><stop offset="0.89" stop-color="#fabb72"/><stop offset="0.9" stop-color="#fabc71"/><stop offset="0.9" stop-color="#fabe71"/><stop offset="0.91" stop-color="#fbc06f"/><stop offset="0.91" stop-color="#fbc170"/><stop offset="0.91" stop-color="#fbc36f"/><stop offset="0.92" stop-color="#fcc570"/><stop offset="0.92" stop-color="#fcc770"/><stop offset="0.93" stop-color="#fcc96e"/><stop offset="0.93" stop-color="#fdca6f"/><stop offset="0.93" stop-color="#fdcc6c"/><stop offset="0.94" stop-color="#fece6d"/><stop offset="0.94" stop-color="#fecf6b"/><stop offset="0.95" stop-color="#fed26b"/><stop offset="0.95" stop-color="#ffd46b"/><stop offset="0.95" stop-color="#ffd46b"/><stop offset="0.96" stop-color="#ffd769"/><stop offset="0.96" stop-color="#ffd868"/><stop offset="0.96" stop-color="#fed968"/><stop offset="0.97" stop-color="#fedb66"/><stop offset="0.97" stop-color="#fedd67"/><stop offset="0.98" stop-color="#fede67"/><stop offset="0.98" stop-color="#fee066"/><stop offset="0.98" stop-color="#fee165"/><stop offset="0.99" stop-color="#fee364"/><stop offset="0.99" stop-color="#ffe663"/><stop offset="1" stop-color="#ffe762"/><stop offset="1" stop-color="#ffe963"/></linearGradient></defs><g class="cls-2"><g id="Calque_2" data-name="Calque 2"><g id="Calque_1-2" data-name="Calque 1"><g class="cls-3"><g class="cls-4"><path class="cls-5" d="M0,140.36,37,265.71,477.49,135.88,440.55,10.53Z" transform="translate(-0.04)"/></g></g><path class="cls-6" d="M333.81,142.81c1.82-4.5-8.51-19.78-28.5-26.95S283,97.32,260.39,96.13s-36.51,14.14-14.55,23.46,52.83,24.56,66.87,28.37C327,151.84,332,147.31,333.81,142.81Z" transform="translate(-0.04)"/><path class="cls-6" d="M132.63,167.69c-6.24-8.46-1.94-17.58,12.82-31.75s14.24-29.09,34.13-38.82,32.09,7,16.55,23.82-31.75,33.67-42.69,42.51C142.31,172.44,135.57,171.68,132.63,167.69Z" transform="translate(-0.04)"/><path class="cls-7" d="M219.89,280.37c17.34,1.89,65.48,2.59,61.92-18.65-5.67-33.8-27.27-55.71-27.32-67.38s-25.39-22.12-25.39-22.12-17.47,6.1-25.34,23-18.64,51.59-23.7,73.18C176.61,283.17,208.43,279.13,219.89,280.37Z" transform="translate(-0.04)"/><path class="cls-7" d="M201.28,244.88c40.8-9.23,33.7,53.07,32,81.27s6.06,78.25-2,84.28-31.46,6.82-34.87-7.49-19.66-93.36-17.28-125.38S188.82,247.7,201.28,244.88Z" transform="translate(-0.04)"/><path class="cls-8" d="M239.39,474.14c2,19.87,4.42,38.41,6.46,46.46,4.64,18.33,5.77,29.08,5.77,29.08L238.2,552s-1.62-9-11.59-37.84c-5.51-15.92-12.25-28.15-17.81-40Z" transform="translate(-0.04)"/><path class="cls-7" d="M222.12,525.32l-1.3-3.78c-10-28.81-18.19-52.92-21.92-77.24-1.45-9.49-3.5-29.22-2-39.62,2-13.52,8.83-16.92,17.51-19.72,18-5.81,21.52,6.55,20.85,25.68-.65,18.3,5.35,85.47,9.93,107.29Z" transform="translate(-0.04)"/><path class="cls-8" d="M261.44,581.11A13.15,13.15,0,0,0,261,576c-1.7-5.5-8.74-25.5-10.66-36.1s-5-15.95-5-15.95l-9.09,4.78s-6.57,34.95-5.58,45.69a13.58,13.58,0,0,0,2.58,6.69Z" transform="translate(-0.04)"/><path class="cls-9" d="M263.17,581.11c.08-1.77.93-5.44-2.56-11.18-9-14.77-41.14-3.14-28.26,11.18Z" transform="translate(-0.04)"/><path class="cls-7" d="M259.21,242.09c-41.77-4.39-25.88,56.57-20.21,84.33s7.21,74.51,16.08,79.55,32.6,13.29,33.94-1.29,3.81-99-3.1-130.52S272,243.43,259.21,242.09Z" transform="translate(-0.04)"/><path class="cls-8" d="M274.29,474.14c5.5,19.69,10.14,38.35,11.19,46.69,2.34,18.68,3.31,29.43,3.31,29.43l15.4-2.14s-1.78-9-2.93-39.17c-.5-13.14.56-24.35,1.47-34.81Z" transform="translate(-0.04)"/><path class="cls-7" d="M306.3,517.55c-.13-2.76-.27-5.75-.39-9-1.15-30.18,1.28-49.79-4.12-73.86-3.74-16.68-15.64-60.14-27.5-69.06-3.48-2.62-5.22,17.79-8.91,17.78-19.09-.06-17.9,12.67-10.26,30.5,7.29,17,21.79,85.46,25.55,107.61Z" transform="translate(-0.04)"/><path class="cls-8" d="M275.07,581.11a13.23,13.23,0,0,1,.48-6.09c1.83-5.47,9.31-25.34,11.47-35.9S293.28,524,293.28,524l7.47-.06s6.44,39.33,5.21,50a13.76,13.76,0,0,1-3.09,7.12Z" transform="translate(-0.04)"/><path class="cls-9" d="M275,581.11c-2.52-2.65-.32-7.45.36-9.21,10.38-15.17,31.14-2.06,31.14-2.06,1.54,3.74-.07,8.62-1.86,11.27Z" transform="translate(-0.04)"/><path class="cls-8" d="M222.21,123c-15.73-4.15-25.43-14.66-30.56-27.37,16.79-7.07,39.55-9.37,39.55-9.37s17.93,2.56,33.52,8.48C262.59,111.8,242.07,126.12,222.21,123Z" transform="translate(-0.04)"/><rect class="cls-10" x="199.31" y="92.31" width="59.5" height="110.67" transform="translate(458.07 295.29) rotate(180)"/><path class="cls-10" d="M207.35,194.06a77.18,77.18,0,0,0,19,2.22,78.36,78.36,0,0,0,18.07-2v11.18a82,82,0,0,1-37-.22Z" transform="translate(-0.04)"/><path class="cls-6" d="M237.2,196.64c.55-29-.06-59.31,7.23-80.49,6-17.58,3.59-25.85-1.32-29.6,14.32,3.25,36.65,8.89,37.93,9.92,15.62,12.59-25.36,62.77-9,125.3,1.24,4.77-18.47,10.94-27.93,6-5.06-2.65-7.3-22-6.54-27.49A6.82,6.82,0,0,0,237.2,196.64Z" transform="translate(-0.04)"/><path class="cls-6" d="M180.85,96.86c9.72-6.93,23-7.83,31.29-9.57,2.37-.49,4.53-.94,6.49-1.32-19.61,12.09-4.35,95.76-5.19,127.54,0,4.06,1.13,9.28-3.12,12.78-6.73,5.53-21.62-3.78-21.62-3.78,8.38-29.7,1.19-74.47-4.17-88.5C180.23,122.76,171.12,103.79,180.85,96.86Z" transform="translate(-0.04)"/><path class="cls-9" d="M275.18,54.4a3.81,3.81,0,0,1-2.52,2.65,3.42,3.42,0,0,1,.4,2.55,3.83,3.83,0,0,1-2.61,2.68,3.43,3.43,0,0,1,.93,3.24,3.94,3.94,0,0,1-3.4,2.86,3.39,3.39,0,0,1,.39,2.52,4.12,4.12,0,0,1-4.88,2.82c-.11,0-.21-.07-.32-.1a3.32,3.32,0,0,1,.2,2.18,4,4,0,0,1-4.05,2.91,3.4,3.4,0,0,1,.45,2.63,4.24,4.24,0,0,1-6.62,2,4.12,4.12,0,0,1-4.87,2.79,4.22,4.22,0,0,1-2-1,3.85,3.85,0,0,1-.08.58,4.27,4.27,0,0,1-7,1.75c0,.06,0,.11,0,.16a4.12,4.12,0,0,1-4.88,2.82,4,4,0,0,1-2.81-2.06,4.21,4.21,0,0,1-4.54,2,4,4,0,0,1-2.94-2.3,4.31,4.31,0,0,1-4.23,1.5,4,4,0,0,1-2.74-1.92,4.35,4.35,0,0,1-3.8,1,3.73,3.73,0,0,1-3.13-4.3,4.32,4.32,0,0,1-3.95,1.2,3.73,3.73,0,0,1-3.11-4.43,4.43,4.43,0,0,1,.17-.47,4.17,4.17,0,0,1-1.36,0,3.91,3.91,0,0,1-3.14-2.93,4.48,4.48,0,0,1-2.31.15,3.71,3.71,0,0,1-3.11-4.42,3.61,3.61,0,0,1,.71-1.41H194a3.9,3.9,0,0,1-3.12-2.91,4.52,4.52,0,0,1-2.51.23,3.72,3.72,0,0,1-3.11-4.42,3.83,3.83,0,0,1,2.42-2.62,3.53,3.53,0,0,1-.85-6.28,3.63,3.63,0,0,1-2.41-4.21,3.74,3.74,0,0,1,1.81-2.34,3.54,3.54,0,0,1-1.83-3.93A3.8,3.8,0,0,1,186.8,43a3.64,3.64,0,0,1-2.45-4.22,3.85,3.85,0,0,1,2.4-2.61,3.43,3.43,0,0,1-.9-3.21,4.12,4.12,0,0,1,4.88-2.82,1.66,1.66,0,0,1,.21.06,3.4,3.4,0,0,1,.08-.63,3.71,3.71,0,0,1,.76-1.46,3.5,3.5,0,0,1-1.32-3.58,4.12,4.12,0,0,1,4.88-2.82,4.24,4.24,0,0,1,1.39.54,2.6,2.6,0,0,1,.05-.39A4.12,4.12,0,0,1,201.66,19a4.6,4.6,0,0,1,1.06.38A4.28,4.28,0,0,1,209.24,18a4.22,4.22,0,0,1,4.55-2,3.72,3.72,0,0,1,3.11,4.42c0,.08-.06.15-.08.22l33.56,7.06a4.14,4.14,0,0,1,4.76-2.5,4.27,4.27,0,0,1,1.32.51,4.39,4.39,0,0,1,3.29-.64,3.91,3.91,0,0,1,3.1,2.81,4.41,4.41,0,0,1,2.48-.22,3.72,3.72,0,0,1,3.11,4.42,2.31,2.31,0,0,1-.1.28,4.44,4.44,0,0,1,2.24-.13,3.72,3.72,0,0,1,3.11,4.42,3.63,3.63,0,0,1-.8,1.5,3.66,3.66,0,0,1,2.72,4.3,3.74,3.74,0,0,1-2.06,2.45,3.67,3.67,0,0,1,2.6,4.27,3.73,3.73,0,0,1-1.68,2.24A3.38,3.38,0,0,1,275.18,54.4Z" transform="translate(-0.04)"/><path class="cls-9" d="M190,33.15a3.38,3.38,0,0,1,2.18-2.42,3,3,0,0,1-.43-2.26A3.41,3.41,0,0,1,194,26a3.09,3.09,0,0,1-.91-2.87A3.49,3.49,0,0,1,196,20.54a3,3,0,0,1-.41-2.23,3.63,3.63,0,0,1,4.26-2.61,2.06,2.06,0,0,1,.29.07,3,3,0,0,1-.23-1.93,3.56,3.56,0,0,1,3.53-2.68A3,3,0,0,1,203,8.83a3.66,3.66,0,0,1,4.27-2.62,3.82,3.82,0,0,1,1.58.68,3.65,3.65,0,0,1,4.25-2.59,3.81,3.81,0,0,1,1.81.85,2.29,2.29,0,0,1,0-.52A3.63,3.63,0,0,1,219.21,2a3.77,3.77,0,0,1,1.89.91.61.61,0,0,1,0-.14A3.65,3.65,0,0,1,225.38.16a3.61,3.61,0,0,1,2.55,1.77,3.74,3.74,0,0,1,4-1.87,3.59,3.59,0,0,1,2.68,2A3.82,3.82,0,0,1,238.33.62a3.61,3.61,0,0,1,2.48,1.65,3.85,3.85,0,0,1,3.36-1A3.35,3.35,0,0,1,247.07,5a3.82,3.82,0,0,1,3.48-1.15,3.33,3.33,0,0,1,2.89,3.87,3.45,3.45,0,0,1-.14.42,4.09,4.09,0,0,1,1.21,0,3.49,3.49,0,0,1,2.87,2.55,3.86,3.86,0,0,1,2.06-.19,3.34,3.34,0,0,1,2.89,3.87,3.26,3.26,0,0,1-.61,1.27h.06a3.51,3.51,0,0,1,2.86,2.52,3.87,3.87,0,0,1,2.22-.26,3.22,3.22,0,0,1,.8,6.25,3.25,3.25,0,0,1,2.17,3.68,3.17,3.17,0,0,1-1.25,1.89,3.26,3.26,0,0,1,2.26,3.7,3.33,3.33,0,0,1-1.54,2.12A3.19,3.19,0,0,1,271,39,3.36,3.36,0,0,1,269,41.41a3.27,3.27,0,0,1,2.29,3.71,3.38,3.38,0,0,1-2.07,2.37,3.08,3.08,0,0,1,.89,2.84A3.65,3.65,0,0,1,265.8,53l-.19-.06a2.75,2.75,0,0,1-.05.57,3.21,3.21,0,0,1-.64,1.31,3.15,3.15,0,0,1,1.27,3.16,3.64,3.64,0,0,1-4.27,2.62,3.88,3.88,0,0,1-1.25-.45c0,.11,0,.23,0,.35a3.65,3.65,0,0,1-4.27,2.62,4.07,4.07,0,0,1-1-.31,3.81,3.81,0,0,1-5.77,1.36,3.76,3.76,0,0,1-4,1.87,3.34,3.34,0,0,1-2.89-3.87c0-.07.05-.13.07-.2l-30.06-5.55a3.67,3.67,0,0,1-4.17,2.33,3.84,3.84,0,0,1-1.19-.43,3.89,3.89,0,0,1-2.91.65,3.49,3.49,0,0,1-2.83-2.44,4,4,0,0,1-2.2.25,3.34,3.34,0,0,1-2.89-3.87c0-.09.06-.17.08-.25a4,4,0,0,1-2,.17,3.34,3.34,0,0,1-2.89-3.87,3.18,3.18,0,0,1,.67-1.35,3.29,3.29,0,0,1-2.54-3.77,3.33,3.33,0,0,1,1.78-2.23,3.27,3.27,0,0,1-2.43-3.74,3.24,3.24,0,0,1,1.43-2A3,3,0,0,1,190,33.15Z" transform="translate(-0.04)"/><path class="cls-10" d="M217,96.53c-3.09-4.47-13.13,7.33-13.13,7.33s2.46-27.36,25.35-26c32.41,2,27.91,30.74,27.91,30.74s-5.65-13.38-17.46-6.18S217,96.53,217,96.53Z" transform="translate(-0.04)"/><path class="cls-8" d="M244,96.73c-1.68,8.63-11.38,17.56-16.47,16.55-7.25-1.45-12.71-13.52-11-22.15s6.93-11.82,17.3-10C245.61,83.17,245.68,88.09,244,96.73Z" transform="translate(-0.04)"/><path class="cls-8" d="M218,70.68c.05-6.32,5.74-11.4,12.71-11.35s12.58,5.21,12.52,11.52c0,1.55-.06,20.12-.07,21.66,0,6.32-5.74,11.4-12.71,11.35s-12.58-5.2-12.52-11.52C218,90.84,218,72.23,218,70.68Z" transform="translate(-0.04)"/><path class="cls-11" d="M218,73.85V70.77c0-6.32,5.65-11.44,12.62-11.44s12.61,5.12,12.61,11.44V80c0,.36,0,.71-.05,1.06a23.55,23.55,0,0,1-7.48,1.22A22.14,22.14,0,0,1,218,73.85Z" transform="translate(-0.04)"/><path class="cls-12" d="M203.23,37.52a4.35,4.35,0,0,1,3.61-5.2,4.83,4.83,0,0,1,5.74,3.28c.14.57.67,2.66.81,3.23A4.36,4.36,0,0,1,209.77,44,4.82,4.82,0,0,1,204,40.76C203.9,40.2,203.37,38.1,203.23,37.52Z" transform="translate(-0.04)"/><path class="cls-13" d="M204.76,37.29a3,3,0,0,1,2.45-3.52A3.26,3.26,0,0,1,211.09,36l.54,2.19a2.93,2.93,0,0,1-2.44,3.51,3.26,3.26,0,0,1-3.88-2.21C205.21,39.1,204.86,37.68,204.76,37.29Z" transform="translate(-0.04)"/><path class="cls-12" d="M259.65,47.79a4.1,4.1,0,0,0-1.12-6.06,5.12,5.12,0,0,0-6.69,1l-2.13,2.71a4.09,4.09,0,0,0,1.12,6.06,5.12,5.12,0,0,0,6.69-1Z" transform="translate(-0.04)"/><path class="cls-13" d="M258.33,47a2.77,2.77,0,0,0-.76-4.1,3.45,3.45,0,0,0-4.52.69l-1.44,1.82a2.77,2.77,0,0,0,.76,4.1,3.45,3.45,0,0,0,4.52-.68Z" transform="translate(-0.04)"/><path class="cls-8" d="M209.53,34.47c1.62-12.5,14.63-20.84,28-18.31,12.61,2.39,20.55,13.82,18,25.28,0,0-3.71,16.58-3.88,17.14-1.57,6.43-14.63,20.86-28,18.31-11.7-2.24-19.51-18.23-18-25.28l3.42-15.44C209.19,35.59,209.36,35,209.53,34.47Z" transform="translate(-0.04)"/><path class="cls-9" d="M226.36,42.23a.6.6,0,0,0,.45-.08.53.53,0,0,0,.18-.77,7.36,7.36,0,0,0-9.57-1.74.52.52,0,0,0-.17.77.65.65,0,0,0,.85.15A6,6,0,0,1,226,42,.59.59,0,0,0,226.36,42.23Z" transform="translate(-0.04)"/><path class="cls-9" d="M245,45.63a.65.65,0,0,0,.45-.08.52.52,0,0,0,.17-.77A7.34,7.34,0,0,0,236.09,43a.52.52,0,0,0-.17.77.66.66,0,0,0,.85.15,6,6,0,0,1,7.86,1.43A.6.6,0,0,0,245,45.63Z" transform="translate(-0.04)"/><path class="cls-9" d="M210.17,38.49v-.05A.43.43,0,0,1,210.17,38.49Z" transform="translate(-0.04)"/><path class="cls-9" d="M252.69,46.17v0S252.67,46.2,252.69,46.17Z" transform="translate(-0.04)"/><path class="cls-9" d="M218.58,42.45a1.46,1.46,0,0,0,1.25,1.7A1.6,1.6,0,0,0,221.7,43a1.46,1.46,0,0,0-1.25-1.7A1.59,1.59,0,0,0,218.58,42.45Z" transform="translate(-0.04)"/><path class="cls-9" d="M236.87,46a1.45,1.45,0,0,0,1.24,1.7A1.59,1.59,0,0,0,240,46.59a1.45,1.45,0,0,0-1.24-1.7A1.6,1.6,0,0,0,236.87,46Z" transform="translate(-0.04)"/><path class="cls-14" d="M218.82,60.48c-1-.17-1.46-1-.74-1.34a16,16,0,0,1,9.84-1.33,15.17,15.17,0,0,1,8.71,4.37c.53.58-.2,1.18-1.21,1Z" transform="translate(-0.04)"/><path class="cls-14" d="M219.13,59c-1-.16-1.82.79-1.33,1.6a12,12,0,0,0,8.42,5.78,12.94,12.94,0,0,0,10.12-2.74,1.08,1.08,0,0,0-.62-1.92Z" transform="translate(-0.04)"/><path class="cls-10" d="M219.55,59.06c-1-.16-1.69.64-1.22,1.34a11.85,11.85,0,0,0,8,5.05,12.7,12.7,0,0,0,9.45-2.18c.71-.51.33-1.49-.62-1.65Z" transform="translate(-0.04)"/><path class="cls-9" d="M211.23,28l-1.88-6.49,11.25-10.1,17.2.56s22.43,6.37,22.61,6.4,5.84,12.35,5.84,12.35l-7.13,9.9a2.8,2.8,0,0,1,.84,2.59,3.3,3.3,0,0,1-3.85,2.36,3,3,0,0,1-2.6-3.49,2.94,2.94,0,0,1,1.28-1.82,3.54,3.54,0,0,1-3-4.1,3.45,3.45,0,0,1,1.4-2.07,2.84,2.84,0,0,1-1.14-2.85,2.7,2.7,0,0,1,.31-.77,4.32,4.32,0,0,1-1.76.08,3.56,3.56,0,0,1-3.07-4.13,2.47,2.47,0,0,1,.15-.46,3.47,3.47,0,0,1-1.73.13,3.23,3.23,0,0,1-2.14-1.33,4,4,0,0,1-4.39,2.3h0s0,.08,0,.12a3.84,3.84,0,0,1-4.5,2.76c-.14,0-.26-.07-.39-.1a3.21,3.21,0,0,1,0,1.45,3.84,3.84,0,0,1-4.5,2.76A3.51,3.51,0,0,1,227,30c0-.05,0-.09,0-.14a4.11,4.11,0,0,1-2.72.46,3.59,3.59,0,0,1-3.11-3.4,4.44,4.44,0,0,1-1.26,0,3.37,3.37,0,0,1-.34-.1,2.31,2.31,0,0,1-.05.46,3.24,3.24,0,0,1-3.8,2.34,3.49,3.49,0,0,1-.38-.1,3.19,3.19,0,0,1,.55,2.55,3.83,3.83,0,0,1-4.5,2.76,3.51,3.51,0,0,1-3-4.08A3.64,3.64,0,0,1,211.23,28Z" transform="translate(-0.04)"/><path class="cls-8" d="M264.2,77.11c16.85,24.35,34,54.19,48.37,64s21.65,5,21.1-2.89c-1-14.65-37.87-44.81-58.16-63.57C253.73,54.51,264.2,77.11,264.2,77.11Z" transform="translate(-0.04)"/><path class="cls-8" d="M187.52,208.42c-16.39-17.27-28.76-41.92-40.11-48.51s-15.58-.86-15,5.63c1.14,12.09,27.45,32.37,43.63,45.75,7.58,6.27,10.49,6.33,11.63,4.63C189.16,213.71,187.52,208.42,187.52,208.42Z" transform="translate(-0.04)"/><path class="cls-6" d="M178.17,195.25c-11-15.89-20.53-33.29-29.35-38.42-11.36-6.59-19.82-1.87-19.21,4.61.73,7.79,21.48,33.19,34.46,43.54Z" transform="translate(-0.04)"/><path class="cls-8" d="M180.89,207.1c-.56,12.81,6.39,10.5,11.56,8s6.75-4.62,7.34-6-1.9-11.42-1.9-11.42L195.54,192Z" transform="translate(-0.04)"/><path class="cls-8" d="M189.63,201.92h0a2.12,2.12,0,0,1-.31-3.19L199,188.26a2.71,2.71,0,0,1,3.53-.28h0a2.12,2.12,0,0,1,.31,3.19l-9.71,10.47A2.7,2.7,0,0,1,189.63,201.92Z" transform="translate(-0.04)"/><path class="cls-8" d="M188.64,202.14h0a2.15,2.15,0,0,1,1.21-3l13.55-5.59a2.6,2.6,0,0,1,3.28,1.11h0a2.15,2.15,0,0,1-1.22,3l-13.55,5.59A2.59,2.59,0,0,1,188.64,202.14Z" transform="translate(-0.04)"/><path class="cls-8" d="M196.9,205.37l16.79-.46a2.1,2.1,0,0,1,2.25,1.88h0a2,2,0,0,1-2.07,2l-16.79.46C195.89,209.34,195.71,205.42,196.9,205.37Z" transform="translate(-0.04)"/><path class="cls-8" d="M206.73,199.37h11.94a2.11,2.11,0,0,1,2.26,1.88h0a2,2,0,0,1-2.07,2l-11.85.65C205.82,204,205.54,199.41,206.73,199.37Z" transform="translate(-0.04)"/><path class="cls-8" d="M204.59,193.39l15.8,1.28a2.06,2.06,0,0,1,2,2.1h0a2.12,2.12,0,0,1-2.31,1.82l-17.44-.7C201.47,197.82,203.41,193.31,204.59,193.39Z" transform="translate(-0.04)"/><path class="cls-8" d="M200.84,187.45c5,.28,13.95.6,13.95.6a2.05,2.05,0,0,1,2,2.1,2.11,2.11,0,0,1-2.3,1.82s-9.18.18-14.23-.1Z" transform="translate(-0.04)"/><path class="cls-8" d="M189,204.35h0a2.34,2.34,0,0,1,2.08-2.65l15.1-2.3a2.53,2.53,0,0,1,2.93,1.89h0a2.33,2.33,0,0,1-2.07,2.65l-15.11,2.3A2.55,2.55,0,0,1,189,204.35Z" transform="translate(-0.04)"/><path class="cls-13" d="M240.44,64.32l17,7a3.32,3.32,0,0,0,4.19-1.43L281.21,30.7a2.77,2.77,0,0,0-1.57-3.79l-17-7a3.3,3.3,0,0,0-4.18,1.42l-19.61,39.2A2.76,2.76,0,0,0,240.44,64.32Z" transform="translate(-0.04)"/><path class="cls-9" d="M242.19,64.32l17,7a3.3,3.3,0,0,0,4.18-1.43L283,30.7a2.76,2.76,0,0,0-1.57-3.79l-17-7a3.31,3.31,0,0,0-4.19,1.42l-19.61,39.2A2.76,2.76,0,0,0,242.19,64.32Z" transform="translate(-0.04)"/><path class="cls-6" d="M278.07,98.77c12.67,20.22,22.88,39,33.71,46.44,14.33,9.82,24.62.79,24.08-7.07-.68-9.78-19.94-30.3-37.62-45.87Z" transform="translate(-0.04)"/><path class="cls-8" d="M272.59,71.72l4.56-17.34a5,5,0,0,0,.13-1.88L275.56,30c-.23-3.1-5.16-3.64-4.84.48l1,12.76-2,4.16A9.49,9.49,0,0,1,268,52.84l-4.32,6.1s-9.87,6.46-3.14,13.94c4.22,4.69,8.13,3.08,10.19,1.58A4.94,4.94,0,0,0,272.59,71.72Z" transform="translate(-0.04)"/><path class="cls-8" d="M275.05,48.06h0a2.56,2.56,0,0,1-3.36.37l-11.35-8.09a2.05,2.05,0,0,1-.4-3.05h0a2.57,2.57,0,0,1,3.36-.38L274.65,45A2,2,0,0,1,275.05,48.06Z" transform="translate(-0.04)"/><path class="cls-8" d="M273.48,46.24h0a2.52,2.52,0,0,1-3.23-.92L263.6,33.69a2.09,2.09,0,0,1,1-2.94h0a2.52,2.52,0,0,1,3.23.93l6.65,11.63A2.08,2.08,0,0,1,273.48,46.24Z" transform="translate(-0.04)"/><path class="cls-8" d="M274.05,54.75h0a2.19,2.19,0,0,1-1.91-2.53l4.59-21a2.41,2.41,0,0,1,2.81-1.73h0A2.2,2.2,0,0,1,281.45,32l-4.6,21A2.39,2.39,0,0,1,274.05,54.75Z" transform="translate(-0.04)"/><path class="cls-13" d="M265.09,24.54a1.79,1.79,0,0,1-1.62,1.11.82.82,0,0,1-.88-1.11,1.79,1.79,0,0,1,1.62-1.11A.82.82,0,0,1,265.09,24.54Z" transform="translate(-0.04)"/><path class="cls-13" d="M263.79,27.8a1.8,1.8,0,0,1-1.62,1.11.82.82,0,0,1-.88-1.11,1.78,1.78,0,0,1,1.62-1.11A.82.82,0,0,1,263.79,27.8Z" transform="translate(-0.04)"/><path class="cls-13" d="M262.49,31.05a1.79,1.79,0,0,1-1.62,1.11.82.82,0,0,1-.88-1.11A1.78,1.78,0,0,1,261.6,30C262.29,30,262.69,30.44,262.49,31.05Z" transform="translate(-0.04)"/></g></g></g></svg>