<?xml version="1.0" encoding="UTF-8"?>
<svg id="Calque_2" data-name="Calque 2" xmlns="http://www.w3.org/2000/svg" xmlns:xlink="http://www.w3.org/1999/xlink" viewBox="0 0 2943.99 538.74">
  <defs>
    <style>
      .cls-1 {
        fill: #fff;
        stroke: #fff;
        stroke-miterlimit: 10;
        stroke-width: 2.5px;
      }

      .cls-2 {
        fill: url(#Dégradé_sans_nom_9);
      }

      .cls-3 {
        fill: #545454;
      }
    </style>
    <linearGradient id="Dégradé_sans_nom_9" data-name="Dégradé sans nom 9" x1="1029.23" y1="239.2" x2="1556.54" y2="239.2" gradientTransform="translate(1458.75 1567.97) rotate(-90)" gradientUnits="userSpaceOnUse">
      <stop offset="0" stop-color="#d24591"/>
      <stop offset="1" stop-color="#f39f8a"/>
    </linearGradient>
  </defs>
  <g id="Calque_2-2" data-name="Calque 2">
    <circle class="cls-2" cx="1697.94" cy="275.08" r="263.65"/>
    <path class="cls-1" d="M1791.18,373.86c-8.83-9.31-22.87-10.37-33.69-3.47-11.26,7.18-27.57,14.25-48.71,14.25-13.94,0-26.95-2.86-39.07-8.56-12.12-5.71-22.64-13.31-31.55-22.77-8.91-9.47-16.02-20.48-21.31-33.01-5.29-12.54-7.94-25.76-7.94-39.69s2.64-26.8,7.94-39.49c5.29-12.67,12.39-23.74,21.31-33.21,8.91-9.47,19.43-17.06,31.55-22.77,12.11-5.7,25.13-8.57,39.07-8.57,18.63,0,35.44,7.24,47.57,14.49,11.55,6.91,26.21,5.39,35.48-4.38h0c12.73-13.41,9.38-35.2-6.83-44.09-18.72-10.26-45.03-20.33-76.21-20.33-21.73,0-42.21,4.17-61.43,12.52-19.22,8.36-36,19.72-50.34,34.06-14.35,14.35-25.7,31.13-34.06,50.36-8.36,19.22-12.54,39.68-12.54,61.41s4.18,42.2,12.54,61.43c8.35,19.22,19.71,36.01,34.06,50.34,14.34,14.35,31.12,25.69,50.34,34.05,19.22,8.36,39.7,12.54,61.43,12.54,31.6,0,59.08-11.05,78.24-21.79,14.97-8.39,18.32-28.37,6.52-40.82l-2.36-2.49Z"/>
    <g>
      <path class="cls-3" d="M0,0H86.39V76.11H0V0ZM2.05,139.88H84.33V477.91H2.05V139.88Z"/>
      <path class="cls-3" d="M484.08,259.87v218.04h-82.28v-197.47c0-23.31,0-75.42-62.4-75.42-76.79,0-76.79,77.48-76.79,137.82v135.07h-82.28V139.88h82.28v39.08c24-32.23,61.02-45.94,102.17-45.94,76.11,0,119.3,46.62,119.3,126.85Z"/>
      <path class="cls-3" d="M543.06,309.92c0-89.14,52.79-176.9,163.19-176.9,67.2,0,119.99,32.23,146.04,99.42l-78.16,30.85c-8.92-35.65-34.28-58.28-67.88-58.28-56.91,0-78.85,51.42-78.85,104.91s21.25,102.85,78.85,102.85c32.91,0,58.97-21.94,67.88-56.91l74.74,28.8c-22.63,63.08-74.74,100.11-141.93,100.11-110.39,0-163.87-85.71-163.87-174.84Z"/>
      <path class="cls-3" d="M907.83,397V0h82.28V391.52c0,15.08,8.91,21.25,23.99,21.25,7.54,0,16.46-1.37,26.06-4.11v65.82c-18.51,6.85-37.03,10.28-52.8,10.28-45.94,0-79.53-27.43-79.53-87.76Z"/>
      <path class="cls-3" d="M1396.03,139.88V477.91h-82.28v-39.08c-23.99,32.23-61.02,45.94-100.79,45.94-85.02,0-120.68-61.71-120.68-133.71V139.88h82.28v190.61c0,23.31,0,82.28,62.39,82.28,76.79,0,76.79-84.34,76.79-144.68V139.88h82.28Z"/>
      <path class="cls-3" d="M2298.74,264.67v213.24h-75.42l-6.85-43.88c-19.88,31.54-58.28,50.74-102.84,50.74-71.31,0-122.05-45.94-122.05-110.39,0-39.77,17.82-69.94,50.73-85.02,22.63-10.28,51.43-15.08,89.82-15.08h84.34v-9.6c0-37.02-24.69-59.65-63.76-59.65-34.28,0-66.52,17.83-91.2,50.74l-59.65-50.05c40.46-48.68,90.51-72.68,152.22-72.68,89.14,0,144.67,50.05,144.67,131.65Zm-82.27,71.31h-73.37c-28.11,0-44.56,3.43-55.53,11.66-8.92,6.17-13.72,15.77-13.72,28.11,0,23.99,19.89,39.08,52.8,39.08,49.36,0,89.82-34.97,89.82-78.85Z"/>
      <path class="cls-3" d="M2623.07,152.22l-39.76,72.68c-11.65-7.54-24.69-11.66-41.14-11.66-50.05,0-74.74,30.86-74.74,94.62v170.04h-82.27V139.88h82.97v57.59c14.4-41.82,52.11-64.45,90.5-64.45,22.63,0,42.51,5.49,64.45,19.2Z"/>
      <path class="cls-3" d="M2943.99,0V477.91h-82.29v-33.6c-23.31,28.8-61.02,40.46-97.36,40.46-91.88,0-142.62-74.74-142.62-176.22,0-110.39,59.65-175.53,142.62-175.53,38.4,0,76.11,15.77,97.36,41.14V0h82.29Zm-74.74,309.24c0-56.23-25.37-101.48-84.34-101.48-54.85,0-80.91,38.4-80.91,101.48s25.38,99.42,80.23,99.42c59.65,0,85.02-43.2,85.02-99.42Z"/>
    </g>
  </g>
</svg>