<?xml version="1.0" encoding="UTF-8"?>
<svg xmlns="http://www.w3.org/2000/svg" width="375pt" height="374.999991pt" viewBox="0 0 375 374.999991" version="1.2">
<defs>
<clipPath id="clip1">
  <path d="M 7.484375 294 L 9 294 L 9 319 L 7.484375 319 Z M 7.484375 294 "/>
</clipPath>
<clipPath id="clip2">
  <path d="M 316.449219 11.015625 L 368.21875 11.015625 L 368.21875 365.566406 L 316.449219 365.566406 Z M 316.449219 11.015625 "/>
</clipPath>
<clipPath id="clip3">
  <path d="M 28 365 L 61.867188 365 L 61.867188 368 L 28 368 Z M 28 365 "/>
</clipPath>
<clipPath id="clip4">
  <path d="M 8 7.683594 L 364 7.683594 L 364 368.019531 L 8 368.019531 Z M 8 7.683594 "/>
</clipPath>
</defs>
<g id="surface1">
<path style=" stroke:none;fill-rule:nonzero;fill:rgb(100%,100%,100%);fill-opacity:1;" d="M 40.863281 193.640625 C 40.851562 194.84375 40.882812 196.296875 40.578125 195.933594 C 41.417969 209.949219 41.660156 226.355469 41.144531 243.257812 C 41.269531 244.609375 41.71875 244.230469 41.566406 247.078125 C 41.535156 250.210938 40.945312 250.320312 41.003906 253.941406 C 42.472656 254.507812 41.929688 244.1875 43.550781 245.550781 C 42.769531 229.136719 42.828125 213.597656 42.277344 196.699219 C 41.933594 194.96875 41.496094 193.78125 40.863281 193.640625 "/>
<path style=" stroke:none;fill-rule:nonzero;fill:rgb(100%,100%,100%);fill-opacity:1;" d="M 42.839844 77.628906 C 43.25 77.292969 43.488281 76.019531 43.550781 73.8125 C 43.054688 73.6875 43.105469 76.503906 42.839844 77.628906 "/>
<path style=" stroke:none;fill-rule:nonzero;fill:rgb(100%,100%,100%);fill-opacity:1;" d="M 9.746094 42.226562 C 9.707031 41.875 9.675781 41.523438 9.640625 41.179688 L 9.617188 40.90625 L 9.589844 40.414062 C 9.574219 40.089844 9.554688 39.765625 9.535156 39.449219 C 9.464844 38.160156 9.390625 36.910156 9.324219 35.714844 C 9.167969 33.28125 9.023438 31.0625 8.902344 29.167969 C 8.570312 29.550781 8.320312 30.789062 8.054688 31.929688 C 8.0625 33.648438 8.070312 35.277344 8.074219 36.832031 C 8.097656 38.328125 8.117188 39.75 8.140625 41.109375 C 8.195312 42.53125 8.273438 43.820312 8.367188 45.03125 C 8.554688 47.449219 8.804688 49.539062 9.042969 51.679688 C 8.480469 52.832031 8.542969 59.285156 8.761719 62.363281 C 9.429688 62.035156 9.855469 60.816406 10.101562 59.050781 C 10.085938 54.660156 10.070312 50.304688 10.058594 46.007812 C 9.964844 44.730469 9.859375 43.457031 9.746094 42.226562 "/>
<path style=" stroke:none;fill-rule:nonzero;fill:rgb(100%,100%,100%);fill-opacity:1;" d="M 132.25 34.863281 C 134.9375 34.90625 129.019531 35.148438 132.25 35.289062 C 132.121094 34.980469 134.949219 35.222656 136.058594 35.144531 C 136.597656 34.796875 132.800781 34.546875 132.25 34.863281 "/>
<path style=" stroke:none;fill-rule:nonzero;fill:rgb(100%,100%,100%);fill-opacity:1;" d="M 223.078125 36.417969 C 221.066406 36.378906 220.570312 36.613281 220.785156 36.988281 C 222.792969 37.027344 223.289062 36.789062 223.078125 36.417969 "/>
<path style=" stroke:none;fill-rule:nonzero;fill:rgb(100%,100%,100%);fill-opacity:1;" d="M 343.222656 134.949219 C 343.210938 134.929688 343.207031 134.902344 343.199219 134.878906 C 343.367188 138.804688 343.726562 142.207031 344.4375 144.507812 C 344.882812 136.203125 344.757812 126.085938 344.71875 116.269531 C 344.648438 99.25 344.90625 80.484375 344.292969 63.601562 C 344.140625 59.355469 343.675781 55.53125 343.585938 51.390625 C 343.539062 49.304688 343.542969 47.054688 343.5625 44.730469 C 343.578125 43.570312 343.59375 42.390625 343.605469 41.199219 C 343.621094 40.574219 343.636719 39.945312 343.652344 39.320312 C 343.707031 36.984375 343.71875 34.550781 343.445312 32.839844 C 343.523438 32.617188 343.582031 32.429688 343.625 32.277344 C 343.316406 32.097656 342.976562 32.183594 342.539062 32.257812 C 342.097656 32.335938 341.582031 32.402344 340.742188 32.175781 C 340.234375 32.480469 339.398438 32.96875 339.757812 33.167969 C 339.734375 33.328125 339.984375 33.386719 340.222656 33.449219 C 341.136719 33.300781 341.925781 33.265625 342.652344 33.25 C 342.675781 34.242188 342.660156 35.175781 342.878906 36.089844 C 342.644531 37.574219 342.472656 38.875 342.351562 40.101562 L 342.308594 40.558594 L 342.289062 40.785156 C 342.285156 40.882812 342.277344 40.875 342.273438 41.105469 C 342.253906 41.835938 342.230469 42.5625 342.210938 43.292969 C 342.1875 44.746094 342.164062 46.199219 342.140625 47.648438 C 342.089844 53.445312 342.191406 59.222656 342.339844 65.160156 C 342.605469 75.824219 343.015625 87.003906 342.929688 99.699219 C 342.933594 99.746094 342.9375 99.792969 342.941406 99.835938 C 342.933594 99.839844 342.933594 99.839844 342.929688 99.839844 C 342.921875 100.84375 342.910156 101.855469 342.898438 102.878906 C 342.910156 102.886719 342.925781 102.886719 342.941406 102.894531 C 342.925781 103.09375 342.910156 103.300781 342.886719 103.496094 C 342.886719 103.683594 342.882812 103.867188 342.878906 104.054688 C 343.140625 105.460938 343.335938 107.199219 343.445312 109.398438 C 343.347656 116.207031 342.941406 125.214844 343.125 132.773438 C 343.191406 133.324219 343.230469 134.003906 343.222656 134.949219 "/>
<path style=" stroke:none;fill-rule:nonzero;fill:rgb(100%,100%,100%);fill-opacity:1;" d="M 345.566406 214.730469 C 346.5 187.75 345.988281 158.984375 347.402344 137.636719 C 347.277344 133.8125 347.800781 130.601562 347.402344 127.714844 C 348.128906 127.984375 348.027344 122.621094 347.832031 120.085938 C 347.503906 119.289062 346.746094 118.535156 346.558594 119.320312 C 346.675781 127.554688 346.351562 136.609375 345.710938 141.453125 C 345.398438 154.03125 343.710938 169.375 344.578125 182.667969 C 343.960938 193.015625 345.125 200.925781 344.71875 211.675781 C 344.9375 213.027344 344.90625 215.746094 345.566406 214.730469 "/>
<path style=" stroke:none;fill-rule:nonzero;fill:rgb(100%,100%,100%);fill-opacity:1;" d="M 345.140625 217.019531 C 345.414062 220.054688 344.984375 222.792969 345.425781 225.414062 C 345.589844 223.785156 345.832031 216.460938 345.140625 217.019531 "/>
<path style=" stroke:none;fill-rule:nonzero;fill:rgb(100%,100%,100%);fill-opacity:1;" d="M 163.636719 337.976562 C 162.878906 337.96875 162.105469 337.957031 161.332031 337.933594 C 162.023438 338.039062 162.863281 338.109375 163.863281 338.15625 C 163.835938 338.085938 163.753906 338.027344 163.636719 337.976562 "/>
<path style=" stroke:none;fill-rule:nonzero;fill:rgb(100%,100%,100%);fill-opacity:1;" d="M 351.988281 56.332031 C 351.898438 55.714844 351.8125 55.066406 351.738281 54.402344 C 351.734375 55.488281 351.730469 56.601562 351.726562 57.726562 C 351.859375 57.5 352.011719 57.382812 351.988281 56.332031 "/>
<path style=" stroke:none;fill-rule:nonzero;fill:rgb(100%,100%,100%);fill-opacity:1;" d="M 15.703125 16.859375 C 18.625 17.148438 21.242188 17.453125 23.601562 17.75 C 26.207031 17.742188 28.949219 17.683594 31.828125 17.609375 C 34.652344 17.535156 37.578125 17.460938 40.566406 17.382812 C 45.25 17.246094 50.105469 17.1875 54.816406 17.46875 C 66.292969 16.148438 82.730469 17.125 96.03125 16.761719 C 102.402344 17.480469 110.65625 16.902344 118.929688 16.90625 C 128.621094 16.90625 138.800781 17.414062 148.695312 17.328125 C 152.398438 17.296875 156.160156 16.960938 160.140625 16.90625 C 168.964844 16.773438 170.800781 17.007812 176.175781 17.1875 C 183.625 17.429688 190.726562 17.21875 198.308594 17.1875 C 200.28125 15.523438 207.59375 14.851562 214.335938 14.074219 C 199.296875 14.410156 187.957031 14.253906 175.40625 14.640625 C 171.875 14.148438 166.671875 14.394531 162.433594 14.074219 C 161.066406 13.972656 160.125 13.582031 158.621094 13.511719 C 156.359375 13.402344 153.296875 13.597656 150.988281 13.511719 C 145.949219 13.3125 140.929688 12.613281 135.722656 12.378906 C 132.105469 12.214844 128.214844 12.390625 125.035156 12.234375 C 122.882812 12.128906 121.070312 11.867188 119.214844 11.632812 C 113.25 11.597656 107.164062 11.472656 100.953125 11.105469 C 100.308594 11.066406 99.652344 11.019531 99.003906 10.972656 C 88.726562 11.03125 78.714844 11.378906 69.316406 11.105469 C 64.050781 11.300781 58.566406 11.613281 52.941406 11.847656 C 50.132812 11.964844 47.285156 12.0625 44.414062 12.113281 C 42.976562 12.136719 41.535156 12.148438 40.089844 12.144531 C 38.980469 12.144531 37.871094 12.136719 36.761719 12.132812 C 35.585938 12.121094 34.40625 12.105469 33.226562 12.09375 C 29.4375 12.652344 21.695312 12.78125 13.8125 12.726562 C 14.085938 17.863281 14.382812 22.859375 14.65625 27.957031 C 14.941406 23.679688 15.308594 19.980469 15.703125 16.859375 "/>
<path style=" stroke:none;fill-rule:nonzero;fill:rgb(100%,100%,100%);fill-opacity:1;" d="M 355.382812 273.863281 C 355.382812 273.828125 355.382812 273.796875 355.378906 273.765625 C 355.347656 278.335938 355.3125 282.988281 355.269531 287.644531 C 355.445312 283.34375 355.511719 278.800781 355.382812 273.863281 "/>
<path style=" stroke:none;fill-rule:nonzero;fill:rgb(100%,100%,100%);fill-opacity:1;" d="M 259.277344 360.640625 C 260.617188 360.472656 262.09375 360.367188 263.640625 360.292969 C 252.75 359.761719 241.589844 359.875 230.515625 360.203125 C 232.199219 360.269531 233.6875 360.402344 234.847656 360.640625 C 213.214844 362.789062 170.808594 360.125 147.074219 362.476562 C 149.675781 363.15625 153.039062 362.757812 156.238281 362.761719 C 173.808594 362.773438 193.191406 362.957031 214.242188 362.761719 C 226.757812 362.644531 238.546875 361.277344 252.40625 361.488281 C 259.765625 361.601562 265.648438 362.039062 273.601562 362.058594 C 272.539062 361.742188 271.488281 361.40625 270.539062 361.039062 C 267.0625 361.019531 263.359375 360.898438 259.277344 360.640625 "/>
<path style=" stroke:none;fill-rule:nonzero;fill:rgb(100%,100%,100%);fill-opacity:1;" d="M 316.519531 352.71875 C 316.160156 352.757812 315.792969 352.792969 315.425781 352.828125 C 315.410156 352.835938 315.386719 352.847656 315.378906 352.859375 C 316.277344 352.882812 317.542969 352.835938 317.664062 353 C 316.894531 353.003906 316.707031 353.25 317.664062 353.285156 C 318.054688 353.226562 318.355469 353.15625 318.582031 353.074219 C 318.035156 352.929688 318.34375 352.625 316.519531 352.71875 "/>
<path style=" stroke:none;fill-rule:nonzero;fill:rgb(100%,100%,100%);fill-opacity:1;" d="M 19.320312 10.824219 C 19.191406 10.832031 19.0625 10.835938 18.933594 10.84375 C 19.128906 10.839844 19.332031 10.832031 19.53125 10.828125 C 19.460938 10.824219 19.390625 10.824219 19.320312 10.824219 "/>
<path style=" stroke:none;fill-rule:nonzero;fill:rgb(100%,100%,100%);fill-opacity:1;" d="M 232.652344 12.378906 C 229.222656 12.785156 224.445312 13.621094 220.441406 13.085938 C 220.890625 13.542969 219.921875 13.746094 219.679688 14.074219 C 224.871094 13.675781 229.144531 14.5625 234.179688 14.640625 C 236.683594 14.679688 239.367188 14.386719 241.8125 14.359375 C 245.457031 14.3125 248.8125 14.597656 252.503906 14.640625 C 256.574219 14.6875 260.730469 14.707031 264.898438 14.71875 C 264.953125 14.691406 265 14.664062 265.054688 14.640625 C 263.984375 14.179688 260.488281 14.167969 260.472656 13.511719 C 271.460938 13.445312 282.703125 13.136719 293.292969 12.945312 C 300.882812 12.808594 309.652344 12.878906 318.433594 12.875 C 322.828125 12.875 327.21875 12.855469 331.476562 12.785156 C 334.15625 12.734375 336.792969 12.683594 339.363281 12.636719 C 342.609375 12.566406 345.796875 12.484375 348.914062 12.378906 C 351.671875 12.476562 355.449219 12.582031 359.574219 12.65625 C 359.578125 12.628906 359.578125 12.597656 359.578125 12.566406 C 354.804688 12.433594 350.078125 12.300781 345.8125 12.234375 C 342.878906 12.476562 339.933594 12.589844 336.914062 12.621094 C 335.402344 12.640625 333.871094 12.636719 332.316406 12.621094 C 331.933594 12.613281 331.550781 12.613281 331.167969 12.605469 L 330.425781 12.585938 C 329.929688 12.570312 329.433594 12.550781 328.929688 12.535156 C 324.925781 12.382812 320.753906 12.105469 316.613281 12.09375 C 309.164062 12.074219 300.886719 12.433594 292.957031 12.378906 C 285.632812 12.328125 277.859375 12.128906 270.058594 12.09375 C 268.0625 11.898438 266.558594 11.613281 264.5 11.433594 C 263.34375 11.441406 262.191406 11.441406 261.046875 11.449219 C 251.160156 11.675781 243.035156 12.238281 232.652344 12.378906 "/>
<path style=" stroke:none;fill-rule:nonzero;fill:rgb(100%,100%,100%);fill-opacity:1;" d="M 349.527344 92.605469 C 349.640625 94.03125 349.761719 95.402344 349.808594 97.183594 C 349.265625 98.847656 349.632812 103.988281 349.527344 107.871094 C 349.40625 112.199219 348.730469 115.636719 348.535156 120.085938 C 348.203125 127.824219 348.65625 131.023438 348.960938 134.582031 C 349.339844 138.976562 349.464844 145.515625 350.375 148.324219 C 350.605469 147.023438 350.816406 145.617188 351.082031 144.507812 C 350.550781 139.519531 349.480469 133.796875 349.527344 126.957031 C 349.558594 122.648438 350.433594 119.941406 350.09375 115.5 L 350.515625 115.5 C 350.121094 98.929688 351.84375 88.542969 352.734375 75.84375 C 352.09375 71.890625 352.148438 66.3125 351.71875 61.058594 C 351.6875 70.023438 351.53125 79.152344 350.09375 83.449219 C 350.230469 88.246094 349.699219 89.472656 349.527344 92.605469 "/>
<path style=" stroke:none;fill-rule:nonzero;fill:rgb(100%,100%,100%);fill-opacity:1;" d="M 35.933594 10.792969 C 35.683594 10.800781 35.433594 10.804688 35.183594 10.8125 C 35.296875 10.816406 35.402344 10.816406 35.515625 10.824219 C 35.652344 10.8125 35.796875 10.800781 35.933594 10.792969 "/>
<path style=" stroke:none;fill-rule:nonzero;fill:rgb(100%,100%,100%);fill-opacity:1;" d="M 37.46875 176.089844 C 35.527344 174.082031 36.230469 157.851562 34.925781 152.429688 C 34.886719 149.933594 35.363281 150.222656 35.488281 148.613281 C 35.402344 143.59375 35.824219 141.261719 36.054688 137.929688 C 36.355469 129.9375 35.332031 113.644531 36.480469 108.160156 C 36.183594 112.988281 37.5625 116.003906 37.183594 121.132812 C 39.015625 128.125 39.738281 135.46875 39.023438 150.90625 C 38.867188 154.191406 38.203125 157.582031 38.03125 160.828125 C 37.71875 166.875 38.269531 173.023438 37.46875 176.089844 Z M 33.566406 248.238281 C 33.601562 246.269531 33.8125 249.285156 34.132812 248.238281 C 34.097656 250.972656 34.558594 251.03125 34.558594 253.582031 C 34.085938 252.566406 34.066406 249.117188 33.566406 248.238281 Z M 33.851562 284.875 C 33.675781 274.121094 33.667969 265.90625 33.710938 255.871094 C 34.253906 257.515625 34.011719 267.175781 33.710938 267.320312 C 33.792969 268.90625 34.007812 269.785156 34.132812 271.136719 C 33.667969 274.65625 34.660156 282.101562 33.851562 284.875 Z M 33.988281 239.847656 C 34.070312 240.953125 33.824219 243.78125 34.132812 243.65625 C 33.992188 246.886719 33.753906 240.960938 33.710938 243.65625 C 33.394531 243.101562 33.640625 239.308594 33.988281 239.847656 Z M 118.929688 28.074219 C 121.464844 27.878906 126.828125 27.777344 126.5625 28.5 C 129.445312 28.105469 132.660156 28.625 136.484375 28.5 C 157.828125 29.917969 186.59375 29.402344 213.578125 30.339844 C 214.585938 30.996094 211.875 30.964844 210.519531 31.1875 C 199.773438 30.777344 191.859375 31.945312 181.515625 31.328125 C 168.222656 32.195312 152.875 30.503906 140.300781 30.199219 C 135.453125 29.550781 126.402344 29.230469 118.164062 29.347656 C 117.378906 29.160156 118.136719 28.402344 118.929688 28.074219 Z M 193.734375 27.082031 C 200.273438 26.746094 206.589844 27.292969 212.808594 26.941406 C 211.703125 27.539062 207.890625 27.636719 205.941406 28.074219 C 201.152344 27.871094 197.441406 28.070312 193.734375 27.511719 Z M 224.261719 30.480469 C 221.636719 30.921875 218.902344 30.492188 215.863281 30.761719 C 215.304688 30.074219 222.628906 30.316406 224.261719 30.480469 Z M 40.015625 270.738281 C 40.898438 270.265625 40.804688 264.085938 40.4375 260.8125 C 40.789062 259.414062 41.5625 260.28125 41.710938 257.757812 C 41.320312 255.648438 41.121094 258.445312 40.71875 258.523438 C 40.410156 255.714844 40.191406 249.195312 40.578125 247.078125 C 39.867188 241.945312 40.152344 232.179688 39.445312 225.699219 C 40.027344 223.238281 40.390625 219.589844 40.4375 214.253906 C 39.9375 214.160156 39.632812 213 39.304688 211.96875 C 38.488281 197.378906 40.1875 189.503906 39.304688 175.324219 C 39.722656 171.460938 39.753906 165.527344 39.730469 159.304688 C 41.410156 143.757812 41.515625 120.550781 40.296875 101.292969 C 41.753906 95.945312 40.808594 87.371094 41.144531 80.679688 C 41.675781 70.0625 42.949219 59.503906 42.136719 48.625 C 42.132812 47.367188 41.742188 48.199219 41.710938 47.097656 C 41.738281 45.355469 41.746094 43.488281 41.730469 41.546875 L 41.726562 40.929688 L 41.71875 40.855469 L 41.699219 40.699219 C 41.683594 40.59375 41.667969 40.480469 41.652344 40.367188 C 41.582031 39.914062 41.480469 39.363281 41.445312 38.839844 C 41.574219 38.828125 41.707031 38.824219 41.84375 38.824219 C 42.230469 38.824219 42.683594 38.960938 43.042969 39.0625 C 43.222656 39.113281 43.386719 39.15625 43.542969 39.171875 L 44.6875 39.175781 L 45.882812 39.167969 C 46.679688 39.15625 47.484375 39.140625 48.289062 39.105469 C 55.765625 38.804688 61.394531 38.222656 65.84375 36.988281 C 71.660156 37.042969 78.25 35.363281 84.160156 36.136719 C 85.300781 35.96875 85.058594 35.550781 87.210938 35.570312 C 88.714844 35.527344 88.730469 35.761719 89.503906 35.855469 C 89.433594 35.324219 88.648438 35.449219 89.503906 35.003906 C 85.234375 35.269531 83.195312 35.214844 79.585938 35.714844 C 78.546875 35.667969 78.125 35.511719 76.527344 35.570312 C 68.230469 36.449219 58.546875 37.464844 47.527344 37.972656 C 46.582031 38.011719 45.632812 38.046875 44.683594 38.082031 L 43.972656 38.101562 L 43.617188 38.109375 C 43.539062 38.109375 43.539062 38.113281 43.53125 38.113281 L 43.503906 38.117188 L 43.277344 38.144531 C 42.988281 38.171875 42.699219 38.179688 42.410156 38.183594 C 41.847656 38.183594 41.261719 38.164062 40.84375 38.238281 C 40.90625 38.703125 41.03125 39.171875 41.285156 39.59375 C 41.230469 39.789062 40.71875 39.414062 40.578125 39.554688 C 40.828125 39.992188 40.78125 40.234375 40.699219 40.539062 C 40.679688 40.617188 40.65625 40.695312 40.632812 40.773438 C 40.609375 40.910156 40.59375 40.742188 40.574219 41.460938 C 40.546875 42.519531 40.535156 43.628906 40.578125 44.808594 C 40.703125 48.140625 41.386719 50.949219 41.425781 54.730469 C 41.515625 62.402344 40.867188 67.230469 40.863281 76.105469 C 39.921875 79.757812 40.519531 88.53125 39.589844 89.078125 C 39.101562 87.375 40.171875 83.667969 39.589844 81.449219 C 39.445312 82.964844 39.34375 84.703125 39.023438 85.261719 C 38.070312 77.445312 36.207031 74.53125 35.628906 64.65625 C 35.742188 56.421875 35.433594 50.457031 34.925781 45.574219 C 34.972656 43.964844 35.019531 42.316406 35.070312 40.628906 C 35.109375 39.78125 35.148438 38.917969 35.1875 38.039062 C 35.25 36.417969 35.292969 34.765625 35.320312 33.085938 C 35.191406 33.0625 35.066406 33.046875 34.9375 33.023438 C 34.023438 33.246094 33.089844 33.234375 32.097656 33.25 C 32.113281 33.984375 32.144531 34.769531 32.296875 35.679688 C 32.230469 35.917969 32.171875 36.171875 32.015625 36.144531 C 31.8125 36.503906 31.328125 35.667969 31.023438 35.160156 C 31.25 34.324219 31.183594 33.808594 31.105469 33.367188 C 31.03125 32.929688 30.941406 32.585938 31.125 32.277344 C 31.277344 32.320312 31.464844 32.382812 31.6875 32.460938 C 33.394531 32.1875 35.828125 32.195312 38.164062 32.25 C 38.792969 32.269531 39.421875 32.28125 40.046875 32.296875 C 41.234375 32.3125 42.417969 32.328125 43.578125 32.339844 C 45.898438 32.359375 48.148438 32.363281 50.238281 32.320312 C 54.375 32.226562 58.203125 31.765625 62.449219 31.609375 C 79.328125 31 98.09375 31.253906 115.113281 31.1875 C 124.933594 31.148438 135.050781 31.023438 143.351562 31.46875 C 142.539062 31.71875 141.589844 31.921875 140.53125 32.09375 C 145.492188 31.964844 149.941406 31.9375 152.855469 32.320312 C 156.769531 30.882812 169.421875 31.574219 173.460938 32.320312 C 174.996094 31.339844 181.125 31.71875 184.914062 32.035156 C 184.925781 32.242188 181.695312 32.484375 184.914062 32.460938 C 186.414062 32.5 186.425781 32.269531 187.199219 32.175781 C 188.582031 32.488281 190.390625 32.71875 191.019531 33.167969 C 193.851562 33.265625 194.292969 32.925781 197.121094 33.023438 C 196.355469 33.304688 195.804688 33.628906 194.074219 33.734375 C 189.976562 33.925781 189.394531 33.46875 187.199219 33.308594 C 187.296875 33.664062 188.660156 33.75 186.441406 33.875 C 185.417969 32.992188 181.542969 34.09375 179.574219 33.308594 C 180.992188 33.289062 182.117188 33.214844 182.625 33.023438 C 179.636719 33.148438 176.070312 33.304688 173.460938 33.449219 C 174.273438 33.445312 175.402344 33.515625 174.222656 33.59375 C 201.132812 35.21875 224.726562 34.492188 251.316406 34.15625 C 252.757812 34.503906 255.5625 34.59375 258.183594 34.722656 C 265.871094 34.359375 271.355469 34.367188 273.449219 32.882812 C 264.222656 32.914062 256.945312 33.222656 242.15625 33.167969 C 239.089844 32.792969 236.714844 32.289062 236.050781 31.46875 C 247.902344 30.929688 260.617188 31.921875 271.921875 31.46875 C 273.546875 31.40625 274.207031 31.203125 275.742188 31.1875 C 285.195312 31.082031 289.9375 31.4375 296.347656 31.609375 C 308.769531 31.949219 322.101562 31.652344 334.515625 31.894531 L 334.992188 31.910156 L 335.253906 31.9375 C 335.425781 31.960938 335.59375 31.988281 335.761719 32.019531 C 336.101562 32.078125 336.429688 32.148438 336.757812 32.199219 C 337.421875 32.300781 338.070312 32.320312 338.929688 32.035156 C 338.132812 31.941406 337.273438 31.859375 336.402344 31.796875 C 335.960938 31.769531 335.519531 31.742188 335.085938 31.714844 C 334.273438 31.695312 333.46875 31.675781 332.675781 31.65625 C 329.363281 31.601562 326.277344 31.625 323.828125 31.75 C 316.832031 31.265625 304.789062 31.09375 296.347656 31.046875 C 279.617188 29.867188 267.078125 30.757812 246.738281 30.199219 C 245.707031 29.445312 243.257812 29.589844 239.867188 29.492188 C 240.109375 28.644531 237.570312 28.3125 233.765625 28.214844 C 231.640625 28.429688 235.089844 28.796875 232.996094 28.925781 C 230.808594 28.667969 228.753906 28.390625 228.417969 27.792969 C 230.445312 27.792969 232.773438 27.738281 233.765625 27.933594 C 233.0625 27.261719 228.394531 27.324219 228.417969 26.519531 C 243.601562 26.152344 257 24.839844 271.921875 25.246094 C 273.902344 25.636719 274.894531 26.203125 277.269531 26.519531 C 278.867188 25.929688 273.359375 25.589844 272.691406 24.964844 C 277.15625 24.519531 284.066406 24.527344 287.953125 23.972656 C 288.855469 24.1875 288.613281 24.605469 291.007812 24.539062 C 305.308594 24.882812 314.9375 24.105469 326.117188 23.835938 C 334.941406 23.617188 342.847656 23.703125 351.078125 23.757812 C 351.070312 22.855469 351.0625 21.964844 351.050781 21.09375 C 347.785156 21.140625 344.695312 21.238281 341.964844 21.429688 C 339.980469 21.328125 337.90625 21.253906 335.78125 21.199219 C 334.710938 21.179688 333.636719 21.160156 332.554688 21.136719 C 331.53125 21.125 330.507812 21.113281 329.476562 21.101562 C 325.535156 21.066406 321.558594 21.089844 317.683594 21.109375 C 309.933594 21.152344 302.589844 21.179688 296.769531 20.722656 C 282.527344 20.597656 267.792969 20.460938 254.789062 20.4375 C 245.699219 20.421875 237.933594 21.386719 229.601562 21.570312 C 227.296875 21.621094 221.777344 21.308594 218.917969 21.285156 C 216.929688 21.273438 214.292969 21.515625 212.808594 21.429688 C 212.007812 21.382812 211.277344 21.324219 210.601562 21.246094 C 202.261719 21.644531 190.84375 21.617188 184.914062 21.144531 C 179.269531 21.613281 174.671875 21.214844 168.882812 21.003906 C 168.523438 21.308594 169.972656 21.273438 171.171875 21.289062 C 164.089844 21.957031 156.632812 19.730469 149.039062 20.015625 C 147.722656 19.929688 149.101562 19.34375 147.519531 19.308594 C 147.683594 19.105469 149.789062 19.261719 149.796875 19.023438 C 157.578125 19.511719 163.820312 18.824219 169.648438 18.742188 C 172.421875 18.703125 175.210938 19.117188 178.804688 19.167969 C 180.480469 19.191406 182.34375 19.105469 184.136719 19.035156 C 179.847656 18.957031 175.519531 18.886719 173.882812 18.316406 C 157.785156 18.4375 143.710938 19.441406 127.328125 18.742188 C 105.304688 19.4375 78.835938 17.8125 59.394531 19.871094 C 51.699219 19.765625 49.046875 20.597656 41.078125 20.4375 C 41.792969 20.574219 42.53125 20.703125 43.285156 20.832031 C 44.328125 20.871094 45.40625 20.90625 46.546875 20.945312 C 49.070312 21.015625 51.878906 21.042969 55.15625 21.003906 C 58.996094 20.960938 61.488281 20.4375 67.371094 20.300781 C 73.949219 20.140625 80.265625 20.710938 84.925781 19.730469 C 92.269531 19.980469 99.398438 20.425781 105.53125 19.589844 C 103.628906 20.699219 94.609375 21.714844 88.742188 22.558594 C 77.9375 22.476562 67.257812 22.511719 56.734375 22.515625 C 56.289062 22.511719 55.84375 22.511719 55.394531 22.511719 C 55.960938 22.574219 56.527344 22.640625 57.101562 22.703125 C 79.84375 22.273438 90.90625 25.945312 114.34375 25.390625 L 114.34375 25.8125 C 118.789062 25.472656 121.492188 26.347656 125.800781 26.378906 C 132.644531 26.425781 138.367188 25.355469 143.351562 24.824219 C 144.464844 25.085938 145.863281 25.300781 147.167969 25.53125 C 144.359375 26.4375 137.820312 26.566406 133.429688 26.941406 C 129.871094 27.246094 126.671875 27.699219 118.929688 27.367188 C 114.484375 27.175781 111.042969 26.5 106.714844 26.378906 C 102.835938 26.273438 97.691406 26.636719 96.03125 26.09375 C 94.25 26.140625 92.875 26.265625 91.453125 26.378906 C 88.316406 26.203125 87.09375 25.675781 82.292969 25.8125 C 76.128906 23.75 60 24.324219 48.707031 24.117188 C 46.246094 24.242188 47.640625 23.65625 46.421875 23.546875 C 44.234375 23.617188 42.089844 23.664062 39.988281 23.703125 C 37.960938 23.726562 35.976562 23.75 34.019531 23.773438 C 30.890625 23.796875 27.832031 23.789062 24.8125 23.773438 C 24.695312 28.667969 24.535156 33.5625 24.3125 38.558594 C 24.242188 39.90625 24.179688 41.242188 24.113281 42.582031 C 24.035156 43.855469 23.960938 45.132812 23.882812 46.402344 C 23.71875 48.941406 23.535156 51.464844 23.328125 53.96875 C 23.1875 53.96875 23.042969 53.96875 22.902344 53.96875 C 22.890625 51.441406 22.851562 48.9375 22.804688 46.429688 C 22.753906 43.800781 22.703125 41.171875 22.652344 38.511719 C 22.609375 35.988281 22.582031 33.40625 22.5625 30.796875 C 22.527344 36.960938 22.515625 43.109375 22.679688 49.789062 C 22.953125 60.964844 23.730469 70.597656 23.386719 84.894531 C 23.453125 87.289062 23.03125 87.050781 22.820312 87.949219 C 23.371094 91.839844 23.367188 98.75 23.8125 103.210938 C 24.4375 102.546875 24.773438 97.035156 25.363281 98.636719 C 25.050781 101.007812 24.484375 102.003906 24.09375 103.980469 C 23.6875 118.90625 24.996094 132.300781 25.363281 147.488281 C 26.171875 147.507812 26.105469 142.84375 26.78125 142.140625 C 26.585938 143.128906 26.640625 145.460938 26.636719 147.488281 C 27.238281 147.152344 27.515625 145.09375 27.769531 142.90625 C 27.640625 140.816406 27.273438 144.261719 27.066406 142.140625 C 27.160156 138.335938 27.488281 135.796875 28.339844 136.039062 C 28.4375 132.648438 28.292969 130.199219 29.039062 129.164062 C 29.605469 108.824219 28.714844 96.289062 29.890625 79.554688 C 29.9375 71.113281 30.109375 59.070312 30.597656 52.074219 C 30.472656 49.625 30.445312 46.542969 30.503906 43.226562 C 30.523438 42.4375 30.539062 41.632812 30.558594 40.820312 C 30.585938 40.382812 30.613281 39.945312 30.640625 39.5 C 30.707031 38.628906 30.789062 37.773438 30.882812 36.972656 C 31.167969 37.835938 31.148438 38.484375 31.046875 39.148438 C 30.996094 39.476562 30.925781 39.804688 30.867188 40.140625 C 30.835938 40.3125 30.808594 40.480469 30.785156 40.652344 L 30.757812 40.910156 L 30.738281 41.390625 C 30.5 53.800781 30.796875 67.132812 30.457031 79.554688 C 30.289062 85.734375 29.953125 90.375 30.023438 99.160156 C 30.128906 95.867188 30.253906 92.511719 30.398438 89.078125 C 31.820312 90.4375 31.257812 100.21875 33.367188 99.003906 C 33.546875 105.179688 33.535156 110.824219 33.496094 116.183594 C 33.519531 116.6875 33.542969 117.199219 33.566406 117.722656 C 33.535156 118.386719 33.503906 119.066406 33.472656 119.726562 C 33.40625 128.632812 33.378906 136.859375 34.214844 145.5625 C 34.230469 155.992188 33.574219 164.582031 33.507812 176.855469 C 33.457031 185.589844 33.390625 194.261719 32.527344 200.054688 C 32.496094 200.601562 32.46875 201.136719 32.4375 201.679688 C 32.363281 200.5 32.289062 201.632812 32.296875 202.445312 C 32.28125 202.191406 32.265625 201.925781 32.253906 201.65625 C 31.894531 203.484375 31.429688 204.925781 30.820312 205.855469 C 31.074219 205.347656 31.078125 204.332031 31.03125 203.25 C 30.347656 207.945312 29.8125 219.367188 31.164062 223.050781 C 30.035156 231.644531 32.476562 253.613281 30.597656 262.738281 C 30.910156 270.625 30.859375 276.085938 30.457031 282.582031 C 30.855469 292.332031 31.171875 303.570312 31.371094 315.203125 C 31.414062 318.113281 31.453125 321.042969 31.496094 323.984375 C 31.523438 326.84375 31.546875 329.710938 31.574219 332.566406 C 31.574219 332.636719 31.574219 332.710938 31.574219 332.785156 C 32.316406 333.480469 33.015625 334.207031 33.507812 336.378906 C 33.339844 338.257812 33.210938 338.644531 33.34375 340.613281 C 34.128906 340.628906 34.90625 340.652344 35.679688 340.675781 C 35.738281 339.675781 35.734375 338.507812 35.769531 337.140625 C 36.289062 336.363281 36.683594 334.925781 37.011719 333.113281 C 37.003906 332.949219 37.003906 332.789062 36.988281 332.621094 L 36.964844 332.402344 L 36.957031 332.375 C 36.957031 332.367188 36.957031 332.367188 36.953125 332.289062 L 36.945312 331.929688 L 36.925781 331.21875 C 36.890625 330.269531 36.855469 329.320312 36.820312 328.378906 C 36.3125 317.355469 35.292969 307.675781 34.414062 299.375 C 34.355469 297.78125 34.511719 297.355469 34.558594 296.320312 C 34.0625 292.707031 34.113281 290.671875 33.851562 286.398438 C 34.296875 287.253906 34.171875 286.46875 34.699219 286.398438 C 34.605469 287.175781 34.375 287.191406 34.414062 288.691406 C 34.394531 290.847656 34.816406 290.601562 34.980469 291.742188 C 34.207031 297.652344 35.886719 304.246094 35.832031 310.058594 C 36.988281 314.214844 37.570312 319.40625 37.890625 326.167969 C 38.078125 324.234375 38.261719 322.246094 38.457031 320.347656 C 38.476562 300.574219 40.34375 287.585938 40.015625 270.738281 "/>
<g clip-path="url(#clip1)" clip-rule="nonzero">
<path style=" stroke:none;fill-rule:nonzero;fill:rgb(100%,100%,100%);fill-opacity:1;" d="M 8.628906 294.015625 C 8 301.15625 7.476562 311.144531 8.335938 317.296875 C 8.457031 317.621094 8.578125 317.953125 8.695312 318.28125 C 8.582031 310.605469 8.710938 303.261719 8.539062 295.5625 C 8.5625 295.042969 8.601562 294.53125 8.628906 294.015625 "/>
</g>
<path style=" stroke:none;fill-rule:nonzero;fill:rgb(100%,100%,100%);fill-opacity:1;" d="M 21.359375 319.167969 C 21.359375 308.648438 21.320312 297.964844 21.40625 287.164062 C 20.558594 281.296875 19.542969 272.273438 18.433594 270.371094 C 19.269531 276.503906 18.828125 283.636719 18.578125 290.980469 C 19.558594 295.636719 18.984375 301.957031 19.144531 308.535156 C 19.285156 314.414062 19.808594 316.90625 19.851562 320.75 C 19.886719 324.03125 19.859375 326.835938 19.792969 329.359375 C 19.785156 329.507812 19.78125 329.648438 19.777344 329.796875 C 20.332031 331.054688 20.804688 332.328125 21.316406 333.230469 C 21.328125 328.578125 21.34375 323.890625 21.359375 319.167969 "/>
<path style=" stroke:none;fill-rule:nonzero;fill:rgb(100%,100%,100%);fill-opacity:1;" d="M 358.527344 41.71875 C 358.445312 38.734375 358.371094 35.808594 358.292969 32.984375 C 358.222656 30.105469 358.164062 27.363281 358.152344 24.753906 C 358.449219 22.394531 358.753906 19.777344 359.046875 16.859375 C 358.011719 16.726562 356.917969 16.601562 355.757812 16.476562 C 355.621094 20.988281 355.511719 25.453125 355.527344 29.660156 C 355.527344 34.636719 355.527344 38.882812 355.527344 43.355469 C 355.574219 52.152344 356.160156 55.296875 356.511719 60.910156 C 356.804688 65.507812 356.792969 71.0625 357.082031 75.414062 C 357.417969 80.484375 358.441406 87.195312 358.214844 94.492188 C 358.59375 96.273438 358.753906 98.753906 358.84375 101.507812 C 358.898438 99.996094 358.988281 98.546875 359.140625 97.183594 C 359.035156 93.253906 359.046875 89.046875 359.082031 84.78125 C 358.746094 79.726562 358.394531 74.515625 358.214844 68.546875 C 358.445312 65.261719 358.558594 61.636719 358.644531 58.023438 C 358.582031 57.324219 358.511719 56.636719 358.433594 55.972656 C 358.722656 51.261719 358.660156 46.40625 358.527344 41.71875 "/>
<g clip-path="url(#clip2)" clip-rule="nonzero">
<path style=" stroke:none;fill-rule:nonzero;fill:rgb(100%,100%,100%);fill-opacity:1;" d="M 367.679688 337.96875 C 367.652344 336.511719 367.625 335.066406 367.597656 333.636719 L 367.570312 332.570312 L 367.546875 331.894531 C 367.523438 331.507812 367.503906 331.125 367.484375 330.742188 C 367.996094 325.703125 367.507812 319.933594 367.769531 314.71875 C 369.007812 289.9375 367.476562 264.21875 365.789062 239.917969 C 365.789062 238.132812 365.789062 236.355469 365.789062 234.574219 C 365.382812 227.191406 364.570312 219.945312 364.230469 211.675781 C 363.539062 194.648438 364.117188 174.425781 364.515625 156.722656 C 364.738281 156.644531 365.007812 156.820312 364.941406 155.195312 C 365.644531 137.929688 367.179688 121.546875 367.203125 103.289062 C 367.207031 98.839844 366.738281 94.652344 367.203125 90.3125 C 366.746094 85.671875 366.503906 79.855469 366.214844 74.289062 C 366.398438 69.074219 366.394531 62.273438 366.207031 55.695312 C 366.113281 52.402344 365.972656 49.171875 365.785156 46.214844 C 365.691406 44.738281 365.585938 43.332031 365.46875 42.019531 C 365.4375 41.695312 365.410156 41.371094 365.378906 41.054688 C 365.347656 40.546875 365.316406 40.050781 365.285156 39.5625 C 365.214844 38.550781 365.144531 37.582031 365.082031 36.667969 C 365.253906 32.167969 365.230469 27.863281 365.148438 23.664062 C 365.046875 19.519531 364.949219 15.382812 364.84375 11.058594 C 364.550781 11.066406 364.242188 11.066406 363.941406 11.074219 C 363.863281 18.367188 363.746094 25.664062 363.613281 32.710938 C 363.671875 33.328125 363.738281 33.890625 363.808594 34.382812 C 363.796875 35.558594 363.785156 36.738281 363.769531 37.914062 C 363.765625 39.023438 363.761719 40.132812 363.757812 41.242188 C 363.753906 42.691406 363.769531 44.128906 363.792969 45.566406 C 363.84375 48.4375 363.941406 51.285156 364.054688 54.097656 C 364.289062 59.722656 364.605469 65.203125 364.800781 70.472656 C 364.386719 84.730469 365.402344 100.386719 364.660156 116.269531 C 364.492188 119.851562 363.847656 122.527344 363.667969 126.191406 C 363.511719 129.367188 363.691406 133.261719 363.527344 136.878906 C 363.292969 142.082031 362.59375 147.101562 362.394531 152.140625 C 362.304688 154.453125 362.503906 157.515625 362.394531 159.773438 C 362.324219 161.277344 361.933594 162.222656 361.828125 163.589844 C 361.726562 164.972656 361.683594 166.460938 361.652344 167.960938 C 361.730469 180.652344 361.6875 192.714844 361.648438 204.109375 C 361.6875 207.703125 361.742188 211.460938 361.828125 215.492188 C 361.757812 214.871094 361.6875 214.246094 361.617188 213.621094 C 361.613281 215.660156 361.609375 217.675781 361.609375 219.667969 C 361.605469 222.867188 362.003906 226.234375 361.324219 228.832031 C 360.628906 221.839844 360.375 213.21875 360.300781 203.992188 C 359.882812 201.886719 359.378906 200.25 358.71875 199.464844 C 358.691406 191.882812 358.472656 184.78125 358.71875 177.328125 C 358.894531 171.957031 359.128906 170.121094 359.003906 161.296875 C 358.972656 159.363281 358.878906 157.476562 358.785156 155.625 C 358.378906 159.003906 357.917969 162.101562 357.417969 164.996094 C 357.496094 168.28125 357.5625 171.609375 357.589844 175.035156 C 356.785156 177.339844 356.972656 184.953125 356.738281 190.300781 C 356.828125 191.859375 357.453125 190.519531 357.304688 193.359375 C 357.199219 204.839844 354.945312 205.699219 354.476562 213.964844 C 354.390625 215.449219 354.632812 218.082031 354.617188 220.074219 C 354.597656 222.933594 354.285156 228.453125 354.335938 230.753906 C 354.359375 231.835938 354.398438 232.90625 354.445312 233.976562 C 355.824219 242.582031 356.199219 256.367188 356.65625 270.046875 C 356.957031 279.039062 357.210938 282.128906 357.082031 292.179688 C 357.023438 296.679688 356.425781 299.460938 356.230469 302.863281 C 356.203125 303.332031 356.457031 304.691406 356.375 305.914062 C 356.078125 310.164062 355.09375 314.601562 354.820312 319.65625 C 354.8125 319.789062 354.808594 319.917969 354.800781 320.050781 C 354.820312 323.542969 354.835938 327.097656 354.804688 330.628906 C 354.792969 331.660156 354.78125 332.683594 354.765625 333.707031 C 354.75 334.789062 354.726562 335.867188 354.703125 336.933594 C 354.652344 339.0625 354.578125 341.136719 354.476562 343.117188 C 354.667969 345.851562 354.765625 348.941406 354.8125 352.207031 C 348.738281 352.296875 341.8125 352.207031 335.308594 352.253906 C 334.488281 352.261719 333.679688 352.273438 332.878906 352.285156 C 332.894531 352.289062 332.910156 352.292969 332.925781 352.296875 C 334.417969 354.125 331.226562 354.953125 328.351562 356.257812 C 323.21875 356.445312 320.242188 356.847656 318.59375 357.394531 C 322.363281 357.074219 325.785156 356.714844 332.550781 356.679688 C 337.023438 356.679688 341.265625 356.679688 346.242188 356.679688 C 350.480469 356.664062 354.976562 356.777344 359.519531 356.914062 C 359.742188 350.121094 360.035156 343.265625 359.992188 337.59375 C 359.980469 336.347656 359.90625 335.074219 359.835938 333.816406 C 359.804688 333.230469 359.773438 332.648438 359.738281 332.066406 C 359.71875 331.625 359.703125 331.179688 359.707031 330.742188 C 359.765625 326.613281 360.394531 321.597656 360.414062 317.003906 C 360.421875 316.304688 360.113281 313.9375 360.132812 313.183594 C 360.195312 310.917969 360.597656 308.492188 360.699219 306.324219 C 361.375 291.617188 361.054688 271.777344 361.265625 253.65625 C 361.308594 249.96875 361.59375 246.613281 361.546875 242.96875 C 361.515625 240.523438 361.226562 237.839844 361.265625 235.335938 C 361.34375 230.300781 362.230469 226.023438 361.828125 220.832031 C 362.164062 221.078125 362.359375 222.042969 362.820312 221.597656 C 362.285156 225.601562 363.121094 230.375 363.527344 233.804688 C 363.679688 245.191406 364.339844 253.851562 364.515625 265.105469 C 364.339844 267.460938 364.023438 269.042969 363.808594 271.210938 C 363.773438 279.011719 363.578125 286.785156 363.527344 294.109375 C 363.472656 302.042969 363.832031 310.316406 363.808594 317.769531 C 363.796875 321.90625 363.519531 326.078125 363.371094 330.085938 C 363.351562 330.585938 363.335938 331.085938 363.316406 331.582031 L 363.300781 332.320312 C 363.292969 332.707031 363.289062 333.089844 363.285156 333.472656 C 363.265625 335.027344 363.261719 336.554688 363.28125 338.066406 C 363.3125 341.089844 363.425781 344.035156 363.667969 346.96875 C 363.605469 351.234375 363.46875 355.957031 363.335938 360.734375 C 352.816406 360.453125 342.179688 360.171875 334.839844 360.5 C 330.257812 359.996094 323.582031 359.941406 316.96875 359.773438 C 317.472656 360.898438 318.769531 362.152344 318.433594 363.328125 C 320.1875 363.757812 321.027344 364.1875 321.257812 364.609375 C 323.027344 364.570312 324.769531 364.480469 326.441406 364.316406 C 328.476562 364.386719 330.578125 364.457031 332.722656 364.53125 C 333.261719 364.550781 333.800781 364.570312 334.34375 364.589844 L 335.3125 364.617188 C 335.804688 364.625 336.300781 364.636719 336.796875 364.648438 C 338.789062 364.6875 340.792969 364.722656 342.8125 364.761719 C 350.914062 364.914062 359.347656 365.054688 367.734375 365.128906 C 367.789062 359.027344 367.8125 352.882812 367.777344 346.867188 C 367.746094 343.863281 367.710938 340.890625 367.679688 337.96875 "/>
</g>
<path style=" stroke:none;fill-rule:nonzero;fill:rgb(100%,100%,100%);fill-opacity:1;" d="M 339.238281 15.390625 C 338.425781 15.367188 337.601562 15.347656 336.765625 15.328125 C 336 15.3125 335.226562 15.296875 334.441406 15.28125 C 332.046875 15.238281 329.527344 15.253906 326.878906 15.347656 C 324.902344 15.417969 323.078125 15.550781 321.359375 15.722656 C 324.238281 15.914062 327.078125 16.164062 329.589844 16.195312 C 330.023438 16.203125 330.46875 16.1875 330.910156 16.164062 C 331.492188 16.132812 332.078125 16.101562 332.664062 16.070312 C 333.917969 16 335.1875 15.921875 336.4375 15.914062 C 341.734375 15.875 348.0625 16.125 354.414062 16.339844 C 351.328125 16.035156 347.84375 15.769531 343.929688 15.578125 C 342.425781 15.503906 340.855469 15.4375 339.238281 15.390625 "/>
<path style=" stroke:none;fill-rule:nonzero;fill:rgb(100%,100%,100%);fill-opacity:1;" d="M 192.484375 351.023438 C 192.78125 351.019531 193.078125 351.019531 193.371094 351.019531 C 192.441406 350.816406 191.484375 350.617188 190.492188 350.425781 C 187.003906 350.746094 182.835938 350.941406 178.769531 351.15625 C 179.425781 351.300781 180.074219 351.445312 180.714844 351.589844 C 184.496094 351.347656 188.449219 351.066406 192.484375 351.023438 "/>
<path style=" stroke:none;fill-rule:nonzero;fill:rgb(100%,100%,100%);fill-opacity:1;" d="M 200.265625 19.1875 C 198.226562 18.863281 195.714844 18.632812 192.203125 18.597656 C 190.085938 18.488281 190.292969 18.808594 189.890625 19.015625 C 190.695312 19.089844 191.351562 19.222656 191.78125 19.449219 C 193.984375 19.144531 197.089844 19.167969 200.265625 19.1875 "/>
<path style=" stroke:none;fill-rule:nonzero;fill:rgb(100%,100%,100%);fill-opacity:1;" d="M 16.648438 114.1875 C 16.816406 114.332031 16.984375 114.488281 17.160156 114.671875 C 16.625 103.859375 17.613281 95.398438 17.730469 87.949219 C 17.804688 83.007812 17.027344 79.617188 17.585938 74.972656 C 17.300781 71.5625 16.761719 68.480469 16.191406 65.304688 C 17.027344 73.84375 16.726562 87.554688 17.246094 96.714844 C 17.097656 101.582031 16.960938 108.296875 16.648438 114.1875 "/>
<path style=" stroke:none;fill-rule:nonzero;fill:rgb(100%,100%,100%);fill-opacity:1;" d="M 19.425781 157.40625 C 18.664062 157.878906 18.402344 161.03125 18.433594 165.808594 C 18.761719 167.621094 19.425781 167.59375 19.707031 169.617188 C 18.996094 174.347656 18.433594 166.800781 17.730469 166.566406 C 18.394531 171.503906 17.683594 179.667969 18.292969 184.121094 C 17.289062 186.027344 18.074219 192.308594 18.011719 197.097656 C 17.964844 200.691406 17.550781 203.484375 17.585938 206.257812 C 17.667969 212.082031 18.355469 218.328125 17.871094 226.105469 C 18.105469 226.113281 17.949219 228.222656 18.152344 228.386719 C 18.191406 226.804688 18.777344 228.183594 18.859375 226.867188 C 18.574219 219.273438 20.804688 211.816406 20.136719 204.730469 C 20.121094 205.929688 20.152344 207.382812 19.851562 207.019531 C 20.058594 201.234375 20.460938 196.636719 19.992188 190.992188 C 20.652344 182.722656 20.441406 163.796875 19.425781 157.40625 "/>
<path style=" stroke:none;fill-rule:nonzero;fill:rgb(100%,100%,100%);fill-opacity:1;" d="M 19.851562 155.125 C 19.789062 152.914062 19.554688 151.640625 19.144531 151.300781 C 19.019531 152.648438 18.800781 153.53125 18.71875 155.125 C 19.125 156.230469 19.554688 157.253906 19.851562 155.125 "/>
<path style=" stroke:none;fill-rule:nonzero;fill:rgb(100%,100%,100%);fill-opacity:1;" d="M 206.285156 20.863281 C 206.632812 20.816406 206.914062 20.753906 207.15625 20.691406 C 206.390625 20.527344 205.675781 20.355469 204.949219 20.175781 C 204.492188 20.394531 204.683594 20.621094 206.285156 20.863281 "/>
<path style=" stroke:none;fill-rule:nonzero;fill:rgb(100%,100%,100%);fill-opacity:1;" d="M 30.960938 200.511719 C 31.121094 197.394531 31.726562 195.515625 31.8125 192.882812 C 31.894531 190.226562 31.6875 188.457031 31.5 186.367188 C 31.332031 187.109375 31.1875 187.964844 31.023438 188.703125 C 31.117188 189.480469 31.347656 189.488281 31.304688 190.992188 C 31.328125 194.210938 31.089844 190.980469 30.882812 190.992188 C 30.585938 194.515625 30.238281 200.058594 30.980469 202.054688 C 30.953125 201.492188 30.9375 200.957031 30.960938 200.511719 "/>
<path style=" stroke:none;fill-rule:nonzero;fill:rgb(100%,100%,100%);fill-opacity:1;" d="M 91.03125 35.003906 C 93.804688 35.816406 101.25 34.824219 104.773438 35.289062 C 106.121094 35.160156 107 34.945312 108.585938 34.863281 C 108.730469 35.167969 118.390625 35.410156 120.035156 34.863281 C 110 34.824219 101.78125 34.832031 91.03125 35.003906 "/>
<path style=" stroke:none;fill-rule:nonzero;fill:rgb(100%,100%,100%);fill-opacity:1;" d="M 122.324219 35.714844 C 124.871094 35.714844 124.933594 35.253906 127.664062 35.289062 C 126.617188 34.964844 129.632812 34.753906 127.664062 34.722656 C 126.785156 35.21875 123.335938 35.238281 122.324219 35.714844 "/>
<path style=" stroke:none;fill-rule:nonzero;fill:rgb(100%,100%,100%);fill-opacity:1;" d="M 345.90625 346.355469 C 345.78125 346.710938 347.082031 346.796875 348.199219 346.921875 C 348.433594 346.730469 349.285156 346.652344 348.960938 346.355469 C 347.945312 346.355469 346.929688 346.355469 345.90625 346.355469 "/>
<path style=" stroke:none;fill-rule:nonzero;fill:rgb(100%,100%,100%);fill-opacity:1;" d="M 244.398438 332.355469 C 227.984375 333.132812 212.441406 333.074219 195.542969 333.628906 C 193.816406 333.964844 192.625 334.40625 192.484375 335.042969 C 193.691406 335.058594 195.140625 335.023438 194.78125 335.324219 C 208.796875 334.488281 225.203125 334.242188 242.101562 334.761719 C 243.453125 334.632812 243.074219 334.183594 245.921875 334.335938 C 249.058594 334.367188 249.167969 334.957031 252.789062 334.902344 C 253.351562 333.429688 243.03125 333.972656 244.398438 332.355469 "/>
<path style=" stroke:none;fill-rule:nonzero;fill:rgb(100%,100%,100%);fill-opacity:1;" d="M 76.476562 333.0625 C 76.136719 332.652344 74.867188 332.417969 72.65625 332.355469 C 72.53125 332.847656 75.347656 332.800781 76.476562 333.0625 "/>
<g clip-path="url(#clip3)" clip-rule="nonzero">
<path style=" stroke:none;fill-rule:nonzero;fill:rgb(100%,100%,100%);fill-opacity:1;" d="M 49.816406 365.574219 C 46.957031 365.667969 43.898438 365.894531 41.074219 366.160156 C 40.722656 366.195312 40.371094 366.226562 40.027344 366.261719 L 39.75 366.285156 L 39.261719 366.3125 C 38.9375 366.332031 38.613281 366.347656 38.296875 366.367188 C 37.003906 366.441406 35.757812 366.511719 34.5625 366.582031 C 32.125 366.738281 29.90625 366.878906 28.015625 367.003906 C 28.398438 367.332031 29.632812 367.585938 30.773438 367.851562 C 32.492188 367.84375 34.121094 367.835938 35.675781 367.832031 C 37.171875 367.808594 38.59375 367.785156 39.953125 367.765625 C 41.375 367.710938 42.667969 367.632812 43.878906 367.539062 C 46.296875 367.351562 48.386719 367.101562 50.527344 366.863281 C 51.675781 367.425781 58.128906 367.363281 61.210938 367.144531 C 60.488281 365.675781 55.546875 365.375 49.816406 365.574219 "/>
</g>
<path style=" stroke:none;fill-rule:nonzero;fill:rgb(100%,100%,100%);fill-opacity:1;" d="M 34.132812 243.65625 C 33.824219 243.78125 34.070312 240.953125 33.988281 239.847656 C 33.640625 239.308594 33.394531 243.101562 33.710938 243.65625 C 33.753906 240.960938 33.992188 246.886719 34.132812 243.65625 "/>
<path style=" stroke:none;fill-rule:nonzero;fill:rgb(100%,100%,100%);fill-opacity:1;" d="M 35.261719 152.828125 C 35.222656 154.839844 35.460938 155.335938 35.832031 155.125 C 35.875 153.109375 35.636719 152.617188 35.261719 152.828125 "/>
<path style=" stroke:none;fill-rule:nonzero;fill:rgb(100%,100%,100%);fill-opacity:1;" d="M 115.113281 31.1875 C 98.09375 31.253906 79.328125 31 62.449219 31.609375 C 58.203125 31.765625 54.375 32.226562 50.238281 32.320312 C 48.148438 32.363281 45.898438 32.359375 43.578125 32.339844 C 42.417969 32.328125 41.234375 32.3125 40.046875 32.296875 C 39.421875 32.28125 38.792969 32.269531 38.164062 32.25 C 35.828125 32.195312 33.394531 32.1875 31.6875 32.460938 C 31.464844 32.382812 31.277344 32.320312 31.125 32.277344 C 30.941406 32.585938 31.03125 32.929688 31.105469 33.367188 C 31.183594 33.808594 31.25 34.324219 31.023438 35.160156 C 31.328125 35.667969 31.8125 36.503906 32.015625 36.144531 C 32.171875 36.171875 32.230469 35.917969 32.296875 35.679688 C 32.144531 34.769531 32.113281 33.984375 32.097656 33.25 C 33.089844 33.234375 34.023438 33.246094 34.9375 33.023438 C 35.066406 33.046875 35.191406 33.0625 35.320312 33.085938 C 36.644531 33.289062 37.828125 33.445312 38.945312 33.554688 L 39.40625 33.597656 L 39.632812 33.617188 C 39.730469 33.621094 39.71875 33.628906 39.953125 33.632812 C 40.683594 33.65625 41.410156 33.671875 42.136719 33.695312 C 43.59375 33.71875 45.042969 33.742188 46.492188 33.765625 C 52.292969 33.820312 58.070312 33.714844 64.007812 33.566406 C 75.878906 33.269531 88.375 32.789062 102.898438 33.023438 C 104.304688 32.765625 106.042969 32.570312 108.242188 32.460938 C 118.085938 32.601562 132.507812 33.386719 140.53125 32.09375 C 141.589844 31.921875 142.539062 31.71875 143.351562 31.46875 C 135.050781 31.023438 124.933594 31.148438 115.113281 31.1875 "/>
<path style=" stroke:none;fill-rule:nonzero;fill:rgb(100%,100%,100%);fill-opacity:1;" d="M 118.164062 29.347656 C 126.402344 29.230469 135.453125 29.550781 140.300781 30.199219 C 152.875 30.503906 168.222656 32.195312 181.515625 31.328125 C 191.859375 31.945312 199.773438 30.777344 210.519531 31.1875 C 211.875 30.964844 214.585938 30.996094 213.578125 30.339844 C 186.59375 29.402344 157.828125 29.917969 136.484375 28.5 C 132.660156 28.625 129.445312 28.105469 126.5625 28.5 C 126.828125 27.777344 121.464844 27.878906 118.929688 28.074219 C 118.136719 28.402344 117.378906 29.160156 118.164062 29.347656 "/>
<path style=" stroke:none;fill-rule:nonzero;fill:rgb(100%,100%,100%);fill-opacity:1;" d="M 212.808594 26.941406 C 206.589844 27.292969 200.273438 26.746094 193.734375 27.082031 L 193.734375 27.511719 C 197.441406 28.070312 201.152344 27.871094 205.941406 28.074219 C 207.890625 27.636719 211.703125 27.539062 212.808594 26.941406 "/>
<path style=" stroke:none;fill-rule:nonzero;fill:rgb(100%,100%,100%);fill-opacity:1;" d="M 224.261719 30.480469 C 222.628906 30.316406 215.304688 30.074219 215.863281 30.761719 C 218.902344 30.492188 221.636719 30.921875 224.261719 30.480469 "/>
<path style=" stroke:none;fill-rule:nonzero;fill:rgb(100%,100%,100%);fill-opacity:1;" d="M 342.929688 99.699219 C 342.550781 95.441406 342.777344 89.292969 342.515625 83.042969 C 341.855469 82.382812 342.710938 85.023438 342.234375 85.339844 C 342.027344 84.128906 341.941406 79.273438 342.515625 79.992188 C 342.105469 70.234375 342.519531 61.421875 341.523438 54.042969 C 342.367188 50.769531 341.191406 45.855469 340.675781 44.886719 C 340.816406 56.933594 341.746094 62.09375 341.523438 71.597656 C 342.40625 74.558594 340.929688 81.445312 341.382812 84.570312 C 342.050781 82.28125 341.808594 91.421875 342.089844 93.734375 C 341.878906 94.621094 341.511719 94.683594 341.382812 96.023438 C 341.617188 96.035156 341.464844 98.140625 341.667969 98.3125 C 341.574219 93.574219 342.175781 97.34375 342.371094 94.492188 C 342.34375 95.9375 342.535156 96.179688 342.515625 97.546875 C 342.160156 94.691406 342.097656 101.105469 342.371094 101.363281 C 342.394531 100.464844 342.347656 99.199219 342.515625 99.082031 C 342.691406 99.113281 342.710938 100.011719 342.929688 99.839844 C 342.933594 99.839844 342.933594 99.839844 342.941406 99.835938 C 342.9375 99.792969 342.933594 99.746094 342.929688 99.699219 "/>
<path style=" stroke:none;fill-rule:nonzero;fill:rgb(100%,100%,100%);fill-opacity:1;" d="M 342.898438 102.878906 C 342.5625 102.785156 342.253906 102.820312 342.234375 104.421875 C 342.476562 105.796875 342.753906 104.796875 342.886719 103.496094 C 342.910156 103.300781 342.925781 103.09375 342.941406 102.894531 C 342.925781 102.886719 342.910156 102.886719 342.898438 102.878906 "/>
<path style=" stroke:none;fill-rule:nonzero;fill:rgb(100%,100%,100%);fill-opacity:1;" d="M 343.363281 108.230469 C 343 107.863281 342.5625 110.933594 342.941406 112.050781 C 342.984375 110.246094 343.429688 110.632812 343.363281 108.230469 "/>
<path style=" stroke:none;fill-rule:nonzero;fill:rgb(100%,100%,100%);fill-opacity:1;" d="M 342.65625 125.792969 C 342.320312 123.257812 342.902344 119.257812 342.371094 118.921875 C 342.433594 121.390625 342.1875 125.527344 342.65625 125.792969 "/>
<path style=" stroke:none;fill-rule:nonzero;fill:rgb(100%,100%,100%);fill-opacity:1;" d="M 343.222656 134.949219 C 343.230469 134.003906 343.191406 133.324219 343.125 132.773438 C 343.007812 131.757812 342.808594 131.210938 342.65625 130.367188 C 342.707031 132.574219 342.894531 134.050781 343.199219 134.878906 C 343.207031 134.902344 343.210938 134.929688 343.222656 134.949219 "/>
<path style=" stroke:none;fill-rule:nonzero;fill:rgb(100%,100%,100%);fill-opacity:1;" d="M 336.152344 216.617188 C 336.609375 216.03125 336.890625 214.507812 337 212.039062 C 336.476562 212.269531 336.46875 215.28125 336.152344 216.617188 "/>
<g clip-path="url(#clip4)" clip-rule="nonzero">
<path style=" stroke:none;fill-rule:nonzero;fill:rgb(100%,100%,100%);fill-opacity:1;" d="M 168.832031 351.871094 C 171.699219 351.550781 175.195312 351.34375 178.769531 351.15625 C 182.835938 350.941406 187.003906 350.746094 190.492188 350.425781 C 192.085938 350.277344 193.546875 350.105469 194.78125 349.890625 C 202.277344 350.183594 211.277344 350.867188 216.917969 350.316406 C 217.53125 350.953125 221.089844 351.050781 220.738281 351.871094 C 212.371094 351.449219 202.992188 350.949219 193.371094 351.019531 C 193.078125 351.019531 192.78125 351.019531 192.484375 351.023438 C 188.449219 351.066406 184.496094 351.347656 180.714844 351.589844 C 176.484375 351.863281 172.472656 352.085938 168.832031 351.871094 Z M 160.429688 352.296875 C 160.691406 351.632812 164.660156 351.980469 166.542969 352.011719 C 164.804688 352.417969 163.59375 352.097656 160.429688 352.296875 Z M 18.859375 352.773438 C 18.976562 346.582031 19.261719 341.792969 19.5 336.835938 C 19.554688 335.605469 19.609375 334.347656 19.664062 333.042969 C 19.699219 332.007812 19.738281 330.921875 19.777344 329.796875 C 19.78125 329.648438 19.785156 329.507812 19.792969 329.359375 C 19.859375 326.835938 19.886719 324.03125 19.851562 320.75 C 19.808594 316.90625 19.285156 314.414062 19.144531 308.535156 C 18.984375 301.957031 19.558594 295.636719 18.578125 290.980469 C 18.828125 283.636719 19.269531 276.503906 18.433594 270.371094 C 19.542969 272.273438 20.558594 281.296875 21.40625 287.164062 C 21.320312 297.964844 21.359375 308.648438 21.359375 319.167969 C 21.34375 323.890625 21.328125 328.578125 21.316406 333.230469 C 21.3125 333.789062 21.3125 334.351562 21.3125 334.910156 C 21.273438 340.273438 21.207031 345.621094 21.089844 351.054688 C 26.496094 351.175781 31.890625 351.347656 37.40625 351.59375 C 38.75 351.660156 40.089844 351.726562 41.425781 351.792969 C 42.703125 351.871094 43.976562 351.945312 45.25 352.019531 C 47.789062 352.183594 50.308594 352.371094 52.816406 352.578125 C 52.816406 352.71875 52.816406 352.859375 52.816406 353 C 50.289062 353.015625 47.785156 353.054688 45.273438 353.101562 C 42.648438 353.148438 40.015625 353.199219 37.355469 353.25 C 31.402344 353.347656 25.191406 353.40625 18.851562 353.292969 C 18.855469 353.128906 18.855469 352.949219 18.859375 352.773438 Z M 18.71875 155.125 C 18.800781 153.53125 19.019531 152.648438 19.144531 151.300781 C 19.554688 151.640625 19.789062 152.914062 19.851562 155.125 C 19.554688 157.253906 19.125 156.230469 18.71875 155.125 Z M 19.851562 207.019531 C 20.152344 207.382812 20.121094 205.929688 20.136719 204.730469 C 20.804688 211.816406 18.574219 219.273438 18.859375 226.867188 C 18.777344 228.183594 18.191406 226.804688 18.152344 228.386719 C 17.949219 228.222656 18.105469 226.113281 17.871094 226.105469 C 18.355469 218.328125 17.667969 212.082031 17.585938 206.257812 C 17.550781 203.484375 17.964844 200.691406 18.011719 197.097656 C 18.074219 192.308594 17.289062 186.027344 18.292969 184.121094 C 17.683594 179.667969 18.394531 171.503906 17.730469 166.566406 C 18.433594 166.800781 18.996094 174.347656 19.707031 169.617188 C 19.425781 167.59375 18.761719 167.621094 18.433594 165.808594 C 18.402344 161.03125 18.664062 157.878906 19.425781 157.40625 C 20.441406 163.796875 20.652344 182.722656 19.992188 190.992188 C 20.460938 196.636719 20.058594 201.234375 19.851562 207.019531 Z M 11.480469 36.542969 C 11.414062 33.296875 11.328125 30.109375 11.222656 26.992188 C 11.351562 23.441406 11.492188 18.203125 11.554688 12.707031 C 12.308594 12.714844 13.0625 12.722656 13.8125 12.726562 C 21.695312 12.78125 29.4375 12.652344 33.226562 12.09375 C 34.40625 12.105469 35.585938 12.121094 36.761719 12.132812 C 37.871094 12.136719 38.980469 12.144531 40.089844 12.144531 C 41.535156 12.148438 42.976562 12.136719 44.414062 12.113281 C 47.285156 12.0625 50.132812 11.964844 52.941406 11.847656 C 58.566406 11.613281 64.050781 11.300781 69.316406 11.105469 C 78.714844 11.378906 88.726562 11.03125 99.003906 10.972656 C 104.320312 10.945312 109.703125 10.992188 115.113281 11.246094 C 116.589844 11.316406 117.914062 11.464844 119.214844 11.632812 C 121.070312 11.867188 122.882812 12.128906 125.035156 12.234375 C 128.214844 12.390625 132.105469 12.214844 135.722656 12.378906 C 140.929688 12.613281 145.949219 13.3125 150.988281 13.511719 C 153.296875 13.597656 156.359375 13.402344 158.621094 13.511719 C 160.125 13.582031 161.066406 13.972656 162.433594 14.074219 C 166.671875 14.394531 171.875 14.148438 175.40625 14.640625 C 187.957031 14.253906 199.296875 14.410156 214.335938 14.074219 C 207.59375 14.851562 200.28125 15.523438 198.308594 17.1875 C 190.726562 17.21875 183.625 17.429688 176.175781 17.1875 C 170.800781 17.007812 168.964844 16.773438 160.140625 16.90625 C 156.160156 16.960938 152.398438 17.296875 148.695312 17.328125 C 138.800781 17.414062 128.621094 16.90625 118.929688 16.90625 C 110.65625 16.902344 102.402344 17.480469 96.03125 16.761719 C 82.730469 17.125 66.292969 16.148438 54.816406 17.46875 C 50.105469 17.1875 45.25 17.246094 40.566406 17.382812 C 37.578125 17.460938 34.652344 17.535156 31.828125 17.609375 C 28.949219 17.683594 26.207031 17.742188 23.601562 17.75 C 21.242188 17.453125 18.625 17.148438 15.703125 16.859375 C 15.308594 19.980469 14.941406 23.679688 14.65625 27.957031 C 14.570312 29.246094 14.492188 30.582031 14.421875 31.976562 C 14.347656 33.484375 14.285156 35.046875 14.234375 36.667969 C 14.214844 37.480469 14.195312 38.304688 14.171875 39.140625 C 14.15625 39.902344 14.140625 40.679688 14.125 41.460938 C 14.082031 43.855469 14.101562 46.378906 14.195312 49.023438 C 14.425781 55.609375 15.34375 60.558594 16.191406 65.304688 C 16.761719 68.480469 17.300781 71.5625 17.585938 74.972656 C 17.027344 79.617188 17.804688 83.007812 17.730469 87.949219 C 17.613281 95.398438 16.625 103.859375 17.160156 114.671875 C 16.984375 114.488281 16.816406 114.332031 16.648438 114.1875 C 15.429688 113.140625 14.457031 112.90625 13.484375 110.851562 C 13.023438 111.917969 13.015625 115.417969 12.355469 115.433594 C 12.292969 104.445312 11.980469 93.199219 11.792969 82.609375 C 11.652344 75.019531 11.722656 66.253906 11.722656 57.46875 C 11.722656 53.078125 11.703125 48.683594 11.628906 44.429688 C 11.582031 41.75 11.527344 39.109375 11.480469 36.542969 Z M 264.5 11.433594 C 266.558594 11.613281 268.0625 11.898438 270.058594 12.09375 C 277.859375 12.128906 285.632812 12.328125 292.957031 12.378906 C 300.886719 12.433594 309.164062 12.074219 316.613281 12.09375 C 320.753906 12.105469 324.925781 12.382812 328.929688 12.535156 C 329.433594 12.550781 329.929688 12.570312 330.425781 12.585938 L 331.167969 12.605469 C 331.550781 12.613281 331.933594 12.613281 332.316406 12.621094 C 333.871094 12.636719 335.402344 12.640625 336.914062 12.621094 C 339.933594 12.589844 342.878906 12.476562 345.8125 12.234375 C 350.078125 12.300781 354.804688 12.433594 359.578125 12.566406 C 359.578125 12.597656 359.578125 12.628906 359.574219 12.65625 C 359.296875 23.144531 359.019531 33.746094 359.34375 41.070312 C 358.863281 45.433594 358.792969 51.710938 358.644531 58.023438 C 358.558594 61.636719 358.445312 65.261719 358.214844 68.546875 C 358.394531 74.515625 358.746094 79.726562 359.082031 84.78125 C 359.726562 94.582031 360.304688 103.773438 359.484375 116.628906 C 358.945312 112.265625 359.007812 106.441406 358.84375 101.507812 C 358.753906 98.753906 358.59375 96.273438 358.214844 94.492188 C 358.441406 87.195312 357.417969 80.484375 357.082031 75.414062 C 356.792969 71.0625 356.804688 65.507812 356.511719 60.910156 C 356.160156 55.296875 355.574219 52.152344 355.527344 43.355469 C 355.527344 38.882812 355.527344 34.636719 355.527344 29.660156 C 355.511719 25.453125 355.621094 20.988281 355.757812 16.476562 C 355.757812 16.445312 355.757812 16.414062 355.761719 16.386719 C 355.308594 16.371094 354.863281 16.355469 354.414062 16.339844 C 348.0625 16.125 341.734375 15.875 336.4375 15.914062 C 335.1875 15.921875 333.917969 16 332.664062 16.070312 C 332.078125 16.101562 331.492188 16.132812 330.910156 16.164062 C 330.46875 16.1875 330.023438 16.203125 329.589844 16.195312 C 327.078125 16.164062 324.238281 15.914062 321.359375 15.722656 C 319.511719 15.601562 317.648438 15.5 315.847656 15.492188 C 315.148438 15.484375 312.78125 15.789062 312.03125 15.773438 C 309.765625 15.710938 307.335938 15.304688 305.167969 15.203125 C 293.769531 14.683594 279.28125 14.757812 264.898438 14.71875 C 260.730469 14.707031 256.574219 14.6875 252.503906 14.640625 C 248.8125 14.597656 245.457031 14.3125 241.8125 14.359375 C 239.367188 14.386719 236.683594 14.679688 234.179688 14.640625 C 229.144531 14.5625 224.871094 13.675781 219.679688 14.074219 C 219.921875 13.746094 220.890625 13.542969 220.441406 13.085938 C 224.445312 13.621094 229.222656 12.785156 232.652344 12.378906 C 243.035156 12.238281 251.160156 11.675781 261.046875 11.449219 C 262 11.425781 262.960938 11.402344 263.949219 11.386719 C 264.140625 11.402344 264.316406 11.417969 264.5 11.433594 Z M 362.171875 75.414062 C 361.625 76.019531 361.625 71.757812 362.171875 72.355469 C 362.160156 74.445312 362.40625 73.898438 362.171875 75.414062 Z M 205.472656 347.914062 C 204.871094 348.039062 204.644531 348.230469 204.703125 348.476562 C 201.332031 348.5625 202.074219 347.714844 205.472656 347.914062 Z M 97.847656 342.535156 C 115.894531 342.007812 129.445312 343.128906 144.40625 341.6875 C 154.839844 341.671875 163.425781 342.328125 175.703125 342.394531 C 188.34375 342.464844 200.859375 342.578125 204.703125 345.082031 C 203.738281 344.601562 200.96875 345.023438 199.359375 344.941406 C 196.238281 344.78125 194.363281 344.175781 191.730469 344.09375 C 186.886719 343.941406 184.996094 344.757812 178.757812 344.65625 C 176.796875 344.671875 177.53125 345.183594 176.464844 345.367188 C 147.617188 346.4375 121.210938 346.902344 87.921875 345.507812 C 89.28125 344.082031 99.0625 344.648438 97.847656 342.535156 Z M 119.976562 338.71875 C 126.96875 336.886719 134.316406 336.167969 149.753906 336.882812 C 153.039062 337.035156 156.429688 337.703125 159.671875 337.871094 C 160.226562 337.898438 160.78125 337.917969 161.332031 337.933594 C 162.105469 337.957031 162.878906 337.96875 163.636719 337.976562 C 168.273438 338.007812 172.542969 337.8125 174.9375 338.4375 C 172.925781 340.375 156.695312 339.675781 151.277344 340.980469 C 148.78125 341.019531 149.066406 340.542969 147.457031 340.417969 C 142.4375 340.5 140.105469 340.082031 136.773438 339.851562 C 128.785156 339.546875 112.492188 340.574219 107.003906 339.425781 C 111.835938 339.726562 114.851562 338.34375 119.976562 338.71875 Z M 215.390625 348.335938 C 215.390625 348.476562 215.390625 348.617188 215.390625 348.761719 C 212.21875 348.886719 206.472656 349.117188 206.226562 348.335938 C 210.007812 348.019531 211.464844 348.136719 215.390625 348.335938 Z M 223.023438 348.476562 C 223.578125 348.863281 221.507812 348.761719 221.492188 349.042969 C 220.488281 348.757812 218.183594 348.714844 217.6875 348.335938 C 220.328125 348.222656 220.613281 348.546875 223.023438 348.476562 Z M 247.445312 350.738281 C 247.691406 351.066406 247.324219 351.285156 246.679688 351.449219 C 242.464844 350.789062 232.921875 351.148438 229.894531 350.03125 C 237.214844 350.191406 239.210938 350.628906 247.445312 350.738281 Z M 318.582031 353.074219 C 318.355469 353.15625 318.054688 353.226562 317.664062 353.285156 C 316.707031 353.25 316.894531 353.003906 317.664062 353 C 317.542969 352.835938 316.277344 352.882812 315.378906 352.859375 C 315.386719 352.847656 315.410156 352.835938 315.425781 352.828125 C 315.824219 352.585938 318.230469 352.714844 318.433594 352.4375 C 317.207031 352.191406 315.574219 352.023438 313.851562 351.871094 C 317.613281 351.367188 320.242188 352.480469 318.582031 353.074219 Z M 281.03125 347.488281 C 283.414062 347.632812 287.4375 348.289062 284.847656 348.761719 C 281.976562 349.285156 273.3125 348.316406 268.816406 348.902344 C 268.109375 347.550781 278.671875 347.34375 281.03125 347.488281 Z M 318.433594 363.328125 C 318.769531 362.152344 317.472656 360.898438 316.96875 359.773438 C 316.5625 358.863281 316.675781 358.03125 318.59375 357.394531 C 320.242188 356.847656 323.21875 356.445312 328.351562 356.257812 C 331.226562 354.953125 334.417969 354.125 332.925781 352.296875 C 332.910156 352.292969 332.894531 352.289062 332.878906 352.285156 C 328.351562 351.457031 326.011719 350.183594 319.195312 349.464844 C 320.625 349.199219 319.28125 349.113281 319.195312 348.761719 C 315.972656 348.648438 311.117188 348.839844 310.792969 348.195312 C 318.875 348.367188 319.941406 347.25 326.066406 347.0625 C 332.855469 345.730469 330.257812 343.523438 335.21875 342.394531 C 337.210938 342.574219 337.523438 342.707031 339.800781 342.535156 C 341.09375 341.589844 338.210938 341.304688 342.09375 340.699219 C 340.722656 340.125 338.757812 340.207031 335.984375 340.132812 C 333.714844 338.621094 325.875 338.140625 319.195312 337.445312 C 299.417969 337.429688 286.429688 335.5625 269.582031 335.890625 C 269.113281 335.007812 262.929688 335.101562 259.65625 335.464844 C 258.257812 335.113281 259.125 334.339844 256.601562 334.191406 C 254.492188 334.582031 257.289062 334.785156 257.371094 335.183594 C 254.558594 335.496094 248.039062 335.714844 245.921875 335.324219 C 240.789062 336.039062 231.023438 335.753906 224.546875 336.457031 C 222.082031 335.878906 218.433594 335.515625 213.097656 335.464844 C 213.003906 335.964844 211.84375 336.273438 210.8125 336.597656 C 196.222656 337.414062 188.347656 335.71875 174.171875 336.597656 C 170.308594 336.183594 164.371094 336.152344 158.148438 336.175781 C 142.601562 334.496094 119.398438 334.386719 100.136719 335.609375 C 94.792969 334.152344 86.214844 335.097656 79.527344 334.761719 C 68.910156 334.226562 58.347656 332.953125 47.46875 333.769531 C 46.210938 333.769531 47.046875 334.160156 45.945312 334.191406 C 44.199219 334.164062 42.335938 334.160156 40.394531 334.175781 L 39.777344 334.179688 L 39.703125 334.183594 L 39.546875 334.203125 C 39.4375 334.21875 39.328125 334.234375 39.214844 334.253906 C 38.761719 334.324219 38.210938 334.417969 37.6875 334.457031 C 37.675781 334.328125 37.671875 334.195312 37.671875 334.0625 C 37.671875 333.671875 37.804688 333.214844 37.90625 332.863281 C 37.960938 332.679688 38 332.519531 38.015625 332.359375 L 38.023438 331.21875 L 38.015625 330.019531 C 38.003906 329.222656 37.984375 328.421875 37.953125 327.617188 C 37.933594 327.125 37.910156 326.644531 37.890625 326.167969 C 37.570312 319.40625 36.988281 314.214844 35.832031 310.058594 C 35.886719 304.246094 34.207031 297.652344 34.980469 291.742188 C 34.816406 290.601562 34.394531 290.847656 34.414062 288.691406 C 34.375 287.191406 34.605469 287.175781 34.699219 286.398438 C 34.171875 286.46875 34.296875 287.253906 33.851562 286.398438 C 34.113281 290.671875 34.0625 292.707031 34.558594 296.320312 C 34.511719 297.355469 34.355469 297.78125 34.414062 299.375 C 35.292969 307.675781 36.3125 317.355469 36.820312 328.378906 C 36.855469 329.320312 36.890625 330.269531 36.925781 331.21875 L 36.945312 331.929688 L 36.953125 332.289062 C 36.957031 332.367188 36.957031 332.367188 36.957031 332.375 L 36.964844 332.402344 L 36.988281 332.621094 C 37.003906 332.789062 37.003906 332.949219 37.011719 333.113281 C 37.015625 333.238281 37.027344 333.367188 37.027344 333.492188 C 37.027344 334.058594 37.011719 334.640625 37.085938 335.058594 C 37.546875 335 38.019531 334.871094 38.4375 334.621094 C 38.632812 334.671875 38.261719 335.183594 38.398438 335.324219 C 38.839844 335.078125 39.078125 335.121094 39.386719 335.207031 C 39.464844 335.226562 39.542969 335.25 39.621094 335.269531 C 39.757812 335.292969 39.585938 335.316406 40.308594 335.328125 C 41.363281 335.359375 42.472656 335.371094 43.65625 335.324219 C 46.984375 335.203125 49.796875 334.519531 53.578125 334.476562 C 61.246094 334.386719 66.074219 335.035156 74.949219 335.042969 C 78.601562 335.988281 87.375 335.386719 87.921875 336.316406 C 86.21875 336.804688 82.511719 335.730469 80.296875 336.316406 C 81.808594 336.457031 83.550781 336.558594 84.109375 336.882812 C 76.292969 337.835938 73.378906 339.699219 63.503906 340.277344 C 55.265625 340.164062 49.300781 340.472656 44.417969 340.980469 C 42.808594 340.933594 41.160156 340.882812 39.472656 340.832031 C 38.628906 340.792969 37.765625 340.753906 36.886719 340.714844 C 36.488281 340.699219 36.082031 340.691406 35.679688 340.675781 C 34.90625 340.652344 34.128906 340.628906 33.34375 340.613281 C 32.753906 340.597656 32.167969 340.585938 31.570312 340.574219 C 31.605469 338 31.605469 335.417969 31.574219 332.785156 C 31.574219 332.710938 31.574219 332.636719 31.574219 332.566406 C 31.546875 329.710938 31.523438 326.84375 31.496094 323.984375 C 31.453125 321.042969 31.414062 318.113281 31.371094 315.203125 C 31.171875 303.570312 30.855469 292.332031 30.457031 282.582031 C 30.859375 276.085938 30.910156 270.625 30.597656 262.738281 C 32.476562 253.613281 30.035156 231.644531 31.164062 223.050781 C 29.8125 219.367188 30.347656 207.945312 31.03125 203.25 C 31.078125 202.953125 31.121094 202.683594 31.164062 202.445312 C 31.097656 202.335938 31.035156 202.203125 30.980469 202.054688 C 30.238281 200.058594 30.585938 194.515625 30.882812 190.992188 C 31.089844 190.980469 31.328125 194.210938 31.304688 190.992188 C 31.347656 189.488281 31.117188 189.480469 31.023438 188.703125 C 31.1875 187.964844 31.332031 187.109375 31.5 186.367188 C 31.644531 185.726562 31.804688 185.179688 32.015625 184.882812 C 32.109375 182.058594 31.773438 181.613281 31.871094 178.78125 C 32.152344 179.550781 32.476562 180.097656 32.578125 181.832031 C 32.773438 185.929688 32.3125 186.507812 32.15625 188.703125 C 32.507812 188.605469 32.597656 187.242188 32.71875 189.464844 C 31.839844 190.488281 32.9375 194.363281 32.15625 196.332031 C 32.132812 194.914062 32.0625 193.785156 31.871094 193.277344 C 31.984375 195.980469 32.121094 199.144531 32.253906 201.65625 C 32.265625 201.925781 32.28125 202.191406 32.296875 202.445312 C 32.289062 201.632812 32.363281 200.5 32.4375 201.679688 C 32.46875 201.136719 32.496094 200.601562 32.527344 200.054688 C 34.027344 173.824219 33.332031 150.640625 33.003906 124.589844 C 33.261719 123.511719 33.378906 121.679688 33.472656 119.726562 C 33.503906 119.066406 33.535156 118.386719 33.566406 117.722656 C 33.542969 117.199219 33.519531 116.6875 33.496094 116.183594 C 33.195312 109.304688 33.109375 104.40625 31.730469 102.457031 C 31.757812 111.683594 32.070312 118.960938 32.015625 133.75 C 31.640625 136.8125 31.136719 139.191406 30.3125 139.855469 C 29.777344 128 30.765625 115.289062 30.3125 103.980469 C 30.25 102.359375 30.050781 101.699219 30.03125 100.160156 C 30.027344 99.816406 30.023438 99.492188 30.023438 99.160156 C 29.953125 90.375 30.289062 85.734375 30.457031 79.554688 C 30.796875 67.132812 30.5 53.800781 30.738281 41.390625 L 30.757812 40.910156 L 30.785156 40.652344 C 30.808594 40.480469 30.835938 40.3125 30.867188 40.140625 C 30.925781 39.804688 30.996094 39.476562 31.046875 39.148438 C 31.148438 38.484375 31.167969 37.835938 30.882812 36.972656 C 30.789062 37.773438 30.707031 38.628906 30.640625 39.5 C 30.613281 39.945312 30.585938 40.382812 30.558594 40.820312 C 30.539062 41.632812 30.523438 42.4375 30.503906 43.226562 C 30.445312 46.542969 30.472656 49.625 30.597656 52.074219 C 30.109375 59.070312 29.9375 71.113281 29.890625 79.554688 C 28.714844 96.289062 29.605469 108.824219 29.039062 129.164062 C 28.292969 130.199219 28.4375 132.648438 28.339844 136.039062 C 27.488281 135.796875 27.160156 138.335938 27.066406 142.140625 C 27.273438 144.261719 27.640625 140.816406 27.769531 142.90625 C 27.515625 145.09375 27.238281 147.152344 26.636719 147.488281 C 26.640625 145.460938 26.585938 143.128906 26.78125 142.140625 C 26.105469 142.84375 26.171875 147.507812 25.363281 147.488281 C 24.996094 132.300781 23.6875 118.90625 24.09375 103.980469 C 24.484375 102.003906 25.050781 101.007812 25.363281 98.636719 C 24.773438 97.035156 24.4375 102.546875 23.8125 103.210938 C 23.367188 98.75 23.371094 91.839844 22.820312 87.949219 C 23.03125 87.050781 23.453125 87.289062 23.386719 84.894531 C 23.730469 70.597656 22.953125 60.964844 22.679688 49.789062 C 22.515625 43.109375 22.527344 36.960938 22.5625 30.796875 C 22.578125 28.464844 22.59375 26.132812 22.609375 23.765625 C 23.34375 23.769531 24.078125 23.773438 24.8125 23.773438 C 27.832031 23.789062 30.890625 23.796875 34.019531 23.773438 C 35.976562 23.75 37.960938 23.726562 39.988281 23.703125 C 42.089844 23.664062 44.234375 23.617188 46.421875 23.546875 C 47.640625 23.65625 46.246094 24.242188 48.707031 24.117188 C 60 24.324219 76.128906 23.75 82.292969 25.8125 C 87.09375 25.675781 88.316406 26.203125 91.453125 26.378906 C 92.875 26.265625 94.25 26.140625 96.03125 26.09375 C 97.691406 26.636719 102.835938 26.273438 106.714844 26.378906 C 111.042969 26.5 114.484375 27.175781 118.929688 27.367188 C 126.671875 27.699219 129.871094 27.246094 133.429688 26.941406 C 137.820312 26.566406 144.359375 26.4375 147.167969 25.53125 C 145.863281 25.300781 144.464844 25.085938 143.351562 24.824219 C 138.367188 25.355469 132.644531 26.425781 125.800781 26.378906 C 121.492188 26.347656 118.789062 25.472656 114.34375 25.8125 L 114.34375 25.390625 C 90.90625 25.945312 79.84375 22.273438 57.101562 22.703125 C 56.527344 22.640625 55.960938 22.574219 55.394531 22.511719 C 51.042969 22.011719 46.949219 21.460938 43.285156 20.832031 C 42.53125 20.703125 41.792969 20.574219 41.078125 20.4375 C 49.046875 20.597656 51.699219 19.765625 59.394531 19.871094 C 78.835938 17.8125 105.304688 19.4375 127.328125 18.742188 C 143.710938 19.441406 157.785156 18.4375 173.882812 18.316406 C 175.519531 18.886719 179.847656 18.957031 184.136719 19.035156 C 185.875 19.066406 187.605469 19.097656 189.148438 19.167969 C 189.542969 19.144531 189.753906 19.085938 189.890625 19.015625 C 190.292969 18.808594 190.085938 18.488281 192.203125 18.597656 C 195.714844 18.632812 198.226562 18.863281 200.265625 19.1875 C 202.085938 19.472656 203.527344 19.832031 204.949219 20.175781 C 205.675781 20.355469 206.390625 20.527344 207.15625 20.691406 C 208.1875 20.90625 209.296875 21.101562 210.601562 21.246094 C 211.277344 21.324219 212.007812 21.382812 212.808594 21.429688 C 214.292969 21.515625 216.929688 21.273438 218.917969 21.285156 C 221.777344 21.308594 227.296875 21.621094 229.601562 21.570312 C 237.933594 21.386719 245.699219 20.421875 254.789062 20.4375 C 267.792969 20.460938 282.527344 20.597656 296.769531 20.722656 C 302.589844 21.179688 309.933594 21.152344 317.683594 21.109375 C 321.558594 21.089844 325.535156 21.066406 329.476562 21.101562 C 330.507812 21.113281 331.53125 21.125 332.554688 21.136719 C 333.636719 21.160156 334.710938 21.179688 335.78125 21.199219 C 337.90625 21.253906 339.980469 21.328125 341.964844 21.429688 C 344.695312 21.238281 347.785156 21.140625 351.050781 21.09375 C 351.0625 21.964844 351.070312 22.855469 351.078125 23.757812 C 351.117188 29.144531 351.058594 35.023438 351.101562 40.597656 C 351.140625 45.671875 351.289062 50.425781 351.738281 54.402344 C 351.8125 55.066406 351.898438 55.714844 351.988281 56.332031 C 352.011719 57.382812 351.859375 57.5 351.726562 57.726562 C 351.609375 57.929688 351.507812 58.21875 351.566406 59.382812 C 351.625 59.933594 351.671875 60.496094 351.71875 61.058594 C 352.148438 66.3125 352.09375 71.890625 352.734375 75.84375 C 352.839844 76.511719 352.96875 77.140625 353.121094 77.707031 C 353.164062 79.476562 353.101562 80.632812 352.980469 81.523438 C 354.394531 101.839844 356.527344 123.074219 355.949219 149.453125 C 354.546875 157.910156 353.007812 165.613281 351.707031 174.640625 C 349.976562 182.082031 348.082031 188.660156 347.324219 201.351562 C 348.199219 215.019531 350.527344 224.660156 352.132812 231.882812 C 352.355469 236.960938 353.296875 238.96875 353.828125 240.277344 C 354.546875 252.066406 355.070312 261.691406 355.378906 273.765625 C 355.382812 273.796875 355.382812 273.828125 355.382812 273.863281 C 355.511719 278.800781 355.445312 283.34375 355.269531 287.644531 C 354.589844 304.5 352.179688 317.660156 352.554688 336.449219 C 352.414062 337.46875 352.175781 337.945312 352.132812 339.503906 C 353.011719 340.933594 351.460938 348.875 352.839844 350.1875 C 353.761719 346.210938 354.367188 337.507812 354.253906 330.34375 C 355.035156 328.019531 354.628906 323.960938 354.800781 320.050781 C 354.808594 319.917969 354.8125 319.789062 354.820312 319.65625 C 355.09375 314.601562 356.078125 310.164062 356.375 305.914062 C 356.457031 304.691406 356.203125 303.332031 356.230469 302.863281 C 356.425781 299.460938 357.023438 296.679688 357.082031 292.179688 C 357.210938 282.128906 356.957031 279.039062 356.65625 270.046875 C 356.199219 256.367188 355.824219 242.582031 354.445312 233.976562 C 353.984375 231.117188 353.414062 228.832031 352.695312 227.308594 C 352.722656 220.476562 350.683594 218.390625 350.011719 212.796875 C 349.859375 205.085938 349.425781 206.667969 349.585938 199.0625 C 352.085938 187.109375 355.140625 178.164062 357.417969 164.996094 C 357.917969 162.101562 358.378906 159.003906 358.785156 155.625 C 358.878906 154.851562 358.972656 154.070312 359.0625 153.265625 C 358.949219 148.460938 358.910156 143.839844 359.484375 141.058594 C 361 156.316406 360.125 181.90625 360.300781 203.992188 C 360.375 213.21875 360.628906 221.839844 361.324219 228.832031 C 362.003906 226.234375 361.605469 222.867188 361.609375 219.667969 C 361.609375 217.675781 361.613281 215.660156 361.617188 213.621094 C 361.625 210.503906 361.636719 207.332031 361.648438 204.109375 C 361.6875 192.714844 361.730469 180.652344 361.652344 167.960938 C 361.640625 165.875 361.625 163.777344 361.609375 161.664062 C 361.492188 149.144531 360.125 137.359375 360.335938 123.496094 C 360.457031 115.398438 360.976562 109.097656 360.898438 99.835938 C 361.121094 99.511719 361.019531 97.441406 361.464844 98.3125 C 361.195312 87.5 363.761719 78.449219 362.453125 68.546875 C 362.746094 68.972656 362.734375 70.839844 363.023438 69.308594 C 363.378906 62.714844 363.765625 55.648438 363.160156 49.460938 C 363.230469 47.425781 363.300781 45.328125 363.375 43.183594 C 363.394531 42.644531 363.414062 42.105469 363.433594 41.5625 L 363.460938 40.59375 C 363.472656 40.097656 363.480469 39.601562 363.492188 39.109375 C 363.53125 37.121094 363.566406 35.113281 363.605469 33.09375 C 363.609375 32.96875 363.613281 32.835938 363.613281 32.710938 C 363.746094 25.664062 363.863281 18.367188 363.941406 11.074219 C 363.953125 10.105469 363.964844 9.136719 363.976562 8.171875 C 357.871094 8.113281 351.726562 8.09375 345.710938 8.125 C 342.707031 8.160156 339.734375 8.191406 336.8125 8.222656 C 335.355469 8.25 333.914062 8.28125 332.484375 8.304688 L 331.414062 8.332031 L 330.738281 8.359375 C 330.351562 8.378906 329.96875 8.398438 329.589844 8.417969 C 324.550781 7.910156 318.78125 8.398438 313.5625 8.136719 C 288.785156 6.898438 263.0625 8.429688 238.765625 10.117188 C 236.980469 10.117188 235.203125 10.117188 233.417969 10.117188 C 226.039062 10.523438 218.792969 11.332031 210.519531 11.671875 C 193.492188 12.363281 173.269531 11.785156 155.566406 11.386719 C 155.488281 11.164062 155.667969 10.894531 154.039062 10.964844 C 136.777344 10.265625 120.390625 8.722656 102.136719 8.703125 C 97.683594 8.695312 93.492188 9.167969 89.160156 8.703125 C 84.515625 9.160156 78.703125 9.402344 73.136719 9.691406 C 67.917969 9.507812 61.121094 9.507812 54.539062 9.699219 C 51.25 9.792969 48.015625 9.9375 45.058594 10.121094 C 43.582031 10.21875 42.175781 10.320312 40.867188 10.4375 C 40.539062 10.464844 40.21875 10.496094 39.902344 10.527344 C 39.394531 10.558594 38.898438 10.589844 38.410156 10.621094 C 37.546875 10.679688 36.726562 10.738281 35.933594 10.792969 C 35.796875 10.800781 35.652344 10.8125 35.515625 10.824219 C 35.402344 10.816406 35.296875 10.816406 35.183594 10.8125 C 30.804688 10.652344 26.605469 10.675781 22.511719 10.753906 C 21.519531 10.78125 20.527344 10.804688 19.53125 10.828125 C 19.332031 10.832031 19.128906 10.839844 18.933594 10.84375 C 15.96875 10.914062 12.984375 10.988281 9.910156 11.058594 C 9.921875 12.316406 9.9375 13.582031 9.949219 14.875 C 9.984375 24.585938 10.019531 35.097656 10.058594 46.007812 C 10.070312 50.304688 10.085938 54.660156 10.101562 59.050781 C 10.195312 86.261719 10.292969 114.890625 10.375 139.089844 C 10.855469 142.253906 10.660156 144.625 10.941406 148.253906 C 10.261719 158.070312 10.871094 176.507812 11.507812 186.410156 C 10.816406 192.050781 11.304688 201.609375 10.941406 210.070312 C 10.65625 216.695312 9.816406 222.671875 10.519531 227.632812 C 10.191406 242.527344 10.941406 258.300781 9.949219 274.953125 C 9.582031 281.203125 8.988281 287.527344 8.628906 294.015625 C 8.601562 294.53125 8.5625 295.042969 8.539062 295.5625 C 8.710938 303.261719 8.582031 310.605469 8.695312 318.28125 C 8.722656 320.101562 8.757812 321.933594 8.820312 323.800781 C 8.988281 323.921875 9.222656 323.671875 9.246094 324.5625 C 9.179688 325.984375 9.203125 327.613281 9.269531 329.375 C 9.3125 330.257812 9.355469 331.171875 9.394531 332.105469 C 9.445312 333.636719 9.496094 335.207031 9.546875 336.796875 C 9.746094 343.394531 9.917969 350.121094 9.667969 356.585938 C 9.769531 358.46875 9.871094 360.332031 9.972656 362.175781 C 19.316406 361.691406 28.117188 361.121094 37.820312 360.710938 C 38.425781 360.6875 39.039062 360.660156 39.652344 360.636719 C 40.058594 360.613281 40.46875 360.589844 40.882812 360.566406 C 41.667969 360.523438 42.476562 360.480469 43.300781 360.4375 C 44.949219 360.359375 46.667969 360.292969 48.476562 360.25 C 52.082031 360.15625 56.03125 360.136719 60.449219 360.214844 C 68.136719 358.753906 84.921875 359.261719 95.5625 358.660156 C 103.722656 358.910156 117.101562 359.113281 123.035156 360.214844 C 128.289062 360.375 133.144531 360.605469 139.824219 360.496094 C 141.800781 360.648438 142.664062 361.007812 145.164062 361.0625 C 146.238281 360.835938 147.800781 360.703125 149.753906 360.640625 C 160.996094 361.601562 179.042969 361.535156 192.484375 360.921875 C 194.023438 361.460938 197.617188 360.792969 199.359375 361.34375 C 209.449219 361.023438 219.941406 360.519531 230.515625 360.203125 C 241.589844 359.875 252.75 359.761719 263.640625 360.292969 C 265.632812 360.386719 267.613281 360.496094 269.582031 360.640625 C 269.886719 360.777344 270.210938 360.910156 270.539062 361.039062 C 271.488281 361.40625 272.539062 361.742188 273.601562 362.058594 C 276.816406 363.023438 280.136719 363.859375 281.03125 365.164062 C 282.953125 365.464844 286.257812 365.515625 287.136719 366.011719 C 286.769531 366.457031 288.222656 366.566406 288.664062 366.863281 C 295.460938 367.613281 308.648438 368.617188 316.144531 367.570312 C 318.769531 366.597656 321.800781 365.617188 321.257812 364.609375 C 321.027344 364.1875 320.1875 363.757812 318.433594 363.328125 "/>
</g>
<path style=" stroke:none;fill-rule:nonzero;fill:rgb(100%,100%,100%);fill-opacity:1;" d="M 34.132812 271.136719 C 34.007812 269.785156 33.792969 268.90625 33.710938 267.320312 C 34.011719 267.175781 34.253906 257.515625 33.710938 255.871094 C 33.667969 265.90625 33.675781 274.121094 33.851562 284.875 C 34.660156 282.101562 33.667969 274.65625 34.132812 271.136719 "/>
<path style=" stroke:none;fill-rule:nonzero;fill:rgb(100%,100%,100%);fill-opacity:1;" d="M 34.132812 248.238281 C 33.8125 249.285156 33.601562 246.269531 33.566406 248.238281 C 34.066406 249.117188 34.085938 252.566406 34.558594 253.582031 C 34.558594 251.03125 34.097656 250.972656 34.132812 248.238281 "/>
<path style=" stroke:none;fill-rule:nonzero;fill:rgb(100%,100%,100%);fill-opacity:1;" d="M 341.523438 99.082031 C 341.957031 104.894531 341.585938 112.4375 342.371094 117.394531 C 341.871094 112.46875 342.25 102.804688 341.523438 99.082031 "/>
</g>
</svg>
