<?xml version="1.0" encoding="UTF-8"?>
<svg id="Calque_2" data-name="Calque 2" xmlns="http://www.w3.org/2000/svg" xmlns:xlink="http://www.w3.org/1999/xlink" viewBox="0 0 3282.27 539.13">
  <defs>
    <style>
      .cls-1 {
        fill: #fff;
      }

      .cls-2 {
        fill: url(#Dégradé_sans_nom_4);
      }

      .cls-3 {
        fill: #545454;
      }
    </style>
    <linearGradient id="Dégradé_sans_nom_4" data-name="Dégradé sans nom 4" x1="1170.02" y1="100.45" x2="1697.71" y2="100.45" gradientTransform="translate(1599.14 1709.15) rotate(-90)" gradientUnits="userSpaceOnUse">
      <stop offset="0" stop-color="#d24591"/>
      <stop offset="1" stop-color="#8f70ae"/>
    </linearGradient>
  </defs>
  <g id="Calque_1-2" data-name="Calque 1">
    <circle class="cls-2" cx="1699.59" cy="275.28" r="263.85"/>
    <g>
      <path class="cls-1" d="M1817.34,304.24c-4.23-9.67-9.87-17.98-16.77-24.67-6.76-6.51-14.5-11.91-23.04-16.04-8.05-3.9-16.34-7.1-24.61-9.47-8.29-2.35-19.72-4.51-26.82-5.54-3.46-.48-7.38-.97-11.59-1.5-4.77-.59-9.89-1.21-15.78-2.08-5.52-.79-11.02-1.72-16.04-2.89-42.47-7.77-76.17-19.66-100.24-35.35-1.03,5.83-1.54,11.43-1.54,17.05,0,12.25,2.18,23.18,6.49,32.48,4.23,9.18,9.91,17.19,16.91,23.83,6.82,6.43,14.54,11.85,23.02,16.08,8.01,4.02,16.38,7.34,24.84,9.85,8.15,2.43,16.16,4.35,23.8,5.74l19.4,3.5c1.17,.2,3.13,.43,5.6,.69,5.48,.59,13.45,1.46,21.17,3.1,27.81,4.59,67.15,15.86,98.64,43.34,1.94-8.07,2.91-15.69,2.91-23.26,0-13.39-2.15-25.12-6.37-34.85Z"/>
      <path class="cls-1" d="M1692.35,202.1h80.78c18.95,0,34.38-15.43,34.38-34.38s-15.43-34.38-34.38-34.38h-72.61c-15.11,0-29.2,1.26-41.87,3.72-13.63,2.71-26.23,7.38-37.4,13.92-11.71,6.86-21.4,16.3-28.82,28.09-.55,.83-1.01,1.74-1.8,3.34,16.4,11.97,39.36,21.8,68.28,29.25,7.58-9.53,25.46-9.53,33.43-9.55Z"/>
      <path class="cls-1" d="M1707.3,362.89c-.26,0-84.7,.06-84.7,.06-18.95,0-34.38,15.43-34.38,34.38s15.43,34.38,34.38,34.38l78.03,.06c22.57,0,38.33-1.64,52.71-5.46,14.06-3.74,26.46-9.4,36.79-16.85,7.85-5.64,14.52-12.96,20.39-22.41-16.67-16.56-38.49-29-64.94-36.95-5.9,8.37-19.09,12.78-38.26,12.78Z"/>
    </g>
    <g>
      <path class="cls-3" d="M0,0H86.46V76.16H0V0ZM2.05,139.98H84.39V478.26H2.05V139.98Z"/>
      <path class="cls-3" d="M484.43,260.06v218.2h-82.34v-197.61c0-23.33,0-75.48-62.44-75.48-76.85,0-76.85,77.54-76.85,137.92v135.17h-82.34V139.98h82.34v39.11c24.02-32.25,61.07-45.97,102.24-45.97,76.16,0,119.39,46.66,119.39,126.94Z"/>
      <path class="cls-3" d="M543.45,310.15c0-89.2,52.83-177.03,163.31-177.03,67.25,0,120.08,32.25,146.15,99.49l-78.22,30.88c-8.92-35.68-34.3-58.32-67.93-58.32-56.95,0-78.91,51.46-78.91,104.98s21.27,102.92,78.91,102.92c32.94,0,59.01-21.96,67.93-56.95l74.8,28.82c-22.64,63.13-74.8,100.18-142.03,100.18-110.47,0-163.99-85.77-163.99-174.97Z"/>
      <path class="cls-3" d="M908.49,397.29V0h82.34V391.8c0,15.09,8.92,21.27,24.02,21.27,7.54,0,16.46-1.37,26.07-4.12v65.87c-18.53,6.86-37.05,10.29-52.84,10.29-45.97,0-79.59-27.45-79.59-87.83Z"/>
      <path class="cls-3" d="M1397.05,139.98V478.26h-82.35v-39.11c-24.01,32.25-61.06,45.97-100.86,45.97-85.09,0-120.76-61.76-120.76-133.8V139.98h82.34v190.75c0,23.33,0,82.34,62.44,82.34,76.84,0,76.84-84.4,76.84-144.78V139.98h82.35Z"/>
      <path class="cls-3" d="M1991.55,310.15c0-89.2,52.84-177.03,163.31-177.03,67.25,0,120.08,32.25,146.16,99.49l-78.22,30.88c-8.92-35.68-34.31-58.32-67.94-58.32-56.95,0-78.91,51.46-78.91,104.98s21.28,102.92,78.91,102.92c32.94,0,59.01-21.96,67.94-56.95l74.78,28.82c-22.64,63.13-74.78,100.18-142.03,100.18-110.48,0-164-85.77-164-174.97Z"/>
      <path class="cls-3" d="M2326.41,308.77c0-96.07,64.5-175.66,169.48-175.66s169.49,79.59,169.49,175.66-65.19,176.34-169.49,176.34-169.48-80.97-169.48-176.34Zm256.63,0c0-55.58-24.7-103.61-87.15-103.61s-87.14,48.03-87.14,103.61,24.7,104.3,87.14,104.3,87.15-49.4,87.15-104.3Z"/>
      <path class="cls-3" d="M2969.36,152.33l-39.79,72.73c-11.66-7.54-24.7-11.67-41.17-11.67-50.09,0-74.8,30.88-74.8,94.69v170.17h-82.33V139.98h83.03v57.63c14.41-41.85,52.15-64.5,90.57-64.5,22.65,0,42.54,5.49,64.5,19.21Z"/>
      <path class="cls-3" d="M3280.21,336.22h-231.92c3.43,44.6,30.88,74.1,84.4,74.1,30.19,0,57.64-9.6,80.97-36.36l56.95,50.09c-37.06,41.17-81.65,61.07-138.6,61.07-116.65,0-166.05-83.71-166.05-174.29s48.02-177.71,160.56-177.71c104.98,0,155.76,77.54,155.76,171.54,0,10.29-.68,20.58-2.05,31.56Zm-76.85-65.18c-1.37-43.23-34.31-69.31-77.53-69.31-50.09,0-73.42,35.68-78.22,69.31h155.76Z"/>
    </g>
  </g>
</svg>